%TF.GenerationSoftware,KiCad,Pcbnew,6.0.4-6f826c9f35~116~ubuntu20.04.1*%
%TF.CreationDate,2022-08-15T10:28:23+00:00*%
%TF.ProjectId,SOLARMINIBAT01A,534f4c41-524d-4494-9e49-424154303141,rev?*%
%TF.SameCoordinates,Original*%
%TF.FileFunction,Paste,Bot*%
%TF.FilePolarity,Positive*%
%FSLAX46Y46*%
G04 Gerber Fmt 4.6, Leading zero omitted, Abs format (unit mm)*
G04 Created by KiCad (PCBNEW 6.0.4-6f826c9f35~116~ubuntu20.04.1) date 2022-08-15 10:28:23*
%MOMM*%
%LPD*%
G01*
G04 APERTURE LIST*
G04 Aperture macros list*
%AMRoundRect*
0 Rectangle with rounded corners*
0 $1 Rounding radius*
0 $2 $3 $4 $5 $6 $7 $8 $9 X,Y pos of 4 corners*
0 Add a 4 corners polygon primitive as box body*
4,1,4,$2,$3,$4,$5,$6,$7,$8,$9,$2,$3,0*
0 Add four circle primitives for the rounded corners*
1,1,$1+$1,$2,$3*
1,1,$1+$1,$4,$5*
1,1,$1+$1,$6,$7*
1,1,$1+$1,$8,$9*
0 Add four rect primitives between the rounded corners*
20,1,$1+$1,$2,$3,$4,$5,0*
20,1,$1+$1,$4,$5,$6,$7,0*
20,1,$1+$1,$6,$7,$8,$9,0*
20,1,$1+$1,$8,$9,$2,$3,0*%
%AMFreePoly0*
4,1,23,0.405000,0.738381,0.426981,0.740580,0.510583,0.710174,0.572730,0.646522,0.601125,0.562215,0.590151,0.473935,0.583859,0.464167,0.534020,0.288809,0.507268,0.096658,0.507316,-0.097345,0.534162,-0.289483,0.584197,-0.465200,0.590620,-0.475238,0.601329,-0.563551,0.572681,-0.647772,0.510344,-0.711238,0.426650,-0.741392,0.405000,-0.739160,0.405000,-0.750000,-0.645000,-0.750000,
-0.645000,0.750000,0.405000,0.750000,0.405000,0.738381,0.405000,0.738381,$1*%
G04 Aperture macros list end*
%ADD10FreePoly0,0.000000*%
%ADD11FreePoly0,180.000000*%
%ADD12R,1.800000X2.500000*%
%ADD13RoundRect,0.250000X-0.250000X-0.475000X0.250000X-0.475000X0.250000X0.475000X-0.250000X0.475000X0*%
%ADD14R,0.230000X0.230000*%
%ADD15O,0.230000X0.800000*%
%ADD16R,0.600000X0.230000*%
%ADD17R,0.900000X0.650000*%
%ADD18R,0.600000X0.150000*%
%ADD19RoundRect,0.250000X0.450000X-0.262500X0.450000X0.262500X-0.450000X0.262500X-0.450000X-0.262500X0*%
%ADD20RoundRect,0.250000X-0.625000X0.312500X-0.625000X-0.312500X0.625000X-0.312500X0.625000X0.312500X0*%
%ADD21RoundRect,0.250000X-1.450000X0.400000X-1.450000X-0.400000X1.450000X-0.400000X1.450000X0.400000X0*%
%ADD22RoundRect,0.250000X0.262500X0.450000X-0.262500X0.450000X-0.262500X-0.450000X0.262500X-0.450000X0*%
%ADD23RoundRect,0.250000X-0.262500X-0.450000X0.262500X-0.450000X0.262500X0.450000X-0.262500X0.450000X0*%
%ADD24R,5.500000X3.000000*%
%ADD25R,1.450000X0.450000*%
%ADD26RoundRect,0.250000X-0.450000X0.262500X-0.450000X-0.262500X0.450000X-0.262500X0.450000X0.262500X0*%
%ADD27RoundRect,0.250000X-0.475000X0.250000X-0.475000X-0.250000X0.475000X-0.250000X0.475000X0.250000X0*%
%ADD28RoundRect,0.250000X0.475000X-0.250000X0.475000X0.250000X-0.475000X0.250000X-0.475000X-0.250000X0*%
%ADD29RoundRect,0.249999X1.425001X-0.450001X1.425001X0.450001X-1.425001X0.450001X-1.425001X-0.450001X0*%
%ADD30RoundRect,0.250000X0.250000X0.475000X-0.250000X0.475000X-0.250000X-0.475000X0.250000X-0.475000X0*%
%ADD31RoundRect,0.150000X0.825000X0.150000X-0.825000X0.150000X-0.825000X-0.150000X0.825000X-0.150000X0*%
%ADD32R,3.000000X5.500000*%
%ADD33RoundRect,0.100000X-0.637500X-0.100000X0.637500X-0.100000X0.637500X0.100000X-0.637500X0.100000X0*%
G04 APERTURE END LIST*
D10*
%TO.C,D8*%
X1905000Y21560000D03*
D11*
X5715000Y21560000D03*
%TD*%
D12*
%TO.C,D10*%
X67056000Y33306000D03*
X67056000Y37306000D03*
%TD*%
D13*
%TO.C,C13*%
X65852000Y30099000D03*
X67752000Y30099000D03*
%TD*%
D14*
%TO.C,X1*%
X58912000Y44722000D03*
D15*
X58912000Y45007000D03*
D14*
X58412000Y44722000D03*
D15*
X58412000Y45007000D03*
X57912000Y45007000D03*
D14*
X57912000Y44722000D03*
X57412000Y44722000D03*
D15*
X57412000Y45007000D03*
D14*
X56912000Y44722000D03*
D15*
X56912000Y45007000D03*
X56912000Y47957000D03*
D14*
X56912000Y48242000D03*
D15*
X57412000Y47957000D03*
D14*
X57412000Y48242000D03*
X57912000Y48242000D03*
D15*
X57912000Y47957000D03*
X58412000Y47957000D03*
D14*
X58412000Y48242000D03*
D15*
X58912000Y47957000D03*
D14*
X58912000Y48242000D03*
D16*
X56487000Y45882000D03*
D17*
X57352000Y46917000D03*
D16*
X56487000Y46282000D03*
D18*
X59337000Y47082000D03*
X56487000Y46282000D03*
X56487000Y46682000D03*
D16*
X56487000Y46682000D03*
X59337000Y46682000D03*
D18*
X56487000Y47082000D03*
D17*
X57352000Y46047000D03*
D16*
X56487000Y47082000D03*
D18*
X59337000Y46282000D03*
X59337000Y46682000D03*
D17*
X58472000Y46917000D03*
D18*
X59337000Y45882000D03*
D16*
X59337000Y47082000D03*
D18*
X56487000Y45882000D03*
D16*
X59337000Y45882000D03*
X59337000Y46282000D03*
D17*
X58472000Y46047000D03*
%TD*%
D19*
%TO.C,R22*%
X69850000Y26924000D03*
X69850000Y28749000D03*
%TD*%
D20*
%TO.C,R21*%
X62738000Y36387500D03*
X62738000Y33462500D03*
%TD*%
D21*
%TO.C,F1*%
X23876000Y14163000D03*
X23876000Y9713000D03*
%TD*%
D13*
%TO.C,C16*%
X57978000Y39370000D03*
X59878000Y39370000D03*
%TD*%
D22*
%TO.C,R26*%
X55165000Y51562000D03*
X53340000Y51562000D03*
%TD*%
D10*
%TO.C,D1*%
X1905000Y49560000D03*
D11*
X5715000Y49560000D03*
%TD*%
D23*
%TO.C,R19*%
X76557500Y21463000D03*
X78382500Y21463000D03*
%TD*%
D24*
%TO.C,L2*%
X69088000Y41482000D03*
X69088000Y51482000D03*
%TD*%
D25*
%TO.C,U1*%
X35462000Y41828000D03*
X35462000Y41178000D03*
X35462000Y40528000D03*
X35462000Y39878000D03*
X35462000Y39228000D03*
X35462000Y38578000D03*
X35462000Y37928000D03*
X29562000Y37928000D03*
X29562000Y38578000D03*
X29562000Y39228000D03*
X29562000Y39878000D03*
X29562000Y40528000D03*
X29562000Y41178000D03*
X29562000Y41828000D03*
%TD*%
D13*
%TO.C,C17*%
X57978000Y41910000D03*
X59878000Y41910000D03*
%TD*%
D23*
%TO.C,R10*%
X7366000Y45560000D03*
X9191000Y45560000D03*
%TD*%
D13*
%TO.C,C7*%
X17592000Y57912000D03*
X19492000Y57912000D03*
%TD*%
D23*
%TO.C,R7*%
X21439500Y41910000D03*
X23264500Y41910000D03*
%TD*%
D26*
%TO.C,R25*%
X54864000Y55522500D03*
X54864000Y53697500D03*
%TD*%
D27*
%TO.C,C1*%
X39624000Y37810000D03*
X39624000Y35910000D03*
%TD*%
D19*
%TO.C,R24*%
X55372000Y40489500D03*
X55372000Y42314500D03*
%TD*%
D28*
%TO.C,C18*%
X51308000Y48072000D03*
X51308000Y49972000D03*
%TD*%
D13*
%TO.C,C5*%
X39394000Y39878000D03*
X41294000Y39878000D03*
%TD*%
D23*
%TO.C,R16*%
X7366000Y21560000D03*
X9191000Y21560000D03*
%TD*%
%TO.C,R15*%
X7366000Y25560000D03*
X9191000Y25560000D03*
%TD*%
D12*
%TO.C,D9*%
X61976000Y26638000D03*
X61976000Y22638000D03*
%TD*%
D13*
%TO.C,C11*%
X72202000Y25908000D03*
X74102000Y25908000D03*
%TD*%
%TO.C,C20*%
X57470000Y51562000D03*
X59370000Y51562000D03*
%TD*%
D29*
%TO.C,R8*%
X18288000Y35812000D03*
X18288000Y41912000D03*
%TD*%
D27*
%TO.C,C15*%
X59436000Y34539000D03*
X59436000Y32639000D03*
%TD*%
%TO.C,C6*%
X25400000Y35814000D03*
X25400000Y33914000D03*
%TD*%
D30*
%TO.C,C14*%
X62545000Y30099000D03*
X60645000Y30099000D03*
%TD*%
D10*
%TO.C,D5*%
X1905000Y33560000D03*
D11*
X5715000Y33560000D03*
%TD*%
D23*
%TO.C,R3*%
X37291000Y61976000D03*
X39116000Y61976000D03*
%TD*%
D28*
%TO.C,C10*%
X74295000Y21656000D03*
X74295000Y23556000D03*
%TD*%
D23*
%TO.C,R14*%
X7366000Y29560000D03*
X9191000Y29560000D03*
%TD*%
%TO.C,R6*%
X21439500Y35814000D03*
X23264500Y35814000D03*
%TD*%
%TO.C,R18*%
X69699500Y18542000D03*
X71524500Y18542000D03*
%TD*%
D31*
%TO.C,U2*%
X22541000Y55626000D03*
X22541000Y54356000D03*
X22541000Y53086000D03*
X22541000Y51816000D03*
X22541000Y50546000D03*
X22541000Y49276000D03*
X22541000Y48006000D03*
X17591000Y48006000D03*
X17591000Y49276000D03*
X17591000Y50546000D03*
X17591000Y51816000D03*
X17591000Y53086000D03*
X17591000Y54356000D03*
X17591000Y55626000D03*
%TD*%
D10*
%TO.C,D4*%
X1905000Y37560000D03*
D11*
X5715000Y37560000D03*
%TD*%
D13*
%TO.C,C22*%
X57470000Y57150000D03*
X59370000Y57150000D03*
%TD*%
D23*
%TO.C,R17*%
X60913000Y18542000D03*
X62738000Y18542000D03*
%TD*%
D30*
%TO.C,C19*%
X52766000Y53594000D03*
X50866000Y53594000D03*
%TD*%
D10*
%TO.C,D6*%
X1905000Y29560000D03*
D11*
X5715000Y29560000D03*
%TD*%
D23*
%TO.C,R12*%
X7366000Y37560000D03*
X9191000Y37560000D03*
%TD*%
D22*
%TO.C,R23*%
X74064500Y28321000D03*
X72239500Y28321000D03*
%TD*%
D28*
%TO.C,C4*%
X25400000Y41976000D03*
X25400000Y43876000D03*
%TD*%
D22*
%TO.C,R1*%
X43076500Y61976000D03*
X41251500Y61976000D03*
%TD*%
D30*
%TO.C,C2*%
X33528000Y34990000D03*
X31628000Y34990000D03*
%TD*%
D32*
%TO.C,L1*%
X47832000Y22098000D03*
X57832000Y22098000D03*
%TD*%
D13*
%TO.C,C12*%
X65852000Y27305000D03*
X67752000Y27305000D03*
%TD*%
D10*
%TO.C,D3*%
X1905000Y41560000D03*
D11*
X5715000Y41560000D03*
%TD*%
D13*
%TO.C,C21*%
X57470000Y54356000D03*
X59370000Y54356000D03*
%TD*%
D23*
%TO.C,R11*%
X7366000Y41560000D03*
X9191000Y41560000D03*
%TD*%
D33*
%TO.C,U3*%
X65717500Y21631000D03*
X65717500Y22281000D03*
X65717500Y22931000D03*
X65717500Y23581000D03*
X71442500Y23581000D03*
X71442500Y22931000D03*
X71442500Y22281000D03*
X71442500Y21631000D03*
%TD*%
D23*
%TO.C,R9*%
X7366000Y49560000D03*
X9191000Y49560000D03*
%TD*%
D13*
%TO.C,C9*%
X64709000Y18542000D03*
X66609000Y18542000D03*
%TD*%
D23*
%TO.C,R13*%
X7366000Y33560000D03*
X9191000Y33560000D03*
%TD*%
%TO.C,R2*%
X30075500Y61468000D03*
X31900500Y61468000D03*
%TD*%
D19*
%TO.C,R5*%
X35560000Y33377500D03*
X35560000Y35202500D03*
%TD*%
D10*
%TO.C,D7*%
X1905000Y25560000D03*
D11*
X5715000Y25560000D03*
%TD*%
D13*
%TO.C,C8*%
X50612000Y13716000D03*
X52512000Y13716000D03*
%TD*%
D28*
%TO.C,C3*%
X25400000Y37945000D03*
X25400000Y39845000D03*
%TD*%
D10*
%TO.C,D2*%
X1905000Y45560000D03*
D11*
X5715000Y45560000D03*
%TD*%
D23*
%TO.C,R20*%
X76557500Y23749000D03*
X78382500Y23749000D03*
%TD*%
M02*
