%TF.GenerationSoftware,KiCad,Pcbnew,6.0.4-6f826c9f35~116~ubuntu20.04.1*%
%TF.CreationDate,2022-08-10T08:24:31+00:00*%
%TF.ProjectId,SOLARMINIBAT01A,534f4c41-524d-4494-9e49-424154303141,rev?*%
%TF.SameCoordinates,Original*%
%TF.FileFunction,Legend,Bot*%
%TF.FilePolarity,Positive*%
%FSLAX46Y46*%
G04 Gerber Fmt 4.6, Leading zero omitted, Abs format (unit mm)*
G04 Created by KiCad (PCBNEW 6.0.4-6f826c9f35~116~ubuntu20.04.1) date 2022-08-10 08:24:31*
%MOMM*%
%LPD*%
G01*
G04 APERTURE LIST*
%ADD10C,0.150000*%
%ADD11C,0.304800*%
%ADD12C,0.120000*%
G04 APERTURE END LIST*
D10*
%TO.C,D10*%
X70008380Y36520286D02*
X69008380Y36520286D01*
X69008380Y36282191D01*
X69056000Y36139334D01*
X69151238Y36044096D01*
X69246476Y35996477D01*
X69436952Y35948858D01*
X69579809Y35948858D01*
X69770285Y35996477D01*
X69865523Y36044096D01*
X69960761Y36139334D01*
X70008380Y36282191D01*
X70008380Y36520286D01*
X70008380Y34996477D02*
X70008380Y35567905D01*
X70008380Y35282191D02*
X69008380Y35282191D01*
X69151238Y35377429D01*
X69246476Y35472667D01*
X69294095Y35567905D01*
X69008380Y34377429D02*
X69008380Y34282191D01*
X69056000Y34186953D01*
X69103619Y34139334D01*
X69198857Y34091715D01*
X69389333Y34044096D01*
X69627428Y34044096D01*
X69817904Y34091715D01*
X69913142Y34139334D01*
X69960761Y34186953D01*
X70008380Y34282191D01*
X70008380Y34377429D01*
X69960761Y34472667D01*
X69913142Y34520286D01*
X69817904Y34567905D01*
X69627428Y34615524D01*
X69389333Y34615524D01*
X69198857Y34567905D01*
X69103619Y34520286D01*
X69056000Y34472667D01*
X69008380Y34377429D01*
%TO.C,X1*%
X60164380Y47291524D02*
X61164380Y46624858D01*
X60164380Y46624858D02*
X61164380Y47291524D01*
X61164380Y45720096D02*
X61164380Y46291524D01*
X61164380Y46005810D02*
X60164380Y46005810D01*
X60307238Y46101048D01*
X60402476Y46196286D01*
X60450095Y46291524D01*
%TO.C,R22*%
X70302380Y31884858D02*
X69826190Y32218191D01*
X70302380Y32456286D02*
X69302380Y32456286D01*
X69302380Y32075334D01*
X69350000Y31980096D01*
X69397619Y31932477D01*
X69492857Y31884858D01*
X69635714Y31884858D01*
X69730952Y31932477D01*
X69778571Y31980096D01*
X69826190Y32075334D01*
X69826190Y32456286D01*
X69397619Y31503905D02*
X69350000Y31456286D01*
X69302380Y31361048D01*
X69302380Y31122953D01*
X69350000Y31027715D01*
X69397619Y30980096D01*
X69492857Y30932477D01*
X69588095Y30932477D01*
X69730952Y30980096D01*
X70302380Y31551524D01*
X70302380Y30932477D01*
X69397619Y30551524D02*
X69350000Y30503905D01*
X69302380Y30408667D01*
X69302380Y30170572D01*
X69350000Y30075334D01*
X69397619Y30027715D01*
X69492857Y29980096D01*
X69588095Y29980096D01*
X69730952Y30027715D01*
X70302380Y30599143D01*
X70302380Y29980096D01*
%TO.C,R21*%
X61370380Y35567858D02*
X60894190Y35901191D01*
X61370380Y36139286D02*
X60370380Y36139286D01*
X60370380Y35758334D01*
X60418000Y35663096D01*
X60465619Y35615477D01*
X60560857Y35567858D01*
X60703714Y35567858D01*
X60798952Y35615477D01*
X60846571Y35663096D01*
X60894190Y35758334D01*
X60894190Y36139286D01*
X60465619Y35186905D02*
X60418000Y35139286D01*
X60370380Y35044048D01*
X60370380Y34805953D01*
X60418000Y34710715D01*
X60465619Y34663096D01*
X60560857Y34615477D01*
X60656095Y34615477D01*
X60798952Y34663096D01*
X61370380Y35234524D01*
X61370380Y34615477D01*
X61370380Y33663096D02*
X61370380Y34234524D01*
X61370380Y33948810D02*
X60370380Y33948810D01*
X60513238Y34044048D01*
X60608476Y34139286D01*
X60656095Y34234524D01*
%TO.C,F1*%
X21154571Y12271334D02*
X21154571Y12604667D01*
X21678380Y12604667D02*
X20678380Y12604667D01*
X20678380Y12128477D01*
X21678380Y11223715D02*
X21678380Y11795143D01*
X21678380Y11509429D02*
X20678380Y11509429D01*
X20821238Y11604667D01*
X20916476Y11699905D01*
X20964095Y11795143D01*
%TO.C,C16*%
X60840857Y37332858D02*
X60888476Y37285239D01*
X61031333Y37237620D01*
X61126571Y37237620D01*
X61269428Y37285239D01*
X61364666Y37380477D01*
X61412285Y37475715D01*
X61459904Y37666191D01*
X61459904Y37809048D01*
X61412285Y37999524D01*
X61364666Y38094762D01*
X61269428Y38190000D01*
X61126571Y38237620D01*
X61031333Y38237620D01*
X60888476Y38190000D01*
X60840857Y38142381D01*
X59888476Y37237620D02*
X60459904Y37237620D01*
X60174190Y37237620D02*
X60174190Y38237620D01*
X60269428Y38094762D01*
X60364666Y37999524D01*
X60459904Y37951905D01*
X59031333Y38237620D02*
X59221809Y38237620D01*
X59317047Y38190000D01*
X59364666Y38142381D01*
X59459904Y37999524D01*
X59507523Y37809048D01*
X59507523Y37428096D01*
X59459904Y37332858D01*
X59412285Y37285239D01*
X59317047Y37237620D01*
X59126571Y37237620D01*
X59031333Y37285239D01*
X58983714Y37332858D01*
X58936095Y37428096D01*
X58936095Y37666191D01*
X58983714Y37761429D01*
X59031333Y37809048D01*
X59126571Y37856667D01*
X59317047Y37856667D01*
X59412285Y37809048D01*
X59459904Y37761429D01*
X59507523Y37666191D01*
%TO.C,R19*%
X78112857Y19360620D02*
X78446190Y19836810D01*
X78684285Y19360620D02*
X78684285Y20360620D01*
X78303333Y20360620D01*
X78208095Y20313000D01*
X78160476Y20265381D01*
X78112857Y20170143D01*
X78112857Y20027286D01*
X78160476Y19932048D01*
X78208095Y19884429D01*
X78303333Y19836810D01*
X78684285Y19836810D01*
X77160476Y19360620D02*
X77731904Y19360620D01*
X77446190Y19360620D02*
X77446190Y20360620D01*
X77541428Y20217762D01*
X77636666Y20122524D01*
X77731904Y20074905D01*
X76684285Y19360620D02*
X76493809Y19360620D01*
X76398571Y19408239D01*
X76350952Y19455858D01*
X76255714Y19598715D01*
X76208095Y19789191D01*
X76208095Y20170143D01*
X76255714Y20265381D01*
X76303333Y20313000D01*
X76398571Y20360620D01*
X76589047Y20360620D01*
X76684285Y20313000D01*
X76731904Y20265381D01*
X76779523Y20170143D01*
X76779523Y19932048D01*
X76731904Y19836810D01*
X76684285Y19789191D01*
X76589047Y19741572D01*
X76398571Y19741572D01*
X76303333Y19789191D01*
X76255714Y19836810D01*
X76208095Y19932048D01*
D11*
%TO.C,L2*%
X69777428Y46736000D02*
X69777428Y47461715D01*
X68253428Y47461715D01*
X68398571Y46300572D02*
X68326000Y46228000D01*
X68253428Y46082858D01*
X68253428Y45720000D01*
X68326000Y45574858D01*
X68398571Y45502286D01*
X68543714Y45429715D01*
X68688857Y45429715D01*
X68906571Y45502286D01*
X69777428Y46373143D01*
X69777428Y45429715D01*
D10*
%TO.C,U1*%
X33273904Y43975620D02*
X33273904Y43166096D01*
X33226285Y43070858D01*
X33178666Y43023239D01*
X33083428Y42975620D01*
X32892952Y42975620D01*
X32797714Y43023239D01*
X32750095Y43070858D01*
X32702476Y43166096D01*
X32702476Y43975620D01*
X31702476Y42975620D02*
X32273904Y42975620D01*
X31988190Y42975620D02*
X31988190Y43975620D01*
X32083428Y43832762D01*
X32178666Y43737524D01*
X32273904Y43689905D01*
%TO.C,C17*%
X61094857Y43076858D02*
X61142476Y43029239D01*
X61285333Y42981620D01*
X61380571Y42981620D01*
X61523428Y43029239D01*
X61618666Y43124477D01*
X61666285Y43219715D01*
X61713904Y43410191D01*
X61713904Y43553048D01*
X61666285Y43743524D01*
X61618666Y43838762D01*
X61523428Y43934000D01*
X61380571Y43981620D01*
X61285333Y43981620D01*
X61142476Y43934000D01*
X61094857Y43886381D01*
X60142476Y42981620D02*
X60713904Y42981620D01*
X60428190Y42981620D02*
X60428190Y43981620D01*
X60523428Y43838762D01*
X60618666Y43743524D01*
X60713904Y43695905D01*
X59809142Y43981620D02*
X59142476Y43981620D01*
X59571047Y42981620D01*
%TO.C,R10*%
X8921357Y43457620D02*
X9254690Y43933810D01*
X9492785Y43457620D02*
X9492785Y44457620D01*
X9111833Y44457620D01*
X9016595Y44410000D01*
X8968976Y44362381D01*
X8921357Y44267143D01*
X8921357Y44124286D01*
X8968976Y44029048D01*
X9016595Y43981429D01*
X9111833Y43933810D01*
X9492785Y43933810D01*
X7968976Y43457620D02*
X8540404Y43457620D01*
X8254690Y43457620D02*
X8254690Y44457620D01*
X8349928Y44314762D01*
X8445166Y44219524D01*
X8540404Y44171905D01*
X7349928Y44457620D02*
X7254690Y44457620D01*
X7159452Y44410000D01*
X7111833Y44362381D01*
X7064214Y44267143D01*
X7016595Y44076667D01*
X7016595Y43838572D01*
X7064214Y43648096D01*
X7111833Y43552858D01*
X7159452Y43505239D01*
X7254690Y43457620D01*
X7349928Y43457620D01*
X7445166Y43505239D01*
X7492785Y43552858D01*
X7540404Y43648096D01*
X7588023Y43838572D01*
X7588023Y44076667D01*
X7540404Y44267143D01*
X7492785Y44362381D01*
X7445166Y44410000D01*
X7349928Y44457620D01*
%TO.C,C7*%
X15914666Y57554858D02*
X15962285Y57507239D01*
X16105142Y57459620D01*
X16200380Y57459620D01*
X16343238Y57507239D01*
X16438476Y57602477D01*
X16486095Y57697715D01*
X16533714Y57888191D01*
X16533714Y58031048D01*
X16486095Y58221524D01*
X16438476Y58316762D01*
X16343238Y58412000D01*
X16200380Y58459620D01*
X16105142Y58459620D01*
X15962285Y58412000D01*
X15914666Y58364381D01*
X15581333Y58459620D02*
X14914666Y58459620D01*
X15343238Y57459620D01*
%TO.C,R7*%
X22518666Y39807620D02*
X22852000Y40283810D01*
X23090095Y39807620D02*
X23090095Y40807620D01*
X22709142Y40807620D01*
X22613904Y40760000D01*
X22566285Y40712381D01*
X22518666Y40617143D01*
X22518666Y40474286D01*
X22566285Y40379048D01*
X22613904Y40331429D01*
X22709142Y40283810D01*
X23090095Y40283810D01*
X22185333Y40807620D02*
X21518666Y40807620D01*
X21947238Y39807620D01*
%TO.C,C1*%
X38301142Y37026667D02*
X38348761Y37074286D01*
X38396380Y37217143D01*
X38396380Y37312381D01*
X38348761Y37455239D01*
X38253523Y37550477D01*
X38158285Y37598096D01*
X37967809Y37645715D01*
X37824952Y37645715D01*
X37634476Y37598096D01*
X37539238Y37550477D01*
X37444000Y37455239D01*
X37396380Y37312381D01*
X37396380Y37217143D01*
X37444000Y37074286D01*
X37491619Y37026667D01*
X38396380Y36074286D02*
X38396380Y36645715D01*
X38396380Y36360000D02*
X37396380Y36360000D01*
X37539238Y36455239D01*
X37634476Y36550477D01*
X37682095Y36645715D01*
%TO.C,R24*%
X55824380Y38742858D02*
X55348190Y39076191D01*
X55824380Y39314286D02*
X54824380Y39314286D01*
X54824380Y38933334D01*
X54872000Y38838096D01*
X54919619Y38790477D01*
X55014857Y38742858D01*
X55157714Y38742858D01*
X55252952Y38790477D01*
X55300571Y38838096D01*
X55348190Y38933334D01*
X55348190Y39314286D01*
X54919619Y38361905D02*
X54872000Y38314286D01*
X54824380Y38219048D01*
X54824380Y37980953D01*
X54872000Y37885715D01*
X54919619Y37838096D01*
X55014857Y37790477D01*
X55110095Y37790477D01*
X55252952Y37838096D01*
X55824380Y38409524D01*
X55824380Y37790477D01*
X55157714Y36933334D02*
X55824380Y36933334D01*
X54776761Y37171429D02*
X55491047Y37409524D01*
X55491047Y36790477D01*
%TO.C,C18*%
X53345142Y49664858D02*
X53392761Y49712477D01*
X53440380Y49855334D01*
X53440380Y49950572D01*
X53392761Y50093429D01*
X53297523Y50188667D01*
X53202285Y50236286D01*
X53011809Y50283905D01*
X52868952Y50283905D01*
X52678476Y50236286D01*
X52583238Y50188667D01*
X52488000Y50093429D01*
X52440380Y49950572D01*
X52440380Y49855334D01*
X52488000Y49712477D01*
X52535619Y49664858D01*
X53440380Y48712477D02*
X53440380Y49283905D01*
X53440380Y48998191D02*
X52440380Y48998191D01*
X52583238Y49093429D01*
X52678476Y49188667D01*
X52726095Y49283905D01*
X52868952Y48141048D02*
X52821333Y48236286D01*
X52773714Y48283905D01*
X52678476Y48331524D01*
X52630857Y48331524D01*
X52535619Y48283905D01*
X52488000Y48236286D01*
X52440380Y48141048D01*
X52440380Y47950572D01*
X52488000Y47855334D01*
X52535619Y47807715D01*
X52630857Y47760096D01*
X52678476Y47760096D01*
X52773714Y47807715D01*
X52821333Y47855334D01*
X52868952Y47950572D01*
X52868952Y48141048D01*
X52916571Y48236286D01*
X52964190Y48283905D01*
X53059428Y48331524D01*
X53249904Y48331524D01*
X53345142Y48283905D01*
X53392761Y48236286D01*
X53440380Y48141048D01*
X53440380Y47950572D01*
X53392761Y47855334D01*
X53345142Y47807715D01*
X53249904Y47760096D01*
X53059428Y47760096D01*
X52964190Y47807715D01*
X52916571Y47855334D01*
X52868952Y47950572D01*
%TO.C,C5*%
X43346666Y39520858D02*
X43394285Y39473239D01*
X43537142Y39425620D01*
X43632380Y39425620D01*
X43775238Y39473239D01*
X43870476Y39568477D01*
X43918095Y39663715D01*
X43965714Y39854191D01*
X43965714Y39997048D01*
X43918095Y40187524D01*
X43870476Y40282762D01*
X43775238Y40378000D01*
X43632380Y40425620D01*
X43537142Y40425620D01*
X43394285Y40378000D01*
X43346666Y40330381D01*
X42441904Y40425620D02*
X42918095Y40425620D01*
X42965714Y39949429D01*
X42918095Y39997048D01*
X42822857Y40044667D01*
X42584761Y40044667D01*
X42489523Y39997048D01*
X42441904Y39949429D01*
X42394285Y39854191D01*
X42394285Y39616096D01*
X42441904Y39520858D01*
X42489523Y39473239D01*
X42584761Y39425620D01*
X42822857Y39425620D01*
X42918095Y39473239D01*
X42965714Y39520858D01*
%TO.C,R16*%
X8921357Y19457620D02*
X9254690Y19933810D01*
X9492785Y19457620D02*
X9492785Y20457620D01*
X9111833Y20457620D01*
X9016595Y20410000D01*
X8968976Y20362381D01*
X8921357Y20267143D01*
X8921357Y20124286D01*
X8968976Y20029048D01*
X9016595Y19981429D01*
X9111833Y19933810D01*
X9492785Y19933810D01*
X7968976Y19457620D02*
X8540404Y19457620D01*
X8254690Y19457620D02*
X8254690Y20457620D01*
X8349928Y20314762D01*
X8445166Y20219524D01*
X8540404Y20171905D01*
X7111833Y20457620D02*
X7302309Y20457620D01*
X7397547Y20410000D01*
X7445166Y20362381D01*
X7540404Y20219524D01*
X7588023Y20029048D01*
X7588023Y19648096D01*
X7540404Y19552858D01*
X7492785Y19505239D01*
X7397547Y19457620D01*
X7207071Y19457620D01*
X7111833Y19505239D01*
X7064214Y19552858D01*
X7016595Y19648096D01*
X7016595Y19886191D01*
X7064214Y19981429D01*
X7111833Y20029048D01*
X7207071Y20076667D01*
X7397547Y20076667D01*
X7492785Y20029048D01*
X7540404Y19981429D01*
X7588023Y19886191D01*
%TO.C,R15*%
X8921357Y23457620D02*
X9254690Y23933810D01*
X9492785Y23457620D02*
X9492785Y24457620D01*
X9111833Y24457620D01*
X9016595Y24410000D01*
X8968976Y24362381D01*
X8921357Y24267143D01*
X8921357Y24124286D01*
X8968976Y24029048D01*
X9016595Y23981429D01*
X9111833Y23933810D01*
X9492785Y23933810D01*
X7968976Y23457620D02*
X8540404Y23457620D01*
X8254690Y23457620D02*
X8254690Y24457620D01*
X8349928Y24314762D01*
X8445166Y24219524D01*
X8540404Y24171905D01*
X7064214Y24457620D02*
X7540404Y24457620D01*
X7588023Y23981429D01*
X7540404Y24029048D01*
X7445166Y24076667D01*
X7207071Y24076667D01*
X7111833Y24029048D01*
X7064214Y23981429D01*
X7016595Y23886191D01*
X7016595Y23648096D01*
X7064214Y23552858D01*
X7111833Y23505239D01*
X7207071Y23457620D01*
X7445166Y23457620D01*
X7540404Y23505239D01*
X7588023Y23552858D01*
%TO.C,D9*%
X64968380Y25884096D02*
X63968380Y25884096D01*
X63968380Y25646000D01*
X64016000Y25503143D01*
X64111238Y25407905D01*
X64206476Y25360286D01*
X64396952Y25312667D01*
X64539809Y25312667D01*
X64730285Y25360286D01*
X64825523Y25407905D01*
X64920761Y25503143D01*
X64968380Y25646000D01*
X64968380Y25884096D01*
X64968380Y24836477D02*
X64968380Y24646000D01*
X64920761Y24550762D01*
X64873142Y24503143D01*
X64730285Y24407905D01*
X64539809Y24360286D01*
X64158857Y24360286D01*
X64063619Y24407905D01*
X64016000Y24455524D01*
X63968380Y24550762D01*
X63968380Y24741239D01*
X64016000Y24836477D01*
X64063619Y24884096D01*
X64158857Y24931715D01*
X64396952Y24931715D01*
X64492190Y24884096D01*
X64539809Y24836477D01*
X64587428Y24741239D01*
X64587428Y24550762D01*
X64539809Y24455524D01*
X64492190Y24407905D01*
X64396952Y24360286D01*
%TO.C,C11*%
X77350857Y26312858D02*
X77398476Y26265239D01*
X77541333Y26217620D01*
X77636571Y26217620D01*
X77779428Y26265239D01*
X77874666Y26360477D01*
X77922285Y26455715D01*
X77969904Y26646191D01*
X77969904Y26789048D01*
X77922285Y26979524D01*
X77874666Y27074762D01*
X77779428Y27170000D01*
X77636571Y27217620D01*
X77541333Y27217620D01*
X77398476Y27170000D01*
X77350857Y27122381D01*
X76398476Y26217620D02*
X76969904Y26217620D01*
X76684190Y26217620D02*
X76684190Y27217620D01*
X76779428Y27074762D01*
X76874666Y26979524D01*
X76969904Y26931905D01*
X75446095Y26217620D02*
X76017523Y26217620D01*
X75731809Y26217620D02*
X75731809Y27217620D01*
X75827047Y27074762D01*
X75922285Y26979524D01*
X76017523Y26931905D01*
%TO.C,C20*%
X59062857Y49524858D02*
X59110476Y49477239D01*
X59253333Y49429620D01*
X59348571Y49429620D01*
X59491428Y49477239D01*
X59586666Y49572477D01*
X59634285Y49667715D01*
X59681904Y49858191D01*
X59681904Y50001048D01*
X59634285Y50191524D01*
X59586666Y50286762D01*
X59491428Y50382000D01*
X59348571Y50429620D01*
X59253333Y50429620D01*
X59110476Y50382000D01*
X59062857Y50334381D01*
X58681904Y50334381D02*
X58634285Y50382000D01*
X58539047Y50429620D01*
X58300952Y50429620D01*
X58205714Y50382000D01*
X58158095Y50334381D01*
X58110476Y50239143D01*
X58110476Y50143905D01*
X58158095Y50001048D01*
X58729523Y49429620D01*
X58110476Y49429620D01*
X57491428Y50429620D02*
X57396190Y50429620D01*
X57300952Y50382000D01*
X57253333Y50334381D01*
X57205714Y50239143D01*
X57158095Y50048667D01*
X57158095Y49810572D01*
X57205714Y49620096D01*
X57253333Y49524858D01*
X57300952Y49477239D01*
X57396190Y49429620D01*
X57491428Y49429620D01*
X57586666Y49477239D01*
X57634285Y49524858D01*
X57681904Y49620096D01*
X57729523Y49810572D01*
X57729523Y50048667D01*
X57681904Y50239143D01*
X57634285Y50334381D01*
X57586666Y50382000D01*
X57491428Y50429620D01*
%TO.C,JP1*%
X52649333Y41165620D02*
X52649333Y40451334D01*
X52696952Y40308477D01*
X52792190Y40213239D01*
X52935047Y40165620D01*
X53030285Y40165620D01*
X52173142Y40165620D02*
X52173142Y41165620D01*
X51792190Y41165620D01*
X51696952Y41118000D01*
X51649333Y41070381D01*
X51601714Y40975143D01*
X51601714Y40832286D01*
X51649333Y40737048D01*
X51696952Y40689429D01*
X51792190Y40641810D01*
X52173142Y40641810D01*
X50649333Y40165620D02*
X51220761Y40165620D01*
X50935047Y40165620D02*
X50935047Y41165620D01*
X51030285Y41022762D01*
X51125523Y40927524D01*
X51220761Y40879905D01*
%TO.C,R8*%
X21360380Y39028667D02*
X20884190Y39362000D01*
X21360380Y39600096D02*
X20360380Y39600096D01*
X20360380Y39219143D01*
X20408000Y39123905D01*
X20455619Y39076286D01*
X20550857Y39028667D01*
X20693714Y39028667D01*
X20788952Y39076286D01*
X20836571Y39123905D01*
X20884190Y39219143D01*
X20884190Y39600096D01*
X20788952Y38457239D02*
X20741333Y38552477D01*
X20693714Y38600096D01*
X20598476Y38647715D01*
X20550857Y38647715D01*
X20455619Y38600096D01*
X20408000Y38552477D01*
X20360380Y38457239D01*
X20360380Y38266762D01*
X20408000Y38171524D01*
X20455619Y38123905D01*
X20550857Y38076286D01*
X20598476Y38076286D01*
X20693714Y38123905D01*
X20741333Y38171524D01*
X20788952Y38266762D01*
X20788952Y38457239D01*
X20836571Y38552477D01*
X20884190Y38600096D01*
X20979428Y38647715D01*
X21169904Y38647715D01*
X21265142Y38600096D01*
X21312761Y38552477D01*
X21360380Y38457239D01*
X21360380Y38266762D01*
X21312761Y38171524D01*
X21265142Y38123905D01*
X21169904Y38076286D01*
X20979428Y38076286D01*
X20884190Y38123905D01*
X20836571Y38171524D01*
X20788952Y38266762D01*
%TO.C,C15*%
X58113142Y34231858D02*
X58160761Y34279477D01*
X58208380Y34422334D01*
X58208380Y34517572D01*
X58160761Y34660429D01*
X58065523Y34755667D01*
X57970285Y34803286D01*
X57779809Y34850905D01*
X57636952Y34850905D01*
X57446476Y34803286D01*
X57351238Y34755667D01*
X57256000Y34660429D01*
X57208380Y34517572D01*
X57208380Y34422334D01*
X57256000Y34279477D01*
X57303619Y34231858D01*
X58208380Y33279477D02*
X58208380Y33850905D01*
X58208380Y33565191D02*
X57208380Y33565191D01*
X57351238Y33660429D01*
X57446476Y33755667D01*
X57494095Y33850905D01*
X57208380Y32374715D02*
X57208380Y32850905D01*
X57684571Y32898524D01*
X57636952Y32850905D01*
X57589333Y32755667D01*
X57589333Y32517572D01*
X57636952Y32422334D01*
X57684571Y32374715D01*
X57779809Y32327096D01*
X58017904Y32327096D01*
X58113142Y32374715D01*
X58160761Y32422334D01*
X58208380Y32517572D01*
X58208380Y32755667D01*
X58160761Y32850905D01*
X58113142Y32898524D01*
%TO.C,C6*%
X27789142Y35030667D02*
X27836761Y35078286D01*
X27884380Y35221143D01*
X27884380Y35316381D01*
X27836761Y35459239D01*
X27741523Y35554477D01*
X27646285Y35602096D01*
X27455809Y35649715D01*
X27312952Y35649715D01*
X27122476Y35602096D01*
X27027238Y35554477D01*
X26932000Y35459239D01*
X26884380Y35316381D01*
X26884380Y35221143D01*
X26932000Y35078286D01*
X26979619Y35030667D01*
X26884380Y34173524D02*
X26884380Y34364000D01*
X26932000Y34459239D01*
X26979619Y34506858D01*
X27122476Y34602096D01*
X27312952Y34649715D01*
X27693904Y34649715D01*
X27789142Y34602096D01*
X27836761Y34554477D01*
X27884380Y34459239D01*
X27884380Y34268762D01*
X27836761Y34173524D01*
X27789142Y34125905D01*
X27693904Y34078286D01*
X27455809Y34078286D01*
X27360571Y34125905D01*
X27312952Y34173524D01*
X27265333Y34268762D01*
X27265333Y34459239D01*
X27312952Y34554477D01*
X27360571Y34602096D01*
X27455809Y34649715D01*
%TO.C,C14*%
X62237857Y31421858D02*
X62285476Y31374239D01*
X62428333Y31326620D01*
X62523571Y31326620D01*
X62666428Y31374239D01*
X62761666Y31469477D01*
X62809285Y31564715D01*
X62856904Y31755191D01*
X62856904Y31898048D01*
X62809285Y32088524D01*
X62761666Y32183762D01*
X62666428Y32279000D01*
X62523571Y32326620D01*
X62428333Y32326620D01*
X62285476Y32279000D01*
X62237857Y32231381D01*
X61285476Y31326620D02*
X61856904Y31326620D01*
X61571190Y31326620D02*
X61571190Y32326620D01*
X61666428Y32183762D01*
X61761666Y32088524D01*
X61856904Y32040905D01*
X60428333Y31993286D02*
X60428333Y31326620D01*
X60666428Y32374239D02*
X60904523Y31659953D01*
X60285476Y31659953D01*
%TO.C,R3*%
X35472666Y61523620D02*
X35806000Y61999810D01*
X36044095Y61523620D02*
X36044095Y62523620D01*
X35663142Y62523620D01*
X35567904Y62476000D01*
X35520285Y62428381D01*
X35472666Y62333143D01*
X35472666Y62190286D01*
X35520285Y62095048D01*
X35567904Y62047429D01*
X35663142Y61999810D01*
X36044095Y61999810D01*
X35139333Y62523620D02*
X34520285Y62523620D01*
X34853619Y62142667D01*
X34710761Y62142667D01*
X34615523Y62095048D01*
X34567904Y62047429D01*
X34520285Y61952191D01*
X34520285Y61714096D01*
X34567904Y61618858D01*
X34615523Y61571239D01*
X34710761Y61523620D01*
X34996476Y61523620D01*
X35091714Y61571239D01*
X35139333Y61618858D01*
%TO.C,C10*%
X74779142Y19946858D02*
X74826761Y19994477D01*
X74874380Y20137334D01*
X74874380Y20232572D01*
X74826761Y20375429D01*
X74731523Y20470667D01*
X74636285Y20518286D01*
X74445809Y20565905D01*
X74302952Y20565905D01*
X74112476Y20518286D01*
X74017238Y20470667D01*
X73922000Y20375429D01*
X73874380Y20232572D01*
X73874380Y20137334D01*
X73922000Y19994477D01*
X73969619Y19946858D01*
X74874380Y18994477D02*
X74874380Y19565905D01*
X74874380Y19280191D02*
X73874380Y19280191D01*
X74017238Y19375429D01*
X74112476Y19470667D01*
X74160095Y19565905D01*
X73874380Y18375429D02*
X73874380Y18280191D01*
X73922000Y18184953D01*
X73969619Y18137334D01*
X74064857Y18089715D01*
X74255333Y18042096D01*
X74493428Y18042096D01*
X74683904Y18089715D01*
X74779142Y18137334D01*
X74826761Y18184953D01*
X74874380Y18280191D01*
X74874380Y18375429D01*
X74826761Y18470667D01*
X74779142Y18518286D01*
X74683904Y18565905D01*
X74493428Y18613524D01*
X74255333Y18613524D01*
X74064857Y18565905D01*
X73969619Y18518286D01*
X73922000Y18470667D01*
X73874380Y18375429D01*
%TO.C,R14*%
X8921357Y27457620D02*
X9254690Y27933810D01*
X9492785Y27457620D02*
X9492785Y28457620D01*
X9111833Y28457620D01*
X9016595Y28410000D01*
X8968976Y28362381D01*
X8921357Y28267143D01*
X8921357Y28124286D01*
X8968976Y28029048D01*
X9016595Y27981429D01*
X9111833Y27933810D01*
X9492785Y27933810D01*
X7968976Y27457620D02*
X8540404Y27457620D01*
X8254690Y27457620D02*
X8254690Y28457620D01*
X8349928Y28314762D01*
X8445166Y28219524D01*
X8540404Y28171905D01*
X7111833Y28124286D02*
X7111833Y27457620D01*
X7349928Y28505239D02*
X7588023Y27790953D01*
X6968976Y27790953D01*
%TO.C,R6*%
X22518666Y33711620D02*
X22852000Y34187810D01*
X23090095Y33711620D02*
X23090095Y34711620D01*
X22709142Y34711620D01*
X22613904Y34664000D01*
X22566285Y34616381D01*
X22518666Y34521143D01*
X22518666Y34378286D01*
X22566285Y34283048D01*
X22613904Y34235429D01*
X22709142Y34187810D01*
X23090095Y34187810D01*
X21661523Y34711620D02*
X21852000Y34711620D01*
X21947238Y34664000D01*
X21994857Y34616381D01*
X22090095Y34473524D01*
X22137714Y34283048D01*
X22137714Y33902096D01*
X22090095Y33806858D01*
X22042476Y33759239D01*
X21947238Y33711620D01*
X21756761Y33711620D01*
X21661523Y33759239D01*
X21613904Y33806858D01*
X21566285Y33902096D01*
X21566285Y34140191D01*
X21613904Y34235429D01*
X21661523Y34283048D01*
X21756761Y34330667D01*
X21947238Y34330667D01*
X22042476Y34283048D01*
X22090095Y34235429D01*
X22137714Y34140191D01*
%TO.C,R18*%
X71254857Y16439620D02*
X71588190Y16915810D01*
X71826285Y16439620D02*
X71826285Y17439620D01*
X71445333Y17439620D01*
X71350095Y17392000D01*
X71302476Y17344381D01*
X71254857Y17249143D01*
X71254857Y17106286D01*
X71302476Y17011048D01*
X71350095Y16963429D01*
X71445333Y16915810D01*
X71826285Y16915810D01*
X70302476Y16439620D02*
X70873904Y16439620D01*
X70588190Y16439620D02*
X70588190Y17439620D01*
X70683428Y17296762D01*
X70778666Y17201524D01*
X70873904Y17153905D01*
X69731047Y17011048D02*
X69826285Y17058667D01*
X69873904Y17106286D01*
X69921523Y17201524D01*
X69921523Y17249143D01*
X69873904Y17344381D01*
X69826285Y17392000D01*
X69731047Y17439620D01*
X69540571Y17439620D01*
X69445333Y17392000D01*
X69397714Y17344381D01*
X69350095Y17249143D01*
X69350095Y17201524D01*
X69397714Y17106286D01*
X69445333Y17058667D01*
X69540571Y17011048D01*
X69731047Y17011048D01*
X69826285Y16963429D01*
X69873904Y16915810D01*
X69921523Y16820572D01*
X69921523Y16630096D01*
X69873904Y16534858D01*
X69826285Y16487239D01*
X69731047Y16439620D01*
X69540571Y16439620D01*
X69445333Y16487239D01*
X69397714Y16534858D01*
X69350095Y16630096D01*
X69350095Y16820572D01*
X69397714Y16915810D01*
X69445333Y16963429D01*
X69540571Y17011048D01*
%TO.C,U2*%
X22605904Y57643620D02*
X22605904Y56834096D01*
X22558285Y56738858D01*
X22510666Y56691239D01*
X22415428Y56643620D01*
X22224952Y56643620D01*
X22129714Y56691239D01*
X22082095Y56738858D01*
X22034476Y56834096D01*
X22034476Y57643620D01*
X21605904Y57548381D02*
X21558285Y57596000D01*
X21463047Y57643620D01*
X21224952Y57643620D01*
X21129714Y57596000D01*
X21082095Y57548381D01*
X21034476Y57453143D01*
X21034476Y57357905D01*
X21082095Y57215048D01*
X21653523Y56643620D01*
X21034476Y56643620D01*
%TO.C,C22*%
X62618857Y56792858D02*
X62666476Y56745239D01*
X62809333Y56697620D01*
X62904571Y56697620D01*
X63047428Y56745239D01*
X63142666Y56840477D01*
X63190285Y56935715D01*
X63237904Y57126191D01*
X63237904Y57269048D01*
X63190285Y57459524D01*
X63142666Y57554762D01*
X63047428Y57650000D01*
X62904571Y57697620D01*
X62809333Y57697620D01*
X62666476Y57650000D01*
X62618857Y57602381D01*
X62237904Y57602381D02*
X62190285Y57650000D01*
X62095047Y57697620D01*
X61856952Y57697620D01*
X61761714Y57650000D01*
X61714095Y57602381D01*
X61666476Y57507143D01*
X61666476Y57411905D01*
X61714095Y57269048D01*
X62285523Y56697620D01*
X61666476Y56697620D01*
X61285523Y57602381D02*
X61237904Y57650000D01*
X61142666Y57697620D01*
X60904571Y57697620D01*
X60809333Y57650000D01*
X60761714Y57602381D01*
X60714095Y57507143D01*
X60714095Y57411905D01*
X60761714Y57269048D01*
X61333142Y56697620D01*
X60714095Y56697620D01*
%TO.C,R17*%
X62468357Y16439620D02*
X62801690Y16915810D01*
X63039785Y16439620D02*
X63039785Y17439620D01*
X62658833Y17439620D01*
X62563595Y17392000D01*
X62515976Y17344381D01*
X62468357Y17249143D01*
X62468357Y17106286D01*
X62515976Y17011048D01*
X62563595Y16963429D01*
X62658833Y16915810D01*
X63039785Y16915810D01*
X61515976Y16439620D02*
X62087404Y16439620D01*
X61801690Y16439620D02*
X61801690Y17439620D01*
X61896928Y17296762D01*
X61992166Y17201524D01*
X62087404Y17153905D01*
X61182642Y17439620D02*
X60515976Y17439620D01*
X60944547Y16439620D01*
%TO.C,C19*%
X48902857Y53236858D02*
X48950476Y53189239D01*
X49093333Y53141620D01*
X49188571Y53141620D01*
X49331428Y53189239D01*
X49426666Y53284477D01*
X49474285Y53379715D01*
X49521904Y53570191D01*
X49521904Y53713048D01*
X49474285Y53903524D01*
X49426666Y53998762D01*
X49331428Y54094000D01*
X49188571Y54141620D01*
X49093333Y54141620D01*
X48950476Y54094000D01*
X48902857Y54046381D01*
X47950476Y53141620D02*
X48521904Y53141620D01*
X48236190Y53141620D02*
X48236190Y54141620D01*
X48331428Y53998762D01*
X48426666Y53903524D01*
X48521904Y53855905D01*
X47474285Y53141620D02*
X47283809Y53141620D01*
X47188571Y53189239D01*
X47140952Y53236858D01*
X47045714Y53379715D01*
X46998095Y53570191D01*
X46998095Y53951143D01*
X47045714Y54046381D01*
X47093333Y54094000D01*
X47188571Y54141620D01*
X47379047Y54141620D01*
X47474285Y54094000D01*
X47521904Y54046381D01*
X47569523Y53951143D01*
X47569523Y53713048D01*
X47521904Y53617810D01*
X47474285Y53570191D01*
X47379047Y53522572D01*
X47188571Y53522572D01*
X47093333Y53570191D01*
X47045714Y53617810D01*
X46998095Y53713048D01*
%TO.C,R12*%
X8921357Y35457620D02*
X9254690Y35933810D01*
X9492785Y35457620D02*
X9492785Y36457620D01*
X9111833Y36457620D01*
X9016595Y36410000D01*
X8968976Y36362381D01*
X8921357Y36267143D01*
X8921357Y36124286D01*
X8968976Y36029048D01*
X9016595Y35981429D01*
X9111833Y35933810D01*
X9492785Y35933810D01*
X7968976Y35457620D02*
X8540404Y35457620D01*
X8254690Y35457620D02*
X8254690Y36457620D01*
X8349928Y36314762D01*
X8445166Y36219524D01*
X8540404Y36171905D01*
X7588023Y36362381D02*
X7540404Y36410000D01*
X7445166Y36457620D01*
X7207071Y36457620D01*
X7111833Y36410000D01*
X7064214Y36362381D01*
X7016595Y36267143D01*
X7016595Y36171905D01*
X7064214Y36029048D01*
X7635642Y35457620D01*
X7016595Y35457620D01*
%TO.C,R23*%
X77350857Y27741620D02*
X77684190Y28217810D01*
X77922285Y27741620D02*
X77922285Y28741620D01*
X77541333Y28741620D01*
X77446095Y28694000D01*
X77398476Y28646381D01*
X77350857Y28551143D01*
X77350857Y28408286D01*
X77398476Y28313048D01*
X77446095Y28265429D01*
X77541333Y28217810D01*
X77922285Y28217810D01*
X76969904Y28646381D02*
X76922285Y28694000D01*
X76827047Y28741620D01*
X76588952Y28741620D01*
X76493714Y28694000D01*
X76446095Y28646381D01*
X76398476Y28551143D01*
X76398476Y28455905D01*
X76446095Y28313048D01*
X77017523Y27741620D01*
X76398476Y27741620D01*
X76065142Y28741620D02*
X75446095Y28741620D01*
X75779428Y28360667D01*
X75636571Y28360667D01*
X75541333Y28313048D01*
X75493714Y28265429D01*
X75446095Y28170191D01*
X75446095Y27932096D01*
X75493714Y27836858D01*
X75541333Y27789239D01*
X75636571Y27741620D01*
X75922285Y27741620D01*
X76017523Y27789239D01*
X76065142Y27836858D01*
%TO.C,C4*%
X27437142Y43092667D02*
X27484761Y43140286D01*
X27532380Y43283143D01*
X27532380Y43378381D01*
X27484761Y43521239D01*
X27389523Y43616477D01*
X27294285Y43664096D01*
X27103809Y43711715D01*
X26960952Y43711715D01*
X26770476Y43664096D01*
X26675238Y43616477D01*
X26580000Y43521239D01*
X26532380Y43378381D01*
X26532380Y43283143D01*
X26580000Y43140286D01*
X26627619Y43092667D01*
X26865714Y42235524D02*
X27532380Y42235524D01*
X26484761Y42473620D02*
X27199047Y42711715D01*
X27199047Y42092667D01*
%TO.C,R1*%
X45124666Y61523620D02*
X45458000Y61999810D01*
X45696095Y61523620D02*
X45696095Y62523620D01*
X45315142Y62523620D01*
X45219904Y62476000D01*
X45172285Y62428381D01*
X45124666Y62333143D01*
X45124666Y62190286D01*
X45172285Y62095048D01*
X45219904Y62047429D01*
X45315142Y61999810D01*
X45696095Y61999810D01*
X44172285Y61523620D02*
X44743714Y61523620D01*
X44458000Y61523620D02*
X44458000Y62523620D01*
X44553238Y62380762D01*
X44648476Y62285524D01*
X44743714Y62237905D01*
%TO.C,C2*%
X29884666Y34694858D02*
X29932285Y34647239D01*
X30075142Y34599620D01*
X30170380Y34599620D01*
X30313238Y34647239D01*
X30408476Y34742477D01*
X30456095Y34837715D01*
X30503714Y35028191D01*
X30503714Y35171048D01*
X30456095Y35361524D01*
X30408476Y35456762D01*
X30313238Y35552000D01*
X30170380Y35599620D01*
X30075142Y35599620D01*
X29932285Y35552000D01*
X29884666Y35504381D01*
X29503714Y35504381D02*
X29456095Y35552000D01*
X29360857Y35599620D01*
X29122761Y35599620D01*
X29027523Y35552000D01*
X28979904Y35504381D01*
X28932285Y35409143D01*
X28932285Y35313905D01*
X28979904Y35171048D01*
X29551333Y34599620D01*
X28932285Y34599620D01*
D11*
%TO.C,L1*%
X53086000Y21408572D02*
X53811714Y21408572D01*
X53811714Y22932572D01*
X51779714Y21408572D02*
X52650571Y21408572D01*
X52215142Y21408572D02*
X52215142Y22932572D01*
X52360285Y22714858D01*
X52505428Y22569715D01*
X52650571Y22497143D01*
D10*
%TO.C,C12*%
X67444857Y25267858D02*
X67492476Y25220239D01*
X67635333Y25172620D01*
X67730571Y25172620D01*
X67873428Y25220239D01*
X67968666Y25315477D01*
X68016285Y25410715D01*
X68063904Y25601191D01*
X68063904Y25744048D01*
X68016285Y25934524D01*
X67968666Y26029762D01*
X67873428Y26125000D01*
X67730571Y26172620D01*
X67635333Y26172620D01*
X67492476Y26125000D01*
X67444857Y26077381D01*
X66492476Y25172620D02*
X67063904Y25172620D01*
X66778190Y25172620D02*
X66778190Y26172620D01*
X66873428Y26029762D01*
X66968666Y25934524D01*
X67063904Y25886905D01*
X66111523Y26077381D02*
X66063904Y26125000D01*
X65968666Y26172620D01*
X65730571Y26172620D01*
X65635333Y26125000D01*
X65587714Y26077381D01*
X65540095Y25982143D01*
X65540095Y25886905D01*
X65587714Y25744048D01*
X66159142Y25172620D01*
X65540095Y25172620D01*
%TO.C,C21*%
X62364857Y53998858D02*
X62412476Y53951239D01*
X62555333Y53903620D01*
X62650571Y53903620D01*
X62793428Y53951239D01*
X62888666Y54046477D01*
X62936285Y54141715D01*
X62983904Y54332191D01*
X62983904Y54475048D01*
X62936285Y54665524D01*
X62888666Y54760762D01*
X62793428Y54856000D01*
X62650571Y54903620D01*
X62555333Y54903620D01*
X62412476Y54856000D01*
X62364857Y54808381D01*
X61983904Y54808381D02*
X61936285Y54856000D01*
X61841047Y54903620D01*
X61602952Y54903620D01*
X61507714Y54856000D01*
X61460095Y54808381D01*
X61412476Y54713143D01*
X61412476Y54617905D01*
X61460095Y54475048D01*
X62031523Y53903620D01*
X61412476Y53903620D01*
X60460095Y53903620D02*
X61031523Y53903620D01*
X60745809Y53903620D02*
X60745809Y54903620D01*
X60841047Y54760762D01*
X60936285Y54665524D01*
X61031523Y54617905D01*
%TO.C,R11*%
X8921357Y39457620D02*
X9254690Y39933810D01*
X9492785Y39457620D02*
X9492785Y40457620D01*
X9111833Y40457620D01*
X9016595Y40410000D01*
X8968976Y40362381D01*
X8921357Y40267143D01*
X8921357Y40124286D01*
X8968976Y40029048D01*
X9016595Y39981429D01*
X9111833Y39933810D01*
X9492785Y39933810D01*
X7968976Y39457620D02*
X8540404Y39457620D01*
X8254690Y39457620D02*
X8254690Y40457620D01*
X8349928Y40314762D01*
X8445166Y40219524D01*
X8540404Y40171905D01*
X7016595Y39457620D02*
X7588023Y39457620D01*
X7302309Y39457620D02*
X7302309Y40457620D01*
X7397547Y40314762D01*
X7492785Y40219524D01*
X7588023Y40171905D01*
%TO.C,U3*%
X69341904Y20703620D02*
X69341904Y19894096D01*
X69294285Y19798858D01*
X69246666Y19751239D01*
X69151428Y19703620D01*
X68960952Y19703620D01*
X68865714Y19751239D01*
X68818095Y19798858D01*
X68770476Y19894096D01*
X68770476Y20703620D01*
X68389523Y20703620D02*
X67770476Y20703620D01*
X68103809Y20322667D01*
X67960952Y20322667D01*
X67865714Y20275048D01*
X67818095Y20227429D01*
X67770476Y20132191D01*
X67770476Y19894096D01*
X67818095Y19798858D01*
X67865714Y19751239D01*
X67960952Y19703620D01*
X68246666Y19703620D01*
X68341904Y19751239D01*
X68389523Y19798858D01*
%TO.C,R9*%
X8445166Y47457620D02*
X8778500Y47933810D01*
X9016595Y47457620D02*
X9016595Y48457620D01*
X8635642Y48457620D01*
X8540404Y48410000D01*
X8492785Y48362381D01*
X8445166Y48267143D01*
X8445166Y48124286D01*
X8492785Y48029048D01*
X8540404Y47981429D01*
X8635642Y47933810D01*
X9016595Y47933810D01*
X7968976Y47457620D02*
X7778500Y47457620D01*
X7683261Y47505239D01*
X7635642Y47552858D01*
X7540404Y47695715D01*
X7492785Y47886191D01*
X7492785Y48267143D01*
X7540404Y48362381D01*
X7588023Y48410000D01*
X7683261Y48457620D01*
X7873738Y48457620D01*
X7968976Y48410000D01*
X8016595Y48362381D01*
X8064214Y48267143D01*
X8064214Y48029048D01*
X8016595Y47933810D01*
X7968976Y47886191D01*
X7873738Y47838572D01*
X7683261Y47838572D01*
X7588023Y47886191D01*
X7540404Y47933810D01*
X7492785Y48029048D01*
%TO.C,C9*%
X65825666Y16504858D02*
X65873285Y16457239D01*
X66016142Y16409620D01*
X66111380Y16409620D01*
X66254238Y16457239D01*
X66349476Y16552477D01*
X66397095Y16647715D01*
X66444714Y16838191D01*
X66444714Y16981048D01*
X66397095Y17171524D01*
X66349476Y17266762D01*
X66254238Y17362000D01*
X66111380Y17409620D01*
X66016142Y17409620D01*
X65873285Y17362000D01*
X65825666Y17314381D01*
X65349476Y16409620D02*
X65159000Y16409620D01*
X65063761Y16457239D01*
X65016142Y16504858D01*
X64920904Y16647715D01*
X64873285Y16838191D01*
X64873285Y17219143D01*
X64920904Y17314381D01*
X64968523Y17362000D01*
X65063761Y17409620D01*
X65254238Y17409620D01*
X65349476Y17362000D01*
X65397095Y17314381D01*
X65444714Y17219143D01*
X65444714Y16981048D01*
X65397095Y16885810D01*
X65349476Y16838191D01*
X65254238Y16790572D01*
X65063761Y16790572D01*
X64968523Y16838191D01*
X64920904Y16885810D01*
X64873285Y16981048D01*
%TO.C,R13*%
X8921357Y31457620D02*
X9254690Y31933810D01*
X9492785Y31457620D02*
X9492785Y32457620D01*
X9111833Y32457620D01*
X9016595Y32410000D01*
X8968976Y32362381D01*
X8921357Y32267143D01*
X8921357Y32124286D01*
X8968976Y32029048D01*
X9016595Y31981429D01*
X9111833Y31933810D01*
X9492785Y31933810D01*
X7968976Y31457620D02*
X8540404Y31457620D01*
X8254690Y31457620D02*
X8254690Y32457620D01*
X8349928Y32314762D01*
X8445166Y32219524D01*
X8540404Y32171905D01*
X7635642Y32457620D02*
X7016595Y32457620D01*
X7349928Y32076667D01*
X7207071Y32076667D01*
X7111833Y32029048D01*
X7064214Y31981429D01*
X7016595Y31886191D01*
X7016595Y31648096D01*
X7064214Y31552858D01*
X7111833Y31505239D01*
X7207071Y31457620D01*
X7492785Y31457620D01*
X7588023Y31505239D01*
X7635642Y31552858D01*
%TO.C,R2*%
X31154666Y59365620D02*
X31488000Y59841810D01*
X31726095Y59365620D02*
X31726095Y60365620D01*
X31345142Y60365620D01*
X31249904Y60318000D01*
X31202285Y60270381D01*
X31154666Y60175143D01*
X31154666Y60032286D01*
X31202285Y59937048D01*
X31249904Y59889429D01*
X31345142Y59841810D01*
X31726095Y59841810D01*
X30773714Y60270381D02*
X30726095Y60318000D01*
X30630857Y60365620D01*
X30392761Y60365620D01*
X30297523Y60318000D01*
X30249904Y60270381D01*
X30202285Y60175143D01*
X30202285Y60079905D01*
X30249904Y59937048D01*
X30821333Y59365620D01*
X30202285Y59365620D01*
%TO.C,R5*%
X37662380Y34456667D02*
X37186190Y34790000D01*
X37662380Y35028096D02*
X36662380Y35028096D01*
X36662380Y34647143D01*
X36710000Y34551905D01*
X36757619Y34504286D01*
X36852857Y34456667D01*
X36995714Y34456667D01*
X37090952Y34504286D01*
X37138571Y34551905D01*
X37186190Y34647143D01*
X37186190Y35028096D01*
X36662380Y33551905D02*
X36662380Y34028096D01*
X37138571Y34075715D01*
X37090952Y34028096D01*
X37043333Y33932858D01*
X37043333Y33694762D01*
X37090952Y33599524D01*
X37138571Y33551905D01*
X37233809Y33504286D01*
X37471904Y33504286D01*
X37567142Y33551905D01*
X37614761Y33599524D01*
X37662380Y33694762D01*
X37662380Y33932858D01*
X37614761Y34028096D01*
X37567142Y34075715D01*
%TO.C,C8*%
X48680666Y13358858D02*
X48728285Y13311239D01*
X48871142Y13263620D01*
X48966380Y13263620D01*
X49109238Y13311239D01*
X49204476Y13406477D01*
X49252095Y13501715D01*
X49299714Y13692191D01*
X49299714Y13835048D01*
X49252095Y14025524D01*
X49204476Y14120762D01*
X49109238Y14216000D01*
X48966380Y14263620D01*
X48871142Y14263620D01*
X48728285Y14216000D01*
X48680666Y14168381D01*
X48109238Y13835048D02*
X48204476Y13882667D01*
X48252095Y13930286D01*
X48299714Y14025524D01*
X48299714Y14073143D01*
X48252095Y14168381D01*
X48204476Y14216000D01*
X48109238Y14263620D01*
X47918761Y14263620D01*
X47823523Y14216000D01*
X47775904Y14168381D01*
X47728285Y14073143D01*
X47728285Y14025524D01*
X47775904Y13930286D01*
X47823523Y13882667D01*
X47918761Y13835048D01*
X48109238Y13835048D01*
X48204476Y13787429D01*
X48252095Y13739810D01*
X48299714Y13644572D01*
X48299714Y13454096D01*
X48252095Y13358858D01*
X48204476Y13311239D01*
X48109238Y13263620D01*
X47918761Y13263620D01*
X47823523Y13311239D01*
X47775904Y13358858D01*
X47728285Y13454096D01*
X47728285Y13644572D01*
X47775904Y13739810D01*
X47823523Y13787429D01*
X47918761Y13835048D01*
%TO.C,C3*%
X27437142Y39061667D02*
X27484761Y39109286D01*
X27532380Y39252143D01*
X27532380Y39347381D01*
X27484761Y39490239D01*
X27389523Y39585477D01*
X27294285Y39633096D01*
X27103809Y39680715D01*
X26960952Y39680715D01*
X26770476Y39633096D01*
X26675238Y39585477D01*
X26580000Y39490239D01*
X26532380Y39347381D01*
X26532380Y39252143D01*
X26580000Y39109286D01*
X26627619Y39061667D01*
X26532380Y38728334D02*
X26532380Y38109286D01*
X26913333Y38442620D01*
X26913333Y38299762D01*
X26960952Y38204524D01*
X27008571Y38156905D01*
X27103809Y38109286D01*
X27341904Y38109286D01*
X27437142Y38156905D01*
X27484761Y38204524D01*
X27532380Y38299762D01*
X27532380Y38585477D01*
X27484761Y38680715D01*
X27437142Y38728334D01*
%TO.C,R20*%
X78112857Y24947620D02*
X78446190Y25423810D01*
X78684285Y24947620D02*
X78684285Y25947620D01*
X78303333Y25947620D01*
X78208095Y25900000D01*
X78160476Y25852381D01*
X78112857Y25757143D01*
X78112857Y25614286D01*
X78160476Y25519048D01*
X78208095Y25471429D01*
X78303333Y25423810D01*
X78684285Y25423810D01*
X77731904Y25852381D02*
X77684285Y25900000D01*
X77589047Y25947620D01*
X77350952Y25947620D01*
X77255714Y25900000D01*
X77208095Y25852381D01*
X77160476Y25757143D01*
X77160476Y25661905D01*
X77208095Y25519048D01*
X77779523Y24947620D01*
X77160476Y24947620D01*
X76541428Y25947620D02*
X76446190Y25947620D01*
X76350952Y25900000D01*
X76303333Y25852381D01*
X76255714Y25757143D01*
X76208095Y25566667D01*
X76208095Y25328572D01*
X76255714Y25138096D01*
X76303333Y25042858D01*
X76350952Y24995239D01*
X76446190Y24947620D01*
X76541428Y24947620D01*
X76636666Y24995239D01*
X76684285Y25042858D01*
X76731904Y25138096D01*
X76779523Y25328572D01*
X76779523Y25566667D01*
X76731904Y25757143D01*
X76684285Y25852381D01*
X76636666Y25900000D01*
X76541428Y25947620D01*
D12*
%TO.C,D10*%
X65406000Y31906000D02*
X65406000Y37306000D01*
X68706000Y31906000D02*
X65406000Y31906000D01*
X68706000Y31906000D02*
X68706000Y37306000D01*
%TO.C,C13*%
X66540748Y29364000D02*
X67063252Y29364000D01*
X66540748Y30834000D02*
X67063252Y30834000D01*
%TO.C,X1*%
X56262000Y44832000D02*
X56262000Y45497000D01*
X56262000Y44832000D02*
X56512000Y44832000D01*
X56512000Y48132000D02*
X56262000Y48132000D01*
X59562000Y47467000D02*
X59562000Y48132000D01*
X59312000Y48132000D02*
X59562000Y48132000D01*
X56262000Y47467000D02*
X56262000Y48132000D01*
X59562000Y44832000D02*
X59562000Y45497000D01*
%TO.C,R22*%
X70585000Y27609436D02*
X70585000Y28063564D01*
X69115000Y27609436D02*
X69115000Y28063564D01*
%TO.C,R21*%
X61828000Y35652064D02*
X61828000Y34197936D01*
X63648000Y35652064D02*
X63648000Y34197936D01*
%TO.C,F1*%
X25586000Y13324252D02*
X25586000Y10551748D01*
X22166000Y13324252D02*
X22166000Y10551748D01*
%TO.C,C16*%
X58666748Y40105000D02*
X59189252Y40105000D01*
X58666748Y38635000D02*
X59189252Y38635000D01*
%TO.C,R26*%
X54479564Y50827000D02*
X54025436Y50827000D01*
X54479564Y52297000D02*
X54025436Y52297000D01*
%TO.C,R19*%
X77242936Y20728000D02*
X77697064Y20728000D01*
X77242936Y22198000D02*
X77697064Y22198000D01*
D10*
%TO.C,L2*%
X72088000Y52982000D02*
X75588000Y52982000D01*
X75588000Y52982000D02*
X75588000Y39982000D01*
X66088000Y39982000D02*
X62588000Y39982000D01*
X62588000Y52982000D02*
X66088000Y52982000D01*
X75588000Y39982000D02*
X72088000Y39982000D01*
X62588000Y39982000D02*
X62588000Y52982000D01*
%TO.C,U1*%
X34837000Y42503000D02*
X34837000Y42278000D01*
X34837000Y42278000D02*
X36187000Y42278000D01*
X34837000Y42503000D02*
X30187000Y42503000D01*
X34837000Y37253000D02*
X34837000Y37478000D01*
X30187000Y37253000D02*
X30187000Y37478000D01*
X30187000Y42503000D02*
X30187000Y42278000D01*
X34837000Y37253000D02*
X30187000Y37253000D01*
D12*
%TO.C,C17*%
X58666748Y41175000D02*
X59189252Y41175000D01*
X58666748Y42645000D02*
X59189252Y42645000D01*
%TO.C,R10*%
X8051436Y46295000D02*
X8505564Y46295000D01*
X8051436Y44825000D02*
X8505564Y44825000D01*
%TO.C,C7*%
X18280748Y58647000D02*
X18803252Y58647000D01*
X18280748Y57177000D02*
X18803252Y57177000D01*
%TO.C,R7*%
X22124936Y42645000D02*
X22579064Y42645000D01*
X22124936Y41175000D02*
X22579064Y41175000D01*
%TO.C,R25*%
X55599000Y54837064D02*
X55599000Y54382936D01*
X54129000Y54837064D02*
X54129000Y54382936D01*
%TO.C,C1*%
X38889000Y37121252D02*
X38889000Y36598748D01*
X40359000Y37121252D02*
X40359000Y36598748D01*
%TO.C,R24*%
X54637000Y41174936D02*
X54637000Y41629064D01*
X56107000Y41174936D02*
X56107000Y41629064D01*
%TO.C,C18*%
X52043000Y48760748D02*
X52043000Y49283252D01*
X50573000Y48760748D02*
X50573000Y49283252D01*
%TO.C,C5*%
X40082748Y39143000D02*
X40605252Y39143000D01*
X40082748Y40613000D02*
X40605252Y40613000D01*
%TO.C,R16*%
X8051436Y20825000D02*
X8505564Y20825000D01*
X8051436Y22295000D02*
X8505564Y22295000D01*
%TO.C,R15*%
X8051436Y26295000D02*
X8505564Y26295000D01*
X8051436Y24825000D02*
X8505564Y24825000D01*
%TO.C,D9*%
X60326000Y28038000D02*
X63626000Y28038000D01*
X63626000Y28038000D02*
X63626000Y22638000D01*
X60326000Y28038000D02*
X60326000Y22638000D01*
%TO.C,C11*%
X72890748Y26643000D02*
X73413252Y26643000D01*
X72890748Y25173000D02*
X73413252Y25173000D01*
%TO.C,C20*%
X58158748Y50827000D02*
X58681252Y50827000D01*
X58158748Y52297000D02*
X58681252Y52297000D01*
%TO.C,JP1*%
X50416000Y42718000D02*
X50416000Y42118000D01*
X51116000Y41418000D02*
X52516000Y41418000D01*
X53216000Y42118000D02*
X53216000Y42718000D01*
X52516000Y43418000D02*
X51116000Y43418000D01*
X52516000Y41418000D02*
G75*
G03*
X53216000Y42118000I0J700000D01*
G01*
X50416000Y42118000D02*
G75*
G03*
X51116000Y41418000I699999J-1D01*
G01*
X53216000Y42718000D02*
G75*
G03*
X52516000Y43418000I-700000J0D01*
G01*
X51116000Y43418000D02*
G75*
G03*
X50416000Y42718000I-1J-699999D01*
G01*
%TO.C,R8*%
X19998000Y36684936D02*
X19998000Y41039064D01*
X16578000Y36684936D02*
X16578000Y41039064D01*
%TO.C,C15*%
X60171000Y33850252D02*
X60171000Y33327748D01*
X58701000Y33850252D02*
X58701000Y33327748D01*
%TO.C,C6*%
X26135000Y35125252D02*
X26135000Y34602748D01*
X24665000Y35125252D02*
X24665000Y34602748D01*
%TO.C,C14*%
X61856252Y30834000D02*
X61333748Y30834000D01*
X61856252Y29364000D02*
X61333748Y29364000D01*
%TO.C,R3*%
X37976436Y61241000D02*
X38430564Y61241000D01*
X37976436Y62711000D02*
X38430564Y62711000D01*
%TO.C,C10*%
X73560000Y22344748D02*
X73560000Y22867252D01*
X75030000Y22344748D02*
X75030000Y22867252D01*
%TO.C,R14*%
X8051436Y30295000D02*
X8505564Y30295000D01*
X8051436Y28825000D02*
X8505564Y28825000D01*
%TO.C,R6*%
X22124936Y35079000D02*
X22579064Y35079000D01*
X22124936Y36549000D02*
X22579064Y36549000D01*
%TO.C,R18*%
X70384936Y17807000D02*
X70839064Y17807000D01*
X70384936Y19277000D02*
X70839064Y19277000D01*
%TO.C,U2*%
X20066000Y47381000D02*
X18116000Y47381000D01*
X20066000Y47381000D02*
X22016000Y47381000D01*
X20066000Y56251000D02*
X18116000Y56251000D01*
X20066000Y56251000D02*
X23516000Y56251000D01*
%TO.C,C22*%
X58158748Y56415000D02*
X58681252Y56415000D01*
X58158748Y57885000D02*
X58681252Y57885000D01*
%TO.C,R17*%
X61598436Y19277000D02*
X62052564Y19277000D01*
X61598436Y17807000D02*
X62052564Y17807000D01*
%TO.C,C19*%
X52077252Y54329000D02*
X51554748Y54329000D01*
X52077252Y52859000D02*
X51554748Y52859000D01*
%TO.C,R12*%
X8051436Y36825000D02*
X8505564Y36825000D01*
X8051436Y38295000D02*
X8505564Y38295000D01*
%TO.C,R23*%
X73379064Y27586000D02*
X72924936Y27586000D01*
X73379064Y29056000D02*
X72924936Y29056000D01*
%TO.C,C4*%
X26135000Y42664748D02*
X26135000Y43187252D01*
X24665000Y42664748D02*
X24665000Y43187252D01*
%TO.C,R1*%
X42391064Y61241000D02*
X41936936Y61241000D01*
X42391064Y62711000D02*
X41936936Y62711000D01*
%TO.C,C2*%
X32839252Y34255000D02*
X32316748Y34255000D01*
X32839252Y35725000D02*
X32316748Y35725000D01*
D10*
%TO.C,L1*%
X59332000Y28598000D02*
X59332000Y25098000D01*
X46332000Y15598000D02*
X46332000Y19098000D01*
X59332000Y15598000D02*
X46332000Y15598000D01*
X46332000Y28598000D02*
X59332000Y28598000D01*
X46332000Y25098000D02*
X46332000Y28598000D01*
X59332000Y19098000D02*
X59332000Y15598000D01*
D12*
%TO.C,C12*%
X66540748Y28040000D02*
X67063252Y28040000D01*
X66540748Y26570000D02*
X67063252Y26570000D01*
%TO.C,C21*%
X58158748Y53621000D02*
X58681252Y53621000D01*
X58158748Y55091000D02*
X58681252Y55091000D01*
%TO.C,R11*%
X8051436Y42295000D02*
X8505564Y42295000D01*
X8051436Y40825000D02*
X8505564Y40825000D01*
%TO.C,U3*%
X68580000Y24216000D02*
X70780000Y24216000D01*
X68580000Y20996000D02*
X70780000Y20996000D01*
X68580000Y20996000D02*
X64980000Y20996000D01*
X68580000Y24216000D02*
X66380000Y24216000D01*
%TO.C,R9*%
X8051436Y50295000D02*
X8505564Y50295000D01*
X8051436Y48825000D02*
X8505564Y48825000D01*
%TO.C,C9*%
X65397748Y17807000D02*
X65920252Y17807000D01*
X65397748Y19277000D02*
X65920252Y19277000D01*
%TO.C,R13*%
X8051436Y34295000D02*
X8505564Y34295000D01*
X8051436Y32825000D02*
X8505564Y32825000D01*
%TO.C,R2*%
X30760936Y62203000D02*
X31215064Y62203000D01*
X30760936Y60733000D02*
X31215064Y60733000D01*
%TO.C,R5*%
X36295000Y34062936D02*
X36295000Y34517064D01*
X34825000Y34062936D02*
X34825000Y34517064D01*
%TO.C,C8*%
X51300748Y14451000D02*
X51823252Y14451000D01*
X51300748Y12981000D02*
X51823252Y12981000D01*
%TO.C,C3*%
X26135000Y38633748D02*
X26135000Y39156252D01*
X24665000Y38633748D02*
X24665000Y39156252D01*
%TO.C,R20*%
X77242936Y23014000D02*
X77697064Y23014000D01*
X77242936Y24484000D02*
X77697064Y24484000D01*
%TD*%
M02*
