%TF.GenerationSoftware,KiCad,Pcbnew,6.0.4-6f826c9f35~116~ubuntu20.04.1*%
%TF.CreationDate,2022-08-15T10:07:19+00:00*%
%TF.ProjectId,SOLARMINIBAT01A,534f4c41-524d-4494-9e49-424154303141,rev?*%
%TF.SameCoordinates,Original*%
%TF.FileFunction,Legend,Top*%
%TF.FilePolarity,Positive*%
%FSLAX46Y46*%
G04 Gerber Fmt 4.6, Leading zero omitted, Abs format (unit mm)*
G04 Created by KiCad (PCBNEW 6.0.4-6f826c9f35~116~ubuntu20.04.1) date 2022-08-15 10:07:19*
%MOMM*%
%LPD*%
G01*
G04 APERTURE LIST*
%ADD10C,0.150000*%
%ADD11C,0.050000*%
%ADD12C,0.203200*%
%ADD13C,0.304800*%
%ADD14C,0.120000*%
%ADD15C,0.127000*%
%ADD16R,1.524000X1.524000*%
G04 APERTURE END LIST*
D10*
X56078380Y8850477D02*
X55078380Y8850477D01*
X55078380Y9231429D01*
X55126000Y9326667D01*
X55173619Y9374286D01*
X55268857Y9421905D01*
X55411714Y9421905D01*
X55506952Y9374286D01*
X55554571Y9326667D01*
X55602190Y9231429D01*
X55602190Y8850477D01*
X55078380Y9707620D02*
X56078380Y10040953D01*
X55078380Y10374286D01*
X55697428Y10707620D02*
X55697428Y11469524D01*
X56078380Y11088572D02*
X55316476Y11088572D01*
X62143047Y2892620D02*
X62143047Y3892620D01*
X62476380Y3178334D01*
X62809714Y3892620D01*
X62809714Y2892620D01*
X63762095Y2892620D02*
X63285904Y2892620D01*
X63285904Y3892620D01*
X64047809Y3178334D02*
X64524000Y3178334D01*
X63952571Y2892620D02*
X64285904Y3892620D01*
X64619238Y2892620D01*
X65285904Y3416429D02*
X65428761Y3368810D01*
X65476380Y3321191D01*
X65524000Y3225953D01*
X65524000Y3083096D01*
X65476380Y2987858D01*
X65428761Y2940239D01*
X65333523Y2892620D01*
X64952571Y2892620D01*
X64952571Y3892620D01*
X65285904Y3892620D01*
X65381142Y3845000D01*
X65428761Y3797381D01*
X65476380Y3702143D01*
X65476380Y3606905D01*
X65428761Y3511667D01*
X65381142Y3464048D01*
X65285904Y3416429D01*
X64952571Y3416429D01*
X65952571Y2987858D02*
X66000190Y2940239D01*
X65952571Y2892620D01*
X65904952Y2940239D01*
X65952571Y2987858D01*
X65952571Y2892620D01*
X67000190Y2987858D02*
X66952571Y2940239D01*
X66809714Y2892620D01*
X66714476Y2892620D01*
X66571619Y2940239D01*
X66476380Y3035477D01*
X66428761Y3130715D01*
X66381142Y3321191D01*
X66381142Y3464048D01*
X66428761Y3654524D01*
X66476380Y3749762D01*
X66571619Y3845000D01*
X66714476Y3892620D01*
X66809714Y3892620D01*
X66952571Y3845000D01*
X67000190Y3797381D01*
X67333523Y3892620D02*
X68000190Y3892620D01*
X67333523Y2892620D01*
X68000190Y2892620D01*
X63309714Y2187381D02*
X63357333Y2235000D01*
X63452571Y2282620D01*
X63690666Y2282620D01*
X63785904Y2235000D01*
X63833523Y2187381D01*
X63881142Y2092143D01*
X63881142Y1996905D01*
X63833523Y1854048D01*
X63262095Y1282620D01*
X63881142Y1282620D01*
X64500190Y2282620D02*
X64595428Y2282620D01*
X64690666Y2235000D01*
X64738285Y2187381D01*
X64785904Y2092143D01*
X64833523Y1901667D01*
X64833523Y1663572D01*
X64785904Y1473096D01*
X64738285Y1377858D01*
X64690666Y1330239D01*
X64595428Y1282620D01*
X64500190Y1282620D01*
X64404952Y1330239D01*
X64357333Y1377858D01*
X64309714Y1473096D01*
X64262095Y1663572D01*
X64262095Y1901667D01*
X64309714Y2092143D01*
X64357333Y2187381D01*
X64404952Y2235000D01*
X64500190Y2282620D01*
X65214476Y2187381D02*
X65262095Y2235000D01*
X65357333Y2282620D01*
X65595428Y2282620D01*
X65690666Y2235000D01*
X65738285Y2187381D01*
X65785904Y2092143D01*
X65785904Y1996905D01*
X65738285Y1854048D01*
X65166857Y1282620D01*
X65785904Y1282620D01*
X66166857Y2187381D02*
X66214476Y2235000D01*
X66309714Y2282620D01*
X66547809Y2282620D01*
X66643047Y2235000D01*
X66690666Y2187381D01*
X66738285Y2092143D01*
X66738285Y1996905D01*
X66690666Y1854048D01*
X66119238Y1282620D01*
X66738285Y1282620D01*
X44712000Y61116786D02*
X44664380Y61021548D01*
X44664380Y60878691D01*
X44712000Y60735834D01*
X44807238Y60640596D01*
X44902476Y60592977D01*
X45092952Y60545358D01*
X45235809Y60545358D01*
X45426285Y60592977D01*
X45521523Y60640596D01*
X45616761Y60735834D01*
X45664380Y60878691D01*
X45664380Y60973929D01*
X45616761Y61116786D01*
X45569142Y61164405D01*
X45235809Y61164405D01*
X45235809Y60973929D01*
X45664380Y61592977D02*
X44664380Y61592977D01*
X45664380Y62164405D01*
X44664380Y62164405D01*
X45664380Y62640596D02*
X44664380Y62640596D01*
X44664380Y62878691D01*
X44712000Y63021548D01*
X44807238Y63116786D01*
X44902476Y63164405D01*
X45092952Y63212024D01*
X45235809Y63212024D01*
X45426285Y63164405D01*
X45521523Y63116786D01*
X45616761Y63021548D01*
X45664380Y62878691D01*
X45664380Y62640596D01*
X21376000Y9215429D02*
X21518857Y9167810D01*
X21566476Y9120191D01*
X21614095Y9024953D01*
X21614095Y8882096D01*
X21566476Y8786858D01*
X21518857Y8739239D01*
X21423619Y8691620D01*
X21042666Y8691620D01*
X21042666Y9691620D01*
X21376000Y9691620D01*
X21471238Y9644000D01*
X21518857Y9596381D01*
X21566476Y9501143D01*
X21566476Y9405905D01*
X21518857Y9310667D01*
X21471238Y9263048D01*
X21376000Y9215429D01*
X21042666Y9215429D01*
X21995047Y8977334D02*
X22471238Y8977334D01*
X21899809Y8691620D02*
X22233142Y9691620D01*
X22566476Y8691620D01*
X22756952Y9691620D02*
X23328380Y9691620D01*
X23042666Y8691620D02*
X23042666Y9691620D01*
X23518857Y9691620D02*
X24090285Y9691620D01*
X23804571Y8691620D02*
X23804571Y9691620D01*
X24423619Y9215429D02*
X24756952Y9215429D01*
X24899809Y8691620D02*
X24423619Y8691620D01*
X24423619Y9691620D01*
X24899809Y9691620D01*
X25899809Y8691620D02*
X25566476Y9167810D01*
X25328380Y8691620D02*
X25328380Y9691620D01*
X25709333Y9691620D01*
X25804571Y9644000D01*
X25852190Y9596381D01*
X25899809Y9501143D01*
X25899809Y9358286D01*
X25852190Y9263048D01*
X25804571Y9215429D01*
X25709333Y9167810D01*
X25328380Y9167810D01*
X26518857Y9167810D02*
X26518857Y8691620D01*
X26185523Y9691620D02*
X26518857Y9167810D01*
X26852190Y9691620D01*
X37996761Y60831072D02*
X38044380Y60973929D01*
X38044380Y61212024D01*
X37996761Y61307262D01*
X37949142Y61354881D01*
X37853904Y61402500D01*
X37758666Y61402500D01*
X37663428Y61354881D01*
X37615809Y61307262D01*
X37568190Y61212024D01*
X37520571Y61021548D01*
X37472952Y60926310D01*
X37425333Y60878691D01*
X37330095Y60831072D01*
X37234857Y60831072D01*
X37139619Y60878691D01*
X37092000Y60926310D01*
X37044380Y61021548D01*
X37044380Y61259643D01*
X37092000Y61402500D01*
X37949142Y62402500D02*
X37996761Y62354881D01*
X38044380Y62212024D01*
X38044380Y62116786D01*
X37996761Y61973929D01*
X37901523Y61878691D01*
X37806285Y61831072D01*
X37615809Y61783453D01*
X37472952Y61783453D01*
X37282476Y61831072D01*
X37187238Y61878691D01*
X37092000Y61973929D01*
X37044380Y62116786D01*
X37044380Y62212024D01*
X37092000Y62354881D01*
X37139619Y62402500D01*
X38044380Y63307262D02*
X38044380Y62831072D01*
X37044380Y62831072D01*
X34552000Y61116786D02*
X34504380Y61021548D01*
X34504380Y60878691D01*
X34552000Y60735834D01*
X34647238Y60640596D01*
X34742476Y60592977D01*
X34932952Y60545358D01*
X35075809Y60545358D01*
X35266285Y60592977D01*
X35361523Y60640596D01*
X35456761Y60735834D01*
X35504380Y60878691D01*
X35504380Y60973929D01*
X35456761Y61116786D01*
X35409142Y61164405D01*
X35075809Y61164405D01*
X35075809Y60973929D01*
X35504380Y61592977D02*
X34504380Y61592977D01*
X35504380Y62164405D01*
X34504380Y62164405D01*
X35504380Y62640596D02*
X34504380Y62640596D01*
X34504380Y62878691D01*
X34552000Y63021548D01*
X34647238Y63116786D01*
X34742476Y63164405D01*
X34932952Y63212024D01*
X35075809Y63212024D01*
X35266285Y63164405D01*
X35361523Y63116786D01*
X35456761Y63021548D01*
X35504380Y62878691D01*
X35504380Y62640596D01*
X17471238Y11787239D02*
X17614095Y11739620D01*
X17852190Y11739620D01*
X17947428Y11787239D01*
X17995047Y11834858D01*
X18042666Y11930096D01*
X18042666Y12025334D01*
X17995047Y12120572D01*
X17947428Y12168191D01*
X17852190Y12215810D01*
X17661714Y12263429D01*
X17566476Y12311048D01*
X17518857Y12358667D01*
X17471238Y12453905D01*
X17471238Y12549143D01*
X17518857Y12644381D01*
X17566476Y12692000D01*
X17661714Y12739620D01*
X17899809Y12739620D01*
X18042666Y12692000D01*
X18661714Y12739620D02*
X18852190Y12739620D01*
X18947428Y12692000D01*
X19042666Y12596762D01*
X19090285Y12406286D01*
X19090285Y12072953D01*
X19042666Y11882477D01*
X18947428Y11787239D01*
X18852190Y11739620D01*
X18661714Y11739620D01*
X18566476Y11787239D01*
X18471238Y11882477D01*
X18423619Y12072953D01*
X18423619Y12406286D01*
X18471238Y12596762D01*
X18566476Y12692000D01*
X18661714Y12739620D01*
X19995047Y11739620D02*
X19518857Y11739620D01*
X19518857Y12739620D01*
X20280761Y12025334D02*
X20756952Y12025334D01*
X20185523Y11739620D02*
X20518857Y12739620D01*
X20852190Y11739620D01*
X21756952Y11739620D02*
X21423619Y12215810D01*
X21185523Y11739620D02*
X21185523Y12739620D01*
X21566476Y12739620D01*
X21661714Y12692000D01*
X21709333Y12644381D01*
X21756952Y12549143D01*
X21756952Y12406286D01*
X21709333Y12311048D01*
X21661714Y12263429D01*
X21566476Y12215810D01*
X21185523Y12215810D01*
X22185523Y11739620D02*
X22185523Y12739620D01*
X22518857Y12025334D01*
X22852190Y12739620D01*
X22852190Y11739620D01*
X23328380Y11739620D02*
X23328380Y12739620D01*
X23804571Y11739620D02*
X23804571Y12739620D01*
X24376000Y11739620D01*
X24376000Y12739620D01*
X24852190Y11739620D02*
X24852190Y12739620D01*
X25661714Y12263429D02*
X25804571Y12215810D01*
X25852190Y12168191D01*
X25899809Y12072953D01*
X25899809Y11930096D01*
X25852190Y11834858D01*
X25804571Y11787239D01*
X25709333Y11739620D01*
X25328380Y11739620D01*
X25328380Y12739620D01*
X25661714Y12739620D01*
X25756952Y12692000D01*
X25804571Y12644381D01*
X25852190Y12549143D01*
X25852190Y12453905D01*
X25804571Y12358667D01*
X25756952Y12311048D01*
X25661714Y12263429D01*
X25328380Y12263429D01*
X26280761Y12025334D02*
X26756952Y12025334D01*
X26185523Y11739620D02*
X26518857Y12739620D01*
X26852190Y11739620D01*
X27042666Y12739620D02*
X27614095Y12739620D01*
X27328380Y11739620D02*
X27328380Y12739620D01*
X28137904Y12739620D02*
X28233142Y12739620D01*
X28328380Y12692000D01*
X28376000Y12644381D01*
X28423619Y12549143D01*
X28471238Y12358667D01*
X28471238Y12120572D01*
X28423619Y11930096D01*
X28376000Y11834858D01*
X28328380Y11787239D01*
X28233142Y11739620D01*
X28137904Y11739620D01*
X28042666Y11787239D01*
X27995047Y11834858D01*
X27947428Y11930096D01*
X27899809Y12120572D01*
X27899809Y12358667D01*
X27947428Y12549143D01*
X27995047Y12644381D01*
X28042666Y12692000D01*
X28137904Y12739620D01*
X29423619Y11739620D02*
X28852190Y11739620D01*
X29137904Y11739620D02*
X29137904Y12739620D01*
X29042666Y12596762D01*
X28947428Y12501524D01*
X28852190Y12453905D01*
X29804571Y12025334D02*
X30280761Y12025334D01*
X29709333Y11739620D02*
X30042666Y12739620D01*
X30376000Y11739620D01*
X49562095Y70397620D02*
X49752571Y70397620D01*
X49847809Y70350000D01*
X49943047Y70254762D01*
X49990666Y70064286D01*
X49990666Y69730953D01*
X49943047Y69540477D01*
X49847809Y69445239D01*
X49752571Y69397620D01*
X49562095Y69397620D01*
X49466857Y69445239D01*
X49371619Y69540477D01*
X49324000Y69730953D01*
X49324000Y70064286D01*
X49371619Y70254762D01*
X49466857Y70350000D01*
X49562095Y70397620D01*
X50419238Y70397620D02*
X50419238Y69588096D01*
X50466857Y69492858D01*
X50514476Y69445239D01*
X50609714Y69397620D01*
X50800190Y69397620D01*
X50895428Y69445239D01*
X50943047Y69492858D01*
X50990666Y69588096D01*
X50990666Y70397620D01*
X51324000Y70397620D02*
X51895428Y70397620D01*
X51609714Y69397620D02*
X51609714Y70397620D01*
X52895428Y70397620D02*
X53514476Y70397620D01*
X53181142Y70016667D01*
X53324000Y70016667D01*
X53419238Y69969048D01*
X53466857Y69921429D01*
X53514476Y69826191D01*
X53514476Y69588096D01*
X53466857Y69492858D01*
X53419238Y69445239D01*
X53324000Y69397620D01*
X53038285Y69397620D01*
X52943047Y69445239D01*
X52895428Y69492858D01*
X53800190Y70397620D02*
X54133523Y69397620D01*
X54466857Y70397620D01*
X54704952Y70397620D02*
X55324000Y70397620D01*
X54990666Y70016667D01*
X55133523Y70016667D01*
X55228761Y69969048D01*
X55276380Y69921429D01*
X55324000Y69826191D01*
X55324000Y69588096D01*
X55276380Y69492858D01*
X55228761Y69445239D01*
X55133523Y69397620D01*
X54847809Y69397620D01*
X54752571Y69445239D01*
X54704952Y69492858D01*
X34440761Y2699334D02*
X34488380Y2842191D01*
X34488380Y3080286D01*
X34440761Y3175524D01*
X34393142Y3223143D01*
X34297904Y3270762D01*
X34202666Y3270762D01*
X34107428Y3223143D01*
X34059809Y3175524D01*
X34012190Y3080286D01*
X33964571Y2889810D01*
X33916952Y2794572D01*
X33869333Y2746953D01*
X33774095Y2699334D01*
X33678857Y2699334D01*
X33583619Y2746953D01*
X33536000Y2794572D01*
X33488380Y2889810D01*
X33488380Y3127905D01*
X33536000Y3270762D01*
X34488380Y3842191D02*
X34440761Y3746953D01*
X34393142Y3699334D01*
X34297904Y3651715D01*
X34012190Y3651715D01*
X33916952Y3699334D01*
X33869333Y3746953D01*
X33821714Y3842191D01*
X33821714Y3985048D01*
X33869333Y4080286D01*
X33916952Y4127905D01*
X34012190Y4175524D01*
X34297904Y4175524D01*
X34393142Y4127905D01*
X34440761Y4080286D01*
X34488380Y3985048D01*
X34488380Y3842191D01*
X34488380Y4746953D02*
X34440761Y4651715D01*
X34345523Y4604096D01*
X33488380Y4604096D01*
X34488380Y5556477D02*
X33964571Y5556477D01*
X33869333Y5508858D01*
X33821714Y5413620D01*
X33821714Y5223143D01*
X33869333Y5127905D01*
X34440761Y5556477D02*
X34488380Y5461239D01*
X34488380Y5223143D01*
X34440761Y5127905D01*
X34345523Y5080286D01*
X34250285Y5080286D01*
X34155047Y5127905D01*
X34107428Y5223143D01*
X34107428Y5461239D01*
X34059809Y5556477D01*
X34488380Y6032667D02*
X33821714Y6032667D01*
X34012190Y6032667D02*
X33916952Y6080286D01*
X33869333Y6127905D01*
X33821714Y6223143D01*
X33821714Y6318381D01*
X34393142Y7985048D02*
X34440761Y7937429D01*
X34488380Y7794572D01*
X34488380Y7699334D01*
X34440761Y7556477D01*
X34345523Y7461239D01*
X34250285Y7413620D01*
X34059809Y7366000D01*
X33916952Y7366000D01*
X33726476Y7413620D01*
X33631238Y7461239D01*
X33536000Y7556477D01*
X33488380Y7699334D01*
X33488380Y7794572D01*
X33536000Y7937429D01*
X33583619Y7985048D01*
X34440761Y8794572D02*
X34488380Y8699334D01*
X34488380Y8508858D01*
X34440761Y8413620D01*
X34345523Y8366000D01*
X33964571Y8366000D01*
X33869333Y8413620D01*
X33821714Y8508858D01*
X33821714Y8699334D01*
X33869333Y8794572D01*
X33964571Y8842191D01*
X34059809Y8842191D01*
X34155047Y8366000D01*
X34488380Y9413620D02*
X34440761Y9318381D01*
X34345523Y9270762D01*
X33488380Y9270762D01*
X34488380Y9937429D02*
X34440761Y9842191D01*
X34345523Y9794572D01*
X33488380Y9794572D01*
X34488380Y11080286D02*
X33488380Y11080286D01*
X33821714Y11556477D02*
X34488380Y11556477D01*
X33916952Y11556477D02*
X33869333Y11604096D01*
X33821714Y11699334D01*
X33821714Y11842191D01*
X33869333Y11937429D01*
X33964571Y11985048D01*
X34488380Y11985048D01*
X39155809Y69397620D02*
X39155809Y70397620D01*
X39584380Y70302381D02*
X39632000Y70350000D01*
X39727238Y70397620D01*
X39965333Y70397620D01*
X40060571Y70350000D01*
X40108190Y70302381D01*
X40155809Y70207143D01*
X40155809Y70111905D01*
X40108190Y69969048D01*
X39536761Y69397620D01*
X40155809Y69397620D01*
X41155809Y69492858D02*
X41108190Y69445239D01*
X40965333Y69397620D01*
X40870095Y69397620D01*
X40727238Y69445239D01*
X40632000Y69540477D01*
X40584380Y69635715D01*
X40536761Y69826191D01*
X40536761Y69969048D01*
X40584380Y70159524D01*
X40632000Y70254762D01*
X40727238Y70350000D01*
X40870095Y70397620D01*
X40965333Y70397620D01*
X41108190Y70350000D01*
X41155809Y70302381D01*
X39584380Y60783453D02*
X39584380Y61402500D01*
X39965333Y61069167D01*
X39965333Y61212024D01*
X40012952Y61307262D01*
X40060571Y61354881D01*
X40155809Y61402500D01*
X40393904Y61402500D01*
X40489142Y61354881D01*
X40536761Y61307262D01*
X40584380Y61212024D01*
X40584380Y60926310D01*
X40536761Y60831072D01*
X40489142Y60783453D01*
X39584380Y61688215D02*
X40584380Y62021548D01*
X39584380Y62354881D01*
X39584380Y62592977D02*
X39584380Y63212024D01*
X39965333Y62878691D01*
X39965333Y63021548D01*
X40012952Y63116786D01*
X40060571Y63164405D01*
X40155809Y63212024D01*
X40393904Y63212024D01*
X40489142Y63164405D01*
X40536761Y63116786D01*
X40584380Y63021548D01*
X40584380Y62735834D01*
X40536761Y62640596D01*
X40489142Y62592977D01*
X4357619Y53451048D02*
X4357619Y53355810D01*
X4310000Y53260572D01*
X4262380Y53212953D01*
X4167142Y53165334D01*
X3976666Y53117715D01*
X3738571Y53117715D01*
X3548095Y53165334D01*
X3452857Y53212953D01*
X3405238Y53260572D01*
X3357619Y53355810D01*
X3357619Y53451048D01*
X3405238Y53546286D01*
X3452857Y53593905D01*
X3548095Y53641524D01*
X3738571Y53689143D01*
X3976666Y53689143D01*
X4167142Y53641524D01*
X4262380Y53593905D01*
X4310000Y53546286D01*
X4357619Y53451048D01*
X3357619Y52736762D02*
X4357619Y51974858D01*
X4357619Y52593905D02*
X4310000Y52498667D01*
X4214761Y52451048D01*
X4119523Y52498667D01*
X4071904Y52593905D01*
X4119523Y52689143D01*
X4214761Y52736762D01*
X4310000Y52689143D01*
X4357619Y52593905D01*
X3405238Y52022477D02*
X3500476Y51974858D01*
X3595714Y52022477D01*
X3643333Y52117715D01*
X3595714Y52212953D01*
X3500476Y52260572D01*
X3405238Y52212953D01*
X3357619Y52117715D01*
X3405238Y52022477D01*
X19685523Y1071620D02*
X19685523Y2071620D01*
X20018857Y1357334D01*
X20352190Y2071620D01*
X20352190Y1071620D01*
X20780761Y1357334D02*
X21256952Y1357334D01*
X20685523Y1071620D02*
X21018857Y2071620D01*
X21352190Y1071620D01*
X21590285Y2071620D02*
X22256952Y1071620D01*
X22256952Y2071620D02*
X21590285Y1071620D01*
X23352190Y1976381D02*
X23399809Y2024000D01*
X23495047Y2071620D01*
X23733142Y2071620D01*
X23828380Y2024000D01*
X23876000Y1976381D01*
X23923619Y1881143D01*
X23923619Y1785905D01*
X23876000Y1643048D01*
X23304571Y1071620D01*
X23923619Y1071620D01*
X24399809Y1119239D02*
X24399809Y1071620D01*
X24352190Y976381D01*
X24304571Y928762D01*
X24733142Y2071620D02*
X25399809Y2071620D01*
X24971238Y1071620D01*
X26256952Y2071620D02*
X25780761Y2071620D01*
X25733142Y1595429D01*
X25780761Y1643048D01*
X25876000Y1690667D01*
X26114095Y1690667D01*
X26209333Y1643048D01*
X26256952Y1595429D01*
X26304571Y1500191D01*
X26304571Y1262096D01*
X26256952Y1166858D01*
X26209333Y1119239D01*
X26114095Y1071620D01*
X25876000Y1071620D01*
X25780761Y1119239D01*
X25733142Y1166858D01*
X26590285Y2071620D02*
X26923619Y1071620D01*
X27256952Y2071620D01*
X27590285Y1166858D02*
X27637904Y1119239D01*
X27590285Y1071620D01*
X27542666Y1119239D01*
X27590285Y1166858D01*
X27590285Y1071620D01*
X27590285Y1452572D02*
X27542666Y2024000D01*
X27590285Y2071620D01*
X27637904Y2024000D01*
X27590285Y1452572D01*
X27590285Y2071620D01*
X28066476Y1166858D02*
X28114095Y1119239D01*
X28066476Y1071620D01*
X28018857Y1119239D01*
X28066476Y1166858D01*
X28066476Y1071620D01*
X28066476Y1452572D02*
X28018857Y2024000D01*
X28066476Y2071620D01*
X28114095Y2024000D01*
X28066476Y1452572D01*
X28066476Y2071620D01*
X56078380Y3516477D02*
X55078380Y3516477D01*
X55078380Y3897429D01*
X55126000Y3992667D01*
X55173619Y4040286D01*
X55268857Y4087905D01*
X55411714Y4087905D01*
X55506952Y4040286D01*
X55554571Y3992667D01*
X55602190Y3897429D01*
X55602190Y3516477D01*
X55078380Y4373620D02*
X56078380Y4706953D01*
X55078380Y5040286D01*
X55697428Y5373620D02*
X55697428Y6135524D01*
X43076761Y60783453D02*
X43124380Y60926310D01*
X43124380Y61164405D01*
X43076761Y61259643D01*
X43029142Y61307262D01*
X42933904Y61354881D01*
X42838666Y61354881D01*
X42743428Y61307262D01*
X42695809Y61259643D01*
X42648190Y61164405D01*
X42600571Y60973929D01*
X42552952Y60878691D01*
X42505333Y60831072D01*
X42410095Y60783453D01*
X42314857Y60783453D01*
X42219619Y60831072D01*
X42172000Y60878691D01*
X42124380Y60973929D01*
X42124380Y61212024D01*
X42172000Y61354881D01*
X43124380Y61783453D02*
X42124380Y61783453D01*
X42124380Y62021548D01*
X42172000Y62164405D01*
X42267238Y62259643D01*
X42362476Y62307262D01*
X42552952Y62354881D01*
X42695809Y62354881D01*
X42886285Y62307262D01*
X42981523Y62259643D01*
X43076761Y62164405D01*
X43124380Y62021548D01*
X43124380Y61783453D01*
X42838666Y62735834D02*
X42838666Y63212024D01*
X43124380Y62640596D02*
X42124380Y62973929D01*
X43124380Y63307262D01*
X3357619Y18764096D02*
X3357619Y19335524D01*
X3357619Y19049810D02*
X4357619Y19049810D01*
X4214761Y19145048D01*
X4119523Y19240286D01*
X4071904Y19335524D01*
X4357619Y18145048D02*
X4357619Y18049810D01*
X4310000Y17954572D01*
X4262380Y17906953D01*
X4167142Y17859334D01*
X3976666Y17811715D01*
X3738571Y17811715D01*
X3548095Y17859334D01*
X3452857Y17906953D01*
X3405238Y17954572D01*
X3357619Y18049810D01*
X3357619Y18145048D01*
X3405238Y18240286D01*
X3452857Y18287905D01*
X3548095Y18335524D01*
X3738571Y18383143D01*
X3976666Y18383143D01*
X4167142Y18335524D01*
X4262380Y18287905D01*
X4310000Y18240286D01*
X4357619Y18145048D01*
X4357619Y17192667D02*
X4357619Y17097429D01*
X4310000Y17002191D01*
X4262380Y16954572D01*
X4167142Y16906953D01*
X3976666Y16859334D01*
X3738571Y16859334D01*
X3548095Y16906953D01*
X3452857Y16954572D01*
X3405238Y17002191D01*
X3357619Y17097429D01*
X3357619Y17192667D01*
X3405238Y17287905D01*
X3452857Y17335524D01*
X3548095Y17383143D01*
X3738571Y17430762D01*
X3976666Y17430762D01*
X4167142Y17383143D01*
X4262380Y17335524D01*
X4310000Y17287905D01*
X4357619Y17192667D01*
X3357619Y16478381D02*
X4357619Y15716477D01*
X4357619Y16335524D02*
X4310000Y16240286D01*
X4214761Y16192667D01*
X4119523Y16240286D01*
X4071904Y16335524D01*
X4119523Y16430762D01*
X4214761Y16478381D01*
X4310000Y16430762D01*
X4357619Y16335524D01*
X3405238Y15764096D02*
X3500476Y15716477D01*
X3595714Y15764096D01*
X3643333Y15859334D01*
X3595714Y15954572D01*
X3500476Y16002191D01*
X3405238Y15954572D01*
X3357619Y15859334D01*
X3405238Y15764096D01*
X29524142Y58402500D02*
X29571761Y58354881D01*
X29619380Y58212024D01*
X29619380Y58116786D01*
X29571761Y57973929D01*
X29476523Y57878691D01*
X29381285Y57831072D01*
X29190809Y57783453D01*
X29047952Y57783453D01*
X28857476Y57831072D01*
X28762238Y57878691D01*
X28667000Y57973929D01*
X28619380Y58116786D01*
X28619380Y58212024D01*
X28667000Y58354881D01*
X28714619Y58402500D01*
X29619380Y58831072D02*
X28619380Y58831072D01*
X29095571Y58831072D02*
X29095571Y59402500D01*
X29619380Y59402500D02*
X28619380Y59402500D01*
X29333666Y59831072D02*
X29333666Y60307262D01*
X29619380Y59735834D02*
X28619380Y60069167D01*
X29619380Y60402500D01*
X29619380Y61307262D02*
X29143190Y60973929D01*
X29619380Y60735834D02*
X28619380Y60735834D01*
X28619380Y61116786D01*
X28667000Y61212024D01*
X28714619Y61259643D01*
X28809857Y61307262D01*
X28952714Y61307262D01*
X29047952Y61259643D01*
X29095571Y61212024D01*
X29143190Y61116786D01*
X29143190Y60735834D01*
X28667000Y62259643D02*
X28619380Y62164405D01*
X28619380Y62021548D01*
X28667000Y61878691D01*
X28762238Y61783453D01*
X28857476Y61735834D01*
X29047952Y61688215D01*
X29190809Y61688215D01*
X29381285Y61735834D01*
X29476523Y61783453D01*
X29571761Y61878691D01*
X29619380Y62021548D01*
X29619380Y62116786D01*
X29571761Y62259643D01*
X29524142Y62307262D01*
X29190809Y62307262D01*
X29190809Y62116786D01*
X29095571Y62735834D02*
X29095571Y63069167D01*
X29619380Y63212024D02*
X29619380Y62735834D01*
X28619380Y62735834D01*
X28619380Y63212024D01*
X30705571Y61688215D02*
X30705571Y62021548D01*
X31229380Y62164405D02*
X31229380Y61688215D01*
X30229380Y61688215D01*
X30229380Y62164405D01*
X31229380Y62592977D02*
X30229380Y62592977D01*
X31229380Y63164405D01*
X30229380Y63164405D01*
X6675428Y40369524D02*
X6627809Y40226667D01*
X6580190Y40179048D01*
X6484952Y40131429D01*
X6342095Y40131429D01*
X6246857Y40179048D01*
X6199238Y40226667D01*
X6151619Y40321905D01*
X6151619Y40702858D01*
X7151619Y40702858D01*
X7151619Y40369524D01*
X7104000Y40274286D01*
X7056380Y40226667D01*
X6961142Y40179048D01*
X6865904Y40179048D01*
X6770666Y40226667D01*
X6723047Y40274286D01*
X6675428Y40369524D01*
X6675428Y40702858D01*
X6151619Y39274286D02*
X6675428Y39274286D01*
X6770666Y39321905D01*
X6818285Y39417143D01*
X6818285Y39607620D01*
X6770666Y39702858D01*
X6199238Y39274286D02*
X6151619Y39369524D01*
X6151619Y39607620D01*
X6199238Y39702858D01*
X6294476Y39750477D01*
X6389714Y39750477D01*
X6484952Y39702858D01*
X6532571Y39607620D01*
X6532571Y39369524D01*
X6580190Y39274286D01*
X6818285Y38940953D02*
X6818285Y38560000D01*
X7151619Y38798096D02*
X6294476Y38798096D01*
X6199238Y38750477D01*
X6151619Y38655239D01*
X6151619Y38560000D01*
X6818285Y38369524D02*
X6818285Y37988572D01*
X7151619Y38226667D02*
X6294476Y38226667D01*
X6199238Y38179048D01*
X6151619Y38083810D01*
X6151619Y37988572D01*
X6199238Y37274286D02*
X6151619Y37369524D01*
X6151619Y37560000D01*
X6199238Y37655239D01*
X6294476Y37702858D01*
X6675428Y37702858D01*
X6770666Y37655239D01*
X6818285Y37560000D01*
X6818285Y37369524D01*
X6770666Y37274286D01*
X6675428Y37226667D01*
X6580190Y37226667D01*
X6484952Y37702858D01*
X6151619Y36798096D02*
X6818285Y36798096D01*
X6627809Y36798096D02*
X6723047Y36750477D01*
X6770666Y36702858D01*
X6818285Y36607620D01*
X6818285Y36512381D01*
X6818285Y36274286D02*
X6151619Y36036191D01*
X6818285Y35798096D02*
X6151619Y36036191D01*
X5913523Y36131429D01*
X5865904Y36179048D01*
X5818285Y36274286D01*
X6199238Y34702858D02*
X6151619Y34560000D01*
X6151619Y34321905D01*
X6199238Y34226667D01*
X6246857Y34179048D01*
X6342095Y34131429D01*
X6437333Y34131429D01*
X6532571Y34179048D01*
X6580190Y34226667D01*
X6627809Y34321905D01*
X6675428Y34512381D01*
X6723047Y34607620D01*
X6770666Y34655239D01*
X6865904Y34702858D01*
X6961142Y34702858D01*
X7056380Y34655239D01*
X7104000Y34607620D01*
X7151619Y34512381D01*
X7151619Y34274286D01*
X7104000Y34131429D01*
X6818285Y33845715D02*
X6818285Y33464762D01*
X7151619Y33702858D02*
X6294476Y33702858D01*
X6199238Y33655239D01*
X6151619Y33560000D01*
X6151619Y33464762D01*
X6151619Y32702858D02*
X6675428Y32702858D01*
X6770666Y32750477D01*
X6818285Y32845715D01*
X6818285Y33036191D01*
X6770666Y33131429D01*
X6199238Y32702858D02*
X6151619Y32798096D01*
X6151619Y33036191D01*
X6199238Y33131429D01*
X6294476Y33179048D01*
X6389714Y33179048D01*
X6484952Y33131429D01*
X6532571Y33036191D01*
X6532571Y32798096D01*
X6580190Y32702858D01*
X6818285Y32369524D02*
X6818285Y31988572D01*
X7151619Y32226667D02*
X6294476Y32226667D01*
X6199238Y32179048D01*
X6151619Y32083810D01*
X6151619Y31988572D01*
X6818285Y31226667D02*
X6151619Y31226667D01*
X6818285Y31655239D02*
X6294476Y31655239D01*
X6199238Y31607620D01*
X6151619Y31512381D01*
X6151619Y31369524D01*
X6199238Y31274286D01*
X6246857Y31226667D01*
X6199238Y30798096D02*
X6151619Y30702858D01*
X6151619Y30512381D01*
X6199238Y30417143D01*
X6294476Y30369524D01*
X6342095Y30369524D01*
X6437333Y30417143D01*
X6484952Y30512381D01*
X6484952Y30655239D01*
X6532571Y30750477D01*
X6627809Y30798096D01*
X6675428Y30798096D01*
X6770666Y30750477D01*
X6818285Y30655239D01*
X6818285Y30512381D01*
X6770666Y30417143D01*
%TO.C,BT1*%
X49563571Y34520286D02*
X49611190Y34663143D01*
X49658809Y34710762D01*
X49754047Y34758381D01*
X49896904Y34758381D01*
X49992142Y34710762D01*
X50039761Y34663143D01*
X50087380Y34567905D01*
X50087380Y34186953D01*
X49087380Y34186953D01*
X49087380Y34520286D01*
X49135000Y34615524D01*
X49182619Y34663143D01*
X49277857Y34710762D01*
X49373095Y34710762D01*
X49468333Y34663143D01*
X49515952Y34615524D01*
X49563571Y34520286D01*
X49563571Y34186953D01*
X49087380Y35044096D02*
X49087380Y35615524D01*
X50087380Y35329810D02*
X49087380Y35329810D01*
X50087380Y36472667D02*
X50087380Y35901239D01*
X50087380Y36186953D02*
X49087380Y36186953D01*
X49230238Y36091715D01*
X49325476Y35996477D01*
X49373095Y35901239D01*
D11*
X14471857Y7043810D02*
X14186142Y7043810D01*
X14329000Y7043810D02*
X14329000Y7543810D01*
X14281380Y7472381D01*
X14233761Y7424762D01*
X14186142Y7400953D01*
X14471857Y31523810D02*
X14186142Y31523810D01*
X14329000Y31523810D02*
X14329000Y32023810D01*
X14281380Y31952381D01*
X14233761Y31904762D01*
X14186142Y31880953D01*
X71571857Y7043810D02*
X71286142Y7043810D01*
X71429000Y7043810D02*
X71429000Y7543810D01*
X71381380Y7472381D01*
X71333761Y7424762D01*
X71286142Y7400953D01*
%TO.C,P1*%
X35278190Y63642858D02*
X35278190Y63357143D01*
X35278190Y63500000D02*
X34778190Y63500000D01*
X34849619Y63452381D01*
X34897238Y63404762D01*
X34921047Y63357143D01*
D12*
%TO.C,SW1*%
X21112238Y63796334D02*
X21160619Y63941477D01*
X21160619Y64183381D01*
X21112238Y64280143D01*
X21063857Y64328524D01*
X20967095Y64376905D01*
X20870333Y64376905D01*
X20773571Y64328524D01*
X20725190Y64280143D01*
X20676809Y64183381D01*
X20628428Y63989858D01*
X20580047Y63893096D01*
X20531666Y63844715D01*
X20434904Y63796334D01*
X20338142Y63796334D01*
X20241380Y63844715D01*
X20193000Y63893096D01*
X20144619Y63989858D01*
X20144619Y64231762D01*
X20193000Y64376905D01*
X20144619Y64715572D02*
X21160619Y64957477D01*
X20434904Y65151000D01*
X21160619Y65344524D01*
X20144619Y65586429D01*
X21160619Y66505667D02*
X21160619Y65925096D01*
X21160619Y66215381D02*
X20144619Y66215381D01*
X20289761Y66118620D01*
X20386523Y66021858D01*
X20434904Y65925096D01*
D10*
%TO.C,R4*%
X45045333Y36757620D02*
X44712000Y37233810D01*
X44473904Y36757620D02*
X44473904Y37757620D01*
X44854857Y37757620D01*
X44950095Y37710000D01*
X44997714Y37662381D01*
X45045333Y37567143D01*
X45045333Y37424286D01*
X44997714Y37329048D01*
X44950095Y37281429D01*
X44854857Y37233810D01*
X44473904Y37233810D01*
X45902476Y37424286D02*
X45902476Y36757620D01*
X45664380Y37805239D02*
X45426285Y37090953D01*
X46045333Y37090953D01*
D13*
%TO.C,J2*%
X51743428Y9398000D02*
X52832000Y9398000D01*
X53049714Y9325429D01*
X53194857Y9180286D01*
X53267428Y8962572D01*
X53267428Y8817429D01*
X51888571Y10051143D02*
X51816000Y10123715D01*
X51743428Y10268858D01*
X51743428Y10631715D01*
X51816000Y10776858D01*
X51888571Y10849429D01*
X52033714Y10922000D01*
X52178857Y10922000D01*
X52396571Y10849429D01*
X53267428Y9978572D01*
X53267428Y10922000D01*
%TO.C,J3*%
X51743428Y4318000D02*
X52832000Y4318000D01*
X53049714Y4245429D01*
X53194857Y4100286D01*
X53267428Y3882572D01*
X53267428Y3737429D01*
X51743428Y4898572D02*
X51743428Y5842000D01*
X52324000Y5334000D01*
X52324000Y5551715D01*
X52396571Y5696858D01*
X52469142Y5769429D01*
X52614285Y5842000D01*
X52977142Y5842000D01*
X53122285Y5769429D01*
X53194857Y5696858D01*
X53267428Y5551715D01*
X53267428Y5116286D01*
X53194857Y4971143D01*
X53122285Y4898572D01*
D10*
%TO.C,J1*%
X27686000Y2540000D02*
X20066000Y2540000D01*
X27686000Y7620000D02*
X27686000Y2540000D01*
X20066000Y2540000D02*
X20066000Y7620000D01*
X20066000Y7620000D02*
X27686000Y7620000D01*
%TO.C,J6*%
X56134000Y68961000D02*
X56134000Y63881000D01*
X48514000Y63881000D02*
X48514000Y68961000D01*
X48514000Y68961000D02*
X56134000Y68961000D01*
X56134000Y63881000D02*
X48514000Y63881000D01*
%TO.C,BT1*%
X13948000Y65120000D02*
X13948000Y54960000D01*
D14*
X68508000Y16383000D02*
X68508000Y54737000D01*
X71048000Y14560000D02*
X80678000Y14560000D01*
D10*
X68508000Y54960000D02*
X68508000Y65120000D01*
D14*
X67008000Y16383000D02*
X67008000Y54737000D01*
D10*
X13948000Y30480000D02*
X11408000Y30480000D01*
X13948000Y40640000D02*
X13948000Y30480000D01*
X11408000Y6000000D02*
X11408000Y16160000D01*
X68508000Y65120000D02*
X71048000Y65120000D01*
X13948000Y54960000D02*
X11408000Y54960000D01*
X68508000Y16160000D02*
X71048000Y16160000D01*
X71048000Y65120000D02*
X71048000Y54960000D01*
X11408000Y40640000D02*
X13948000Y40640000D01*
X68508000Y30480000D02*
X68508000Y40640000D01*
X68508000Y6000000D02*
X68508000Y16160000D01*
D14*
X80678000Y14560000D02*
X80678000Y56560000D01*
X9908000Y16383000D02*
X9908000Y54737000D01*
D10*
X71048000Y54960000D02*
X68508000Y54960000D01*
X13948000Y6000000D02*
X11408000Y6000000D01*
X11408000Y16160000D02*
X13948000Y16160000D01*
X11408000Y54960000D02*
X11408000Y65120000D01*
X71048000Y16160000D02*
X71048000Y6000000D01*
X11408000Y30480000D02*
X11408000Y40640000D01*
D14*
X61192000Y14560000D02*
X13948000Y14560000D01*
D10*
X11408000Y65120000D02*
X13948000Y65120000D01*
D14*
X11408000Y16383000D02*
X11408000Y54737000D01*
D10*
X13948000Y16160000D02*
X13948000Y6000000D01*
X71048000Y6000000D02*
X68508000Y6000000D01*
D14*
X61192000Y56560000D02*
X13948000Y56560000D01*
X71048000Y56560000D02*
X80678000Y56560000D01*
D10*
%TO.C,J4*%
X31242000Y63881000D02*
X28956000Y63881000D01*
X31242000Y68961000D02*
X31242000Y63881000D01*
X28956000Y68961000D02*
X31242000Y68961000D01*
%TO.C,P1*%
X46482000Y63881000D02*
X33782000Y63881000D01*
X33782000Y68961000D02*
X46482000Y68961000D01*
X33782000Y63881000D02*
X33782000Y68961000D01*
X46482000Y68961000D02*
X46482000Y63881000D01*
D14*
%TO.C,SW1*%
X20163000Y61351000D02*
X22763000Y61351000D01*
X25273000Y61351000D02*
X25273000Y68961000D01*
X17663000Y61351000D02*
X17663000Y68951000D01*
X24663000Y61351000D02*
X25273000Y61351000D01*
X25273000Y68961000D02*
X24666326Y68961741D01*
X18263000Y61351000D02*
X17663000Y61351000D01*
X20163000Y68951000D02*
X22763000Y68951000D01*
D15*
X24003000Y65151000D02*
G75*
G03*
X24003000Y65151000I-2540000J0D01*
G01*
D14*
%TO.C,R4*%
X44984936Y34825000D02*
X45439064Y34825000D01*
X44984936Y36295000D02*
X45439064Y36295000D01*
D10*
%TO.C,J5*%
X48514000Y58801000D02*
X48514000Y63881000D01*
X56134000Y63881000D02*
X56134000Y58801000D01*
X48514000Y63881000D02*
X56134000Y63881000D01*
X56134000Y58801000D02*
X48514000Y58801000D01*
%TO.C,J2*%
X37196000Y11407000D02*
X37196000Y8405000D01*
X39695900Y11406000D02*
X37196000Y11406000D01*
X39196000Y7906000D02*
X39196000Y7406000D01*
X36695900Y7906000D02*
X36695900Y11906000D01*
X45196000Y12406000D02*
X54196000Y12406000D01*
X40196000Y11906000D02*
X36695900Y11906000D01*
X45196000Y7406000D02*
X39196000Y7406000D01*
X39196000Y12406000D02*
X39196000Y11906000D01*
X54196000Y12406100D02*
X54196000Y7405900D01*
X54196000Y7406000D02*
X45196000Y7406000D01*
X40196000Y7906000D02*
X40196000Y11906000D01*
X45196000Y12406000D02*
X39196000Y12406000D01*
X39695900Y8406000D02*
X37196000Y8406000D01*
X40196000Y7906000D02*
X36695000Y7906000D01*
X39695900Y11407000D02*
X39695900Y8405000D01*
%TO.C,J3*%
X39695900Y6327000D02*
X39695900Y3325000D01*
X39196000Y7326000D02*
X39196000Y6826000D01*
X54196000Y2326000D02*
X45196000Y2326000D01*
X40196000Y6826000D02*
X36695900Y6826000D01*
X39695900Y6326000D02*
X37196000Y6326000D01*
X45196000Y2326000D02*
X39196000Y2326000D01*
X45196000Y7326000D02*
X39196000Y7326000D01*
X40196000Y2826000D02*
X40196000Y6826000D01*
X36695900Y2826000D02*
X36695900Y6826000D01*
X37196000Y6327000D02*
X37196000Y3325000D01*
X40196000Y2826000D02*
X36695000Y2826000D01*
X45196000Y7326000D02*
X54196000Y7326000D01*
X39196000Y2826000D02*
X39196000Y2326000D01*
X54196000Y7326100D02*
X54196000Y2325900D01*
X39695900Y3326000D02*
X37196000Y3326000D01*
%TD*%
D16*
%TO.C,P1*%
X35052000Y65151000D03*
X35052000Y67691000D03*
X37592000Y65151000D03*
X37592000Y67691000D03*
X40132000Y65151000D03*
X40132000Y67691000D03*
X42672000Y65151000D03*
X42672000Y67691000D03*
X45212000Y65151000D03*
X45212000Y67691000D03*
%TD*%
M02*
