%TF.GenerationSoftware,KiCad,Pcbnew,6.0.4-6f826c9f35~116~ubuntu20.04.1*%
%TF.CreationDate,2022-08-15T10:07:19+00:00*%
%TF.ProjectId,SOLARMINIBAT01A,534f4c41-524d-4494-9e49-424154303141,rev?*%
%TF.SameCoordinates,Original*%
%TF.FileFunction,Copper,L1,Top*%
%TF.FilePolarity,Positive*%
%FSLAX46Y46*%
G04 Gerber Fmt 4.6, Leading zero omitted, Abs format (unit mm)*
G04 Created by KiCad (PCBNEW 6.0.4-6f826c9f35~116~ubuntu20.04.1) date 2022-08-15 10:07:19*
%MOMM*%
%LPD*%
G01*
G04 APERTURE LIST*
G04 Aperture macros list*
%AMRoundRect*
0 Rectangle with rounded corners*
0 $1 Rounding radius*
0 $2 $3 $4 $5 $6 $7 $8 $9 X,Y pos of 4 corners*
0 Add a 4 corners polygon primitive as box body*
4,1,4,$2,$3,$4,$5,$6,$7,$8,$9,$2,$3,0*
0 Add four circle primitives for the rounded corners*
1,1,$1+$1,$2,$3*
1,1,$1+$1,$4,$5*
1,1,$1+$1,$6,$7*
1,1,$1+$1,$8,$9*
0 Add four rect primitives between the rounded corners*
20,1,$1+$1,$2,$3,$4,$5,0*
20,1,$1+$1,$4,$5,$6,$7,0*
20,1,$1+$1,$6,$7,$8,$9,0*
20,1,$1+$1,$8,$9,$2,$3,0*%
G04 Aperture macros list end*
%TA.AperFunction,ComponentPad*%
%ADD10C,6.000000*%
%TD*%
%TA.AperFunction,ComponentPad*%
%ADD11R,1.524000X1.524000*%
%TD*%
%TA.AperFunction,SMDPad,CuDef*%
%ADD12R,7.000000X11.000000*%
%TD*%
%TA.AperFunction,SMDPad,CuDef*%
%ADD13R,3.600000X11.000000*%
%TD*%
%TA.AperFunction,ComponentPad*%
%ADD14R,1.676400X1.676400*%
%TD*%
%TA.AperFunction,SMDPad,CuDef*%
%ADD15RoundRect,0.250000X-0.350000X-0.450000X0.350000X-0.450000X0.350000X0.450000X-0.350000X0.450000X0*%
%TD*%
%TA.AperFunction,ComponentPad*%
%ADD16R,3.810000X3.810000*%
%TD*%
%TA.AperFunction,SMDPad,CuDef*%
%ADD17R,2.300000X2.300000*%
%TD*%
%TA.AperFunction,ComponentPad*%
%ADD18C,0.600000*%
%TD*%
%TA.AperFunction,ViaPad*%
%ADD19C,0.890000*%
%TD*%
%TA.AperFunction,Conductor*%
%ADD20C,0.600000*%
%TD*%
%TA.AperFunction,Conductor*%
%ADD21C,0.400000*%
%TD*%
%TA.AperFunction,Conductor*%
%ADD22C,1.000000*%
%TD*%
G04 APERTURE END LIST*
D10*
%TO.P,M4,1*%
%TO.N,unconnected-(M4-Pad1)*%
X5080000Y66040000D03*
%TD*%
D11*
%TO.P,J1,1*%
%TO.N,GND*%
X21336000Y3810000D03*
%TO.P,J1,2*%
X21336000Y6350000D03*
%TO.P,J1,3*%
%TO.N,Net-(F1-Pad2)*%
X23876000Y3810000D03*
%TO.P,J1,4*%
X23876000Y6350000D03*
%TO.P,J1,5*%
%TO.N,GND*%
X26416000Y3810000D03*
%TO.P,J1,6*%
X26416000Y6350000D03*
%TD*%
%TO.P,J6,1*%
%TO.N,GND*%
X54864000Y67691000D03*
%TO.P,J6,2*%
X54864000Y65151000D03*
%TO.P,J6,3*%
%TO.N,+3V3*%
X52324000Y67691000D03*
%TO.P,J6,4*%
X52324000Y65151000D03*
%TO.P,J6,5*%
%TO.N,GND*%
X49784000Y67691000D03*
%TO.P,J6,6*%
X49784000Y65151000D03*
%TD*%
%TO.P,BT1,1,+*%
%TO.N,/battery_pack/Battery+*%
X12678000Y36830000D03*
X12678000Y34290000D03*
%TO.P,BT1,2,-*%
%TO.N,/battery_pack/Battery-*%
X12678000Y39370000D03*
X12678000Y31750000D03*
%TO.P,BT1,3,GND*%
%TO.N,GND*%
X69778000Y63850000D03*
X69778000Y7270000D03*
X69778000Y56230000D03*
X12678000Y14890000D03*
D12*
X64875000Y60325000D03*
D13*
X9630000Y10795000D03*
D11*
X12678000Y58770000D03*
X69778000Y14890000D03*
X12678000Y56230000D03*
D12*
X64875000Y10795000D03*
D11*
X69778000Y58770000D03*
X12678000Y63850000D03*
D13*
X9630000Y60325000D03*
D11*
X69778000Y9810000D03*
X69778000Y12350000D03*
X69778000Y61310000D03*
X12678000Y61310000D03*
X12678000Y7270000D03*
%TO.P,BT1,5*%
%TO.N,/battery_pack/NTC1*%
X12678000Y9810000D03*
%TO.P,BT1,6*%
%TO.N,/battery_pack/NTC2*%
X12678000Y12350000D03*
%TD*%
D10*
%TO.P,M1,1*%
%TO.N,unconnected-(M1-Pad1)*%
X76200000Y66040000D03*
%TD*%
%TO.P,M3,1*%
%TO.N,unconnected-(M3-Pad1)*%
X76200000Y5080000D03*
%TD*%
D11*
%TO.P,J4,1*%
%TO.N,/fuel_gauge/CHARGE_CTRL*%
X29972000Y65151000D03*
%TO.P,J4,2*%
X29972000Y67691000D03*
%TD*%
%TO.P,P1,1*%
%TO.N,GND*%
X35052000Y65151000D03*
%TO.P,P1,2*%
X35052000Y67691000D03*
%TO.P,P1,3*%
%TO.N,/fuel_gauge/I2C_SCL*%
X37592000Y65151000D03*
%TO.P,P1,4*%
X37592000Y67691000D03*
%TO.P,P1,5*%
%TO.N,+3V3*%
X40132000Y65151000D03*
%TO.P,P1,6*%
X40132000Y67691000D03*
%TO.P,P1,7*%
%TO.N,/fuel_gauge/I2C_SDA*%
X42672000Y65151000D03*
%TO.P,P1,8*%
X42672000Y67691000D03*
%TO.P,P1,9*%
%TO.N,GND*%
X45212000Y65151000D03*
%TO.P,P1,10*%
X45212000Y67691000D03*
%TD*%
D14*
%TO.P,SW1,1,1*%
%TO.N,Net-(R5-Pad1)*%
X19213000Y62001000D03*
X19213000Y68301000D03*
%TO.P,SW1,2,2*%
%TO.N,Net-(SW1-Pad2)*%
X23713000Y62001000D03*
X23713000Y68301000D03*
%TD*%
D10*
%TO.P,M2,1*%
%TO.N,unconnected-(M2-Pad1)*%
X5080000Y5080000D03*
%TD*%
D15*
%TO.P,R4,1*%
%TO.N,/battery_pack/NTC2*%
X44212000Y35560000D03*
%TO.P,R4,2*%
%TO.N,/battery_pack/NTC1*%
X46212000Y35560000D03*
%TD*%
D11*
%TO.P,J5,1*%
%TO.N,GND*%
X54864000Y62611000D03*
%TO.P,J5,2*%
X54864000Y60071000D03*
%TO.P,J5,3*%
%TO.N,+3V3*%
X52324000Y62611000D03*
%TO.P,J5,4*%
X52324000Y60071000D03*
%TO.P,J5,5*%
%TO.N,GND*%
X49784000Y62611000D03*
%TO.P,J5,6*%
X49784000Y60071000D03*
%TD*%
D16*
%TO.P,J2,1,P1*%
%TO.N,/power_input/PV+*%
X44196000Y9556000D03*
X49196000Y9556000D03*
%TD*%
%TO.P,J3,1,P1*%
%TO.N,GND*%
X44196000Y4476000D03*
X49196000Y4476000D03*
%TD*%
D17*
%TO.P,X1,11,PGND*%
%TO.N,GND*%
X57912000Y46481000D03*
D18*
X58412000Y46982000D03*
X57912000Y46482000D03*
X57412000Y46982000D03*
X58412000Y45982000D03*
X57412000Y45982000D03*
%TD*%
D19*
%TO.N,+3V3*%
X46871489Y61332511D03*
X33646511Y61332511D03*
X17526000Y59690000D03*
%TO.N,GND*%
X10922000Y10414000D03*
X26416000Y50038000D03*
X67818000Y11430000D03*
X24130000Y31242000D03*
X65278000Y10160000D03*
X9652000Y14224000D03*
X61976000Y38608000D03*
X52578000Y16764000D03*
X8382000Y14224000D03*
X32512000Y64516000D03*
X21844000Y44704000D03*
X5334000Y47498000D03*
X19812000Y25146000D03*
X73406000Y31496000D03*
X32512000Y55626000D03*
X13462000Y40894000D03*
X10922000Y12954000D03*
X67564000Y56896000D03*
X43688000Y27432000D03*
X27686000Y64516000D03*
X39624000Y50800000D03*
X10922000Y15494000D03*
X57150000Y30226000D03*
X8382000Y63246000D03*
X15494000Y18288000D03*
X32512000Y67056000D03*
X28956000Y27686000D03*
X26416000Y51562000D03*
X45974000Y44450000D03*
X10922000Y63246000D03*
X67818000Y48768000D03*
X67564000Y43942000D03*
X70866000Y34544000D03*
X26162000Y16256000D03*
X26162000Y63246000D03*
X66548000Y6350000D03*
X10922000Y61976000D03*
X26416000Y27686000D03*
X75692000Y29464000D03*
X50800000Y45212000D03*
X26670000Y31242000D03*
X69596000Y38608000D03*
X9652000Y55626000D03*
X9652000Y15494000D03*
X45974000Y40894000D03*
X15748000Y10414000D03*
X25400000Y25146000D03*
X23368000Y39624000D03*
X8382000Y60706000D03*
X67818000Y10160000D03*
X42672000Y36322000D03*
X38862000Y30988000D03*
X67564000Y60706000D03*
X27432000Y40640000D03*
X66548000Y10160000D03*
X52832000Y24384000D03*
X26162000Y22098000D03*
X69850000Y54102000D03*
X45974000Y27432000D03*
X65024000Y61976000D03*
X65024000Y64516000D03*
X33782000Y56896000D03*
X65024000Y60706000D03*
X8382000Y56896000D03*
X58928000Y5588000D03*
X38608000Y59944000D03*
X33782000Y54102000D03*
X10922000Y6604000D03*
X9652000Y56896000D03*
X32766000Y59690000D03*
X60960000Y42926000D03*
X8382000Y12954000D03*
X37084000Y51816000D03*
X28702000Y55118000D03*
X57404000Y16764000D03*
X67818000Y15240000D03*
X42418000Y43942000D03*
X68834000Y46482000D03*
X55118000Y16764000D03*
X19558000Y16510000D03*
X9652000Y6604000D03*
X20574000Y45212000D03*
X33274000Y20066000D03*
X65278000Y11430000D03*
X65278000Y12700000D03*
X66294000Y55626000D03*
X67564000Y59436000D03*
X57658000Y62484000D03*
X34290000Y59690000D03*
X72898000Y19050000D03*
X66294000Y63246000D03*
X21590000Y31242000D03*
X10922000Y58166000D03*
X58674000Y26670000D03*
X54810000Y46682000D03*
X57404000Y36068000D03*
X66040000Y46482000D03*
X67564000Y64516000D03*
X72898000Y17526000D03*
X46228000Y54356000D03*
X56134000Y34290000D03*
X26416000Y45974000D03*
X66294000Y59436000D03*
X45974000Y39370000D03*
X10922000Y11684000D03*
X65278000Y6350000D03*
X49784000Y39624000D03*
X30734000Y44704000D03*
X67564000Y63246000D03*
X30734000Y5334000D03*
X48514000Y27432000D03*
X21590000Y34036000D03*
X39878000Y15748000D03*
X69596000Y37338000D03*
X62230000Y46482000D03*
X61468000Y39878000D03*
X35814000Y45974000D03*
X61722000Y54102000D03*
X45974000Y42672000D03*
X52070000Y45212000D03*
X42164000Y54864000D03*
X47498000Y64008000D03*
X41148000Y27432000D03*
X73914000Y38608000D03*
X23368000Y34036000D03*
X33274000Y32512000D03*
X66802000Y47752000D03*
X21336000Y46228000D03*
X66548000Y13970000D03*
X68580000Y21844000D03*
X73914000Y40894000D03*
X17780000Y3556000D03*
X15494000Y3556000D03*
X8382000Y6604000D03*
X8382000Y59436000D03*
X50546000Y58166000D03*
X66548000Y8890000D03*
X57404000Y27940000D03*
X49276000Y55626000D03*
X21336000Y58166000D03*
X20066000Y48006000D03*
X68834000Y43942000D03*
X9652000Y58166000D03*
X63246000Y38608000D03*
X67564000Y55626000D03*
X52070000Y46482000D03*
X53340000Y46482000D03*
X50546000Y55626000D03*
X10922000Y59436000D03*
X72898000Y24384000D03*
X67818000Y12700000D03*
X30734000Y3556000D03*
X52578000Y36322000D03*
X23368000Y45974000D03*
X66294000Y56896000D03*
X72898000Y20320000D03*
X26162000Y64516000D03*
X9652000Y9144000D03*
X58928000Y2794000D03*
X38862000Y51816000D03*
X47498000Y65278000D03*
X32512000Y65786000D03*
X64770000Y46482000D03*
X41910000Y57658000D03*
X66294000Y60706000D03*
X33782000Y49784000D03*
X8382000Y64516000D03*
X71628000Y33528000D03*
X67818000Y13970000D03*
X49276000Y56896000D03*
X9652000Y60706000D03*
X10922000Y9144000D03*
X41656000Y36322000D03*
X33528000Y48514000D03*
X22860000Y31242000D03*
X43688000Y56388000D03*
X9652000Y11684000D03*
X58928000Y12192000D03*
X57658000Y67564000D03*
X60706000Y53086000D03*
X8382000Y58166000D03*
X23114000Y44704000D03*
X73914000Y53594000D03*
X37846000Y52832000D03*
X8382000Y11684000D03*
X67818000Y6350000D03*
X66548000Y12700000D03*
X9652000Y59436000D03*
X33274000Y23876000D03*
X68580000Y20320000D03*
X39878000Y25146000D03*
X66802000Y45212000D03*
X65024000Y63246000D03*
X70104000Y46482000D03*
X65278000Y7620000D03*
X53594000Y32004000D03*
X33274000Y30988000D03*
X26670000Y55372000D03*
X24892000Y45974000D03*
X17780000Y10414000D03*
X27432000Y36576000D03*
X46990000Y48514000D03*
X19812000Y46228000D03*
X42418000Y45720000D03*
X47498000Y66548000D03*
X29210000Y32512000D03*
X35052000Y55626000D03*
X49276000Y45466000D03*
X47752000Y32512000D03*
X9652000Y61976000D03*
X9652000Y10414000D03*
X42164000Y52578000D03*
X67818000Y8890000D03*
X30734000Y6858000D03*
X59436000Y16764000D03*
X34290000Y45974000D03*
X71374000Y46482000D03*
X73914000Y43434000D03*
X8382000Y55626000D03*
X55372000Y20066000D03*
X35052000Y30988000D03*
X10922000Y60706000D03*
X27686000Y63246000D03*
X28702000Y53340000D03*
X26162000Y19050000D03*
X25400000Y31242000D03*
X66548000Y7620000D03*
X22352000Y18542000D03*
X38862000Y45720000D03*
X42418000Y42164000D03*
X21590000Y39624000D03*
X51816000Y39624000D03*
X38862000Y58166000D03*
X12954000Y18288000D03*
X64516000Y38608000D03*
X67818000Y7620000D03*
X57658000Y59436000D03*
X67310000Y46482000D03*
X26416000Y48260000D03*
X8382000Y15494000D03*
X68580000Y23368000D03*
X73914000Y46482000D03*
X5334000Y39624000D03*
X21590000Y23622000D03*
X39878000Y19050000D03*
X30734000Y45974000D03*
X66548000Y15240000D03*
X51054000Y27432000D03*
X65278000Y13970000D03*
X12954000Y29210000D03*
X10922000Y14224000D03*
X74422000Y30480000D03*
X65024000Y59436000D03*
X54610000Y45212000D03*
X9652000Y63246000D03*
X50800000Y46482000D03*
X36068000Y59690000D03*
X8382000Y10414000D03*
X67564000Y58166000D03*
X9652000Y64516000D03*
X49530000Y51562000D03*
X55118000Y43942000D03*
X73914000Y50800000D03*
X66294000Y61976000D03*
X45466000Y57912000D03*
X44450000Y50292000D03*
X8382000Y7874000D03*
X19558000Y20828000D03*
X10922000Y56896000D03*
X31496000Y28956000D03*
X58928000Y8890000D03*
X10922000Y64516000D03*
X32512000Y68326000D03*
X40386000Y59944000D03*
X5334000Y35560000D03*
X20828000Y13970000D03*
X66548000Y11430000D03*
X8382000Y61976000D03*
X14986000Y40894000D03*
X15494000Y29210000D03*
X47498000Y67818000D03*
X49276000Y50038000D03*
X57658000Y65278000D03*
X68072000Y47498000D03*
X26162000Y56896000D03*
X35052000Y48514000D03*
X60198000Y59436000D03*
X53340000Y45212000D03*
X24384000Y56896000D03*
X22352000Y16510000D03*
X49276000Y58166000D03*
X15494000Y23876000D03*
X22352000Y20828000D03*
X66294000Y64516000D03*
X27940000Y48514000D03*
X10922000Y7874000D03*
X39878000Y22098000D03*
X43180000Y59182000D03*
X66294000Y58166000D03*
X38354000Y50292000D03*
X29210000Y36322000D03*
X17272000Y43942000D03*
X28194000Y31496000D03*
X68326000Y45212000D03*
X54864000Y36068000D03*
X36830000Y30988000D03*
X6350000Y52578000D03*
X73914000Y48514000D03*
X30226000Y33528000D03*
X59182000Y59436000D03*
X23622000Y26924000D03*
X47752000Y30480000D03*
X19558000Y18542000D03*
X65278000Y15240000D03*
X8382000Y9144000D03*
X56134000Y32004000D03*
X63500000Y46482000D03*
X27686000Y33274000D03*
X9652000Y7874000D03*
X18542000Y43942000D03*
X50546000Y56896000D03*
X55372000Y24384000D03*
X65024000Y55626000D03*
X12954000Y23876000D03*
X49276000Y42418000D03*
X68580000Y25146000D03*
X65278000Y8890000D03*
X5334000Y43688000D03*
X65024000Y56896000D03*
X65024000Y54102000D03*
X39116000Y48768000D03*
X71628000Y38608000D03*
X53340000Y27432000D03*
X39624000Y43180000D03*
X52832000Y20066000D03*
X30480000Y50800000D03*
X54102000Y49530000D03*
X10922000Y55626000D03*
X46990000Y59182000D03*
X19050000Y13970000D03*
X15494000Y56896000D03*
X65024000Y58166000D03*
X9652000Y12954000D03*
X17272000Y45212000D03*
X72644000Y46482000D03*
X67564000Y61976000D03*
X55372000Y49530000D03*
X55372000Y30226000D03*
X50800000Y34036000D03*
X53594000Y39624000D03*
%TO.N,/battery_pack/NTC1*%
X31496000Y36576000D03*
X31496000Y31496000D03*
%TO.N,/battery_pack/Battery+*%
X57912000Y37973000D03*
X71755000Y31623000D03*
X79629000Y23749000D03*
X21336000Y26416000D03*
X39878000Y41402000D03*
X60198000Y36449000D03*
X64389000Y36322000D03*
%TO.N,Net-(C12-Pad1)*%
X79629000Y21463000D03*
X64389000Y33528000D03*
%TO.N,/fuel_gauge/CHARGE_CTRL*%
X45720000Y47244000D03*
X68326000Y18542000D03*
X55626000Y27178000D03*
X32258000Y47498000D03*
X30988000Y52324000D03*
%TO.N,/battery_pack/NTC2*%
X42418000Y34544000D03*
%TO.N,Net-(R5-Pad1)*%
X42164000Y50292000D03*
X28956000Y58166000D03*
%TO.N,/fuel_gauge/A*%
X9652000Y53086000D03*
X24638000Y53086000D03*
%TO.N,/fuel_gauge/B*%
X24638000Y51816000D03*
X10414000Y51562000D03*
%TO.N,/fuel_gauge/C*%
X11258500Y50292000D03*
X24638000Y50546000D03*
%TO.N,/fuel_gauge/D*%
X24638000Y49276000D03*
X12103000Y49022000D03*
%TO.N,/fuel_gauge/F*%
X9144000Y31242000D03*
X14732000Y44196000D03*
%TO.N,/fuel_gauge/G*%
X9144000Y27178000D03*
X13642497Y44196000D03*
%TO.N,/fuel_gauge/H*%
X9144000Y23368000D03*
X12446000Y44196000D03*
%TO.N,Net-(SW1-Pad2)*%
X35052000Y50546000D03*
X26416000Y59182000D03*
%TO.N,/fuel_gauge/P2*%
X17526000Y46482000D03*
X35560000Y43434000D03*
%TO.N,/fuel_gauge/P1*%
X38354000Y41402000D03*
X28956000Y50038000D03*
%TD*%
D20*
%TO.N,+3V3*%
X51045511Y61332511D02*
X52324000Y62611000D01*
X40267489Y61332511D02*
X46871489Y61332511D01*
X40132000Y61468000D02*
X40267489Y61332511D01*
X26534511Y61332511D02*
X33646511Y61332511D01*
X24892000Y59690000D02*
X26534511Y61332511D01*
X40132000Y65151000D02*
X40132000Y63500000D01*
X17526000Y59690000D02*
X24892000Y59690000D01*
X40267489Y61332511D02*
X33646511Y61332511D01*
X40132000Y63500000D02*
X40132000Y61468000D01*
X46871489Y61332511D02*
X51045511Y61332511D01*
D21*
%TO.N,/battery_pack/NTC1*%
X39370000Y33528000D02*
X45720000Y33528000D01*
X31496000Y36576000D02*
X36322000Y36576000D01*
X45720000Y33528000D02*
X46212000Y34020000D01*
X46212000Y34020000D02*
X46212000Y35560000D01*
D20*
X31496000Y31496000D02*
X31496000Y36576000D01*
D21*
X36322000Y36576000D02*
X39370000Y33528000D01*
D22*
%TO.N,/battery_pack/Battery+*%
X21336000Y26416000D02*
X13462000Y34290000D01*
X57912000Y37973000D02*
X39497000Y37973000D01*
D21*
X67056000Y36322000D02*
X64389000Y36322000D01*
X79629000Y23749000D02*
X71755000Y31623000D01*
D22*
X15875000Y37973000D02*
X14732000Y36830000D01*
X60198000Y36449000D02*
X58674000Y37973000D01*
X58674000Y37973000D02*
X57912000Y37973000D01*
X15875000Y37973000D02*
X39497000Y37973000D01*
X14732000Y36830000D02*
X12678000Y36830000D01*
D21*
X39878000Y41402000D02*
X39497000Y41021000D01*
X39497000Y41021000D02*
X39497000Y37973000D01*
D22*
X13462000Y34290000D02*
X12678000Y34290000D01*
D21*
X71755000Y31623000D02*
X67056000Y36322000D01*
%TO.N,Net-(C12-Pad1)*%
X67564000Y33528000D02*
X64389000Y33528000D01*
X79629000Y21463000D02*
X67564000Y33528000D01*
%TO.N,/fuel_gauge/CHARGE_CTRL*%
X32258000Y47498000D02*
X32258000Y51054000D01*
X64262000Y18542000D02*
X55626000Y27178000D01*
X32512000Y47244000D02*
X32258000Y47498000D01*
X32258000Y51054000D02*
X30988000Y52324000D01*
X45720000Y47244000D02*
X32512000Y47244000D01*
X68326000Y18542000D02*
X64262000Y18542000D01*
%TO.N,/battery_pack/NTC2*%
X43434000Y35560000D02*
X42418000Y34544000D01*
X44212000Y35560000D02*
X43434000Y35560000D01*
D20*
%TO.N,Net-(R5-Pad1)*%
X28956000Y58166000D02*
X34290000Y58166000D01*
X34290000Y58166000D02*
X42164000Y50292000D01*
D21*
%TO.N,/fuel_gauge/A*%
X9652000Y53086000D02*
X24638000Y53086000D01*
%TO.N,/fuel_gauge/B*%
X24638000Y51816000D02*
X10668000Y51816000D01*
X10668000Y51816000D02*
X10414000Y51562000D01*
%TO.N,/fuel_gauge/C*%
X11512500Y50546000D02*
X11258500Y50292000D01*
X24638000Y50546000D02*
X11512500Y50546000D01*
%TO.N,/fuel_gauge/D*%
X24638000Y49276000D02*
X12357000Y49276000D01*
X12357000Y49276000D02*
X12103000Y49022000D01*
%TO.N,/fuel_gauge/F*%
X10922000Y35306000D02*
X10922000Y40640000D01*
X12192000Y41910000D02*
X12550817Y41910000D01*
X9144000Y31242000D02*
X9144000Y33528000D01*
X14732000Y44091183D02*
X14732000Y44196000D01*
X12550817Y41910000D02*
X14732000Y44091183D01*
X9144000Y33528000D02*
X10922000Y35306000D01*
X10922000Y40640000D02*
X12192000Y41910000D01*
%TO.N,/fuel_gauge/G*%
X10322480Y40888330D02*
X12106150Y42672000D01*
X8128000Y33528000D02*
X10322480Y35722480D01*
X12106150Y42672000D02*
X12118497Y42672000D01*
X8128000Y28194000D02*
X8128000Y33528000D01*
X10322480Y35722480D02*
X10322480Y40888330D01*
X9144000Y27178000D02*
X8128000Y28194000D01*
X12118497Y42672000D02*
X13642497Y44196000D01*
%TO.N,/fuel_gauge/H*%
X11344150Y42757850D02*
X12446000Y43859700D01*
X9144000Y23368000D02*
X7528480Y24983520D01*
X9652000Y40894000D02*
X9652000Y41065700D01*
X7528480Y33528000D02*
X7528480Y33776330D01*
X9609075Y35856925D02*
X9652000Y35899850D01*
X7528480Y33776330D02*
X9609075Y35856925D01*
X9652000Y41065700D02*
X11344150Y42757850D01*
X9652000Y35899850D02*
X9652000Y40894000D01*
X7528480Y24983520D02*
X7528480Y33528000D01*
X12446000Y43859700D02*
X12446000Y44196000D01*
D20*
%TO.N,Net-(SW1-Pad2)*%
X26416000Y59182000D02*
X26532000Y59182000D01*
X35052000Y50662000D02*
X35052000Y50546000D01*
X26532000Y59182000D02*
X35052000Y50662000D01*
D21*
%TO.N,/fuel_gauge/P2*%
X35560000Y43434000D02*
X20574000Y43434000D01*
X20574000Y43434000D02*
X17526000Y46482000D01*
%TO.N,/fuel_gauge/P1*%
X28956000Y49605680D02*
X28956000Y50038000D01*
X37084000Y44450000D02*
X34111680Y44450000D01*
X38354000Y43180000D02*
X37084000Y44450000D01*
X34111680Y44450000D02*
X28956000Y49605680D01*
X38354000Y41402000D02*
X38354000Y43180000D01*
%TD*%
%TA.AperFunction,Conductor*%
%TO.N,GND*%
G36*
X80668121Y70545998D02*
G01*
X80714614Y70492342D01*
X80726000Y70440000D01*
X80726000Y680000D01*
X80705998Y611879D01*
X80652342Y565386D01*
X80600000Y554000D01*
X680000Y554000D01*
X611879Y574002D01*
X565386Y627658D01*
X554000Y680000D01*
X554000Y5135923D01*
X1075065Y5135923D01*
X1088722Y4744843D01*
X1089129Y4741794D01*
X1089129Y4741792D01*
X1105827Y4616646D01*
X1140477Y4356962D01*
X1229834Y3975983D01*
X1230823Y3973077D01*
X1230825Y3973071D01*
X1354950Y3608457D01*
X1354955Y3608445D01*
X1355943Y3605542D01*
X1517598Y3249174D01*
X1713258Y2910283D01*
X1715047Y2907784D01*
X1715049Y2907781D01*
X1829799Y2747500D01*
X1941053Y2592101D01*
X2198810Y2297667D01*
X2484069Y2029792D01*
X2794107Y1791031D01*
X2796710Y1789404D01*
X2796715Y1789401D01*
X2915687Y1715059D01*
X3125964Y1583663D01*
X3476472Y1409669D01*
X3842287Y1270710D01*
X4219915Y1168110D01*
X4222958Y1167595D01*
X4222964Y1167594D01*
X4602713Y1103364D01*
X4602720Y1103363D01*
X4605754Y1102850D01*
X4608825Y1102635D01*
X4608827Y1102635D01*
X4993053Y1075767D01*
X4993061Y1075767D01*
X4996119Y1075553D01*
X5249704Y1082637D01*
X5384211Y1086394D01*
X5384214Y1086394D01*
X5387285Y1086480D01*
X5390338Y1086866D01*
X5390342Y1086866D01*
X5576145Y1110338D01*
X5775517Y1135525D01*
X5778521Y1136207D01*
X5778524Y1136208D01*
X6154115Y1221540D01*
X6154121Y1221542D01*
X6157111Y1222221D01*
X6302875Y1270710D01*
X6525500Y1344767D01*
X6525506Y1344769D01*
X6528424Y1345740D01*
X6669551Y1408574D01*
X6883111Y1503657D01*
X6883117Y1503660D01*
X6885911Y1504904D01*
X6888580Y1506420D01*
X7223492Y1696676D01*
X7223498Y1696680D01*
X7226160Y1698192D01*
X7545924Y1923761D01*
X7842150Y2179456D01*
X7844271Y2181683D01*
X7844277Y2181689D01*
X8109894Y2460615D01*
X8112011Y2462838D01*
X8211192Y2589783D01*
X8351021Y2768756D01*
X8351023Y2768759D01*
X8352931Y2771201D01*
X8354587Y2773811D01*
X8354593Y2773819D01*
X8500260Y3003354D01*
X22813500Y3003354D01*
X22816618Y2977154D01*
X22862061Y2874847D01*
X22941287Y2795759D01*
X22951924Y2791056D01*
X22951926Y2791055D01*
X22996835Y2771201D01*
X23043673Y2750494D01*
X23069354Y2747500D01*
X24682646Y2747500D01*
X24686350Y2747941D01*
X24686353Y2747941D01*
X24693746Y2748821D01*
X24708846Y2750618D01*
X24811153Y2796061D01*
X24890241Y2875287D01*
X24906892Y2912949D01*
X24931675Y2969008D01*
X24935506Y2977673D01*
X24938500Y3003354D01*
X24938500Y4616646D01*
X24935382Y4642846D01*
X24889939Y4745153D01*
X24810713Y4824241D01*
X24800076Y4828944D01*
X24800074Y4828945D01*
X24740538Y4855265D01*
X24708327Y4869506D01*
X24682646Y4872500D01*
X23069354Y4872500D01*
X23065650Y4872059D01*
X23065647Y4872059D01*
X23058254Y4871179D01*
X23043154Y4869382D01*
X22940847Y4823939D01*
X22861759Y4744713D01*
X22816494Y4642327D01*
X22813500Y4616646D01*
X22813500Y3003354D01*
X8500260Y3003354D01*
X8560957Y3098997D01*
X8560959Y3099000D01*
X8562610Y3101602D01*
X8739046Y3450888D01*
X8880557Y3815723D01*
X8985790Y4192626D01*
X9053742Y4578000D01*
X9066580Y4744843D01*
X9083613Y4966211D01*
X9083613Y4966222D01*
X9083763Y4968165D01*
X9085325Y5080000D01*
X9082590Y5135923D01*
X72195065Y5135923D01*
X72208722Y4744843D01*
X72209129Y4741794D01*
X72209129Y4741792D01*
X72225827Y4616646D01*
X72260477Y4356962D01*
X72349834Y3975983D01*
X72350823Y3973077D01*
X72350825Y3973071D01*
X72474950Y3608457D01*
X72474955Y3608445D01*
X72475943Y3605542D01*
X72637598Y3249174D01*
X72833258Y2910283D01*
X72835047Y2907784D01*
X72835049Y2907781D01*
X72949799Y2747500D01*
X73061053Y2592101D01*
X73318810Y2297667D01*
X73604069Y2029792D01*
X73914107Y1791031D01*
X73916710Y1789404D01*
X73916715Y1789401D01*
X74035687Y1715059D01*
X74245964Y1583663D01*
X74596472Y1409669D01*
X74962287Y1270710D01*
X75339915Y1168110D01*
X75342958Y1167595D01*
X75342964Y1167594D01*
X75722713Y1103364D01*
X75722720Y1103363D01*
X75725754Y1102850D01*
X75728825Y1102635D01*
X75728827Y1102635D01*
X76113053Y1075767D01*
X76113061Y1075767D01*
X76116119Y1075553D01*
X76369704Y1082637D01*
X76504211Y1086394D01*
X76504214Y1086394D01*
X76507285Y1086480D01*
X76510338Y1086866D01*
X76510342Y1086866D01*
X76696145Y1110338D01*
X76895517Y1135525D01*
X76898521Y1136207D01*
X76898524Y1136208D01*
X77274115Y1221540D01*
X77274121Y1221542D01*
X77277111Y1222221D01*
X77422875Y1270710D01*
X77645500Y1344767D01*
X77645506Y1344769D01*
X77648424Y1345740D01*
X77789551Y1408574D01*
X78003111Y1503657D01*
X78003117Y1503660D01*
X78005911Y1504904D01*
X78008580Y1506420D01*
X78343492Y1696676D01*
X78343498Y1696680D01*
X78346160Y1698192D01*
X78665924Y1923761D01*
X78962150Y2179456D01*
X78964271Y2181683D01*
X78964277Y2181689D01*
X79229894Y2460615D01*
X79232011Y2462838D01*
X79331192Y2589783D01*
X79471021Y2768756D01*
X79471023Y2768759D01*
X79472931Y2771201D01*
X79474587Y2773811D01*
X79474593Y2773819D01*
X79680957Y3098997D01*
X79680959Y3099000D01*
X79682610Y3101602D01*
X79859046Y3450888D01*
X80000557Y3815723D01*
X80105790Y4192626D01*
X80173742Y4578000D01*
X80186580Y4744843D01*
X80203613Y4966211D01*
X80203613Y4966222D01*
X80203763Y4968165D01*
X80205325Y5080000D01*
X80186209Y5470851D01*
X80129044Y5857972D01*
X80034376Y6237666D01*
X79903107Y6606311D01*
X79736492Y6960386D01*
X79707167Y7009580D01*
X79621681Y7152983D01*
X79536120Y7296513D01*
X79333373Y7571513D01*
X79305727Y7609012D01*
X79305725Y7609015D01*
X79303905Y7611483D01*
X79042061Y7902289D01*
X78753090Y8166156D01*
X78439749Y8400565D01*
X78386075Y8433071D01*
X78107658Y8601687D01*
X78107649Y8601692D01*
X78105030Y8603278D01*
X77803130Y8747925D01*
X77754898Y8771034D01*
X77754896Y8771035D01*
X77752126Y8772362D01*
X77749237Y8773414D01*
X77749231Y8773416D01*
X77387306Y8905145D01*
X77387303Y8905146D01*
X77384407Y8906200D01*
X77071499Y8986541D01*
X77008366Y9002751D01*
X77008363Y9002752D01*
X77005382Y9003517D01*
X76618670Y9063383D01*
X76615613Y9063554D01*
X76615612Y9063554D01*
X76585120Y9065259D01*
X76227962Y9085227D01*
X76224883Y9085098D01*
X76224880Y9085098D01*
X75968770Y9074364D01*
X75836987Y9068841D01*
X75833943Y9068413D01*
X75833941Y9068413D01*
X75799368Y9063554D01*
X75449477Y9014380D01*
X75069131Y8922364D01*
X74699579Y8793673D01*
X74693913Y8791055D01*
X74347146Y8630826D01*
X74347136Y8630821D01*
X74344349Y8629533D01*
X74235829Y8565865D01*
X74009486Y8433071D01*
X74009481Y8433068D01*
X74006831Y8431513D01*
X73966433Y8402162D01*
X73692730Y8203306D01*
X73692721Y8203299D01*
X73690248Y8201502D01*
X73687958Y8199469D01*
X73687952Y8199464D01*
X73399924Y7943740D01*
X73397621Y7941695D01*
X73131743Y7654573D01*
X73129888Y7652129D01*
X72901262Y7350925D01*
X72895152Y7342876D01*
X72690107Y7009580D01*
X72518564Y6657865D01*
X72382162Y6291090D01*
X72282201Y5912754D01*
X72273328Y5857972D01*
X72222372Y5543354D01*
X72219637Y5526469D01*
X72219443Y5523389D01*
X72219443Y5523387D01*
X72204629Y5287925D01*
X72195065Y5135923D01*
X9082590Y5135923D01*
X9066209Y5470851D01*
X9055503Y5543354D01*
X22813500Y5543354D01*
X22816618Y5517154D01*
X22862061Y5414847D01*
X22941287Y5335759D01*
X22951924Y5331056D01*
X22951926Y5331055D01*
X23011462Y5304735D01*
X23043673Y5290494D01*
X23069354Y5287500D01*
X24682646Y5287500D01*
X24686350Y5287941D01*
X24686353Y5287941D01*
X24693746Y5288821D01*
X24708846Y5290618D01*
X24811153Y5336061D01*
X24890241Y5415287D01*
X24935506Y5517673D01*
X24938500Y5543354D01*
X24938500Y7156646D01*
X24935382Y7182846D01*
X24889939Y7285153D01*
X24810713Y7364241D01*
X24800076Y7368944D01*
X24800074Y7368945D01*
X24731953Y7399061D01*
X24708327Y7409506D01*
X24682646Y7412500D01*
X23069354Y7412500D01*
X23065650Y7412059D01*
X23065647Y7412059D01*
X23058254Y7411179D01*
X23043154Y7409382D01*
X23034514Y7405544D01*
X23034513Y7405544D01*
X23008648Y7394055D01*
X22940847Y7363939D01*
X22932628Y7355706D01*
X22932627Y7355705D01*
X22917201Y7340252D01*
X22861759Y7284713D01*
X22816494Y7182327D01*
X22813500Y7156646D01*
X22813500Y5543354D01*
X9055503Y5543354D01*
X9009044Y5857972D01*
X8914376Y6237666D01*
X8783107Y6606311D01*
X8616492Y6960386D01*
X8587167Y7009580D01*
X8501681Y7152983D01*
X8416120Y7296513D01*
X8213373Y7571513D01*
X8187687Y7606354D01*
X41990500Y7606354D01*
X41993618Y7580154D01*
X42039061Y7477847D01*
X42118287Y7398759D01*
X42128924Y7394056D01*
X42128926Y7394055D01*
X42185724Y7368945D01*
X42220673Y7353494D01*
X42246354Y7350500D01*
X46145646Y7350500D01*
X46149350Y7350941D01*
X46149353Y7350941D01*
X46156746Y7351821D01*
X46171846Y7353618D01*
X46205718Y7368663D01*
X46263518Y7394337D01*
X46274153Y7399061D01*
X46287129Y7412059D01*
X46345023Y7470055D01*
X46353241Y7478287D01*
X46398506Y7580673D01*
X46401500Y7606354D01*
X46990500Y7606354D01*
X46993618Y7580154D01*
X47039061Y7477847D01*
X47118287Y7398759D01*
X47128924Y7394056D01*
X47128926Y7394055D01*
X47185724Y7368945D01*
X47220673Y7353494D01*
X47246354Y7350500D01*
X51145646Y7350500D01*
X51149350Y7350941D01*
X51149353Y7350941D01*
X51156746Y7351821D01*
X51171846Y7353618D01*
X51205718Y7368663D01*
X51263518Y7394337D01*
X51274153Y7399061D01*
X51287129Y7412059D01*
X51345023Y7470055D01*
X51353241Y7478287D01*
X51398506Y7580673D01*
X51401500Y7606354D01*
X51401500Y11505646D01*
X51398382Y11531846D01*
X51393271Y11543354D01*
X51357663Y11623518D01*
X51352939Y11634153D01*
X51273713Y11713241D01*
X51263076Y11717944D01*
X51263074Y11717945D01*
X51203538Y11744265D01*
X51171327Y11758506D01*
X51145646Y11761500D01*
X47246354Y11761500D01*
X47242650Y11761059D01*
X47242647Y11761059D01*
X47235254Y11760179D01*
X47220154Y11758382D01*
X47117847Y11712939D01*
X47038759Y11633713D01*
X46993494Y11531327D01*
X46990500Y11505646D01*
X46990500Y7606354D01*
X46401500Y7606354D01*
X46401500Y11505646D01*
X46398382Y11531846D01*
X46393271Y11543354D01*
X46357663Y11623518D01*
X46352939Y11634153D01*
X46273713Y11713241D01*
X46263076Y11717944D01*
X46263074Y11717945D01*
X46203538Y11744265D01*
X46171327Y11758506D01*
X46145646Y11761500D01*
X42246354Y11761500D01*
X42242650Y11761059D01*
X42242647Y11761059D01*
X42235254Y11760179D01*
X42220154Y11758382D01*
X42117847Y11712939D01*
X42038759Y11633713D01*
X41993494Y11531327D01*
X41990500Y11505646D01*
X41990500Y7606354D01*
X8187687Y7606354D01*
X8185727Y7609012D01*
X8185725Y7609015D01*
X8183905Y7611483D01*
X7922061Y7902289D01*
X7633090Y8166156D01*
X7319749Y8400565D01*
X7266075Y8433071D01*
X6987658Y8601687D01*
X6987649Y8601692D01*
X6985030Y8603278D01*
X6683130Y8747925D01*
X6634898Y8771034D01*
X6634896Y8771035D01*
X6632126Y8772362D01*
X6629237Y8773414D01*
X6629231Y8773416D01*
X6267306Y8905145D01*
X6267303Y8905146D01*
X6264407Y8906200D01*
X5951499Y8986541D01*
X5888366Y9002751D01*
X5888363Y9002752D01*
X5886017Y9003354D01*
X11615500Y9003354D01*
X11618618Y8977154D01*
X11622456Y8968514D01*
X11622456Y8968513D01*
X11650603Y8905145D01*
X11664061Y8874847D01*
X11743287Y8795759D01*
X11753924Y8791056D01*
X11753926Y8791055D01*
X11793825Y8773416D01*
X11845673Y8750494D01*
X11871354Y8747500D01*
X13484646Y8747500D01*
X13488350Y8747941D01*
X13488353Y8747941D01*
X13495746Y8748821D01*
X13510846Y8750618D01*
X13613153Y8796061D01*
X13692241Y8875287D01*
X13705442Y8905145D01*
X13733675Y8969008D01*
X13737506Y8977673D01*
X13740500Y9003354D01*
X13740500Y10616646D01*
X13737382Y10642846D01*
X13691939Y10745153D01*
X13612713Y10824241D01*
X13602076Y10828944D01*
X13602074Y10828945D01*
X13542538Y10855265D01*
X13510327Y10869506D01*
X13484646Y10872500D01*
X11871354Y10872500D01*
X11867650Y10872059D01*
X11867647Y10872059D01*
X11860254Y10871179D01*
X11845154Y10869382D01*
X11742847Y10823939D01*
X11663759Y10744713D01*
X11618494Y10642327D01*
X11615500Y10616646D01*
X11615500Y9003354D01*
X5886017Y9003354D01*
X5885382Y9003517D01*
X5498670Y9063383D01*
X5495613Y9063554D01*
X5495612Y9063554D01*
X5465120Y9065259D01*
X5107962Y9085227D01*
X5104883Y9085098D01*
X5104880Y9085098D01*
X4848770Y9074364D01*
X4716987Y9068841D01*
X4713943Y9068413D01*
X4713941Y9068413D01*
X4679368Y9063554D01*
X4329477Y9014380D01*
X3949131Y8922364D01*
X3579579Y8793673D01*
X3573913Y8791055D01*
X3227146Y8630826D01*
X3227136Y8630821D01*
X3224349Y8629533D01*
X3115829Y8565865D01*
X2889486Y8433071D01*
X2889481Y8433068D01*
X2886831Y8431513D01*
X2846433Y8402162D01*
X2572730Y8203306D01*
X2572721Y8203299D01*
X2570248Y8201502D01*
X2567958Y8199469D01*
X2567952Y8199464D01*
X2279924Y7943740D01*
X2277621Y7941695D01*
X2011743Y7654573D01*
X2009888Y7652129D01*
X1781262Y7350925D01*
X1775152Y7342876D01*
X1570107Y7009580D01*
X1398564Y6657865D01*
X1262162Y6291090D01*
X1162201Y5912754D01*
X1153328Y5857972D01*
X1102372Y5543354D01*
X1099637Y5526469D01*
X1099443Y5523389D01*
X1099443Y5523387D01*
X1084629Y5287925D01*
X1075065Y5135923D01*
X554000Y5135923D01*
X554000Y11543354D01*
X11615500Y11543354D01*
X11618618Y11517154D01*
X11622456Y11508514D01*
X11622456Y11508513D01*
X11625357Y11501983D01*
X11664061Y11414847D01*
X11743287Y11335759D01*
X11753924Y11331056D01*
X11753926Y11331055D01*
X11813462Y11304735D01*
X11845673Y11290494D01*
X11871354Y11287500D01*
X13484646Y11287500D01*
X13488350Y11287941D01*
X13488353Y11287941D01*
X13495746Y11288821D01*
X13510846Y11290618D01*
X13613153Y11336061D01*
X13692241Y11415287D01*
X13737506Y11517673D01*
X13740500Y11543354D01*
X13740500Y13156646D01*
X13737382Y13182846D01*
X13691939Y13285153D01*
X13612713Y13364241D01*
X13602076Y13368944D01*
X13602074Y13368945D01*
X13542538Y13395265D01*
X13510327Y13409506D01*
X13484646Y13412500D01*
X11871354Y13412500D01*
X11867650Y13412059D01*
X11867647Y13412059D01*
X11860254Y13411179D01*
X11845154Y13409382D01*
X11742847Y13363939D01*
X11663759Y13284713D01*
X11618494Y13182327D01*
X11615500Y13156646D01*
X11615500Y11543354D01*
X554000Y11543354D01*
X554000Y21560000D01*
X2154396Y21560000D01*
X2174779Y21301006D01*
X2175933Y21296199D01*
X2175934Y21296193D01*
X2209831Y21155006D01*
X2235427Y21048390D01*
X2237320Y21043819D01*
X2237321Y21043817D01*
X2311212Y20865430D01*
X2334846Y20808372D01*
X2470588Y20586860D01*
X2639311Y20389311D01*
X2836860Y20220588D01*
X3058372Y20084846D01*
X3062942Y20082953D01*
X3062946Y20082951D01*
X3293817Y19987321D01*
X3298390Y19985427D01*
X3386724Y19964220D01*
X3546193Y19925934D01*
X3546199Y19925933D01*
X3551006Y19924779D01*
X3641191Y19917681D01*
X3742690Y19909693D01*
X3742699Y19909693D01*
X3745147Y19909500D01*
X3874853Y19909500D01*
X3877301Y19909693D01*
X3877310Y19909693D01*
X3978809Y19917681D01*
X4068994Y19924779D01*
X4073801Y19925933D01*
X4073807Y19925934D01*
X4233276Y19964220D01*
X4321610Y19985427D01*
X4326183Y19987321D01*
X4557054Y20082951D01*
X4557058Y20082953D01*
X4561628Y20084846D01*
X4783140Y20220588D01*
X4980689Y20389311D01*
X5149412Y20586860D01*
X5285154Y20808372D01*
X5308789Y20865430D01*
X5382679Y21043817D01*
X5382680Y21043819D01*
X5384573Y21048390D01*
X5410169Y21155006D01*
X5444066Y21296193D01*
X5444067Y21296199D01*
X5445221Y21301006D01*
X5465604Y21560000D01*
X5445221Y21818994D01*
X5444067Y21823801D01*
X5444066Y21823807D01*
X5385728Y22066798D01*
X5384573Y22071610D01*
X5382679Y22076183D01*
X5287049Y22307054D01*
X5287047Y22307058D01*
X5285154Y22311628D01*
X5149412Y22533140D01*
X4980689Y22730689D01*
X4783140Y22899412D01*
X4561628Y23035154D01*
X4557058Y23037047D01*
X4557054Y23037049D01*
X4326183Y23132679D01*
X4326181Y23132680D01*
X4321610Y23134573D01*
X4186172Y23167089D01*
X4073807Y23194066D01*
X4073801Y23194067D01*
X4068994Y23195221D01*
X3978809Y23202319D01*
X3877310Y23210307D01*
X3877301Y23210307D01*
X3874853Y23210500D01*
X3745147Y23210500D01*
X3742699Y23210307D01*
X3742690Y23210307D01*
X3641191Y23202319D01*
X3551006Y23195221D01*
X3546199Y23194067D01*
X3546193Y23194066D01*
X3433828Y23167089D01*
X3298390Y23134573D01*
X3293819Y23132680D01*
X3293817Y23132679D01*
X3062946Y23037049D01*
X3062942Y23037047D01*
X3058372Y23035154D01*
X2836860Y22899412D01*
X2639311Y22730689D01*
X2470588Y22533140D01*
X2334846Y22311628D01*
X2332953Y22307058D01*
X2332951Y22307054D01*
X2237321Y22076183D01*
X2235427Y22071610D01*
X2234272Y22066798D01*
X2175934Y21823807D01*
X2175933Y21823801D01*
X2174779Y21818994D01*
X2154396Y21560000D01*
X554000Y21560000D01*
X554000Y25560000D01*
X2154396Y25560000D01*
X2174779Y25301006D01*
X2175933Y25296199D01*
X2175934Y25296193D01*
X2188699Y25243024D01*
X2235427Y25048390D01*
X2237320Y25043819D01*
X2237321Y25043817D01*
X2324466Y24833432D01*
X2334846Y24808372D01*
X2470588Y24586860D01*
X2639311Y24389311D01*
X2836860Y24220588D01*
X3058372Y24084846D01*
X3062942Y24082953D01*
X3062946Y24082951D01*
X3293817Y23987321D01*
X3298390Y23985427D01*
X3386724Y23964220D01*
X3546193Y23925934D01*
X3546199Y23925933D01*
X3551006Y23924779D01*
X3641191Y23917681D01*
X3742690Y23909693D01*
X3742699Y23909693D01*
X3745147Y23909500D01*
X3874853Y23909500D01*
X3877301Y23909693D01*
X3877310Y23909693D01*
X3978809Y23917681D01*
X4068994Y23924779D01*
X4073801Y23925933D01*
X4073807Y23925934D01*
X4233276Y23964220D01*
X4321610Y23985427D01*
X4326183Y23987321D01*
X4557054Y24082951D01*
X4557058Y24082953D01*
X4561628Y24084846D01*
X4783140Y24220588D01*
X4980689Y24389311D01*
X5149412Y24586860D01*
X5285154Y24808372D01*
X5295535Y24833432D01*
X5382679Y25043817D01*
X5382680Y25043819D01*
X5384573Y25048390D01*
X5431301Y25243024D01*
X5444066Y25296193D01*
X5444067Y25296199D01*
X5445221Y25301006D01*
X5465604Y25560000D01*
X5445221Y25818994D01*
X5444067Y25823801D01*
X5444066Y25823807D01*
X5385728Y26066798D01*
X5384573Y26071610D01*
X5285154Y26311628D01*
X5149412Y26533140D01*
X4980689Y26730689D01*
X4783140Y26899412D01*
X4561628Y27035154D01*
X4557058Y27037047D01*
X4557054Y27037049D01*
X4326183Y27132679D01*
X4326181Y27132680D01*
X4321610Y27134573D01*
X4233276Y27155780D01*
X4073807Y27194066D01*
X4073801Y27194067D01*
X4068994Y27195221D01*
X3978809Y27202319D01*
X3877310Y27210307D01*
X3877301Y27210307D01*
X3874853Y27210500D01*
X3745147Y27210500D01*
X3742699Y27210307D01*
X3742690Y27210307D01*
X3641191Y27202319D01*
X3551006Y27195221D01*
X3546199Y27194067D01*
X3546193Y27194066D01*
X3386724Y27155780D01*
X3298390Y27134573D01*
X3293819Y27132680D01*
X3293817Y27132679D01*
X3062946Y27037049D01*
X3062942Y27037047D01*
X3058372Y27035154D01*
X2836860Y26899412D01*
X2639311Y26730689D01*
X2470588Y26533140D01*
X2334846Y26311628D01*
X2235427Y26071610D01*
X2234272Y26066798D01*
X2175934Y25823807D01*
X2175933Y25823801D01*
X2174779Y25818994D01*
X2154396Y25560000D01*
X554000Y25560000D01*
X554000Y29560000D01*
X2154396Y29560000D01*
X2174779Y29301006D01*
X2175933Y29296199D01*
X2175934Y29296193D01*
X2214220Y29136724D01*
X2235427Y29048390D01*
X2334846Y28808372D01*
X2470588Y28586860D01*
X2639311Y28389311D01*
X2836860Y28220588D01*
X3058372Y28084846D01*
X3062942Y28082953D01*
X3062946Y28082951D01*
X3293817Y27987321D01*
X3298390Y27985427D01*
X3386452Y27964285D01*
X3546193Y27925934D01*
X3546199Y27925933D01*
X3551006Y27924779D01*
X3641191Y27917681D01*
X3742690Y27909693D01*
X3742699Y27909693D01*
X3745147Y27909500D01*
X3874853Y27909500D01*
X3877301Y27909693D01*
X3877310Y27909693D01*
X3978809Y27917681D01*
X4068994Y27924779D01*
X4073801Y27925933D01*
X4073807Y27925934D01*
X4233548Y27964285D01*
X4321610Y27985427D01*
X4326183Y27987321D01*
X4557054Y28082951D01*
X4557058Y28082953D01*
X4561628Y28084846D01*
X4783140Y28220588D01*
X4980689Y28389311D01*
X5149412Y28586860D01*
X5285154Y28808372D01*
X5384573Y29048390D01*
X5405780Y29136724D01*
X5444066Y29296193D01*
X5444067Y29296199D01*
X5445221Y29301006D01*
X5465604Y29560000D01*
X5445221Y29818994D01*
X5444067Y29823801D01*
X5444066Y29823807D01*
X5385728Y30066798D01*
X5384573Y30071610D01*
X5285154Y30311628D01*
X5149412Y30533140D01*
X4980689Y30730689D01*
X4783140Y30899412D01*
X4561628Y31035154D01*
X4557058Y31037047D01*
X4557054Y31037049D01*
X4326183Y31132679D01*
X4326181Y31132680D01*
X4321610Y31134573D01*
X4217095Y31159665D01*
X4073807Y31194066D01*
X4073801Y31194067D01*
X4068994Y31195221D01*
X3978809Y31202319D01*
X3877310Y31210307D01*
X3877301Y31210307D01*
X3874853Y31210500D01*
X3745147Y31210500D01*
X3742699Y31210307D01*
X3742690Y31210307D01*
X3641191Y31202319D01*
X3551006Y31195221D01*
X3546199Y31194067D01*
X3546193Y31194066D01*
X3402905Y31159665D01*
X3298390Y31134573D01*
X3293819Y31132680D01*
X3293817Y31132679D01*
X3062946Y31037049D01*
X3062942Y31037047D01*
X3058372Y31035154D01*
X2836860Y30899412D01*
X2639311Y30730689D01*
X2470588Y30533140D01*
X2334846Y30311628D01*
X2235427Y30071610D01*
X2234272Y30066798D01*
X2175934Y29823807D01*
X2175933Y29823801D01*
X2174779Y29818994D01*
X2154396Y29560000D01*
X554000Y29560000D01*
X554000Y33560000D01*
X2154396Y33560000D01*
X2174779Y33301006D01*
X2175933Y33296199D01*
X2175934Y33296193D01*
X2197228Y33207498D01*
X2235427Y33048390D01*
X2237320Y33043819D01*
X2237321Y33043817D01*
X2315155Y32855911D01*
X2334846Y32808372D01*
X2470588Y32586860D01*
X2639311Y32389311D01*
X2836860Y32220588D01*
X3058372Y32084846D01*
X3062942Y32082953D01*
X3062946Y32082951D01*
X3293817Y31987321D01*
X3298390Y31985427D01*
X3331117Y31977570D01*
X3546193Y31925934D01*
X3546199Y31925933D01*
X3551006Y31924779D01*
X3641191Y31917681D01*
X3742690Y31909693D01*
X3742699Y31909693D01*
X3745147Y31909500D01*
X3874853Y31909500D01*
X3877301Y31909693D01*
X3877310Y31909693D01*
X3978809Y31917681D01*
X4068994Y31924779D01*
X4073801Y31925933D01*
X4073807Y31925934D01*
X4288883Y31977570D01*
X4321610Y31985427D01*
X4326183Y31987321D01*
X4557054Y32082951D01*
X4557058Y32082953D01*
X4561628Y32084846D01*
X4783140Y32220588D01*
X4980689Y32389311D01*
X5149412Y32586860D01*
X5285154Y32808372D01*
X5304846Y32855911D01*
X5382679Y33043817D01*
X5382680Y33043819D01*
X5384573Y33048390D01*
X5422772Y33207498D01*
X5444066Y33296193D01*
X5444067Y33296199D01*
X5445221Y33301006D01*
X5465604Y33560000D01*
X5451285Y33741938D01*
X7024004Y33741938D01*
X7025877Y33733162D01*
X7026488Y33724205D01*
X7026482Y33724205D01*
X7027980Y33710012D01*
X7027980Y25053701D01*
X7026652Y25041816D01*
X7027162Y25041775D01*
X7026442Y25032829D01*
X7024461Y25024073D01*
X7025017Y25015113D01*
X7027738Y24971256D01*
X7027980Y24963453D01*
X7027980Y24947580D01*
X7028615Y24943146D01*
X7029428Y24937470D01*
X7030458Y24927414D01*
X7033339Y24880982D01*
X7036387Y24872538D01*
X7037156Y24868826D01*
X7040823Y24854121D01*
X7041884Y24850493D01*
X7043157Y24841602D01*
X7062419Y24799238D01*
X7066226Y24789883D01*
X7078971Y24754577D01*
X7078973Y24754573D01*
X7082020Y24746133D01*
X7087315Y24738885D01*
X7089091Y24735545D01*
X7096754Y24722431D01*
X7098783Y24719259D01*
X7102496Y24711092D01*
X7108351Y24704297D01*
X7108353Y24704294D01*
X7132867Y24675845D01*
X7139155Y24667925D01*
X7147002Y24657184D01*
X7157745Y24646441D01*
X7164103Y24639595D01*
X7196080Y24602483D01*
X7203614Y24597600D01*
X7210376Y24591701D01*
X7210372Y24591696D01*
X7221466Y24582720D01*
X8358491Y23445695D01*
X8392517Y23383383D01*
X8394795Y23368896D01*
X8401817Y23297282D01*
X8410177Y23212021D01*
X8462970Y23053320D01*
X8466619Y23047295D01*
X8495513Y22999586D01*
X8549611Y22910259D01*
X8554502Y22905194D01*
X8554503Y22905193D01*
X8567590Y22891641D01*
X8665794Y22789948D01*
X8671686Y22786093D01*
X8671690Y22786089D01*
X8751449Y22733897D01*
X8805744Y22698367D01*
X8962506Y22640068D01*
X8969487Y22639137D01*
X8969489Y22639136D01*
X9121308Y22618879D01*
X9121312Y22618879D01*
X9128289Y22617948D01*
X9135300Y22618586D01*
X9135304Y22618586D01*
X9287831Y22632467D01*
X9294852Y22633106D01*
X9323834Y22642523D01*
X9447219Y22682613D01*
X9447222Y22682614D01*
X9453918Y22684790D01*
X9536296Y22733897D01*
X9591529Y22766822D01*
X9591531Y22766823D01*
X9597581Y22770430D01*
X9718700Y22885770D01*
X9811255Y23025077D01*
X9849872Y23126735D01*
X9868148Y23174847D01*
X9868149Y23174849D01*
X9870648Y23181429D01*
X9874734Y23210500D01*
X9893374Y23343131D01*
X9893374Y23343134D01*
X9893925Y23347053D01*
X9894217Y23368000D01*
X9875574Y23534209D01*
X9820570Y23692158D01*
X9731940Y23833996D01*
X9614089Y23952673D01*
X9472873Y24042291D01*
X9404883Y24066501D01*
X9321948Y24096033D01*
X9321943Y24096034D01*
X9315313Y24098395D01*
X9308325Y24099228D01*
X9308322Y24099229D01*
X9156227Y24117366D01*
X9156222Y24117366D01*
X9149237Y24118199D01*
X9149299Y24118720D01*
X9085760Y24137863D01*
X9065529Y24154285D01*
X8065885Y25153929D01*
X8031859Y25216241D01*
X8028980Y25243024D01*
X8028980Y27281016D01*
X8048982Y27349137D01*
X8102638Y27395630D01*
X8172912Y27405734D01*
X8237492Y27376240D01*
X8244075Y27370111D01*
X8358491Y27255695D01*
X8392517Y27193383D01*
X8394795Y27178896D01*
X8398756Y27138497D01*
X8410177Y27022021D01*
X8462970Y26863320D01*
X8466619Y26857295D01*
X8541352Y26733897D01*
X8549611Y26720259D01*
X8554502Y26715194D01*
X8554503Y26715193D01*
X8601953Y26666057D01*
X8665794Y26599948D01*
X8671686Y26596093D01*
X8671690Y26596089D01*
X8752276Y26543356D01*
X8805744Y26508367D01*
X8962506Y26450068D01*
X8969487Y26449137D01*
X8969489Y26449136D01*
X9121308Y26428879D01*
X9121312Y26428879D01*
X9128289Y26427948D01*
X9135300Y26428586D01*
X9135304Y26428586D01*
X9287831Y26442467D01*
X9294852Y26443106D01*
X9323834Y26452523D01*
X9447219Y26492613D01*
X9447222Y26492614D01*
X9453918Y26494790D01*
X9524557Y26536899D01*
X9591529Y26576822D01*
X9591531Y26576823D01*
X9597581Y26580430D01*
X9718700Y26695770D01*
X9811255Y26835077D01*
X9870648Y26991429D01*
X9874008Y27015336D01*
X9893374Y27153131D01*
X9893374Y27153134D01*
X9893925Y27157053D01*
X9894217Y27178000D01*
X9875574Y27344209D01*
X9820570Y27502158D01*
X9731940Y27643996D01*
X9614089Y27762673D01*
X9603838Y27769179D01*
X9559129Y27797551D01*
X9472873Y27852291D01*
X9448152Y27861094D01*
X9321948Y27906033D01*
X9321943Y27906034D01*
X9315313Y27908395D01*
X9308325Y27909228D01*
X9308322Y27909229D01*
X9156227Y27927366D01*
X9156222Y27927366D01*
X9149237Y27928199D01*
X9149299Y27928720D01*
X9085760Y27947863D01*
X9065529Y27964285D01*
X8665405Y28364409D01*
X8631379Y28426721D01*
X8628500Y28453504D01*
X8628500Y30457969D01*
X8648502Y30526090D01*
X8702158Y30572583D01*
X8772432Y30582687D01*
X8805684Y30572207D01*
X8805744Y30572367D01*
X8812340Y30569914D01*
X8812342Y30569913D01*
X8848105Y30556613D01*
X8962506Y30514068D01*
X8969487Y30513137D01*
X8969489Y30513136D01*
X9121308Y30492879D01*
X9121312Y30492879D01*
X9128289Y30491948D01*
X9135300Y30492586D01*
X9135304Y30492586D01*
X9287831Y30506467D01*
X9294852Y30507106D01*
X9323834Y30516523D01*
X9447219Y30556613D01*
X9447222Y30556614D01*
X9453918Y30558790D01*
X9474723Y30571192D01*
X9591529Y30640822D01*
X9591531Y30640823D01*
X9597581Y30644430D01*
X9718700Y30759770D01*
X9811255Y30899077D01*
X9870648Y31055429D01*
X9881933Y31135728D01*
X9893374Y31217131D01*
X9893374Y31217134D01*
X9893925Y31221053D01*
X9894217Y31242000D01*
X9875574Y31408209D01*
X9820570Y31566158D01*
X9731940Y31707996D01*
X9681093Y31759199D01*
X9647287Y31821628D01*
X9644500Y31847982D01*
X9644500Y33268496D01*
X9664502Y33336617D01*
X9681405Y33357591D01*
X11226280Y34902466D01*
X11235624Y34909932D01*
X11235292Y34910322D01*
X11242128Y34916140D01*
X11249720Y34920930D01*
X11284756Y34960601D01*
X11290102Y34966288D01*
X11301321Y34977507D01*
X11304011Y34981096D01*
X11307450Y34985684D01*
X11313832Y34993523D01*
X11338684Y35021663D01*
X11338685Y35021664D01*
X11344623Y35028388D01*
X11348434Y35036506D01*
X11350506Y35039659D01*
X11358329Y35052680D01*
X11360141Y35055989D01*
X11365527Y35063176D01*
X11371518Y35079157D01*
X11414159Y35135922D01*
X11480721Y35160622D01*
X11550070Y35145415D01*
X11600188Y35095129D01*
X11615500Y35034928D01*
X11615500Y33483354D01*
X11618618Y33457154D01*
X11622456Y33448514D01*
X11622456Y33448513D01*
X11659337Y33365482D01*
X11664061Y33354847D01*
X11743287Y33275759D01*
X11753924Y33271056D01*
X11753926Y33271055D01*
X11813462Y33244735D01*
X11845673Y33230494D01*
X11871354Y33227500D01*
X13340232Y33227500D01*
X13408353Y33207498D01*
X13429327Y33190595D01*
X13593814Y33026108D01*
X13627840Y32963796D01*
X13622775Y32892981D01*
X13580228Y32836145D01*
X13513708Y32811334D01*
X13490137Y32811860D01*
X13484646Y32812500D01*
X11871354Y32812500D01*
X11867650Y32812059D01*
X11867647Y32812059D01*
X11861556Y32811334D01*
X11845154Y32809382D01*
X11836514Y32805544D01*
X11836513Y32805544D01*
X11776482Y32778879D01*
X11742847Y32763939D01*
X11663759Y32684713D01*
X11618494Y32582327D01*
X11615500Y32556646D01*
X11615500Y30943354D01*
X11618618Y30917154D01*
X11622456Y30908514D01*
X11622456Y30908513D01*
X11647493Y30852147D01*
X11664061Y30814847D01*
X11743287Y30735759D01*
X11753924Y30731056D01*
X11753926Y30731055D01*
X11813462Y30704735D01*
X11845673Y30690494D01*
X11871354Y30687500D01*
X13484646Y30687500D01*
X13488350Y30687941D01*
X13488353Y30687941D01*
X13495746Y30688821D01*
X13510846Y30690618D01*
X13613153Y30736061D01*
X13637517Y30760467D01*
X13684023Y30807055D01*
X13692241Y30815287D01*
X13697140Y30826367D01*
X13727100Y30894136D01*
X13737506Y30917673D01*
X13740500Y30943354D01*
X13740500Y32556646D01*
X13739882Y32561837D01*
X13739948Y32562225D01*
X13739838Y32564077D01*
X13740264Y32564102D01*
X13751689Y32631843D01*
X13799470Y32684354D01*
X13868056Y32702697D01*
X13935671Y32681047D01*
X13954093Y32665829D01*
X20801891Y25818031D01*
X20804634Y25815842D01*
X20804641Y25815835D01*
X20806865Y25814060D01*
X20906734Y25734336D01*
X20913077Y25731270D01*
X20913078Y25731269D01*
X20995546Y25691402D01*
X21068423Y25656172D01*
X21243411Y25615773D01*
X21250450Y25615748D01*
X21250454Y25615748D01*
X21332887Y25615461D01*
X21423001Y25615147D01*
X21429867Y25616682D01*
X21429870Y25616682D01*
X21544261Y25642252D01*
X21598267Y25654323D01*
X21760498Y25731356D01*
X21901630Y25842417D01*
X22014650Y25981985D01*
X22056384Y26066798D01*
X22090831Y26136803D01*
X22090832Y26136806D01*
X22093941Y26143124D01*
X22135561Y26317826D01*
X22137441Y26497407D01*
X22099490Y26672942D01*
X22061541Y26754324D01*
X22026568Y26829323D01*
X22026568Y26829324D01*
X22023591Y26835707D01*
X22018970Y26841665D01*
X21940331Y26943044D01*
X21937902Y26946176D01*
X21695603Y27188475D01*
X54875856Y27188475D01*
X54892177Y27022021D01*
X54944970Y26863320D01*
X54948619Y26857295D01*
X55023352Y26733897D01*
X55031611Y26720259D01*
X55036502Y26715194D01*
X55036503Y26715193D01*
X55083953Y26666057D01*
X55147794Y26599948D01*
X55153686Y26596093D01*
X55153690Y26596089D01*
X55234276Y26543356D01*
X55287744Y26508367D01*
X55444506Y26450068D01*
X55451487Y26449137D01*
X55451489Y26449136D01*
X55603308Y26428879D01*
X55603312Y26428879D01*
X55610289Y26427948D01*
X55617303Y26428586D01*
X55618035Y26428571D01*
X55685722Y26407147D01*
X55704492Y26391694D01*
X63858466Y18237720D01*
X63865932Y18228376D01*
X63866322Y18228708D01*
X63872140Y18221872D01*
X63876930Y18214280D01*
X63883658Y18208338D01*
X63883659Y18208337D01*
X63916600Y18179245D01*
X63922288Y18173898D01*
X63933506Y18162680D01*
X63937094Y18159991D01*
X63937095Y18159990D01*
X63941684Y18156550D01*
X63949523Y18150168D01*
X63984388Y18119377D01*
X63992511Y18115563D01*
X63995664Y18113492D01*
X64008676Y18105673D01*
X64011994Y18103857D01*
X64019176Y18098474D01*
X64062741Y18082142D01*
X64072050Y18078220D01*
X64114163Y18058447D01*
X64123036Y18057065D01*
X64126658Y18055958D01*
X64141328Y18052109D01*
X64145017Y18051298D01*
X64153419Y18048148D01*
X64162364Y18047483D01*
X64162374Y18047481D01*
X64199828Y18044698D01*
X64209855Y18043548D01*
X64223009Y18041500D01*
X64238203Y18041500D01*
X64247541Y18041154D01*
X64296391Y18037524D01*
X64305167Y18039397D01*
X64314124Y18040008D01*
X64314124Y18040002D01*
X64328317Y18041500D01*
X67719419Y18041500D01*
X67787540Y18021498D01*
X67810056Y18003027D01*
X67847794Y17963948D01*
X67853686Y17960093D01*
X67853690Y17960089D01*
X67934276Y17907356D01*
X67987744Y17872367D01*
X68144506Y17814068D01*
X68151487Y17813137D01*
X68151489Y17813136D01*
X68303308Y17792879D01*
X68303312Y17792879D01*
X68310289Y17791948D01*
X68317300Y17792586D01*
X68317304Y17792586D01*
X68469831Y17806467D01*
X68476852Y17807106D01*
X68505834Y17816523D01*
X68629219Y17856613D01*
X68629222Y17856614D01*
X68635918Y17858790D01*
X68665169Y17876227D01*
X68773529Y17940822D01*
X68773531Y17940823D01*
X68779581Y17944430D01*
X68900700Y18059770D01*
X68993255Y18199077D01*
X69052648Y18355429D01*
X69075925Y18521053D01*
X69076217Y18542000D01*
X69057574Y18708209D01*
X69002570Y18866158D01*
X68913940Y19007996D01*
X68796089Y19126673D01*
X68785838Y19133179D01*
X68741129Y19161551D01*
X68654873Y19216291D01*
X68630152Y19225094D01*
X68503948Y19270033D01*
X68503943Y19270034D01*
X68497313Y19272395D01*
X68490325Y19273228D01*
X68490322Y19273229D01*
X68398495Y19284179D01*
X68331237Y19292199D01*
X68324235Y19291463D01*
X68324233Y19291463D01*
X68171902Y19275452D01*
X68171900Y19275452D01*
X68164902Y19274716D01*
X68006573Y19220817D01*
X67948672Y19185196D01*
X67870127Y19136875D01*
X67870124Y19136873D01*
X67864120Y19133179D01*
X67859085Y19128248D01*
X67859082Y19128246D01*
X67808259Y19078476D01*
X67745594Y19045106D01*
X67720102Y19042500D01*
X64521504Y19042500D01*
X64453383Y19062502D01*
X64432409Y19079405D01*
X56412516Y27099298D01*
X56378490Y27161610D01*
X56376320Y27178012D01*
X56376217Y27178000D01*
X56358359Y27337210D01*
X56357574Y27344209D01*
X56302570Y27502158D01*
X56213940Y27643996D01*
X56096089Y27762673D01*
X56085838Y27769179D01*
X56041129Y27797551D01*
X55954873Y27852291D01*
X55930152Y27861094D01*
X55803948Y27906033D01*
X55803943Y27906034D01*
X55797313Y27908395D01*
X55790325Y27909228D01*
X55790322Y27909229D01*
X55698495Y27920179D01*
X55631237Y27928199D01*
X55624235Y27927463D01*
X55624233Y27927463D01*
X55471902Y27911452D01*
X55471900Y27911452D01*
X55464902Y27910716D01*
X55306573Y27856817D01*
X55164120Y27769179D01*
X55044623Y27652159D01*
X54954022Y27511573D01*
X54896818Y27354408D01*
X54895935Y27347420D01*
X54895935Y27347419D01*
X54894645Y27337210D01*
X54875856Y27188475D01*
X21695603Y27188475D01*
X14034519Y34849559D01*
X14033590Y34850497D01*
X13988833Y34896201D01*
X13971141Y34914268D01*
X13965221Y34918083D01*
X13965215Y34918088D01*
X13935109Y34937490D01*
X13924755Y34944930D01*
X13896774Y34967267D01*
X13891266Y34971664D01*
X13861441Y34986082D01*
X13848025Y34993611D01*
X13826110Y35007734D01*
X13820183Y35011554D01*
X13813556Y35013966D01*
X13807410Y35017017D01*
X13755287Y35065222D01*
X13741867Y35104579D01*
X13741005Y35104342D01*
X13738499Y35113459D01*
X13737382Y35122846D01*
X13733015Y35132679D01*
X13696663Y35214518D01*
X13691939Y35225153D01*
X13612713Y35304241D01*
X13602076Y35308944D01*
X13602074Y35308945D01*
X13530942Y35340392D01*
X13510327Y35349506D01*
X13484646Y35352500D01*
X11871354Y35352500D01*
X11867650Y35352059D01*
X11867647Y35352059D01*
X11860254Y35351179D01*
X11845154Y35349382D01*
X11836514Y35345544D01*
X11836513Y35345544D01*
X11801773Y35330113D01*
X11742847Y35303939D01*
X11734628Y35295706D01*
X11734627Y35295705D01*
X11721150Y35282204D01*
X11663759Y35224713D01*
X11659055Y35214073D01*
X11652483Y35204475D01*
X11648797Y35206999D01*
X11617923Y35170468D01*
X11550054Y35149628D01*
X11481692Y35168788D01*
X11434541Y35221866D01*
X11422500Y35275618D01*
X11422500Y35282204D01*
X11422846Y35291541D01*
X11425811Y35331444D01*
X11426476Y35340392D01*
X11424603Y35349168D01*
X11423992Y35358125D01*
X11423998Y35358125D01*
X11422500Y35372318D01*
X11422500Y35844622D01*
X11442502Y35912743D01*
X11496158Y35959236D01*
X11566432Y35969340D01*
X11631012Y35939846D01*
X11650506Y35913522D01*
X11652751Y35915065D01*
X11659337Y35905481D01*
X11664061Y35894847D01*
X11672294Y35886628D01*
X11672295Y35886627D01*
X11694702Y35864259D01*
X11743287Y35815759D01*
X11753924Y35811056D01*
X11753926Y35811055D01*
X11775544Y35801498D01*
X11845673Y35770494D01*
X11871354Y35767500D01*
X13484646Y35767500D01*
X13488350Y35767941D01*
X13488353Y35767941D01*
X13495746Y35768821D01*
X13510846Y35770618D01*
X13547156Y35786746D01*
X13602518Y35811337D01*
X13613153Y35816061D01*
X13692241Y35895287D01*
X13699959Y35912743D01*
X13718396Y35954448D01*
X13764234Y36008664D01*
X13833636Y36029500D01*
X14722917Y36029500D01*
X14724238Y36029493D01*
X14813407Y36028559D01*
X14855296Y36037616D01*
X14867870Y36039675D01*
X14882477Y36041314D01*
X14903476Y36043669D01*
X14903478Y36043670D01*
X14910472Y36044454D01*
X14941759Y36055350D01*
X14956564Y36059511D01*
X14982061Y36065023D01*
X14982064Y36065024D01*
X14988942Y36066511D01*
X15027799Y36084630D01*
X15039582Y36089414D01*
X15080073Y36103515D01*
X15108167Y36121070D01*
X15121682Y36128408D01*
X15151707Y36142409D01*
X15161592Y36150077D01*
X15185567Y36168674D01*
X15196024Y36175969D01*
X15226400Y36194950D01*
X15226403Y36194952D01*
X15232375Y36198684D01*
X15254433Y36220588D01*
X15260893Y36227003D01*
X15261515Y36227585D01*
X15262177Y36228099D01*
X15288037Y36253959D01*
X15359807Y36325230D01*
X15360459Y36326257D01*
X15361543Y36327465D01*
X16169673Y37135595D01*
X16231985Y37169621D01*
X16258768Y37172500D01*
X30762366Y37172500D01*
X30830487Y37152498D01*
X30876980Y37098842D01*
X30887084Y37028568D01*
X30868277Y36978245D01*
X30827841Y36915501D01*
X30827837Y36915492D01*
X30824022Y36909573D01*
X30821612Y36902953D01*
X30821612Y36902952D01*
X30771593Y36765526D01*
X30766818Y36752408D01*
X30765935Y36745420D01*
X30765935Y36745419D01*
X30765084Y36738682D01*
X30745856Y36586475D01*
X30762177Y36420021D01*
X30814970Y36261320D01*
X30818617Y36255298D01*
X30818618Y36255296D01*
X30877276Y36158440D01*
X30895500Y36093169D01*
X30895500Y31977570D01*
X30875412Y31909316D01*
X30824022Y31829573D01*
X30821612Y31822953D01*
X30821612Y31822952D01*
X30806223Y31780670D01*
X30766818Y31672408D01*
X30765935Y31665420D01*
X30765935Y31665419D01*
X30765472Y31661757D01*
X30745856Y31506475D01*
X30762177Y31340021D01*
X30814970Y31181320D01*
X30818619Y31175295D01*
X30895199Y31048847D01*
X30901611Y31038259D01*
X31017794Y30917948D01*
X31023686Y30914093D01*
X31023690Y30914089D01*
X31079174Y30877782D01*
X31157744Y30826367D01*
X31314506Y30768068D01*
X31321487Y30767137D01*
X31321489Y30767136D01*
X31473308Y30746879D01*
X31473312Y30746879D01*
X31480289Y30745948D01*
X31487300Y30746586D01*
X31487304Y30746586D01*
X31639831Y30760467D01*
X31646852Y30761106D01*
X31675834Y30770523D01*
X31799219Y30810613D01*
X31799222Y30810614D01*
X31805918Y30812790D01*
X31835169Y30830227D01*
X31943529Y30894822D01*
X31943531Y30894823D01*
X31949581Y30898430D01*
X32070700Y31013770D01*
X32163255Y31153077D01*
X32222648Y31309429D01*
X32226008Y31333336D01*
X32245374Y31471131D01*
X32245374Y31471134D01*
X32245925Y31475053D01*
X32246217Y31496000D01*
X32227574Y31662209D01*
X32172570Y31820158D01*
X32115646Y31911256D01*
X32096500Y31978026D01*
X32096500Y35949500D01*
X32116502Y36017621D01*
X32170158Y36064114D01*
X32222500Y36075500D01*
X36062496Y36075500D01*
X36130617Y36055498D01*
X36151591Y36038595D01*
X38966465Y33223722D01*
X38973932Y33214376D01*
X38974322Y33214708D01*
X38980140Y33207872D01*
X38984930Y33200280D01*
X38991658Y33194338D01*
X38991659Y33194337D01*
X39024609Y33165237D01*
X39030297Y33159890D01*
X39041507Y33148680D01*
X39045093Y33145992D01*
X39045096Y33145990D01*
X39049677Y33142556D01*
X39057518Y33136173D01*
X39061805Y33132387D01*
X39092388Y33105377D01*
X39100513Y33101562D01*
X39103683Y33099480D01*
X39116670Y33091677D01*
X39119994Y33089857D01*
X39127176Y33084474D01*
X39135577Y33081325D01*
X39135578Y33081324D01*
X39170736Y33068144D01*
X39180053Y33064217D01*
X39214034Y33048263D01*
X39214037Y33048262D01*
X39222163Y33044447D01*
X39231037Y33043065D01*
X39234650Y33041961D01*
X39249307Y33038115D01*
X39253010Y33037301D01*
X39261420Y33034148D01*
X39307843Y33030698D01*
X39317856Y33029548D01*
X39331009Y33027500D01*
X39346204Y33027500D01*
X39355542Y33027154D01*
X39404392Y33023524D01*
X39413168Y33025397D01*
X39422125Y33026008D01*
X39422125Y33026002D01*
X39436318Y33027500D01*
X45649819Y33027500D01*
X45661704Y33026172D01*
X45661745Y33026682D01*
X45670691Y33025962D01*
X45679447Y33023981D01*
X45722980Y33026682D01*
X45732264Y33027258D01*
X45740067Y33027500D01*
X45755940Y33027500D01*
X45766052Y33028948D01*
X45776106Y33029978D01*
X45804097Y33031715D01*
X45822538Y33032859D01*
X45830982Y33035907D01*
X45834694Y33036676D01*
X45849399Y33040343D01*
X45853027Y33041404D01*
X45861918Y33042677D01*
X45904282Y33061939D01*
X45913637Y33065746D01*
X45948943Y33078491D01*
X45948947Y33078493D01*
X45957387Y33081540D01*
X45964635Y33086835D01*
X45967975Y33088611D01*
X45981089Y33096274D01*
X45984261Y33098303D01*
X45992428Y33102016D01*
X45999223Y33107871D01*
X45999226Y33107873D01*
X46027675Y33132387D01*
X46035596Y33138676D01*
X46042402Y33143648D01*
X46046336Y33146522D01*
X46057079Y33157265D01*
X46063926Y33163623D01*
X46094237Y33189741D01*
X46101037Y33195600D01*
X46105920Y33203134D01*
X46111819Y33209896D01*
X46111824Y33209892D01*
X46120800Y33220986D01*
X46438289Y33538475D01*
X63638856Y33538475D01*
X63655177Y33372021D01*
X63707970Y33213320D01*
X63711619Y33207295D01*
X63789626Y33078491D01*
X63794611Y33070259D01*
X63799502Y33065194D01*
X63799503Y33065193D01*
X63835180Y33028249D01*
X63910794Y32949948D01*
X63916686Y32946093D01*
X63916690Y32946089D01*
X63997276Y32893356D01*
X64050744Y32858367D01*
X64207506Y32800068D01*
X64214487Y32799137D01*
X64214489Y32799136D01*
X64366308Y32778879D01*
X64366312Y32778879D01*
X64373289Y32777948D01*
X64380300Y32778586D01*
X64380304Y32778586D01*
X64532831Y32792467D01*
X64539852Y32793106D01*
X64598183Y32812059D01*
X64692219Y32842613D01*
X64692222Y32842614D01*
X64698918Y32844790D01*
X64728169Y32862227D01*
X64836529Y32926822D01*
X64836531Y32926823D01*
X64842581Y32930430D01*
X64908020Y32992746D01*
X64971146Y33025238D01*
X64994912Y33027500D01*
X67304496Y33027500D01*
X67372617Y33007498D01*
X67393591Y32990595D01*
X78843491Y21540695D01*
X78877517Y21478383D01*
X78879795Y21463896D01*
X78888900Y21371039D01*
X78895177Y21307021D01*
X78947970Y21148320D01*
X78951619Y21142295D01*
X79005576Y21053202D01*
X79034611Y21005259D01*
X79150794Y20884948D01*
X79156686Y20881093D01*
X79156690Y20881089D01*
X79237276Y20828356D01*
X79290744Y20793367D01*
X79447506Y20735068D01*
X79454487Y20734137D01*
X79454489Y20734136D01*
X79606308Y20713879D01*
X79606312Y20713879D01*
X79613289Y20712948D01*
X79620300Y20713586D01*
X79620304Y20713586D01*
X79772831Y20727467D01*
X79779852Y20728106D01*
X79808834Y20737523D01*
X79932219Y20777613D01*
X79932222Y20777614D01*
X79938918Y20779790D01*
X79994538Y20812946D01*
X80076529Y20861822D01*
X80076531Y20861823D01*
X80082581Y20865430D01*
X80203700Y20980770D01*
X80296255Y21120077D01*
X80355648Y21276429D01*
X80359796Y21305940D01*
X80378374Y21438131D01*
X80378374Y21438134D01*
X80378925Y21442053D01*
X80379217Y21463000D01*
X80360574Y21629209D01*
X80305570Y21787158D01*
X80216940Y21928996D01*
X80099089Y22047673D01*
X79957873Y22137291D01*
X79933152Y22146094D01*
X79806948Y22191033D01*
X79806943Y22191034D01*
X79800313Y22193395D01*
X79793325Y22194228D01*
X79793322Y22194229D01*
X79641227Y22212366D01*
X79641222Y22212366D01*
X79634237Y22213199D01*
X79634299Y22213720D01*
X79570760Y22232863D01*
X79550529Y22249285D01*
X67967534Y33832280D01*
X67960068Y33841624D01*
X67959678Y33841292D01*
X67953860Y33848128D01*
X67949070Y33855720D01*
X67935739Y33867494D01*
X67909400Y33890755D01*
X67903712Y33896102D01*
X67892494Y33907320D01*
X67886677Y33911680D01*
X67884316Y33913450D01*
X67876477Y33919832D01*
X67848339Y33944682D01*
X67841612Y33950623D01*
X67833489Y33954437D01*
X67830336Y33956508D01*
X67817324Y33964327D01*
X67814005Y33966144D01*
X67806824Y33971526D01*
X67781529Y33981009D01*
X67763264Y33987856D01*
X67753947Y33991783D01*
X67719966Y34007737D01*
X67719963Y34007738D01*
X67711837Y34011553D01*
X67702963Y34012935D01*
X67699350Y34014039D01*
X67684693Y34017885D01*
X67680990Y34018699D01*
X67672580Y34021852D01*
X67626157Y34025302D01*
X67616144Y34026452D01*
X67602991Y34028500D01*
X67587796Y34028500D01*
X67578459Y34028846D01*
X67563036Y34029992D01*
X67529608Y34032476D01*
X67520832Y34030603D01*
X67511875Y34029992D01*
X67511875Y34029998D01*
X67497682Y34028500D01*
X64995125Y34028500D01*
X64927004Y34048502D01*
X64905719Y34065716D01*
X64885319Y34086259D01*
X64859089Y34112673D01*
X64848838Y34119179D01*
X64768902Y34169907D01*
X64717873Y34202291D01*
X64692339Y34211383D01*
X64566948Y34256033D01*
X64566943Y34256034D01*
X64560313Y34258395D01*
X64553325Y34259228D01*
X64553322Y34259229D01*
X64461495Y34270179D01*
X64394237Y34278199D01*
X64387235Y34277463D01*
X64387233Y34277463D01*
X64234902Y34261452D01*
X64234900Y34261452D01*
X64227902Y34260716D01*
X64069573Y34206817D01*
X63927120Y34119179D01*
X63807623Y34002159D01*
X63803808Y33996239D01*
X63803807Y33996238D01*
X63779997Y33959292D01*
X63717022Y33861573D01*
X63714612Y33854953D01*
X63714612Y33854952D01*
X63666699Y33723312D01*
X63659818Y33704408D01*
X63658935Y33697420D01*
X63658935Y33697419D01*
X63658188Y33691506D01*
X63638856Y33538475D01*
X46438289Y33538475D01*
X46516280Y33616466D01*
X46525624Y33623932D01*
X46525292Y33624322D01*
X46532128Y33630140D01*
X46539720Y33634930D01*
X46574756Y33674601D01*
X46580102Y33680288D01*
X46591320Y33691506D01*
X46595752Y33697419D01*
X46597450Y33699684D01*
X46603832Y33707523D01*
X46628682Y33735661D01*
X46634623Y33742388D01*
X46638437Y33750511D01*
X46640508Y33753664D01*
X46648327Y33766676D01*
X46650143Y33769994D01*
X46655526Y33777176D01*
X46671858Y33820741D01*
X46675783Y33830056D01*
X46679754Y33838513D01*
X46695553Y33872163D01*
X46696935Y33881036D01*
X46698042Y33884658D01*
X46701891Y33899328D01*
X46702702Y33903017D01*
X46705852Y33911419D01*
X46706517Y33920364D01*
X46706519Y33920374D01*
X46709302Y33957828D01*
X46710452Y33967855D01*
X46712500Y33981009D01*
X46712500Y33996204D01*
X46712846Y34005541D01*
X46714847Y34032476D01*
X46716476Y34054392D01*
X46714603Y34063168D01*
X46713992Y34072125D01*
X46713998Y34072125D01*
X46712500Y34086318D01*
X46712500Y34491842D01*
X46732502Y34559963D01*
X46792116Y34608994D01*
X46794337Y34609873D01*
X46834783Y34625887D01*
X46954922Y34717078D01*
X47046113Y34837217D01*
X47075889Y34912423D01*
X47098655Y34969923D01*
X47098656Y34969925D01*
X47101636Y34977453D01*
X47112500Y35067228D01*
X47112500Y36052772D01*
X47101636Y36142547D01*
X47094849Y36159691D01*
X47049275Y36274796D01*
X47046113Y36282783D01*
X46954922Y36402922D01*
X46834783Y36494113D01*
X46760913Y36523360D01*
X46702077Y36546655D01*
X46702075Y36546656D01*
X46694547Y36549636D01*
X46604772Y36560500D01*
X45819228Y36560500D01*
X45729453Y36549636D01*
X45721925Y36546656D01*
X45721923Y36546655D01*
X45663087Y36523360D01*
X45589217Y36494113D01*
X45469078Y36402922D01*
X45377887Y36282783D01*
X45332709Y36168674D01*
X45329152Y36159691D01*
X45285478Y36103718D01*
X45218475Y36080241D01*
X45149416Y36096717D01*
X45100227Y36147912D01*
X45094848Y36159691D01*
X45091292Y36168674D01*
X45046113Y36282783D01*
X44954922Y36402922D01*
X44834783Y36494113D01*
X44760913Y36523360D01*
X44702077Y36546655D01*
X44702075Y36546656D01*
X44694547Y36549636D01*
X44604772Y36560500D01*
X43819228Y36560500D01*
X43729453Y36549636D01*
X43721925Y36546656D01*
X43721923Y36546655D01*
X43663087Y36523360D01*
X43589217Y36494113D01*
X43469078Y36402922D01*
X43377887Y36282783D01*
X43374725Y36274796D01*
X43329152Y36159691D01*
X43322364Y36142547D01*
X43320210Y36124744D01*
X43292171Y36059522D01*
X43237906Y36021367D01*
X43205057Y36009509D01*
X43205053Y36009507D01*
X43196613Y36006460D01*
X43189365Y36001165D01*
X43186025Y35999389D01*
X43172911Y35991726D01*
X43169739Y35989697D01*
X43161572Y35985984D01*
X43154777Y35980129D01*
X43154774Y35980127D01*
X43126325Y35955613D01*
X43118405Y35949325D01*
X43107664Y35941478D01*
X43096921Y35930735D01*
X43090075Y35924377D01*
X43052963Y35892400D01*
X43048080Y35884866D01*
X43042181Y35878104D01*
X43042176Y35878108D01*
X43033200Y35867014D01*
X42496299Y35330113D01*
X42433987Y35296087D01*
X42420378Y35293899D01*
X42354160Y35286939D01*
X42263902Y35277452D01*
X42263900Y35277452D01*
X42256902Y35276716D01*
X42098573Y35222817D01*
X41956120Y35135179D01*
X41836623Y35018159D01*
X41832808Y35012239D01*
X41832807Y35012238D01*
X41803195Y34966288D01*
X41746022Y34877573D01*
X41743612Y34870953D01*
X41743612Y34870952D01*
X41696990Y34742859D01*
X41688818Y34720408D01*
X41667856Y34554475D01*
X41684177Y34388021D01*
X41736970Y34229320D01*
X41740619Y34223295D01*
X41740623Y34223286D01*
X41742754Y34219767D01*
X41743432Y34217206D01*
X41743575Y34216897D01*
X41743521Y34216872D01*
X41760931Y34151137D01*
X41739118Y34083575D01*
X41684241Y34038530D01*
X41634976Y34028500D01*
X39629504Y34028500D01*
X39561383Y34048502D01*
X39540409Y34065405D01*
X36725534Y36880280D01*
X36718068Y36889624D01*
X36717678Y36889292D01*
X36711860Y36896128D01*
X36707070Y36903720D01*
X36693731Y36915501D01*
X36667400Y36938755D01*
X36661712Y36944102D01*
X36650494Y36955320D01*
X36651450Y36956276D01*
X36616279Y37011032D01*
X36616297Y37082029D01*
X36654695Y37141745D01*
X36719284Y37171222D01*
X36737184Y37172500D01*
X58290232Y37172500D01*
X58358353Y37152498D01*
X58379327Y37135595D01*
X59663890Y35851032D01*
X59666650Y35848828D01*
X59666652Y35848827D01*
X59763230Y35771730D01*
X59763234Y35771727D01*
X59768734Y35767337D01*
X59775072Y35764273D01*
X59806632Y35749016D01*
X59930422Y35689173D01*
X60105410Y35648774D01*
X60112448Y35648749D01*
X60112452Y35648749D01*
X60197348Y35648453D01*
X60285000Y35648147D01*
X60411274Y35676373D01*
X60453386Y35685786D01*
X60453387Y35685786D01*
X60460266Y35687324D01*
X60622497Y35764357D01*
X60630454Y35770618D01*
X60669695Y35801498D01*
X60763629Y35875417D01*
X60876650Y36014985D01*
X60879791Y36021367D01*
X60930859Y36125153D01*
X60955940Y36176125D01*
X60982979Y36289623D01*
X60993188Y36332475D01*
X63638856Y36332475D01*
X63655177Y36166021D01*
X63707970Y36007320D01*
X63714127Y35997154D01*
X63786224Y35878108D01*
X63794611Y35864259D01*
X63799502Y35859194D01*
X63799503Y35859193D01*
X63855219Y35801498D01*
X63910794Y35743948D01*
X63916686Y35740093D01*
X63916690Y35740089D01*
X63989813Y35692239D01*
X64050744Y35652367D01*
X64207506Y35594068D01*
X64214487Y35593137D01*
X64214489Y35593136D01*
X64366308Y35572879D01*
X64366312Y35572879D01*
X64373289Y35571948D01*
X64380300Y35572586D01*
X64380304Y35572586D01*
X64532831Y35586467D01*
X64539852Y35587106D01*
X64568834Y35596523D01*
X64692219Y35636613D01*
X64692222Y35636614D01*
X64698918Y35638790D01*
X64714657Y35648172D01*
X64836529Y35720822D01*
X64836531Y35720823D01*
X64842581Y35724430D01*
X64881335Y35761335D01*
X64908020Y35786746D01*
X64971146Y35819238D01*
X64994912Y35821500D01*
X66796496Y35821500D01*
X66864617Y35801498D01*
X66885591Y35784595D01*
X70969491Y31700695D01*
X71003517Y31638383D01*
X71005795Y31623896D01*
X71012109Y31559501D01*
X71021177Y31467021D01*
X71073970Y31308320D01*
X71077619Y31302295D01*
X71124423Y31225013D01*
X71160611Y31165259D01*
X71165502Y31160194D01*
X71165503Y31160193D01*
X71189129Y31135728D01*
X71276794Y31044948D01*
X71282686Y31041093D01*
X71282690Y31041089D01*
X71331864Y31008911D01*
X71416744Y30953367D01*
X71573506Y30895068D01*
X71580487Y30894137D01*
X71580489Y30894136D01*
X71732308Y30873879D01*
X71732312Y30873879D01*
X71739289Y30872948D01*
X71746303Y30873586D01*
X71747035Y30873571D01*
X71814722Y30852147D01*
X71833492Y30836694D01*
X78843491Y23826695D01*
X78877517Y23764383D01*
X78879795Y23749896D01*
X78886109Y23685501D01*
X78895177Y23593021D01*
X78947970Y23434320D01*
X78951619Y23428295D01*
X78998423Y23351013D01*
X79034611Y23291259D01*
X79150794Y23170948D01*
X79156686Y23167093D01*
X79156690Y23167089D01*
X79209275Y23132679D01*
X79290744Y23079367D01*
X79447506Y23021068D01*
X79454487Y23020137D01*
X79454489Y23020136D01*
X79606308Y22999879D01*
X79606312Y22999879D01*
X79613289Y22998948D01*
X79620300Y22999586D01*
X79620304Y22999586D01*
X79772831Y23013467D01*
X79779852Y23014106D01*
X79900540Y23053320D01*
X79932219Y23063613D01*
X79932222Y23063614D01*
X79938918Y23065790D01*
X80056241Y23135728D01*
X80076529Y23147822D01*
X80076531Y23147823D01*
X80082581Y23151430D01*
X80203700Y23266770D01*
X80296255Y23406077D01*
X80334872Y23507735D01*
X80353148Y23555847D01*
X80353149Y23555849D01*
X80355648Y23562429D01*
X80359008Y23586336D01*
X80378374Y23724131D01*
X80378374Y23724134D01*
X80378925Y23728053D01*
X80379217Y23749000D01*
X80360574Y23915209D01*
X80357377Y23924391D01*
X80316319Y24042291D01*
X80305570Y24073158D01*
X80216940Y24214996D01*
X80099089Y24333673D01*
X79957873Y24423291D01*
X79933152Y24432094D01*
X79806948Y24477033D01*
X79806943Y24477034D01*
X79800313Y24479395D01*
X79793325Y24480228D01*
X79793322Y24480229D01*
X79641227Y24498366D01*
X79641222Y24498366D01*
X79634237Y24499199D01*
X79634299Y24499720D01*
X79570760Y24518863D01*
X79550529Y24535285D01*
X72541516Y31544298D01*
X72507490Y31606610D01*
X72505320Y31623012D01*
X72505217Y31623000D01*
X72487359Y31782210D01*
X72486574Y31789209D01*
X72475285Y31821628D01*
X72433888Y31940501D01*
X72431570Y31947158D01*
X72342940Y32088996D01*
X72225089Y32207673D01*
X72199679Y32223799D01*
X72170129Y32242551D01*
X72083873Y32297291D01*
X72059152Y32306094D01*
X71932948Y32351033D01*
X71932943Y32351034D01*
X71926313Y32353395D01*
X71919325Y32354228D01*
X71919322Y32354229D01*
X71767227Y32372366D01*
X71767222Y32372366D01*
X71760237Y32373199D01*
X71760299Y32373720D01*
X71696760Y32392863D01*
X71676529Y32409285D01*
X67459534Y36626280D01*
X67452068Y36635624D01*
X67451678Y36635292D01*
X67445860Y36642128D01*
X67441070Y36649720D01*
X67427739Y36661494D01*
X67401400Y36684755D01*
X67395712Y36690102D01*
X67384494Y36701320D01*
X67380905Y36704010D01*
X67376316Y36707450D01*
X67368477Y36713832D01*
X67340339Y36738682D01*
X67333612Y36744623D01*
X67325489Y36748437D01*
X67322336Y36750508D01*
X67309324Y36758327D01*
X67306005Y36760144D01*
X67298824Y36765526D01*
X67255261Y36781857D01*
X67245947Y36785783D01*
X67211966Y36801737D01*
X67211963Y36801738D01*
X67203837Y36805553D01*
X67194963Y36806935D01*
X67191350Y36808039D01*
X67176693Y36811885D01*
X67172990Y36812699D01*
X67164580Y36815852D01*
X67118157Y36819302D01*
X67108144Y36820452D01*
X67094991Y36822500D01*
X67079796Y36822500D01*
X67070459Y36822846D01*
X67055036Y36823992D01*
X67021608Y36826476D01*
X67012832Y36824603D01*
X67003875Y36823992D01*
X67003875Y36823998D01*
X66989682Y36822500D01*
X64995125Y36822500D01*
X64927004Y36842502D01*
X64905719Y36859716D01*
X64876019Y36889624D01*
X64859089Y36906673D01*
X64848838Y36913179D01*
X64767999Y36964480D01*
X64717873Y36996291D01*
X64652621Y37019526D01*
X64566948Y37050033D01*
X64566943Y37050034D01*
X64560313Y37052395D01*
X64553325Y37053228D01*
X64553322Y37053229D01*
X64461495Y37064179D01*
X64394237Y37072199D01*
X64387235Y37071463D01*
X64387233Y37071463D01*
X64234902Y37055452D01*
X64234900Y37055452D01*
X64227902Y37054716D01*
X64069573Y37000817D01*
X64038959Y36981983D01*
X63972884Y36941333D01*
X63927120Y36913179D01*
X63807623Y36796159D01*
X63803808Y36790239D01*
X63803807Y36790238D01*
X63778203Y36750508D01*
X63717022Y36655573D01*
X63659818Y36498408D01*
X63658935Y36491420D01*
X63658935Y36491419D01*
X63655716Y36465940D01*
X63638856Y36332475D01*
X60993188Y36332475D01*
X60995928Y36343974D01*
X60995928Y36343977D01*
X60997560Y36350826D01*
X60998003Y36393067D01*
X60999367Y36523360D01*
X60999441Y36530407D01*
X60961489Y36705942D01*
X60885590Y36868708D01*
X60859028Y36902952D01*
X60848229Y36916873D01*
X60799901Y36979177D01*
X59246519Y38532559D01*
X59245590Y38533497D01*
X59245325Y38533768D01*
X59183141Y38597268D01*
X59177221Y38601083D01*
X59177215Y38601088D01*
X59147109Y38620490D01*
X59136755Y38627930D01*
X59108774Y38650267D01*
X59103266Y38654664D01*
X59073441Y38669082D01*
X59060025Y38676611D01*
X59038109Y38690735D01*
X59032183Y38694554D01*
X59018636Y38699485D01*
X58991911Y38709212D01*
X58980169Y38714172D01*
X58959647Y38724092D01*
X58941578Y38732827D01*
X58934723Y38734410D01*
X58934719Y38734411D01*
X58915757Y38738788D01*
X58909302Y38740279D01*
X58894554Y38744648D01*
X58870045Y38753568D01*
X58870041Y38753569D01*
X58863422Y38755978D01*
X58820882Y38761352D01*
X58808363Y38763582D01*
X58766589Y38773226D01*
X58759548Y38773251D01*
X58759545Y38773251D01*
X58726418Y38773367D01*
X58725545Y38773396D01*
X58724717Y38773500D01*
X58688262Y38773500D01*
X58687822Y38773501D01*
X58590493Y38773841D01*
X58590490Y38773841D01*
X58587000Y38773853D01*
X58585812Y38773587D01*
X58584200Y38773500D01*
X40123500Y38773500D01*
X40055379Y38793502D01*
X40008886Y38847158D01*
X39997500Y38899500D01*
X39997500Y40565375D01*
X40017502Y40633496D01*
X40071158Y40679989D01*
X40084564Y40685208D01*
X40181218Y40716613D01*
X40187918Y40718790D01*
X40322296Y40798895D01*
X40325529Y40800822D01*
X40325531Y40800823D01*
X40331581Y40804430D01*
X40452700Y40919770D01*
X40545255Y41059077D01*
X40604648Y41215429D01*
X40608008Y41239336D01*
X40627374Y41377131D01*
X40627374Y41377134D01*
X40627925Y41381053D01*
X40628217Y41402000D01*
X40609574Y41568209D01*
X40554570Y41726158D01*
X40465940Y41867996D01*
X40348089Y41986673D01*
X40337838Y41993179D01*
X40293129Y42021551D01*
X40206873Y42076291D01*
X40182152Y42085094D01*
X40055948Y42130033D01*
X40055943Y42130034D01*
X40049313Y42132395D01*
X40042325Y42133228D01*
X40042322Y42133229D01*
X39950495Y42144179D01*
X39883237Y42152199D01*
X39876235Y42151463D01*
X39876233Y42151463D01*
X39723902Y42135452D01*
X39723900Y42135452D01*
X39716902Y42134716D01*
X39558573Y42080817D01*
X39535786Y42066798D01*
X39440182Y42007982D01*
X39416120Y41993179D01*
X39296623Y41876159D01*
X39292808Y41870239D01*
X39292807Y41870238D01*
X39221509Y41759604D01*
X39167794Y41713179D01*
X39097507Y41703164D01*
X39032964Y41732739D01*
X39008743Y41761089D01*
X38945673Y41862022D01*
X38941940Y41867996D01*
X38891093Y41919199D01*
X38857287Y41981628D01*
X38854500Y42007982D01*
X38854500Y43109825D01*
X38855828Y43121705D01*
X38855317Y43121746D01*
X38856037Y43130691D01*
X38858018Y43139448D01*
X38854742Y43192254D01*
X38854500Y43200056D01*
X38854500Y43215940D01*
X38853863Y43220390D01*
X38853052Y43226058D01*
X38852022Y43236109D01*
X38849697Y43273581D01*
X38849697Y43273583D01*
X38849141Y43282538D01*
X38846095Y43290975D01*
X38845329Y43294675D01*
X38841657Y43309399D01*
X38840596Y43313027D01*
X38839323Y43321918D01*
X38820061Y43364282D01*
X38816254Y43373637D01*
X38803509Y43408943D01*
X38803507Y43408947D01*
X38800460Y43417387D01*
X38795165Y43424635D01*
X38793389Y43427975D01*
X38785726Y43441089D01*
X38783697Y43444261D01*
X38779984Y43452428D01*
X38774129Y43459223D01*
X38774127Y43459226D01*
X38749613Y43487675D01*
X38743324Y43495596D01*
X38738352Y43502402D01*
X38735478Y43506336D01*
X38724735Y43517079D01*
X38718377Y43523926D01*
X38692259Y43554237D01*
X38686400Y43561037D01*
X38678866Y43565920D01*
X38672104Y43571819D01*
X38672108Y43571824D01*
X38661014Y43580800D01*
X37487534Y44754280D01*
X37480068Y44763624D01*
X37479678Y44763292D01*
X37473860Y44770128D01*
X37469070Y44777720D01*
X37429399Y44812756D01*
X37423712Y44818102D01*
X37412494Y44829320D01*
X37408905Y44832010D01*
X37404316Y44835450D01*
X37396477Y44841832D01*
X37368339Y44866682D01*
X37361612Y44872623D01*
X37353489Y44876437D01*
X37350336Y44878508D01*
X37337324Y44886327D01*
X37334005Y44888144D01*
X37326824Y44893526D01*
X37283261Y44909857D01*
X37273947Y44913783D01*
X37239966Y44929737D01*
X37239963Y44929738D01*
X37231837Y44933553D01*
X37222963Y44934935D01*
X37219350Y44936039D01*
X37204693Y44939885D01*
X37200990Y44940699D01*
X37192580Y44943852D01*
X37146157Y44947302D01*
X37136144Y44948452D01*
X37122991Y44950500D01*
X37107796Y44950500D01*
X37098459Y44950846D01*
X37083036Y44951992D01*
X37049608Y44954476D01*
X37040832Y44952603D01*
X37031875Y44951992D01*
X37031875Y44951998D01*
X37017682Y44950500D01*
X34371184Y44950500D01*
X34303063Y44970502D01*
X34282089Y44987405D01*
X32741089Y46528405D01*
X32707063Y46590717D01*
X32712128Y46661532D01*
X32754675Y46718368D01*
X32821195Y46743179D01*
X32830184Y46743500D01*
X45113419Y46743500D01*
X45181540Y46723498D01*
X45204056Y46705027D01*
X45241794Y46665948D01*
X45247686Y46662093D01*
X45247690Y46662089D01*
X45328276Y46609356D01*
X45381744Y46574367D01*
X45538506Y46516068D01*
X45545487Y46515137D01*
X45545489Y46515136D01*
X45697308Y46494879D01*
X45697312Y46494879D01*
X45704289Y46493948D01*
X45711300Y46494586D01*
X45711304Y46494586D01*
X45863831Y46508467D01*
X45870852Y46509106D01*
X45930248Y46528405D01*
X46023219Y46558613D01*
X46023222Y46558614D01*
X46029918Y46560790D01*
X46080121Y46590717D01*
X46167529Y46642822D01*
X46167531Y46642823D01*
X46173581Y46646430D01*
X46294700Y46761770D01*
X46387255Y46901077D01*
X46437204Y47032568D01*
X46444148Y47050847D01*
X46444149Y47050849D01*
X46446648Y47057429D01*
X46461178Y47160817D01*
X46469374Y47219131D01*
X46469374Y47219134D01*
X46469925Y47223053D01*
X46470217Y47244000D01*
X46451574Y47410209D01*
X46396570Y47568158D01*
X46307940Y47709996D01*
X46295035Y47722992D01*
X46250772Y47767565D01*
X46190089Y47828673D01*
X46179838Y47835179D01*
X46062421Y47909693D01*
X46048873Y47918291D01*
X46024152Y47927094D01*
X45897948Y47972033D01*
X45897943Y47972034D01*
X45891313Y47974395D01*
X45884325Y47975228D01*
X45884322Y47975229D01*
X45792495Y47986179D01*
X45725237Y47994199D01*
X45718235Y47993463D01*
X45718233Y47993463D01*
X45565902Y47977452D01*
X45565900Y47977452D01*
X45558902Y47976716D01*
X45400573Y47922817D01*
X45378927Y47909500D01*
X45264127Y47838875D01*
X45264124Y47838873D01*
X45258120Y47835179D01*
X45253085Y47830248D01*
X45253082Y47830246D01*
X45202259Y47780476D01*
X45139594Y47747106D01*
X45114102Y47744500D01*
X33050253Y47744500D01*
X32982132Y47764502D01*
X32936741Y47815923D01*
X32934570Y47822158D01*
X32919732Y47845905D01*
X32849673Y47958022D01*
X32845940Y47963996D01*
X32795093Y48015199D01*
X32761287Y48077628D01*
X32758500Y48103982D01*
X32758500Y50983825D01*
X32759828Y50995705D01*
X32759317Y50995746D01*
X32760037Y51004691D01*
X32762018Y51013448D01*
X32758742Y51066254D01*
X32758500Y51074056D01*
X32758500Y51089940D01*
X32757438Y51097359D01*
X32757052Y51100058D01*
X32756022Y51110109D01*
X32753697Y51147581D01*
X32753697Y51147583D01*
X32753141Y51156538D01*
X32750095Y51164975D01*
X32749329Y51168675D01*
X32745657Y51183399D01*
X32744596Y51187027D01*
X32743323Y51195918D01*
X32724061Y51238282D01*
X32720254Y51247637D01*
X32707509Y51282943D01*
X32707507Y51282947D01*
X32704460Y51291387D01*
X32699165Y51298635D01*
X32697389Y51301975D01*
X32689726Y51315089D01*
X32687697Y51318261D01*
X32683984Y51326428D01*
X32678129Y51333223D01*
X32678127Y51333226D01*
X32653613Y51361675D01*
X32647324Y51369596D01*
X32642352Y51376402D01*
X32639478Y51380336D01*
X32628735Y51391079D01*
X32622377Y51397926D01*
X32615402Y51406021D01*
X32590400Y51435037D01*
X32582866Y51439920D01*
X32576104Y51445819D01*
X32576108Y51445824D01*
X32565014Y51454800D01*
X31774516Y52245298D01*
X31740490Y52307610D01*
X31738320Y52324012D01*
X31738217Y52324000D01*
X31720359Y52483210D01*
X31719574Y52490209D01*
X31714741Y52504089D01*
X31673264Y52623193D01*
X31664570Y52648158D01*
X31575940Y52789996D01*
X31458089Y52908673D01*
X31447838Y52915179D01*
X31403129Y52943551D01*
X31316873Y52998291D01*
X31292152Y53007094D01*
X31165948Y53052033D01*
X31165943Y53052034D01*
X31159313Y53054395D01*
X31152325Y53055228D01*
X31152322Y53055229D01*
X31060495Y53066179D01*
X30993237Y53074199D01*
X30986235Y53073463D01*
X30986233Y53073463D01*
X30833902Y53057452D01*
X30833900Y53057452D01*
X30826902Y53056716D01*
X30668573Y53002817D01*
X30526120Y52915179D01*
X30406623Y52798159D01*
X30402808Y52792239D01*
X30402807Y52792238D01*
X30385444Y52765295D01*
X30316022Y52657573D01*
X30313612Y52650953D01*
X30313612Y52650952D01*
X30303509Y52623193D01*
X30258818Y52500408D01*
X30257935Y52493420D01*
X30257935Y52493419D01*
X30257305Y52488430D01*
X30237856Y52334475D01*
X30254177Y52168021D01*
X30306970Y52009320D01*
X30310619Y52003295D01*
X30379868Y51888952D01*
X30393611Y51866259D01*
X30398502Y51861194D01*
X30398503Y51861193D01*
X30445957Y51812053D01*
X30509794Y51745948D01*
X30515686Y51742093D01*
X30515690Y51742089D01*
X30596276Y51689356D01*
X30649744Y51654367D01*
X30806506Y51596068D01*
X30813487Y51595137D01*
X30813489Y51595136D01*
X30965308Y51574879D01*
X30965312Y51574879D01*
X30972289Y51573948D01*
X30979303Y51574586D01*
X30980035Y51574571D01*
X31047722Y51553147D01*
X31066492Y51537694D01*
X31720595Y50883591D01*
X31754621Y50821279D01*
X31757500Y50794496D01*
X31757500Y48104325D01*
X31737498Y48036204D01*
X31719663Y48014307D01*
X31676623Y47972159D01*
X31672808Y47966239D01*
X31672803Y47966233D01*
X31612570Y47872770D01*
X31558856Y47826345D01*
X31488569Y47816330D01*
X31424026Y47845905D01*
X31417564Y47851930D01*
X29667449Y49602045D01*
X29633423Y49664357D01*
X29638756Y49735884D01*
X29638809Y49736022D01*
X29670327Y49818994D01*
X29680148Y49844847D01*
X29680149Y49844849D01*
X29682648Y49851429D01*
X29686695Y49880227D01*
X29705374Y50013131D01*
X29705374Y50013134D01*
X29705925Y50017053D01*
X29706217Y50038000D01*
X29703872Y50058911D01*
X29688359Y50197210D01*
X29687574Y50204209D01*
X29684548Y50212900D01*
X29650918Y50309469D01*
X29632570Y50362158D01*
X29543940Y50503996D01*
X29529329Y50518710D01*
X29439169Y50609501D01*
X29426089Y50622673D01*
X29415838Y50629179D01*
X29371129Y50657551D01*
X29284873Y50712291D01*
X29224196Y50733897D01*
X29133948Y50766033D01*
X29133943Y50766034D01*
X29127313Y50768395D01*
X29120325Y50769228D01*
X29120322Y50769229D01*
X29028495Y50780179D01*
X28961237Y50788199D01*
X28954235Y50787463D01*
X28954233Y50787463D01*
X28801902Y50771452D01*
X28801900Y50771452D01*
X28794902Y50770716D01*
X28636573Y50716817D01*
X28494120Y50629179D01*
X28374623Y50512159D01*
X28370808Y50506239D01*
X28370807Y50506238D01*
X28344143Y50464863D01*
X28284022Y50371573D01*
X28281612Y50364953D01*
X28281612Y50364952D01*
X28230781Y50225295D01*
X28226818Y50214408D01*
X28225935Y50207420D01*
X28225935Y50207419D01*
X28224645Y50197210D01*
X28205856Y50048475D01*
X28222177Y49882021D01*
X28274970Y49723320D01*
X28278619Y49717295D01*
X28349560Y49600158D01*
X28361611Y49580259D01*
X28366502Y49575194D01*
X28366503Y49575193D01*
X28452543Y49486096D01*
X28476607Y49450720D01*
X28489933Y49421411D01*
X28493746Y49412043D01*
X28506491Y49376737D01*
X28506493Y49376733D01*
X28509540Y49368293D01*
X28514835Y49361045D01*
X28516611Y49357705D01*
X28524274Y49344591D01*
X28526303Y49341419D01*
X28530016Y49333252D01*
X28535871Y49326457D01*
X28535873Y49326454D01*
X28560387Y49298005D01*
X28566675Y49290085D01*
X28574522Y49279344D01*
X28585265Y49268601D01*
X28591623Y49261755D01*
X28623600Y49224643D01*
X28631134Y49219760D01*
X28637896Y49213861D01*
X28637892Y49213856D01*
X28648986Y49204880D01*
X33704271Y44149595D01*
X33738297Y44087283D01*
X33733232Y44016468D01*
X33690685Y43959632D01*
X33624165Y43934821D01*
X33615176Y43934500D01*
X20833504Y43934500D01*
X20765383Y43954502D01*
X20744409Y43971405D01*
X18312516Y46403298D01*
X18278490Y46465610D01*
X18276320Y46482012D01*
X18276217Y46482000D01*
X18258359Y46641210D01*
X18257574Y46648209D01*
X18252935Y46661532D01*
X18227734Y46733897D01*
X18202570Y46806158D01*
X18113940Y46947996D01*
X17996089Y47066673D01*
X17985838Y47073179D01*
X17941129Y47101551D01*
X17854873Y47156291D01*
X17830152Y47165094D01*
X17703948Y47210033D01*
X17703943Y47210034D01*
X17697313Y47212395D01*
X17690325Y47213228D01*
X17690322Y47213229D01*
X17598495Y47224179D01*
X17531237Y47232199D01*
X17524235Y47231463D01*
X17524233Y47231463D01*
X17371902Y47215452D01*
X17371900Y47215452D01*
X17364902Y47214716D01*
X17206573Y47160817D01*
X17064120Y47073179D01*
X16944623Y46956159D01*
X16854022Y46815573D01*
X16851612Y46808953D01*
X16851612Y46808952D01*
X16832671Y46756911D01*
X16796818Y46658408D01*
X16795935Y46651420D01*
X16795935Y46651419D01*
X16795305Y46646430D01*
X16775856Y46492475D01*
X16792177Y46326021D01*
X16844970Y46167320D01*
X16848619Y46161295D01*
X16900165Y46076183D01*
X16931611Y46024259D01*
X17047794Y45903948D01*
X17053686Y45900093D01*
X17053690Y45900089D01*
X17134276Y45847356D01*
X17187744Y45812367D01*
X17344506Y45754068D01*
X17351487Y45753137D01*
X17351489Y45753136D01*
X17503308Y45732879D01*
X17503312Y45732879D01*
X17510289Y45731948D01*
X17517303Y45732586D01*
X17518035Y45732571D01*
X17585722Y45711147D01*
X17604492Y45695694D01*
X20170465Y43129722D01*
X20177932Y43120376D01*
X20178322Y43120708D01*
X20184140Y43113872D01*
X20188930Y43106280D01*
X20195658Y43100338D01*
X20195659Y43100337D01*
X20228609Y43071237D01*
X20234297Y43065890D01*
X20245507Y43054680D01*
X20249093Y43051992D01*
X20249096Y43051990D01*
X20253677Y43048556D01*
X20261518Y43042173D01*
X20296388Y43011377D01*
X20304513Y43007562D01*
X20307683Y43005480D01*
X20320670Y42997677D01*
X20323994Y42995857D01*
X20331176Y42990474D01*
X20339577Y42987325D01*
X20339578Y42987324D01*
X20374736Y42974144D01*
X20384053Y42970217D01*
X20418034Y42954263D01*
X20418037Y42954262D01*
X20426163Y42950447D01*
X20435037Y42949065D01*
X20438650Y42947961D01*
X20453307Y42944115D01*
X20457010Y42943301D01*
X20465420Y42940148D01*
X20511843Y42936698D01*
X20521856Y42935548D01*
X20535009Y42933500D01*
X20550204Y42933500D01*
X20559542Y42933154D01*
X20608392Y42929524D01*
X20617168Y42931397D01*
X20626125Y42932008D01*
X20626125Y42932002D01*
X20640318Y42933500D01*
X34953419Y42933500D01*
X35021540Y42913498D01*
X35044056Y42895027D01*
X35081794Y42855948D01*
X35087686Y42852093D01*
X35087690Y42852089D01*
X35168276Y42799356D01*
X35221744Y42764367D01*
X35378506Y42706068D01*
X35385487Y42705137D01*
X35385489Y42705136D01*
X35537308Y42684879D01*
X35537312Y42684879D01*
X35544289Y42683948D01*
X35551300Y42684586D01*
X35551304Y42684586D01*
X35703831Y42698467D01*
X35710852Y42699106D01*
X35739834Y42708523D01*
X35863219Y42748613D01*
X35863222Y42748614D01*
X35869918Y42750790D01*
X35899169Y42768227D01*
X36007529Y42832822D01*
X36007531Y42832823D01*
X36013581Y42836430D01*
X36134700Y42951770D01*
X36227255Y43091077D01*
X36278530Y43226058D01*
X36284148Y43240847D01*
X36284149Y43240849D01*
X36286648Y43247429D01*
X36287628Y43254401D01*
X36309374Y43409131D01*
X36309374Y43409134D01*
X36309925Y43413053D01*
X36310217Y43434000D01*
X36291574Y43600209D01*
X36236570Y43758158D01*
X36232835Y43764135D01*
X36230476Y43769059D01*
X36219082Y43839135D01*
X36247382Y43904247D01*
X36306392Y43943723D01*
X36344108Y43949500D01*
X36824496Y43949500D01*
X36892617Y43929498D01*
X36913591Y43912595D01*
X37816595Y43009591D01*
X37850621Y42947279D01*
X37853500Y42920496D01*
X37853500Y42008325D01*
X37833498Y41940204D01*
X37815663Y41918307D01*
X37772623Y41876159D01*
X37682022Y41735573D01*
X37624818Y41578408D01*
X37623935Y41571420D01*
X37623935Y41571419D01*
X37623115Y41564930D01*
X37603856Y41412475D01*
X37620177Y41246021D01*
X37672970Y41087320D01*
X37759611Y40944259D01*
X37875794Y40823948D01*
X37881686Y40820093D01*
X37881690Y40820089D01*
X37962276Y40767356D01*
X38015744Y40732367D01*
X38172506Y40674068D01*
X38179487Y40673137D01*
X38179489Y40673136D01*
X38331308Y40652879D01*
X38331312Y40652879D01*
X38338289Y40651948D01*
X38345300Y40652586D01*
X38345304Y40652586D01*
X38497831Y40666467D01*
X38504852Y40667106D01*
X38591464Y40695248D01*
X38657219Y40716613D01*
X38657222Y40716614D01*
X38663918Y40718790D01*
X38705715Y40743706D01*
X38805983Y40803477D01*
X38874738Y40821177D01*
X38942147Y40798895D01*
X38986809Y40743706D01*
X38996500Y40695248D01*
X38996500Y38899500D01*
X38976498Y38831379D01*
X38922842Y38784886D01*
X38870500Y38773500D01*
X15884083Y38773500D01*
X15882763Y38773507D01*
X15881425Y38773521D01*
X15793593Y38774441D01*
X15751704Y38765384D01*
X15739130Y38763325D01*
X15728658Y38762150D01*
X15703524Y38759331D01*
X15703522Y38759330D01*
X15696528Y38758546D01*
X15665241Y38747650D01*
X15650436Y38743489D01*
X15624944Y38737978D01*
X15624942Y38737977D01*
X15618058Y38736489D01*
X15611673Y38733512D01*
X15611674Y38733512D01*
X15579215Y38718376D01*
X15567404Y38713580D01*
X15533580Y38701802D01*
X15533578Y38701801D01*
X15526927Y38699485D01*
X15498838Y38681933D01*
X15485319Y38674593D01*
X15473501Y38669082D01*
X15455292Y38660591D01*
X15449723Y38656271D01*
X15449721Y38656270D01*
X15421424Y38634321D01*
X15410972Y38627028D01*
X15374625Y38604316D01*
X15369628Y38599354D01*
X15369627Y38599353D01*
X15346107Y38575997D01*
X15345485Y38575415D01*
X15344823Y38574901D01*
X15318963Y38549041D01*
X15247193Y38477770D01*
X15246541Y38476743D01*
X15245457Y38475535D01*
X14437327Y37667405D01*
X14375015Y37633379D01*
X14348232Y37630500D01*
X13833653Y37630500D01*
X13765532Y37650502D01*
X13718502Y37705351D01*
X13696662Y37754520D01*
X13691939Y37765153D01*
X13612713Y37844241D01*
X13602076Y37848944D01*
X13602074Y37848945D01*
X13542538Y37875265D01*
X13510327Y37889506D01*
X13484646Y37892500D01*
X11871354Y37892500D01*
X11867650Y37892059D01*
X11867647Y37892059D01*
X11860254Y37891179D01*
X11845154Y37889382D01*
X11742847Y37843939D01*
X11663759Y37764713D01*
X11659055Y37754073D01*
X11652483Y37744475D01*
X11648797Y37746999D01*
X11617923Y37710468D01*
X11550054Y37689628D01*
X11481692Y37708788D01*
X11434541Y37761866D01*
X11422500Y37815618D01*
X11422500Y38384622D01*
X11442502Y38452743D01*
X11496158Y38499236D01*
X11566432Y38509340D01*
X11631012Y38479846D01*
X11650506Y38453522D01*
X11652751Y38455065D01*
X11659337Y38445481D01*
X11664061Y38434847D01*
X11743287Y38355759D01*
X11753924Y38351056D01*
X11753926Y38351055D01*
X11813462Y38324735D01*
X11845673Y38310494D01*
X11871354Y38307500D01*
X13484646Y38307500D01*
X13488350Y38307941D01*
X13488353Y38307941D01*
X13495746Y38308821D01*
X13510846Y38310618D01*
X13522621Y38315848D01*
X13602518Y38351337D01*
X13613153Y38356061D01*
X13692241Y38435287D01*
X13699959Y38452743D01*
X13733675Y38529008D01*
X13737506Y38537673D01*
X13740500Y38563354D01*
X13740500Y40176646D01*
X13737382Y40202846D01*
X13716976Y40248788D01*
X13696663Y40294518D01*
X13691939Y40305153D01*
X13612713Y40384241D01*
X13602076Y40388944D01*
X13602074Y40388945D01*
X13542538Y40415265D01*
X13510327Y40429506D01*
X13484646Y40432500D01*
X11871354Y40432500D01*
X11867650Y40432059D01*
X11867647Y40432059D01*
X11860254Y40431179D01*
X11845154Y40429382D01*
X11742847Y40383939D01*
X11663759Y40304713D01*
X11659055Y40294073D01*
X11652483Y40284475D01*
X11648797Y40286999D01*
X11617923Y40250468D01*
X11550054Y40229628D01*
X11481692Y40248788D01*
X11434541Y40301866D01*
X11422500Y40355618D01*
X11422500Y40380496D01*
X11442502Y40448617D01*
X11459405Y40469591D01*
X12362409Y41372595D01*
X12424721Y41406621D01*
X12451504Y41409500D01*
X12480636Y41409500D01*
X12492521Y41408172D01*
X12492562Y41408682D01*
X12501508Y41407962D01*
X12510264Y41405981D01*
X12563080Y41409258D01*
X12570884Y41409500D01*
X12586757Y41409500D01*
X12596869Y41410948D01*
X12606923Y41411978D01*
X12634914Y41413715D01*
X12653355Y41414859D01*
X12661799Y41417907D01*
X12665511Y41418676D01*
X12680216Y41422343D01*
X12683844Y41423404D01*
X12692735Y41424677D01*
X12735099Y41443939D01*
X12744454Y41447746D01*
X12779760Y41460491D01*
X12779764Y41460493D01*
X12788204Y41463540D01*
X12795452Y41468835D01*
X12798792Y41470611D01*
X12811906Y41478274D01*
X12815078Y41480303D01*
X12823245Y41484016D01*
X12830040Y41489871D01*
X12830043Y41489873D01*
X12858492Y41514387D01*
X12866413Y41520676D01*
X12873219Y41525648D01*
X12877153Y41528522D01*
X12887896Y41539265D01*
X12894743Y41545623D01*
X12911428Y41560000D01*
X12931854Y41577600D01*
X12936737Y41585134D01*
X12942636Y41591896D01*
X12942641Y41591892D01*
X12951617Y41602986D01*
X14770165Y43421534D01*
X14832477Y43455560D01*
X14847822Y43457918D01*
X14882852Y43461106D01*
X14907679Y43469173D01*
X15035219Y43510613D01*
X15035222Y43510614D01*
X15041918Y43512790D01*
X15060599Y43523926D01*
X15179529Y43594822D01*
X15179531Y43594823D01*
X15185581Y43598430D01*
X15306700Y43713770D01*
X15399255Y43853077D01*
X15449092Y43984272D01*
X15456148Y44002847D01*
X15456149Y44002849D01*
X15458648Y44009429D01*
X15459952Y44018709D01*
X15481374Y44171131D01*
X15481374Y44171134D01*
X15481925Y44175053D01*
X15482217Y44196000D01*
X15463574Y44362209D01*
X15408570Y44520158D01*
X15319940Y44661996D01*
X15202089Y44780673D01*
X15191838Y44787179D01*
X15143110Y44818102D01*
X15060873Y44870291D01*
X14986775Y44896676D01*
X14909948Y44924033D01*
X14909943Y44924034D01*
X14903313Y44926395D01*
X14896325Y44927228D01*
X14896322Y44927229D01*
X14790186Y44939885D01*
X14737237Y44946199D01*
X14730235Y44945463D01*
X14730233Y44945463D01*
X14577902Y44929452D01*
X14577900Y44929452D01*
X14570902Y44928716D01*
X14412573Y44874817D01*
X14270120Y44787179D01*
X14265088Y44782251D01*
X14264805Y44782030D01*
X14198810Y44755855D01*
X14129140Y44769514D01*
X14113591Y44779661D01*
X14112586Y44780673D01*
X14096514Y44790873D01*
X14053607Y44818102D01*
X13971370Y44870291D01*
X13897272Y44896676D01*
X13820445Y44924033D01*
X13820440Y44924034D01*
X13813810Y44926395D01*
X13806822Y44927228D01*
X13806819Y44927229D01*
X13700683Y44939885D01*
X13647734Y44946199D01*
X13640732Y44945463D01*
X13640730Y44945463D01*
X13488399Y44929452D01*
X13488397Y44929452D01*
X13481399Y44928716D01*
X13323070Y44874817D01*
X13269454Y44841832D01*
X13215066Y44808372D01*
X13180617Y44787179D01*
X13175587Y44782253D01*
X13175579Y44782247D01*
X13132627Y44740185D01*
X13069962Y44706815D01*
X12999203Y44712621D01*
X12955064Y44741425D01*
X12921052Y44775676D01*
X12921048Y44775679D01*
X12916089Y44780673D01*
X12905838Y44787179D01*
X12857110Y44818102D01*
X12774873Y44870291D01*
X12700775Y44896676D01*
X12623948Y44924033D01*
X12623943Y44924034D01*
X12617313Y44926395D01*
X12610325Y44927228D01*
X12610322Y44927229D01*
X12504186Y44939885D01*
X12451237Y44946199D01*
X12444235Y44945463D01*
X12444233Y44945463D01*
X12291902Y44929452D01*
X12291900Y44929452D01*
X12284902Y44928716D01*
X12126573Y44874817D01*
X12072957Y44841832D01*
X12018569Y44808372D01*
X11984120Y44787179D01*
X11864623Y44670159D01*
X11774022Y44529573D01*
X11771612Y44522953D01*
X11771612Y44522952D01*
X11721803Y44386103D01*
X11716818Y44372408D01*
X11715935Y44365420D01*
X11715935Y44365419D01*
X11714645Y44355210D01*
X11695856Y44206475D01*
X11712177Y44040021D01*
X11735003Y43971405D01*
X11739118Y43959034D01*
X11741640Y43888082D01*
X11708654Y43830168D01*
X10964830Y43086344D01*
X10964827Y43086340D01*
X9347720Y41469234D01*
X9338376Y41461768D01*
X9338708Y41461378D01*
X9331872Y41455560D01*
X9324280Y41450770D01*
X9318338Y41444042D01*
X9318337Y41444041D01*
X9289244Y41411099D01*
X9283897Y41405411D01*
X9272680Y41394194D01*
X9269991Y41390606D01*
X9269990Y41390605D01*
X9266550Y41386016D01*
X9260168Y41378177D01*
X9235318Y41350039D01*
X9229377Y41343312D01*
X9225563Y41335189D01*
X9223492Y41332036D01*
X9215673Y41319024D01*
X9213856Y41315705D01*
X9208474Y41308524D01*
X9205325Y41300123D01*
X9205324Y41300122D01*
X9192144Y41264964D01*
X9188217Y41255647D01*
X9172263Y41221666D01*
X9172262Y41221663D01*
X9168447Y41213537D01*
X9167065Y41204663D01*
X9165961Y41201050D01*
X9162115Y41186393D01*
X9161301Y41182690D01*
X9158148Y41174280D01*
X9154698Y41127857D01*
X9153548Y41117844D01*
X9151500Y41104691D01*
X9151500Y41089496D01*
X9151154Y41080159D01*
X9147524Y41031308D01*
X9149397Y41022532D01*
X9150008Y41013575D01*
X9150002Y41013575D01*
X9151500Y40999382D01*
X9151500Y36159354D01*
X9131498Y36091233D01*
X9114595Y36070259D01*
X7224200Y34179864D01*
X7214856Y34172398D01*
X7215188Y34172008D01*
X7208352Y34166190D01*
X7200760Y34161400D01*
X7194818Y34154672D01*
X7194817Y34154671D01*
X7165725Y34121730D01*
X7160378Y34116042D01*
X7149160Y34104824D01*
X7146471Y34101236D01*
X7146470Y34101235D01*
X7143030Y34096646D01*
X7136648Y34088807D01*
X7121461Y34071610D01*
X7105857Y34053942D01*
X7102043Y34045819D01*
X7099972Y34042666D01*
X7092153Y34029654D01*
X7090336Y34026335D01*
X7084954Y34019154D01*
X7081805Y34010753D01*
X7081804Y34010752D01*
X7068624Y33975594D01*
X7064697Y33966277D01*
X7048743Y33932296D01*
X7048742Y33932293D01*
X7044927Y33924167D01*
X7043545Y33915293D01*
X7042441Y33911680D01*
X7038595Y33897023D01*
X7037781Y33893320D01*
X7034628Y33884910D01*
X7031178Y33838487D01*
X7030028Y33828474D01*
X7027980Y33815321D01*
X7027980Y33800126D01*
X7027634Y33790789D01*
X7024004Y33741938D01*
X5451285Y33741938D01*
X5445221Y33818994D01*
X5444067Y33823801D01*
X5444066Y33823807D01*
X5394646Y34029654D01*
X5384573Y34071610D01*
X5369634Y34107676D01*
X5287049Y34307054D01*
X5287047Y34307058D01*
X5285154Y34311628D01*
X5149412Y34533140D01*
X4980689Y34730689D01*
X4783140Y34899412D01*
X4561628Y35035154D01*
X4557058Y35037047D01*
X4557054Y35037049D01*
X4326183Y35132679D01*
X4326181Y35132680D01*
X4321610Y35134573D01*
X4213109Y35160622D01*
X4073807Y35194066D01*
X4073801Y35194067D01*
X4068994Y35195221D01*
X3978809Y35202319D01*
X3877310Y35210307D01*
X3877301Y35210307D01*
X3874853Y35210500D01*
X3745147Y35210500D01*
X3742699Y35210307D01*
X3742690Y35210307D01*
X3641191Y35202319D01*
X3551006Y35195221D01*
X3546199Y35194067D01*
X3546193Y35194066D01*
X3406891Y35160622D01*
X3298390Y35134573D01*
X3293819Y35132680D01*
X3293817Y35132679D01*
X3062946Y35037049D01*
X3062942Y35037047D01*
X3058372Y35035154D01*
X2836860Y34899412D01*
X2639311Y34730689D01*
X2470588Y34533140D01*
X2334846Y34311628D01*
X2332953Y34307058D01*
X2332951Y34307054D01*
X2250366Y34107676D01*
X2235427Y34071610D01*
X2225354Y34029654D01*
X2175934Y33823807D01*
X2175933Y33823801D01*
X2174779Y33818994D01*
X2154396Y33560000D01*
X554000Y33560000D01*
X554000Y37560000D01*
X2154396Y37560000D01*
X2174779Y37301006D01*
X2175933Y37296199D01*
X2175934Y37296193D01*
X2206322Y37169621D01*
X2235427Y37048390D01*
X2237320Y37043819D01*
X2237321Y37043817D01*
X2331748Y36815852D01*
X2334846Y36808372D01*
X2470588Y36586860D01*
X2639311Y36389311D01*
X2836860Y36220588D01*
X3058372Y36084846D01*
X3062942Y36082953D01*
X3062946Y36082951D01*
X3293817Y35987321D01*
X3298390Y35985427D01*
X3365397Y35969340D01*
X3546193Y35925934D01*
X3546199Y35925933D01*
X3551006Y35924779D01*
X3641191Y35917681D01*
X3742690Y35909693D01*
X3742699Y35909693D01*
X3745147Y35909500D01*
X3874853Y35909500D01*
X3877301Y35909693D01*
X3877310Y35909693D01*
X3978809Y35917681D01*
X4068994Y35924779D01*
X4073801Y35925933D01*
X4073807Y35925934D01*
X4254603Y35969340D01*
X4321610Y35985427D01*
X4326183Y35987321D01*
X4557054Y36082951D01*
X4557058Y36082953D01*
X4561628Y36084846D01*
X4783140Y36220588D01*
X4980689Y36389311D01*
X5149412Y36586860D01*
X5285154Y36808372D01*
X5288253Y36815852D01*
X5382679Y37043817D01*
X5382680Y37043819D01*
X5384573Y37048390D01*
X5413678Y37169621D01*
X5444066Y37296193D01*
X5444067Y37296199D01*
X5445221Y37301006D01*
X5465604Y37560000D01*
X5445221Y37818994D01*
X5444067Y37823801D01*
X5444066Y37823807D01*
X5385728Y38066798D01*
X5384573Y38071610D01*
X5285154Y38311628D01*
X5149412Y38533140D01*
X4980689Y38730689D01*
X4967432Y38742012D01*
X4930855Y38773251D01*
X4783140Y38899412D01*
X4561628Y39035154D01*
X4557058Y39037047D01*
X4557054Y39037049D01*
X4326183Y39132679D01*
X4326181Y39132680D01*
X4321610Y39134573D01*
X4233276Y39155780D01*
X4073807Y39194066D01*
X4073801Y39194067D01*
X4068994Y39195221D01*
X3978809Y39202319D01*
X3877310Y39210307D01*
X3877301Y39210307D01*
X3874853Y39210500D01*
X3745147Y39210500D01*
X3742699Y39210307D01*
X3742690Y39210307D01*
X3641191Y39202319D01*
X3551006Y39195221D01*
X3546199Y39194067D01*
X3546193Y39194066D01*
X3386724Y39155780D01*
X3298390Y39134573D01*
X3293819Y39132680D01*
X3293817Y39132679D01*
X3062946Y39037049D01*
X3062942Y39037047D01*
X3058372Y39035154D01*
X2836860Y38899412D01*
X2689145Y38773251D01*
X2652569Y38742012D01*
X2639311Y38730689D01*
X2470588Y38533140D01*
X2334846Y38311628D01*
X2235427Y38071610D01*
X2234272Y38066798D01*
X2175934Y37823807D01*
X2175933Y37823801D01*
X2174779Y37818994D01*
X2154396Y37560000D01*
X554000Y37560000D01*
X554000Y41560000D01*
X2154396Y41560000D01*
X2174779Y41301006D01*
X2175933Y41296199D01*
X2175934Y41296193D01*
X2202295Y41186393D01*
X2235427Y41048390D01*
X2237320Y41043819D01*
X2237321Y41043817D01*
X2329993Y40820089D01*
X2334846Y40808372D01*
X2470588Y40586860D01*
X2639311Y40389311D01*
X2836860Y40220588D01*
X3058372Y40084846D01*
X3062942Y40082953D01*
X3062946Y40082951D01*
X3293817Y39987321D01*
X3298390Y39985427D01*
X3386724Y39964220D01*
X3546193Y39925934D01*
X3546199Y39925933D01*
X3551006Y39924779D01*
X3641191Y39917681D01*
X3742690Y39909693D01*
X3742699Y39909693D01*
X3745147Y39909500D01*
X3874853Y39909500D01*
X3877301Y39909693D01*
X3877310Y39909693D01*
X3978809Y39917681D01*
X4068994Y39924779D01*
X4073801Y39925933D01*
X4073807Y39925934D01*
X4233276Y39964220D01*
X4321610Y39985427D01*
X4326183Y39987321D01*
X4557054Y40082951D01*
X4557058Y40082953D01*
X4561628Y40084846D01*
X4783140Y40220588D01*
X4980689Y40389311D01*
X5149412Y40586860D01*
X5285154Y40808372D01*
X5290008Y40820089D01*
X5382679Y41043817D01*
X5382680Y41043819D01*
X5384573Y41048390D01*
X5417705Y41186393D01*
X5444066Y41296193D01*
X5444067Y41296199D01*
X5445221Y41301006D01*
X5465604Y41560000D01*
X5445221Y41818994D01*
X5444067Y41823801D01*
X5444066Y41823807D01*
X5385728Y42066798D01*
X5384573Y42071610D01*
X5382634Y42076291D01*
X5287049Y42307054D01*
X5287047Y42307058D01*
X5285154Y42311628D01*
X5149412Y42533140D01*
X4980689Y42730689D01*
X4783140Y42899412D01*
X4561628Y43035154D01*
X4557058Y43037047D01*
X4557054Y43037049D01*
X4326183Y43132679D01*
X4326181Y43132680D01*
X4321610Y43134573D01*
X4233276Y43155780D01*
X4073807Y43194066D01*
X4073801Y43194067D01*
X4068994Y43195221D01*
X3978809Y43202319D01*
X3877310Y43210307D01*
X3877301Y43210307D01*
X3874853Y43210500D01*
X3745147Y43210500D01*
X3742699Y43210307D01*
X3742690Y43210307D01*
X3641191Y43202319D01*
X3551006Y43195221D01*
X3546199Y43194067D01*
X3546193Y43194066D01*
X3386724Y43155780D01*
X3298390Y43134573D01*
X3293819Y43132680D01*
X3293817Y43132679D01*
X3062946Y43037049D01*
X3062942Y43037047D01*
X3058372Y43035154D01*
X2836860Y42899412D01*
X2639311Y42730689D01*
X2470588Y42533140D01*
X2334846Y42311628D01*
X2332953Y42307058D01*
X2332951Y42307054D01*
X2237366Y42076291D01*
X2235427Y42071610D01*
X2234272Y42066798D01*
X2175934Y41823807D01*
X2175933Y41823801D01*
X2174779Y41818994D01*
X2154396Y41560000D01*
X554000Y41560000D01*
X554000Y45560000D01*
X2154396Y45560000D01*
X2174779Y45301006D01*
X2175933Y45296199D01*
X2175934Y45296193D01*
X2214220Y45136724D01*
X2235427Y45048390D01*
X2237320Y45043819D01*
X2237321Y45043817D01*
X2331963Y44815333D01*
X2334846Y44808372D01*
X2470588Y44586860D01*
X2639311Y44389311D01*
X2643067Y44386103D01*
X2665807Y44366681D01*
X2836860Y44220588D01*
X3058372Y44084846D01*
X3062942Y44082953D01*
X3062946Y44082951D01*
X3291297Y43988365D01*
X3298390Y43985427D01*
X3356796Y43971405D01*
X3546193Y43925934D01*
X3546199Y43925933D01*
X3551006Y43924779D01*
X3641191Y43917681D01*
X3742690Y43909693D01*
X3742699Y43909693D01*
X3745147Y43909500D01*
X3874853Y43909500D01*
X3877301Y43909693D01*
X3877310Y43909693D01*
X3978809Y43917681D01*
X4068994Y43924779D01*
X4073801Y43925933D01*
X4073807Y43925934D01*
X4263204Y43971405D01*
X4321610Y43985427D01*
X4328703Y43988365D01*
X4557054Y44082951D01*
X4557058Y44082953D01*
X4561628Y44084846D01*
X4783140Y44220588D01*
X4954193Y44366681D01*
X4976933Y44386103D01*
X4980689Y44389311D01*
X5149412Y44586860D01*
X5285154Y44808372D01*
X5288038Y44815333D01*
X5382679Y45043817D01*
X5382680Y45043819D01*
X5384573Y45048390D01*
X5405780Y45136724D01*
X5444066Y45296193D01*
X5444067Y45296199D01*
X5445221Y45301006D01*
X5465604Y45560000D01*
X5445221Y45818994D01*
X5444067Y45823801D01*
X5444066Y45823807D01*
X5385728Y46066798D01*
X5384573Y46071610D01*
X5285154Y46311628D01*
X5149412Y46533140D01*
X4980689Y46730689D01*
X4783140Y46899412D01*
X4561628Y47035154D01*
X4557058Y47037047D01*
X4557054Y47037049D01*
X4326183Y47132679D01*
X4326181Y47132680D01*
X4321610Y47134573D01*
X4221298Y47158656D01*
X4073807Y47194066D01*
X4073801Y47194067D01*
X4068994Y47195221D01*
X3978809Y47202319D01*
X3877310Y47210307D01*
X3877301Y47210307D01*
X3874853Y47210500D01*
X3745147Y47210500D01*
X3742699Y47210307D01*
X3742690Y47210307D01*
X3641191Y47202319D01*
X3551006Y47195221D01*
X3546199Y47194067D01*
X3546193Y47194066D01*
X3398702Y47158656D01*
X3298390Y47134573D01*
X3293819Y47132680D01*
X3293817Y47132679D01*
X3062946Y47037049D01*
X3062942Y47037047D01*
X3058372Y47035154D01*
X2836860Y46899412D01*
X2639311Y46730689D01*
X2470588Y46533140D01*
X2334846Y46311628D01*
X2235427Y46071610D01*
X2234272Y46066798D01*
X2175934Y45823807D01*
X2175933Y45823801D01*
X2174779Y45818994D01*
X2154396Y45560000D01*
X554000Y45560000D01*
X554000Y49560000D01*
X2154396Y49560000D01*
X2174779Y49301006D01*
X2175933Y49296199D01*
X2175934Y49296193D01*
X2214220Y49136724D01*
X2235427Y49048390D01*
X2237320Y49043819D01*
X2237321Y49043817D01*
X2308064Y48873030D01*
X2334846Y48808372D01*
X2470588Y48586860D01*
X2639311Y48389311D01*
X2836860Y48220588D01*
X3058372Y48084846D01*
X3062942Y48082953D01*
X3062946Y48082951D01*
X3278989Y47993463D01*
X3298390Y47985427D01*
X3386724Y47964220D01*
X3546193Y47925934D01*
X3546199Y47925933D01*
X3551006Y47924779D01*
X3633445Y47918291D01*
X3742690Y47909693D01*
X3742699Y47909693D01*
X3745147Y47909500D01*
X3874853Y47909500D01*
X3877301Y47909693D01*
X3877310Y47909693D01*
X3986555Y47918291D01*
X4068994Y47924779D01*
X4073801Y47925933D01*
X4073807Y47925934D01*
X4233276Y47964220D01*
X4321610Y47985427D01*
X4341011Y47993463D01*
X4557054Y48082951D01*
X4557058Y48082953D01*
X4561628Y48084846D01*
X4783140Y48220588D01*
X4980689Y48389311D01*
X5149412Y48586860D01*
X5285154Y48808372D01*
X5311937Y48873030D01*
X5382679Y49043817D01*
X5382680Y49043819D01*
X5384573Y49048390D01*
X5405780Y49136724D01*
X5444066Y49296193D01*
X5444067Y49296199D01*
X5445221Y49301006D01*
X5465604Y49560000D01*
X5445221Y49818994D01*
X5444067Y49823801D01*
X5444066Y49823807D01*
X5405605Y49984006D01*
X5384573Y50071610D01*
X5354990Y50143030D01*
X5287049Y50307054D01*
X5287047Y50307058D01*
X5285154Y50311628D01*
X5149412Y50533140D01*
X4995692Y50713123D01*
X4983897Y50726933D01*
X4980689Y50730689D01*
X4783140Y50899412D01*
X4561628Y51035154D01*
X4557058Y51037047D01*
X4557054Y51037049D01*
X4326183Y51132679D01*
X4326181Y51132680D01*
X4321610Y51134573D01*
X4230120Y51156538D01*
X4073807Y51194066D01*
X4073801Y51194067D01*
X4068994Y51195221D01*
X3978809Y51202319D01*
X3877310Y51210307D01*
X3877301Y51210307D01*
X3874853Y51210500D01*
X3745147Y51210500D01*
X3742699Y51210307D01*
X3742690Y51210307D01*
X3641191Y51202319D01*
X3551006Y51195221D01*
X3546199Y51194067D01*
X3546193Y51194066D01*
X3389880Y51156538D01*
X3298390Y51134573D01*
X3293819Y51132680D01*
X3293817Y51132679D01*
X3062946Y51037049D01*
X3062942Y51037047D01*
X3058372Y51035154D01*
X2836860Y50899412D01*
X2639311Y50730689D01*
X2636103Y50726933D01*
X2624308Y50713123D01*
X2470588Y50533140D01*
X2334846Y50311628D01*
X2332953Y50307058D01*
X2332951Y50307054D01*
X2265010Y50143030D01*
X2235427Y50071610D01*
X2214395Y49984006D01*
X2175934Y49823807D01*
X2175933Y49823801D01*
X2174779Y49818994D01*
X2154396Y49560000D01*
X554000Y49560000D01*
X554000Y53096475D01*
X8901856Y53096475D01*
X8918177Y52930021D01*
X8970970Y52771320D01*
X8974619Y52765295D01*
X9045560Y52648158D01*
X9057611Y52628259D01*
X9173794Y52507948D01*
X9179686Y52504093D01*
X9179690Y52504089D01*
X9246676Y52460255D01*
X9313744Y52416367D01*
X9470506Y52358068D01*
X9477487Y52357137D01*
X9477489Y52357136D01*
X9629308Y52336879D01*
X9629312Y52336879D01*
X9636289Y52335948D01*
X9643300Y52336586D01*
X9643304Y52336586D01*
X9795831Y52350467D01*
X9802852Y52351106D01*
X9809555Y52353284D01*
X9809560Y52353285D01*
X9817809Y52355965D01*
X9888776Y52357990D01*
X9949573Y52321326D01*
X9980896Y52257613D01*
X9972801Y52187079D01*
X9944898Y52146107D01*
X9832623Y52036159D01*
X9828808Y52030239D01*
X9828807Y52030238D01*
X9811444Y52003295D01*
X9742022Y51895573D01*
X9739612Y51888953D01*
X9739612Y51888952D01*
X9729509Y51861193D01*
X9684818Y51738408D01*
X9663856Y51572475D01*
X9680177Y51406021D01*
X9732970Y51247320D01*
X9736619Y51241295D01*
X9800553Y51135728D01*
X9819611Y51104259D01*
X9824502Y51099194D01*
X9824503Y51099193D01*
X9875388Y51046500D01*
X9935794Y50983948D01*
X9941686Y50980093D01*
X9941690Y50980089D01*
X10022276Y50927356D01*
X10075744Y50892367D01*
X10232506Y50834068D01*
X10239487Y50833137D01*
X10239489Y50833136D01*
X10391308Y50812879D01*
X10391312Y50812879D01*
X10398289Y50811948D01*
X10468721Y50818358D01*
X10538373Y50804611D01*
X10589537Y50755390D01*
X10605967Y50686320D01*
X10592998Y50636852D01*
X10590341Y50631498D01*
X10586522Y50625573D01*
X10529318Y50468408D01*
X10528435Y50461420D01*
X10528435Y50461419D01*
X10527145Y50451210D01*
X10508356Y50302475D01*
X10524677Y50136021D01*
X10577470Y49977320D01*
X10581119Y49971295D01*
X10657699Y49844847D01*
X10664111Y49834259D01*
X10669002Y49829194D01*
X10669003Y49829193D01*
X10719888Y49776500D01*
X10780294Y49713948D01*
X10786186Y49710093D01*
X10786190Y49710089D01*
X10853972Y49665734D01*
X10920244Y49622367D01*
X11077006Y49564068D01*
X11083987Y49563137D01*
X11083989Y49563136D01*
X11235808Y49542879D01*
X11235812Y49542879D01*
X11242789Y49541948D01*
X11313221Y49548358D01*
X11382873Y49534611D01*
X11434037Y49485390D01*
X11450467Y49416320D01*
X11437498Y49366852D01*
X11434841Y49361498D01*
X11431022Y49355573D01*
X11373818Y49198408D01*
X11352856Y49032475D01*
X11369177Y48866021D01*
X11421970Y48707320D01*
X11508611Y48564259D01*
X11513502Y48559194D01*
X11513503Y48559193D01*
X11579223Y48491138D01*
X11624794Y48443948D01*
X11630686Y48440093D01*
X11630690Y48440089D01*
X11702548Y48393067D01*
X11764744Y48352367D01*
X11921506Y48294068D01*
X11928487Y48293137D01*
X11928489Y48293136D01*
X12080308Y48272879D01*
X12080312Y48272879D01*
X12087289Y48271948D01*
X12094300Y48272586D01*
X12094304Y48272586D01*
X12246831Y48286467D01*
X12253852Y48287106D01*
X12282834Y48296523D01*
X12406219Y48336613D01*
X12406222Y48336614D01*
X12412918Y48338790D01*
X12503969Y48393067D01*
X12550529Y48420822D01*
X12550531Y48420823D01*
X12556581Y48424430D01*
X12677700Y48539770D01*
X12770255Y48679077D01*
X12776016Y48694242D01*
X12818902Y48750820D01*
X12885570Y48775231D01*
X12893804Y48775500D01*
X24031419Y48775500D01*
X24099540Y48755498D01*
X24122056Y48737027D01*
X24159794Y48697948D01*
X24165686Y48694093D01*
X24165690Y48694089D01*
X24246276Y48641356D01*
X24299744Y48606367D01*
X24456506Y48548068D01*
X24463487Y48547137D01*
X24463489Y48547136D01*
X24615308Y48526879D01*
X24615312Y48526879D01*
X24622289Y48525948D01*
X24629300Y48526586D01*
X24629304Y48526586D01*
X24781831Y48540467D01*
X24788852Y48541106D01*
X24844518Y48559193D01*
X24941219Y48590613D01*
X24941222Y48590614D01*
X24947918Y48592790D01*
X25082818Y48673206D01*
X25085529Y48674822D01*
X25085531Y48674823D01*
X25091581Y48678430D01*
X25212700Y48793770D01*
X25305255Y48933077D01*
X25345670Y49039469D01*
X25362148Y49082847D01*
X25362149Y49082849D01*
X25364648Y49089429D01*
X25387925Y49255053D01*
X25388217Y49276000D01*
X25386179Y49294174D01*
X25370359Y49435210D01*
X25369574Y49442209D01*
X25362069Y49463762D01*
X25328804Y49559284D01*
X25314570Y49600158D01*
X25225940Y49741996D01*
X25196998Y49771141D01*
X25145939Y49822558D01*
X25112132Y49884989D01*
X25117444Y49955787D01*
X25148453Y50002587D01*
X25207593Y50058906D01*
X25207596Y50058909D01*
X25212700Y50063770D01*
X25305255Y50203077D01*
X25364648Y50359429D01*
X25368008Y50383336D01*
X25387374Y50521131D01*
X25387374Y50521134D01*
X25387925Y50525053D01*
X25388217Y50546000D01*
X25369574Y50712209D01*
X25367179Y50719088D01*
X25332609Y50818358D01*
X25314570Y50870158D01*
X25225940Y51011996D01*
X25217959Y51020033D01*
X25145939Y51092558D01*
X25112132Y51154989D01*
X25117444Y51225787D01*
X25148453Y51272587D01*
X25207593Y51328906D01*
X25207596Y51328909D01*
X25212700Y51333770D01*
X25305255Y51473077D01*
X25364648Y51629429D01*
X25379964Y51738408D01*
X25387374Y51791131D01*
X25387374Y51791134D01*
X25387925Y51795053D01*
X25388217Y51816000D01*
X25369574Y51982209D01*
X25314570Y52140158D01*
X25225940Y52281996D01*
X25220976Y52286995D01*
X25145939Y52362558D01*
X25112132Y52424989D01*
X25117444Y52495787D01*
X25148453Y52542587D01*
X25207593Y52598906D01*
X25207596Y52598909D01*
X25212700Y52603770D01*
X25305255Y52743077D01*
X25364648Y52899429D01*
X25368008Y52923336D01*
X25387374Y53061131D01*
X25387374Y53061134D01*
X25387925Y53065053D01*
X25388217Y53086000D01*
X25369574Y53252209D01*
X25314570Y53410158D01*
X25225940Y53551996D01*
X25108089Y53670673D01*
X25097838Y53677179D01*
X25053129Y53705551D01*
X24966873Y53760291D01*
X24942152Y53769094D01*
X24815948Y53814033D01*
X24815943Y53814034D01*
X24809313Y53816395D01*
X24802325Y53817228D01*
X24802322Y53817229D01*
X24710495Y53828179D01*
X24643237Y53836199D01*
X24636235Y53835463D01*
X24636233Y53835463D01*
X24483902Y53819452D01*
X24483900Y53819452D01*
X24476902Y53818716D01*
X24318573Y53764817D01*
X24260672Y53729196D01*
X24182127Y53680875D01*
X24182124Y53680873D01*
X24176120Y53677179D01*
X24171088Y53672251D01*
X24171082Y53672246D01*
X24120259Y53622476D01*
X24057594Y53589106D01*
X24032102Y53586500D01*
X10258125Y53586500D01*
X10190004Y53606502D01*
X10168719Y53623716D01*
X10127051Y53665676D01*
X10122089Y53670673D01*
X10111838Y53677179D01*
X10067129Y53705551D01*
X9980873Y53760291D01*
X9956152Y53769094D01*
X9829948Y53814033D01*
X9829943Y53814034D01*
X9823313Y53816395D01*
X9816325Y53817228D01*
X9816322Y53817229D01*
X9724495Y53828179D01*
X9657237Y53836199D01*
X9650235Y53835463D01*
X9650233Y53835463D01*
X9497902Y53819452D01*
X9497900Y53819452D01*
X9490902Y53818716D01*
X9332573Y53764817D01*
X9261347Y53720998D01*
X9196128Y53680875D01*
X9190120Y53677179D01*
X9070623Y53560159D01*
X8980022Y53419573D01*
X8922818Y53262408D01*
X8921935Y53255420D01*
X8921935Y53255419D01*
X8920645Y53245210D01*
X8901856Y53096475D01*
X554000Y53096475D01*
X554000Y59700475D01*
X16775856Y59700475D01*
X16792177Y59534021D01*
X16844970Y59375320D01*
X16848619Y59369295D01*
X16927727Y59238673D01*
X16931611Y59232259D01*
X17047794Y59111948D01*
X17053686Y59108093D01*
X17053690Y59108089D01*
X17109255Y59071729D01*
X17187744Y59020367D01*
X17344506Y58962068D01*
X17351487Y58961137D01*
X17351489Y58961136D01*
X17503308Y58940879D01*
X17503312Y58940879D01*
X17510289Y58939948D01*
X17517300Y58940586D01*
X17517304Y58940586D01*
X17669831Y58954467D01*
X17676852Y58955106D01*
X17705834Y58964523D01*
X17829219Y59004613D01*
X17829222Y59004614D01*
X17835918Y59006790D01*
X17850236Y59015325D01*
X17944855Y59071729D01*
X18009372Y59089500D01*
X24844381Y59089500D01*
X24860827Y59088422D01*
X24892000Y59084318D01*
X24900188Y59085396D01*
X24931361Y59089500D01*
X25040574Y59103878D01*
X25048762Y59104956D01*
X25194841Y59165464D01*
X25320282Y59261718D01*
X25339430Y59286672D01*
X25350297Y59299062D01*
X25466671Y59415436D01*
X25528983Y59449462D01*
X25599798Y59444397D01*
X25656634Y59401850D01*
X25681445Y59335330D01*
X25680772Y59310549D01*
X25665856Y59192475D01*
X25682177Y59026021D01*
X25734970Y58867320D01*
X25751339Y58840291D01*
X25804737Y58752122D01*
X25821611Y58724259D01*
X25937794Y58603948D01*
X25943686Y58600093D01*
X25943690Y58600089D01*
X26024276Y58547356D01*
X26077744Y58512367D01*
X26234506Y58454068D01*
X26241487Y58453137D01*
X26241489Y58453136D01*
X26395552Y58432580D01*
X26460429Y58403744D01*
X26467983Y58396782D01*
X34269255Y50595510D01*
X34303281Y50533198D01*
X34305559Y50518712D01*
X34318177Y50390021D01*
X34370970Y50231320D01*
X34374619Y50225295D01*
X34451199Y50098847D01*
X34457611Y50088259D01*
X34462502Y50083194D01*
X34462503Y50083193D01*
X34509957Y50034053D01*
X34573794Y49967948D01*
X34579686Y49964093D01*
X34579690Y49964089D01*
X34660276Y49911356D01*
X34713744Y49876367D01*
X34870506Y49818068D01*
X34877487Y49817137D01*
X34877489Y49817136D01*
X35029308Y49796879D01*
X35029312Y49796879D01*
X35036289Y49795948D01*
X35043300Y49796586D01*
X35043304Y49796586D01*
X35195831Y49810467D01*
X35202852Y49811106D01*
X35238097Y49822558D01*
X35355219Y49860613D01*
X35355222Y49860614D01*
X35361918Y49862790D01*
X35391169Y49880227D01*
X35499529Y49944822D01*
X35499531Y49944823D01*
X35505581Y49948430D01*
X35626700Y50063770D01*
X35719255Y50203077D01*
X35778648Y50359429D01*
X35782008Y50383336D01*
X35801374Y50521131D01*
X35801374Y50521134D01*
X35801925Y50525053D01*
X35802217Y50546000D01*
X35783574Y50712209D01*
X35781179Y50719088D01*
X35746609Y50818358D01*
X35728570Y50870158D01*
X35639940Y51011996D01*
X35629614Y51022395D01*
X35572638Y51079770D01*
X35522089Y51130673D01*
X35511838Y51137179D01*
X35386823Y51216515D01*
X35380873Y51220291D01*
X35374241Y51222652D01*
X35374236Y51222655D01*
X35348720Y51231740D01*
X35301890Y51261345D01*
X29264164Y57299071D01*
X29230138Y57361383D01*
X29235203Y57432198D01*
X29277750Y57489034D01*
X29288741Y57496395D01*
X29342757Y57528595D01*
X29374855Y57547729D01*
X29439372Y57565500D01*
X33989075Y57565500D01*
X34057196Y57545498D01*
X34078170Y57528595D01*
X41393865Y50212900D01*
X41427891Y50150588D01*
X41427997Y50149919D01*
X41428024Y50149925D01*
X41429490Y50143030D01*
X41430177Y50136021D01*
X41482970Y49977320D01*
X41486619Y49971295D01*
X41563199Y49844847D01*
X41569611Y49834259D01*
X41574502Y49829194D01*
X41574503Y49829193D01*
X41625388Y49776500D01*
X41685794Y49713948D01*
X41691686Y49710093D01*
X41691690Y49710089D01*
X41759472Y49665734D01*
X41825744Y49622367D01*
X41982506Y49564068D01*
X41989487Y49563137D01*
X41989489Y49563136D01*
X42141308Y49542879D01*
X42141312Y49542879D01*
X42148289Y49541948D01*
X42155300Y49542586D01*
X42155304Y49542586D01*
X42307831Y49556467D01*
X42314852Y49557106D01*
X42370518Y49575193D01*
X42467219Y49606613D01*
X42467222Y49606614D01*
X42473918Y49608790D01*
X42569443Y49665734D01*
X42611529Y49690822D01*
X42611531Y49690823D01*
X42617581Y49694430D01*
X42738700Y49809770D01*
X42831255Y49949077D01*
X42877801Y50071610D01*
X42888148Y50098847D01*
X42888149Y50098849D01*
X42890648Y50105429D01*
X42894008Y50129336D01*
X42913374Y50267131D01*
X42913374Y50267134D01*
X42913925Y50271053D01*
X42914217Y50292000D01*
X42895574Y50458209D01*
X42840570Y50616158D01*
X42751940Y50757996D01*
X42741614Y50768395D01*
X42676397Y50834068D01*
X42634089Y50876673D01*
X42623838Y50883179D01*
X42579129Y50911551D01*
X42492873Y50966291D01*
X42454123Y50980089D01*
X42341948Y51020033D01*
X42341943Y51020034D01*
X42335313Y51022395D01*
X42328325Y51023228D01*
X42328322Y51023229D01*
X42319060Y51024333D01*
X42253787Y51052260D01*
X42244883Y51060352D01*
X34748297Y58556938D01*
X34737429Y58569329D01*
X34723305Y58587736D01*
X34718282Y58594282D01*
X34592841Y58690536D01*
X34446762Y58751044D01*
X34329361Y58766500D01*
X34290000Y58771682D01*
X34281812Y58770604D01*
X34258827Y58767578D01*
X34242381Y58766500D01*
X29437757Y58766500D01*
X29370243Y58786114D01*
X29290816Y58836520D01*
X29290813Y58836522D01*
X29284873Y58840291D01*
X29278240Y58842653D01*
X29133948Y58894033D01*
X29133943Y58894034D01*
X29127313Y58896395D01*
X29120325Y58897228D01*
X29120322Y58897229D01*
X29028495Y58908179D01*
X28961237Y58916199D01*
X28954235Y58915463D01*
X28954233Y58915463D01*
X28801902Y58899452D01*
X28801900Y58899452D01*
X28794902Y58898716D01*
X28636573Y58844817D01*
X28494120Y58757179D01*
X28374623Y58640159D01*
X28370808Y58634239D01*
X28370807Y58634238D01*
X28345057Y58594282D01*
X28284022Y58499573D01*
X28282096Y58500814D01*
X28241272Y58456668D01*
X28172541Y58438878D01*
X28105102Y58461071D01*
X28087518Y58475717D01*
X27131940Y59431295D01*
X27102044Y59478952D01*
X27092570Y59506158D01*
X27003940Y59647996D01*
X26958790Y59693463D01*
X26891051Y59761676D01*
X26886089Y59766673D01*
X26875838Y59773179D01*
X26831129Y59801551D01*
X26744873Y59856291D01*
X26716461Y59866408D01*
X26593948Y59910033D01*
X26593943Y59910034D01*
X26587313Y59912395D01*
X26580325Y59913228D01*
X26580322Y59913229D01*
X26488495Y59924179D01*
X26421237Y59932199D01*
X26414235Y59931463D01*
X26414233Y59931463D01*
X26285878Y59917972D01*
X26216039Y59930744D01*
X26164193Y59979246D01*
X26146798Y60048079D01*
X26169379Y60115389D01*
X26183612Y60132377D01*
X26746341Y60695106D01*
X26808653Y60729132D01*
X26835436Y60732011D01*
X33165047Y60732011D01*
X33234040Y60711443D01*
X33308255Y60662878D01*
X33465017Y60604579D01*
X33471998Y60603648D01*
X33472000Y60603647D01*
X33623819Y60583390D01*
X33623823Y60583390D01*
X33630800Y60582459D01*
X33637811Y60583097D01*
X33637815Y60583097D01*
X33790342Y60596978D01*
X33797363Y60597617D01*
X33840364Y60611589D01*
X33949730Y60647124D01*
X33949733Y60647125D01*
X33956429Y60649301D01*
X34065365Y60714240D01*
X34129883Y60732011D01*
X40219870Y60732011D01*
X40236316Y60730933D01*
X40267489Y60726829D01*
X40275677Y60727907D01*
X40298662Y60730933D01*
X40315108Y60732011D01*
X46390025Y60732011D01*
X46459018Y60711443D01*
X46533233Y60662878D01*
X46689995Y60604579D01*
X46696976Y60603648D01*
X46696978Y60603647D01*
X46848797Y60583390D01*
X46848801Y60583390D01*
X46855778Y60582459D01*
X46862789Y60583097D01*
X46862793Y60583097D01*
X47015320Y60596978D01*
X47022341Y60597617D01*
X47065342Y60611589D01*
X47174708Y60647124D01*
X47174711Y60647125D01*
X47181407Y60649301D01*
X47290343Y60714240D01*
X47354861Y60732011D01*
X50997892Y60732011D01*
X51014338Y60730933D01*
X51045511Y60726829D01*
X51053699Y60727907D01*
X51084872Y60732011D01*
X51119054Y60736511D01*
X51189202Y60725572D01*
X51242301Y60678444D01*
X51261500Y60611589D01*
X51261500Y59264354D01*
X51264618Y59238154D01*
X51310061Y59135847D01*
X51389287Y59056759D01*
X51399924Y59052056D01*
X51399926Y59052055D01*
X51442960Y59033030D01*
X51491673Y59011494D01*
X51517354Y59008500D01*
X53130646Y59008500D01*
X53134350Y59008941D01*
X53134353Y59008941D01*
X53141746Y59009821D01*
X53156846Y59011618D01*
X53205052Y59033030D01*
X53248518Y59052337D01*
X53259153Y59057061D01*
X53273796Y59071729D01*
X53305888Y59103878D01*
X53338241Y59136287D01*
X53349744Y59162304D01*
X53379675Y59230008D01*
X53383506Y59238673D01*
X53386500Y59264354D01*
X53386500Y60877646D01*
X53383382Y60903846D01*
X53337939Y61006153D01*
X53258713Y61085241D01*
X53248076Y61089944D01*
X53248074Y61089945D01*
X53164992Y61126675D01*
X53164993Y61126675D01*
X53156327Y61130506D01*
X53130646Y61133500D01*
X51999927Y61133500D01*
X51931806Y61153502D01*
X51885313Y61207158D01*
X51875209Y61277432D01*
X51904703Y61342012D01*
X51910832Y61348595D01*
X52073832Y61511595D01*
X52136144Y61545621D01*
X52162927Y61548500D01*
X53130646Y61548500D01*
X53134350Y61548941D01*
X53134353Y61548941D01*
X53141746Y61549821D01*
X53156846Y61551618D01*
X53259153Y61597061D01*
X53338241Y61676287D01*
X53383506Y61778673D01*
X53386500Y61804354D01*
X53386500Y63417646D01*
X53383382Y63443846D01*
X53337939Y63546153D01*
X53329473Y63554605D01*
X53266945Y63617023D01*
X53258713Y63625241D01*
X53248076Y63629944D01*
X53248074Y63629945D01*
X53188538Y63656265D01*
X53156327Y63670506D01*
X53130646Y63673500D01*
X51517354Y63673500D01*
X51513650Y63673059D01*
X51513647Y63673059D01*
X51506254Y63672179D01*
X51491154Y63670382D01*
X51388847Y63624939D01*
X51309759Y63545713D01*
X51264494Y63443327D01*
X51261500Y63417646D01*
X51261500Y62449927D01*
X51241498Y62381806D01*
X51224596Y62360832D01*
X50833681Y61969916D01*
X50771368Y61935891D01*
X50744585Y61933011D01*
X47353246Y61933011D01*
X47285732Y61952625D01*
X47206305Y62003031D01*
X47206302Y62003033D01*
X47200362Y62006802D01*
X47193729Y62009164D01*
X47049437Y62060544D01*
X47049432Y62060545D01*
X47042802Y62062906D01*
X47035814Y62063739D01*
X47035811Y62063740D01*
X46943984Y62074690D01*
X46876726Y62082710D01*
X46869724Y62081974D01*
X46869722Y62081974D01*
X46717391Y62065963D01*
X46717389Y62065963D01*
X46710391Y62065227D01*
X46552062Y62011328D01*
X46455128Y61951693D01*
X46389107Y61933011D01*
X40858500Y61933011D01*
X40790379Y61953013D01*
X40743886Y62006669D01*
X40732500Y62059011D01*
X40732500Y63962500D01*
X40752502Y64030621D01*
X40806158Y64077114D01*
X40858500Y64088500D01*
X40938646Y64088500D01*
X40942350Y64088941D01*
X40942353Y64088941D01*
X40949746Y64089821D01*
X40964846Y64091618D01*
X41067153Y64137061D01*
X41146241Y64216287D01*
X41191506Y64318673D01*
X41194500Y64344354D01*
X41609500Y64344354D01*
X41612618Y64318154D01*
X41658061Y64215847D01*
X41737287Y64136759D01*
X41747924Y64132056D01*
X41747926Y64132055D01*
X41807462Y64105735D01*
X41839673Y64091494D01*
X41865354Y64088500D01*
X43478646Y64088500D01*
X43482350Y64088941D01*
X43482353Y64088941D01*
X43489746Y64089821D01*
X43504846Y64091618D01*
X43607153Y64137061D01*
X43686241Y64216287D01*
X43731506Y64318673D01*
X43734500Y64344354D01*
X51261500Y64344354D01*
X51264618Y64318154D01*
X51310061Y64215847D01*
X51389287Y64136759D01*
X51399924Y64132056D01*
X51399926Y64132055D01*
X51459462Y64105735D01*
X51491673Y64091494D01*
X51517354Y64088500D01*
X53130646Y64088500D01*
X53134350Y64088941D01*
X53134353Y64088941D01*
X53141746Y64089821D01*
X53156846Y64091618D01*
X53259153Y64137061D01*
X53338241Y64216287D01*
X53383506Y64318673D01*
X53386500Y64344354D01*
X53386500Y65957646D01*
X53383382Y65983846D01*
X53358440Y66040000D01*
X53342663Y66075518D01*
X53337939Y66086153D01*
X53328152Y66095923D01*
X72195065Y66095923D01*
X72208722Y65704843D01*
X72260477Y65316962D01*
X72349834Y64935983D01*
X72350823Y64933077D01*
X72350825Y64933071D01*
X72474950Y64568457D01*
X72474955Y64568445D01*
X72475943Y64565542D01*
X72637598Y64209174D01*
X72833258Y63870283D01*
X72835047Y63867784D01*
X72835049Y63867781D01*
X73014574Y63617023D01*
X73061053Y63552101D01*
X73063080Y63549786D01*
X73063082Y63549783D01*
X73164516Y63433916D01*
X73318810Y63257667D01*
X73604069Y62989792D01*
X73914107Y62751031D01*
X73916710Y62749404D01*
X73916715Y62749401D01*
X74035687Y62675059D01*
X74245964Y62543663D01*
X74596472Y62369669D01*
X74962287Y62230710D01*
X75339915Y62128110D01*
X75342958Y62127595D01*
X75342964Y62127594D01*
X75722713Y62063364D01*
X75722720Y62063363D01*
X75725754Y62062850D01*
X75728825Y62062635D01*
X75728827Y62062635D01*
X76113053Y62035767D01*
X76113061Y62035767D01*
X76116119Y62035553D01*
X76369704Y62042637D01*
X76504211Y62046394D01*
X76504214Y62046394D01*
X76507285Y62046480D01*
X76510338Y62046866D01*
X76510342Y62046866D01*
X76696145Y62070338D01*
X76895517Y62095525D01*
X76898521Y62096207D01*
X76898524Y62096208D01*
X77274115Y62181540D01*
X77274121Y62181542D01*
X77277111Y62182221D01*
X77422875Y62230710D01*
X77645500Y62304767D01*
X77645506Y62304769D01*
X77648424Y62305740D01*
X77651234Y62306991D01*
X78003111Y62463657D01*
X78003117Y62463660D01*
X78005911Y62464904D01*
X78008580Y62466420D01*
X78343492Y62656676D01*
X78343498Y62656680D01*
X78346160Y62658192D01*
X78665924Y62883761D01*
X78962150Y63139456D01*
X78964271Y63141683D01*
X78964277Y63141689D01*
X79229894Y63420615D01*
X79232011Y63422838D01*
X79241091Y63434459D01*
X79471021Y63728756D01*
X79471023Y63728759D01*
X79472931Y63731201D01*
X79474587Y63733811D01*
X79474593Y63733819D01*
X79680957Y64058997D01*
X79680959Y64059000D01*
X79682610Y64061602D01*
X79686094Y64068498D01*
X79812465Y64318673D01*
X79859046Y64410888D01*
X80000557Y64775723D01*
X80105790Y65152626D01*
X80173742Y65538000D01*
X80186580Y65704843D01*
X80203613Y65926211D01*
X80203613Y65926222D01*
X80203763Y65928165D01*
X80205325Y66040000D01*
X80203090Y66085713D01*
X80186359Y66427778D01*
X80186209Y66430851D01*
X80129044Y66817972D01*
X80113418Y66880647D01*
X80098057Y66942253D01*
X80034376Y67197666D01*
X80029678Y67210861D01*
X79961657Y67401884D01*
X79903107Y67566311D01*
X79736492Y67920386D01*
X79707167Y67969580D01*
X79537700Y68253862D01*
X79536120Y68256513D01*
X79303905Y68571483D01*
X79042061Y68862289D01*
X78753090Y69126156D01*
X78439749Y69360565D01*
X78381465Y69395863D01*
X78107658Y69561687D01*
X78107649Y69561692D01*
X78105030Y69563278D01*
X77752126Y69732362D01*
X77749237Y69733414D01*
X77749231Y69733416D01*
X77387306Y69865145D01*
X77387303Y69865146D01*
X77384407Y69866200D01*
X77107326Y69937342D01*
X77008366Y69962751D01*
X77008363Y69962752D01*
X77005382Y69963517D01*
X76618670Y70023383D01*
X76615613Y70023554D01*
X76615612Y70023554D01*
X76585120Y70025259D01*
X76227962Y70045227D01*
X76224883Y70045098D01*
X76224880Y70045098D01*
X75968770Y70034364D01*
X75836987Y70028841D01*
X75833943Y70028413D01*
X75833941Y70028413D01*
X75799368Y70023554D01*
X75449477Y69974380D01*
X75069131Y69882364D01*
X74699579Y69753673D01*
X74696781Y69752380D01*
X74347146Y69590826D01*
X74347136Y69590821D01*
X74344349Y69589533D01*
X74235829Y69525865D01*
X74009486Y69393071D01*
X74009481Y69393068D01*
X74006831Y69391513D01*
X73908601Y69320145D01*
X73692730Y69163306D01*
X73692721Y69163299D01*
X73690248Y69161502D01*
X73687958Y69159469D01*
X73687952Y69159464D01*
X73399924Y68903740D01*
X73397621Y68901695D01*
X73395532Y68899439D01*
X73142059Y68625713D01*
X73131743Y68614573D01*
X72895152Y68302876D01*
X72690107Y67969580D01*
X72518564Y67617865D01*
X72382162Y67251090D01*
X72282201Y66872754D01*
X72273328Y66817972D01*
X72251840Y66685295D01*
X72219637Y66486469D01*
X72219443Y66483389D01*
X72219443Y66483387D01*
X72199705Y66169663D01*
X72195065Y66095923D01*
X53328152Y66095923D01*
X53258713Y66165241D01*
X53248076Y66169944D01*
X53248074Y66169945D01*
X53188538Y66196265D01*
X53156327Y66210506D01*
X53130646Y66213500D01*
X51517354Y66213500D01*
X51513650Y66213059D01*
X51513647Y66213059D01*
X51506254Y66212179D01*
X51491154Y66210382D01*
X51388847Y66164939D01*
X51309759Y66085713D01*
X51305056Y66075076D01*
X51305055Y66075074D01*
X51278735Y66015538D01*
X51264494Y65983327D01*
X51261500Y65957646D01*
X51261500Y64344354D01*
X43734500Y64344354D01*
X43734500Y65957646D01*
X43731382Y65983846D01*
X43706440Y66040000D01*
X43690663Y66075518D01*
X43685939Y66086153D01*
X43606713Y66165241D01*
X43596076Y66169944D01*
X43596074Y66169945D01*
X43536538Y66196265D01*
X43504327Y66210506D01*
X43478646Y66213500D01*
X41865354Y66213500D01*
X41861650Y66213059D01*
X41861647Y66213059D01*
X41854254Y66212179D01*
X41839154Y66210382D01*
X41736847Y66164939D01*
X41657759Y66085713D01*
X41653056Y66075076D01*
X41653055Y66075074D01*
X41626735Y66015538D01*
X41612494Y65983327D01*
X41609500Y65957646D01*
X41609500Y64344354D01*
X41194500Y64344354D01*
X41194500Y65957646D01*
X41191382Y65983846D01*
X41166440Y66040000D01*
X41150663Y66075518D01*
X41145939Y66086153D01*
X41066713Y66165241D01*
X41056076Y66169944D01*
X41056074Y66169945D01*
X40996538Y66196265D01*
X40964327Y66210506D01*
X40938646Y66213500D01*
X39325354Y66213500D01*
X39321650Y66213059D01*
X39321647Y66213059D01*
X39314254Y66212179D01*
X39299154Y66210382D01*
X39196847Y66164939D01*
X39117759Y66085713D01*
X39113056Y66075076D01*
X39113055Y66075074D01*
X39086735Y66015538D01*
X39072494Y65983327D01*
X39069500Y65957646D01*
X39069500Y64344354D01*
X39072618Y64318154D01*
X39118061Y64215847D01*
X39197287Y64136759D01*
X39207924Y64132056D01*
X39207926Y64132055D01*
X39267462Y64105735D01*
X39299673Y64091494D01*
X39325354Y64088500D01*
X39405500Y64088500D01*
X39473621Y64068498D01*
X39520114Y64014842D01*
X39531500Y63962500D01*
X39531500Y62059011D01*
X39511498Y61990890D01*
X39457842Y61944397D01*
X39405500Y61933011D01*
X34128268Y61933011D01*
X34060754Y61952625D01*
X33981327Y62003031D01*
X33981324Y62003033D01*
X33975384Y62006802D01*
X33968751Y62009164D01*
X33824459Y62060544D01*
X33824454Y62060545D01*
X33817824Y62062906D01*
X33810836Y62063739D01*
X33810833Y62063740D01*
X33719006Y62074690D01*
X33651748Y62082710D01*
X33644746Y62081974D01*
X33644744Y62081974D01*
X33492413Y62065963D01*
X33492411Y62065963D01*
X33485413Y62065227D01*
X33327084Y62011328D01*
X33230150Y61951693D01*
X33164129Y61933011D01*
X26582130Y61933011D01*
X26565684Y61934089D01*
X26542699Y61937115D01*
X26534511Y61938193D01*
X26495150Y61933011D01*
X26377749Y61917555D01*
X26231670Y61857047D01*
X26106229Y61760793D01*
X26087079Y61735836D01*
X26076219Y61723454D01*
X24680170Y60327405D01*
X24617858Y60293379D01*
X24591075Y60290500D01*
X18007757Y60290500D01*
X17940243Y60310114D01*
X17860816Y60360520D01*
X17860813Y60360522D01*
X17854873Y60364291D01*
X17848240Y60366653D01*
X17703948Y60418033D01*
X17703943Y60418034D01*
X17697313Y60420395D01*
X17690325Y60421228D01*
X17690322Y60421229D01*
X17598495Y60432179D01*
X17531237Y60440199D01*
X17524235Y60439463D01*
X17524233Y60439463D01*
X17371902Y60423452D01*
X17371900Y60423452D01*
X17364902Y60422716D01*
X17206573Y60368817D01*
X17139259Y60327405D01*
X17083951Y60293379D01*
X17064120Y60281179D01*
X16944623Y60164159D01*
X16854022Y60023573D01*
X16851612Y60016953D01*
X16851612Y60016952D01*
X16813860Y59913229D01*
X16796818Y59866408D01*
X16795935Y59859420D01*
X16795935Y59859419D01*
X16792716Y59833940D01*
X16775856Y59700475D01*
X554000Y59700475D01*
X554000Y61118154D01*
X18074300Y61118154D01*
X18077418Y61091954D01*
X18122861Y60989647D01*
X18202087Y60910559D01*
X18212724Y60905856D01*
X18212726Y60905855D01*
X18268149Y60881353D01*
X18304473Y60865294D01*
X18330154Y60862300D01*
X20095846Y60862300D01*
X20099550Y60862741D01*
X20099553Y60862741D01*
X20106946Y60863621D01*
X20122046Y60865418D01*
X20141174Y60873914D01*
X20213718Y60906137D01*
X20224353Y60910861D01*
X20303441Y60990087D01*
X20348706Y61092473D01*
X20351700Y61118154D01*
X22574300Y61118154D01*
X22577418Y61091954D01*
X22622861Y60989647D01*
X22702087Y60910559D01*
X22712724Y60905856D01*
X22712726Y60905855D01*
X22768149Y60881353D01*
X22804473Y60865294D01*
X22830154Y60862300D01*
X24595846Y60862300D01*
X24599550Y60862741D01*
X24599553Y60862741D01*
X24606946Y60863621D01*
X24622046Y60865418D01*
X24641174Y60873914D01*
X24713718Y60906137D01*
X24724353Y60910861D01*
X24803441Y60990087D01*
X24848706Y61092473D01*
X24851700Y61118154D01*
X24851700Y62883846D01*
X24848582Y62910046D01*
X24803139Y63012353D01*
X24723913Y63091441D01*
X24713276Y63096144D01*
X24713274Y63096145D01*
X24653738Y63122465D01*
X24621527Y63136706D01*
X24595846Y63139700D01*
X22830154Y63139700D01*
X22826450Y63139259D01*
X22826447Y63139259D01*
X22819054Y63138379D01*
X22803954Y63136582D01*
X22701647Y63091139D01*
X22622559Y63011913D01*
X22617856Y63001276D01*
X22617855Y63001274D01*
X22612779Y62989792D01*
X22577294Y62909527D01*
X22574300Y62883846D01*
X22574300Y61118154D01*
X20351700Y61118154D01*
X20351700Y62883846D01*
X20348582Y62910046D01*
X20303139Y63012353D01*
X20223913Y63091441D01*
X20213276Y63096144D01*
X20213274Y63096145D01*
X20153738Y63122465D01*
X20121527Y63136706D01*
X20095846Y63139700D01*
X18330154Y63139700D01*
X18326450Y63139259D01*
X18326447Y63139259D01*
X18319054Y63138379D01*
X18303954Y63136582D01*
X18201647Y63091139D01*
X18122559Y63011913D01*
X18117856Y63001276D01*
X18117855Y63001274D01*
X18112779Y62989792D01*
X18077294Y62909527D01*
X18074300Y62883846D01*
X18074300Y61118154D01*
X554000Y61118154D01*
X554000Y66095923D01*
X1075065Y66095923D01*
X1088722Y65704843D01*
X1140477Y65316962D01*
X1229834Y64935983D01*
X1230823Y64933077D01*
X1230825Y64933071D01*
X1354950Y64568457D01*
X1354955Y64568445D01*
X1355943Y64565542D01*
X1517598Y64209174D01*
X1713258Y63870283D01*
X1715047Y63867784D01*
X1715049Y63867781D01*
X1894574Y63617023D01*
X1941053Y63552101D01*
X1943080Y63549786D01*
X1943082Y63549783D01*
X2044516Y63433916D01*
X2198810Y63257667D01*
X2484069Y62989792D01*
X2794107Y62751031D01*
X2796710Y62749404D01*
X2796715Y62749401D01*
X2915687Y62675059D01*
X3125964Y62543663D01*
X3476472Y62369669D01*
X3842287Y62230710D01*
X4219915Y62128110D01*
X4222958Y62127595D01*
X4222964Y62127594D01*
X4602713Y62063364D01*
X4602720Y62063363D01*
X4605754Y62062850D01*
X4608825Y62062635D01*
X4608827Y62062635D01*
X4993053Y62035767D01*
X4993061Y62035767D01*
X4996119Y62035553D01*
X5249704Y62042637D01*
X5384211Y62046394D01*
X5384214Y62046394D01*
X5387285Y62046480D01*
X5390338Y62046866D01*
X5390342Y62046866D01*
X5576145Y62070338D01*
X5775517Y62095525D01*
X5778521Y62096207D01*
X5778524Y62096208D01*
X6154115Y62181540D01*
X6154121Y62181542D01*
X6157111Y62182221D01*
X6302875Y62230710D01*
X6525500Y62304767D01*
X6525506Y62304769D01*
X6528424Y62305740D01*
X6531234Y62306991D01*
X6883111Y62463657D01*
X6883117Y62463660D01*
X6885911Y62464904D01*
X6888580Y62466420D01*
X7223492Y62656676D01*
X7223498Y62656680D01*
X7226160Y62658192D01*
X7545924Y62883761D01*
X7842150Y63139456D01*
X7844271Y63141683D01*
X7844277Y63141689D01*
X8109894Y63420615D01*
X8112011Y63422838D01*
X8121091Y63434459D01*
X8351021Y63728756D01*
X8351023Y63728759D01*
X8352931Y63731201D01*
X8354587Y63733811D01*
X8354593Y63733819D01*
X8560957Y64058997D01*
X8560959Y64059000D01*
X8562610Y64061602D01*
X8566094Y64068498D01*
X8692465Y64318673D01*
X8705437Y64344354D01*
X28909500Y64344354D01*
X28912618Y64318154D01*
X28958061Y64215847D01*
X29037287Y64136759D01*
X29047924Y64132056D01*
X29047926Y64132055D01*
X29107462Y64105735D01*
X29139673Y64091494D01*
X29165354Y64088500D01*
X30778646Y64088500D01*
X30782350Y64088941D01*
X30782353Y64088941D01*
X30789746Y64089821D01*
X30804846Y64091618D01*
X30907153Y64137061D01*
X30986241Y64216287D01*
X31031506Y64318673D01*
X31034500Y64344354D01*
X36529500Y64344354D01*
X36532618Y64318154D01*
X36578061Y64215847D01*
X36657287Y64136759D01*
X36667924Y64132056D01*
X36667926Y64132055D01*
X36727462Y64105735D01*
X36759673Y64091494D01*
X36785354Y64088500D01*
X38398646Y64088500D01*
X38402350Y64088941D01*
X38402353Y64088941D01*
X38409746Y64089821D01*
X38424846Y64091618D01*
X38527153Y64137061D01*
X38606241Y64216287D01*
X38651506Y64318673D01*
X38654500Y64344354D01*
X38654500Y65957646D01*
X38651382Y65983846D01*
X38626440Y66040000D01*
X38610663Y66075518D01*
X38605939Y66086153D01*
X38526713Y66165241D01*
X38516076Y66169944D01*
X38516074Y66169945D01*
X38456538Y66196265D01*
X38424327Y66210506D01*
X38398646Y66213500D01*
X36785354Y66213500D01*
X36781650Y66213059D01*
X36781647Y66213059D01*
X36774254Y66212179D01*
X36759154Y66210382D01*
X36656847Y66164939D01*
X36577759Y66085713D01*
X36573056Y66075076D01*
X36573055Y66075074D01*
X36546735Y66015538D01*
X36532494Y65983327D01*
X36529500Y65957646D01*
X36529500Y64344354D01*
X31034500Y64344354D01*
X31034500Y65957646D01*
X31031382Y65983846D01*
X31006440Y66040000D01*
X30990663Y66075518D01*
X30985939Y66086153D01*
X30906713Y66165241D01*
X30896076Y66169944D01*
X30896074Y66169945D01*
X30836538Y66196265D01*
X30804327Y66210506D01*
X30778646Y66213500D01*
X29165354Y66213500D01*
X29161650Y66213059D01*
X29161647Y66213059D01*
X29154254Y66212179D01*
X29139154Y66210382D01*
X29036847Y66164939D01*
X28957759Y66085713D01*
X28953056Y66075076D01*
X28953055Y66075074D01*
X28926735Y66015538D01*
X28912494Y65983327D01*
X28909500Y65957646D01*
X28909500Y64344354D01*
X8705437Y64344354D01*
X8739046Y64410888D01*
X8880557Y64775723D01*
X8985790Y65152626D01*
X9053742Y65538000D01*
X9066580Y65704843D01*
X9083613Y65926211D01*
X9083613Y65926222D01*
X9083763Y65928165D01*
X9085325Y66040000D01*
X9083090Y66085713D01*
X9066359Y66427778D01*
X9066209Y66430851D01*
X9009044Y66817972D01*
X8993418Y66880647D01*
X8992494Y66884354D01*
X28909500Y66884354D01*
X28912618Y66858154D01*
X28958061Y66755847D01*
X29037287Y66676759D01*
X29047924Y66672056D01*
X29047926Y66672055D01*
X29107462Y66645735D01*
X29139673Y66631494D01*
X29165354Y66628500D01*
X30778646Y66628500D01*
X30782350Y66628941D01*
X30782353Y66628941D01*
X30789746Y66629821D01*
X30804846Y66631618D01*
X30907153Y66677061D01*
X30986241Y66756287D01*
X31031506Y66858673D01*
X31034500Y66884354D01*
X36529500Y66884354D01*
X36532618Y66858154D01*
X36578061Y66755847D01*
X36657287Y66676759D01*
X36667924Y66672056D01*
X36667926Y66672055D01*
X36727462Y66645735D01*
X36759673Y66631494D01*
X36785354Y66628500D01*
X38398646Y66628500D01*
X38402350Y66628941D01*
X38402353Y66628941D01*
X38409746Y66629821D01*
X38424846Y66631618D01*
X38527153Y66677061D01*
X38606241Y66756287D01*
X38651506Y66858673D01*
X38654500Y66884354D01*
X39069500Y66884354D01*
X39072618Y66858154D01*
X39118061Y66755847D01*
X39197287Y66676759D01*
X39207924Y66672056D01*
X39207926Y66672055D01*
X39267462Y66645735D01*
X39299673Y66631494D01*
X39325354Y66628500D01*
X40938646Y66628500D01*
X40942350Y66628941D01*
X40942353Y66628941D01*
X40949746Y66629821D01*
X40964846Y66631618D01*
X41067153Y66677061D01*
X41146241Y66756287D01*
X41191506Y66858673D01*
X41194500Y66884354D01*
X41609500Y66884354D01*
X41612618Y66858154D01*
X41658061Y66755847D01*
X41737287Y66676759D01*
X41747924Y66672056D01*
X41747926Y66672055D01*
X41807462Y66645735D01*
X41839673Y66631494D01*
X41865354Y66628500D01*
X43478646Y66628500D01*
X43482350Y66628941D01*
X43482353Y66628941D01*
X43489746Y66629821D01*
X43504846Y66631618D01*
X43607153Y66677061D01*
X43686241Y66756287D01*
X43731506Y66858673D01*
X43734500Y66884354D01*
X51261500Y66884354D01*
X51264618Y66858154D01*
X51310061Y66755847D01*
X51389287Y66676759D01*
X51399924Y66672056D01*
X51399926Y66672055D01*
X51459462Y66645735D01*
X51491673Y66631494D01*
X51517354Y66628500D01*
X53130646Y66628500D01*
X53134350Y66628941D01*
X53134353Y66628941D01*
X53141746Y66629821D01*
X53156846Y66631618D01*
X53259153Y66677061D01*
X53338241Y66756287D01*
X53383506Y66858673D01*
X53386500Y66884354D01*
X53386500Y68497646D01*
X53383382Y68523846D01*
X53362223Y68571483D01*
X53342663Y68615518D01*
X53337939Y68626153D01*
X53258713Y68705241D01*
X53248076Y68709944D01*
X53248074Y68709945D01*
X53188538Y68736265D01*
X53156327Y68750506D01*
X53130646Y68753500D01*
X51517354Y68753500D01*
X51513650Y68753059D01*
X51513647Y68753059D01*
X51506254Y68752179D01*
X51491154Y68750382D01*
X51388847Y68704939D01*
X51309759Y68625713D01*
X51264494Y68523327D01*
X51261500Y68497646D01*
X51261500Y66884354D01*
X43734500Y66884354D01*
X43734500Y68497646D01*
X43731382Y68523846D01*
X43710223Y68571483D01*
X43690663Y68615518D01*
X43685939Y68626153D01*
X43606713Y68705241D01*
X43596076Y68709944D01*
X43596074Y68709945D01*
X43536538Y68736265D01*
X43504327Y68750506D01*
X43478646Y68753500D01*
X41865354Y68753500D01*
X41861650Y68753059D01*
X41861647Y68753059D01*
X41854254Y68752179D01*
X41839154Y68750382D01*
X41736847Y68704939D01*
X41657759Y68625713D01*
X41612494Y68523327D01*
X41609500Y68497646D01*
X41609500Y66884354D01*
X41194500Y66884354D01*
X41194500Y68497646D01*
X41191382Y68523846D01*
X41170223Y68571483D01*
X41150663Y68615518D01*
X41145939Y68626153D01*
X41066713Y68705241D01*
X41056076Y68709944D01*
X41056074Y68709945D01*
X40996538Y68736265D01*
X40964327Y68750506D01*
X40938646Y68753500D01*
X39325354Y68753500D01*
X39321650Y68753059D01*
X39321647Y68753059D01*
X39314254Y68752179D01*
X39299154Y68750382D01*
X39196847Y68704939D01*
X39117759Y68625713D01*
X39072494Y68523327D01*
X39069500Y68497646D01*
X39069500Y66884354D01*
X38654500Y66884354D01*
X38654500Y68497646D01*
X38651382Y68523846D01*
X38630223Y68571483D01*
X38610663Y68615518D01*
X38605939Y68626153D01*
X38526713Y68705241D01*
X38516076Y68709944D01*
X38516074Y68709945D01*
X38456538Y68736265D01*
X38424327Y68750506D01*
X38398646Y68753500D01*
X36785354Y68753500D01*
X36781650Y68753059D01*
X36781647Y68753059D01*
X36774254Y68752179D01*
X36759154Y68750382D01*
X36656847Y68704939D01*
X36577759Y68625713D01*
X36532494Y68523327D01*
X36529500Y68497646D01*
X36529500Y66884354D01*
X31034500Y66884354D01*
X31034500Y68497646D01*
X31031382Y68523846D01*
X31010223Y68571483D01*
X30990663Y68615518D01*
X30985939Y68626153D01*
X30906713Y68705241D01*
X30896076Y68709944D01*
X30896074Y68709945D01*
X30836538Y68736265D01*
X30804327Y68750506D01*
X30778646Y68753500D01*
X29165354Y68753500D01*
X29161650Y68753059D01*
X29161647Y68753059D01*
X29154254Y68752179D01*
X29139154Y68750382D01*
X29036847Y68704939D01*
X28957759Y68625713D01*
X28912494Y68523327D01*
X28909500Y68497646D01*
X28909500Y66884354D01*
X8992494Y66884354D01*
X8978057Y66942253D01*
X8914376Y67197666D01*
X8909678Y67210861D01*
X8841657Y67401884D01*
X8835863Y67418154D01*
X18074300Y67418154D01*
X18077418Y67391954D01*
X18122861Y67289647D01*
X18202087Y67210559D01*
X18212724Y67205856D01*
X18212726Y67205855D01*
X18238040Y67194664D01*
X18304473Y67165294D01*
X18330154Y67162300D01*
X20095846Y67162300D01*
X20099550Y67162741D01*
X20099553Y67162741D01*
X20106946Y67163621D01*
X20122046Y67165418D01*
X20187889Y67194664D01*
X20213718Y67206137D01*
X20224353Y67210861D01*
X20303441Y67290087D01*
X20348706Y67392473D01*
X20351700Y67418154D01*
X22574300Y67418154D01*
X22577418Y67391954D01*
X22622861Y67289647D01*
X22702087Y67210559D01*
X22712724Y67205856D01*
X22712726Y67205855D01*
X22738040Y67194664D01*
X22804473Y67165294D01*
X22830154Y67162300D01*
X24595846Y67162300D01*
X24599550Y67162741D01*
X24599553Y67162741D01*
X24606946Y67163621D01*
X24622046Y67165418D01*
X24687889Y67194664D01*
X24713718Y67206137D01*
X24724353Y67210861D01*
X24803441Y67290087D01*
X24848706Y67392473D01*
X24851700Y67418154D01*
X24851700Y69183846D01*
X24848582Y69210046D01*
X24803139Y69312353D01*
X24723913Y69391441D01*
X24713276Y69396144D01*
X24713274Y69396145D01*
X24653738Y69422465D01*
X24621527Y69436706D01*
X24595846Y69439700D01*
X22830154Y69439700D01*
X22826450Y69439259D01*
X22826447Y69439259D01*
X22819054Y69438379D01*
X22803954Y69436582D01*
X22701647Y69391139D01*
X22622559Y69311913D01*
X22577294Y69209527D01*
X22574300Y69183846D01*
X22574300Y67418154D01*
X20351700Y67418154D01*
X20351700Y69183846D01*
X20348582Y69210046D01*
X20303139Y69312353D01*
X20223913Y69391441D01*
X20213276Y69396144D01*
X20213274Y69396145D01*
X20153738Y69422465D01*
X20121527Y69436706D01*
X20095846Y69439700D01*
X18330154Y69439700D01*
X18326450Y69439259D01*
X18326447Y69439259D01*
X18319054Y69438379D01*
X18303954Y69436582D01*
X18201647Y69391139D01*
X18122559Y69311913D01*
X18077294Y69209527D01*
X18074300Y69183846D01*
X18074300Y67418154D01*
X8835863Y67418154D01*
X8783107Y67566311D01*
X8616492Y67920386D01*
X8587167Y67969580D01*
X8417700Y68253862D01*
X8416120Y68256513D01*
X8183905Y68571483D01*
X7922061Y68862289D01*
X7633090Y69126156D01*
X7319749Y69360565D01*
X7261465Y69395863D01*
X6987658Y69561687D01*
X6987649Y69561692D01*
X6985030Y69563278D01*
X6632126Y69732362D01*
X6629237Y69733414D01*
X6629231Y69733416D01*
X6267306Y69865145D01*
X6267303Y69865146D01*
X6264407Y69866200D01*
X5987326Y69937342D01*
X5888366Y69962751D01*
X5888363Y69962752D01*
X5885382Y69963517D01*
X5498670Y70023383D01*
X5495613Y70023554D01*
X5495612Y70023554D01*
X5465120Y70025259D01*
X5107962Y70045227D01*
X5104883Y70045098D01*
X5104880Y70045098D01*
X4848770Y70034364D01*
X4716987Y70028841D01*
X4713943Y70028413D01*
X4713941Y70028413D01*
X4679368Y70023554D01*
X4329477Y69974380D01*
X3949131Y69882364D01*
X3579579Y69753673D01*
X3576781Y69752380D01*
X3227146Y69590826D01*
X3227136Y69590821D01*
X3224349Y69589533D01*
X3115829Y69525865D01*
X2889486Y69393071D01*
X2889481Y69393068D01*
X2886831Y69391513D01*
X2788601Y69320145D01*
X2572730Y69163306D01*
X2572721Y69163299D01*
X2570248Y69161502D01*
X2567958Y69159469D01*
X2567952Y69159464D01*
X2279924Y68903740D01*
X2277621Y68901695D01*
X2275532Y68899439D01*
X2022059Y68625713D01*
X2011743Y68614573D01*
X1775152Y68302876D01*
X1570107Y67969580D01*
X1398564Y67617865D01*
X1262162Y67251090D01*
X1162201Y66872754D01*
X1153328Y66817972D01*
X1131840Y66685295D01*
X1099637Y66486469D01*
X1099443Y66483389D01*
X1099443Y66483387D01*
X1079705Y66169663D01*
X1075065Y66095923D01*
X554000Y66095923D01*
X554000Y70440000D01*
X574002Y70508121D01*
X627658Y70554614D01*
X680000Y70566000D01*
X80600000Y70566000D01*
X80668121Y70545998D01*
G37*
%TD.AperFunction*%
%TD*%
M02*
