M48
; DRILL file {KiCad 6.0.4-6f826c9f35~116~ubuntu20.04.1} date Fri Sep 23 21:48:10 2022
; FORMAT={-:-/ absolute / metric / decimal}
; #@! TF.CreationDate,2022-09-23T21:48:10+00:00
; #@! TF.GenerationSoftware,Kicad,Pcbnew,6.0.4-6f826c9f35~116~ubuntu20.04.1
; #@! TF.FileFunction,Plated,1,2,PTH
FMAT,2
METRIC
; #@! TA.AperFunction,Plated,PTH,ComponentDrill
T1C0.300
; #@! TA.AperFunction,Plated,PTH,ViaDrill
T2C0.500
; #@! TA.AperFunction,Plated,PTH,ComponentDrill
T3C0.889
; #@! TA.AperFunction,Plated,PTH,ComponentDrill
T4C1.000
; #@! TA.AperFunction,Plated,PTH,ComponentDrill
T5C1.300
; #@! TA.AperFunction,Plated,PTH,ComponentDrill
T6C3.000
%
G90
G05
T1
X57.412Y46.982
X57.412Y45.982
X57.912Y46.482
X58.412Y46.982
X58.412Y45.982
T2
X5.334Y47.498
X5.334Y43.688
X5.334Y39.624
X5.334Y35.56
X6.35Y52.578
X8.382Y64.516
X8.382Y63.246
X8.382Y61.976
X8.382Y60.706
X8.382Y59.436
X8.382Y58.166
X8.382Y56.896
X8.382Y55.626
X8.382Y15.494
X8.382Y14.224
X8.382Y12.954
X8.382Y11.684
X8.382Y10.414
X8.382Y9.144
X8.382Y7.874
X8.382Y6.604
X9.144Y31.242
X9.144Y27.178
X9.144Y23.368
X9.652Y64.516
X9.652Y63.246
X9.652Y61.976
X9.652Y60.706
X9.652Y59.436
X9.652Y58.166
X9.652Y56.896
X9.652Y55.626
X9.652Y53.086
X9.652Y15.494
X9.652Y14.224
X9.652Y12.954
X9.652Y11.684
X9.652Y10.414
X9.652Y9.144
X9.652Y7.874
X9.652Y6.604
X10.414Y51.562
X10.922Y64.516
X10.922Y63.246
X10.922Y61.976
X10.922Y60.706
X10.922Y59.436
X10.922Y58.166
X10.922Y56.896
X10.922Y55.626
X10.922Y15.494
X10.922Y14.224
X10.922Y12.954
X10.922Y11.684
X10.922Y10.414
X10.922Y9.144
X10.922Y7.874
X10.922Y6.604
X11.258Y50.292
X12.103Y49.022
X12.446Y44.196
X12.954Y29.21
X12.954Y23.876
X12.954Y18.288
X13.462Y40.894
X13.642Y44.196
X14.732Y44.196
X14.986Y40.894
X15.494Y56.896
X15.494Y29.21
X15.494Y23.876
X15.494Y18.288
X15.494Y3.556
X15.748Y10.414
X17.272Y45.212
X17.272Y43.942
X17.526Y59.69
X17.526Y46.482
X17.78Y10.414
X17.78Y3.556
X18.542Y43.942
X19.05Y13.97
X19.558Y20.828
X19.558Y18.542
X19.558Y16.51
X19.812Y46.228
X19.812Y25.146
X20.066Y48.006
X20.574Y45.212
X20.828Y13.97
X21.336Y58.166
X21.336Y46.228
X21.336Y26.416
X21.59Y39.624
X21.59Y34.036
X21.59Y31.242
X21.59Y23.622
X21.844Y44.704
X22.352Y20.828
X22.352Y18.542
X22.352Y16.51
X22.86Y31.242
X23.114Y44.704
X23.368Y45.974
X23.368Y39.624
X23.368Y34.036
X23.622Y26.924
X24.13Y31.242
X24.384Y56.896
X24.638Y53.086
X24.638Y51.816
X24.638Y50.546
X24.638Y49.276
X24.892Y45.974
X25.4Y31.242
X25.4Y25.146
X26.162Y64.516
X26.162Y63.246
X26.162Y56.896
X26.162Y22.098
X26.162Y19.05
X26.162Y16.256
X26.416Y59.182
X26.416Y51.562
X26.416Y50.038
X26.416Y48.26
X26.416Y45.974
X26.416Y27.686
X26.67Y55.372
X26.67Y31.242
X27.432Y40.64
X27.432Y36.576
X27.686Y64.516
X27.686Y63.246
X27.686Y33.274
X27.94Y48.514
X28.194Y31.496
X28.702Y55.118
X28.702Y53.34
X28.956Y58.166
X28.956Y50.038
X28.956Y27.686
X29.21Y36.322
X29.21Y32.512
X30.226Y33.528
X30.48Y50.8
X30.734Y45.974
X30.734Y44.704
X30.734Y6.858
X30.734Y5.334
X30.734Y3.556
X30.988Y52.324
X31.496Y36.576
X31.496Y31.496
X31.496Y28.956
X32.258Y47.498
X32.512Y68.326
X32.512Y67.056
X32.512Y65.786
X32.512Y64.516
X32.512Y55.626
X32.766Y59.69
X33.274Y32.512
X33.274Y30.988
X33.274Y23.876
X33.274Y20.066
X33.528Y48.514
X33.647Y61.333
X33.782Y56.896
X33.782Y54.102
X33.782Y49.784
X34.29Y59.69
X34.29Y45.974
X35.052Y55.626
X35.052Y50.546
X35.052Y48.514
X35.052Y30.988
X35.56Y43.434
X35.814Y45.974
X36.068Y59.69
X36.83Y30.988
X37.084Y51.816
X37.846Y52.832
X38.354Y50.292
X38.354Y41.402
X38.608Y59.944
X38.862Y58.166
X38.862Y51.816
X38.862Y45.72
X38.862Y30.988
X39.116Y48.768
X39.624Y50.8
X39.624Y43.18
X39.878Y41.402
X39.878Y25.146
X39.878Y22.098
X39.878Y19.05
X39.878Y15.748
X40.386Y59.944
X41.148Y27.432
X41.656Y36.322
X41.91Y57.658
X42.164Y54.864
X42.164Y52.578
X42.164Y50.292
X42.418Y45.72
X42.418Y43.942
X42.418Y42.164
X42.418Y34.544
X42.672Y36.322
X43.18Y59.182
X43.688Y56.388
X43.688Y27.432
X44.45Y50.292
X45.466Y57.912
X45.72Y47.244
X45.974Y44.45
X45.974Y42.672
X45.974Y40.894
X45.974Y39.37
X45.974Y27.432
X46.228Y54.356
X46.871Y61.333
X46.99Y59.182
X46.99Y48.514
X47.498Y67.818
X47.498Y66.548
X47.498Y65.278
X47.498Y64.008
X47.752Y32.512
X47.752Y30.48
X48.514Y27.432
X49.276Y58.166
X49.276Y56.896
X49.276Y55.626
X49.276Y50.038
X49.276Y45.466
X49.276Y42.418
X49.53Y51.562
X49.784Y39.624
X50.546Y58.166
X50.546Y56.896
X50.546Y55.626
X50.8Y46.482
X50.8Y45.212
X50.8Y34.036
X51.054Y27.432
X51.816Y39.624
X52.07Y46.482
X52.07Y45.212
X52.578Y36.322
X52.578Y16.764
X52.832Y24.384
X52.832Y20.066
X53.34Y46.482
X53.34Y45.212
X53.34Y27.432
X53.594Y39.624
X53.594Y32.004
X54.102Y49.53
X54.61Y45.212
X54.81Y46.682
X54.864Y36.068
X55.118Y43.942
X55.118Y16.764
X55.372Y49.53
X55.372Y30.226
X55.372Y24.384
X55.372Y20.066
X55.626Y27.178
X56.134Y34.29
X56.134Y32.004
X57.15Y30.226
X57.404Y36.068
X57.404Y27.94
X57.404Y16.764
X57.658Y67.564
X57.658Y65.278
X57.658Y62.484
X57.658Y59.436
X57.912Y37.973
X58.674Y26.67
X58.928Y12.192
X58.928Y8.89
X58.928Y5.588
X58.928Y2.794
X59.182Y59.436
X59.436Y16.764
X60.198Y59.436
X60.198Y36.449
X60.706Y53.086
X60.96Y42.926
X61.468Y39.878
X61.722Y54.102
X61.976Y38.608
X62.23Y46.482
X63.246Y38.608
X63.5Y46.482
X64.389Y36.322
X64.389Y33.528
X64.516Y38.608
X64.77Y46.482
X65.024Y64.516
X65.024Y63.246
X65.024Y61.976
X65.024Y60.706
X65.024Y59.436
X65.024Y58.166
X65.024Y56.896
X65.024Y55.626
X65.024Y54.102
X65.278Y15.24
X65.278Y13.97
X65.278Y12.7
X65.278Y11.43
X65.278Y10.16
X65.278Y8.89
X65.278Y7.62
X65.278Y6.35
X66.04Y46.482
X66.294Y64.516
X66.294Y63.246
X66.294Y61.976
X66.294Y60.706
X66.294Y59.436
X66.294Y58.166
X66.294Y56.896
X66.294Y55.626
X66.548Y15.24
X66.548Y13.97
X66.548Y12.7
X66.548Y11.43
X66.548Y10.16
X66.548Y8.89
X66.548Y7.62
X66.548Y6.35
X66.802Y47.752
X66.802Y45.212
X67.31Y46.482
X67.564Y64.516
X67.564Y63.246
X67.564Y61.976
X67.564Y60.706
X67.564Y59.436
X67.564Y58.166
X67.564Y56.896
X67.564Y55.626
X67.564Y43.942
X67.818Y48.768
X67.818Y15.24
X67.818Y13.97
X67.818Y12.7
X67.818Y11.43
X67.818Y10.16
X67.818Y8.89
X67.818Y7.62
X67.818Y6.35
X68.072Y47.498
X68.326Y45.212
X68.326Y18.542
X68.58Y25.146
X68.58Y23.368
X68.58Y21.844
X68.58Y20.32
X68.834Y46.482
X68.834Y43.942
X69.596Y38.608
X69.596Y37.338
X69.85Y54.102
X70.104Y46.482
X70.866Y34.544
X71.374Y46.482
X71.628Y38.608
X71.628Y33.528
X71.755Y31.623
X72.644Y46.482
X72.898Y24.384
X72.898Y20.32
X72.898Y19.05
X72.898Y17.526
X73.406Y31.496
X73.914Y53.594
X73.914Y50.8
X73.914Y48.514
X73.914Y46.482
X73.914Y43.434
X73.914Y40.894
X73.914Y38.608
X74.422Y30.48
X75.692Y29.464
X79.629Y23.749
X79.629Y21.463
T3
X12.678Y63.85
X12.678Y61.31
X12.678Y58.77
X12.678Y56.23
X12.678Y39.37
X12.678Y36.83
X12.678Y34.29
X12.678Y31.75
X12.678Y14.89
X12.678Y12.35
X12.678Y9.81
X12.678Y7.27
X21.336Y6.35
X21.336Y3.81
X23.876Y6.35
X23.876Y3.81
X26.416Y6.35
X26.416Y3.81
X29.972Y67.691
X29.972Y65.151
X35.052Y67.691
X35.052Y65.151
X37.592Y67.691
X37.592Y65.151
X40.132Y67.691
X40.132Y65.151
X42.672Y67.691
X42.672Y65.151
X45.212Y67.691
X45.212Y65.151
X49.784Y67.691
X49.784Y65.151
X49.784Y62.611
X49.784Y60.071
X52.324Y67.691
X52.324Y65.151
X52.324Y62.611
X52.324Y60.071
X54.864Y67.691
X54.864Y65.151
X54.864Y62.611
X54.864Y60.071
X69.778Y63.85
X69.778Y61.31
X69.778Y58.77
X69.778Y56.23
X69.778Y14.89
X69.778Y12.35
X69.778Y9.81
X69.778Y7.27
T4
X19.213Y68.301
X19.213Y62.001
X23.713Y68.301
X23.713Y62.001
T5
X44.196Y9.556
X44.196Y4.476
X49.196Y9.556
X49.196Y4.476
T6
X5.08Y66.04
X5.08Y5.08
X76.2Y66.04
X76.2Y5.08
T0
M30
