  0
SECTION
  2
HEADER
  9
$ANGBASE
  50
0.0
  9
$ANGDIR
  70
1
  9
$MEASUREMENT
  70
0
  0
ENDSEC
  0
SECTION
  2
TABLES
  0
TABLE
  2
LTYPE
  70
4
  0
LTYPE
  5
40F
  2
CONTINUOUS
  70
0
  3
Solid line
  72
65
  73
0
  40
0.0
  0
LTYPE
  5
410
  2
DASHDOT
 70
0
  3
Dash Dot ____ _ ____ _
 72
65
 73
4
 40
2.0
 49
1.25
 49
-0.25
 49
0.25
 49
-0.25
  0
LTYPE
  5
411
  2
DASHED
 70
0
  3
Dashed __ __ __ __ __
 72
65
 73
2
 40
0.75
 49
0.5
 49
-0.25
  0
LTYPE
  5
43B
  2
DOTTED
 70
0
  3
Dotted .  .  .  .
 72
65
 73
2
 40
0.2
 49
0.0
 49
-0.2
  0
ENDTAB
  0
TABLE
  2
STYLE
  70
4
  0
STYLE
  2
KICAD
  70
0
  40
0
  41
1
  42
1
  50
0
  71
0
  3
isocp.shx
  0
STYLE
  2
KICADB
  70
0
  40
0
  41
1
  42
1
  50
0
  71
0
  3
isocp.shx
  0
STYLE
  2
KICADI
  70
0
  40
0
  41
1
  42
1
  50
15
  71
0
  3
isocp.shx
  0
STYLE
  2
KICADBI
  70
0
  40
0
  41
1
  42
1
  50
15
  71
0
  3
isocp.shx
  0
ENDTAB
  0
TABLE
  2
LAYER
  70
1
  0
LAYER
  2
BLACK
  70
0
  62
7
  6
CONTINUOUS
  0
ENDTAB
  0
ENDSEC
  0
SECTION
  2
ENTITIES
0
LINE
8
BLACK
6
CONTINUOUS
10
3.01492
20
0.325098
11
3.02877
21
0.322656
0
LINE
8
BLACK
6
CONTINUOUS
10
3.02877
20
0.322656
11
3.04226
21
0.318684
0
LINE
8
BLACK
6
CONTINUOUS
10
3.04226
20
0.318684
11
3.05523
21
0.313234
0
LINE
8
BLACK
6
CONTINUOUS
10
3.05523
20
0.313234
11
3.06751
21
0.306372
0
LINE
8
BLACK
6
CONTINUOUS
10
3.06751
20
0.306372
11
3.07894
21
0.298184
0
LINE
8
BLACK
6
CONTINUOUS
10
3.07894
20
0.298184
11
3.08939
21
0.288773
0
LINE
8
BLACK
6
CONTINUOUS
10
3.08939
20
0.288773
11
3.09873
21
0.278255
0
LINE
8
BLACK
6
CONTINUOUS
10
3.09873
20
0.278255
11
3.10684
21
0.266761
0
LINE
8
BLACK
6
CONTINUOUS
10
3.10684
20
0.266761
11
3.11362
21
0.254436
0
LINE
8
BLACK
6
CONTINUOUS
10
3.11362
20
0.254436
11
3.11898
21
0.241432
0
LINE
8
BLACK
6
CONTINUOUS
10
3.11898
20
0.241432
11
3.12285
21
0.227912
0
LINE
8
BLACK
6
CONTINUOUS
10
3.12285
20
0.227912
11
3.1252
21
0.214043
0
LINE
8
BLACK
6
CONTINUOUS
10
3.1252
20
0.214043
11
3.12598
21
0.2
0
LINE
8
BLACK
6
CONTINUOUS
10
3.12598
20
0.2
11
3.12594
21
0.196482
0
LINE
8
BLACK
6
CONTINUOUS
10
3.12594
20
0.196482
11
3.12476
21
0.182466
0
LINE
8
BLACK
6
CONTINUOUS
10
3.12476
20
0.182466
11
3.12203
21
0.168669
0
LINE
8
BLACK
6
CONTINUOUS
10
3.12203
20
0.168669
11
3.11777
21
0.155262
0
LINE
8
BLACK
6
CONTINUOUS
10
3.11777
20
0.155262
11
3.11205
21
0.142413
0
LINE
8
BLACK
6
CONTINUOUS
10
3.11205
20
0.142413
11
3.10493
21
0.130281
0
LINE
8
BLACK
6
CONTINUOUS
10
3.10493
20
0.130281
11
3.09651
21
0.119019
0
LINE
8
BLACK
6
CONTINUOUS
10
3.09651
20
0.119019
11
3.08688
21
0.108766
0
LINE
8
BLACK
6
CONTINUOUS
10
3.08688
20
0.108766
11
3.07617
21
0.0996498
0
LINE
8
BLACK
6
CONTINUOUS
10
3.07617
20
0.0996498
11
3.06451
21
0.0917846
0
LINE
8
BLACK
6
CONTINUOUS
10
3.06451
20
0.0917846
11
3.05204
21
0.0852682
0
LINE
8
BLACK
6
CONTINUOUS
10
3.05204
20
0.0852682
11
3.03893
21
0.0801819
0
LINE
8
BLACK
6
CONTINUOUS
10
3.03893
20
0.0801819
11
3.02533
21
0.0765889
0
LINE
8
BLACK
6
CONTINUOUS
10
3.02533
20
0.0765889
11
3.01142
21
0.0745343
0
LINE
8
BLACK
6
CONTINUOUS
10
3.01142
20
0.0745343
11
2.99736
21
0.0740434
0
LINE
8
BLACK
6
CONTINUOUS
10
2.99736
20
0.0740434
11
2.98334
21
0.0751224
0
LINE
8
BLACK
6
CONTINUOUS
10
2.98334
20
0.0751224
11
2.96952
21
0.077758
0
LINE
8
BLACK
6
CONTINUOUS
10
2.96952
20
0.077758
11
2.95609
21
0.0819172
0
LINE
8
BLACK
6
CONTINUOUS
10
2.95609
20
0.0819172
11
2.9432
21
0.0875482
0
LINE
8
BLACK
6
CONTINUOUS
10
2.9432
20
0.0875482
11
2.93102
21
0.0945809
0
LINE
8
BLACK
6
CONTINUOUS
10
2.93102
20
0.0945809
11
2.91969
21
0.102927
0
LINE
8
BLACK
6
CONTINUOUS
10
2.91969
20
0.102927
11
2.90937
21
0.112484
0
LINE
8
BLACK
6
CONTINUOUS
10
2.90937
20
0.112484
11
2.90018
21
0.123131
0
LINE
8
BLACK
6
CONTINUOUS
10
2.90018
20
0.123131
11
2.89224
21
0.134737
0
LINE
8
BLACK
6
CONTINUOUS
10
2.89224
20
0.134737
11
2.88563
21
0.147156
0
LINE
8
BLACK
6
CONTINUOUS
10
2.88563
20
0.147156
11
2.88046
21
0.160233
0
LINE
8
BLACK
6
CONTINUOUS
10
2.88046
20
0.160233
11
2.87677
21
0.173806
0
LINE
8
BLACK
6
CONTINUOUS
10
2.87677
20
0.173806
11
2.87462
21
0.187706
0
LINE
8
BLACK
6
CONTINUOUS
10
2.87462
20
0.187706
11
2.87403
21
0.201759
0
LINE
8
BLACK
6
CONTINUOUS
10
2.87403
20
0.201759
11
2.87501
21
0.21579
0
LINE
8
BLACK
6
CONTINUOUS
10
2.87501
20
0.21579
11
2.87755
21
0.229624
0
LINE
8
BLACK
6
CONTINUOUS
10
2.87755
20
0.229624
11
2.88161
21
0.243089
0
LINE
8
BLACK
6
CONTINUOUS
10
2.88161
20
0.243089
11
2.88715
21
0.256017
0
LINE
8
BLACK
6
CONTINUOUS
10
2.88715
20
0.256017
11
2.8941
21
0.268247
0
LINE
8
BLACK
6
CONTINUOUS
10
2.8941
20
0.268247
11
2.90237
21
0.279626
0
LINE
8
BLACK
6
CONTINUOUS
10
2.90237
20
0.279626
11
2.91185
21
0.290012
0
LINE
8
BLACK
6
CONTINUOUS
10
2.91185
20
0.290012
11
2.92244
21
0.299277
0
LINE
8
BLACK
6
CONTINUOUS
10
2.92244
20
0.299277
11
2.93399
21
0.307304
0
LINE
8
BLACK
6
CONTINUOUS
10
2.93399
20
0.307304
11
2.94636
21
0.313994
0
LINE
8
BLACK
6
CONTINUOUS
10
2.94636
20
0.313994
11
2.9594
21
0.319263
0
LINE
8
BLACK
6
CONTINUOUS
10
2.9594
20
0.319263
11
2.97295
21
0.323045
0
LINE
8
BLACK
6
CONTINUOUS
10
2.97295
20
0.323045
11
2.98683
21
0.325294
0
LINE
8
BLACK
6
CONTINUOUS
10
2.98683
20
0.325294
11
3.00088
21
0.325981
0
LINE
8
BLACK
6
CONTINUOUS
10
3.00088
20
0.325981
11
3.01492
21
0.325098
0
LINE
8
BLACK
6
CONTINUOUS
10
0.453013
20
0.64881
11
0.455568
21
0.647103
0
LINE
8
BLACK
6
CONTINUOUS
10
0.455568
20
0.647103
11
0.457275
21
0.644549
0
LINE
8
BLACK
6
CONTINUOUS
10
0.457275
20
0.644549
11
0.457874
21
0.641535
0
LINE
8
BLACK
6
CONTINUOUS
10
0.457874
20
0.641535
11
0.457874
21
0.208465
0
LINE
8
BLACK
6
CONTINUOUS
10
0.457874
20
0.208465
11
0.457275
21
0.205451
0
LINE
8
BLACK
6
CONTINUOUS
10
0.457275
20
0.205451
11
0.455568
21
0.202897
0
LINE
8
BLACK
6
CONTINUOUS
10
0.455568
20
0.202897
11
0.453013
21
0.20119
0
LINE
8
BLACK
6
CONTINUOUS
10
0.453013
20
0.20119
11
0.45
21
0.200591
0
LINE
8
BLACK
6
CONTINUOUS
10
0.45
20
0.200591
11
0.325951
21
0.200591
0
LINE
8
BLACK
6
CONTINUOUS
10
0.325951
20
0.200591
11
0.325984
21
0.2
0
LINE
8
BLACK
6
CONTINUOUS
10
0.325984
20
0.2
11
0.325935
21
0.196482
0
LINE
8
BLACK
6
CONTINUOUS
10
0.325935
20
0.196482
11
0.324758
21
0.182466
0
LINE
8
BLACK
6
CONTINUOUS
10
0.324758
20
0.182466
11
0.322026
21
0.168669
0
LINE
8
BLACK
6
CONTINUOUS
10
0.322026
20
0.168669
11
0.317773
21
0.155262
0
LINE
8
BLACK
6
CONTINUOUS
10
0.317773
20
0.155262
11
0.312052
21
0.142413
0
LINE
8
BLACK
6
CONTINUOUS
10
0.312052
20
0.142413
11
0.304935
21
0.130281
0
LINE
8
BLACK
6
CONTINUOUS
10
0.304935
20
0.130281
11
0.29651
21
0.119019
0
LINE
8
BLACK
6
CONTINUOUS
10
0.29651
20
0.119019
11
0.286881
21
0.108766
0
LINE
8
BLACK
6
CONTINUOUS
10
0.286881
20
0.108766
11
0.27617
21
0.0996498
0
LINE
8
BLACK
6
CONTINUOUS
10
0.27617
20
0.0996498
11
0.264509
21
0.0917846
0
LINE
8
BLACK
6
CONTINUOUS
10
0.264509
20
0.0917846
11
0.252045
21
0.0852682
0
LINE
8
BLACK
6
CONTINUOUS
10
0.252045
20
0.0852682
11
0.238931
21
0.0801819
0
LINE
8
BLACK
6
CONTINUOUS
10
0.238931
20
0.0801819
11
0.225333
21
0.0765889
0
LINE
8
BLACK
6
CONTINUOUS
10
0.225333
20
0.0765889
11
0.211418
21
0.0745343
0
LINE
8
BLACK
6
CONTINUOUS
10
0.211418
20
0.0745343
11
0.197362
21
0.0740434
0
LINE
8
BLACK
6
CONTINUOUS
10
0.197362
20
0.0740434
11
0.183338
21
0.0751224
0
LINE
8
BLACK
6
CONTINUOUS
10
0.183338
20
0.0751224
11
0.169522
21
0.077758
0
LINE
8
BLACK
6
CONTINUOUS
10
0.169522
20
0.077758
11
0.156085
21
0.0819172
0
LINE
8
BLACK
6
CONTINUOUS
10
0.156085
20
0.0819172
11
0.143197
21
0.0875482
0
LINE
8
BLACK
6
CONTINUOUS
10
0.143197
20
0.0875482
11
0.131016
21
0.0945809
0
LINE
8
BLACK
6
CONTINUOUS
10
0.131016
20
0.0945809
11
0.119695
21
0.102927
0
LINE
8
BLACK
6
CONTINUOUS
10
0.119695
20
0.102927
11
0.109375
21
0.112484
0
LINE
8
BLACK
6
CONTINUOUS
10
0.109375
20
0.112484
11
0.100184
21
0.123131
0
LINE
8
BLACK
6
CONTINUOUS
10
0.100184
20
0.123131
11
0.0922376
21
0.134737
0
LINE
8
BLACK
6
CONTINUOUS
10
0.0922376
20
0.134737
11
0.0856343
21
0.147156
0
LINE
8
BLACK
6
CONTINUOUS
10
0.0856343
20
0.147156
11
0.0804566
21
0.160233
0
LINE
8
BLACK
6
CONTINUOUS
10
0.0804566
20
0.160233
11
0.0767688
21
0.173806
0
LINE
8
BLACK
6
CONTINUOUS
10
0.0767688
20
0.173806
11
0.074617
21
0.187706
0
LINE
8
BLACK
6
CONTINUOUS
10
0.074617
20
0.187706
11
0.074028
21
0.201759
0
LINE
8
BLACK
6
CONTINUOUS
10
0.074028
20
0.201759
11
0.0750092
21
0.21579
0
LINE
8
BLACK
6
CONTINUOUS
10
0.0750092
20
0.21579
11
0.0775482
21
0.229624
0
LINE
8
BLACK
6
CONTINUOUS
10
0.0775482
20
0.229624
11
0.0816135
21
0.243089
0
LINE
8
BLACK
6
CONTINUOUS
10
0.0816135
20
0.243089
11
0.0871544
21
0.256017
0
LINE
8
BLACK
6
CONTINUOUS
10
0.0871544
20
0.256017
11
0.0941019
21
0.268247
0
LINE
8
BLACK
6
CONTINUOUS
10
0.0941019
20
0.268247
11
0.102369
21
0.279626
0
LINE
8
BLACK
6
CONTINUOUS
10
0.102369
20
0.279626
11
0.111853
21
0.290012
0
LINE
8
BLACK
6
CONTINUOUS
10
0.111853
20
0.290012
11
0.122436
21
0.299277
0
LINE
8
BLACK
6
CONTINUOUS
10
0.122436
20
0.299277
11
0.133986
21
0.307304
0
LINE
8
BLACK
6
CONTINUOUS
10
0.133986
20
0.307304
11
0.146359
21
0.313994
0
LINE
8
BLACK
6
CONTINUOUS
10
0.146359
20
0.313994
11
0.1594
21
0.319263
0
LINE
8
BLACK
6
CONTINUOUS
10
0.1594
20
0.319263
11
0.172947
21
0.323045
0
LINE
8
BLACK
6
CONTINUOUS
10
0.172947
20
0.323045
11
0.186831
21
0.325294
0
LINE
8
BLACK
6
CONTINUOUS
10
0.186831
20
0.325294
11
0.20088
21
0.325981
0
LINE
8
BLACK
6
CONTINUOUS
10
0.20088
20
0.325981
11
0.214917
21
0.325098
0
LINE
8
BLACK
6
CONTINUOUS
10
0.214917
20
0.325098
11
0.228769
21
0.322656
0
LINE
8
BLACK
6
CONTINUOUS
10
0.228769
20
0.322656
11
0.242262
21
0.318684
0
LINE
8
BLACK
6
CONTINUOUS
10
0.242262
20
0.318684
11
0.255228
21
0.313234
0
LINE
8
BLACK
6
CONTINUOUS
10
0.255228
20
0.313234
11
0.267506
21
0.306372
0
LINE
8
BLACK
6
CONTINUOUS
10
0.267506
20
0.306372
11
0.278942
21
0.298184
0
LINE
8
BLACK
6
CONTINUOUS
10
0.278942
20
0.298184
11
0.289395
21
0.288773
0
LINE
8
BLACK
6
CONTINUOUS
10
0.289395
20
0.288773
11
0.298733
21
0.278255
0
LINE
8
BLACK
6
CONTINUOUS
10
0.298733
20
0.278255
11
0.300394
21
0.275901
0
LINE
8
BLACK
6
CONTINUOUS
10
0.300394
20
0.275901
11
0.300394
21
0.641535
0
LINE
8
BLACK
6
CONTINUOUS
10
0.300394
20
0.641535
11
0.300993
21
0.644549
0
LINE
8
BLACK
6
CONTINUOUS
10
0.300993
20
0.644549
11
0.3027
21
0.647103
0
LINE
8
BLACK
6
CONTINUOUS
10
0.3027
20
0.647103
11
0.305254
21
0.64881
0
LINE
8
BLACK
6
CONTINUOUS
10
0.305254
20
0.64881
11
0.308268
21
0.649409
0
LINE
8
BLACK
6
CONTINUOUS
10
0.308268
20
0.649409
11
0.45
21
0.649409
0
LINE
8
BLACK
6
CONTINUOUS
10
0.45
20
0.649409
11
0.453013
21
0.64881
0
LINE
8
BLACK
6
CONTINUOUS
10
1.81801
20
0.258495
11
1.82057
21
0.256788
0
LINE
8
BLACK
6
CONTINUOUS
10
1.82057
20
0.256788
11
1.82227
21
0.254234
0
LINE
8
BLACK
6
CONTINUOUS
10
1.82227
20
0.254234
11
1.82287
21
0.25122
0
LINE
8
BLACK
6
CONTINUOUS
10
1.82287
20
0.25122
11
1.82287
21
0.10122
0
LINE
8
BLACK
6
CONTINUOUS
10
1.82287
20
0.10122
11
1.82227
21
0.0982072
0
LINE
8
BLACK
6
CONTINUOUS
10
1.82227
20
0.0982072
11
1.82057
21
0.0956527
0
LINE
8
BLACK
6
CONTINUOUS
10
1.82057
20
0.0956527
11
1.81801
21
0.0939458
0
LINE
8
BLACK
6
CONTINUOUS
10
1.81801
20
0.0939458
11
1.815
21
0.0933465
0
LINE
8
BLACK
6
CONTINUOUS
10
1.815
20
0.0933465
11
1.665
21
0.0933465
0
LINE
8
BLACK
6
CONTINUOUS
10
1.665
20
0.0933465
11
1.66199
21
0.0939458
0
LINE
8
BLACK
6
CONTINUOUS
10
1.66199
20
0.0939458
11
1.65943
21
0.0956527
0
LINE
8
BLACK
6
CONTINUOUS
10
1.65943
20
0.0956527
11
1.65773
21
0.0982072
0
LINE
8
BLACK
6
CONTINUOUS
10
1.65773
20
0.0982072
11
1.65713
21
0.10122
0
LINE
8
BLACK
6
CONTINUOUS
10
1.65713
20
0.10122
11
1.65713
21
0.25122
0
LINE
8
BLACK
6
CONTINUOUS
10
1.65713
20
0.25122
11
1.65773
21
0.254234
0
LINE
8
BLACK
6
CONTINUOUS
10
1.65773
20
0.254234
11
1.65943
21
0.256788
0
LINE
8
BLACK
6
CONTINUOUS
10
1.65943
20
0.256788
11
1.66199
21
0.258495
0
LINE
8
BLACK
6
CONTINUOUS
10
1.66199
20
0.258495
11
1.665
21
0.259094
0
LINE
8
BLACK
6
CONTINUOUS
10
1.665
20
0.259094
11
1.815
21
0.259094
0
LINE
8
BLACK
6
CONTINUOUS
10
1.815
20
0.259094
11
1.81801
21
0.258495
0
LINE
8
BLACK
6
CONTINUOUS
10
2.01486
20
0.258495
11
2.01742
21
0.256788
0
LINE
8
BLACK
6
CONTINUOUS
10
2.01742
20
0.256788
11
2.01913
21
0.254234
0
LINE
8
BLACK
6
CONTINUOUS
10
2.01913
20
0.254234
11
2.01972
21
0.25122
0
LINE
8
BLACK
6
CONTINUOUS
10
2.01972
20
0.25122
11
2.01972
21
0.10122
0
LINE
8
BLACK
6
CONTINUOUS
10
2.01972
20
0.10122
11
2.01913
21
0.0982072
0
LINE
8
BLACK
6
CONTINUOUS
10
2.01913
20
0.0982072
11
2.01742
21
0.0956527
0
LINE
8
BLACK
6
CONTINUOUS
10
2.01742
20
0.0956527
11
2.01486
21
0.0939458
0
LINE
8
BLACK
6
CONTINUOUS
10
2.01486
20
0.0939458
11
2.01185
21
0.0933465
0
LINE
8
BLACK
6
CONTINUOUS
10
2.01185
20
0.0933465
11
1.86185
21
0.0933465
0
LINE
8
BLACK
6
CONTINUOUS
10
1.86185
20
0.0933465
11
1.85884
21
0.0939458
0
LINE
8
BLACK
6
CONTINUOUS
10
1.85884
20
0.0939458
11
1.85628
21
0.0956527
0
LINE
8
BLACK
6
CONTINUOUS
10
1.85628
20
0.0956527
11
1.85458
21
0.0982072
0
LINE
8
BLACK
6
CONTINUOUS
10
1.85458
20
0.0982072
11
1.85398
21
0.10122
0
LINE
8
BLACK
6
CONTINUOUS
10
1.85398
20
0.10122
11
1.85398
21
0.25122
0
LINE
8
BLACK
6
CONTINUOUS
10
1.85398
20
0.25122
11
1.85458
21
0.254234
0
LINE
8
BLACK
6
CONTINUOUS
10
1.85458
20
0.254234
11
1.85628
21
0.256788
0
LINE
8
BLACK
6
CONTINUOUS
10
1.85628
20
0.256788
11
1.85884
21
0.258495
0
LINE
8
BLACK
6
CONTINUOUS
10
1.85884
20
0.258495
11
1.86185
21
0.259094
0
LINE
8
BLACK
6
CONTINUOUS
10
1.86185
20
0.259094
11
2.01185
21
0.259094
0
LINE
8
BLACK
6
CONTINUOUS
10
2.01185
20
0.259094
11
2.01486
21
0.258495
0
LINE
8
BLACK
6
CONTINUOUS
10
0.873013
20
0.187275
11
0.875568
21
0.185568
0
LINE
8
BLACK
6
CONTINUOUS
10
0.875568
20
0.185568
11
0.877275
21
0.183013
0
LINE
8
BLACK
6
CONTINUOUS
10
0.877275
20
0.183013
11
0.877874
21
0.18
0
LINE
8
BLACK
6
CONTINUOUS
10
0.877874
20
0.18
11
0.877874
21
0.12
0
LINE
8
BLACK
6
CONTINUOUS
10
0.877874
20
0.12
11
0.877275
21
0.116987
0
LINE
8
BLACK
6
CONTINUOUS
10
0.877275
20
0.116987
11
0.875568
21
0.114432
0
LINE
8
BLACK
6
CONTINUOUS
10
0.875568
20
0.114432
11
0.873013
21
0.112725
0
LINE
8
BLACK
6
CONTINUOUS
10
0.873013
20
0.112725
11
0.87
21
0.112126
0
LINE
8
BLACK
6
CONTINUOUS
10
0.87
20
0.112126
11
0.81
21
0.112126
0
LINE
8
BLACK
6
CONTINUOUS
10
0.81
20
0.112126
11
0.806987
21
0.112725
0
LINE
8
BLACK
6
CONTINUOUS
10
0.806987
20
0.112725
11
0.804432
21
0.114432
0
LINE
8
BLACK
6
CONTINUOUS
10
0.804432
20
0.114432
11
0.802725
21
0.116987
0
LINE
8
BLACK
6
CONTINUOUS
10
0.802725
20
0.116987
11
0.802126
21
0.12
0
LINE
8
BLACK
6
CONTINUOUS
10
0.802126
20
0.12
11
0.802126
21
0.18
0
LINE
8
BLACK
6
CONTINUOUS
10
0.802126
20
0.18
11
0.802725
21
0.183013
0
LINE
8
BLACK
6
CONTINUOUS
10
0.802725
20
0.183013
11
0.804432
21
0.185568
0
LINE
8
BLACK
6
CONTINUOUS
10
0.804432
20
0.185568
11
0.806987
21
0.187275
0
LINE
8
BLACK
6
CONTINUOUS
10
0.806987
20
0.187275
11
0.81
21
0.187874
0
LINE
8
BLACK
6
CONTINUOUS
10
0.81
20
0.187874
11
0.87
21
0.187874
0
LINE
8
BLACK
6
CONTINUOUS
10
0.87
20
0.187874
11
0.873013
21
0.187275
0
LINE
8
BLACK
6
CONTINUOUS
10
1.07301
20
0.187275
11
1.07557
21
0.185568
0
LINE
8
BLACK
6
CONTINUOUS
10
1.07557
20
0.185568
11
1.07727
21
0.183013
0
LINE
8
BLACK
6
CONTINUOUS
10
1.07727
20
0.183013
11
1.07787
21
0.18
0
LINE
8
BLACK
6
CONTINUOUS
10
1.07787
20
0.18
11
1.07787
21
0.12
0
LINE
8
BLACK
6
CONTINUOUS
10
1.07787
20
0.12
11
1.07727
21
0.116987
0
LINE
8
BLACK
6
CONTINUOUS
10
1.07727
20
0.116987
11
1.07557
21
0.114432
0
LINE
8
BLACK
6
CONTINUOUS
10
1.07557
20
0.114432
11
1.07301
21
0.112725
0
LINE
8
BLACK
6
CONTINUOUS
10
1.07301
20
0.112725
11
1.07
21
0.112126
0
LINE
8
BLACK
6
CONTINUOUS
10
1.07
20
0.112126
11
1.01
21
0.112126
0
LINE
8
BLACK
6
CONTINUOUS
10
1.01
20
0.112126
11
1.00699
21
0.112725
0
LINE
8
BLACK
6
CONTINUOUS
10
1.00699
20
0.112725
11
1.00443
21
0.114432
0
LINE
8
BLACK
6
CONTINUOUS
10
1.00443
20
0.114432
11
1.00273
21
0.116987
0
LINE
8
BLACK
6
CONTINUOUS
10
1.00273
20
0.116987
11
1.00213
21
0.12
0
LINE
8
BLACK
6
CONTINUOUS
10
1.00213
20
0.12
11
1.00213
21
0.18
0
LINE
8
BLACK
6
CONTINUOUS
10
1.00213
20
0.18
11
1.00273
21
0.183013
0
LINE
8
BLACK
6
CONTINUOUS
10
1.00273
20
0.183013
11
1.00443
21
0.185568
0
LINE
8
BLACK
6
CONTINUOUS
10
1.00443
20
0.185568
11
1.00699
21
0.187275
0
LINE
8
BLACK
6
CONTINUOUS
10
1.00699
20
0.187275
11
1.01
21
0.187874
0
LINE
8
BLACK
6
CONTINUOUS
10
1.01
20
0.187874
11
1.07
21
0.187874
0
LINE
8
BLACK
6
CONTINUOUS
10
1.07
20
0.187874
11
1.07301
21
0.187275
0
LINE
8
BLACK
6
CONTINUOUS
10
0.973013
20
0.187275
11
0.975568
21
0.185568
0
LINE
8
BLACK
6
CONTINUOUS
10
0.975568
20
0.185568
11
0.977275
21
0.183013
0
LINE
8
BLACK
6
CONTINUOUS
10
0.977275
20
0.183013
11
0.977874
21
0.18
0
LINE
8
BLACK
6
CONTINUOUS
10
0.977874
20
0.18
11
0.977874
21
0.12
0
LINE
8
BLACK
6
CONTINUOUS
10
0.977874
20
0.12
11
0.977275
21
0.116987
0
LINE
8
BLACK
6
CONTINUOUS
10
0.977275
20
0.116987
11
0.975568
21
0.114432
0
LINE
8
BLACK
6
CONTINUOUS
10
0.975568
20
0.114432
11
0.973013
21
0.112725
0
LINE
8
BLACK
6
CONTINUOUS
10
0.973013
20
0.112725
11
0.97
21
0.112126
0
LINE
8
BLACK
6
CONTINUOUS
10
0.97
20
0.112126
11
0.91
21
0.112126
0
LINE
8
BLACK
6
CONTINUOUS
10
0.91
20
0.112126
11
0.906987
21
0.112725
0
LINE
8
BLACK
6
CONTINUOUS
10
0.906987
20
0.112725
11
0.904432
21
0.114432
0
LINE
8
BLACK
6
CONTINUOUS
10
0.904432
20
0.114432
11
0.902725
21
0.116987
0
LINE
8
BLACK
6
CONTINUOUS
10
0.902725
20
0.116987
11
0.902126
21
0.12
0
LINE
8
BLACK
6
CONTINUOUS
10
0.902126
20
0.12
11
0.902126
21
0.18
0
LINE
8
BLACK
6
CONTINUOUS
10
0.902126
20
0.18
11
0.902725
21
0.183013
0
LINE
8
BLACK
6
CONTINUOUS
10
0.902725
20
0.183013
11
0.904432
21
0.185568
0
LINE
8
BLACK
6
CONTINUOUS
10
0.904432
20
0.185568
11
0.906987
21
0.187275
0
LINE
8
BLACK
6
CONTINUOUS
10
0.906987
20
0.187275
11
0.91
21
0.187874
0
LINE
8
BLACK
6
CONTINUOUS
10
0.91
20
0.187874
11
0.97
21
0.187874
0
LINE
8
BLACK
6
CONTINUOUS
10
0.97
20
0.187874
11
0.973013
21
0.187275
0
LINE
8
BLACK
6
CONTINUOUS
10
2.69494
20
0.64881
11
2.6975
21
0.647103
0
LINE
8
BLACK
6
CONTINUOUS
10
2.6975
20
0.647103
11
2.6992
21
0.644549
0
LINE
8
BLACK
6
CONTINUOUS
10
2.6992
20
0.644549
11
2.6998
21
0.641535
0
LINE
8
BLACK
6
CONTINUOUS
10
2.6998
20
0.641535
11
2.6998
21
0.208465
0
LINE
8
BLACK
6
CONTINUOUS
10
2.6998
20
0.208465
11
2.6992
21
0.205451
0
LINE
8
BLACK
6
CONTINUOUS
10
2.6992
20
0.205451
11
2.6975
21
0.202897
0
LINE
8
BLACK
6
CONTINUOUS
10
2.6975
20
0.202897
11
2.69494
21
0.20119
0
LINE
8
BLACK
6
CONTINUOUS
10
2.69494
20
0.20119
11
2.69193
21
0.200591
0
LINE
8
BLACK
6
CONTINUOUS
10
2.69193
20
0.200591
11
2.41634
21
0.200591
0
LINE
8
BLACK
6
CONTINUOUS
10
2.41634
20
0.200591
11
2.41333
21
0.20119
0
LINE
8
BLACK
6
CONTINUOUS
10
2.41333
20
0.20119
11
2.41077
21
0.202897
0
LINE
8
BLACK
6
CONTINUOUS
10
2.41077
20
0.202897
11
2.40906
21
0.205451
0
LINE
8
BLACK
6
CONTINUOUS
10
2.40906
20
0.205451
11
2.40846
21
0.208465
0
LINE
8
BLACK
6
CONTINUOUS
10
2.40846
20
0.208465
11
2.40846
21
0.641535
0
LINE
8
BLACK
6
CONTINUOUS
10
2.40846
20
0.641535
11
2.40906
21
0.644549
0
LINE
8
BLACK
6
CONTINUOUS
10
2.40906
20
0.644549
11
2.41077
21
0.647103
0
LINE
8
BLACK
6
CONTINUOUS
10
2.41077
20
0.647103
11
2.41333
21
0.64881
0
LINE
8
BLACK
6
CONTINUOUS
10
2.41333
20
0.64881
11
2.41634
21
0.649409
0
LINE
8
BLACK
6
CONTINUOUS
10
2.41634
20
0.649409
11
2.69193
21
0.649409
0
LINE
8
BLACK
6
CONTINUOUS
10
2.69193
20
0.649409
11
2.69494
21
0.64881
0
LINE
8
BLACK
6
CONTINUOUS
10
1.07301
20
0.287275
11
1.07557
21
0.285568
0
LINE
8
BLACK
6
CONTINUOUS
10
1.07557
20
0.285568
11
1.07727
21
0.283013
0
LINE
8
BLACK
6
CONTINUOUS
10
1.07727
20
0.283013
11
1.07787
21
0.28
0
LINE
8
BLACK
6
CONTINUOUS
10
1.07787
20
0.28
11
1.07787
21
0.22
0
LINE
8
BLACK
6
CONTINUOUS
10
1.07787
20
0.22
11
1.07727
21
0.216987
0
LINE
8
BLACK
6
CONTINUOUS
10
1.07727
20
0.216987
11
1.07557
21
0.214432
0
LINE
8
BLACK
6
CONTINUOUS
10
1.07557
20
0.214432
11
1.07301
21
0.212725
0
LINE
8
BLACK
6
CONTINUOUS
10
1.07301
20
0.212725
11
1.07
21
0.212126
0
LINE
8
BLACK
6
CONTINUOUS
10
1.07
20
0.212126
11
1.01
21
0.212126
0
LINE
8
BLACK
6
CONTINUOUS
10
1.01
20
0.212126
11
1.00699
21
0.212725
0
LINE
8
BLACK
6
CONTINUOUS
10
1.00699
20
0.212725
11
1.00443
21
0.214432
0
LINE
8
BLACK
6
CONTINUOUS
10
1.00443
20
0.214432
11
1.00273
21
0.216987
0
LINE
8
BLACK
6
CONTINUOUS
10
1.00273
20
0.216987
11
1.00213
21
0.22
0
LINE
8
BLACK
6
CONTINUOUS
10
1.00213
20
0.22
11
1.00213
21
0.28
0
LINE
8
BLACK
6
CONTINUOUS
10
1.00213
20
0.28
11
1.00273
21
0.283013
0
LINE
8
BLACK
6
CONTINUOUS
10
1.00273
20
0.283013
11
1.00443
21
0.285568
0
LINE
8
BLACK
6
CONTINUOUS
10
1.00443
20
0.285568
11
1.00699
21
0.287275
0
LINE
8
BLACK
6
CONTINUOUS
10
1.00699
20
0.287275
11
1.01
21
0.287874
0
LINE
8
BLACK
6
CONTINUOUS
10
1.01
20
0.287874
11
1.07
21
0.287874
0
LINE
8
BLACK
6
CONTINUOUS
10
1.07
20
0.287874
11
1.07301
21
0.287275
0
LINE
8
BLACK
6
CONTINUOUS
10
0.873013
20
0.287275
11
0.875568
21
0.285568
0
LINE
8
BLACK
6
CONTINUOUS
10
0.875568
20
0.285568
11
0.877275
21
0.283013
0
LINE
8
BLACK
6
CONTINUOUS
10
0.877275
20
0.283013
11
0.877874
21
0.28
0
LINE
8
BLACK
6
CONTINUOUS
10
0.877874
20
0.28
11
0.877874
21
0.22
0
LINE
8
BLACK
6
CONTINUOUS
10
0.877874
20
0.22
11
0.877275
21
0.216987
0
LINE
8
BLACK
6
CONTINUOUS
10
0.877275
20
0.216987
11
0.875568
21
0.214432
0
LINE
8
BLACK
6
CONTINUOUS
10
0.875568
20
0.214432
11
0.873013
21
0.212725
0
LINE
8
BLACK
6
CONTINUOUS
10
0.873013
20
0.212725
11
0.87
21
0.212126
0
LINE
8
BLACK
6
CONTINUOUS
10
0.87
20
0.212126
11
0.81
21
0.212126
0
LINE
8
BLACK
6
CONTINUOUS
10
0.81
20
0.212126
11
0.806987
21
0.212725
0
LINE
8
BLACK
6
CONTINUOUS
10
0.806987
20
0.212725
11
0.804432
21
0.214432
0
LINE
8
BLACK
6
CONTINUOUS
10
0.804432
20
0.214432
11
0.802725
21
0.216987
0
LINE
8
BLACK
6
CONTINUOUS
10
0.802725
20
0.216987
11
0.802126
21
0.22
0
LINE
8
BLACK
6
CONTINUOUS
10
0.802126
20
0.22
11
0.802126
21
0.28
0
LINE
8
BLACK
6
CONTINUOUS
10
0.802126
20
0.28
11
0.802725
21
0.283013
0
LINE
8
BLACK
6
CONTINUOUS
10
0.802725
20
0.283013
11
0.804432
21
0.285568
0
LINE
8
BLACK
6
CONTINUOUS
10
0.804432
20
0.285568
11
0.806987
21
0.287275
0
LINE
8
BLACK
6
CONTINUOUS
10
0.806987
20
0.287275
11
0.81
21
0.287874
0
LINE
8
BLACK
6
CONTINUOUS
10
0.81
20
0.287874
11
0.87
21
0.287874
0
LINE
8
BLACK
6
CONTINUOUS
10
0.87
20
0.287874
11
0.873013
21
0.287275
0
LINE
8
BLACK
6
CONTINUOUS
10
0.973013
20
0.287275
11
0.975568
21
0.285568
0
LINE
8
BLACK
6
CONTINUOUS
10
0.975568
20
0.285568
11
0.977275
21
0.283013
0
LINE
8
BLACK
6
CONTINUOUS
10
0.977275
20
0.283013
11
0.977874
21
0.28
0
LINE
8
BLACK
6
CONTINUOUS
10
0.977874
20
0.28
11
0.977874
21
0.22
0
LINE
8
BLACK
6
CONTINUOUS
10
0.977874
20
0.22
11
0.977275
21
0.216987
0
LINE
8
BLACK
6
CONTINUOUS
10
0.977275
20
0.216987
11
0.975568
21
0.214432
0
LINE
8
BLACK
6
CONTINUOUS
10
0.975568
20
0.214432
11
0.973013
21
0.212725
0
LINE
8
BLACK
6
CONTINUOUS
10
0.973013
20
0.212725
11
0.97
21
0.212126
0
LINE
8
BLACK
6
CONTINUOUS
10
0.97
20
0.212126
11
0.91
21
0.212126
0
LINE
8
BLACK
6
CONTINUOUS
10
0.91
20
0.212126
11
0.906987
21
0.212725
0
LINE
8
BLACK
6
CONTINUOUS
10
0.906987
20
0.212725
11
0.904432
21
0.214432
0
LINE
8
BLACK
6
CONTINUOUS
10
0.904432
20
0.214432
11
0.902725
21
0.216987
0
LINE
8
BLACK
6
CONTINUOUS
10
0.902725
20
0.216987
11
0.902126
21
0.22
0
LINE
8
BLACK
6
CONTINUOUS
10
0.902126
20
0.22
11
0.902126
21
0.28
0
LINE
8
BLACK
6
CONTINUOUS
10
0.902126
20
0.28
11
0.902725
21
0.283013
0
LINE
8
BLACK
6
CONTINUOUS
10
0.902725
20
0.283013
11
0.904432
21
0.285568
0
LINE
8
BLACK
6
CONTINUOUS
10
0.904432
20
0.285568
11
0.906987
21
0.287275
0
LINE
8
BLACK
6
CONTINUOUS
10
0.906987
20
0.287275
11
0.91
21
0.287874
0
LINE
8
BLACK
6
CONTINUOUS
10
0.91
20
0.287874
11
0.97
21
0.287874
0
LINE
8
BLACK
6
CONTINUOUS
10
0.97
20
0.287874
11
0.973013
21
0.287275
0
LINE
8
BLACK
6
CONTINUOUS
10
0.532147
20
0.323495
11
0.534702
21
0.321788
0
LINE
8
BLACK
6
CONTINUOUS
10
0.534702
20
0.321788
11
0.536409
21
0.319234
0
LINE
8
BLACK
6
CONTINUOUS
10
0.536409
20
0.319234
11
0.537008
21
0.31622
0
LINE
8
BLACK
6
CONTINUOUS
10
0.537008
20
0.31622
11
0.537008
21
0.25622
0
LINE
8
BLACK
6
CONTINUOUS
10
0.537008
20
0.25622
11
0.536409
21
0.253207
0
LINE
8
BLACK
6
CONTINUOUS
10
0.536409
20
0.253207
11
0.534702
21
0.250653
0
LINE
8
BLACK
6
CONTINUOUS
10
0.534702
20
0.250653
11
0.532147
21
0.248946
0
LINE
8
BLACK
6
CONTINUOUS
10
0.532147
20
0.248946
11
0.529134
21
0.248346
0
LINE
8
BLACK
6
CONTINUOUS
10
0.529134
20
0.248346
11
0.469134
21
0.248346
0
LINE
8
BLACK
6
CONTINUOUS
10
0.469134
20
0.248346
11
0.466121
21
0.248946
0
LINE
8
BLACK
6
CONTINUOUS
10
0.466121
20
0.248946
11
0.463566
21
0.250653
0
LINE
8
BLACK
6
CONTINUOUS
10
0.463566
20
0.250653
11
0.461859
21
0.253207
0
LINE
8
BLACK
6
CONTINUOUS
10
0.461859
20
0.253207
11
0.46126
21
0.25622
0
LINE
8
BLACK
6
CONTINUOUS
10
0.46126
20
0.25622
11
0.46126
21
0.31622
0
LINE
8
BLACK
6
CONTINUOUS
10
0.46126
20
0.31622
11
0.461859
21
0.319234
0
LINE
8
BLACK
6
CONTINUOUS
10
0.461859
20
0.319234
11
0.463566
21
0.321788
0
LINE
8
BLACK
6
CONTINUOUS
10
0.463566
20
0.321788
11
0.466121
21
0.323495
0
LINE
8
BLACK
6
CONTINUOUS
10
0.466121
20
0.323495
11
0.469134
21
0.324094
0
LINE
8
BLACK
6
CONTINUOUS
10
0.469134
20
0.324094
11
0.529134
21
0.324094
0
LINE
8
BLACK
6
CONTINUOUS
10
0.529134
20
0.324094
11
0.532147
21
0.323495
0
LINE
8
BLACK
6
CONTINUOUS
10
2.78018
20
0.323495
11
2.78273
21
0.321788
0
LINE
8
BLACK
6
CONTINUOUS
10
2.78273
20
0.321788
11
2.78444
21
0.319234
0
LINE
8
BLACK
6
CONTINUOUS
10
2.78444
20
0.319234
11
2.78504
21
0.31622
0
LINE
8
BLACK
6
CONTINUOUS
10
2.78504
20
0.31622
11
2.78504
21
0.25622
0
LINE
8
BLACK
6
CONTINUOUS
10
2.78504
20
0.25622
11
2.78444
21
0.253207
0
LINE
8
BLACK
6
CONTINUOUS
10
2.78444
20
0.253207
11
2.78273
21
0.250653
0
LINE
8
BLACK
6
CONTINUOUS
10
2.78273
20
0.250653
11
2.78018
21
0.248946
0
LINE
8
BLACK
6
CONTINUOUS
10
2.78018
20
0.248946
11
2.77717
21
0.248346
0
LINE
8
BLACK
6
CONTINUOUS
10
2.77717
20
0.248346
11
2.71717
21
0.248346
0
LINE
8
BLACK
6
CONTINUOUS
10
2.71717
20
0.248346
11
2.71415
21
0.248946
0
LINE
8
BLACK
6
CONTINUOUS
10
2.71415
20
0.248946
11
2.7116
21
0.250653
0
LINE
8
BLACK
6
CONTINUOUS
10
2.7116
20
0.250653
11
2.70989
21
0.253207
0
LINE
8
BLACK
6
CONTINUOUS
10
2.70989
20
0.253207
11
2.70929
21
0.25622
0
LINE
8
BLACK
6
CONTINUOUS
10
2.70929
20
0.25622
11
2.70929
21
0.31622
0
LINE
8
BLACK
6
CONTINUOUS
10
2.70929
20
0.31622
11
2.70989
21
0.319234
0
LINE
8
BLACK
6
CONTINUOUS
10
2.70989
20
0.319234
11
2.7116
21
0.321788
0
LINE
8
BLACK
6
CONTINUOUS
10
2.7116
20
0.321788
11
2.71415
21
0.323495
0
LINE
8
BLACK
6
CONTINUOUS
10
2.71415
20
0.323495
11
2.71717
21
0.324094
0
LINE
8
BLACK
6
CONTINUOUS
10
2.71717
20
0.324094
11
2.77717
21
0.324094
0
LINE
8
BLACK
6
CONTINUOUS
10
2.77717
20
0.324094
11
2.78018
21
0.323495
0
LINE
8
BLACK
6
CONTINUOUS
10
2.01486
20
0.458495
11
2.01742
21
0.456788
0
LINE
8
BLACK
6
CONTINUOUS
10
2.01742
20
0.456788
11
2.01913
21
0.454234
0
LINE
8
BLACK
6
CONTINUOUS
10
2.01913
20
0.454234
11
2.01972
21
0.45122
0
LINE
8
BLACK
6
CONTINUOUS
10
2.01972
20
0.45122
11
2.01972
21
0.30122
0
LINE
8
BLACK
6
CONTINUOUS
10
2.01972
20
0.30122
11
2.01913
21
0.298207
0
LINE
8
BLACK
6
CONTINUOUS
10
2.01913
20
0.298207
11
2.01742
21
0.295653
0
LINE
8
BLACK
6
CONTINUOUS
10
2.01742
20
0.295653
11
2.01486
21
0.293946
0
LINE
8
BLACK
6
CONTINUOUS
10
2.01486
20
0.293946
11
2.01185
21
0.293346
0
LINE
8
BLACK
6
CONTINUOUS
10
2.01185
20
0.293346
11
1.86185
21
0.293346
0
LINE
8
BLACK
6
CONTINUOUS
10
1.86185
20
0.293346
11
1.85884
21
0.293946
0
LINE
8
BLACK
6
CONTINUOUS
10
1.85884
20
0.293946
11
1.85628
21
0.295653
0
LINE
8
BLACK
6
CONTINUOUS
10
1.85628
20
0.295653
11
1.85458
21
0.298207
0
LINE
8
BLACK
6
CONTINUOUS
10
1.85458
20
0.298207
11
1.85398
21
0.30122
0
LINE
8
BLACK
6
CONTINUOUS
10
1.85398
20
0.30122
11
1.85398
21
0.45122
0
LINE
8
BLACK
6
CONTINUOUS
10
1.85398
20
0.45122
11
1.85458
21
0.454234
0
LINE
8
BLACK
6
CONTINUOUS
10
1.85458
20
0.454234
11
1.85628
21
0.456788
0
LINE
8
BLACK
6
CONTINUOUS
10
1.85628
20
0.456788
11
1.85884
21
0.458495
0
LINE
8
BLACK
6
CONTINUOUS
10
1.85884
20
0.458495
11
1.86185
21
0.459094
0
LINE
8
BLACK
6
CONTINUOUS
10
1.86185
20
0.459094
11
2.01185
21
0.459094
0
LINE
8
BLACK
6
CONTINUOUS
10
2.01185
20
0.459094
11
2.01486
21
0.458495
0
LINE
8
BLACK
6
CONTINUOUS
10
1.81801
20
0.458495
11
1.82057
21
0.456788
0
LINE
8
BLACK
6
CONTINUOUS
10
1.82057
20
0.456788
11
1.82227
21
0.454234
0
LINE
8
BLACK
6
CONTINUOUS
10
1.82227
20
0.454234
11
1.82287
21
0.45122
0
LINE
8
BLACK
6
CONTINUOUS
10
1.82287
20
0.45122
11
1.82287
21
0.30122
0
LINE
8
BLACK
6
CONTINUOUS
10
1.82287
20
0.30122
11
1.82227
21
0.298207
0
LINE
8
BLACK
6
CONTINUOUS
10
1.82227
20
0.298207
11
1.82057
21
0.295653
0
LINE
8
BLACK
6
CONTINUOUS
10
1.82057
20
0.295653
11
1.81801
21
0.293946
0
LINE
8
BLACK
6
CONTINUOUS
10
1.81801
20
0.293946
11
1.815
21
0.293346
0
LINE
8
BLACK
6
CONTINUOUS
10
1.815
20
0.293346
11
1.665
21
0.293346
0
LINE
8
BLACK
6
CONTINUOUS
10
1.665
20
0.293346
11
1.66199
21
0.293946
0
LINE
8
BLACK
6
CONTINUOUS
10
1.66199
20
0.293946
11
1.65943
21
0.295653
0
LINE
8
BLACK
6
CONTINUOUS
10
1.65943
20
0.295653
11
1.65773
21
0.298207
0
LINE
8
BLACK
6
CONTINUOUS
10
1.65773
20
0.298207
11
1.65713
21
0.30122
0
LINE
8
BLACK
6
CONTINUOUS
10
1.65713
20
0.30122
11
1.65713
21
0.45122
0
LINE
8
BLACK
6
CONTINUOUS
10
1.65713
20
0.45122
11
1.65773
21
0.454234
0
LINE
8
BLACK
6
CONTINUOUS
10
1.65773
20
0.454234
11
1.65943
21
0.456788
0
LINE
8
BLACK
6
CONTINUOUS
10
1.65943
20
0.456788
11
1.66199
21
0.458495
0
LINE
8
BLACK
6
CONTINUOUS
10
1.66199
20
0.458495
11
1.665
21
0.459094
0
LINE
8
BLACK
6
CONTINUOUS
10
1.665
20
0.459094
11
1.815
21
0.459094
0
LINE
8
BLACK
6
CONTINUOUS
10
1.815
20
0.459094
11
1.81801
21
0.458495
0
LINE
8
BLACK
6
CONTINUOUS
10
0.532147
20
0.423495
11
0.534702
21
0.421788
0
LINE
8
BLACK
6
CONTINUOUS
10
0.534702
20
0.421788
11
0.536409
21
0.419234
0
LINE
8
BLACK
6
CONTINUOUS
10
0.536409
20
0.419234
11
0.537008
21
0.41622
0
LINE
8
BLACK
6
CONTINUOUS
10
0.537008
20
0.41622
11
0.537008
21
0.35622
0
LINE
8
BLACK
6
CONTINUOUS
10
0.537008
20
0.35622
11
0.536409
21
0.353207
0
LINE
8
BLACK
6
CONTINUOUS
10
0.536409
20
0.353207
11
0.534702
21
0.350653
0
LINE
8
BLACK
6
CONTINUOUS
10
0.534702
20
0.350653
11
0.532147
21
0.348946
0
LINE
8
BLACK
6
CONTINUOUS
10
0.532147
20
0.348946
11
0.529134
21
0.348346
0
LINE
8
BLACK
6
CONTINUOUS
10
0.529134
20
0.348346
11
0.469134
21
0.348346
0
LINE
8
BLACK
6
CONTINUOUS
10
0.469134
20
0.348346
11
0.466121
21
0.348946
0
LINE
8
BLACK
6
CONTINUOUS
10
0.466121
20
0.348946
11
0.463566
21
0.350653
0
LINE
8
BLACK
6
CONTINUOUS
10
0.463566
20
0.350653
11
0.461859
21
0.353207
0
LINE
8
BLACK
6
CONTINUOUS
10
0.461859
20
0.353207
11
0.46126
21
0.35622
0
LINE
8
BLACK
6
CONTINUOUS
10
0.46126
20
0.35622
11
0.46126
21
0.41622
0
LINE
8
BLACK
6
CONTINUOUS
10
0.46126
20
0.41622
11
0.461859
21
0.419234
0
LINE
8
BLACK
6
CONTINUOUS
10
0.461859
20
0.419234
11
0.463566
21
0.421788
0
LINE
8
BLACK
6
CONTINUOUS
10
0.463566
20
0.421788
11
0.466121
21
0.423495
0
LINE
8
BLACK
6
CONTINUOUS
10
0.466121
20
0.423495
11
0.469134
21
0.424094
0
LINE
8
BLACK
6
CONTINUOUS
10
0.469134
20
0.424094
11
0.529134
21
0.424094
0
LINE
8
BLACK
6
CONTINUOUS
10
0.529134
20
0.424094
11
0.532147
21
0.423495
0
LINE
8
BLACK
6
CONTINUOUS
10
2.78018
20
0.423495
11
2.78273
21
0.421788
0
LINE
8
BLACK
6
CONTINUOUS
10
2.78273
20
0.421788
11
2.78444
21
0.419234
0
LINE
8
BLACK
6
CONTINUOUS
10
2.78444
20
0.419234
11
2.78504
21
0.41622
0
LINE
8
BLACK
6
CONTINUOUS
10
2.78504
20
0.41622
11
2.78504
21
0.35622
0
LINE
8
BLACK
6
CONTINUOUS
10
2.78504
20
0.35622
11
2.78444
21
0.353207
0
LINE
8
BLACK
6
CONTINUOUS
10
2.78444
20
0.353207
11
2.78273
21
0.350653
0
LINE
8
BLACK
6
CONTINUOUS
10
2.78273
20
0.350653
11
2.78018
21
0.348946
0
LINE
8
BLACK
6
CONTINUOUS
10
2.78018
20
0.348946
11
2.77717
21
0.348346
0
LINE
8
BLACK
6
CONTINUOUS
10
2.77717
20
0.348346
11
2.71717
21
0.348346
0
LINE
8
BLACK
6
CONTINUOUS
10
2.71717
20
0.348346
11
2.71415
21
0.348946
0
LINE
8
BLACK
6
CONTINUOUS
10
2.71415
20
0.348946
11
2.7116
21
0.350653
0
LINE
8
BLACK
6
CONTINUOUS
10
2.7116
20
0.350653
11
2.70989
21
0.353207
0
LINE
8
BLACK
6
CONTINUOUS
10
2.70989
20
0.353207
11
2.70929
21
0.35622
0
LINE
8
BLACK
6
CONTINUOUS
10
2.70929
20
0.35622
11
2.70929
21
0.41622
0
LINE
8
BLACK
6
CONTINUOUS
10
2.70929
20
0.41622
11
2.70989
21
0.419234
0
LINE
8
BLACK
6
CONTINUOUS
10
2.70989
20
0.419234
11
2.7116
21
0.421788
0
LINE
8
BLACK
6
CONTINUOUS
10
2.7116
20
0.421788
11
2.71415
21
0.423495
0
LINE
8
BLACK
6
CONTINUOUS
10
2.71415
20
0.423495
11
2.71717
21
0.424094
0
LINE
8
BLACK
6
CONTINUOUS
10
2.71717
20
0.424094
11
2.77717
21
0.424094
0
LINE
8
BLACK
6
CONTINUOUS
10
2.77717
20
0.424094
11
2.78018
21
0.423495
0
LINE
8
BLACK
6
CONTINUOUS
10
0.532147
20
0.523495
11
0.534702
21
0.521788
0
LINE
8
BLACK
6
CONTINUOUS
10
0.534702
20
0.521788
11
0.536409
21
0.519234
0
LINE
8
BLACK
6
CONTINUOUS
10
0.536409
20
0.519234
11
0.537008
21
0.51622
0
LINE
8
BLACK
6
CONTINUOUS
10
0.537008
20
0.51622
11
0.537008
21
0.45622
0
LINE
8
BLACK
6
CONTINUOUS
10
0.537008
20
0.45622
11
0.536409
21
0.453207
0
LINE
8
BLACK
6
CONTINUOUS
10
0.536409
20
0.453207
11
0.534702
21
0.450653
0
LINE
8
BLACK
6
CONTINUOUS
10
0.534702
20
0.450653
11
0.532147
21
0.448946
0
LINE
8
BLACK
6
CONTINUOUS
10
0.532147
20
0.448946
11
0.529134
21
0.448346
0
LINE
8
BLACK
6
CONTINUOUS
10
0.529134
20
0.448346
11
0.469134
21
0.448346
0
LINE
8
BLACK
6
CONTINUOUS
10
0.469134
20
0.448346
11
0.466121
21
0.448946
0
LINE
8
BLACK
6
CONTINUOUS
10
0.466121
20
0.448946
11
0.463566
21
0.450653
0
LINE
8
BLACK
6
CONTINUOUS
10
0.463566
20
0.450653
11
0.461859
21
0.453207
0
LINE
8
BLACK
6
CONTINUOUS
10
0.461859
20
0.453207
11
0.46126
21
0.45622
0
LINE
8
BLACK
6
CONTINUOUS
10
0.46126
20
0.45622
11
0.46126
21
0.51622
0
LINE
8
BLACK
6
CONTINUOUS
10
0.46126
20
0.51622
11
0.461859
21
0.519234
0
LINE
8
BLACK
6
CONTINUOUS
10
0.461859
20
0.519234
11
0.463566
21
0.521788
0
LINE
8
BLACK
6
CONTINUOUS
10
0.463566
20
0.521788
11
0.466121
21
0.523495
0
LINE
8
BLACK
6
CONTINUOUS
10
0.466121
20
0.523495
11
0.469134
21
0.524094
0
LINE
8
BLACK
6
CONTINUOUS
10
0.469134
20
0.524094
11
0.529134
21
0.524094
0
LINE
8
BLACK
6
CONTINUOUS
10
0.529134
20
0.524094
11
0.532147
21
0.523495
0
LINE
8
BLACK
6
CONTINUOUS
10
2.78018
20
0.523495
11
2.78273
21
0.521788
0
LINE
8
BLACK
6
CONTINUOUS
10
2.78273
20
0.521788
11
2.78444
21
0.519234
0
LINE
8
BLACK
6
CONTINUOUS
10
2.78444
20
0.519234
11
2.78504
21
0.51622
0
LINE
8
BLACK
6
CONTINUOUS
10
2.78504
20
0.51622
11
2.78504
21
0.45622
0
LINE
8
BLACK
6
CONTINUOUS
10
2.78504
20
0.45622
11
2.78444
21
0.453207
0
LINE
8
BLACK
6
CONTINUOUS
10
2.78444
20
0.453207
11
2.78273
21
0.450653
0
LINE
8
BLACK
6
CONTINUOUS
10
2.78273
20
0.450653
11
2.78018
21
0.448946
0
LINE
8
BLACK
6
CONTINUOUS
10
2.78018
20
0.448946
11
2.77717
21
0.448346
0
LINE
8
BLACK
6
CONTINUOUS
10
2.77717
20
0.448346
11
2.71717
21
0.448346
0
LINE
8
BLACK
6
CONTINUOUS
10
2.71717
20
0.448346
11
2.71415
21
0.448946
0
LINE
8
BLACK
6
CONTINUOUS
10
2.71415
20
0.448946
11
2.7116
21
0.450653
0
LINE
8
BLACK
6
CONTINUOUS
10
2.7116
20
0.450653
11
2.70989
21
0.453207
0
LINE
8
BLACK
6
CONTINUOUS
10
2.70989
20
0.453207
11
2.70929
21
0.45622
0
LINE
8
BLACK
6
CONTINUOUS
10
2.70929
20
0.45622
11
2.70929
21
0.51622
0
LINE
8
BLACK
6
CONTINUOUS
10
2.70929
20
0.51622
11
2.70989
21
0.519234
0
LINE
8
BLACK
6
CONTINUOUS
10
2.70989
20
0.519234
11
2.7116
21
0.521788
0
LINE
8
BLACK
6
CONTINUOUS
10
2.7116
20
0.521788
11
2.71415
21
0.523495
0
LINE
8
BLACK
6
CONTINUOUS
10
2.71415
20
0.523495
11
2.71717
21
0.524094
0
LINE
8
BLACK
6
CONTINUOUS
10
2.71717
20
0.524094
11
2.77717
21
0.524094
0
LINE
8
BLACK
6
CONTINUOUS
10
2.77717
20
0.524094
11
2.78018
21
0.523495
0
LINE
8
BLACK
6
CONTINUOUS
10
0.532147
20
0.623495
11
0.534702
21
0.621788
0
LINE
8
BLACK
6
CONTINUOUS
10
0.534702
20
0.621788
11
0.536409
21
0.619234
0
LINE
8
BLACK
6
CONTINUOUS
10
0.536409
20
0.619234
11
0.537008
21
0.61622
0
LINE
8
BLACK
6
CONTINUOUS
10
0.537008
20
0.61622
11
0.537008
21
0.55622
0
LINE
8
BLACK
6
CONTINUOUS
10
0.537008
20
0.55622
11
0.536409
21
0.553207
0
LINE
8
BLACK
6
CONTINUOUS
10
0.536409
20
0.553207
11
0.534702
21
0.550653
0
LINE
8
BLACK
6
CONTINUOUS
10
0.534702
20
0.550653
11
0.532147
21
0.548946
0
LINE
8
BLACK
6
CONTINUOUS
10
0.532147
20
0.548946
11
0.529134
21
0.548346
0
LINE
8
BLACK
6
CONTINUOUS
10
0.529134
20
0.548346
11
0.469134
21
0.548346
0
LINE
8
BLACK
6
CONTINUOUS
10
0.469134
20
0.548346
11
0.466121
21
0.548946
0
LINE
8
BLACK
6
CONTINUOUS
10
0.466121
20
0.548946
11
0.463566
21
0.550653
0
LINE
8
BLACK
6
CONTINUOUS
10
0.463566
20
0.550653
11
0.461859
21
0.553207
0
LINE
8
BLACK
6
CONTINUOUS
10
0.461859
20
0.553207
11
0.46126
21
0.55622
0
LINE
8
BLACK
6
CONTINUOUS
10
0.46126
20
0.55622
11
0.46126
21
0.61622
0
LINE
8
BLACK
6
CONTINUOUS
10
0.46126
20
0.61622
11
0.461859
21
0.619234
0
LINE
8
BLACK
6
CONTINUOUS
10
0.461859
20
0.619234
11
0.463566
21
0.621788
0
LINE
8
BLACK
6
CONTINUOUS
10
0.463566
20
0.621788
11
0.466121
21
0.623495
0
LINE
8
BLACK
6
CONTINUOUS
10
0.466121
20
0.623495
11
0.469134
21
0.624094
0
LINE
8
BLACK
6
CONTINUOUS
10
0.469134
20
0.624094
11
0.529134
21
0.624094
0
LINE
8
BLACK
6
CONTINUOUS
10
0.529134
20
0.624094
11
0.532147
21
0.623495
0
LINE
8
BLACK
6
CONTINUOUS
10
2.78018
20
0.623495
11
2.78273
21
0.621788
0
LINE
8
BLACK
6
CONTINUOUS
10
2.78273
20
0.621788
11
2.78444
21
0.619234
0
LINE
8
BLACK
6
CONTINUOUS
10
2.78444
20
0.619234
11
2.78504
21
0.61622
0
LINE
8
BLACK
6
CONTINUOUS
10
2.78504
20
0.61622
11
2.78504
21
0.55622
0
LINE
8
BLACK
6
CONTINUOUS
10
2.78504
20
0.55622
11
2.78444
21
0.553207
0
LINE
8
BLACK
6
CONTINUOUS
10
2.78444
20
0.553207
11
2.78273
21
0.550653
0
LINE
8
BLACK
6
CONTINUOUS
10
2.78273
20
0.550653
11
2.78018
21
0.548946
0
LINE
8
BLACK
6
CONTINUOUS
10
2.78018
20
0.548946
11
2.77717
21
0.548346
0
LINE
8
BLACK
6
CONTINUOUS
10
2.77717
20
0.548346
11
2.71717
21
0.548346
0
LINE
8
BLACK
6
CONTINUOUS
10
2.71717
20
0.548346
11
2.71415
21
0.548946
0
LINE
8
BLACK
6
CONTINUOUS
10
2.71415
20
0.548946
11
2.7116
21
0.550653
0
LINE
8
BLACK
6
CONTINUOUS
10
2.7116
20
0.550653
11
2.70989
21
0.553207
0
LINE
8
BLACK
6
CONTINUOUS
10
2.70989
20
0.553207
11
2.70929
21
0.55622
0
LINE
8
BLACK
6
CONTINUOUS
10
2.70929
20
0.55622
11
2.70929
21
0.61622
0
LINE
8
BLACK
6
CONTINUOUS
10
2.70929
20
0.61622
11
2.70989
21
0.619234
0
LINE
8
BLACK
6
CONTINUOUS
10
2.70989
20
0.619234
11
2.7116
21
0.621788
0
LINE
8
BLACK
6
CONTINUOUS
10
2.7116
20
0.621788
11
2.71415
21
0.623495
0
LINE
8
BLACK
6
CONTINUOUS
10
2.71415
20
0.623495
11
2.71717
21
0.624094
0
LINE
8
BLACK
6
CONTINUOUS
10
2.71717
20
0.624094
11
2.77717
21
0.624094
0
LINE
8
BLACK
6
CONTINUOUS
10
2.77717
20
0.624094
11
2.78018
21
0.623495
0
LINE
8
BLACK
6
CONTINUOUS
10
0.159229
20
0.901161
11
0.168178
21
0.898763
0
LINE
8
BLACK
6
CONTINUOUS
10
0.168178
20
0.898763
11
0.176575
21
0.894848
0
LINE
8
BLACK
6
CONTINUOUS
10
0.176575
20
0.894848
11
0.184164
21
0.889534
0
LINE
8
BLACK
6
CONTINUOUS
10
0.184164
20
0.889534
11
0.190715
21
0.882983
0
LINE
8
BLACK
6
CONTINUOUS
10
0.190715
20
0.882983
11
0.196029
21
0.875394
0
LINE
8
BLACK
6
CONTINUOUS
10
0.196029
20
0.875394
11
0.199944
21
0.866997
0
LINE
8
BLACK
6
CONTINUOUS
10
0.199944
20
0.866997
11
0.202342
21
0.858048
0
LINE
8
BLACK
6
CONTINUOUS
10
0.202342
20
0.858048
11
0.20315
21
0.848819
0
LINE
8
BLACK
6
CONTINUOUS
10
0.20315
20
0.848819
11
0.202342
21
0.83959
0
LINE
8
BLACK
6
CONTINUOUS
10
0.202342
20
0.83959
11
0.199944
21
0.830641
0
LINE
8
BLACK
6
CONTINUOUS
10
0.199944
20
0.830641
11
0.196029
21
0.822244
0
LINE
8
BLACK
6
CONTINUOUS
10
0.196029
20
0.822244
11
0.190715
21
0.814655
0
LINE
8
BLACK
6
CONTINUOUS
10
0.190715
20
0.814655
11
0.184164
21
0.808104
0
LINE
8
BLACK
6
CONTINUOUS
10
0.184164
20
0.808104
11
0.176575
21
0.80279
0
LINE
8
BLACK
6
CONTINUOUS
10
0.176575
20
0.80279
11
0.168178
21
0.798875
0
LINE
8
BLACK
6
CONTINUOUS
10
0.168178
20
0.798875
11
0.159229
21
0.796477
0
LINE
8
BLACK
6
CONTINUOUS
10
0.159229
20
0.796477
11
0.15
21
0.795669
0
LINE
8
BLACK
6
CONTINUOUS
10
0.15
20
0.795669
11
0.140771
21
0.796477
0
LINE
8
BLACK
6
CONTINUOUS
10
0.140771
20
0.796477
11
0.131822
21
0.798875
0
LINE
8
BLACK
6
CONTINUOUS
10
0.131822
20
0.798875
11
0.123425
21
0.80279
0
LINE
8
BLACK
6
CONTINUOUS
10
0.123425
20
0.80279
11
0.115836
21
0.808104
0
LINE
8
BLACK
6
CONTINUOUS
10
0.115836
20
0.808104
11
0.109285
21
0.814655
0
LINE
8
BLACK
6
CONTINUOUS
10
0.109285
20
0.814655
11
0.103971
21
0.822244
0
LINE
8
BLACK
6
CONTINUOUS
10
0.103971
20
0.822244
11
0.100056
21
0.830641
0
LINE
8
BLACK
6
CONTINUOUS
10
0.100056
20
0.830641
11
0.0976579
21
0.83959
0
LINE
8
BLACK
6
CONTINUOUS
10
0.0976579
20
0.83959
11
0.0968504
21
0.848819
0
LINE
8
BLACK
6
CONTINUOUS
10
0.0968504
20
0.848819
11
0.0976579
21
0.858048
0
LINE
8
BLACK
6
CONTINUOUS
10
0.0976579
20
0.858048
11
0.100056
21
0.866997
0
LINE
8
BLACK
6
CONTINUOUS
10
0.100056
20
0.866997
11
0.103971
21
0.875394
0
LINE
8
BLACK
6
CONTINUOUS
10
0.103971
20
0.875394
11
0.109285
21
0.882983
0
LINE
8
BLACK
6
CONTINUOUS
10
0.109285
20
0.882983
11
0.115836
21
0.889534
0
LINE
8
BLACK
6
CONTINUOUS
10
0.115836
20
0.889534
11
0.123425
21
0.894848
0
LINE
8
BLACK
6
CONTINUOUS
10
0.123425
20
0.894848
11
0.131822
21
0.898763
0
LINE
8
BLACK
6
CONTINUOUS
10
0.131822
20
0.898763
11
0.140771
21
0.901161
0
LINE
8
BLACK
6
CONTINUOUS
10
0.140771
20
0.901161
11
0.15
21
0.901969
0
LINE
8
BLACK
6
CONTINUOUS
10
0.15
20
0.901969
11
0.159229
21
0.901161
0
LINE
8
BLACK
6
CONTINUOUS
10
0.159229
20
1.05864
11
0.168178
21
1.05624
0
LINE
8
BLACK
6
CONTINUOUS
10
0.168178
20
1.05624
11
0.176575
21
1.05233
0
LINE
8
BLACK
6
CONTINUOUS
10
0.176575
20
1.05233
11
0.184164
21
1.04701
0
LINE
8
BLACK
6
CONTINUOUS
10
0.184164
20
1.04701
11
0.190715
21
1.04046
0
LINE
8
BLACK
6
CONTINUOUS
10
0.190715
20
1.04046
11
0.196029
21
1.03287
0
LINE
8
BLACK
6
CONTINUOUS
10
0.196029
20
1.03287
11
0.199944
21
1.02448
0
LINE
8
BLACK
6
CONTINUOUS
10
0.199944
20
1.02448
11
0.202342
21
1.01553
0
LINE
8
BLACK
6
CONTINUOUS
10
0.202342
20
1.01553
11
0.20315
21
1.0063
0
LINE
8
BLACK
6
CONTINUOUS
10
0.20315
20
1.0063
11
0.202342
21
0.99707
0
LINE
8
BLACK
6
CONTINUOUS
10
0.202342
20
0.99707
11
0.199944
21
0.988121
0
LINE
8
BLACK
6
CONTINUOUS
10
0.199944
20
0.988121
11
0.196029
21
0.979724
0
LINE
8
BLACK
6
CONTINUOUS
10
0.196029
20
0.979724
11
0.190715
21
0.972135
0
LINE
8
BLACK
6
CONTINUOUS
10
0.190715
20
0.972135
11
0.184164
21
0.965584
0
LINE
8
BLACK
6
CONTINUOUS
10
0.184164
20
0.965584
11
0.176575
21
0.96027
0
LINE
8
BLACK
6
CONTINUOUS
10
0.176575
20
0.96027
11
0.168178
21
0.956355
0
LINE
8
BLACK
6
CONTINUOUS
10
0.168178
20
0.956355
11
0.159229
21
0.953957
0
LINE
8
BLACK
6
CONTINUOUS
10
0.159229
20
0.953957
11
0.15
21
0.95315
0
LINE
8
BLACK
6
CONTINUOUS
10
0.15
20
0.95315
11
0.140771
21
0.953957
0
LINE
8
BLACK
6
CONTINUOUS
10
0.140771
20
0.953957
11
0.131822
21
0.956355
0
LINE
8
BLACK
6
CONTINUOUS
10
0.131822
20
0.956355
11
0.123425
21
0.96027
0
LINE
8
BLACK
6
CONTINUOUS
10
0.123425
20
0.96027
11
0.115836
21
0.965584
0
LINE
8
BLACK
6
CONTINUOUS
10
0.115836
20
0.965584
11
0.109285
21
0.972135
0
LINE
8
BLACK
6
CONTINUOUS
10
0.109285
20
0.972135
11
0.103971
21
0.979724
0
LINE
8
BLACK
6
CONTINUOUS
10
0.103971
20
0.979724
11
0.100056
21
0.988121
0
LINE
8
BLACK
6
CONTINUOUS
10
0.100056
20
0.988121
11
0.0976579
21
0.99707
0
LINE
8
BLACK
6
CONTINUOUS
10
0.0976579
20
0.99707
11
0.0968504
21
1.0063
0
LINE
8
BLACK
6
CONTINUOUS
10
0.0968504
20
1.0063
11
0.0976579
21
1.01553
0
LINE
8
BLACK
6
CONTINUOUS
10
0.0976579
20
1.01553
11
0.100056
21
1.02448
0
LINE
8
BLACK
6
CONTINUOUS
10
0.100056
20
1.02448
11
0.103971
21
1.03287
0
LINE
8
BLACK
6
CONTINUOUS
10
0.103971
20
1.03287
11
0.109285
21
1.04046
0
LINE
8
BLACK
6
CONTINUOUS
10
0.109285
20
1.04046
11
0.115836
21
1.04701
0
LINE
8
BLACK
6
CONTINUOUS
10
0.115836
20
1.04701
11
0.123425
21
1.05233
0
LINE
8
BLACK
6
CONTINUOUS
10
0.123425
20
1.05233
11
0.131822
21
1.05624
0
LINE
8
BLACK
6
CONTINUOUS
10
0.131822
20
1.05624
11
0.140771
21
1.05864
0
LINE
8
BLACK
6
CONTINUOUS
10
0.140771
20
1.05864
11
0.15
21
1.05945
0
LINE
8
BLACK
6
CONTINUOUS
10
0.15
20
1.05945
11
0.159229
21
1.05864
0
LINE
8
BLACK
6
CONTINUOUS
10
0.159229
20
1.21612
11
0.168178
21
1.21372
0
LINE
8
BLACK
6
CONTINUOUS
10
0.168178
20
1.21372
11
0.176575
21
1.20981
0
LINE
8
BLACK
6
CONTINUOUS
10
0.176575
20
1.20981
11
0.184164
21
1.20449
0
LINE
8
BLACK
6
CONTINUOUS
10
0.184164
20
1.20449
11
0.190715
21
1.19794
0
LINE
8
BLACK
6
CONTINUOUS
10
0.190715
20
1.19794
11
0.196029
21
1.19035
0
LINE
8
BLACK
6
CONTINUOUS
10
0.196029
20
1.19035
11
0.199944
21
1.18196
0
LINE
8
BLACK
6
CONTINUOUS
10
0.199944
20
1.18196
11
0.202342
21
1.17301
0
LINE
8
BLACK
6
CONTINUOUS
10
0.202342
20
1.17301
11
0.20315
21
1.16378
0
LINE
8
BLACK
6
CONTINUOUS
10
0.20315
20
1.16378
11
0.202342
21
1.15455
0
LINE
8
BLACK
6
CONTINUOUS
10
0.202342
20
1.15455
11
0.199944
21
1.1456
0
LINE
8
BLACK
6
CONTINUOUS
10
0.199944
20
1.1456
11
0.196029
21
1.1372
0
LINE
8
BLACK
6
CONTINUOUS
10
0.196029
20
1.1372
11
0.190715
21
1.12962
0
LINE
8
BLACK
6
CONTINUOUS
10
0.190715
20
1.12962
11
0.184164
21
1.12306
0
LINE
8
BLACK
6
CONTINUOUS
10
0.184164
20
1.12306
11
0.176575
21
1.11775
0
LINE
8
BLACK
6
CONTINUOUS
10
0.176575
20
1.11775
11
0.168178
21
1.11384
0
LINE
8
BLACK
6
CONTINUOUS
10
0.168178
20
1.11384
11
0.159229
21
1.11144
0
LINE
8
BLACK
6
CONTINUOUS
10
0.159229
20
1.11144
11
0.15
21
1.11063
0
LINE
8
BLACK
6
CONTINUOUS
10
0.15
20
1.11063
11
0.140771
21
1.11144
0
LINE
8
BLACK
6
CONTINUOUS
10
0.140771
20
1.11144
11
0.131822
21
1.11384
0
LINE
8
BLACK
6
CONTINUOUS
10
0.131822
20
1.11384
11
0.123425
21
1.11775
0
LINE
8
BLACK
6
CONTINUOUS
10
0.123425
20
1.11775
11
0.115836
21
1.12306
0
LINE
8
BLACK
6
CONTINUOUS
10
0.115836
20
1.12306
11
0.109285
21
1.12962
0
LINE
8
BLACK
6
CONTINUOUS
10
0.109285
20
1.12962
11
0.103971
21
1.1372
0
LINE
8
BLACK
6
CONTINUOUS
10
0.103971
20
1.1372
11
0.100056
21
1.1456
0
LINE
8
BLACK
6
CONTINUOUS
10
0.100056
20
1.1456
11
0.0976579
21
1.15455
0
LINE
8
BLACK
6
CONTINUOUS
10
0.0976579
20
1.15455
11
0.0968504
21
1.16378
0
LINE
8
BLACK
6
CONTINUOUS
10
0.0968504
20
1.16378
11
0.0976579
21
1.17301
0
LINE
8
BLACK
6
CONTINUOUS
10
0.0976579
20
1.17301
11
0.100056
21
1.18196
0
LINE
8
BLACK
6
CONTINUOUS
10
0.100056
20
1.18196
11
0.103971
21
1.19035
0
LINE
8
BLACK
6
CONTINUOUS
10
0.103971
20
1.19035
11
0.109285
21
1.19794
0
LINE
8
BLACK
6
CONTINUOUS
10
0.109285
20
1.19794
11
0.115836
21
1.20449
0
LINE
8
BLACK
6
CONTINUOUS
10
0.115836
20
1.20449
11
0.123425
21
1.20981
0
LINE
8
BLACK
6
CONTINUOUS
10
0.123425
20
1.20981
11
0.131822
21
1.21372
0
LINE
8
BLACK
6
CONTINUOUS
10
0.131822
20
1.21372
11
0.140771
21
1.21612
0
LINE
8
BLACK
6
CONTINUOUS
10
0.140771
20
1.21612
11
0.15
21
1.21693
0
LINE
8
BLACK
6
CONTINUOUS
10
0.15
20
1.21693
11
0.159229
21
1.21612
0
LINE
8
BLACK
6
CONTINUOUS
10
0.532147
20
1.28727
11
0.534702
21
1.28557
0
LINE
8
BLACK
6
CONTINUOUS
10
0.534702
20
1.28557
11
0.536409
21
1.28301
0
LINE
8
BLACK
6
CONTINUOUS
10
0.536409
20
1.28301
11
0.537008
21
1.28
0
LINE
8
BLACK
6
CONTINUOUS
10
0.537008
20
1.28
11
0.537008
21
1.22
0
LINE
8
BLACK
6
CONTINUOUS
10
0.537008
20
1.22
11
0.536409
21
1.21699
0
LINE
8
BLACK
6
CONTINUOUS
10
0.536409
20
1.21699
11
0.534702
21
1.21443
0
LINE
8
BLACK
6
CONTINUOUS
10
0.534702
20
1.21443
11
0.532147
21
1.21273
0
LINE
8
BLACK
6
CONTINUOUS
10
0.532147
20
1.21273
11
0.529134
21
1.21213
0
LINE
8
BLACK
6
CONTINUOUS
10
0.529134
20
1.21213
11
0.469134
21
1.21213
0
LINE
8
BLACK
6
CONTINUOUS
10
0.469134
20
1.21213
11
0.466121
21
1.21273
0
LINE
8
BLACK
6
CONTINUOUS
10
0.466121
20
1.21273
11
0.463566
21
1.21443
0
LINE
8
BLACK
6
CONTINUOUS
10
0.463566
20
1.21443
11
0.461859
21
1.21699
0
LINE
8
BLACK
6
CONTINUOUS
10
0.461859
20
1.21699
11
0.46126
21
1.22
0
LINE
8
BLACK
6
CONTINUOUS
10
0.46126
20
1.22
11
0.46126
21
1.28
0
LINE
8
BLACK
6
CONTINUOUS
10
0.46126
20
1.28
11
0.461859
21
1.28301
0
LINE
8
BLACK
6
CONTINUOUS
10
0.461859
20
1.28301
11
0.463566
21
1.28557
0
LINE
8
BLACK
6
CONTINUOUS
10
0.463566
20
1.28557
11
0.466121
21
1.28727
0
LINE
8
BLACK
6
CONTINUOUS
10
0.466121
20
1.28727
11
0.469134
21
1.28787
0
LINE
8
BLACK
6
CONTINUOUS
10
0.469134
20
1.28787
11
0.529134
21
1.28787
0
LINE
8
BLACK
6
CONTINUOUS
10
0.529134
20
1.28787
11
0.532147
21
1.28727
0
LINE
8
BLACK
6
CONTINUOUS
10
0.159229
20
1.3736
11
0.168178
21
1.3712
0
LINE
8
BLACK
6
CONTINUOUS
10
0.168178
20
1.3712
11
0.176575
21
1.36729
0
LINE
8
BLACK
6
CONTINUOUS
10
0.176575
20
1.36729
11
0.184164
21
1.36197
0
LINE
8
BLACK
6
CONTINUOUS
10
0.184164
20
1.36197
11
0.190715
21
1.35542
0
LINE
8
BLACK
6
CONTINUOUS
10
0.190715
20
1.35542
11
0.196029
21
1.34783
0
LINE
8
BLACK
6
CONTINUOUS
10
0.196029
20
1.34783
11
0.199944
21
1.33944
0
LINE
8
BLACK
6
CONTINUOUS
10
0.199944
20
1.33944
11
0.202342
21
1.33049
0
LINE
8
BLACK
6
CONTINUOUS
10
0.202342
20
1.33049
11
0.20315
21
1.32126
0
LINE
8
BLACK
6
CONTINUOUS
10
0.20315
20
1.32126
11
0.202342
21
1.31203
0
LINE
8
BLACK
6
CONTINUOUS
10
0.202342
20
1.31203
11
0.199944
21
1.30308
0
LINE
8
BLACK
6
CONTINUOUS
10
0.199944
20
1.30308
11
0.196029
21
1.29469
0
LINE
8
BLACK
6
CONTINUOUS
10
0.196029
20
1.29469
11
0.190715
21
1.2871
0
LINE
8
BLACK
6
CONTINUOUS
10
0.190715
20
1.2871
11
0.184164
21
1.28054
0
LINE
8
BLACK
6
CONTINUOUS
10
0.184164
20
1.28054
11
0.176575
21
1.27523
0
LINE
8
BLACK
6
CONTINUOUS
10
0.176575
20
1.27523
11
0.168178
21
1.27132
0
LINE
8
BLACK
6
CONTINUOUS
10
0.168178
20
1.27132
11
0.159229
21
1.26892
0
LINE
8
BLACK
6
CONTINUOUS
10
0.159229
20
1.26892
11
0.15
21
1.26811
0
LINE
8
BLACK
6
CONTINUOUS
10
0.15
20
1.26811
11
0.140771
21
1.26892
0
LINE
8
BLACK
6
CONTINUOUS
10
0.140771
20
1.26892
11
0.131822
21
1.27132
0
LINE
8
BLACK
6
CONTINUOUS
10
0.131822
20
1.27132
11
0.123425
21
1.27523
0
LINE
8
BLACK
6
CONTINUOUS
10
0.123425
20
1.27523
11
0.115836
21
1.28054
0
LINE
8
BLACK
6
CONTINUOUS
10
0.115836
20
1.28054
11
0.109285
21
1.2871
0
LINE
8
BLACK
6
CONTINUOUS
10
0.109285
20
1.2871
11
0.103971
21
1.29469
0
LINE
8
BLACK
6
CONTINUOUS
10
0.103971
20
1.29469
11
0.100056
21
1.30308
0
LINE
8
BLACK
6
CONTINUOUS
10
0.100056
20
1.30308
11
0.0976579
21
1.31203
0
LINE
8
BLACK
6
CONTINUOUS
10
0.0976579
20
1.31203
11
0.0968504
21
1.32126
0
LINE
8
BLACK
6
CONTINUOUS
10
0.0968504
20
1.32126
11
0.0976579
21
1.33049
0
LINE
8
BLACK
6
CONTINUOUS
10
0.0976579
20
1.33049
11
0.100056
21
1.33944
0
LINE
8
BLACK
6
CONTINUOUS
10
0.100056
20
1.33944
11
0.103971
21
1.34783
0
LINE
8
BLACK
6
CONTINUOUS
10
0.103971
20
1.34783
11
0.109285
21
1.35542
0
LINE
8
BLACK
6
CONTINUOUS
10
0.109285
20
1.35542
11
0.115836
21
1.36197
0
LINE
8
BLACK
6
CONTINUOUS
10
0.115836
20
1.36197
11
0.123425
21
1.36729
0
LINE
8
BLACK
6
CONTINUOUS
10
0.123425
20
1.36729
11
0.131822
21
1.3712
0
LINE
8
BLACK
6
CONTINUOUS
10
0.131822
20
1.3712
11
0.140771
21
1.3736
0
LINE
8
BLACK
6
CONTINUOUS
10
0.140771
20
1.3736
11
0.15
21
1.37441
0
LINE
8
BLACK
6
CONTINUOUS
10
0.15
20
1.37441
11
0.159229
21
1.3736
0
LINE
8
BLACK
6
CONTINUOUS
10
0.532147
20
1.38727
11
0.534702
21
1.38557
0
LINE
8
BLACK
6
CONTINUOUS
10
0.534702
20
1.38557
11
0.536409
21
1.38301
0
LINE
8
BLACK
6
CONTINUOUS
10
0.536409
20
1.38301
11
0.537008
21
1.38
0
LINE
8
BLACK
6
CONTINUOUS
10
0.537008
20
1.38
11
0.537008
21
1.32
0
LINE
8
BLACK
6
CONTINUOUS
10
0.537008
20
1.32
11
0.536409
21
1.31699
0
LINE
8
BLACK
6
CONTINUOUS
10
0.536409
20
1.31699
11
0.534702
21
1.31443
0
LINE
8
BLACK
6
CONTINUOUS
10
0.534702
20
1.31443
11
0.532147
21
1.31273
0
LINE
8
BLACK
6
CONTINUOUS
10
0.532147
20
1.31273
11
0.529134
21
1.31213
0
LINE
8
BLACK
6
CONTINUOUS
10
0.529134
20
1.31213
11
0.469134
21
1.31213
0
LINE
8
BLACK
6
CONTINUOUS
10
0.469134
20
1.31213
11
0.466121
21
1.31273
0
LINE
8
BLACK
6
CONTINUOUS
10
0.466121
20
1.31273
11
0.463566
21
1.31443
0
LINE
8
BLACK
6
CONTINUOUS
10
0.463566
20
1.31443
11
0.461859
21
1.31699
0
LINE
8
BLACK
6
CONTINUOUS
10
0.461859
20
1.31699
11
0.46126
21
1.32
0
LINE
8
BLACK
6
CONTINUOUS
10
0.46126
20
1.32
11
0.46126
21
1.38
0
LINE
8
BLACK
6
CONTINUOUS
10
0.46126
20
1.38
11
0.461859
21
1.38301
0
LINE
8
BLACK
6
CONTINUOUS
10
0.461859
20
1.38301
11
0.463566
21
1.38557
0
LINE
8
BLACK
6
CONTINUOUS
10
0.463566
20
1.38557
11
0.466121
21
1.38727
0
LINE
8
BLACK
6
CONTINUOUS
10
0.466121
20
1.38727
11
0.469134
21
1.38787
0
LINE
8
BLACK
6
CONTINUOUS
10
0.469134
20
1.38787
11
0.529134
21
1.38787
0
LINE
8
BLACK
6
CONTINUOUS
10
0.529134
20
1.38787
11
0.532147
21
1.38727
0
LINE
8
BLACK
6
CONTINUOUS
10
1.83647
20
1.43512
11
1.84144
21
1.43337
0
LINE
8
BLACK
6
CONTINUOUS
10
1.84144
20
1.43337
11
1.84568
21
1.43024
0
LINE
8
BLACK
6
CONTINUOUS
10
1.84568
20
1.43024
11
1.84881
21
1.42601
0
LINE
8
BLACK
6
CONTINUOUS
10
1.84881
20
1.42601
11
1.85055
21
1.42104
0
LINE
8
BLACK
6
CONTINUOUS
10
1.85055
20
1.42104
11
1.85087
21
1.41772
0
LINE
8
BLACK
6
CONTINUOUS
10
1.85087
20
1.41772
11
1.85087
21
1.38228
0
LINE
8
BLACK
6
CONTINUOUS
10
1.85087
20
1.38228
11
1.85055
21
1.37896
0
LINE
8
BLACK
6
CONTINUOUS
10
1.85055
20
1.37896
11
1.84881
21
1.37399
0
LINE
8
BLACK
6
CONTINUOUS
10
1.84881
20
1.37399
11
1.84568
21
1.36976
0
LINE
8
BLACK
6
CONTINUOUS
10
1.84568
20
1.36976
11
1.84144
21
1.36663
0
LINE
8
BLACK
6
CONTINUOUS
10
1.84144
20
1.36663
11
1.83647
21
1.36488
0
LINE
8
BLACK
6
CONTINUOUS
10
1.83647
20
1.36488
11
1.83315
21
1.36457
0
LINE
8
BLACK
6
CONTINUOUS
10
1.83315
20
1.36457
11
1.80559
21
1.36457
0
LINE
8
BLACK
6
CONTINUOUS
10
1.80559
20
1.36457
11
1.80227
21
1.36488
0
LINE
8
BLACK
6
CONTINUOUS
10
1.80227
20
1.36488
11
1.7973
21
1.36663
0
LINE
8
BLACK
6
CONTINUOUS
10
1.7973
20
1.36663
11
1.79306
21
1.36976
0
LINE
8
BLACK
6
CONTINUOUS
10
1.79306
20
1.36976
11
1.78993
21
1.37399
0
LINE
8
BLACK
6
CONTINUOUS
10
1.78993
20
1.37399
11
1.78819
21
1.37896
0
LINE
8
BLACK
6
CONTINUOUS
10
1.78819
20
1.37896
11
1.78787
21
1.38228
0
LINE
8
BLACK
6
CONTINUOUS
10
1.78787
20
1.38228
11
1.78787
21
1.41772
0
LINE
8
BLACK
6
CONTINUOUS
10
1.78787
20
1.41772
11
1.78819
21
1.42104
0
LINE
8
BLACK
6
CONTINUOUS
10
1.78819
20
1.42104
11
1.78993
21
1.42601
0
LINE
8
BLACK
6
CONTINUOUS
10
1.78993
20
1.42601
11
1.79306
21
1.43024
0
LINE
8
BLACK
6
CONTINUOUS
10
1.79306
20
1.43024
11
1.7973
21
1.43337
0
LINE
8
BLACK
6
CONTINUOUS
10
1.7973
20
1.43337
11
1.80227
21
1.43512
0
LINE
8
BLACK
6
CONTINUOUS
10
1.80227
20
1.43512
11
1.80559
21
1.43543
0
LINE
8
BLACK
6
CONTINUOUS
10
1.80559
20
1.43543
11
1.83315
21
1.43543
0
LINE
8
BLACK
6
CONTINUOUS
10
1.83315
20
1.43543
11
1.83647
21
1.43512
0
LINE
8
BLACK
6
CONTINUOUS
10
1.75773
20
1.43512
11
1.7627
21
1.43337
0
LINE
8
BLACK
6
CONTINUOUS
10
1.7627
20
1.43337
11
1.76694
21
1.43024
0
LINE
8
BLACK
6
CONTINUOUS
10
1.76694
20
1.43024
11
1.77007
21
1.42601
0
LINE
8
BLACK
6
CONTINUOUS
10
1.77007
20
1.42601
11
1.77181
21
1.42104
0
LINE
8
BLACK
6
CONTINUOUS
10
1.77181
20
1.42104
11
1.77213
21
1.41772
0
LINE
8
BLACK
6
CONTINUOUS
10
1.77213
20
1.41772
11
1.77213
21
1.38228
0
LINE
8
BLACK
6
CONTINUOUS
10
1.77213
20
1.38228
11
1.77181
21
1.37896
0
LINE
8
BLACK
6
CONTINUOUS
10
1.77181
20
1.37896
11
1.77007
21
1.37399
0
LINE
8
BLACK
6
CONTINUOUS
10
1.77007
20
1.37399
11
1.76694
21
1.36976
0
LINE
8
BLACK
6
CONTINUOUS
10
1.76694
20
1.36976
11
1.7627
21
1.36663
0
LINE
8
BLACK
6
CONTINUOUS
10
1.7627
20
1.36663
11
1.75773
21
1.36488
0
LINE
8
BLACK
6
CONTINUOUS
10
1.75773
20
1.36488
11
1.75441
21
1.36457
0
LINE
8
BLACK
6
CONTINUOUS
10
1.75441
20
1.36457
11
1.72685
21
1.36457
0
LINE
8
BLACK
6
CONTINUOUS
10
1.72685
20
1.36457
11
1.72353
21
1.36488
0
LINE
8
BLACK
6
CONTINUOUS
10
1.72353
20
1.36488
11
1.71856
21
1.36663
0
LINE
8
BLACK
6
CONTINUOUS
10
1.71856
20
1.36663
11
1.71432
21
1.36976
0
LINE
8
BLACK
6
CONTINUOUS
10
1.71432
20
1.36976
11
1.71119
21
1.37399
0
LINE
8
BLACK
6
CONTINUOUS
10
1.71119
20
1.37399
11
1.70945
21
1.37896
0
LINE
8
BLACK
6
CONTINUOUS
10
1.70945
20
1.37896
11
1.70913
21
1.38228
0
LINE
8
BLACK
6
CONTINUOUS
10
1.70913
20
1.38228
11
1.70913
21
1.41772
0
LINE
8
BLACK
6
CONTINUOUS
10
1.70913
20
1.41772
11
1.70945
21
1.42104
0
LINE
8
BLACK
6
CONTINUOUS
10
1.70945
20
1.42104
11
1.71119
21
1.42601
0
LINE
8
BLACK
6
CONTINUOUS
10
1.71119
20
1.42601
11
1.71432
21
1.43024
0
LINE
8
BLACK
6
CONTINUOUS
10
1.71432
20
1.43024
11
1.71856
21
1.43337
0
LINE
8
BLACK
6
CONTINUOUS
10
1.71856
20
1.43337
11
1.72353
21
1.43512
0
LINE
8
BLACK
6
CONTINUOUS
10
1.72353
20
1.43512
11
1.72685
21
1.43543
0
LINE
8
BLACK
6
CONTINUOUS
10
1.72685
20
1.43543
11
1.75441
21
1.43543
0
LINE
8
BLACK
6
CONTINUOUS
10
1.75441
20
1.43543
11
1.75773
21
1.43512
0
LINE
8
BLACK
6
CONTINUOUS
10
0.532147
20
1.48727
11
0.534702
21
1.48557
0
LINE
8
BLACK
6
CONTINUOUS
10
0.534702
20
1.48557
11
0.536409
21
1.48301
0
LINE
8
BLACK
6
CONTINUOUS
10
0.536409
20
1.48301
11
0.537008
21
1.48
0
LINE
8
BLACK
6
CONTINUOUS
10
0.537008
20
1.48
11
0.537008
21
1.42
0
LINE
8
BLACK
6
CONTINUOUS
10
0.537008
20
1.42
11
0.536409
21
1.41699
0
LINE
8
BLACK
6
CONTINUOUS
10
0.536409
20
1.41699
11
0.534702
21
1.41443
0
LINE
8
BLACK
6
CONTINUOUS
10
0.534702
20
1.41443
11
0.532147
21
1.41273
0
LINE
8
BLACK
6
CONTINUOUS
10
0.532147
20
1.41273
11
0.529134
21
1.41213
0
LINE
8
BLACK
6
CONTINUOUS
10
0.529134
20
1.41213
11
0.469134
21
1.41213
0
LINE
8
BLACK
6
CONTINUOUS
10
0.469134
20
1.41213
11
0.466121
21
1.41273
0
LINE
8
BLACK
6
CONTINUOUS
10
0.466121
20
1.41273
11
0.463566
21
1.41443
0
LINE
8
BLACK
6
CONTINUOUS
10
0.463566
20
1.41443
11
0.461859
21
1.41699
0
LINE
8
BLACK
6
CONTINUOUS
10
0.461859
20
1.41699
11
0.46126
21
1.42
0
LINE
8
BLACK
6
CONTINUOUS
10
0.46126
20
1.42
11
0.46126
21
1.48
0
LINE
8
BLACK
6
CONTINUOUS
10
0.46126
20
1.48
11
0.461859
21
1.48301
0
LINE
8
BLACK
6
CONTINUOUS
10
0.461859
20
1.48301
11
0.463566
21
1.48557
0
LINE
8
BLACK
6
CONTINUOUS
10
0.463566
20
1.48557
11
0.466121
21
1.48727
0
LINE
8
BLACK
6
CONTINUOUS
10
0.466121
20
1.48727
11
0.469134
21
1.48787
0
LINE
8
BLACK
6
CONTINUOUS
10
0.469134
20
1.48787
11
0.529134
21
1.48787
0
LINE
8
BLACK
6
CONTINUOUS
10
0.529134
20
1.48787
11
0.532147
21
1.48727
0
LINE
8
BLACK
6
CONTINUOUS
10
0.159229
20
1.53108
11
0.168178
21
1.52868
0
LINE
8
BLACK
6
CONTINUOUS
10
0.168178
20
1.52868
11
0.176575
21
1.52477
0
LINE
8
BLACK
6
CONTINUOUS
10
0.176575
20
1.52477
11
0.184164
21
1.51946
0
LINE
8
BLACK
6
CONTINUOUS
10
0.184164
20
1.51946
11
0.190715
21
1.5129
0
LINE
8
BLACK
6
CONTINUOUS
10
0.190715
20
1.5129
11
0.196029
21
1.50531
0
LINE
8
BLACK
6
CONTINUOUS
10
0.196029
20
1.50531
11
0.199944
21
1.49692
0
LINE
8
BLACK
6
CONTINUOUS
10
0.199944
20
1.49692
11
0.202342
21
1.48797
0
LINE
8
BLACK
6
CONTINUOUS
10
0.202342
20
1.48797
11
0.20315
21
1.47874
0
LINE
8
BLACK
6
CONTINUOUS
10
0.20315
20
1.47874
11
0.202342
21
1.46951
0
LINE
8
BLACK
6
CONTINUOUS
10
0.202342
20
1.46951
11
0.199944
21
1.46056
0
LINE
8
BLACK
6
CONTINUOUS
10
0.199944
20
1.46056
11
0.196029
21
1.45217
0
LINE
8
BLACK
6
CONTINUOUS
10
0.196029
20
1.45217
11
0.190715
21
1.44458
0
LINE
8
BLACK
6
CONTINUOUS
10
0.190715
20
1.44458
11
0.184164
21
1.43803
0
LINE
8
BLACK
6
CONTINUOUS
10
0.184164
20
1.43803
11
0.176575
21
1.43271
0
LINE
8
BLACK
6
CONTINUOUS
10
0.176575
20
1.43271
11
0.168178
21
1.4288
0
LINE
8
BLACK
6
CONTINUOUS
10
0.168178
20
1.4288
11
0.159229
21
1.4264
0
LINE
8
BLACK
6
CONTINUOUS
10
0.159229
20
1.4264
11
0.15
21
1.42559
0
LINE
8
BLACK
6
CONTINUOUS
10
0.15
20
1.42559
11
0.140771
21
1.4264
0
LINE
8
BLACK
6
CONTINUOUS
10
0.140771
20
1.4264
11
0.131822
21
1.4288
0
LINE
8
BLACK
6
CONTINUOUS
10
0.131822
20
1.4288
11
0.123425
21
1.43271
0
LINE
8
BLACK
6
CONTINUOUS
10
0.123425
20
1.43271
11
0.115836
21
1.43803
0
LINE
8
BLACK
6
CONTINUOUS
10
0.115836
20
1.43803
11
0.109285
21
1.44458
0
LINE
8
BLACK
6
CONTINUOUS
10
0.109285
20
1.44458
11
0.103971
21
1.45217
0
LINE
8
BLACK
6
CONTINUOUS
10
0.103971
20
1.45217
11
0.100056
21
1.46056
0
LINE
8
BLACK
6
CONTINUOUS
10
0.100056
20
1.46056
11
0.0976579
21
1.46951
0
LINE
8
BLACK
6
CONTINUOUS
10
0.0976579
20
1.46951
11
0.0968504
21
1.47874
0
LINE
8
BLACK
6
CONTINUOUS
10
0.0968504
20
1.47874
11
0.0976579
21
1.48797
0
LINE
8
BLACK
6
CONTINUOUS
10
0.0976579
20
1.48797
11
0.100056
21
1.49692
0
LINE
8
BLACK
6
CONTINUOUS
10
0.100056
20
1.49692
11
0.103971
21
1.50531
0
LINE
8
BLACK
6
CONTINUOUS
10
0.103971
20
1.50531
11
0.109285
21
1.5129
0
LINE
8
BLACK
6
CONTINUOUS
10
0.109285
20
1.5129
11
0.115836
21
1.51946
0
LINE
8
BLACK
6
CONTINUOUS
10
0.115836
20
1.51946
11
0.123425
21
1.52477
0
LINE
8
BLACK
6
CONTINUOUS
10
0.123425
20
1.52477
11
0.131822
21
1.52868
0
LINE
8
BLACK
6
CONTINUOUS
10
0.131822
20
1.52868
11
0.140771
21
1.53108
0
LINE
8
BLACK
6
CONTINUOUS
10
0.140771
20
1.53108
11
0.15
21
1.53189
0
LINE
8
BLACK
6
CONTINUOUS
10
0.15
20
1.53189
11
0.159229
21
1.53108
0
LINE
8
BLACK
6
CONTINUOUS
10
0.532147
20
1.58727
11
0.534702
21
1.58557
0
LINE
8
BLACK
6
CONTINUOUS
10
0.534702
20
1.58557
11
0.536409
21
1.58301
0
LINE
8
BLACK
6
CONTINUOUS
10
0.536409
20
1.58301
11
0.537008
21
1.58
0
LINE
8
BLACK
6
CONTINUOUS
10
0.537008
20
1.58
11
0.537008
21
1.52
0
LINE
8
BLACK
6
CONTINUOUS
10
0.537008
20
1.52
11
0.536409
21
1.51699
0
LINE
8
BLACK
6
CONTINUOUS
10
0.536409
20
1.51699
11
0.534702
21
1.51443
0
LINE
8
BLACK
6
CONTINUOUS
10
0.534702
20
1.51443
11
0.532147
21
1.51273
0
LINE
8
BLACK
6
CONTINUOUS
10
0.532147
20
1.51273
11
0.529134
21
1.51213
0
LINE
8
BLACK
6
CONTINUOUS
10
0.529134
20
1.51213
11
0.469134
21
1.51213
0
LINE
8
BLACK
6
CONTINUOUS
10
0.469134
20
1.51213
11
0.466121
21
1.51273
0
LINE
8
BLACK
6
CONTINUOUS
10
0.466121
20
1.51273
11
0.463566
21
1.51443
0
LINE
8
BLACK
6
CONTINUOUS
10
0.463566
20
1.51443
11
0.461859
21
1.51699
0
LINE
8
BLACK
6
CONTINUOUS
10
0.461859
20
1.51699
11
0.46126
21
1.52
0
LINE
8
BLACK
6
CONTINUOUS
10
0.46126
20
1.52
11
0.46126
21
1.58
0
LINE
8
BLACK
6
CONTINUOUS
10
0.46126
20
1.58
11
0.461859
21
1.58301
0
LINE
8
BLACK
6
CONTINUOUS
10
0.461859
20
1.58301
11
0.463566
21
1.58557
0
LINE
8
BLACK
6
CONTINUOUS
10
0.463566
20
1.58557
11
0.466121
21
1.58727
0
LINE
8
BLACK
6
CONTINUOUS
10
0.466121
20
1.58727
11
0.469134
21
1.58787
0
LINE
8
BLACK
6
CONTINUOUS
10
0.469134
20
1.58787
11
0.529134
21
1.58787
0
LINE
8
BLACK
6
CONTINUOUS
10
0.529134
20
1.58787
11
0.532147
21
1.58727
0
LINE
8
BLACK
6
CONTINUOUS
10
0.159229
20
1.68856
11
0.168178
21
1.68616
0
LINE
8
BLACK
6
CONTINUOUS
10
0.168178
20
1.68616
11
0.176575
21
1.68225
0
LINE
8
BLACK
6
CONTINUOUS
10
0.176575
20
1.68225
11
0.184164
21
1.67694
0
LINE
8
BLACK
6
CONTINUOUS
10
0.184164
20
1.67694
11
0.190715
21
1.67038
0
LINE
8
BLACK
6
CONTINUOUS
10
0.190715
20
1.67038
11
0.196029
21
1.6628
0
LINE
8
BLACK
6
CONTINUOUS
10
0.196029
20
1.6628
11
0.199944
21
1.6544
0
LINE
8
BLACK
6
CONTINUOUS
10
0.199944
20
1.6544
11
0.202342
21
1.64545
0
LINE
8
BLACK
6
CONTINUOUS
10
0.202342
20
1.64545
11
0.20315
21
1.63622
0
LINE
8
BLACK
6
CONTINUOUS
10
0.20315
20
1.63622
11
0.202342
21
1.62699
0
LINE
8
BLACK
6
CONTINUOUS
10
0.202342
20
1.62699
11
0.199944
21
1.61804
0
LINE
8
BLACK
6
CONTINUOUS
10
0.199944
20
1.61804
11
0.196029
21
1.60965
0
LINE
8
BLACK
6
CONTINUOUS
10
0.196029
20
1.60965
11
0.190715
21
1.60206
0
LINE
8
BLACK
6
CONTINUOUS
10
0.190715
20
1.60206
11
0.184164
21
1.59551
0
LINE
8
BLACK
6
CONTINUOUS
10
0.184164
20
1.59551
11
0.176575
21
1.59019
0
LINE
8
BLACK
6
CONTINUOUS
10
0.176575
20
1.59019
11
0.168178
21
1.58628
0
LINE
8
BLACK
6
CONTINUOUS
10
0.168178
20
1.58628
11
0.159229
21
1.58388
0
LINE
8
BLACK
6
CONTINUOUS
10
0.159229
20
1.58388
11
0.15
21
1.58307
0
LINE
8
BLACK
6
CONTINUOUS
10
0.15
20
1.58307
11
0.140771
21
1.58388
0
LINE
8
BLACK
6
CONTINUOUS
10
0.140771
20
1.58388
11
0.131822
21
1.58628
0
LINE
8
BLACK
6
CONTINUOUS
10
0.131822
20
1.58628
11
0.123425
21
1.59019
0
LINE
8
BLACK
6
CONTINUOUS
10
0.123425
20
1.59019
11
0.115836
21
1.59551
0
LINE
8
BLACK
6
CONTINUOUS
10
0.115836
20
1.59551
11
0.109285
21
1.60206
0
LINE
8
BLACK
6
CONTINUOUS
10
0.109285
20
1.60206
11
0.103971
21
1.60965
0
LINE
8
BLACK
6
CONTINUOUS
10
0.103971
20
1.60965
11
0.100056
21
1.61804
0
LINE
8
BLACK
6
CONTINUOUS
10
0.100056
20
1.61804
11
0.0976579
21
1.62699
0
LINE
8
BLACK
6
CONTINUOUS
10
0.0976579
20
1.62699
11
0.0968504
21
1.63622
0
LINE
8
BLACK
6
CONTINUOUS
10
0.0968504
20
1.63622
11
0.0976579
21
1.64545
0
LINE
8
BLACK
6
CONTINUOUS
10
0.0976579
20
1.64545
11
0.100056
21
1.6544
0
LINE
8
BLACK
6
CONTINUOUS
10
0.100056
20
1.6544
11
0.103971
21
1.6628
0
LINE
8
BLACK
6
CONTINUOUS
10
0.103971
20
1.6628
11
0.109285
21
1.67038
0
LINE
8
BLACK
6
CONTINUOUS
10
0.109285
20
1.67038
11
0.115836
21
1.67694
0
LINE
8
BLACK
6
CONTINUOUS
10
0.115836
20
1.67694
11
0.123425
21
1.68225
0
LINE
8
BLACK
6
CONTINUOUS
10
0.123425
20
1.68225
11
0.131822
21
1.68616
0
LINE
8
BLACK
6
CONTINUOUS
10
0.131822
20
1.68616
11
0.140771
21
1.68856
0
LINE
8
BLACK
6
CONTINUOUS
10
0.140771
20
1.68856
11
0.15
21
1.68937
0
LINE
8
BLACK
6
CONTINUOUS
10
0.15
20
1.68937
11
0.159229
21
1.68856
0
LINE
8
BLACK
6
CONTINUOUS
10
0.159229
20
1.84604
11
0.168178
21
1.84365
0
LINE
8
BLACK
6
CONTINUOUS
10
0.168178
20
1.84365
11
0.176575
21
1.83973
0
LINE
8
BLACK
6
CONTINUOUS
10
0.176575
20
1.83973
11
0.184164
21
1.83442
0
LINE
8
BLACK
6
CONTINUOUS
10
0.184164
20
1.83442
11
0.190715
21
1.82786
0
LINE
8
BLACK
6
CONTINUOUS
10
0.190715
20
1.82786
11
0.196029
21
1.82028
0
LINE
8
BLACK
6
CONTINUOUS
10
0.196029
20
1.82028
11
0.199944
21
1.81188
0
LINE
8
BLACK
6
CONTINUOUS
10
0.199944
20
1.81188
11
0.202342
21
1.80293
0
LINE
8
BLACK
6
CONTINUOUS
10
0.202342
20
1.80293
11
0.20315
21
1.7937
0
LINE
8
BLACK
6
CONTINUOUS
10
0.20315
20
1.7937
11
0.202342
21
1.78447
0
LINE
8
BLACK
6
CONTINUOUS
10
0.202342
20
1.78447
11
0.199944
21
1.77552
0
LINE
8
BLACK
6
CONTINUOUS
10
0.199944
20
1.77552
11
0.196029
21
1.76713
0
LINE
8
BLACK
6
CONTINUOUS
10
0.196029
20
1.76713
11
0.190715
21
1.75954
0
LINE
8
BLACK
6
CONTINUOUS
10
0.190715
20
1.75954
11
0.184164
21
1.75299
0
LINE
8
BLACK
6
CONTINUOUS
10
0.184164
20
1.75299
11
0.176575
21
1.74767
0
LINE
8
BLACK
6
CONTINUOUS
10
0.176575
20
1.74767
11
0.168178
21
1.74376
0
LINE
8
BLACK
6
CONTINUOUS
10
0.168178
20
1.74376
11
0.159229
21
1.74136
0
LINE
8
BLACK
6
CONTINUOUS
10
0.159229
20
1.74136
11
0.15
21
1.74055
0
LINE
8
BLACK
6
CONTINUOUS
10
0.15
20
1.74055
11
0.140771
21
1.74136
0
LINE
8
BLACK
6
CONTINUOUS
10
0.140771
20
1.74136
11
0.131822
21
1.74376
0
LINE
8
BLACK
6
CONTINUOUS
10
0.131822
20
1.74376
11
0.123425
21
1.74767
0
LINE
8
BLACK
6
CONTINUOUS
10
0.123425
20
1.74767
11
0.115836
21
1.75299
0
LINE
8
BLACK
6
CONTINUOUS
10
0.115836
20
1.75299
11
0.109285
21
1.75954
0
LINE
8
BLACK
6
CONTINUOUS
10
0.109285
20
1.75954
11
0.103971
21
1.76713
0
LINE
8
BLACK
6
CONTINUOUS
10
0.103971
20
1.76713
11
0.100056
21
1.77552
0
LINE
8
BLACK
6
CONTINUOUS
10
0.100056
20
1.77552
11
0.0976579
21
1.78447
0
LINE
8
BLACK
6
CONTINUOUS
10
0.0976579
20
1.78447
11
0.0968504
21
1.7937
0
LINE
8
BLACK
6
CONTINUOUS
10
0.0968504
20
1.7937
11
0.0976579
21
1.80293
0
LINE
8
BLACK
6
CONTINUOUS
10
0.0976579
20
1.80293
11
0.100056
21
1.81188
0
LINE
8
BLACK
6
CONTINUOUS
10
0.100056
20
1.81188
11
0.103971
21
1.82028
0
LINE
8
BLACK
6
CONTINUOUS
10
0.103971
20
1.82028
11
0.109285
21
1.82786
0
LINE
8
BLACK
6
CONTINUOUS
10
0.109285
20
1.82786
11
0.115836
21
1.83442
0
LINE
8
BLACK
6
CONTINUOUS
10
0.115836
20
1.83442
11
0.123425
21
1.83973
0
LINE
8
BLACK
6
CONTINUOUS
10
0.123425
20
1.83973
11
0.131822
21
1.84365
0
LINE
8
BLACK
6
CONTINUOUS
10
0.131822
20
1.84365
11
0.140771
21
1.84604
0
LINE
8
BLACK
6
CONTINUOUS
10
0.140771
20
1.84604
11
0.15
21
1.84685
0
LINE
8
BLACK
6
CONTINUOUS
10
0.15
20
1.84685
11
0.159229
21
1.84604
0
LINE
8
BLACK
6
CONTINUOUS
10
2.30259
20
1.86915
11
2.30794
21
1.86755
0
LINE
8
BLACK
6
CONTINUOUS
10
2.30794
20
1.86755
11
2.31263
21
1.86452
0
LINE
8
BLACK
6
CONTINUOUS
10
2.31263
20
1.86452
11
2.31627
21
1.86029
0
LINE
8
BLACK
6
CONTINUOUS
10
2.31627
20
1.86029
11
2.31858
21
1.85521
0
LINE
8
BLACK
6
CONTINUOUS
10
2.31858
20
1.85521
11
2.31937
21
1.84969
0
LINE
8
BLACK
6
CONTINUOUS
10
2.31937
20
1.84969
11
2.31936
21
1.8492
0
LINE
8
BLACK
6
CONTINUOUS
10
2.31936
20
1.8492
11
2.31844
21
1.8437
0
LINE
8
BLACK
6
CONTINUOUS
10
2.31844
20
1.8437
11
2.316
21
1.83868
0
LINE
8
BLACK
6
CONTINUOUS
10
2.316
20
1.83868
11
2.31226
21
1.83454
0
LINE
8
BLACK
6
CONTINUOUS
10
2.31226
20
1.83454
11
2.3075
21
1.83162
0
LINE
8
BLACK
6
CONTINUOUS
10
2.3075
20
1.83162
11
2.30212
21
1.83015
0
LINE
8
BLACK
6
CONTINUOUS
10
2.30212
20
1.83015
11
2.29966
21
1.8302
0
LINE
8
BLACK
6
CONTINUOUS
10
2.29966
20
1.8302
11
2.29969
21
1.83
0
LINE
8
BLACK
6
CONTINUOUS
10
2.29969
20
1.83
11
2.29968
21
1.8298
0
LINE
8
BLACK
6
CONTINUOUS
10
2.29968
20
1.8298
11
2.30259
21
1.82978
0
LINE
8
BLACK
6
CONTINUOUS
10
2.30259
20
1.82978
11
2.30794
21
1.82818
0
LINE
8
BLACK
6
CONTINUOUS
10
2.30794
20
1.82818
11
2.31263
21
1.82515
0
LINE
8
BLACK
6
CONTINUOUS
10
2.31263
20
1.82515
11
2.31627
21
1.82092
0
LINE
8
BLACK
6
CONTINUOUS
10
2.31627
20
1.82092
11
2.31858
21
1.81584
0
LINE
8
BLACK
6
CONTINUOUS
10
2.31858
20
1.81584
11
2.31937
21
1.81031
0
LINE
8
BLACK
6
CONTINUOUS
10
2.31937
20
1.81031
11
2.31936
21
1.80983
0
LINE
8
BLACK
6
CONTINUOUS
10
2.31936
20
1.80983
11
2.31844
21
1.80433
0
LINE
8
BLACK
6
CONTINUOUS
10
2.31844
20
1.80433
11
2.316
21
1.79931
0
LINE
8
BLACK
6
CONTINUOUS
10
2.316
20
1.79931
11
2.31226
21
1.79517
0
LINE
8
BLACK
6
CONTINUOUS
10
2.31226
20
1.79517
11
2.3075
21
1.79225
0
LINE
8
BLACK
6
CONTINUOUS
10
2.3075
20
1.79225
11
2.30212
21
1.79078
0
LINE
8
BLACK
6
CONTINUOUS
10
2.30212
20
1.79078
11
2.29654
21
1.79088
0
LINE
8
BLACK
6
CONTINUOUS
10
2.29654
20
1.79088
11
2.29121
21
1.79255
0
LINE
8
BLACK
6
CONTINUOUS
10
2.29121
20
1.79255
11
2.28656
21
1.79564
0
LINE
8
BLACK
6
CONTINUOUS
10
2.28656
20
1.79564
11
2.28297
21
1.79991
0
LINE
8
BLACK
6
CONTINUOUS
10
2.28297
20
1.79991
11
2.28073
21
1.80502
0
LINE
8
BLACK
6
CONTINUOUS
10
2.28073
20
1.80502
11
2.28001
21
1.81051
0
LINE
8
BLACK
6
CONTINUOUS
10
2.28001
20
1.81051
11
2.27997
21
1.81051
0
LINE
8
BLACK
6
CONTINUOUS
10
2.27997
20
1.81051
11
2.28
21
1.81031
0
LINE
8
BLACK
6
CONTINUOUS
10
2.28
20
1.81031
11
2.27999
21
1.80983
0
LINE
8
BLACK
6
CONTINUOUS
10
2.27999
20
1.80983
11
2.27907
21
1.80433
0
LINE
8
BLACK
6
CONTINUOUS
10
2.27907
20
1.80433
11
2.27663
21
1.79931
0
LINE
8
BLACK
6
CONTINUOUS
10
2.27663
20
1.79931
11
2.27289
21
1.79517
0
LINE
8
BLACK
6
CONTINUOUS
10
2.27289
20
1.79517
11
2.26813
21
1.79225
0
LINE
8
BLACK
6
CONTINUOUS
10
2.26813
20
1.79225
11
2.26275
21
1.79078
0
LINE
8
BLACK
6
CONTINUOUS
10
2.26275
20
1.79078
11
2.25717
21
1.79088
0
LINE
8
BLACK
6
CONTINUOUS
10
2.25717
20
1.79088
11
2.25184
21
1.79255
0
LINE
8
BLACK
6
CONTINUOUS
10
2.25184
20
1.79255
11
2.24719
21
1.79564
0
LINE
8
BLACK
6
CONTINUOUS
10
2.24719
20
1.79564
11
2.2436
21
1.79991
0
LINE
8
BLACK
6
CONTINUOUS
10
2.2436
20
1.79991
11
2.24136
21
1.80502
0
LINE
8
BLACK
6
CONTINUOUS
10
2.24136
20
1.80502
11
2.24063
21
1.81056
0
LINE
8
BLACK
6
CONTINUOUS
10
2.24063
20
1.81056
11
2.24149
21
1.81607
0
LINE
8
BLACK
6
CONTINUOUS
10
2.24149
20
1.81607
11
2.24386
21
1.82112
0
LINE
8
BLACK
6
CONTINUOUS
10
2.24386
20
1.82112
11
2.24756
21
1.82531
0
LINE
8
BLACK
6
CONTINUOUS
10
2.24756
20
1.82531
11
2.25228
21
1.82828
0
LINE
8
BLACK
6
CONTINUOUS
10
2.25228
20
1.82828
11
2.25764
21
1.82982
0
LINE
8
BLACK
6
CONTINUOUS
10
2.25764
20
1.82982
11
2.26037
21
1.8298
0
LINE
8
BLACK
6
CONTINUOUS
10
2.26037
20
1.8298
11
2.26032
21
1.8302
0
LINE
8
BLACK
6
CONTINUOUS
10
2.26032
20
1.8302
11
2.25717
21
1.83025
0
LINE
8
BLACK
6
CONTINUOUS
10
2.25717
20
1.83025
11
2.25184
21
1.83192
0
LINE
8
BLACK
6
CONTINUOUS
10
2.25184
20
1.83192
11
2.24719
21
1.83501
0
LINE
8
BLACK
6
CONTINUOUS
10
2.24719
20
1.83501
11
2.2436
21
1.83928
0
LINE
8
BLACK
6
CONTINUOUS
10
2.2436
20
1.83928
11
2.24136
21
1.84439
0
LINE
8
BLACK
6
CONTINUOUS
10
2.24136
20
1.84439
11
2.24063
21
1.84993
0
LINE
8
BLACK
6
CONTINUOUS
10
2.24063
20
1.84993
11
2.24149
21
1.85544
0
LINE
8
BLACK
6
CONTINUOUS
10
2.24149
20
1.85544
11
2.24386
21
1.86049
0
LINE
8
BLACK
6
CONTINUOUS
10
2.24386
20
1.86049
11
2.24756
21
1.86468
0
LINE
8
BLACK
6
CONTINUOUS
10
2.24756
20
1.86468
11
2.25228
21
1.86765
0
LINE
8
BLACK
6
CONTINUOUS
10
2.25228
20
1.86765
11
2.25764
21
1.86919
0
LINE
8
BLACK
6
CONTINUOUS
10
2.25764
20
1.86919
11
2.26322
21
1.86915
0
LINE
8
BLACK
6
CONTINUOUS
10
2.26322
20
1.86915
11
2.26857
21
1.86755
0
LINE
8
BLACK
6
CONTINUOUS
10
2.26857
20
1.86755
11
2.27326
21
1.86452
0
LINE
8
BLACK
6
CONTINUOUS
10
2.27326
20
1.86452
11
2.2769
21
1.86029
0
LINE
8
BLACK
6
CONTINUOUS
10
2.2769
20
1.86029
11
2.27921
21
1.85521
0
LINE
8
BLACK
6
CONTINUOUS
10
2.27921
20
1.85521
11
2.28
21
1.84969
0
LINE
8
BLACK
6
CONTINUOUS
10
2.28
20
1.84969
11
2.28
21
1.84949
0
LINE
8
BLACK
6
CONTINUOUS
10
2.28
20
1.84949
11
2.28006
21
1.84949
0
LINE
8
BLACK
6
CONTINUOUS
10
2.28006
20
1.84949
11
2.28
21
1.84993
0
LINE
8
BLACK
6
CONTINUOUS
10
2.28
20
1.84993
11
2.28086
21
1.85544
0
LINE
8
BLACK
6
CONTINUOUS
10
2.28086
20
1.85544
11
2.28323
21
1.86049
0
LINE
8
BLACK
6
CONTINUOUS
10
2.28323
20
1.86049
11
2.28693
21
1.86468
0
LINE
8
BLACK
6
CONTINUOUS
10
2.28693
20
1.86468
11
2.29165
21
1.86765
0
LINE
8
BLACK
6
CONTINUOUS
10
2.29165
20
1.86765
11
2.29701
21
1.86919
0
LINE
8
BLACK
6
CONTINUOUS
10
2.29701
20
1.86919
11
2.30259
21
1.86915
0
LINE
8
BLACK
6
CONTINUOUS
10
0.159229
20
2.00352
11
0.168178
21
2.00113
0
LINE
8
BLACK
6
CONTINUOUS
10
0.168178
20
2.00113
11
0.176575
21
1.99721
0
LINE
8
BLACK
6
CONTINUOUS
10
0.176575
20
1.99721
11
0.184164
21
1.9919
0
LINE
8
BLACK
6
CONTINUOUS
10
0.184164
20
1.9919
11
0.190715
21
1.98534
0
LINE
8
BLACK
6
CONTINUOUS
10
0.190715
20
1.98534
11
0.196029
21
1.97776
0
LINE
8
BLACK
6
CONTINUOUS
10
0.196029
20
1.97776
11
0.199944
21
1.96936
0
LINE
8
BLACK
6
CONTINUOUS
10
0.199944
20
1.96936
11
0.202342
21
1.96041
0
LINE
8
BLACK
6
CONTINUOUS
10
0.202342
20
1.96041
11
0.20315
21
1.95118
0
LINE
8
BLACK
6
CONTINUOUS
10
0.20315
20
1.95118
11
0.202342
21
1.94195
0
LINE
8
BLACK
6
CONTINUOUS
10
0.202342
20
1.94195
11
0.199944
21
1.933
0
LINE
8
BLACK
6
CONTINUOUS
10
0.199944
20
1.933
11
0.196029
21
1.92461
0
LINE
8
BLACK
6
CONTINUOUS
10
0.196029
20
1.92461
11
0.190715
21
1.91702
0
LINE
8
BLACK
6
CONTINUOUS
10
0.190715
20
1.91702
11
0.184164
21
1.91047
0
LINE
8
BLACK
6
CONTINUOUS
10
0.184164
20
1.91047
11
0.176575
21
1.90515
0
LINE
8
BLACK
6
CONTINUOUS
10
0.176575
20
1.90515
11
0.168178
21
1.90124
0
LINE
8
BLACK
6
CONTINUOUS
10
0.168178
20
1.90124
11
0.159229
21
1.89884
0
LINE
8
BLACK
6
CONTINUOUS
10
0.159229
20
1.89884
11
0.15
21
1.89803
0
LINE
8
BLACK
6
CONTINUOUS
10
0.15
20
1.89803
11
0.140771
21
1.89884
0
LINE
8
BLACK
6
CONTINUOUS
10
0.140771
20
1.89884
11
0.131822
21
1.90124
0
LINE
8
BLACK
6
CONTINUOUS
10
0.131822
20
1.90124
11
0.123425
21
1.90515
0
LINE
8
BLACK
6
CONTINUOUS
10
0.123425
20
1.90515
11
0.115836
21
1.91047
0
LINE
8
BLACK
6
CONTINUOUS
10
0.115836
20
1.91047
11
0.109285
21
1.91702
0
LINE
8
BLACK
6
CONTINUOUS
10
0.109285
20
1.91702
11
0.103971
21
1.92461
0
LINE
8
BLACK
6
CONTINUOUS
10
0.103971
20
1.92461
11
0.100056
21
1.933
0
LINE
8
BLACK
6
CONTINUOUS
10
0.100056
20
1.933
11
0.0976579
21
1.94195
0
LINE
8
BLACK
6
CONTINUOUS
10
0.0976579
20
1.94195
11
0.0968504
21
1.95118
0
LINE
8
BLACK
6
CONTINUOUS
10
0.0968504
20
1.95118
11
0.0976579
21
1.96041
0
LINE
8
BLACK
6
CONTINUOUS
10
0.0976579
20
1.96041
11
0.100056
21
1.96936
0
LINE
8
BLACK
6
CONTINUOUS
10
0.100056
20
1.96936
11
0.103971
21
1.97776
0
LINE
8
BLACK
6
CONTINUOUS
10
0.103971
20
1.97776
11
0.109285
21
1.98534
0
LINE
8
BLACK
6
CONTINUOUS
10
0.109285
20
1.98534
11
0.115836
21
1.9919
0
LINE
8
BLACK
6
CONTINUOUS
10
0.115836
20
1.9919
11
0.123425
21
1.99721
0
LINE
8
BLACK
6
CONTINUOUS
10
0.123425
20
1.99721
11
0.131822
21
2.00113
0
LINE
8
BLACK
6
CONTINUOUS
10
0.131822
20
2.00113
11
0.140771
21
2.00352
0
LINE
8
BLACK
6
CONTINUOUS
10
0.140771
20
2.00352
11
0.15
21
2.00433
0
LINE
8
BLACK
6
CONTINUOUS
10
0.15
20
2.00433
11
0.159229
21
2.00352
0
LINE
8
BLACK
6
CONTINUOUS
10
0.214917
20
2.7251
11
0.228769
21
2.72266
0
LINE
8
BLACK
6
CONTINUOUS
10
0.228769
20
2.72266
11
0.242262
21
2.71868
0
LINE
8
BLACK
6
CONTINUOUS
10
0.242262
20
2.71868
11
0.255228
21
2.71323
0
LINE
8
BLACK
6
CONTINUOUS
10
0.255228
20
2.71323
11
0.267506
21
2.70637
0
LINE
8
BLACK
6
CONTINUOUS
10
0.267506
20
2.70637
11
0.278942
21
2.69818
0
LINE
8
BLACK
6
CONTINUOUS
10
0.278942
20
2.69818
11
0.289395
21
2.68877
0
LINE
8
BLACK
6
CONTINUOUS
10
0.289395
20
2.68877
11
0.298733
21
2.67825
0
LINE
8
BLACK
6
CONTINUOUS
10
0.298733
20
2.67825
11
0.306841
21
2.66676
0
LINE
8
BLACK
6
CONTINUOUS
10
0.306841
20
2.66676
11
0.313617
21
2.65444
0
LINE
8
BLACK
6
CONTINUOUS
10
0.313617
20
2.65444
11
0.318977
21
2.64143
0
LINE
8
BLACK
6
CONTINUOUS
10
0.318977
20
2.64143
11
0.322853
21
2.62791
0
LINE
8
BLACK
6
CONTINUOUS
10
0.322853
20
2.62791
11
0.325199
21
2.61404
0
LINE
8
BLACK
6
CONTINUOUS
10
0.325199
20
2.61404
11
0.325984
21
2.6
0
LINE
8
BLACK
6
CONTINUOUS
10
0.325984
20
2.6
11
0.325976
21
2.59941
0
LINE
8
BLACK
6
CONTINUOUS
10
0.325976
20
2.59941
11
0.45
21
2.59941
0
LINE
8
BLACK
6
CONTINUOUS
10
0.45
20
2.59941
11
0.453013
21
2.59881
0
LINE
8
BLACK
6
CONTINUOUS
10
0.453013
20
2.59881
11
0.455568
21
2.5971
0
LINE
8
BLACK
6
CONTINUOUS
10
0.455568
20
2.5971
11
0.457275
21
2.59455
0
LINE
8
BLACK
6
CONTINUOUS
10
0.457275
20
2.59455
11
0.457874
21
2.59154
0
LINE
8
BLACK
6
CONTINUOUS
10
0.457874
20
2.59154
11
0.457874
21
2.15846
0
LINE
8
BLACK
6
CONTINUOUS
10
0.457874
20
2.15846
11
0.457275
21
2.15545
0
LINE
8
BLACK
6
CONTINUOUS
10
0.457275
20
2.15545
11
0.455568
21
2.1529
0
LINE
8
BLACK
6
CONTINUOUS
10
0.455568
20
2.1529
11
0.453013
21
2.15119
0
LINE
8
BLACK
6
CONTINUOUS
10
0.453013
20
2.15119
11
0.45
21
2.15059
0
LINE
8
BLACK
6
CONTINUOUS
10
0.45
20
2.15059
11
0.308268
21
2.15059
0
LINE
8
BLACK
6
CONTINUOUS
10
0.308268
20
2.15059
11
0.305254
21
2.15119
0
LINE
8
BLACK
6
CONTINUOUS
10
0.305254
20
2.15119
11
0.3027
21
2.1529
0
LINE
8
BLACK
6
CONTINUOUS
10
0.3027
20
2.1529
11
0.300993
21
2.15545
0
LINE
8
BLACK
6
CONTINUOUS
10
0.300993
20
2.15545
11
0.300394
21
2.15846
0
LINE
8
BLACK
6
CONTINUOUS
10
0.300394
20
2.15846
11
0.300394
21
2.52421
0
LINE
8
BLACK
6
CONTINUOUS
10
0.300394
20
2.52421
11
0.29651
21
2.51902
0
LINE
8
BLACK
6
CONTINUOUS
10
0.29651
20
2.51902
11
0.286881
21
2.50877
0
LINE
8
BLACK
6
CONTINUOUS
10
0.286881
20
2.50877
11
0.27617
21
2.49965
0
LINE
8
BLACK
6
CONTINUOUS
10
0.27617
20
2.49965
11
0.264509
21
2.49178
0
LINE
8
BLACK
6
CONTINUOUS
10
0.264509
20
2.49178
11
0.252045
21
2.48527
0
LINE
8
BLACK
6
CONTINUOUS
10
0.252045
20
2.48527
11
0.238931
21
2.48018
0
LINE
8
BLACK
6
CONTINUOUS
10
0.238931
20
2.48018
11
0.225333
21
2.47659
0
LINE
8
BLACK
6
CONTINUOUS
10
0.225333
20
2.47659
11
0.211418
21
2.47453
0
LINE
8
BLACK
6
CONTINUOUS
10
0.211418
20
2.47453
11
0.197362
21
2.47404
0
LINE
8
BLACK
6
CONTINUOUS
10
0.197362
20
2.47404
11
0.183338
21
2.47512
0
LINE
8
BLACK
6
CONTINUOUS
10
0.183338
20
2.47512
11
0.169522
21
2.47776
0
LINE
8
BLACK
6
CONTINUOUS
10
0.169522
20
2.47776
11
0.156085
21
2.48192
0
LINE
8
BLACK
6
CONTINUOUS
10
0.156085
20
2.48192
11
0.143197
21
2.48755
0
LINE
8
BLACK
6
CONTINUOUS
10
0.143197
20
2.48755
11
0.131016
21
2.49458
0
LINE
8
BLACK
6
CONTINUOUS
10
0.131016
20
2.49458
11
0.119695
21
2.50293
0
LINE
8
BLACK
6
CONTINUOUS
10
0.119695
20
2.50293
11
0.109375
21
2.51248
0
LINE
8
BLACK
6
CONTINUOUS
10
0.109375
20
2.51248
11
0.100184
21
2.52313
0
LINE
8
BLACK
6
CONTINUOUS
10
0.100184
20
2.52313
11
0.0922376
21
2.53474
0
LINE
8
BLACK
6
CONTINUOUS
10
0.0922376
20
2.53474
11
0.0856343
21
2.54716
0
LINE
8
BLACK
6
CONTINUOUS
10
0.0856343
20
2.54716
11
0.0804566
21
2.56023
0
LINE
8
BLACK
6
CONTINUOUS
10
0.0804566
20
2.56023
11
0.0767688
21
2.57381
0
LINE
8
BLACK
6
CONTINUOUS
10
0.0767688
20
2.57381
11
0.074617
21
2.58771
0
LINE
8
BLACK
6
CONTINUOUS
10
0.074617
20
2.58771
11
0.074028
21
2.60176
0
LINE
8
BLACK
6
CONTINUOUS
10
0.074028
20
2.60176
11
0.0750092
21
2.61579
0
LINE
8
BLACK
6
CONTINUOUS
10
0.0750092
20
2.61579
11
0.0775482
21
2.62962
0
LINE
8
BLACK
6
CONTINUOUS
10
0.0775482
20
2.62962
11
0.0816135
21
2.64309
0
LINE
8
BLACK
6
CONTINUOUS
10
0.0816135
20
2.64309
11
0.0871544
21
2.65602
0
LINE
8
BLACK
6
CONTINUOUS
10
0.0871544
20
2.65602
11
0.0941019
21
2.66825
0
LINE
8
BLACK
6
CONTINUOUS
10
0.0941019
20
2.66825
11
0.102369
21
2.67963
0
LINE
8
BLACK
6
CONTINUOUS
10
0.102369
20
2.67963
11
0.111853
21
2.69001
0
LINE
8
BLACK
6
CONTINUOUS
10
0.111853
20
2.69001
11
0.122436
21
2.69928
0
LINE
8
BLACK
6
CONTINUOUS
10
0.122436
20
2.69928
11
0.133986
21
2.7073
0
LINE
8
BLACK
6
CONTINUOUS
10
0.133986
20
2.7073
11
0.146359
21
2.71399
0
LINE
8
BLACK
6
CONTINUOUS
10
0.146359
20
2.71399
11
0.1594
21
2.71926
0
LINE
8
BLACK
6
CONTINUOUS
10
0.1594
20
2.71926
11
0.172947
21
2.72305
0
LINE
8
BLACK
6
CONTINUOUS
10
0.172947
20
2.72305
11
0.186831
21
2.72529
0
LINE
8
BLACK
6
CONTINUOUS
10
0.186831
20
2.72529
11
0.20088
21
2.72598
0
LINE
8
BLACK
6
CONTINUOUS
10
0.20088
20
2.72598
11
0.214917
21
2.7251
0
LINE
8
BLACK
6
CONTINUOUS
10
2.69494
20
2.59881
11
2.6975
21
2.5971
0
LINE
8
BLACK
6
CONTINUOUS
10
2.6975
20
2.5971
11
2.6992
21
2.59455
0
LINE
8
BLACK
6
CONTINUOUS
10
2.6992
20
2.59455
11
2.6998
21
2.59154
0
LINE
8
BLACK
6
CONTINUOUS
10
2.6998
20
2.59154
11
2.6998
21
2.15846
0
LINE
8
BLACK
6
CONTINUOUS
10
2.6998
20
2.15846
11
2.6992
21
2.15545
0
LINE
8
BLACK
6
CONTINUOUS
10
2.6992
20
2.15545
11
2.6975
21
2.1529
0
LINE
8
BLACK
6
CONTINUOUS
10
2.6975
20
2.1529
11
2.69494
21
2.15119
0
LINE
8
BLACK
6
CONTINUOUS
10
2.69494
20
2.15119
11
2.69193
21
2.15059
0
LINE
8
BLACK
6
CONTINUOUS
10
2.69193
20
2.15059
11
2.41634
21
2.15059
0
LINE
8
BLACK
6
CONTINUOUS
10
2.41634
20
2.15059
11
2.41333
21
2.15119
0
LINE
8
BLACK
6
CONTINUOUS
10
2.41333
20
2.15119
11
2.41077
21
2.1529
0
LINE
8
BLACK
6
CONTINUOUS
10
2.41077
20
2.1529
11
2.40906
21
2.15545
0
LINE
8
BLACK
6
CONTINUOUS
10
2.40906
20
2.15545
11
2.40846
21
2.15846
0
LINE
8
BLACK
6
CONTINUOUS
10
2.40846
20
2.15846
11
2.40846
21
2.59154
0
LINE
8
BLACK
6
CONTINUOUS
10
2.40846
20
2.59154
11
2.40906
21
2.59455
0
LINE
8
BLACK
6
CONTINUOUS
10
2.40906
20
2.59455
11
2.41077
21
2.5971
0
LINE
8
BLACK
6
CONTINUOUS
10
2.41077
20
2.5971
11
2.41333
21
2.59881
0
LINE
8
BLACK
6
CONTINUOUS
10
2.41333
20
2.59881
11
2.41634
21
2.59941
0
LINE
8
BLACK
6
CONTINUOUS
10
2.41634
20
2.59941
11
2.69193
21
2.59941
0
LINE
8
BLACK
6
CONTINUOUS
10
2.69193
20
2.59941
11
2.69494
21
2.59881
0
LINE
8
BLACK
6
CONTINUOUS
10
2.78018
20
2.25105
11
2.78273
21
2.24935
0
LINE
8
BLACK
6
CONTINUOUS
10
2.78273
20
2.24935
11
2.78444
21
2.24679
0
LINE
8
BLACK
6
CONTINUOUS
10
2.78444
20
2.24679
11
2.78504
21
2.24378
0
LINE
8
BLACK
6
CONTINUOUS
10
2.78504
20
2.24378
11
2.78504
21
2.18378
0
LINE
8
BLACK
6
CONTINUOUS
10
2.78504
20
2.18378
11
2.78444
21
2.18077
0
LINE
8
BLACK
6
CONTINUOUS
10
2.78444
20
2.18077
11
2.78273
21
2.17821
0
LINE
8
BLACK
6
CONTINUOUS
10
2.78273
20
2.17821
11
2.78018
21
2.1765
0
LINE
8
BLACK
6
CONTINUOUS
10
2.78018
20
2.1765
11
2.77717
21
2.17591
0
LINE
8
BLACK
6
CONTINUOUS
10
2.77717
20
2.17591
11
2.71717
21
2.17591
0
LINE
8
BLACK
6
CONTINUOUS
10
2.71717
20
2.17591
11
2.71415
21
2.1765
0
LINE
8
BLACK
6
CONTINUOUS
10
2.71415
20
2.1765
11
2.7116
21
2.17821
0
LINE
8
BLACK
6
CONTINUOUS
10
2.7116
20
2.17821
11
2.70989
21
2.18077
0
LINE
8
BLACK
6
CONTINUOUS
10
2.70989
20
2.18077
11
2.70929
21
2.18378
0
LINE
8
BLACK
6
CONTINUOUS
10
2.70929
20
2.18378
11
2.70929
21
2.24378
0
LINE
8
BLACK
6
CONTINUOUS
10
2.70929
20
2.24378
11
2.70989
21
2.24679
0
LINE
8
BLACK
6
CONTINUOUS
10
2.70989
20
2.24679
11
2.7116
21
2.24935
0
LINE
8
BLACK
6
CONTINUOUS
10
2.7116
20
2.24935
11
2.71415
21
2.25105
0
LINE
8
BLACK
6
CONTINUOUS
10
2.71415
20
2.25105
11
2.71717
21
2.25165
0
LINE
8
BLACK
6
CONTINUOUS
10
2.71717
20
2.25165
11
2.77717
21
2.25165
0
LINE
8
BLACK
6
CONTINUOUS
10
2.77717
20
2.25165
11
2.78018
21
2.25105
0
LINE
8
BLACK
6
CONTINUOUS
10
0.532147
20
2.25105
11
0.534702
21
2.24935
0
LINE
8
BLACK
6
CONTINUOUS
10
0.534702
20
2.24935
11
0.536409
21
2.24679
0
LINE
8
BLACK
6
CONTINUOUS
10
0.536409
20
2.24679
11
0.537008
21
2.24378
0
LINE
8
BLACK
6
CONTINUOUS
10
0.537008
20
2.24378
11
0.537008
21
2.18378
0
LINE
8
BLACK
6
CONTINUOUS
10
0.537008
20
2.18378
11
0.536409
21
2.18077
0
LINE
8
BLACK
6
CONTINUOUS
10
0.536409
20
2.18077
11
0.534702
21
2.17821
0
LINE
8
BLACK
6
CONTINUOUS
10
0.534702
20
2.17821
11
0.532147
21
2.1765
0
LINE
8
BLACK
6
CONTINUOUS
10
0.532147
20
2.1765
11
0.529134
21
2.17591
0
LINE
8
BLACK
6
CONTINUOUS
10
0.529134
20
2.17591
11
0.469134
21
2.17591
0
LINE
8
BLACK
6
CONTINUOUS
10
0.469134
20
2.17591
11
0.466121
21
2.1765
0
LINE
8
BLACK
6
CONTINUOUS
10
0.466121
20
2.1765
11
0.463566
21
2.17821
0
LINE
8
BLACK
6
CONTINUOUS
10
0.463566
20
2.17821
11
0.461859
21
2.18077
0
LINE
8
BLACK
6
CONTINUOUS
10
0.461859
20
2.18077
11
0.46126
21
2.18378
0
LINE
8
BLACK
6
CONTINUOUS
10
0.46126
20
2.18378
11
0.46126
21
2.24378
0
LINE
8
BLACK
6
CONTINUOUS
10
0.46126
20
2.24378
11
0.461859
21
2.24679
0
LINE
8
BLACK
6
CONTINUOUS
10
0.461859
20
2.24679
11
0.463566
21
2.24935
0
LINE
8
BLACK
6
CONTINUOUS
10
0.463566
20
2.24935
11
0.466121
21
2.25105
0
LINE
8
BLACK
6
CONTINUOUS
10
0.466121
20
2.25105
11
0.469134
21
2.25165
0
LINE
8
BLACK
6
CONTINUOUS
10
0.469134
20
2.25165
11
0.529134
21
2.25165
0
LINE
8
BLACK
6
CONTINUOUS
10
0.529134
20
2.25165
11
0.532147
21
2.25105
0
LINE
8
BLACK
6
CONTINUOUS
10
0.532147
20
2.35105
11
0.534702
21
2.34935
0
LINE
8
BLACK
6
CONTINUOUS
10
0.534702
20
2.34935
11
0.536409
21
2.34679
0
LINE
8
BLACK
6
CONTINUOUS
10
0.536409
20
2.34679
11
0.537008
21
2.34378
0
LINE
8
BLACK
6
CONTINUOUS
10
0.537008
20
2.34378
11
0.537008
21
2.28378
0
LINE
8
BLACK
6
CONTINUOUS
10
0.537008
20
2.28378
11
0.536409
21
2.28077
0
LINE
8
BLACK
6
CONTINUOUS
10
0.536409
20
2.28077
11
0.534702
21
2.27821
0
LINE
8
BLACK
6
CONTINUOUS
10
0.534702
20
2.27821
11
0.532147
21
2.2765
0
LINE
8
BLACK
6
CONTINUOUS
10
0.532147
20
2.2765
11
0.529134
21
2.27591
0
LINE
8
BLACK
6
CONTINUOUS
10
0.529134
20
2.27591
11
0.469134
21
2.27591
0
LINE
8
BLACK
6
CONTINUOUS
10
0.469134
20
2.27591
11
0.466121
21
2.2765
0
LINE
8
BLACK
6
CONTINUOUS
10
0.466121
20
2.2765
11
0.463566
21
2.27821
0
LINE
8
BLACK
6
CONTINUOUS
10
0.463566
20
2.27821
11
0.461859
21
2.28077
0
LINE
8
BLACK
6
CONTINUOUS
10
0.461859
20
2.28077
11
0.46126
21
2.28378
0
LINE
8
BLACK
6
CONTINUOUS
10
0.46126
20
2.28378
11
0.46126
21
2.34378
0
LINE
8
BLACK
6
CONTINUOUS
10
0.46126
20
2.34378
11
0.461859
21
2.34679
0
LINE
8
BLACK
6
CONTINUOUS
10
0.461859
20
2.34679
11
0.463566
21
2.34935
0
LINE
8
BLACK
6
CONTINUOUS
10
0.463566
20
2.34935
11
0.466121
21
2.35105
0
LINE
8
BLACK
6
CONTINUOUS
10
0.466121
20
2.35105
11
0.469134
21
2.35165
0
LINE
8
BLACK
6
CONTINUOUS
10
0.469134
20
2.35165
11
0.529134
21
2.35165
0
LINE
8
BLACK
6
CONTINUOUS
10
0.529134
20
2.35165
11
0.532147
21
2.35105
0
LINE
8
BLACK
6
CONTINUOUS
10
2.78018
20
2.35105
11
2.78273
21
2.34935
0
LINE
8
BLACK
6
CONTINUOUS
10
2.78273
20
2.34935
11
2.78444
21
2.34679
0
LINE
8
BLACK
6
CONTINUOUS
10
2.78444
20
2.34679
11
2.78504
21
2.34378
0
LINE
8
BLACK
6
CONTINUOUS
10
2.78504
20
2.34378
11
2.78504
21
2.28378
0
LINE
8
BLACK
6
CONTINUOUS
10
2.78504
20
2.28378
11
2.78444
21
2.28077
0
LINE
8
BLACK
6
CONTINUOUS
10
2.78444
20
2.28077
11
2.78273
21
2.27821
0
LINE
8
BLACK
6
CONTINUOUS
10
2.78273
20
2.27821
11
2.78018
21
2.2765
0
LINE
8
BLACK
6
CONTINUOUS
10
2.78018
20
2.2765
11
2.77717
21
2.27591
0
LINE
8
BLACK
6
CONTINUOUS
10
2.77717
20
2.27591
11
2.71717
21
2.27591
0
LINE
8
BLACK
6
CONTINUOUS
10
2.71717
20
2.27591
11
2.71415
21
2.2765
0
LINE
8
BLACK
6
CONTINUOUS
10
2.71415
20
2.2765
11
2.7116
21
2.27821
0
LINE
8
BLACK
6
CONTINUOUS
10
2.7116
20
2.27821
11
2.70989
21
2.28077
0
LINE
8
BLACK
6
CONTINUOUS
10
2.70989
20
2.28077
11
2.70929
21
2.28378
0
LINE
8
BLACK
6
CONTINUOUS
10
2.70929
20
2.28378
11
2.70929
21
2.34378
0
LINE
8
BLACK
6
CONTINUOUS
10
2.70929
20
2.34378
11
2.70989
21
2.34679
0
LINE
8
BLACK
6
CONTINUOUS
10
2.70989
20
2.34679
11
2.7116
21
2.34935
0
LINE
8
BLACK
6
CONTINUOUS
10
2.7116
20
2.34935
11
2.71415
21
2.35105
0
LINE
8
BLACK
6
CONTINUOUS
10
2.71415
20
2.35105
11
2.71717
21
2.35165
0
LINE
8
BLACK
6
CONTINUOUS
10
2.71717
20
2.35165
11
2.77717
21
2.35165
0
LINE
8
BLACK
6
CONTINUOUS
10
2.77717
20
2.35165
11
2.78018
21
2.35105
0
LINE
8
BLACK
6
CONTINUOUS
10
1.99301
20
2.40227
11
1.99557
21
2.40057
0
LINE
8
BLACK
6
CONTINUOUS
10
1.99557
20
2.40057
11
1.99727
21
2.39801
0
LINE
8
BLACK
6
CONTINUOUS
10
1.99727
20
2.39801
11
1.99787
21
2.395
0
LINE
8
BLACK
6
CONTINUOUS
10
1.99787
20
2.395
11
1.99787
21
2.335
0
LINE
8
BLACK
6
CONTINUOUS
10
1.99787
20
2.335
11
1.99727
21
2.33199
0
LINE
8
BLACK
6
CONTINUOUS
10
1.99727
20
2.33199
11
1.99557
21
2.32943
0
LINE
8
BLACK
6
CONTINUOUS
10
1.99557
20
2.32943
11
1.99301
21
2.32773
0
LINE
8
BLACK
6
CONTINUOUS
10
1.99301
20
2.32773
11
1.99
21
2.32713
0
LINE
8
BLACK
6
CONTINUOUS
10
1.99
20
2.32713
11
1.93
21
2.32713
0
LINE
8
BLACK
6
CONTINUOUS
10
1.93
20
2.32713
11
1.92699
21
2.32773
0
LINE
8
BLACK
6
CONTINUOUS
10
1.92699
20
2.32773
11
1.92443
21
2.32943
0
LINE
8
BLACK
6
CONTINUOUS
10
1.92443
20
2.32943
11
1.92273
21
2.33199
0
LINE
8
BLACK
6
CONTINUOUS
10
1.92273
20
2.33199
11
1.92213
21
2.335
0
LINE
8
BLACK
6
CONTINUOUS
10
1.92213
20
2.335
11
1.92213
21
2.395
0
LINE
8
BLACK
6
CONTINUOUS
10
1.92213
20
2.395
11
1.92273
21
2.39801
0
LINE
8
BLACK
6
CONTINUOUS
10
1.92273
20
2.39801
11
1.92443
21
2.40057
0
LINE
8
BLACK
6
CONTINUOUS
10
1.92443
20
2.40057
11
1.92699
21
2.40227
0
LINE
8
BLACK
6
CONTINUOUS
10
1.92699
20
2.40227
11
1.93
21
2.40287
0
LINE
8
BLACK
6
CONTINUOUS
10
1.93
20
2.40287
11
1.99
21
2.40287
0
LINE
8
BLACK
6
CONTINUOUS
10
1.99
20
2.40287
11
1.99301
21
2.40227
0
LINE
8
BLACK
6
CONTINUOUS
10
2.09301
20
2.40227
11
2.09557
21
2.40057
0
LINE
8
BLACK
6
CONTINUOUS
10
2.09557
20
2.40057
11
2.09727
21
2.39801
0
LINE
8
BLACK
6
CONTINUOUS
10
2.09727
20
2.39801
11
2.09787
21
2.395
0
LINE
8
BLACK
6
CONTINUOUS
10
2.09787
20
2.395
11
2.09787
21
2.335
0
LINE
8
BLACK
6
CONTINUOUS
10
2.09787
20
2.335
11
2.09727
21
2.33199
0
LINE
8
BLACK
6
CONTINUOUS
10
2.09727
20
2.33199
11
2.09557
21
2.32943
0
LINE
8
BLACK
6
CONTINUOUS
10
2.09557
20
2.32943
11
2.09301
21
2.32773
0
LINE
8
BLACK
6
CONTINUOUS
10
2.09301
20
2.32773
11
2.09
21
2.32713
0
LINE
8
BLACK
6
CONTINUOUS
10
2.09
20
2.32713
11
2.03
21
2.32713
0
LINE
8
BLACK
6
CONTINUOUS
10
2.03
20
2.32713
11
2.02699
21
2.32773
0
LINE
8
BLACK
6
CONTINUOUS
10
2.02699
20
2.32773
11
2.02443
21
2.32943
0
LINE
8
BLACK
6
CONTINUOUS
10
2.02443
20
2.32943
11
2.02273
21
2.33199
0
LINE
8
BLACK
6
CONTINUOUS
10
2.02273
20
2.33199
11
2.02213
21
2.335
0
LINE
8
BLACK
6
CONTINUOUS
10
2.02213
20
2.335
11
2.02213
21
2.395
0
LINE
8
BLACK
6
CONTINUOUS
10
2.02213
20
2.395
11
2.02273
21
2.39801
0
LINE
8
BLACK
6
CONTINUOUS
10
2.02273
20
2.39801
11
2.02443
21
2.40057
0
LINE
8
BLACK
6
CONTINUOUS
10
2.02443
20
2.40057
11
2.02699
21
2.40227
0
LINE
8
BLACK
6
CONTINUOUS
10
2.02699
20
2.40227
11
2.03
21
2.40287
0
LINE
8
BLACK
6
CONTINUOUS
10
2.03
20
2.40287
11
2.09
21
2.40287
0
LINE
8
BLACK
6
CONTINUOUS
10
2.09
20
2.40287
11
2.09301
21
2.40227
0
LINE
8
BLACK
6
CONTINUOUS
10
2.19301
20
2.40227
11
2.19557
21
2.40057
0
LINE
8
BLACK
6
CONTINUOUS
10
2.19557
20
2.40057
11
2.19727
21
2.39801
0
LINE
8
BLACK
6
CONTINUOUS
10
2.19727
20
2.39801
11
2.19787
21
2.395
0
LINE
8
BLACK
6
CONTINUOUS
10
2.19787
20
2.395
11
2.19787
21
2.335
0
LINE
8
BLACK
6
CONTINUOUS
10
2.19787
20
2.335
11
2.19727
21
2.33199
0
LINE
8
BLACK
6
CONTINUOUS
10
2.19727
20
2.33199
11
2.19557
21
2.32943
0
LINE
8
BLACK
6
CONTINUOUS
10
2.19557
20
2.32943
11
2.19301
21
2.32773
0
LINE
8
BLACK
6
CONTINUOUS
10
2.19301
20
2.32773
11
2.19
21
2.32713
0
LINE
8
BLACK
6
CONTINUOUS
10
2.19
20
2.32713
11
2.13
21
2.32713
0
LINE
8
BLACK
6
CONTINUOUS
10
2.13
20
2.32713
11
2.12699
21
2.32773
0
LINE
8
BLACK
6
CONTINUOUS
10
2.12699
20
2.32773
11
2.12443
21
2.32943
0
LINE
8
BLACK
6
CONTINUOUS
10
2.12443
20
2.32943
11
2.12273
21
2.33199
0
LINE
8
BLACK
6
CONTINUOUS
10
2.12273
20
2.33199
11
2.12213
21
2.335
0
LINE
8
BLACK
6
CONTINUOUS
10
2.12213
20
2.335
11
2.12213
21
2.395
0
LINE
8
BLACK
6
CONTINUOUS
10
2.12213
20
2.395
11
2.12273
21
2.39801
0
LINE
8
BLACK
6
CONTINUOUS
10
2.12273
20
2.39801
11
2.12443
21
2.40057
0
LINE
8
BLACK
6
CONTINUOUS
10
2.12443
20
2.40057
11
2.12699
21
2.40227
0
LINE
8
BLACK
6
CONTINUOUS
10
2.12699
20
2.40227
11
2.13
21
2.40287
0
LINE
8
BLACK
6
CONTINUOUS
10
2.13
20
2.40287
11
2.19
21
2.40287
0
LINE
8
BLACK
6
CONTINUOUS
10
2.19
20
2.40287
11
2.19301
21
2.40227
0
LINE
8
BLACK
6
CONTINUOUS
10
0.532147
20
2.45105
11
0.534702
21
2.44935
0
LINE
8
BLACK
6
CONTINUOUS
10
0.534702
20
2.44935
11
0.536409
21
2.44679
0
LINE
8
BLACK
6
CONTINUOUS
10
0.536409
20
2.44679
11
0.537008
21
2.44378
0
LINE
8
BLACK
6
CONTINUOUS
10
0.537008
20
2.44378
11
0.537008
21
2.38378
0
LINE
8
BLACK
6
CONTINUOUS
10
0.537008
20
2.38378
11
0.536409
21
2.38077
0
LINE
8
BLACK
6
CONTINUOUS
10
0.536409
20
2.38077
11
0.534702
21
2.37821
0
LINE
8
BLACK
6
CONTINUOUS
10
0.534702
20
2.37821
11
0.532147
21
2.3765
0
LINE
8
BLACK
6
CONTINUOUS
10
0.532147
20
2.3765
11
0.529134
21
2.37591
0
LINE
8
BLACK
6
CONTINUOUS
10
0.529134
20
2.37591
11
0.469134
21
2.37591
0
LINE
8
BLACK
6
CONTINUOUS
10
0.469134
20
2.37591
11
0.466121
21
2.3765
0
LINE
8
BLACK
6
CONTINUOUS
10
0.466121
20
2.3765
11
0.463566
21
2.37821
0
LINE
8
BLACK
6
CONTINUOUS
10
0.463566
20
2.37821
11
0.461859
21
2.38077
0
LINE
8
BLACK
6
CONTINUOUS
10
0.461859
20
2.38077
11
0.46126
21
2.38378
0
LINE
8
BLACK
6
CONTINUOUS
10
0.46126
20
2.38378
11
0.46126
21
2.44378
0
LINE
8
BLACK
6
CONTINUOUS
10
0.46126
20
2.44378
11
0.461859
21
2.44679
0
LINE
8
BLACK
6
CONTINUOUS
10
0.461859
20
2.44679
11
0.463566
21
2.44935
0
LINE
8
BLACK
6
CONTINUOUS
10
0.463566
20
2.44935
11
0.466121
21
2.45105
0
LINE
8
BLACK
6
CONTINUOUS
10
0.466121
20
2.45105
11
0.469134
21
2.45165
0
LINE
8
BLACK
6
CONTINUOUS
10
0.469134
20
2.45165
11
0.529134
21
2.45165
0
LINE
8
BLACK
6
CONTINUOUS
10
0.529134
20
2.45165
11
0.532147
21
2.45105
0
LINE
8
BLACK
6
CONTINUOUS
10
2.78018
20
2.45105
11
2.78273
21
2.44935
0
LINE
8
BLACK
6
CONTINUOUS
10
2.78273
20
2.44935
11
2.78444
21
2.44679
0
LINE
8
BLACK
6
CONTINUOUS
10
2.78444
20
2.44679
11
2.78504
21
2.44378
0
LINE
8
BLACK
6
CONTINUOUS
10
2.78504
20
2.44378
11
2.78504
21
2.38378
0
LINE
8
BLACK
6
CONTINUOUS
10
2.78504
20
2.38378
11
2.78444
21
2.38077
0
LINE
8
BLACK
6
CONTINUOUS
10
2.78444
20
2.38077
11
2.78273
21
2.37821
0
LINE
8
BLACK
6
CONTINUOUS
10
2.78273
20
2.37821
11
2.78018
21
2.3765
0
LINE
8
BLACK
6
CONTINUOUS
10
2.78018
20
2.3765
11
2.77717
21
2.37591
0
LINE
8
BLACK
6
CONTINUOUS
10
2.77717
20
2.37591
11
2.71717
21
2.37591
0
LINE
8
BLACK
6
CONTINUOUS
10
2.71717
20
2.37591
11
2.71415
21
2.3765
0
LINE
8
BLACK
6
CONTINUOUS
10
2.71415
20
2.3765
11
2.7116
21
2.37821
0
LINE
8
BLACK
6
CONTINUOUS
10
2.7116
20
2.37821
11
2.70989
21
2.38077
0
LINE
8
BLACK
6
CONTINUOUS
10
2.70989
20
2.38077
11
2.70929
21
2.38378
0
LINE
8
BLACK
6
CONTINUOUS
10
2.70929
20
2.38378
11
2.70929
21
2.44378
0
LINE
8
BLACK
6
CONTINUOUS
10
2.70929
20
2.44378
11
2.70989
21
2.44679
0
LINE
8
BLACK
6
CONTINUOUS
10
2.70989
20
2.44679
11
2.7116
21
2.44935
0
LINE
8
BLACK
6
CONTINUOUS
10
2.7116
20
2.44935
11
2.71415
21
2.45105
0
LINE
8
BLACK
6
CONTINUOUS
10
2.71415
20
2.45105
11
2.71717
21
2.45165
0
LINE
8
BLACK
6
CONTINUOUS
10
2.71717
20
2.45165
11
2.77717
21
2.45165
0
LINE
8
BLACK
6
CONTINUOUS
10
2.77717
20
2.45165
11
2.78018
21
2.45105
0
LINE
8
BLACK
6
CONTINUOUS
10
0.792431
20
2.48126
11
0.794985
21
2.47955
0
LINE
8
BLACK
6
CONTINUOUS
10
0.794985
20
2.47955
11
0.796692
21
2.477
0
LINE
8
BLACK
6
CONTINUOUS
10
0.796692
20
2.477
11
0.797291
21
2.47398
0
LINE
8
BLACK
6
CONTINUOUS
10
0.797291
20
2.47398
11
0.797291
21
2.40798
0
LINE
8
BLACK
6
CONTINUOUS
10
0.797291
20
2.40798
11
0.796692
21
2.40497
0
LINE
8
BLACK
6
CONTINUOUS
10
0.796692
20
2.40497
11
0.794985
21
2.40242
0
LINE
8
BLACK
6
CONTINUOUS
10
0.794985
20
2.40242
11
0.792431
21
2.40071
0
LINE
8
BLACK
6
CONTINUOUS
10
0.792431
20
2.40071
11
0.789417
21
2.40011
0
LINE
8
BLACK
6
CONTINUOUS
10
0.789417
20
2.40011
11
0.723417
21
2.40011
0
LINE
8
BLACK
6
CONTINUOUS
10
0.723417
20
2.40011
11
0.720404
21
2.40071
0
LINE
8
BLACK
6
CONTINUOUS
10
0.720404
20
2.40071
11
0.71785
21
2.40242
0
LINE
8
BLACK
6
CONTINUOUS
10
0.71785
20
2.40242
11
0.716143
21
2.40497
0
LINE
8
BLACK
6
CONTINUOUS
10
0.716143
20
2.40497
11
0.715543
21
2.40798
0
LINE
8
BLACK
6
CONTINUOUS
10
0.715543
20
2.40798
11
0.715543
21
2.47398
0
LINE
8
BLACK
6
CONTINUOUS
10
0.715543
20
2.47398
11
0.716143
21
2.477
0
LINE
8
BLACK
6
CONTINUOUS
10
0.716143
20
2.477
11
0.71785
21
2.47955
0
LINE
8
BLACK
6
CONTINUOUS
10
0.71785
20
2.47955
11
0.720404
21
2.48126
0
LINE
8
BLACK
6
CONTINUOUS
10
0.720404
20
2.48126
11
0.723417
21
2.48186
0
LINE
8
BLACK
6
CONTINUOUS
10
0.723417
20
2.48186
11
0.789417
21
2.48186
0
LINE
8
BLACK
6
CONTINUOUS
10
0.789417
20
2.48186
11
0.792431
21
2.48126
0
LINE
8
BLACK
6
CONTINUOUS
10
0.969596
20
2.48126
11
0.97215
21
2.47955
0
LINE
8
BLACK
6
CONTINUOUS
10
0.97215
20
2.47955
11
0.973857
21
2.477
0
LINE
8
BLACK
6
CONTINUOUS
10
0.973857
20
2.477
11
0.974457
21
2.47398
0
LINE
8
BLACK
6
CONTINUOUS
10
0.974457
20
2.47398
11
0.974457
21
2.40798
0
LINE
8
BLACK
6
CONTINUOUS
10
0.974457
20
2.40798
11
0.973857
21
2.40497
0
LINE
8
BLACK
6
CONTINUOUS
10
0.973857
20
2.40497
11
0.97215
21
2.40242
0
LINE
8
BLACK
6
CONTINUOUS
10
0.97215
20
2.40242
11
0.969596
21
2.40071
0
LINE
8
BLACK
6
CONTINUOUS
10
0.969596
20
2.40071
11
0.966583
21
2.40011
0
LINE
8
BLACK
6
CONTINUOUS
10
0.966583
20
2.40011
11
0.900583
21
2.40011
0
LINE
8
BLACK
6
CONTINUOUS
10
0.900583
20
2.40011
11
0.897569
21
2.40071
0
LINE
8
BLACK
6
CONTINUOUS
10
0.897569
20
2.40071
11
0.895015
21
2.40242
0
LINE
8
BLACK
6
CONTINUOUS
10
0.895015
20
2.40242
11
0.893308
21
2.40497
0
LINE
8
BLACK
6
CONTINUOUS
10
0.893308
20
2.40497
11
0.892709
21
2.40798
0
LINE
8
BLACK
6
CONTINUOUS
10
0.892709
20
2.40798
11
0.892709
21
2.47398
0
LINE
8
BLACK
6
CONTINUOUS
10
0.892709
20
2.47398
11
0.893308
21
2.477
0
LINE
8
BLACK
6
CONTINUOUS
10
0.893308
20
2.477
11
0.895015
21
2.47955
0
LINE
8
BLACK
6
CONTINUOUS
10
0.895015
20
2.47955
11
0.897569
21
2.48126
0
LINE
8
BLACK
6
CONTINUOUS
10
0.897569
20
2.48126
11
0.900583
21
2.48186
0
LINE
8
BLACK
6
CONTINUOUS
10
0.900583
20
2.48186
11
0.966583
21
2.48186
0
LINE
8
BLACK
6
CONTINUOUS
10
0.966583
20
2.48186
11
0.969596
21
2.48126
0
LINE
8
BLACK
6
CONTINUOUS
10
1.99301
20
2.50227
11
1.99557
21
2.50057
0
LINE
8
BLACK
6
CONTINUOUS
10
1.99557
20
2.50057
11
1.99727
21
2.49801
0
LINE
8
BLACK
6
CONTINUOUS
10
1.99727
20
2.49801
11
1.99787
21
2.495
0
LINE
8
BLACK
6
CONTINUOUS
10
1.99787
20
2.495
11
1.99787
21
2.435
0
LINE
8
BLACK
6
CONTINUOUS
10
1.99787
20
2.435
11
1.99727
21
2.43199
0
LINE
8
BLACK
6
CONTINUOUS
10
1.99727
20
2.43199
11
1.99557
21
2.42943
0
LINE
8
BLACK
6
CONTINUOUS
10
1.99557
20
2.42943
11
1.99301
21
2.42773
0
LINE
8
BLACK
6
CONTINUOUS
10
1.99301
20
2.42773
11
1.99
21
2.42713
0
LINE
8
BLACK
6
CONTINUOUS
10
1.99
20
2.42713
11
1.93
21
2.42713
0
LINE
8
BLACK
6
CONTINUOUS
10
1.93
20
2.42713
11
1.92699
21
2.42773
0
LINE
8
BLACK
6
CONTINUOUS
10
1.92699
20
2.42773
11
1.92443
21
2.42943
0
LINE
8
BLACK
6
CONTINUOUS
10
1.92443
20
2.42943
11
1.92273
21
2.43199
0
LINE
8
BLACK
6
CONTINUOUS
10
1.92273
20
2.43199
11
1.92213
21
2.435
0
LINE
8
BLACK
6
CONTINUOUS
10
1.92213
20
2.435
11
1.92213
21
2.495
0
LINE
8
BLACK
6
CONTINUOUS
10
1.92213
20
2.495
11
1.92273
21
2.49801
0
LINE
8
BLACK
6
CONTINUOUS
10
1.92273
20
2.49801
11
1.92443
21
2.50057
0
LINE
8
BLACK
6
CONTINUOUS
10
1.92443
20
2.50057
11
1.92699
21
2.50227
0
LINE
8
BLACK
6
CONTINUOUS
10
1.92699
20
2.50227
11
1.93
21
2.50287
0
LINE
8
BLACK
6
CONTINUOUS
10
1.93
20
2.50287
11
1.99
21
2.50287
0
LINE
8
BLACK
6
CONTINUOUS
10
1.99
20
2.50287
11
1.99301
21
2.50227
0
LINE
8
BLACK
6
CONTINUOUS
10
2.09301
20
2.50227
11
2.09557
21
2.50057
0
LINE
8
BLACK
6
CONTINUOUS
10
2.09557
20
2.50057
11
2.09727
21
2.49801
0
LINE
8
BLACK
6
CONTINUOUS
10
2.09727
20
2.49801
11
2.09787
21
2.495
0
LINE
8
BLACK
6
CONTINUOUS
10
2.09787
20
2.495
11
2.09787
21
2.435
0
LINE
8
BLACK
6
CONTINUOUS
10
2.09787
20
2.435
11
2.09727
21
2.43199
0
LINE
8
BLACK
6
CONTINUOUS
10
2.09727
20
2.43199
11
2.09557
21
2.42943
0
LINE
8
BLACK
6
CONTINUOUS
10
2.09557
20
2.42943
11
2.09301
21
2.42773
0
LINE
8
BLACK
6
CONTINUOUS
10
2.09301
20
2.42773
11
2.09
21
2.42713
0
LINE
8
BLACK
6
CONTINUOUS
10
2.09
20
2.42713
11
2.03
21
2.42713
0
LINE
8
BLACK
6
CONTINUOUS
10
2.03
20
2.42713
11
2.02699
21
2.42773
0
LINE
8
BLACK
6
CONTINUOUS
10
2.02699
20
2.42773
11
2.02443
21
2.42943
0
LINE
8
BLACK
6
CONTINUOUS
10
2.02443
20
2.42943
11
2.02273
21
2.43199
0
LINE
8
BLACK
6
CONTINUOUS
10
2.02273
20
2.43199
11
2.02213
21
2.435
0
LINE
8
BLACK
6
CONTINUOUS
10
2.02213
20
2.435
11
2.02213
21
2.495
0
LINE
8
BLACK
6
CONTINUOUS
10
2.02213
20
2.495
11
2.02273
21
2.49801
0
LINE
8
BLACK
6
CONTINUOUS
10
2.02273
20
2.49801
11
2.02443
21
2.50057
0
LINE
8
BLACK
6
CONTINUOUS
10
2.02443
20
2.50057
11
2.02699
21
2.50227
0
LINE
8
BLACK
6
CONTINUOUS
10
2.02699
20
2.50227
11
2.03
21
2.50287
0
LINE
8
BLACK
6
CONTINUOUS
10
2.03
20
2.50287
11
2.09
21
2.50287
0
LINE
8
BLACK
6
CONTINUOUS
10
2.09
20
2.50287
11
2.09301
21
2.50227
0
LINE
8
BLACK
6
CONTINUOUS
10
2.19301
20
2.50227
11
2.19557
21
2.50057
0
LINE
8
BLACK
6
CONTINUOUS
10
2.19557
20
2.50057
11
2.19727
21
2.49801
0
LINE
8
BLACK
6
CONTINUOUS
10
2.19727
20
2.49801
11
2.19787
21
2.495
0
LINE
8
BLACK
6
CONTINUOUS
10
2.19787
20
2.495
11
2.19787
21
2.435
0
LINE
8
BLACK
6
CONTINUOUS
10
2.19787
20
2.435
11
2.19727
21
2.43199
0
LINE
8
BLACK
6
CONTINUOUS
10
2.19727
20
2.43199
11
2.19557
21
2.42943
0
LINE
8
BLACK
6
CONTINUOUS
10
2.19557
20
2.42943
11
2.19301
21
2.42773
0
LINE
8
BLACK
6
CONTINUOUS
10
2.19301
20
2.42773
11
2.19
21
2.42713
0
LINE
8
BLACK
6
CONTINUOUS
10
2.19
20
2.42713
11
2.13
21
2.42713
0
LINE
8
BLACK
6
CONTINUOUS
10
2.13
20
2.42713
11
2.12699
21
2.42773
0
LINE
8
BLACK
6
CONTINUOUS
10
2.12699
20
2.42773
11
2.12443
21
2.42943
0
LINE
8
BLACK
6
CONTINUOUS
10
2.12443
20
2.42943
11
2.12273
21
2.43199
0
LINE
8
BLACK
6
CONTINUOUS
10
2.12273
20
2.43199
11
2.12213
21
2.435
0
LINE
8
BLACK
6
CONTINUOUS
10
2.12213
20
2.435
11
2.12213
21
2.495
0
LINE
8
BLACK
6
CONTINUOUS
10
2.12213
20
2.495
11
2.12273
21
2.49801
0
LINE
8
BLACK
6
CONTINUOUS
10
2.12273
20
2.49801
11
2.12443
21
2.50057
0
LINE
8
BLACK
6
CONTINUOUS
10
2.12443
20
2.50057
11
2.12699
21
2.50227
0
LINE
8
BLACK
6
CONTINUOUS
10
2.12699
20
2.50227
11
2.13
21
2.50287
0
LINE
8
BLACK
6
CONTINUOUS
10
2.13
20
2.50287
11
2.19
21
2.50287
0
LINE
8
BLACK
6
CONTINUOUS
10
2.19
20
2.50287
11
2.19301
21
2.50227
0
LINE
8
BLACK
6
CONTINUOUS
10
3.01492
20
2.7251
11
3.02877
21
2.72266
0
LINE
8
BLACK
6
CONTINUOUS
10
3.02877
20
2.72266
11
3.04226
21
2.71868
0
LINE
8
BLACK
6
CONTINUOUS
10
3.04226
20
2.71868
11
3.05523
21
2.71323
0
LINE
8
BLACK
6
CONTINUOUS
10
3.05523
20
2.71323
11
3.06751
21
2.70637
0
LINE
8
BLACK
6
CONTINUOUS
10
3.06751
20
2.70637
11
3.07894
21
2.69818
0
LINE
8
BLACK
6
CONTINUOUS
10
3.07894
20
2.69818
11
3.08939
21
2.68877
0
LINE
8
BLACK
6
CONTINUOUS
10
3.08939
20
2.68877
11
3.09873
21
2.67825
0
LINE
8
BLACK
6
CONTINUOUS
10
3.09873
20
2.67825
11
3.10684
21
2.66676
0
LINE
8
BLACK
6
CONTINUOUS
10
3.10684
20
2.66676
11
3.11362
21
2.65444
0
LINE
8
BLACK
6
CONTINUOUS
10
3.11362
20
2.65444
11
3.11898
21
2.64143
0
LINE
8
BLACK
6
CONTINUOUS
10
3.11898
20
2.64143
11
3.12285
21
2.62791
0
LINE
8
BLACK
6
CONTINUOUS
10
3.12285
20
2.62791
11
3.1252
21
2.61404
0
LINE
8
BLACK
6
CONTINUOUS
10
3.1252
20
2.61404
11
3.12598
21
2.6
0
LINE
8
BLACK
6
CONTINUOUS
10
3.12598
20
2.6
11
3.12594
21
2.59648
0
LINE
8
BLACK
6
CONTINUOUS
10
3.12594
20
2.59648
11
3.12476
21
2.58247
0
LINE
8
BLACK
6
CONTINUOUS
10
3.12476
20
2.58247
11
3.12203
21
2.56867
0
LINE
8
BLACK
6
CONTINUOUS
10
3.12203
20
2.56867
11
3.11777
21
2.55526
0
LINE
8
BLACK
6
CONTINUOUS
10
3.11777
20
2.55526
11
3.11205
21
2.54241
0
LINE
8
BLACK
6
CONTINUOUS
10
3.11205
20
2.54241
11
3.10493
21
2.53028
0
LINE
8
BLACK
6
CONTINUOUS
10
3.10493
20
2.53028
11
3.09651
21
2.51902
0
LINE
8
BLACK
6
CONTINUOUS
10
3.09651
20
2.51902
11
3.08688
21
2.50877
0
LINE
8
BLACK
6
CONTINUOUS
10
3.08688
20
2.50877
11
3.07617
21
2.49965
0
LINE
8
BLACK
6
CONTINUOUS
10
3.07617
20
2.49965
11
3.06451
21
2.49178
0
LINE
8
BLACK
6
CONTINUOUS
10
3.06451
20
2.49178
11
3.05204
21
2.48527
0
LINE
8
BLACK
6
CONTINUOUS
10
3.05204
20
2.48527
11
3.03893
21
2.48018
0
LINE
8
BLACK
6
CONTINUOUS
10
3.03893
20
2.48018
11
3.02533
21
2.47659
0
LINE
8
BLACK
6
CONTINUOUS
10
3.02533
20
2.47659
11
3.01142
21
2.47453
0
LINE
8
BLACK
6
CONTINUOUS
10
3.01142
20
2.47453
11
2.99736
21
2.47404
0
LINE
8
BLACK
6
CONTINUOUS
10
2.99736
20
2.47404
11
2.98334
21
2.47512
0
LINE
8
BLACK
6
CONTINUOUS
10
2.98334
20
2.47512
11
2.96952
21
2.47776
0
LINE
8
BLACK
6
CONTINUOUS
10
2.96952
20
2.47776
11
2.95609
21
2.48192
0
LINE
8
BLACK
6
CONTINUOUS
10
2.95609
20
2.48192
11
2.9432
21
2.48755
0
LINE
8
BLACK
6
CONTINUOUS
10
2.9432
20
2.48755
11
2.93102
21
2.49458
0
LINE
8
BLACK
6
CONTINUOUS
10
2.93102
20
2.49458
11
2.91969
21
2.50293
0
LINE
8
BLACK
6
CONTINUOUS
10
2.91969
20
2.50293
11
2.90937
21
2.51248
0
LINE
8
BLACK
6
CONTINUOUS
10
2.90937
20
2.51248
11
2.90018
21
2.52313
0
LINE
8
BLACK
6
CONTINUOUS
10
2.90018
20
2.52313
11
2.89224
21
2.53474
0
LINE
8
BLACK
6
CONTINUOUS
10
2.89224
20
2.53474
11
2.88563
21
2.54716
0
LINE
8
BLACK
6
CONTINUOUS
10
2.88563
20
2.54716
11
2.88046
21
2.56023
0
LINE
8
BLACK
6
CONTINUOUS
10
2.88046
20
2.56023
11
2.87677
21
2.57381
0
LINE
8
BLACK
6
CONTINUOUS
10
2.87677
20
2.57381
11
2.87462
21
2.58771
0
LINE
8
BLACK
6
CONTINUOUS
10
2.87462
20
2.58771
11
2.87403
21
2.60176
0
LINE
8
BLACK
6
CONTINUOUS
10
2.87403
20
2.60176
11
2.87501
21
2.61579
0
LINE
8
BLACK
6
CONTINUOUS
10
2.87501
20
2.61579
11
2.87755
21
2.62962
0
LINE
8
BLACK
6
CONTINUOUS
10
2.87755
20
2.62962
11
2.88161
21
2.64309
0
LINE
8
BLACK
6
CONTINUOUS
10
2.88161
20
2.64309
11
2.88715
21
2.65602
0
LINE
8
BLACK
6
CONTINUOUS
10
2.88715
20
2.65602
11
2.8941
21
2.66825
0
LINE
8
BLACK
6
CONTINUOUS
10
2.8941
20
2.66825
11
2.90237
21
2.67963
0
LINE
8
BLACK
6
CONTINUOUS
10
2.90237
20
2.67963
11
2.91185
21
2.69001
0
LINE
8
BLACK
6
CONTINUOUS
10
2.91185
20
2.69001
11
2.92244
21
2.69928
0
LINE
8
BLACK
6
CONTINUOUS
10
2.92244
20
2.69928
11
2.93399
21
2.7073
0
LINE
8
BLACK
6
CONTINUOUS
10
2.93399
20
2.7073
11
2.94636
21
2.71399
0
LINE
8
BLACK
6
CONTINUOUS
10
2.94636
20
2.71399
11
2.9594
21
2.71926
0
LINE
8
BLACK
6
CONTINUOUS
10
2.9594
20
2.71926
11
2.97295
21
2.72305
0
LINE
8
BLACK
6
CONTINUOUS
10
2.97295
20
2.72305
11
2.98683
21
2.72529
0
LINE
8
BLACK
6
CONTINUOUS
10
2.98683
20
2.72529
11
3.00088
21
2.72598
0
LINE
8
BLACK
6
CONTINUOUS
10
3.00088
20
2.72598
11
3.01492
21
2.7251
0
LINE
8
BLACK
6
CONTINUOUS
10
0.532147
20
2.55105
11
0.534702
21
2.54935
0
LINE
8
BLACK
6
CONTINUOUS
10
0.534702
20
2.54935
11
0.536409
21
2.54679
0
LINE
8
BLACK
6
CONTINUOUS
10
0.536409
20
2.54679
11
0.537008
21
2.54378
0
LINE
8
BLACK
6
CONTINUOUS
10
0.537008
20
2.54378
11
0.537008
21
2.48378
0
LINE
8
BLACK
6
CONTINUOUS
10
0.537008
20
2.48378
11
0.536409
21
2.48077
0
LINE
8
BLACK
6
CONTINUOUS
10
0.536409
20
2.48077
11
0.534702
21
2.47821
0
LINE
8
BLACK
6
CONTINUOUS
10
0.534702
20
2.47821
11
0.532147
21
2.4765
0
LINE
8
BLACK
6
CONTINUOUS
10
0.532147
20
2.4765
11
0.529134
21
2.47591
0
LINE
8
BLACK
6
CONTINUOUS
10
0.529134
20
2.47591
11
0.469134
21
2.47591
0
LINE
8
BLACK
6
CONTINUOUS
10
0.469134
20
2.47591
11
0.466121
21
2.4765
0
LINE
8
BLACK
6
CONTINUOUS
10
0.466121
20
2.4765
11
0.463566
21
2.47821
0
LINE
8
BLACK
6
CONTINUOUS
10
0.463566
20
2.47821
11
0.461859
21
2.48077
0
LINE
8
BLACK
6
CONTINUOUS
10
0.461859
20
2.48077
11
0.46126
21
2.48378
0
LINE
8
BLACK
6
CONTINUOUS
10
0.46126
20
2.48378
11
0.46126
21
2.54378
0
LINE
8
BLACK
6
CONTINUOUS
10
0.46126
20
2.54378
11
0.461859
21
2.54679
0
LINE
8
BLACK
6
CONTINUOUS
10
0.461859
20
2.54679
11
0.463566
21
2.54935
0
LINE
8
BLACK
6
CONTINUOUS
10
0.463566
20
2.54935
11
0.466121
21
2.55105
0
LINE
8
BLACK
6
CONTINUOUS
10
0.466121
20
2.55105
11
0.469134
21
2.55165
0
LINE
8
BLACK
6
CONTINUOUS
10
0.469134
20
2.55165
11
0.529134
21
2.55165
0
LINE
8
BLACK
6
CONTINUOUS
10
0.529134
20
2.55165
11
0.532147
21
2.55105
0
LINE
8
BLACK
6
CONTINUOUS
10
2.78018
20
2.55105
11
2.78273
21
2.54935
0
LINE
8
BLACK
6
CONTINUOUS
10
2.78273
20
2.54935
11
2.78444
21
2.54679
0
LINE
8
BLACK
6
CONTINUOUS
10
2.78444
20
2.54679
11
2.78504
21
2.54378
0
LINE
8
BLACK
6
CONTINUOUS
10
2.78504
20
2.54378
11
2.78504
21
2.48378
0
LINE
8
BLACK
6
CONTINUOUS
10
2.78504
20
2.48378
11
2.78444
21
2.48077
0
LINE
8
BLACK
6
CONTINUOUS
10
2.78444
20
2.48077
11
2.78273
21
2.47821
0
LINE
8
BLACK
6
CONTINUOUS
10
2.78273
20
2.47821
11
2.78018
21
2.4765
0
LINE
8
BLACK
6
CONTINUOUS
10
2.78018
20
2.4765
11
2.77717
21
2.47591
0
LINE
8
BLACK
6
CONTINUOUS
10
2.77717
20
2.47591
11
2.71717
21
2.47591
0
LINE
8
BLACK
6
CONTINUOUS
10
2.71717
20
2.47591
11
2.71415
21
2.4765
0
LINE
8
BLACK
6
CONTINUOUS
10
2.71415
20
2.4765
11
2.7116
21
2.47821
0
LINE
8
BLACK
6
CONTINUOUS
10
2.7116
20
2.47821
11
2.70989
21
2.48077
0
LINE
8
BLACK
6
CONTINUOUS
10
2.70989
20
2.48077
11
2.70929
21
2.48378
0
LINE
8
BLACK
6
CONTINUOUS
10
2.70929
20
2.48378
11
2.70929
21
2.54378
0
LINE
8
BLACK
6
CONTINUOUS
10
2.70929
20
2.54378
11
2.70989
21
2.54679
0
LINE
8
BLACK
6
CONTINUOUS
10
2.70989
20
2.54679
11
2.7116
21
2.54935
0
LINE
8
BLACK
6
CONTINUOUS
10
2.7116
20
2.54935
11
2.71415
21
2.55105
0
LINE
8
BLACK
6
CONTINUOUS
10
2.71415
20
2.55105
11
2.71717
21
2.55165
0
LINE
8
BLACK
6
CONTINUOUS
10
2.71717
20
2.55165
11
2.77717
21
2.55165
0
LINE
8
BLACK
6
CONTINUOUS
10
2.77717
20
2.55165
11
2.78018
21
2.55105
0
LINE
8
BLACK
6
CONTINUOUS
10
1.51301
20
2.60227
11
1.51557
21
2.60057
0
LINE
8
BLACK
6
CONTINUOUS
10
1.51557
20
2.60057
11
1.51727
21
2.59801
0
LINE
8
BLACK
6
CONTINUOUS
10
1.51727
20
2.59801
11
1.51787
21
2.595
0
LINE
8
BLACK
6
CONTINUOUS
10
1.51787
20
2.595
11
1.51787
21
2.535
0
LINE
8
BLACK
6
CONTINUOUS
10
1.51787
20
2.535
11
1.51727
21
2.53199
0
LINE
8
BLACK
6
CONTINUOUS
10
1.51727
20
2.53199
11
1.51557
21
2.52943
0
LINE
8
BLACK
6
CONTINUOUS
10
1.51557
20
2.52943
11
1.51301
21
2.52773
0
LINE
8
BLACK
6
CONTINUOUS
10
1.51301
20
2.52773
11
1.51
21
2.52713
0
LINE
8
BLACK
6
CONTINUOUS
10
1.51
20
2.52713
11
1.45
21
2.52713
0
LINE
8
BLACK
6
CONTINUOUS
10
1.45
20
2.52713
11
1.44699
21
2.52773
0
LINE
8
BLACK
6
CONTINUOUS
10
1.44699
20
2.52773
11
1.44443
21
2.52943
0
LINE
8
BLACK
6
CONTINUOUS
10
1.44443
20
2.52943
11
1.44273
21
2.53199
0
LINE
8
BLACK
6
CONTINUOUS
10
1.44273
20
2.53199
11
1.44213
21
2.535
0
LINE
8
BLACK
6
CONTINUOUS
10
1.44213
20
2.535
11
1.44213
21
2.595
0
LINE
8
BLACK
6
CONTINUOUS
10
1.44213
20
2.595
11
1.44273
21
2.59801
0
LINE
8
BLACK
6
CONTINUOUS
10
1.44273
20
2.59801
11
1.44443
21
2.60057
0
LINE
8
BLACK
6
CONTINUOUS
10
1.44443
20
2.60057
11
1.44699
21
2.60227
0
LINE
8
BLACK
6
CONTINUOUS
10
1.44699
20
2.60227
11
1.45
21
2.60287
0
LINE
8
BLACK
6
CONTINUOUS
10
1.45
20
2.60287
11
1.51
21
2.60287
0
LINE
8
BLACK
6
CONTINUOUS
10
1.51
20
2.60287
11
1.51301
21
2.60227
0
LINE
8
BLACK
6
CONTINUOUS
10
2.19301
20
2.60227
11
2.19557
21
2.60057
0
LINE
8
BLACK
6
CONTINUOUS
10
2.19557
20
2.60057
11
2.19727
21
2.59801
0
LINE
8
BLACK
6
CONTINUOUS
10
2.19727
20
2.59801
11
2.19787
21
2.595
0
LINE
8
BLACK
6
CONTINUOUS
10
2.19787
20
2.595
11
2.19787
21
2.535
0
LINE
8
BLACK
6
CONTINUOUS
10
2.19787
20
2.535
11
2.19727
21
2.53199
0
LINE
8
BLACK
6
CONTINUOUS
10
2.19727
20
2.53199
11
2.19557
21
2.52943
0
LINE
8
BLACK
6
CONTINUOUS
10
2.19557
20
2.52943
11
2.19301
21
2.52773
0
LINE
8
BLACK
6
CONTINUOUS
10
2.19301
20
2.52773
11
2.19
21
2.52713
0
LINE
8
BLACK
6
CONTINUOUS
10
2.19
20
2.52713
11
2.13
21
2.52713
0
LINE
8
BLACK
6
CONTINUOUS
10
2.13
20
2.52713
11
2.12699
21
2.52773
0
LINE
8
BLACK
6
CONTINUOUS
10
2.12699
20
2.52773
11
2.12443
21
2.52943
0
LINE
8
BLACK
6
CONTINUOUS
10
2.12443
20
2.52943
11
2.12273
21
2.53199
0
LINE
8
BLACK
6
CONTINUOUS
10
2.12273
20
2.53199
11
2.12213
21
2.535
0
LINE
8
BLACK
6
CONTINUOUS
10
2.12213
20
2.535
11
2.12213
21
2.595
0
LINE
8
BLACK
6
CONTINUOUS
10
2.12213
20
2.595
11
2.12273
21
2.59801
0
LINE
8
BLACK
6
CONTINUOUS
10
2.12273
20
2.59801
11
2.12443
21
2.60057
0
LINE
8
BLACK
6
CONTINUOUS
10
2.12443
20
2.60057
11
2.12699
21
2.60227
0
LINE
8
BLACK
6
CONTINUOUS
10
2.12699
20
2.60227
11
2.13
21
2.60287
0
LINE
8
BLACK
6
CONTINUOUS
10
2.13
20
2.60287
11
2.19
21
2.60287
0
LINE
8
BLACK
6
CONTINUOUS
10
2.19
20
2.60287
11
2.19301
21
2.60227
0
LINE
8
BLACK
6
CONTINUOUS
10
2.09301
20
2.60227
11
2.09557
21
2.60057
0
LINE
8
BLACK
6
CONTINUOUS
10
2.09557
20
2.60057
11
2.09727
21
2.59801
0
LINE
8
BLACK
6
CONTINUOUS
10
2.09727
20
2.59801
11
2.09787
21
2.595
0
LINE
8
BLACK
6
CONTINUOUS
10
2.09787
20
2.595
11
2.09787
21
2.535
0
LINE
8
BLACK
6
CONTINUOUS
10
2.09787
20
2.535
11
2.09727
21
2.53199
0
LINE
8
BLACK
6
CONTINUOUS
10
2.09727
20
2.53199
11
2.09557
21
2.52943
0
LINE
8
BLACK
6
CONTINUOUS
10
2.09557
20
2.52943
11
2.09301
21
2.52773
0
LINE
8
BLACK
6
CONTINUOUS
10
2.09301
20
2.52773
11
2.09
21
2.52713
0
LINE
8
BLACK
6
CONTINUOUS
10
2.09
20
2.52713
11
2.03
21
2.52713
0
LINE
8
BLACK
6
CONTINUOUS
10
2.03
20
2.52713
11
2.02699
21
2.52773
0
LINE
8
BLACK
6
CONTINUOUS
10
2.02699
20
2.52773
11
2.02443
21
2.52943
0
LINE
8
BLACK
6
CONTINUOUS
10
2.02443
20
2.52943
11
2.02273
21
2.53199
0
LINE
8
BLACK
6
CONTINUOUS
10
2.02273
20
2.53199
11
2.02213
21
2.535
0
LINE
8
BLACK
6
CONTINUOUS
10
2.02213
20
2.535
11
2.02213
21
2.595
0
LINE
8
BLACK
6
CONTINUOUS
10
2.02213
20
2.595
11
2.02273
21
2.59801
0
LINE
8
BLACK
6
CONTINUOUS
10
2.02273
20
2.59801
11
2.02443
21
2.60057
0
LINE
8
BLACK
6
CONTINUOUS
10
2.02443
20
2.60057
11
2.02699
21
2.60227
0
LINE
8
BLACK
6
CONTINUOUS
10
2.02699
20
2.60227
11
2.03
21
2.60287
0
LINE
8
BLACK
6
CONTINUOUS
10
2.03
20
2.60287
11
2.09
21
2.60287
0
LINE
8
BLACK
6
CONTINUOUS
10
2.09
20
2.60287
11
2.09301
21
2.60227
0
LINE
8
BLACK
6
CONTINUOUS
10
1.21301
20
2.60227
11
1.21557
21
2.60057
0
LINE
8
BLACK
6
CONTINUOUS
10
1.21557
20
2.60057
11
1.21727
21
2.59801
0
LINE
8
BLACK
6
CONTINUOUS
10
1.21727
20
2.59801
11
1.21787
21
2.595
0
LINE
8
BLACK
6
CONTINUOUS
10
1.21787
20
2.595
11
1.21787
21
2.535
0
LINE
8
BLACK
6
CONTINUOUS
10
1.21787
20
2.535
11
1.21727
21
2.53199
0
LINE
8
BLACK
6
CONTINUOUS
10
1.21727
20
2.53199
11
1.21557
21
2.52943
0
LINE
8
BLACK
6
CONTINUOUS
10
1.21557
20
2.52943
11
1.21301
21
2.52773
0
LINE
8
BLACK
6
CONTINUOUS
10
1.21301
20
2.52773
11
1.21
21
2.52713
0
LINE
8
BLACK
6
CONTINUOUS
10
1.21
20
2.52713
11
1.15
21
2.52713
0
LINE
8
BLACK
6
CONTINUOUS
10
1.15
20
2.52713
11
1.14699
21
2.52773
0
LINE
8
BLACK
6
CONTINUOUS
10
1.14699
20
2.52773
11
1.14443
21
2.52943
0
LINE
8
BLACK
6
CONTINUOUS
10
1.14443
20
2.52943
11
1.14273
21
2.53199
0
LINE
8
BLACK
6
CONTINUOUS
10
1.14273
20
2.53199
11
1.14213
21
2.535
0
LINE
8
BLACK
6
CONTINUOUS
10
1.14213
20
2.535
11
1.14213
21
2.595
0
LINE
8
BLACK
6
CONTINUOUS
10
1.14213
20
2.595
11
1.14273
21
2.59801
0
LINE
8
BLACK
6
CONTINUOUS
10
1.14273
20
2.59801
11
1.14443
21
2.60057
0
LINE
8
BLACK
6
CONTINUOUS
10
1.14443
20
2.60057
11
1.14699
21
2.60227
0
LINE
8
BLACK
6
CONTINUOUS
10
1.14699
20
2.60227
11
1.15
21
2.60287
0
LINE
8
BLACK
6
CONTINUOUS
10
1.15
20
2.60287
11
1.21
21
2.60287
0
LINE
8
BLACK
6
CONTINUOUS
10
1.21
20
2.60287
11
1.21301
21
2.60227
0
LINE
8
BLACK
6
CONTINUOUS
10
1.41301
20
2.60227
11
1.41557
21
2.60057
0
LINE
8
BLACK
6
CONTINUOUS
10
1.41557
20
2.60057
11
1.41727
21
2.59801
0
LINE
8
BLACK
6
CONTINUOUS
10
1.41727
20
2.59801
11
1.41787
21
2.595
0
LINE
8
BLACK
6
CONTINUOUS
10
1.41787
20
2.595
11
1.41787
21
2.535
0
LINE
8
BLACK
6
CONTINUOUS
10
1.41787
20
2.535
11
1.41727
21
2.53199
0
LINE
8
BLACK
6
CONTINUOUS
10
1.41727
20
2.53199
11
1.41557
21
2.52943
0
LINE
8
BLACK
6
CONTINUOUS
10
1.41557
20
2.52943
11
1.41301
21
2.52773
0
LINE
8
BLACK
6
CONTINUOUS
10
1.41301
20
2.52773
11
1.41
21
2.52713
0
LINE
8
BLACK
6
CONTINUOUS
10
1.41
20
2.52713
11
1.35
21
2.52713
0
LINE
8
BLACK
6
CONTINUOUS
10
1.35
20
2.52713
11
1.34699
21
2.52773
0
LINE
8
BLACK
6
CONTINUOUS
10
1.34699
20
2.52773
11
1.34443
21
2.52943
0
LINE
8
BLACK
6
CONTINUOUS
10
1.34443
20
2.52943
11
1.34273
21
2.53199
0
LINE
8
BLACK
6
CONTINUOUS
10
1.34273
20
2.53199
11
1.34213
21
2.535
0
LINE
8
BLACK
6
CONTINUOUS
10
1.34213
20
2.535
11
1.34213
21
2.595
0
LINE
8
BLACK
6
CONTINUOUS
10
1.34213
20
2.595
11
1.34273
21
2.59801
0
LINE
8
BLACK
6
CONTINUOUS
10
1.34273
20
2.59801
11
1.34443
21
2.60057
0
LINE
8
BLACK
6
CONTINUOUS
10
1.34443
20
2.60057
11
1.34699
21
2.60227
0
LINE
8
BLACK
6
CONTINUOUS
10
1.34699
20
2.60227
11
1.35
21
2.60287
0
LINE
8
BLACK
6
CONTINUOUS
10
1.35
20
2.60287
11
1.41
21
2.60287
0
LINE
8
BLACK
6
CONTINUOUS
10
1.41
20
2.60287
11
1.41301
21
2.60227
0
LINE
8
BLACK
6
CONTINUOUS
10
1.99301
20
2.60227
11
1.99557
21
2.60057
0
LINE
8
BLACK
6
CONTINUOUS
10
1.99557
20
2.60057
11
1.99727
21
2.59801
0
LINE
8
BLACK
6
CONTINUOUS
10
1.99727
20
2.59801
11
1.99787
21
2.595
0
LINE
8
BLACK
6
CONTINUOUS
10
1.99787
20
2.595
11
1.99787
21
2.535
0
LINE
8
BLACK
6
CONTINUOUS
10
1.99787
20
2.535
11
1.99727
21
2.53199
0
LINE
8
BLACK
6
CONTINUOUS
10
1.99727
20
2.53199
11
1.99557
21
2.52943
0
LINE
8
BLACK
6
CONTINUOUS
10
1.99557
20
2.52943
11
1.99301
21
2.52773
0
LINE
8
BLACK
6
CONTINUOUS
10
1.99301
20
2.52773
11
1.99
21
2.52713
0
LINE
8
BLACK
6
CONTINUOUS
10
1.99
20
2.52713
11
1.93
21
2.52713
0
LINE
8
BLACK
6
CONTINUOUS
10
1.93
20
2.52713
11
1.92699
21
2.52773
0
LINE
8
BLACK
6
CONTINUOUS
10
1.92699
20
2.52773
11
1.92443
21
2.52943
0
LINE
8
BLACK
6
CONTINUOUS
10
1.92443
20
2.52943
11
1.92273
21
2.53199
0
LINE
8
BLACK
6
CONTINUOUS
10
1.92273
20
2.53199
11
1.92213
21
2.535
0
LINE
8
BLACK
6
CONTINUOUS
10
1.92213
20
2.535
11
1.92213
21
2.595
0
LINE
8
BLACK
6
CONTINUOUS
10
1.92213
20
2.595
11
1.92273
21
2.59801
0
LINE
8
BLACK
6
CONTINUOUS
10
1.92273
20
2.59801
11
1.92443
21
2.60057
0
LINE
8
BLACK
6
CONTINUOUS
10
1.92443
20
2.60057
11
1.92699
21
2.60227
0
LINE
8
BLACK
6
CONTINUOUS
10
1.92699
20
2.60227
11
1.93
21
2.60287
0
LINE
8
BLACK
6
CONTINUOUS
10
1.93
20
2.60287
11
1.99
21
2.60287
0
LINE
8
BLACK
6
CONTINUOUS
10
1.99
20
2.60287
11
1.99301
21
2.60227
0
LINE
8
BLACK
6
CONTINUOUS
10
1.61301
20
2.60227
11
1.61557
21
2.60057
0
LINE
8
BLACK
6
CONTINUOUS
10
1.61557
20
2.60057
11
1.61727
21
2.59801
0
LINE
8
BLACK
6
CONTINUOUS
10
1.61727
20
2.59801
11
1.61787
21
2.595
0
LINE
8
BLACK
6
CONTINUOUS
10
1.61787
20
2.595
11
1.61787
21
2.535
0
LINE
8
BLACK
6
CONTINUOUS
10
1.61787
20
2.535
11
1.61727
21
2.53199
0
LINE
8
BLACK
6
CONTINUOUS
10
1.61727
20
2.53199
11
1.61557
21
2.52943
0
LINE
8
BLACK
6
CONTINUOUS
10
1.61557
20
2.52943
11
1.61301
21
2.52773
0
LINE
8
BLACK
6
CONTINUOUS
10
1.61301
20
2.52773
11
1.61
21
2.52713
0
LINE
8
BLACK
6
CONTINUOUS
10
1.61
20
2.52713
11
1.55
21
2.52713
0
LINE
8
BLACK
6
CONTINUOUS
10
1.55
20
2.52713
11
1.54699
21
2.52773
0
LINE
8
BLACK
6
CONTINUOUS
10
1.54699
20
2.52773
11
1.54443
21
2.52943
0
LINE
8
BLACK
6
CONTINUOUS
10
1.54443
20
2.52943
11
1.54273
21
2.53199
0
LINE
8
BLACK
6
CONTINUOUS
10
1.54273
20
2.53199
11
1.54213
21
2.535
0
LINE
8
BLACK
6
CONTINUOUS
10
1.54213
20
2.535
11
1.54213
21
2.595
0
LINE
8
BLACK
6
CONTINUOUS
10
1.54213
20
2.595
11
1.54273
21
2.59801
0
LINE
8
BLACK
6
CONTINUOUS
10
1.54273
20
2.59801
11
1.54443
21
2.60057
0
LINE
8
BLACK
6
CONTINUOUS
10
1.54443
20
2.60057
11
1.54699
21
2.60227
0
LINE
8
BLACK
6
CONTINUOUS
10
1.54699
20
2.60227
11
1.55
21
2.60287
0
LINE
8
BLACK
6
CONTINUOUS
10
1.55
20
2.60287
11
1.61
21
2.60287
0
LINE
8
BLACK
6
CONTINUOUS
10
1.61
20
2.60287
11
1.61301
21
2.60227
0
LINE
8
BLACK
6
CONTINUOUS
10
1.71301
20
2.60227
11
1.71557
21
2.60057
0
LINE
8
BLACK
6
CONTINUOUS
10
1.71557
20
2.60057
11
1.71727
21
2.59801
0
LINE
8
BLACK
6
CONTINUOUS
10
1.71727
20
2.59801
11
1.71787
21
2.595
0
LINE
8
BLACK
6
CONTINUOUS
10
1.71787
20
2.595
11
1.71787
21
2.535
0
LINE
8
BLACK
6
CONTINUOUS
10
1.71787
20
2.535
11
1.71727
21
2.53199
0
LINE
8
BLACK
6
CONTINUOUS
10
1.71727
20
2.53199
11
1.71557
21
2.52943
0
LINE
8
BLACK
6
CONTINUOUS
10
1.71557
20
2.52943
11
1.71301
21
2.52773
0
LINE
8
BLACK
6
CONTINUOUS
10
1.71301
20
2.52773
11
1.71
21
2.52713
0
LINE
8
BLACK
6
CONTINUOUS
10
1.71
20
2.52713
11
1.65
21
2.52713
0
LINE
8
BLACK
6
CONTINUOUS
10
1.65
20
2.52713
11
1.64699
21
2.52773
0
LINE
8
BLACK
6
CONTINUOUS
10
1.64699
20
2.52773
11
1.64443
21
2.52943
0
LINE
8
BLACK
6
CONTINUOUS
10
1.64443
20
2.52943
11
1.64273
21
2.53199
0
LINE
8
BLACK
6
CONTINUOUS
10
1.64273
20
2.53199
11
1.64213
21
2.535
0
LINE
8
BLACK
6
CONTINUOUS
10
1.64213
20
2.535
11
1.64213
21
2.595
0
LINE
8
BLACK
6
CONTINUOUS
10
1.64213
20
2.595
11
1.64273
21
2.59801
0
LINE
8
BLACK
6
CONTINUOUS
10
1.64273
20
2.59801
11
1.64443
21
2.60057
0
LINE
8
BLACK
6
CONTINUOUS
10
1.64443
20
2.60057
11
1.64699
21
2.60227
0
LINE
8
BLACK
6
CONTINUOUS
10
1.64699
20
2.60227
11
1.65
21
2.60287
0
LINE
8
BLACK
6
CONTINUOUS
10
1.65
20
2.60287
11
1.71
21
2.60287
0
LINE
8
BLACK
6
CONTINUOUS
10
1.71
20
2.60287
11
1.71301
21
2.60227
0
LINE
8
BLACK
6
CONTINUOUS
10
1.81301
20
2.60227
11
1.81557
21
2.60057
0
LINE
8
BLACK
6
CONTINUOUS
10
1.81557
20
2.60057
11
1.81727
21
2.59801
0
LINE
8
BLACK
6
CONTINUOUS
10
1.81727
20
2.59801
11
1.81787
21
2.595
0
LINE
8
BLACK
6
CONTINUOUS
10
1.81787
20
2.595
11
1.81787
21
2.535
0
LINE
8
BLACK
6
CONTINUOUS
10
1.81787
20
2.535
11
1.81727
21
2.53199
0
LINE
8
BLACK
6
CONTINUOUS
10
1.81727
20
2.53199
11
1.81557
21
2.52943
0
LINE
8
BLACK
6
CONTINUOUS
10
1.81557
20
2.52943
11
1.81301
21
2.52773
0
LINE
8
BLACK
6
CONTINUOUS
10
1.81301
20
2.52773
11
1.81
21
2.52713
0
LINE
8
BLACK
6
CONTINUOUS
10
1.81
20
2.52713
11
1.75
21
2.52713
0
LINE
8
BLACK
6
CONTINUOUS
10
1.75
20
2.52713
11
1.74699
21
2.52773
0
LINE
8
BLACK
6
CONTINUOUS
10
1.74699
20
2.52773
11
1.74443
21
2.52943
0
LINE
8
BLACK
6
CONTINUOUS
10
1.74443
20
2.52943
11
1.74273
21
2.53199
0
LINE
8
BLACK
6
CONTINUOUS
10
1.74273
20
2.53199
11
1.74213
21
2.535
0
LINE
8
BLACK
6
CONTINUOUS
10
1.74213
20
2.535
11
1.74213
21
2.595
0
LINE
8
BLACK
6
CONTINUOUS
10
1.74213
20
2.595
11
1.74273
21
2.59801
0
LINE
8
BLACK
6
CONTINUOUS
10
1.74273
20
2.59801
11
1.74443
21
2.60057
0
LINE
8
BLACK
6
CONTINUOUS
10
1.74443
20
2.60057
11
1.74699
21
2.60227
0
LINE
8
BLACK
6
CONTINUOUS
10
1.74699
20
2.60227
11
1.75
21
2.60287
0
LINE
8
BLACK
6
CONTINUOUS
10
1.75
20
2.60287
11
1.81
21
2.60287
0
LINE
8
BLACK
6
CONTINUOUS
10
1.81
20
2.60287
11
1.81301
21
2.60227
0
LINE
8
BLACK
6
CONTINUOUS
10
1.51301
20
2.70227
11
1.51557
21
2.70057
0
LINE
8
BLACK
6
CONTINUOUS
10
1.51557
20
2.70057
11
1.51727
21
2.69801
0
LINE
8
BLACK
6
CONTINUOUS
10
1.51727
20
2.69801
11
1.51787
21
2.695
0
LINE
8
BLACK
6
CONTINUOUS
10
1.51787
20
2.695
11
1.51787
21
2.635
0
LINE
8
BLACK
6
CONTINUOUS
10
1.51787
20
2.635
11
1.51727
21
2.63199
0
LINE
8
BLACK
6
CONTINUOUS
10
1.51727
20
2.63199
11
1.51557
21
2.62943
0
LINE
8
BLACK
6
CONTINUOUS
10
1.51557
20
2.62943
11
1.51301
21
2.62773
0
LINE
8
BLACK
6
CONTINUOUS
10
1.51301
20
2.62773
11
1.51
21
2.62713
0
LINE
8
BLACK
6
CONTINUOUS
10
1.51
20
2.62713
11
1.45
21
2.62713
0
LINE
8
BLACK
6
CONTINUOUS
10
1.45
20
2.62713
11
1.44699
21
2.62773
0
LINE
8
BLACK
6
CONTINUOUS
10
1.44699
20
2.62773
11
1.44443
21
2.62943
0
LINE
8
BLACK
6
CONTINUOUS
10
1.44443
20
2.62943
11
1.44273
21
2.63199
0
LINE
8
BLACK
6
CONTINUOUS
10
1.44273
20
2.63199
11
1.44213
21
2.635
0
LINE
8
BLACK
6
CONTINUOUS
10
1.44213
20
2.635
11
1.44213
21
2.695
0
LINE
8
BLACK
6
CONTINUOUS
10
1.44213
20
2.695
11
1.44273
21
2.69801
0
LINE
8
BLACK
6
CONTINUOUS
10
1.44273
20
2.69801
11
1.44443
21
2.70057
0
LINE
8
BLACK
6
CONTINUOUS
10
1.44443
20
2.70057
11
1.44699
21
2.70227
0
LINE
8
BLACK
6
CONTINUOUS
10
1.44699
20
2.70227
11
1.45
21
2.70287
0
LINE
8
BLACK
6
CONTINUOUS
10
1.45
20
2.70287
11
1.51
21
2.70287
0
LINE
8
BLACK
6
CONTINUOUS
10
1.51
20
2.70287
11
1.51301
21
2.70227
0
LINE
8
BLACK
6
CONTINUOUS
10
1.61301
20
2.70227
11
1.61557
21
2.70057
0
LINE
8
BLACK
6
CONTINUOUS
10
1.61557
20
2.70057
11
1.61727
21
2.69801
0
LINE
8
BLACK
6
CONTINUOUS
10
1.61727
20
2.69801
11
1.61787
21
2.695
0
LINE
8
BLACK
6
CONTINUOUS
10
1.61787
20
2.695
11
1.61787
21
2.635
0
LINE
8
BLACK
6
CONTINUOUS
10
1.61787
20
2.635
11
1.61727
21
2.63199
0
LINE
8
BLACK
6
CONTINUOUS
10
1.61727
20
2.63199
11
1.61557
21
2.62943
0
LINE
8
BLACK
6
CONTINUOUS
10
1.61557
20
2.62943
11
1.61301
21
2.62773
0
LINE
8
BLACK
6
CONTINUOUS
10
1.61301
20
2.62773
11
1.61
21
2.62713
0
LINE
8
BLACK
6
CONTINUOUS
10
1.61
20
2.62713
11
1.55
21
2.62713
0
LINE
8
BLACK
6
CONTINUOUS
10
1.55
20
2.62713
11
1.54699
21
2.62773
0
LINE
8
BLACK
6
CONTINUOUS
10
1.54699
20
2.62773
11
1.54443
21
2.62943
0
LINE
8
BLACK
6
CONTINUOUS
10
1.54443
20
2.62943
11
1.54273
21
2.63199
0
LINE
8
BLACK
6
CONTINUOUS
10
1.54273
20
2.63199
11
1.54213
21
2.635
0
LINE
8
BLACK
6
CONTINUOUS
10
1.54213
20
2.635
11
1.54213
21
2.695
0
LINE
8
BLACK
6
CONTINUOUS
10
1.54213
20
2.695
11
1.54273
21
2.69801
0
LINE
8
BLACK
6
CONTINUOUS
10
1.54273
20
2.69801
11
1.54443
21
2.70057
0
LINE
8
BLACK
6
CONTINUOUS
10
1.54443
20
2.70057
11
1.54699
21
2.70227
0
LINE
8
BLACK
6
CONTINUOUS
10
1.54699
20
2.70227
11
1.55
21
2.70287
0
LINE
8
BLACK
6
CONTINUOUS
10
1.55
20
2.70287
11
1.61
21
2.70287
0
LINE
8
BLACK
6
CONTINUOUS
10
1.61
20
2.70287
11
1.61301
21
2.70227
0
LINE
8
BLACK
6
CONTINUOUS
10
1.41301
20
2.70227
11
1.41557
21
2.70057
0
LINE
8
BLACK
6
CONTINUOUS
10
1.41557
20
2.70057
11
1.41727
21
2.69801
0
LINE
8
BLACK
6
CONTINUOUS
10
1.41727
20
2.69801
11
1.41787
21
2.695
0
LINE
8
BLACK
6
CONTINUOUS
10
1.41787
20
2.695
11
1.41787
21
2.635
0
LINE
8
BLACK
6
CONTINUOUS
10
1.41787
20
2.635
11
1.41727
21
2.63199
0
LINE
8
BLACK
6
CONTINUOUS
10
1.41727
20
2.63199
11
1.41557
21
2.62943
0
LINE
8
BLACK
6
CONTINUOUS
10
1.41557
20
2.62943
11
1.41301
21
2.62773
0
LINE
8
BLACK
6
CONTINUOUS
10
1.41301
20
2.62773
11
1.41
21
2.62713
0
LINE
8
BLACK
6
CONTINUOUS
10
1.41
20
2.62713
11
1.35
21
2.62713
0
LINE
8
BLACK
6
CONTINUOUS
10
1.35
20
2.62713
11
1.34699
21
2.62773
0
LINE
8
BLACK
6
CONTINUOUS
10
1.34699
20
2.62773
11
1.34443
21
2.62943
0
LINE
8
BLACK
6
CONTINUOUS
10
1.34443
20
2.62943
11
1.34273
21
2.63199
0
LINE
8
BLACK
6
CONTINUOUS
10
1.34273
20
2.63199
11
1.34213
21
2.635
0
LINE
8
BLACK
6
CONTINUOUS
10
1.34213
20
2.635
11
1.34213
21
2.695
0
LINE
8
BLACK
6
CONTINUOUS
10
1.34213
20
2.695
11
1.34273
21
2.69801
0
LINE
8
BLACK
6
CONTINUOUS
10
1.34273
20
2.69801
11
1.34443
21
2.70057
0
LINE
8
BLACK
6
CONTINUOUS
10
1.34443
20
2.70057
11
1.34699
21
2.70227
0
LINE
8
BLACK
6
CONTINUOUS
10
1.34699
20
2.70227
11
1.35
21
2.70287
0
LINE
8
BLACK
6
CONTINUOUS
10
1.35
20
2.70287
11
1.41
21
2.70287
0
LINE
8
BLACK
6
CONTINUOUS
10
1.41
20
2.70287
11
1.41301
21
2.70227
0
LINE
8
BLACK
6
CONTINUOUS
10
1.21301
20
2.70227
11
1.21557
21
2.70057
0
LINE
8
BLACK
6
CONTINUOUS
10
1.21557
20
2.70057
11
1.21727
21
2.69801
0
LINE
8
BLACK
6
CONTINUOUS
10
1.21727
20
2.69801
11
1.21787
21
2.695
0
LINE
8
BLACK
6
CONTINUOUS
10
1.21787
20
2.695
11
1.21787
21
2.635
0
LINE
8
BLACK
6
CONTINUOUS
10
1.21787
20
2.635
11
1.21727
21
2.63199
0
LINE
8
BLACK
6
CONTINUOUS
10
1.21727
20
2.63199
11
1.21557
21
2.62943
0
LINE
8
BLACK
6
CONTINUOUS
10
1.21557
20
2.62943
11
1.21301
21
2.62773
0
LINE
8
BLACK
6
CONTINUOUS
10
1.21301
20
2.62773
11
1.21
21
2.62713
0
LINE
8
BLACK
6
CONTINUOUS
10
1.21
20
2.62713
11
1.15
21
2.62713
0
LINE
8
BLACK
6
CONTINUOUS
10
1.15
20
2.62713
11
1.14699
21
2.62773
0
LINE
8
BLACK
6
CONTINUOUS
10
1.14699
20
2.62773
11
1.14443
21
2.62943
0
LINE
8
BLACK
6
CONTINUOUS
10
1.14443
20
2.62943
11
1.14273
21
2.63199
0
LINE
8
BLACK
6
CONTINUOUS
10
1.14273
20
2.63199
11
1.14213
21
2.635
0
LINE
8
BLACK
6
CONTINUOUS
10
1.14213
20
2.635
11
1.14213
21
2.695
0
LINE
8
BLACK
6
CONTINUOUS
10
1.14213
20
2.695
11
1.14273
21
2.69801
0
LINE
8
BLACK
6
CONTINUOUS
10
1.14273
20
2.69801
11
1.14443
21
2.70057
0
LINE
8
BLACK
6
CONTINUOUS
10
1.14443
20
2.70057
11
1.14699
21
2.70227
0
LINE
8
BLACK
6
CONTINUOUS
10
1.14699
20
2.70227
11
1.15
21
2.70287
0
LINE
8
BLACK
6
CONTINUOUS
10
1.15
20
2.70287
11
1.21
21
2.70287
0
LINE
8
BLACK
6
CONTINUOUS
10
1.21
20
2.70287
11
1.21301
21
2.70227
0
LINE
8
BLACK
6
CONTINUOUS
10
1.71301
20
2.70227
11
1.71557
21
2.70057
0
LINE
8
BLACK
6
CONTINUOUS
10
1.71557
20
2.70057
11
1.71727
21
2.69801
0
LINE
8
BLACK
6
CONTINUOUS
10
1.71727
20
2.69801
11
1.71787
21
2.695
0
LINE
8
BLACK
6
CONTINUOUS
10
1.71787
20
2.695
11
1.71787
21
2.635
0
LINE
8
BLACK
6
CONTINUOUS
10
1.71787
20
2.635
11
1.71727
21
2.63199
0
LINE
8
BLACK
6
CONTINUOUS
10
1.71727
20
2.63199
11
1.71557
21
2.62943
0
LINE
8
BLACK
6
CONTINUOUS
10
1.71557
20
2.62943
11
1.71301
21
2.62773
0
LINE
8
BLACK
6
CONTINUOUS
10
1.71301
20
2.62773
11
1.71
21
2.62713
0
LINE
8
BLACK
6
CONTINUOUS
10
1.71
20
2.62713
11
1.65
21
2.62713
0
LINE
8
BLACK
6
CONTINUOUS
10
1.65
20
2.62713
11
1.64699
21
2.62773
0
LINE
8
BLACK
6
CONTINUOUS
10
1.64699
20
2.62773
11
1.64443
21
2.62943
0
LINE
8
BLACK
6
CONTINUOUS
10
1.64443
20
2.62943
11
1.64273
21
2.63199
0
LINE
8
BLACK
6
CONTINUOUS
10
1.64273
20
2.63199
11
1.64213
21
2.635
0
LINE
8
BLACK
6
CONTINUOUS
10
1.64213
20
2.635
11
1.64213
21
2.695
0
LINE
8
BLACK
6
CONTINUOUS
10
1.64213
20
2.695
11
1.64273
21
2.69801
0
LINE
8
BLACK
6
CONTINUOUS
10
1.64273
20
2.69801
11
1.64443
21
2.70057
0
LINE
8
BLACK
6
CONTINUOUS
10
1.64443
20
2.70057
11
1.64699
21
2.70227
0
LINE
8
BLACK
6
CONTINUOUS
10
1.64699
20
2.70227
11
1.65
21
2.70287
0
LINE
8
BLACK
6
CONTINUOUS
10
1.65
20
2.70287
11
1.71
21
2.70287
0
LINE
8
BLACK
6
CONTINUOUS
10
1.71
20
2.70287
11
1.71301
21
2.70227
0
LINE
8
BLACK
6
CONTINUOUS
10
1.99301
20
2.70227
11
1.99557
21
2.70057
0
LINE
8
BLACK
6
CONTINUOUS
10
1.99557
20
2.70057
11
1.99727
21
2.69801
0
LINE
8
BLACK
6
CONTINUOUS
10
1.99727
20
2.69801
11
1.99787
21
2.695
0
LINE
8
BLACK
6
CONTINUOUS
10
1.99787
20
2.695
11
1.99787
21
2.635
0
LINE
8
BLACK
6
CONTINUOUS
10
1.99787
20
2.635
11
1.99727
21
2.63199
0
LINE
8
BLACK
6
CONTINUOUS
10
1.99727
20
2.63199
11
1.99557
21
2.62943
0
LINE
8
BLACK
6
CONTINUOUS
10
1.99557
20
2.62943
11
1.99301
21
2.62773
0
LINE
8
BLACK
6
CONTINUOUS
10
1.99301
20
2.62773
11
1.99
21
2.62713
0
LINE
8
BLACK
6
CONTINUOUS
10
1.99
20
2.62713
11
1.93
21
2.62713
0
LINE
8
BLACK
6
CONTINUOUS
10
1.93
20
2.62713
11
1.92699
21
2.62773
0
LINE
8
BLACK
6
CONTINUOUS
10
1.92699
20
2.62773
11
1.92443
21
2.62943
0
LINE
8
BLACK
6
CONTINUOUS
10
1.92443
20
2.62943
11
1.92273
21
2.63199
0
LINE
8
BLACK
6
CONTINUOUS
10
1.92273
20
2.63199
11
1.92213
21
2.635
0
LINE
8
BLACK
6
CONTINUOUS
10
1.92213
20
2.635
11
1.92213
21
2.695
0
LINE
8
BLACK
6
CONTINUOUS
10
1.92213
20
2.695
11
1.92273
21
2.69801
0
LINE
8
BLACK
6
CONTINUOUS
10
1.92273
20
2.69801
11
1.92443
21
2.70057
0
LINE
8
BLACK
6
CONTINUOUS
10
1.92443
20
2.70057
11
1.92699
21
2.70227
0
LINE
8
BLACK
6
CONTINUOUS
10
1.92699
20
2.70227
11
1.93
21
2.70287
0
LINE
8
BLACK
6
CONTINUOUS
10
1.93
20
2.70287
11
1.99
21
2.70287
0
LINE
8
BLACK
6
CONTINUOUS
10
1.99
20
2.70287
11
1.99301
21
2.70227
0
LINE
8
BLACK
6
CONTINUOUS
10
1.81301
20
2.70227
11
1.81557
21
2.70057
0
LINE
8
BLACK
6
CONTINUOUS
10
1.81557
20
2.70057
11
1.81727
21
2.69801
0
LINE
8
BLACK
6
CONTINUOUS
10
1.81727
20
2.69801
11
1.81787
21
2.695
0
LINE
8
BLACK
6
CONTINUOUS
10
1.81787
20
2.695
11
1.81787
21
2.635
0
LINE
8
BLACK
6
CONTINUOUS
10
1.81787
20
2.635
11
1.81727
21
2.63199
0
LINE
8
BLACK
6
CONTINUOUS
10
1.81727
20
2.63199
11
1.81557
21
2.62943
0
LINE
8
BLACK
6
CONTINUOUS
10
1.81557
20
2.62943
11
1.81301
21
2.62773
0
LINE
8
BLACK
6
CONTINUOUS
10
1.81301
20
2.62773
11
1.81
21
2.62713
0
LINE
8
BLACK
6
CONTINUOUS
10
1.81
20
2.62713
11
1.75
21
2.62713
0
LINE
8
BLACK
6
CONTINUOUS
10
1.75
20
2.62713
11
1.74699
21
2.62773
0
LINE
8
BLACK
6
CONTINUOUS
10
1.74699
20
2.62773
11
1.74443
21
2.62943
0
LINE
8
BLACK
6
CONTINUOUS
10
1.74443
20
2.62943
11
1.74273
21
2.63199
0
LINE
8
BLACK
6
CONTINUOUS
10
1.74273
20
2.63199
11
1.74213
21
2.635
0
LINE
8
BLACK
6
CONTINUOUS
10
1.74213
20
2.635
11
1.74213
21
2.695
0
LINE
8
BLACK
6
CONTINUOUS
10
1.74213
20
2.695
11
1.74273
21
2.69801
0
LINE
8
BLACK
6
CONTINUOUS
10
1.74273
20
2.69801
11
1.74443
21
2.70057
0
LINE
8
BLACK
6
CONTINUOUS
10
1.74443
20
2.70057
11
1.74699
21
2.70227
0
LINE
8
BLACK
6
CONTINUOUS
10
1.74699
20
2.70227
11
1.75
21
2.70287
0
LINE
8
BLACK
6
CONTINUOUS
10
1.75
20
2.70287
11
1.81
21
2.70287
0
LINE
8
BLACK
6
CONTINUOUS
10
1.81
20
2.70287
11
1.81301
21
2.70227
0
LINE
8
BLACK
6
CONTINUOUS
10
2.09301
20
2.70227
11
2.09557
21
2.70057
0
LINE
8
BLACK
6
CONTINUOUS
10
2.09557
20
2.70057
11
2.09727
21
2.69801
0
LINE
8
BLACK
6
CONTINUOUS
10
2.09727
20
2.69801
11
2.09787
21
2.695
0
LINE
8
BLACK
6
CONTINUOUS
10
2.09787
20
2.695
11
2.09787
21
2.635
0
LINE
8
BLACK
6
CONTINUOUS
10
2.09787
20
2.635
11
2.09727
21
2.63199
0
LINE
8
BLACK
6
CONTINUOUS
10
2.09727
20
2.63199
11
2.09557
21
2.62943
0
LINE
8
BLACK
6
CONTINUOUS
10
2.09557
20
2.62943
11
2.09301
21
2.62773
0
LINE
8
BLACK
6
CONTINUOUS
10
2.09301
20
2.62773
11
2.09
21
2.62713
0
LINE
8
BLACK
6
CONTINUOUS
10
2.09
20
2.62713
11
2.03
21
2.62713
0
LINE
8
BLACK
6
CONTINUOUS
10
2.03
20
2.62713
11
2.02699
21
2.62773
0
LINE
8
BLACK
6
CONTINUOUS
10
2.02699
20
2.62773
11
2.02443
21
2.62943
0
LINE
8
BLACK
6
CONTINUOUS
10
2.02443
20
2.62943
11
2.02273
21
2.63199
0
LINE
8
BLACK
6
CONTINUOUS
10
2.02273
20
2.63199
11
2.02213
21
2.635
0
LINE
8
BLACK
6
CONTINUOUS
10
2.02213
20
2.635
11
2.02213
21
2.695
0
LINE
8
BLACK
6
CONTINUOUS
10
2.02213
20
2.695
11
2.02273
21
2.69801
0
LINE
8
BLACK
6
CONTINUOUS
10
2.02273
20
2.69801
11
2.02443
21
2.70057
0
LINE
8
BLACK
6
CONTINUOUS
10
2.02443
20
2.70057
11
2.02699
21
2.70227
0
LINE
8
BLACK
6
CONTINUOUS
10
2.02699
20
2.70227
11
2.03
21
2.70287
0
LINE
8
BLACK
6
CONTINUOUS
10
2.03
20
2.70287
11
2.09
21
2.70287
0
LINE
8
BLACK
6
CONTINUOUS
10
2.09
20
2.70287
11
2.09301
21
2.70227
0
LINE
8
BLACK
6
CONTINUOUS
10
2.19301
20
2.70227
11
2.19557
21
2.70057
0
LINE
8
BLACK
6
CONTINUOUS
10
2.19557
20
2.70057
11
2.19727
21
2.69801
0
LINE
8
BLACK
6
CONTINUOUS
10
2.19727
20
2.69801
11
2.19787
21
2.695
0
LINE
8
BLACK
6
CONTINUOUS
10
2.19787
20
2.695
11
2.19787
21
2.635
0
LINE
8
BLACK
6
CONTINUOUS
10
2.19787
20
2.635
11
2.19727
21
2.63199
0
LINE
8
BLACK
6
CONTINUOUS
10
2.19727
20
2.63199
11
2.19557
21
2.62943
0
LINE
8
BLACK
6
CONTINUOUS
10
2.19557
20
2.62943
11
2.19301
21
2.62773
0
LINE
8
BLACK
6
CONTINUOUS
10
2.19301
20
2.62773
11
2.19
21
2.62713
0
LINE
8
BLACK
6
CONTINUOUS
10
2.19
20
2.62713
11
2.13
21
2.62713
0
LINE
8
BLACK
6
CONTINUOUS
10
2.13
20
2.62713
11
2.12699
21
2.62773
0
LINE
8
BLACK
6
CONTINUOUS
10
2.12699
20
2.62773
11
2.12443
21
2.62943
0
LINE
8
BLACK
6
CONTINUOUS
10
2.12443
20
2.62943
11
2.12273
21
2.63199
0
LINE
8
BLACK
6
CONTINUOUS
10
2.12273
20
2.63199
11
2.12213
21
2.635
0
LINE
8
BLACK
6
CONTINUOUS
10
2.12213
20
2.635
11
2.12213
21
2.695
0
LINE
8
BLACK
6
CONTINUOUS
10
2.12213
20
2.695
11
2.12273
21
2.69801
0
LINE
8
BLACK
6
CONTINUOUS
10
2.12273
20
2.69801
11
2.12443
21
2.70057
0
LINE
8
BLACK
6
CONTINUOUS
10
2.12443
20
2.70057
11
2.12699
21
2.70227
0
LINE
8
BLACK
6
CONTINUOUS
10
2.12699
20
2.70227
11
2.13
21
2.70287
0
LINE
8
BLACK
6
CONTINUOUS
10
2.13
20
2.70287
11
2.19
21
2.70287
0
LINE
8
BLACK
6
CONTINUOUS
10
2.19
20
2.70287
11
2.19301
21
2.70227
0
LINE
8
BLACK
6
CONTINUOUS
10
0.792431
20
2.72929
11
0.794985
21
2.72758
0
LINE
8
BLACK
6
CONTINUOUS
10
0.794985
20
2.72758
11
0.796692
21
2.72503
0
LINE
8
BLACK
6
CONTINUOUS
10
0.796692
20
2.72503
11
0.797291
21
2.72202
0
LINE
8
BLACK
6
CONTINUOUS
10
0.797291
20
2.72202
11
0.797291
21
2.65602
0
LINE
8
BLACK
6
CONTINUOUS
10
0.797291
20
2.65602
11
0.796692
21
2.653
0
LINE
8
BLACK
6
CONTINUOUS
10
0.796692
20
2.653
11
0.794985
21
2.65045
0
LINE
8
BLACK
6
CONTINUOUS
10
0.794985
20
2.65045
11
0.792431
21
2.64874
0
LINE
8
BLACK
6
CONTINUOUS
10
0.792431
20
2.64874
11
0.789417
21
2.64814
0
LINE
8
BLACK
6
CONTINUOUS
10
0.789417
20
2.64814
11
0.723417
21
2.64814
0
LINE
8
BLACK
6
CONTINUOUS
10
0.723417
20
2.64814
11
0.720404
21
2.64874
0
LINE
8
BLACK
6
CONTINUOUS
10
0.720404
20
2.64874
11
0.71785
21
2.65045
0
LINE
8
BLACK
6
CONTINUOUS
10
0.71785
20
2.65045
11
0.716143
21
2.653
0
LINE
8
BLACK
6
CONTINUOUS
10
0.716143
20
2.653
11
0.715543
21
2.65602
0
LINE
8
BLACK
6
CONTINUOUS
10
0.715543
20
2.65602
11
0.715543
21
2.72202
0
LINE
8
BLACK
6
CONTINUOUS
10
0.715543
20
2.72202
11
0.716143
21
2.72503
0
LINE
8
BLACK
6
CONTINUOUS
10
0.716143
20
2.72503
11
0.71785
21
2.72758
0
LINE
8
BLACK
6
CONTINUOUS
10
0.71785
20
2.72758
11
0.720404
21
2.72929
0
LINE
8
BLACK
6
CONTINUOUS
10
0.720404
20
2.72929
11
0.723417
21
2.72989
0
LINE
8
BLACK
6
CONTINUOUS
10
0.723417
20
2.72989
11
0.789417
21
2.72989
0
LINE
8
BLACK
6
CONTINUOUS
10
0.789417
20
2.72989
11
0.792431
21
2.72929
0
LINE
8
BLACK
6
CONTINUOUS
10
0.969596
20
2.72929
11
0.97215
21
2.72758
0
LINE
8
BLACK
6
CONTINUOUS
10
0.97215
20
2.72758
11
0.973857
21
2.72503
0
LINE
8
BLACK
6
CONTINUOUS
10
0.973857
20
2.72503
11
0.974457
21
2.72202
0
LINE
8
BLACK
6
CONTINUOUS
10
0.974457
20
2.72202
11
0.974457
21
2.65602
0
LINE
8
BLACK
6
CONTINUOUS
10
0.974457
20
2.65602
11
0.973857
21
2.653
0
LINE
8
BLACK
6
CONTINUOUS
10
0.973857
20
2.653
11
0.97215
21
2.65045
0
LINE
8
BLACK
6
CONTINUOUS
10
0.97215
20
2.65045
11
0.969596
21
2.64874
0
LINE
8
BLACK
6
CONTINUOUS
10
0.969596
20
2.64874
11
0.966583
21
2.64814
0
LINE
8
BLACK
6
CONTINUOUS
10
0.966583
20
2.64814
11
0.900583
21
2.64814
0
LINE
8
BLACK
6
CONTINUOUS
10
0.900583
20
2.64814
11
0.897569
21
2.64874
0
LINE
8
BLACK
6
CONTINUOUS
10
0.897569
20
2.64874
11
0.895015
21
2.65045
0
LINE
8
BLACK
6
CONTINUOUS
10
0.895015
20
2.65045
11
0.893308
21
2.653
0
LINE
8
BLACK
6
CONTINUOUS
10
0.893308
20
2.653
11
0.892709
21
2.65602
0
LINE
8
BLACK
6
CONTINUOUS
10
0.892709
20
2.65602
11
0.892709
21
2.72202
0
LINE
8
BLACK
6
CONTINUOUS
10
0.892709
20
2.72202
11
0.893308
21
2.72503
0
LINE
8
BLACK
6
CONTINUOUS
10
0.893308
20
2.72503
11
0.895015
21
2.72758
0
LINE
8
BLACK
6
CONTINUOUS
10
0.895015
20
2.72758
11
0.897569
21
2.72929
0
LINE
8
BLACK
6
CONTINUOUS
10
0.897569
20
2.72929
11
0.900583
21
2.72989
0
LINE
8
BLACK
6
CONTINUOUS
10
0.900583
20
2.72989
11
0.966583
21
2.72989
0
LINE
8
BLACK
6
CONTINUOUS
10
0.966583
20
2.72989
11
0.969596
21
2.72929
  0
ENDSEC
  0
EOF
