  0
SECTION
  2
HEADER
  9
$ANGBASE
  50
0.0
  9
$ANGDIR
  70
1
  9
$MEASUREMENT
  70
0
  0
ENDSEC
  0
SECTION
  2
TABLES
  0
TABLE
  2
LTYPE
  70
4
  0
LTYPE
  5
40F
  2
CONTINUOUS
  70
0
  3
Solid line
  72
65
  73
0
  40
0.0
  0
LTYPE
  5
410
  2
DASHDOT
 70
0
  3
Dash Dot ____ _ ____ _
 72
65
 73
4
 40
2.0
 49
1.25
 49
-0.25
 49
0.25
 49
-0.25
  0
LTYPE
  5
411
  2
DASHED
 70
0
  3
Dashed __ __ __ __ __
 72
65
 73
2
 40
0.75
 49
0.5
 49
-0.25
  0
LTYPE
  5
43B
  2
DOTTED
 70
0
  3
Dotted .  .  .  .
 72
65
 73
2
 40
0.2
 49
0.0
 49
-0.2
  0
ENDTAB
  0
TABLE
  2
STYLE
  70
4
  0
STYLE
  2
KICAD
  70
0
  40
0
  41
1
  42
1
  50
0
  71
0
  3
isocp.shx
  0
STYLE
  2
KICADB
  70
0
  40
0
  41
1
  42
1
  50
0
  71
0
  3
isocp.shx
  0
STYLE
  2
KICADI
  70
0
  40
0
  41
1
  42
1
  50
15
  71
0
  3
isocp.shx
  0
STYLE
  2
KICADBI
  70
0
  40
0
  41
1
  42
1
  50
15
  71
0
  3
isocp.shx
  0
ENDTAB
  0
TABLE
  2
LAYER
  70
1
  0
LAYER
  2
BLACK
  70
0
  62
7
  6
CONTINUOUS
  0
ENDTAB
  0
ENDSEC
  0
SECTION
  2
ENTITIES
0
LINE
8
BLACK
6
CONTINUOUS
10
3.00865
20
0.317793
11
3.02213
21
0.316018
0
LINE
8
BLACK
6
CONTINUOUS
10
3.02213
20
0.316018
11
3.03532
21
0.312706
0
LINE
8
BLACK
6
CONTINUOUS
10
3.03532
20
0.312706
11
3.04804
21
0.307899
0
LINE
8
BLACK
6
CONTINUOUS
10
3.04804
20
0.307899
11
3.06012
21
0.301662
0
LINE
8
BLACK
6
CONTINUOUS
10
3.06012
20
0.301662
11
3.07141
21
0.294078
0
LINE
8
BLACK
6
CONTINUOUS
10
3.07141
20
0.294078
11
3.08175
21
0.285247
0
LINE
8
BLACK
6
CONTINUOUS
10
3.08175
20
0.285247
11
3.09101
21
0.275286
0
LINE
8
BLACK
6
CONTINUOUS
10
3.09101
20
0.275286
11
3.09906
21
0.264327
0
LINE
8
BLACK
6
CONTINUOUS
10
3.09906
20
0.264327
11
3.10579
21
0.252516
0
LINE
8
BLACK
6
CONTINUOUS
10
3.10579
20
0.252516
11
3.11113
21
0.240008
0
LINE
8
BLACK
6
CONTINUOUS
10
3.11113
20
0.240008
11
3.11499
21
0.226971
0
LINE
8
BLACK
6
CONTINUOUS
10
3.11499
20
0.226971
11
3.11733
21
0.213575
0
LINE
8
BLACK
6
CONTINUOUS
10
3.11733
20
0.213575
11
3.11811
21
0.2
0
LINE
8
BLACK
6
CONTINUOUS
10
3.11811
20
0.2
11
3.11788
21
0.192584
0
LINE
8
BLACK
6
CONTINUOUS
10
3.11788
20
0.192584
11
3.11624
21
0.179084
0
LINE
8
BLACK
6
CONTINUOUS
10
3.11624
20
0.179084
11
3.11307
21
0.165862
0
LINE
8
BLACK
6
CONTINUOUS
10
3.11307
20
0.165862
11
3.1084
21
0.153093
0
LINE
8
BLACK
6
CONTINUOUS
10
3.1084
20
0.153093
11
3.10229
21
0.140945
0
LINE
8
BLACK
6
CONTINUOUS
10
3.10229
20
0.140945
11
3.09482
21
0.12958
0
LINE
8
BLACK
6
CONTINUOUS
10
3.09482
20
0.12958
11
3.0861
21
0.119148
0
LINE
8
BLACK
6
CONTINUOUS
10
3.0861
20
0.119148
11
3.07624
21
0.109788
0
LINE
8
BLACK
6
CONTINUOUS
10
3.07624
20
0.109788
11
3.06536
21
0.101623
0
LINE
8
BLACK
6
CONTINUOUS
10
3.06536
20
0.101623
11
3.05362
21
0.094763
0
LINE
8
BLACK
6
CONTINUOUS
10
3.05362
20
0.094763
11
3.04117
21
0.0892974
0
LINE
8
BLACK
6
CONTINUOUS
10
3.04117
20
0.0892974
11
3.02817
21
0.0852991
0
LINE
8
BLACK
6
CONTINUOUS
10
3.02817
20
0.0852991
11
3.0148
21
0.0828211
0
LINE
8
BLACK
6
CONTINUOUS
10
3.0148
20
0.0828211
11
3.00124
21
0.0818962
0
LINE
8
BLACK
6
CONTINUOUS
10
3.00124
20
0.0818962
11
2.98765
21
0.0825368
0
LINE
8
BLACK
6
CONTINUOUS
10
2.98765
20
0.0825368
11
2.97424
21
0.0847343
0
LINE
8
BLACK
6
CONTINUOUS
10
2.97424
20
0.0847343
11
2.96116
21
0.0884595
0
LINE
8
BLACK
6
CONTINUOUS
10
2.96116
20
0.0884595
11
2.94859
21
0.0936631
0
LINE
8
BLACK
6
CONTINUOUS
10
2.94859
20
0.0936631
11
2.93671
21
0.100276
0
LINE
8
BLACK
6
CONTINUOUS
10
2.93671
20
0.100276
11
2.92567
21
0.108211
0
LINE
8
BLACK
6
CONTINUOUS
10
2.92567
20
0.108211
11
2.91561
21
0.117363
0
LINE
8
BLACK
6
CONTINUOUS
10
2.91561
20
0.117363
11
2.90667
21
0.127609
0
LINE
8
BLACK
6
CONTINUOUS
10
2.90667
20
0.127609
11
2.89897
21
0.138816
0
LINE
8
BLACK
6
CONTINUOUS
10
2.89897
20
0.138816
11
2.89261
21
0.150833
0
LINE
8
BLACK
6
CONTINUOUS
10
2.89261
20
0.150833
11
2.88767
21
0.163502
0
LINE
8
BLACK
6
CONTINUOUS
10
2.88767
20
0.163502
11
2.88422
21
0.176655
0
LINE
8
BLACK
6
CONTINUOUS
10
2.88422
20
0.176655
11
2.8823
21
0.190117
0
LINE
8
BLACK
6
CONTINUOUS
10
2.8823
20
0.190117
11
2.88195
21
0.20371
0
LINE
8
BLACK
6
CONTINUOUS
10
2.88195
20
0.20371
11
2.88316
21
0.217254
0
LINE
8
BLACK
6
CONTINUOUS
10
2.88316
20
0.217254
11
2.88591
21
0.230569
0
LINE
8
BLACK
6
CONTINUOUS
10
2.88591
20
0.230569
11
2.89018
21
0.243479
0
LINE
8
BLACK
6
CONTINUOUS
10
2.89018
20
0.243479
11
2.89591
21
0.255813
0
LINE
8
BLACK
6
CONTINUOUS
10
2.89591
20
0.255813
11
2.90301
21
0.267407
0
LINE
8
BLACK
6
CONTINUOUS
10
2.90301
20
0.267407
11
2.9114
21
0.278108
0
LINE
8
BLACK
6
CONTINUOUS
10
2.9114
20
0.278108
11
2.92097
21
0.287773
0
LINE
8
BLACK
6
CONTINUOUS
10
2.92097
20
0.287773
11
2.93158
21
0.296275
0
LINE
8
BLACK
6
CONTINUOUS
10
2.93158
20
0.296275
11
2.9431
21
0.303501
0
LINE
8
BLACK
6
CONTINUOUS
10
2.9431
20
0.303501
11
2.95537
21
0.309355
0
LINE
8
BLACK
6
CONTINUOUS
10
2.95537
20
0.309355
11
2.96824
21
0.313759
0
LINE
8
BLACK
6
CONTINUOUS
10
2.96824
20
0.313759
11
2.98152
21
0.316656
0
LINE
8
BLACK
6
CONTINUOUS
10
2.98152
20
0.316656
11
2.99505
21
0.318007
0
LINE
8
BLACK
6
CONTINUOUS
10
2.99505
20
0.318007
11
3.00865
21
0.317793
0
LINE
8
BLACK
6
CONTINUOUS
10
0.45
20
0.208465
11
0.317622
21
0.208465
0
LINE
8
BLACK
6
CONTINUOUS
10
0.317622
20
0.208465
11
0.31811
21
0.2
0
LINE
8
BLACK
6
CONTINUOUS
10
0.31811
20
0.2
11
0.317877
21
0.192584
0
LINE
8
BLACK
6
CONTINUOUS
10
0.317877
20
0.192584
11
0.316244
21
0.179084
0
LINE
8
BLACK
6
CONTINUOUS
10
0.316244
20
0.179084
11
0.313069
21
0.165862
0
LINE
8
BLACK
6
CONTINUOUS
10
0.313069
20
0.165862
11
0.308396
21
0.153093
0
LINE
8
BLACK
6
CONTINUOUS
10
0.308396
20
0.153093
11
0.302286
21
0.140945
0
LINE
8
BLACK
6
CONTINUOUS
10
0.302286
20
0.140945
11
0.294821
21
0.12958
0
LINE
8
BLACK
6
CONTINUOUS
10
0.294821
20
0.12958
11
0.286099
21
0.119148
0
LINE
8
BLACK
6
CONTINUOUS
10
0.286099
20
0.119148
11
0.276235
21
0.109788
0
LINE
8
BLACK
6
CONTINUOUS
10
0.276235
20
0.109788
11
0.265361
21
0.101623
0
LINE
8
BLACK
6
CONTINUOUS
10
0.265361
20
0.101623
11
0.253621
21
0.094763
0
LINE
8
BLACK
6
CONTINUOUS
10
0.253621
20
0.094763
11
0.24117
21
0.0892974
0
LINE
8
BLACK
6
CONTINUOUS
10
0.24117
20
0.0892974
11
0.228173
21
0.0852991
0
LINE
8
BLACK
6
CONTINUOUS
10
0.228173
20
0.0852991
11
0.214803
21
0.0828211
0
LINE
8
BLACK
6
CONTINUOUS
10
0.214803
20
0.0828211
11
0.201237
21
0.0818962
0
LINE
8
BLACK
6
CONTINUOUS
10
0.201237
20
0.0818962
11
0.187654
21
0.0825368
0
LINE
8
BLACK
6
CONTINUOUS
10
0.187654
20
0.0825368
11
0.174235
21
0.0847343
0
LINE
8
BLACK
6
CONTINUOUS
10
0.174235
20
0.0847343
11
0.161157
21
0.0884595
0
LINE
8
BLACK
6
CONTINUOUS
10
0.161157
20
0.0884595
11
0.148595
21
0.0936631
0
LINE
8
BLACK
6
CONTINUOUS
10
0.148595
20
0.0936631
11
0.136713
21
0.100276
0
LINE
8
BLACK
6
CONTINUOUS
10
0.136713
20
0.100276
11
0.125671
21
0.108211
0
LINE
8
BLACK
6
CONTINUOUS
10
0.125671
20
0.108211
11
0.115613
21
0.117363
0
LINE
8
BLACK
6
CONTINUOUS
10
0.115613
20
0.117363
11
0.106675
21
0.127609
0
LINE
8
BLACK
6
CONTINUOUS
10
0.106675
20
0.127609
11
0.0989727
21
0.138816
0
LINE
8
BLACK
6
CONTINUOUS
10
0.0989727
20
0.138816
11
0.0926099
21
0.150833
0
LINE
8
BLACK
6
CONTINUOUS
10
0.0926099
20
0.150833
11
0.0876705
21
0.163502
0
LINE
8
BLACK
6
CONTINUOUS
10
0.0876705
20
0.163502
11
0.0842199
21
0.176655
0
LINE
8
BLACK
6
CONTINUOUS
10
0.0842199
20
0.176655
11
0.082304
21
0.190117
0
LINE
8
BLACK
6
CONTINUOUS
10
0.082304
20
0.190117
11
0.081948
21
0.20371
0
LINE
8
BLACK
6
CONTINUOUS
10
0.081948
20
0.20371
11
0.0831568
21
0.217254
0
LINE
8
BLACK
6
CONTINUOUS
10
0.0831568
20
0.217254
11
0.0859143
21
0.230569
0
LINE
8
BLACK
6
CONTINUOUS
10
0.0859143
20
0.230569
11
0.0901839
21
0.243479
0
LINE
8
BLACK
6
CONTINUOUS
10
0.0901839
20
0.243479
11
0.0959091
21
0.255813
0
LINE
8
BLACK
6
CONTINUOUS
10
0.0959091
20
0.255813
11
0.103014
21
0.267407
0
LINE
8
BLACK
6
CONTINUOUS
10
0.103014
20
0.267407
11
0.111404
21
0.278108
0
LINE
8
BLACK
6
CONTINUOUS
10
0.111404
20
0.278108
11
0.120969
21
0.287773
0
LINE
8
BLACK
6
CONTINUOUS
10
0.120969
20
0.287773
11
0.131581
21
0.296275
0
LINE
8
BLACK
6
CONTINUOUS
10
0.131581
20
0.296275
11
0.1431
21
0.303501
0
LINE
8
BLACK
6
CONTINUOUS
10
0.1431
20
0.303501
11
0.155373
21
0.309355
0
LINE
8
BLACK
6
CONTINUOUS
10
0.155373
20
0.309355
11
0.168238
21
0.313759
0
LINE
8
BLACK
6
CONTINUOUS
10
0.168238
20
0.313759
11
0.181524
21
0.316656
0
LINE
8
BLACK
6
CONTINUOUS
10
0.181524
20
0.316656
11
0.195054
21
0.318007
0
LINE
8
BLACK
6
CONTINUOUS
10
0.195054
20
0.318007
11
0.20865
21
0.317793
0
LINE
8
BLACK
6
CONTINUOUS
10
0.20865
20
0.317793
11
0.222132
21
0.316018
0
LINE
8
BLACK
6
CONTINUOUS
10
0.222132
20
0.316018
11
0.23532
21
0.312706
0
LINE
8
BLACK
6
CONTINUOUS
10
0.23532
20
0.312706
11
0.24804
21
0.307899
0
LINE
8
BLACK
6
CONTINUOUS
10
0.24804
20
0.307899
11
0.260123
21
0.301662
0
LINE
8
BLACK
6
CONTINUOUS
10
0.260123
20
0.301662
11
0.271409
21
0.294078
0
LINE
8
BLACK
6
CONTINUOUS
10
0.271409
20
0.294078
11
0.281749
21
0.285247
0
LINE
8
BLACK
6
CONTINUOUS
10
0.281749
20
0.285247
11
0.291006
21
0.275286
0
LINE
8
BLACK
6
CONTINUOUS
10
0.291006
20
0.275286
11
0.299056
21
0.264327
0
LINE
8
BLACK
6
CONTINUOUS
10
0.299056
20
0.264327
11
0.305793
21
0.252516
0
LINE
8
BLACK
6
CONTINUOUS
10
0.305793
20
0.252516
11
0.308268
21
0.246713
0
LINE
8
BLACK
6
CONTINUOUS
10
0.308268
20
0.246713
11
0.308268
21
0.641535
0
LINE
8
BLACK
6
CONTINUOUS
10
0.308268
20
0.641535
11
0.45
21
0.641535
0
LINE
8
BLACK
6
CONTINUOUS
10
0.45
20
0.641535
11
0.45
21
0.208465
0
LINE
8
BLACK
6
CONTINUOUS
10
1.815
20
0.10122
11
1.665
21
0.10122
0
LINE
8
BLACK
6
CONTINUOUS
10
1.665
20
0.10122
11
1.665
21
0.25122
0
LINE
8
BLACK
6
CONTINUOUS
10
1.665
20
0.25122
11
1.815
21
0.25122
0
LINE
8
BLACK
6
CONTINUOUS
10
1.815
20
0.25122
11
1.815
21
0.10122
0
LINE
8
BLACK
6
CONTINUOUS
10
2.01185
20
0.10122
11
1.86185
21
0.10122
0
LINE
8
BLACK
6
CONTINUOUS
10
1.86185
20
0.10122
11
1.86185
21
0.25122
0
LINE
8
BLACK
6
CONTINUOUS
10
1.86185
20
0.25122
11
2.01185
21
0.25122
0
LINE
8
BLACK
6
CONTINUOUS
10
2.01185
20
0.25122
11
2.01185
21
0.10122
0
LINE
8
BLACK
6
CONTINUOUS
10
0.87
20
0.12
11
0.81
21
0.12
0
LINE
8
BLACK
6
CONTINUOUS
10
0.81
20
0.12
11
0.81
21
0.18
0
LINE
8
BLACK
6
CONTINUOUS
10
0.81
20
0.18
11
0.87
21
0.18
0
LINE
8
BLACK
6
CONTINUOUS
10
0.87
20
0.18
11
0.87
21
0.12
0
LINE
8
BLACK
6
CONTINUOUS
10
1.07
20
0.12
11
1.01
21
0.12
0
LINE
8
BLACK
6
CONTINUOUS
10
1.01
20
0.12
11
1.01
21
0.18
0
LINE
8
BLACK
6
CONTINUOUS
10
1.01
20
0.18
11
1.07
21
0.18
0
LINE
8
BLACK
6
CONTINUOUS
10
1.07
20
0.18
11
1.07
21
0.12
0
LINE
8
BLACK
6
CONTINUOUS
10
0.97
20
0.12
11
0.91
21
0.12
0
LINE
8
BLACK
6
CONTINUOUS
10
0.91
20
0.12
11
0.91
21
0.18
0
LINE
8
BLACK
6
CONTINUOUS
10
0.91
20
0.18
11
0.97
21
0.18
0
LINE
8
BLACK
6
CONTINUOUS
10
0.97
20
0.18
11
0.97
21
0.12
0
LINE
8
BLACK
6
CONTINUOUS
10
2.69193
20
0.208465
11
2.41634
21
0.208465
0
LINE
8
BLACK
6
CONTINUOUS
10
2.41634
20
0.208465
11
2.41634
21
0.641535
0
LINE
8
BLACK
6
CONTINUOUS
10
2.41634
20
0.641535
11
2.69193
21
0.641535
0
LINE
8
BLACK
6
CONTINUOUS
10
2.69193
20
0.641535
11
2.69193
21
0.208465
0
LINE
8
BLACK
6
CONTINUOUS
10
1.07
20
0.22
11
1.01
21
0.22
0
LINE
8
BLACK
6
CONTINUOUS
10
1.01
20
0.22
11
1.01
21
0.28
0
LINE
8
BLACK
6
CONTINUOUS
10
1.01
20
0.28
11
1.07
21
0.28
0
LINE
8
BLACK
6
CONTINUOUS
10
1.07
20
0.28
11
1.07
21
0.22
0
LINE
8
BLACK
6
CONTINUOUS
10
0.87
20
0.22
11
0.81
21
0.22
0
LINE
8
BLACK
6
CONTINUOUS
10
0.81
20
0.22
11
0.81
21
0.28
0
LINE
8
BLACK
6
CONTINUOUS
10
0.81
20
0.28
11
0.87
21
0.28
0
LINE
8
BLACK
6
CONTINUOUS
10
0.87
20
0.28
11
0.87
21
0.22
0
LINE
8
BLACK
6
CONTINUOUS
10
0.97
20
0.22
11
0.91
21
0.22
0
LINE
8
BLACK
6
CONTINUOUS
10
0.91
20
0.22
11
0.91
21
0.28
0
LINE
8
BLACK
6
CONTINUOUS
10
0.91
20
0.28
11
0.97
21
0.28
0
LINE
8
BLACK
6
CONTINUOUS
10
0.97
20
0.28
11
0.97
21
0.22
0
LINE
8
BLACK
6
CONTINUOUS
10
0.529134
20
0.25622
11
0.469134
21
0.25622
0
LINE
8
BLACK
6
CONTINUOUS
10
0.469134
20
0.25622
11
0.469134
21
0.31622
0
LINE
8
BLACK
6
CONTINUOUS
10
0.469134
20
0.31622
11
0.529134
21
0.31622
0
LINE
8
BLACK
6
CONTINUOUS
10
0.529134
20
0.31622
11
0.529134
21
0.25622
0
LINE
8
BLACK
6
CONTINUOUS
10
2.77717
20
0.25622
11
2.71717
21
0.25622
0
LINE
8
BLACK
6
CONTINUOUS
10
2.71717
20
0.25622
11
2.71717
21
0.31622
0
LINE
8
BLACK
6
CONTINUOUS
10
2.71717
20
0.31622
11
2.77717
21
0.31622
0
LINE
8
BLACK
6
CONTINUOUS
10
2.77717
20
0.31622
11
2.77717
21
0.25622
0
LINE
8
BLACK
6
CONTINUOUS
10
2.01185
20
0.30122
11
1.86185
21
0.30122
0
LINE
8
BLACK
6
CONTINUOUS
10
1.86185
20
0.30122
11
1.86185
21
0.45122
0
LINE
8
BLACK
6
CONTINUOUS
10
1.86185
20
0.45122
11
2.01185
21
0.45122
0
LINE
8
BLACK
6
CONTINUOUS
10
2.01185
20
0.45122
11
2.01185
21
0.30122
0
LINE
8
BLACK
6
CONTINUOUS
10
1.815
20
0.30122
11
1.665
21
0.30122
0
LINE
8
BLACK
6
CONTINUOUS
10
1.665
20
0.30122
11
1.665
21
0.45122
0
LINE
8
BLACK
6
CONTINUOUS
10
1.665
20
0.45122
11
1.815
21
0.45122
0
LINE
8
BLACK
6
CONTINUOUS
10
1.815
20
0.45122
11
1.815
21
0.30122
0
LINE
8
BLACK
6
CONTINUOUS
10
0.529134
20
0.35622
11
0.469134
21
0.35622
0
LINE
8
BLACK
6
CONTINUOUS
10
0.469134
20
0.35622
11
0.469134
21
0.41622
0
LINE
8
BLACK
6
CONTINUOUS
10
0.469134
20
0.41622
11
0.529134
21
0.41622
0
LINE
8
BLACK
6
CONTINUOUS
10
0.529134
20
0.41622
11
0.529134
21
0.35622
0
LINE
8
BLACK
6
CONTINUOUS
10
2.77717
20
0.35622
11
2.71717
21
0.35622
0
LINE
8
BLACK
6
CONTINUOUS
10
2.71717
20
0.35622
11
2.71717
21
0.41622
0
LINE
8
BLACK
6
CONTINUOUS
10
2.71717
20
0.41622
11
2.77717
21
0.41622
0
LINE
8
BLACK
6
CONTINUOUS
10
2.77717
20
0.41622
11
2.77717
21
0.35622
0
LINE
8
BLACK
6
CONTINUOUS
10
0.529134
20
0.45622
11
0.469134
21
0.45622
0
LINE
8
BLACK
6
CONTINUOUS
10
0.469134
20
0.45622
11
0.469134
21
0.51622
0
LINE
8
BLACK
6
CONTINUOUS
10
0.469134
20
0.51622
11
0.529134
21
0.51622
0
LINE
8
BLACK
6
CONTINUOUS
10
0.529134
20
0.51622
11
0.529134
21
0.45622
0
LINE
8
BLACK
6
CONTINUOUS
10
2.77717
20
0.45622
11
2.71717
21
0.45622
0
LINE
8
BLACK
6
CONTINUOUS
10
2.71717
20
0.45622
11
2.71717
21
0.51622
0
LINE
8
BLACK
6
CONTINUOUS
10
2.71717
20
0.51622
11
2.77717
21
0.51622
0
LINE
8
BLACK
6
CONTINUOUS
10
2.77717
20
0.51622
11
2.77717
21
0.45622
0
LINE
8
BLACK
6
CONTINUOUS
10
0.529134
20
0.55622
11
0.469134
21
0.55622
0
LINE
8
BLACK
6
CONTINUOUS
10
0.469134
20
0.55622
11
0.469134
21
0.61622
0
LINE
8
BLACK
6
CONTINUOUS
10
0.469134
20
0.61622
11
0.529134
21
0.61622
0
LINE
8
BLACK
6
CONTINUOUS
10
0.529134
20
0.61622
11
0.529134
21
0.55622
0
LINE
8
BLACK
6
CONTINUOUS
10
2.77717
20
0.55622
11
2.71717
21
0.55622
0
LINE
8
BLACK
6
CONTINUOUS
10
2.71717
20
0.55622
11
2.71717
21
0.61622
0
LINE
8
BLACK
6
CONTINUOUS
10
2.71717
20
0.61622
11
2.77717
21
0.61622
0
LINE
8
BLACK
6
CONTINUOUS
10
2.77717
20
0.61622
11
2.77717
21
0.55622
0
LINE
8
BLACK
6
CONTINUOUS
10
0.159229
20
0.901161
11
0.168178
21
0.898763
0
LINE
8
BLACK
6
CONTINUOUS
10
0.168178
20
0.898763
11
0.176575
21
0.894848
0
LINE
8
BLACK
6
CONTINUOUS
10
0.176575
20
0.894848
11
0.184164
21
0.889534
0
LINE
8
BLACK
6
CONTINUOUS
10
0.184164
20
0.889534
11
0.190715
21
0.882983
0
LINE
8
BLACK
6
CONTINUOUS
10
0.190715
20
0.882983
11
0.196029
21
0.875394
0
LINE
8
BLACK
6
CONTINUOUS
10
0.196029
20
0.875394
11
0.199944
21
0.866997
0
LINE
8
BLACK
6
CONTINUOUS
10
0.199944
20
0.866997
11
0.202342
21
0.858048
0
LINE
8
BLACK
6
CONTINUOUS
10
0.202342
20
0.858048
11
0.20315
21
0.848819
0
LINE
8
BLACK
6
CONTINUOUS
10
0.20315
20
0.848819
11
0.202342
21
0.83959
0
LINE
8
BLACK
6
CONTINUOUS
10
0.202342
20
0.83959
11
0.199944
21
0.830641
0
LINE
8
BLACK
6
CONTINUOUS
10
0.199944
20
0.830641
11
0.196029
21
0.822244
0
LINE
8
BLACK
6
CONTINUOUS
10
0.196029
20
0.822244
11
0.190715
21
0.814655
0
LINE
8
BLACK
6
CONTINUOUS
10
0.190715
20
0.814655
11
0.184164
21
0.808104
0
LINE
8
BLACK
6
CONTINUOUS
10
0.184164
20
0.808104
11
0.176575
21
0.80279
0
LINE
8
BLACK
6
CONTINUOUS
10
0.176575
20
0.80279
11
0.168178
21
0.798875
0
LINE
8
BLACK
6
CONTINUOUS
10
0.168178
20
0.798875
11
0.159229
21
0.796477
0
LINE
8
BLACK
6
CONTINUOUS
10
0.159229
20
0.796477
11
0.15
21
0.795669
0
LINE
8
BLACK
6
CONTINUOUS
10
0.15
20
0.795669
11
0.140771
21
0.796477
0
LINE
8
BLACK
6
CONTINUOUS
10
0.140771
20
0.796477
11
0.131822
21
0.798875
0
LINE
8
BLACK
6
CONTINUOUS
10
0.131822
20
0.798875
11
0.123425
21
0.80279
0
LINE
8
BLACK
6
CONTINUOUS
10
0.123425
20
0.80279
11
0.115836
21
0.808104
0
LINE
8
BLACK
6
CONTINUOUS
10
0.115836
20
0.808104
11
0.109285
21
0.814655
0
LINE
8
BLACK
6
CONTINUOUS
10
0.109285
20
0.814655
11
0.103971
21
0.822244
0
LINE
8
BLACK
6
CONTINUOUS
10
0.103971
20
0.822244
11
0.100056
21
0.830641
0
LINE
8
BLACK
6
CONTINUOUS
10
0.100056
20
0.830641
11
0.0976579
21
0.83959
0
LINE
8
BLACK
6
CONTINUOUS
10
0.0976579
20
0.83959
11
0.0968504
21
0.848819
0
LINE
8
BLACK
6
CONTINUOUS
10
0.0968504
20
0.848819
11
0.0976579
21
0.858048
0
LINE
8
BLACK
6
CONTINUOUS
10
0.0976579
20
0.858048
11
0.100056
21
0.866997
0
LINE
8
BLACK
6
CONTINUOUS
10
0.100056
20
0.866997
11
0.103971
21
0.875394
0
LINE
8
BLACK
6
CONTINUOUS
10
0.103971
20
0.875394
11
0.109285
21
0.882983
0
LINE
8
BLACK
6
CONTINUOUS
10
0.109285
20
0.882983
11
0.115836
21
0.889534
0
LINE
8
BLACK
6
CONTINUOUS
10
0.115836
20
0.889534
11
0.123425
21
0.894848
0
LINE
8
BLACK
6
CONTINUOUS
10
0.123425
20
0.894848
11
0.131822
21
0.898763
0
LINE
8
BLACK
6
CONTINUOUS
10
0.131822
20
0.898763
11
0.140771
21
0.901161
0
LINE
8
BLACK
6
CONTINUOUS
10
0.140771
20
0.901161
11
0.15
21
0.901969
0
LINE
8
BLACK
6
CONTINUOUS
10
0.15
20
0.901969
11
0.159229
21
0.901161
0
LINE
8
BLACK
6
CONTINUOUS
10
0.159229
20
1.05864
11
0.168178
21
1.05624
0
LINE
8
BLACK
6
CONTINUOUS
10
0.168178
20
1.05624
11
0.176575
21
1.05233
0
LINE
8
BLACK
6
CONTINUOUS
10
0.176575
20
1.05233
11
0.184164
21
1.04701
0
LINE
8
BLACK
6
CONTINUOUS
10
0.184164
20
1.04701
11
0.190715
21
1.04046
0
LINE
8
BLACK
6
CONTINUOUS
10
0.190715
20
1.04046
11
0.196029
21
1.03287
0
LINE
8
BLACK
6
CONTINUOUS
10
0.196029
20
1.03287
11
0.199944
21
1.02448
0
LINE
8
BLACK
6
CONTINUOUS
10
0.199944
20
1.02448
11
0.202342
21
1.01553
0
LINE
8
BLACK
6
CONTINUOUS
10
0.202342
20
1.01553
11
0.20315
21
1.0063
0
LINE
8
BLACK
6
CONTINUOUS
10
0.20315
20
1.0063
11
0.202342
21
0.99707
0
LINE
8
BLACK
6
CONTINUOUS
10
0.202342
20
0.99707
11
0.199944
21
0.988121
0
LINE
8
BLACK
6
CONTINUOUS
10
0.199944
20
0.988121
11
0.196029
21
0.979724
0
LINE
8
BLACK
6
CONTINUOUS
10
0.196029
20
0.979724
11
0.190715
21
0.972135
0
LINE
8
BLACK
6
CONTINUOUS
10
0.190715
20
0.972135
11
0.184164
21
0.965584
0
LINE
8
BLACK
6
CONTINUOUS
10
0.184164
20
0.965584
11
0.176575
21
0.96027
0
LINE
8
BLACK
6
CONTINUOUS
10
0.176575
20
0.96027
11
0.168178
21
0.956355
0
LINE
8
BLACK
6
CONTINUOUS
10
0.168178
20
0.956355
11
0.159229
21
0.953957
0
LINE
8
BLACK
6
CONTINUOUS
10
0.159229
20
0.953957
11
0.15
21
0.95315
0
LINE
8
BLACK
6
CONTINUOUS
10
0.15
20
0.95315
11
0.140771
21
0.953957
0
LINE
8
BLACK
6
CONTINUOUS
10
0.140771
20
0.953957
11
0.131822
21
0.956355
0
LINE
8
BLACK
6
CONTINUOUS
10
0.131822
20
0.956355
11
0.123425
21
0.96027
0
LINE
8
BLACK
6
CONTINUOUS
10
0.123425
20
0.96027
11
0.115836
21
0.965584
0
LINE
8
BLACK
6
CONTINUOUS
10
0.115836
20
0.965584
11
0.109285
21
0.972135
0
LINE
8
BLACK
6
CONTINUOUS
10
0.109285
20
0.972135
11
0.103971
21
0.979724
0
LINE
8
BLACK
6
CONTINUOUS
10
0.103971
20
0.979724
11
0.100056
21
0.988121
0
LINE
8
BLACK
6
CONTINUOUS
10
0.100056
20
0.988121
11
0.0976579
21
0.99707
0
LINE
8
BLACK
6
CONTINUOUS
10
0.0976579
20
0.99707
11
0.0968504
21
1.0063
0
LINE
8
BLACK
6
CONTINUOUS
10
0.0968504
20
1.0063
11
0.0976579
21
1.01553
0
LINE
8
BLACK
6
CONTINUOUS
10
0.0976579
20
1.01553
11
0.100056
21
1.02448
0
LINE
8
BLACK
6
CONTINUOUS
10
0.100056
20
1.02448
11
0.103971
21
1.03287
0
LINE
8
BLACK
6
CONTINUOUS
10
0.103971
20
1.03287
11
0.109285
21
1.04046
0
LINE
8
BLACK
6
CONTINUOUS
10
0.109285
20
1.04046
11
0.115836
21
1.04701
0
LINE
8
BLACK
6
CONTINUOUS
10
0.115836
20
1.04701
11
0.123425
21
1.05233
0
LINE
8
BLACK
6
CONTINUOUS
10
0.123425
20
1.05233
11
0.131822
21
1.05624
0
LINE
8
BLACK
6
CONTINUOUS
10
0.131822
20
1.05624
11
0.140771
21
1.05864
0
LINE
8
BLACK
6
CONTINUOUS
10
0.140771
20
1.05864
11
0.15
21
1.05945
0
LINE
8
BLACK
6
CONTINUOUS
10
0.15
20
1.05945
11
0.159229
21
1.05864
0
LINE
8
BLACK
6
CONTINUOUS
10
0.159229
20
1.21612
11
0.168178
21
1.21372
0
LINE
8
BLACK
6
CONTINUOUS
10
0.168178
20
1.21372
11
0.176575
21
1.20981
0
LINE
8
BLACK
6
CONTINUOUS
10
0.176575
20
1.20981
11
0.184164
21
1.20449
0
LINE
8
BLACK
6
CONTINUOUS
10
0.184164
20
1.20449
11
0.190715
21
1.19794
0
LINE
8
BLACK
6
CONTINUOUS
10
0.190715
20
1.19794
11
0.196029
21
1.19035
0
LINE
8
BLACK
6
CONTINUOUS
10
0.196029
20
1.19035
11
0.199944
21
1.18196
0
LINE
8
BLACK
6
CONTINUOUS
10
0.199944
20
1.18196
11
0.202342
21
1.17301
0
LINE
8
BLACK
6
CONTINUOUS
10
0.202342
20
1.17301
11
0.20315
21
1.16378
0
LINE
8
BLACK
6
CONTINUOUS
10
0.20315
20
1.16378
11
0.202342
21
1.15455
0
LINE
8
BLACK
6
CONTINUOUS
10
0.202342
20
1.15455
11
0.199944
21
1.1456
0
LINE
8
BLACK
6
CONTINUOUS
10
0.199944
20
1.1456
11
0.196029
21
1.1372
0
LINE
8
BLACK
6
CONTINUOUS
10
0.196029
20
1.1372
11
0.190715
21
1.12962
0
LINE
8
BLACK
6
CONTINUOUS
10
0.190715
20
1.12962
11
0.184164
21
1.12306
0
LINE
8
BLACK
6
CONTINUOUS
10
0.184164
20
1.12306
11
0.176575
21
1.11775
0
LINE
8
BLACK
6
CONTINUOUS
10
0.176575
20
1.11775
11
0.168178
21
1.11384
0
LINE
8
BLACK
6
CONTINUOUS
10
0.168178
20
1.11384
11
0.159229
21
1.11144
0
LINE
8
BLACK
6
CONTINUOUS
10
0.159229
20
1.11144
11
0.15
21
1.11063
0
LINE
8
BLACK
6
CONTINUOUS
10
0.15
20
1.11063
11
0.140771
21
1.11144
0
LINE
8
BLACK
6
CONTINUOUS
10
0.140771
20
1.11144
11
0.131822
21
1.11384
0
LINE
8
BLACK
6
CONTINUOUS
10
0.131822
20
1.11384
11
0.123425
21
1.11775
0
LINE
8
BLACK
6
CONTINUOUS
10
0.123425
20
1.11775
11
0.115836
21
1.12306
0
LINE
8
BLACK
6
CONTINUOUS
10
0.115836
20
1.12306
11
0.109285
21
1.12962
0
LINE
8
BLACK
6
CONTINUOUS
10
0.109285
20
1.12962
11
0.103971
21
1.1372
0
LINE
8
BLACK
6
CONTINUOUS
10
0.103971
20
1.1372
11
0.100056
21
1.1456
0
LINE
8
BLACK
6
CONTINUOUS
10
0.100056
20
1.1456
11
0.0976579
21
1.15455
0
LINE
8
BLACK
6
CONTINUOUS
10
0.0976579
20
1.15455
11
0.0968504
21
1.16378
0
LINE
8
BLACK
6
CONTINUOUS
10
0.0968504
20
1.16378
11
0.0976579
21
1.17301
0
LINE
8
BLACK
6
CONTINUOUS
10
0.0976579
20
1.17301
11
0.100056
21
1.18196
0
LINE
8
BLACK
6
CONTINUOUS
10
0.100056
20
1.18196
11
0.103971
21
1.19035
0
LINE
8
BLACK
6
CONTINUOUS
10
0.103971
20
1.19035
11
0.109285
21
1.19794
0
LINE
8
BLACK
6
CONTINUOUS
10
0.109285
20
1.19794
11
0.115836
21
1.20449
0
LINE
8
BLACK
6
CONTINUOUS
10
0.115836
20
1.20449
11
0.123425
21
1.20981
0
LINE
8
BLACK
6
CONTINUOUS
10
0.123425
20
1.20981
11
0.131822
21
1.21372
0
LINE
8
BLACK
6
CONTINUOUS
10
0.131822
20
1.21372
11
0.140771
21
1.21612
0
LINE
8
BLACK
6
CONTINUOUS
10
0.140771
20
1.21612
11
0.15
21
1.21693
0
LINE
8
BLACK
6
CONTINUOUS
10
0.15
20
1.21693
11
0.159229
21
1.21612
0
LINE
8
BLACK
6
CONTINUOUS
10
0.529134
20
1.22
11
0.469134
21
1.22
0
LINE
8
BLACK
6
CONTINUOUS
10
0.469134
20
1.22
11
0.469134
21
1.28
0
LINE
8
BLACK
6
CONTINUOUS
10
0.469134
20
1.28
11
0.529134
21
1.28
0
LINE
8
BLACK
6
CONTINUOUS
10
0.529134
20
1.28
11
0.529134
21
1.22
0
LINE
8
BLACK
6
CONTINUOUS
10
0.159229
20
1.3736
11
0.168178
21
1.3712
0
LINE
8
BLACK
6
CONTINUOUS
10
0.168178
20
1.3712
11
0.176575
21
1.36729
0
LINE
8
BLACK
6
CONTINUOUS
10
0.176575
20
1.36729
11
0.184164
21
1.36197
0
LINE
8
BLACK
6
CONTINUOUS
10
0.184164
20
1.36197
11
0.190715
21
1.35542
0
LINE
8
BLACK
6
CONTINUOUS
10
0.190715
20
1.35542
11
0.196029
21
1.34783
0
LINE
8
BLACK
6
CONTINUOUS
10
0.196029
20
1.34783
11
0.199944
21
1.33944
0
LINE
8
BLACK
6
CONTINUOUS
10
0.199944
20
1.33944
11
0.202342
21
1.33049
0
LINE
8
BLACK
6
CONTINUOUS
10
0.202342
20
1.33049
11
0.20315
21
1.32126
0
LINE
8
BLACK
6
CONTINUOUS
10
0.20315
20
1.32126
11
0.202342
21
1.31203
0
LINE
8
BLACK
6
CONTINUOUS
10
0.202342
20
1.31203
11
0.199944
21
1.30308
0
LINE
8
BLACK
6
CONTINUOUS
10
0.199944
20
1.30308
11
0.196029
21
1.29469
0
LINE
8
BLACK
6
CONTINUOUS
10
0.196029
20
1.29469
11
0.190715
21
1.2871
0
LINE
8
BLACK
6
CONTINUOUS
10
0.190715
20
1.2871
11
0.184164
21
1.28054
0
LINE
8
BLACK
6
CONTINUOUS
10
0.184164
20
1.28054
11
0.176575
21
1.27523
0
LINE
8
BLACK
6
CONTINUOUS
10
0.176575
20
1.27523
11
0.168178
21
1.27132
0
LINE
8
BLACK
6
CONTINUOUS
10
0.168178
20
1.27132
11
0.159229
21
1.26892
0
LINE
8
BLACK
6
CONTINUOUS
10
0.159229
20
1.26892
11
0.15
21
1.26811
0
LINE
8
BLACK
6
CONTINUOUS
10
0.15
20
1.26811
11
0.140771
21
1.26892
0
LINE
8
BLACK
6
CONTINUOUS
10
0.140771
20
1.26892
11
0.131822
21
1.27132
0
LINE
8
BLACK
6
CONTINUOUS
10
0.131822
20
1.27132
11
0.123425
21
1.27523
0
LINE
8
BLACK
6
CONTINUOUS
10
0.123425
20
1.27523
11
0.115836
21
1.28054
0
LINE
8
BLACK
6
CONTINUOUS
10
0.115836
20
1.28054
11
0.109285
21
1.2871
0
LINE
8
BLACK
6
CONTINUOUS
10
0.109285
20
1.2871
11
0.103971
21
1.29469
0
LINE
8
BLACK
6
CONTINUOUS
10
0.103971
20
1.29469
11
0.100056
21
1.30308
0
LINE
8
BLACK
6
CONTINUOUS
10
0.100056
20
1.30308
11
0.0976579
21
1.31203
0
LINE
8
BLACK
6
CONTINUOUS
10
0.0976579
20
1.31203
11
0.0968504
21
1.32126
0
LINE
8
BLACK
6
CONTINUOUS
10
0.0968504
20
1.32126
11
0.0976579
21
1.33049
0
LINE
8
BLACK
6
CONTINUOUS
10
0.0976579
20
1.33049
11
0.100056
21
1.33944
0
LINE
8
BLACK
6
CONTINUOUS
10
0.100056
20
1.33944
11
0.103971
21
1.34783
0
LINE
8
BLACK
6
CONTINUOUS
10
0.103971
20
1.34783
11
0.109285
21
1.35542
0
LINE
8
BLACK
6
CONTINUOUS
10
0.109285
20
1.35542
11
0.115836
21
1.36197
0
LINE
8
BLACK
6
CONTINUOUS
10
0.115836
20
1.36197
11
0.123425
21
1.36729
0
LINE
8
BLACK
6
CONTINUOUS
10
0.123425
20
1.36729
11
0.131822
21
1.3712
0
LINE
8
BLACK
6
CONTINUOUS
10
0.131822
20
1.3712
11
0.140771
21
1.3736
0
LINE
8
BLACK
6
CONTINUOUS
10
0.140771
20
1.3736
11
0.15
21
1.37441
0
LINE
8
BLACK
6
CONTINUOUS
10
0.15
20
1.37441
11
0.159229
21
1.3736
0
LINE
8
BLACK
6
CONTINUOUS
10
0.529134
20
1.32
11
0.469134
21
1.32
0
LINE
8
BLACK
6
CONTINUOUS
10
0.469134
20
1.32
11
0.469134
21
1.38
0
LINE
8
BLACK
6
CONTINUOUS
10
0.469134
20
1.38
11
0.529134
21
1.38
0
LINE
8
BLACK
6
CONTINUOUS
10
0.529134
20
1.38
11
0.529134
21
1.32
0
LINE
8
BLACK
6
CONTINUOUS
10
1.83692
20
1.42681
11
1.84011
21
1.42468
0
LINE
8
BLACK
6
CONTINUOUS
10
1.84011
20
1.42468
11
1.84224
21
1.42148
0
LINE
8
BLACK
6
CONTINUOUS
10
1.84224
20
1.42148
11
1.84299
21
1.41772
0
LINE
8
BLACK
6
CONTINUOUS
10
1.84299
20
1.41772
11
1.84299
21
1.38228
0
LINE
8
BLACK
6
CONTINUOUS
10
1.84299
20
1.38228
11
1.84224
21
1.37852
0
LINE
8
BLACK
6
CONTINUOUS
10
1.84224
20
1.37852
11
1.84011
21
1.37532
0
LINE
8
BLACK
6
CONTINUOUS
10
1.84011
20
1.37532
11
1.83692
21
1.37319
0
LINE
8
BLACK
6
CONTINUOUS
10
1.83692
20
1.37319
11
1.83315
21
1.37244
0
LINE
8
BLACK
6
CONTINUOUS
10
1.83315
20
1.37244
11
1.80559
21
1.37244
0
LINE
8
BLACK
6
CONTINUOUS
10
1.80559
20
1.37244
11
1.80182
21
1.37319
0
LINE
8
BLACK
6
CONTINUOUS
10
1.80182
20
1.37319
11
1.79863
21
1.37532
0
LINE
8
BLACK
6
CONTINUOUS
10
1.79863
20
1.37532
11
1.7965
21
1.37852
0
LINE
8
BLACK
6
CONTINUOUS
10
1.7965
20
1.37852
11
1.79575
21
1.38228
0
LINE
8
BLACK
6
CONTINUOUS
10
1.79575
20
1.38228
11
1.79575
21
1.41772
0
LINE
8
BLACK
6
CONTINUOUS
10
1.79575
20
1.41772
11
1.7965
21
1.42148
0
LINE
8
BLACK
6
CONTINUOUS
10
1.7965
20
1.42148
11
1.79863
21
1.42468
0
LINE
8
BLACK
6
CONTINUOUS
10
1.79863
20
1.42468
11
1.80182
21
1.42681
0
LINE
8
BLACK
6
CONTINUOUS
10
1.80182
20
1.42681
11
1.80559
21
1.42756
0
LINE
8
BLACK
6
CONTINUOUS
10
1.80559
20
1.42756
11
1.83315
21
1.42756
0
LINE
8
BLACK
6
CONTINUOUS
10
1.83315
20
1.42756
11
1.83692
21
1.42681
0
LINE
8
BLACK
6
CONTINUOUS
10
1.75818
20
1.42681
11
1.76137
21
1.42468
0
LINE
8
BLACK
6
CONTINUOUS
10
1.76137
20
1.42468
11
1.7635
21
1.42148
0
LINE
8
BLACK
6
CONTINUOUS
10
1.7635
20
1.42148
11
1.76425
21
1.41772
0
LINE
8
BLACK
6
CONTINUOUS
10
1.76425
20
1.41772
11
1.76425
21
1.38228
0
LINE
8
BLACK
6
CONTINUOUS
10
1.76425
20
1.38228
11
1.7635
21
1.37852
0
LINE
8
BLACK
6
CONTINUOUS
10
1.7635
20
1.37852
11
1.76137
21
1.37532
0
LINE
8
BLACK
6
CONTINUOUS
10
1.76137
20
1.37532
11
1.75818
21
1.37319
0
LINE
8
BLACK
6
CONTINUOUS
10
1.75818
20
1.37319
11
1.75441
21
1.37244
0
LINE
8
BLACK
6
CONTINUOUS
10
1.75441
20
1.37244
11
1.72685
21
1.37244
0
LINE
8
BLACK
6
CONTINUOUS
10
1.72685
20
1.37244
11
1.72308
21
1.37319
0
LINE
8
BLACK
6
CONTINUOUS
10
1.72308
20
1.37319
11
1.71989
21
1.37532
0
LINE
8
BLACK
6
CONTINUOUS
10
1.71989
20
1.37532
11
1.71776
21
1.37852
0
LINE
8
BLACK
6
CONTINUOUS
10
1.71776
20
1.37852
11
1.71701
21
1.38228
0
LINE
8
BLACK
6
CONTINUOUS
10
1.71701
20
1.38228
11
1.71701
21
1.41772
0
LINE
8
BLACK
6
CONTINUOUS
10
1.71701
20
1.41772
11
1.71776
21
1.42148
0
LINE
8
BLACK
6
CONTINUOUS
10
1.71776
20
1.42148
11
1.71989
21
1.42468
0
LINE
8
BLACK
6
CONTINUOUS
10
1.71989
20
1.42468
11
1.72308
21
1.42681
0
LINE
8
BLACK
6
CONTINUOUS
10
1.72308
20
1.42681
11
1.72685
21
1.42756
0
LINE
8
BLACK
6
CONTINUOUS
10
1.72685
20
1.42756
11
1.75441
21
1.42756
0
LINE
8
BLACK
6
CONTINUOUS
10
1.75441
20
1.42756
11
1.75818
21
1.42681
0
LINE
8
BLACK
6
CONTINUOUS
10
0.529134
20
1.42
11
0.469134
21
1.42
0
LINE
8
BLACK
6
CONTINUOUS
10
0.469134
20
1.42
11
0.469134
21
1.48
0
LINE
8
BLACK
6
CONTINUOUS
10
0.469134
20
1.48
11
0.529134
21
1.48
0
LINE
8
BLACK
6
CONTINUOUS
10
0.529134
20
1.48
11
0.529134
21
1.42
0
LINE
8
BLACK
6
CONTINUOUS
10
0.159229
20
1.53108
11
0.168178
21
1.52868
0
LINE
8
BLACK
6
CONTINUOUS
10
0.168178
20
1.52868
11
0.176575
21
1.52477
0
LINE
8
BLACK
6
CONTINUOUS
10
0.176575
20
1.52477
11
0.184164
21
1.51946
0
LINE
8
BLACK
6
CONTINUOUS
10
0.184164
20
1.51946
11
0.190715
21
1.5129
0
LINE
8
BLACK
6
CONTINUOUS
10
0.190715
20
1.5129
11
0.196029
21
1.50531
0
LINE
8
BLACK
6
CONTINUOUS
10
0.196029
20
1.50531
11
0.199944
21
1.49692
0
LINE
8
BLACK
6
CONTINUOUS
10
0.199944
20
1.49692
11
0.202342
21
1.48797
0
LINE
8
BLACK
6
CONTINUOUS
10
0.202342
20
1.48797
11
0.20315
21
1.47874
0
LINE
8
BLACK
6
CONTINUOUS
10
0.20315
20
1.47874
11
0.202342
21
1.46951
0
LINE
8
BLACK
6
CONTINUOUS
10
0.202342
20
1.46951
11
0.199944
21
1.46056
0
LINE
8
BLACK
6
CONTINUOUS
10
0.199944
20
1.46056
11
0.196029
21
1.45217
0
LINE
8
BLACK
6
CONTINUOUS
10
0.196029
20
1.45217
11
0.190715
21
1.44458
0
LINE
8
BLACK
6
CONTINUOUS
10
0.190715
20
1.44458
11
0.184164
21
1.43803
0
LINE
8
BLACK
6
CONTINUOUS
10
0.184164
20
1.43803
11
0.176575
21
1.43271
0
LINE
8
BLACK
6
CONTINUOUS
10
0.176575
20
1.43271
11
0.168178
21
1.4288
0
LINE
8
BLACK
6
CONTINUOUS
10
0.168178
20
1.4288
11
0.159229
21
1.4264
0
LINE
8
BLACK
6
CONTINUOUS
10
0.159229
20
1.4264
11
0.15
21
1.42559
0
LINE
8
BLACK
6
CONTINUOUS
10
0.15
20
1.42559
11
0.140771
21
1.4264
0
LINE
8
BLACK
6
CONTINUOUS
10
0.140771
20
1.4264
11
0.131822
21
1.4288
0
LINE
8
BLACK
6
CONTINUOUS
10
0.131822
20
1.4288
11
0.123425
21
1.43271
0
LINE
8
BLACK
6
CONTINUOUS
10
0.123425
20
1.43271
11
0.115836
21
1.43803
0
LINE
8
BLACK
6
CONTINUOUS
10
0.115836
20
1.43803
11
0.109285
21
1.44458
0
LINE
8
BLACK
6
CONTINUOUS
10
0.109285
20
1.44458
11
0.103971
21
1.45217
0
LINE
8
BLACK
6
CONTINUOUS
10
0.103971
20
1.45217
11
0.100056
21
1.46056
0
LINE
8
BLACK
6
CONTINUOUS
10
0.100056
20
1.46056
11
0.0976579
21
1.46951
0
LINE
8
BLACK
6
CONTINUOUS
10
0.0976579
20
1.46951
11
0.0968504
21
1.47874
0
LINE
8
BLACK
6
CONTINUOUS
10
0.0968504
20
1.47874
11
0.0976579
21
1.48797
0
LINE
8
BLACK
6
CONTINUOUS
10
0.0976579
20
1.48797
11
0.100056
21
1.49692
0
LINE
8
BLACK
6
CONTINUOUS
10
0.100056
20
1.49692
11
0.103971
21
1.50531
0
LINE
8
BLACK
6
CONTINUOUS
10
0.103971
20
1.50531
11
0.109285
21
1.5129
0
LINE
8
BLACK
6
CONTINUOUS
10
0.109285
20
1.5129
11
0.115836
21
1.51946
0
LINE
8
BLACK
6
CONTINUOUS
10
0.115836
20
1.51946
11
0.123425
21
1.52477
0
LINE
8
BLACK
6
CONTINUOUS
10
0.123425
20
1.52477
11
0.131822
21
1.52868
0
LINE
8
BLACK
6
CONTINUOUS
10
0.131822
20
1.52868
11
0.140771
21
1.53108
0
LINE
8
BLACK
6
CONTINUOUS
10
0.140771
20
1.53108
11
0.15
21
1.53189
0
LINE
8
BLACK
6
CONTINUOUS
10
0.15
20
1.53189
11
0.159229
21
1.53108
0
LINE
8
BLACK
6
CONTINUOUS
10
0.529134
20
1.52
11
0.469134
21
1.52
0
LINE
8
BLACK
6
CONTINUOUS
10
0.469134
20
1.52
11
0.469134
21
1.58
0
LINE
8
BLACK
6
CONTINUOUS
10
0.469134
20
1.58
11
0.529134
21
1.58
0
LINE
8
BLACK
6
CONTINUOUS
10
0.529134
20
1.58
11
0.529134
21
1.52
0
LINE
8
BLACK
6
CONTINUOUS
10
0.159229
20
1.68856
11
0.168178
21
1.68616
0
LINE
8
BLACK
6
CONTINUOUS
10
0.168178
20
1.68616
11
0.176575
21
1.68225
0
LINE
8
BLACK
6
CONTINUOUS
10
0.176575
20
1.68225
11
0.184164
21
1.67694
0
LINE
8
BLACK
6
CONTINUOUS
10
0.184164
20
1.67694
11
0.190715
21
1.67038
0
LINE
8
BLACK
6
CONTINUOUS
10
0.190715
20
1.67038
11
0.196029
21
1.6628
0
LINE
8
BLACK
6
CONTINUOUS
10
0.196029
20
1.6628
11
0.199944
21
1.6544
0
LINE
8
BLACK
6
CONTINUOUS
10
0.199944
20
1.6544
11
0.202342
21
1.64545
0
LINE
8
BLACK
6
CONTINUOUS
10
0.202342
20
1.64545
11
0.20315
21
1.63622
0
LINE
8
BLACK
6
CONTINUOUS
10
0.20315
20
1.63622
11
0.202342
21
1.62699
0
LINE
8
BLACK
6
CONTINUOUS
10
0.202342
20
1.62699
11
0.199944
21
1.61804
0
LINE
8
BLACK
6
CONTINUOUS
10
0.199944
20
1.61804
11
0.196029
21
1.60965
0
LINE
8
BLACK
6
CONTINUOUS
10
0.196029
20
1.60965
11
0.190715
21
1.60206
0
LINE
8
BLACK
6
CONTINUOUS
10
0.190715
20
1.60206
11
0.184164
21
1.59551
0
LINE
8
BLACK
6
CONTINUOUS
10
0.184164
20
1.59551
11
0.176575
21
1.59019
0
LINE
8
BLACK
6
CONTINUOUS
10
0.176575
20
1.59019
11
0.168178
21
1.58628
0
LINE
8
BLACK
6
CONTINUOUS
10
0.168178
20
1.58628
11
0.159229
21
1.58388
0
LINE
8
BLACK
6
CONTINUOUS
10
0.159229
20
1.58388
11
0.15
21
1.58307
0
LINE
8
BLACK
6
CONTINUOUS
10
0.15
20
1.58307
11
0.140771
21
1.58388
0
LINE
8
BLACK
6
CONTINUOUS
10
0.140771
20
1.58388
11
0.131822
21
1.58628
0
LINE
8
BLACK
6
CONTINUOUS
10
0.131822
20
1.58628
11
0.123425
21
1.59019
0
LINE
8
BLACK
6
CONTINUOUS
10
0.123425
20
1.59019
11
0.115836
21
1.59551
0
LINE
8
BLACK
6
CONTINUOUS
10
0.115836
20
1.59551
11
0.109285
21
1.60206
0
LINE
8
BLACK
6
CONTINUOUS
10
0.109285
20
1.60206
11
0.103971
21
1.60965
0
LINE
8
BLACK
6
CONTINUOUS
10
0.103971
20
1.60965
11
0.100056
21
1.61804
0
LINE
8
BLACK
6
CONTINUOUS
10
0.100056
20
1.61804
11
0.0976579
21
1.62699
0
LINE
8
BLACK
6
CONTINUOUS
10
0.0976579
20
1.62699
11
0.0968504
21
1.63622
0
LINE
8
BLACK
6
CONTINUOUS
10
0.0968504
20
1.63622
11
0.0976579
21
1.64545
0
LINE
8
BLACK
6
CONTINUOUS
10
0.0976579
20
1.64545
11
0.100056
21
1.6544
0
LINE
8
BLACK
6
CONTINUOUS
10
0.100056
20
1.6544
11
0.103971
21
1.6628
0
LINE
8
BLACK
6
CONTINUOUS
10
0.103971
20
1.6628
11
0.109285
21
1.67038
0
LINE
8
BLACK
6
CONTINUOUS
10
0.109285
20
1.67038
11
0.115836
21
1.67694
0
LINE
8
BLACK
6
CONTINUOUS
10
0.115836
20
1.67694
11
0.123425
21
1.68225
0
LINE
8
BLACK
6
CONTINUOUS
10
0.123425
20
1.68225
11
0.131822
21
1.68616
0
LINE
8
BLACK
6
CONTINUOUS
10
0.131822
20
1.68616
11
0.140771
21
1.68856
0
LINE
8
BLACK
6
CONTINUOUS
10
0.140771
20
1.68856
11
0.15
21
1.68937
0
LINE
8
BLACK
6
CONTINUOUS
10
0.15
20
1.68937
11
0.159229
21
1.68856
0
LINE
8
BLACK
6
CONTINUOUS
10
0.159229
20
1.84604
11
0.168178
21
1.84365
0
LINE
8
BLACK
6
CONTINUOUS
10
0.168178
20
1.84365
11
0.176575
21
1.83973
0
LINE
8
BLACK
6
CONTINUOUS
10
0.176575
20
1.83973
11
0.184164
21
1.83442
0
LINE
8
BLACK
6
CONTINUOUS
10
0.184164
20
1.83442
11
0.190715
21
1.82786
0
LINE
8
BLACK
6
CONTINUOUS
10
0.190715
20
1.82786
11
0.196029
21
1.82028
0
LINE
8
BLACK
6
CONTINUOUS
10
0.196029
20
1.82028
11
0.199944
21
1.81188
0
LINE
8
BLACK
6
CONTINUOUS
10
0.199944
20
1.81188
11
0.202342
21
1.80293
0
LINE
8
BLACK
6
CONTINUOUS
10
0.202342
20
1.80293
11
0.20315
21
1.7937
0
LINE
8
BLACK
6
CONTINUOUS
10
0.20315
20
1.7937
11
0.202342
21
1.78447
0
LINE
8
BLACK
6
CONTINUOUS
10
0.202342
20
1.78447
11
0.199944
21
1.77552
0
LINE
8
BLACK
6
CONTINUOUS
10
0.199944
20
1.77552
11
0.196029
21
1.76713
0
LINE
8
BLACK
6
CONTINUOUS
10
0.196029
20
1.76713
11
0.190715
21
1.75954
0
LINE
8
BLACK
6
CONTINUOUS
10
0.190715
20
1.75954
11
0.184164
21
1.75299
0
LINE
8
BLACK
6
CONTINUOUS
10
0.184164
20
1.75299
11
0.176575
21
1.74767
0
LINE
8
BLACK
6
CONTINUOUS
10
0.176575
20
1.74767
11
0.168178
21
1.74376
0
LINE
8
BLACK
6
CONTINUOUS
10
0.168178
20
1.74376
11
0.159229
21
1.74136
0
LINE
8
BLACK
6
CONTINUOUS
10
0.159229
20
1.74136
11
0.15
21
1.74055
0
LINE
8
BLACK
6
CONTINUOUS
10
0.15
20
1.74055
11
0.140771
21
1.74136
0
LINE
8
BLACK
6
CONTINUOUS
10
0.140771
20
1.74136
11
0.131822
21
1.74376
0
LINE
8
BLACK
6
CONTINUOUS
10
0.131822
20
1.74376
11
0.123425
21
1.74767
0
LINE
8
BLACK
6
CONTINUOUS
10
0.123425
20
1.74767
11
0.115836
21
1.75299
0
LINE
8
BLACK
6
CONTINUOUS
10
0.115836
20
1.75299
11
0.109285
21
1.75954
0
LINE
8
BLACK
6
CONTINUOUS
10
0.109285
20
1.75954
11
0.103971
21
1.76713
0
LINE
8
BLACK
6
CONTINUOUS
10
0.103971
20
1.76713
11
0.100056
21
1.77552
0
LINE
8
BLACK
6
CONTINUOUS
10
0.100056
20
1.77552
11
0.0976579
21
1.78447
0
LINE
8
BLACK
6
CONTINUOUS
10
0.0976579
20
1.78447
11
0.0968504
21
1.7937
0
LINE
8
BLACK
6
CONTINUOUS
10
0.0968504
20
1.7937
11
0.0976579
21
1.80293
0
LINE
8
BLACK
6
CONTINUOUS
10
0.0976579
20
1.80293
11
0.100056
21
1.81188
0
LINE
8
BLACK
6
CONTINUOUS
10
0.100056
20
1.81188
11
0.103971
21
1.82028
0
LINE
8
BLACK
6
CONTINUOUS
10
0.103971
20
1.82028
11
0.109285
21
1.82786
0
LINE
8
BLACK
6
CONTINUOUS
10
0.109285
20
1.82786
11
0.115836
21
1.83442
0
LINE
8
BLACK
6
CONTINUOUS
10
0.115836
20
1.83442
11
0.123425
21
1.83973
0
LINE
8
BLACK
6
CONTINUOUS
10
0.123425
20
1.83973
11
0.131822
21
1.84365
0
LINE
8
BLACK
6
CONTINUOUS
10
0.131822
20
1.84365
11
0.140771
21
1.84604
0
LINE
8
BLACK
6
CONTINUOUS
10
0.140771
20
1.84604
11
0.15
21
1.84685
0
LINE
8
BLACK
6
CONTINUOUS
10
0.15
20
1.84685
11
0.159229
21
1.84604
0
LINE
8
BLACK
6
CONTINUOUS
10
2.26622
20
1.82054
11
2.26936
21
1.81791
0
LINE
8
BLACK
6
CONTINUOUS
10
2.26936
20
1.81791
11
2.27141
21
1.81435
0
LINE
8
BLACK
6
CONTINUOUS
10
2.27141
20
1.81435
11
2.27213
21
1.81031
0
LINE
8
BLACK
6
CONTINUOUS
10
2.27213
20
1.81031
11
2.27141
21
1.80628
0
LINE
8
BLACK
6
CONTINUOUS
10
2.27141
20
1.80628
11
2.26936
21
1.80272
0
LINE
8
BLACK
6
CONTINUOUS
10
2.26936
20
1.80272
11
2.26622
21
1.80009
0
LINE
8
BLACK
6
CONTINUOUS
10
2.26622
20
1.80009
11
2.26237
21
1.79868
0
LINE
8
BLACK
6
CONTINUOUS
10
2.26237
20
1.79868
11
2.25826
21
1.79868
0
LINE
8
BLACK
6
CONTINUOUS
10
2.25826
20
1.79868
11
2.25441
21
1.80009
0
LINE
8
BLACK
6
CONTINUOUS
10
2.25441
20
1.80009
11
2.25127
21
1.80272
0
LINE
8
BLACK
6
CONTINUOUS
10
2.25127
20
1.80272
11
2.24922
21
1.80628
0
LINE
8
BLACK
6
CONTINUOUS
10
2.24922
20
1.80628
11
2.2485
21
1.81031
0
LINE
8
BLACK
6
CONTINUOUS
10
2.2485
20
1.81031
11
2.24922
21
1.81435
0
LINE
8
BLACK
6
CONTINUOUS
10
2.24922
20
1.81435
11
2.25127
21
1.81791
0
LINE
8
BLACK
6
CONTINUOUS
10
2.25127
20
1.81791
11
2.25441
21
1.82054
0
LINE
8
BLACK
6
CONTINUOUS
10
2.25441
20
1.82054
11
2.25826
21
1.82195
0
LINE
8
BLACK
6
CONTINUOUS
10
2.25826
20
1.82195
11
2.26237
21
1.82195
0
LINE
8
BLACK
6
CONTINUOUS
10
2.26237
20
1.82195
11
2.26622
21
1.82054
0
LINE
8
BLACK
6
CONTINUOUS
10
2.30559
20
1.82054
11
2.30873
21
1.81791
0
LINE
8
BLACK
6
CONTINUOUS
10
2.30873
20
1.81791
11
2.31078
21
1.81435
0
LINE
8
BLACK
6
CONTINUOUS
10
2.31078
20
1.81435
11
2.3115
21
1.81031
0
LINE
8
BLACK
6
CONTINUOUS
10
2.3115
20
1.81031
11
2.31078
21
1.80628
0
LINE
8
BLACK
6
CONTINUOUS
10
2.31078
20
1.80628
11
2.30873
21
1.80272
0
LINE
8
BLACK
6
CONTINUOUS
10
2.30873
20
1.80272
11
2.30559
21
1.80009
0
LINE
8
BLACK
6
CONTINUOUS
10
2.30559
20
1.80009
11
2.30174
21
1.79868
0
LINE
8
BLACK
6
CONTINUOUS
10
2.30174
20
1.79868
11
2.29763
21
1.79868
0
LINE
8
BLACK
6
CONTINUOUS
10
2.29763
20
1.79868
11
2.29378
21
1.80009
0
LINE
8
BLACK
6
CONTINUOUS
10
2.29378
20
1.80009
11
2.29064
21
1.80272
0
LINE
8
BLACK
6
CONTINUOUS
10
2.29064
20
1.80272
11
2.28859
21
1.80628
0
LINE
8
BLACK
6
CONTINUOUS
10
2.28859
20
1.80628
11
2.28787
21
1.81031
0
LINE
8
BLACK
6
CONTINUOUS
10
2.28787
20
1.81031
11
2.28859
21
1.81435
0
LINE
8
BLACK
6
CONTINUOUS
10
2.28859
20
1.81435
11
2.29064
21
1.81791
0
LINE
8
BLACK
6
CONTINUOUS
10
2.29064
20
1.81791
11
2.29378
21
1.82054
0
LINE
8
BLACK
6
CONTINUOUS
10
2.29378
20
1.82054
11
2.29763
21
1.82195
0
LINE
8
BLACK
6
CONTINUOUS
10
2.29763
20
1.82195
11
2.30174
21
1.82195
0
LINE
8
BLACK
6
CONTINUOUS
10
2.30174
20
1.82195
11
2.30559
21
1.82054
0
LINE
8
BLACK
6
CONTINUOUS
10
2.28591
20
1.84023
11
2.28905
21
1.83759
0
LINE
8
BLACK
6
CONTINUOUS
10
2.28905
20
1.83759
11
2.2911
21
1.83404
0
LINE
8
BLACK
6
CONTINUOUS
10
2.2911
20
1.83404
11
2.29181
21
1.83
0
LINE
8
BLACK
6
CONTINUOUS
10
2.29181
20
1.83
11
2.2911
21
1.82596
0
LINE
8
BLACK
6
CONTINUOUS
10
2.2911
20
1.82596
11
2.28905
21
1.82241
0
LINE
8
BLACK
6
CONTINUOUS
10
2.28905
20
1.82241
11
2.28591
21
1.81977
0
LINE
8
BLACK
6
CONTINUOUS
10
2.28591
20
1.81977
11
2.28205
21
1.81837
0
LINE
8
BLACK
6
CONTINUOUS
10
2.28205
20
1.81837
11
2.27795
21
1.81837
0
LINE
8
BLACK
6
CONTINUOUS
10
2.27795
20
1.81837
11
2.27409
21
1.81977
0
LINE
8
BLACK
6
CONTINUOUS
10
2.27409
20
1.81977
11
2.27095
21
1.82241
0
LINE
8
BLACK
6
CONTINUOUS
10
2.27095
20
1.82241
11
2.2689
21
1.82596
0
LINE
8
BLACK
6
CONTINUOUS
10
2.2689
20
1.82596
11
2.26819
21
1.83
0
LINE
8
BLACK
6
CONTINUOUS
10
2.26819
20
1.83
11
2.2689
21
1.83404
0
LINE
8
BLACK
6
CONTINUOUS
10
2.2689
20
1.83404
11
2.27095
21
1.83759
0
LINE
8
BLACK
6
CONTINUOUS
10
2.27095
20
1.83759
11
2.27409
21
1.84023
0
LINE
8
BLACK
6
CONTINUOUS
10
2.27409
20
1.84023
11
2.27795
21
1.84163
0
LINE
8
BLACK
6
CONTINUOUS
10
2.27795
20
1.84163
11
2.28205
21
1.84163
0
LINE
8
BLACK
6
CONTINUOUS
10
2.28205
20
1.84163
11
2.28591
21
1.84023
0
LINE
8
BLACK
6
CONTINUOUS
10
2.26622
20
1.85991
11
2.26936
21
1.85728
0
LINE
8
BLACK
6
CONTINUOUS
10
2.26936
20
1.85728
11
2.27141
21
1.85372
0
LINE
8
BLACK
6
CONTINUOUS
10
2.27141
20
1.85372
11
2.27213
21
1.84969
0
LINE
8
BLACK
6
CONTINUOUS
10
2.27213
20
1.84969
11
2.27141
21
1.84565
0
LINE
8
BLACK
6
CONTINUOUS
10
2.27141
20
1.84565
11
2.26936
21
1.84209
0
LINE
8
BLACK
6
CONTINUOUS
10
2.26936
20
1.84209
11
2.26622
21
1.83946
0
LINE
8
BLACK
6
CONTINUOUS
10
2.26622
20
1.83946
11
2.26237
21
1.83805
0
LINE
8
BLACK
6
CONTINUOUS
10
2.26237
20
1.83805
11
2.25826
21
1.83805
0
LINE
8
BLACK
6
CONTINUOUS
10
2.25826
20
1.83805
11
2.25441
21
1.83946
0
LINE
8
BLACK
6
CONTINUOUS
10
2.25441
20
1.83946
11
2.25127
21
1.84209
0
LINE
8
BLACK
6
CONTINUOUS
10
2.25127
20
1.84209
11
2.24922
21
1.84565
0
LINE
8
BLACK
6
CONTINUOUS
10
2.24922
20
1.84565
11
2.2485
21
1.84969
0
LINE
8
BLACK
6
CONTINUOUS
10
2.2485
20
1.84969
11
2.24922
21
1.85372
0
LINE
8
BLACK
6
CONTINUOUS
10
2.24922
20
1.85372
11
2.25127
21
1.85728
0
LINE
8
BLACK
6
CONTINUOUS
10
2.25127
20
1.85728
11
2.25441
21
1.85991
0
LINE
8
BLACK
6
CONTINUOUS
10
2.25441
20
1.85991
11
2.25826
21
1.86132
0
LINE
8
BLACK
6
CONTINUOUS
10
2.25826
20
1.86132
11
2.26237
21
1.86132
0
LINE
8
BLACK
6
CONTINUOUS
10
2.26237
20
1.86132
11
2.26622
21
1.85991
0
LINE
8
BLACK
6
CONTINUOUS
10
2.30559
20
1.85991
11
2.30873
21
1.85728
0
LINE
8
BLACK
6
CONTINUOUS
10
2.30873
20
1.85728
11
2.31078
21
1.85372
0
LINE
8
BLACK
6
CONTINUOUS
10
2.31078
20
1.85372
11
2.3115
21
1.84969
0
LINE
8
BLACK
6
CONTINUOUS
10
2.3115
20
1.84969
11
2.31078
21
1.84565
0
LINE
8
BLACK
6
CONTINUOUS
10
2.31078
20
1.84565
11
2.30873
21
1.84209
0
LINE
8
BLACK
6
CONTINUOUS
10
2.30873
20
1.84209
11
2.30559
21
1.83946
0
LINE
8
BLACK
6
CONTINUOUS
10
2.30559
20
1.83946
11
2.30174
21
1.83805
0
LINE
8
BLACK
6
CONTINUOUS
10
2.30174
20
1.83805
11
2.29763
21
1.83805
0
LINE
8
BLACK
6
CONTINUOUS
10
2.29763
20
1.83805
11
2.29378
21
1.83946
0
LINE
8
BLACK
6
CONTINUOUS
10
2.29378
20
1.83946
11
2.29064
21
1.84209
0
LINE
8
BLACK
6
CONTINUOUS
10
2.29064
20
1.84209
11
2.28859
21
1.84565
0
LINE
8
BLACK
6
CONTINUOUS
10
2.28859
20
1.84565
11
2.28787
21
1.84969
0
LINE
8
BLACK
6
CONTINUOUS
10
2.28787
20
1.84969
11
2.28859
21
1.85372
0
LINE
8
BLACK
6
CONTINUOUS
10
2.28859
20
1.85372
11
2.29064
21
1.85728
0
LINE
8
BLACK
6
CONTINUOUS
10
2.29064
20
1.85728
11
2.29378
21
1.85991
0
LINE
8
BLACK
6
CONTINUOUS
10
2.29378
20
1.85991
11
2.29763
21
1.86132
0
LINE
8
BLACK
6
CONTINUOUS
10
2.29763
20
1.86132
11
2.30174
21
1.86132
0
LINE
8
BLACK
6
CONTINUOUS
10
2.30174
20
1.86132
11
2.30559
21
1.85991
0
LINE
8
BLACK
6
CONTINUOUS
10
0.159229
20
2.00352
11
0.168178
21
2.00113
0
LINE
8
BLACK
6
CONTINUOUS
10
0.168178
20
2.00113
11
0.176575
21
1.99721
0
LINE
8
BLACK
6
CONTINUOUS
10
0.176575
20
1.99721
11
0.184164
21
1.9919
0
LINE
8
BLACK
6
CONTINUOUS
10
0.184164
20
1.9919
11
0.190715
21
1.98534
0
LINE
8
BLACK
6
CONTINUOUS
10
0.190715
20
1.98534
11
0.196029
21
1.97776
0
LINE
8
BLACK
6
CONTINUOUS
10
0.196029
20
1.97776
11
0.199944
21
1.96936
0
LINE
8
BLACK
6
CONTINUOUS
10
0.199944
20
1.96936
11
0.202342
21
1.96041
0
LINE
8
BLACK
6
CONTINUOUS
10
0.202342
20
1.96041
11
0.20315
21
1.95118
0
LINE
8
BLACK
6
CONTINUOUS
10
0.20315
20
1.95118
11
0.202342
21
1.94195
0
LINE
8
BLACK
6
CONTINUOUS
10
0.202342
20
1.94195
11
0.199944
21
1.933
0
LINE
8
BLACK
6
CONTINUOUS
10
0.199944
20
1.933
11
0.196029
21
1.92461
0
LINE
8
BLACK
6
CONTINUOUS
10
0.196029
20
1.92461
11
0.190715
21
1.91702
0
LINE
8
BLACK
6
CONTINUOUS
10
0.190715
20
1.91702
11
0.184164
21
1.91047
0
LINE
8
BLACK
6
CONTINUOUS
10
0.184164
20
1.91047
11
0.176575
21
1.90515
0
LINE
8
BLACK
6
CONTINUOUS
10
0.176575
20
1.90515
11
0.168178
21
1.90124
0
LINE
8
BLACK
6
CONTINUOUS
10
0.168178
20
1.90124
11
0.159229
21
1.89884
0
LINE
8
BLACK
6
CONTINUOUS
10
0.159229
20
1.89884
11
0.15
21
1.89803
0
LINE
8
BLACK
6
CONTINUOUS
10
0.15
20
1.89803
11
0.140771
21
1.89884
0
LINE
8
BLACK
6
CONTINUOUS
10
0.140771
20
1.89884
11
0.131822
21
1.90124
0
LINE
8
BLACK
6
CONTINUOUS
10
0.131822
20
1.90124
11
0.123425
21
1.90515
0
LINE
8
BLACK
6
CONTINUOUS
10
0.123425
20
1.90515
11
0.115836
21
1.91047
0
LINE
8
BLACK
6
CONTINUOUS
10
0.115836
20
1.91047
11
0.109285
21
1.91702
0
LINE
8
BLACK
6
CONTINUOUS
10
0.109285
20
1.91702
11
0.103971
21
1.92461
0
LINE
8
BLACK
6
CONTINUOUS
10
0.103971
20
1.92461
11
0.100056
21
1.933
0
LINE
8
BLACK
6
CONTINUOUS
10
0.100056
20
1.933
11
0.0976579
21
1.94195
0
LINE
8
BLACK
6
CONTINUOUS
10
0.0976579
20
1.94195
11
0.0968504
21
1.95118
0
LINE
8
BLACK
6
CONTINUOUS
10
0.0968504
20
1.95118
11
0.0976579
21
1.96041
0
LINE
8
BLACK
6
CONTINUOUS
10
0.0976579
20
1.96041
11
0.100056
21
1.96936
0
LINE
8
BLACK
6
CONTINUOUS
10
0.100056
20
1.96936
11
0.103971
21
1.97776
0
LINE
8
BLACK
6
CONTINUOUS
10
0.103971
20
1.97776
11
0.109285
21
1.98534
0
LINE
8
BLACK
6
CONTINUOUS
10
0.109285
20
1.98534
11
0.115836
21
1.9919
0
LINE
8
BLACK
6
CONTINUOUS
10
0.115836
20
1.9919
11
0.123425
21
1.99721
0
LINE
8
BLACK
6
CONTINUOUS
10
0.123425
20
1.99721
11
0.131822
21
2.00113
0
LINE
8
BLACK
6
CONTINUOUS
10
0.131822
20
2.00113
11
0.140771
21
2.00352
0
LINE
8
BLACK
6
CONTINUOUS
10
0.140771
20
2.00352
11
0.15
21
2.00433
0
LINE
8
BLACK
6
CONTINUOUS
10
0.15
20
2.00433
11
0.159229
21
2.00352
0
LINE
8
BLACK
6
CONTINUOUS
10
0.20865
20
2.71779
11
0.222132
21
2.71602
0
LINE
8
BLACK
6
CONTINUOUS
10
0.222132
20
2.71602
11
0.23532
21
2.71271
0
LINE
8
BLACK
6
CONTINUOUS
10
0.23532
20
2.71271
11
0.24804
21
2.7079
0
LINE
8
BLACK
6
CONTINUOUS
10
0.24804
20
2.7079
11
0.260123
21
2.70166
0
LINE
8
BLACK
6
CONTINUOUS
10
0.260123
20
2.70166
11
0.271409
21
2.69408
0
LINE
8
BLACK
6
CONTINUOUS
10
0.271409
20
2.69408
11
0.281749
21
2.68525
0
LINE
8
BLACK
6
CONTINUOUS
10
0.281749
20
2.68525
11
0.291006
21
2.67529
0
LINE
8
BLACK
6
CONTINUOUS
10
0.291006
20
2.67529
11
0.299056
21
2.66433
0
LINE
8
BLACK
6
CONTINUOUS
10
0.299056
20
2.66433
11
0.305793
21
2.65252
0
LINE
8
BLACK
6
CONTINUOUS
10
0.305793
20
2.65252
11
0.311128
21
2.64001
0
LINE
8
BLACK
6
CONTINUOUS
10
0.311128
20
2.64001
11
0.31499
21
2.62697
0
LINE
8
BLACK
6
CONTINUOUS
10
0.31499
20
2.62697
11
0.317327
21
2.61358
0
LINE
8
BLACK
6
CONTINUOUS
10
0.317327
20
2.61358
11
0.31811
21
2.6
0
LINE
8
BLACK
6
CONTINUOUS
10
0.31811
20
2.6
11
0.317877
21
2.59258
0
LINE
8
BLACK
6
CONTINUOUS
10
0.317877
20
2.59258
11
0.31775
21
2.59154
0
LINE
8
BLACK
6
CONTINUOUS
10
0.31775
20
2.59154
11
0.45
21
2.59154
0
LINE
8
BLACK
6
CONTINUOUS
10
0.45
20
2.59154
11
0.45
21
2.15846
0
LINE
8
BLACK
6
CONTINUOUS
10
0.45
20
2.15846
11
0.308268
21
2.15846
0
LINE
8
BLACK
6
CONTINUOUS
10
0.308268
20
2.15846
11
0.308268
21
2.55284
0
LINE
8
BLACK
6
CONTINUOUS
10
0.308268
20
2.55284
11
0.302286
21
2.54094
0
LINE
8
BLACK
6
CONTINUOUS
10
0.302286
20
2.54094
11
0.294821
21
2.52958
0
LINE
8
BLACK
6
CONTINUOUS
10
0.294821
20
2.52958
11
0.286099
21
2.51915
0
LINE
8
BLACK
6
CONTINUOUS
10
0.286099
20
2.51915
11
0.276235
21
2.50979
0
LINE
8
BLACK
6
CONTINUOUS
10
0.276235
20
2.50979
11
0.265361
21
2.50162
0
LINE
8
BLACK
6
CONTINUOUS
10
0.265361
20
2.50162
11
0.253621
21
2.49476
0
LINE
8
BLACK
6
CONTINUOUS
10
0.253621
20
2.49476
11
0.24117
21
2.4893
0
LINE
8
BLACK
6
CONTINUOUS
10
0.24117
20
2.4893
11
0.228173
21
2.4853
0
LINE
8
BLACK
6
CONTINUOUS
10
0.228173
20
2.4853
11
0.214803
21
2.48282
0
LINE
8
BLACK
6
CONTINUOUS
10
0.214803
20
2.48282
11
0.201237
21
2.4819
0
LINE
8
BLACK
6
CONTINUOUS
10
0.201237
20
2.4819
11
0.187654
21
2.48254
0
LINE
8
BLACK
6
CONTINUOUS
10
0.187654
20
2.48254
11
0.174235
21
2.48473
0
LINE
8
BLACK
6
CONTINUOUS
10
0.174235
20
2.48473
11
0.161157
21
2.48846
0
LINE
8
BLACK
6
CONTINUOUS
10
0.161157
20
2.48846
11
0.148595
21
2.49366
0
LINE
8
BLACK
6
CONTINUOUS
10
0.148595
20
2.49366
11
0.136713
21
2.50028
0
LINE
8
BLACK
6
CONTINUOUS
10
0.136713
20
2.50028
11
0.125671
21
2.50821
0
LINE
8
BLACK
6
CONTINUOUS
10
0.125671
20
2.50821
11
0.115613
21
2.51736
0
LINE
8
BLACK
6
CONTINUOUS
10
0.115613
20
2.51736
11
0.106675
21
2.52761
0
LINE
8
BLACK
6
CONTINUOUS
10
0.106675
20
2.52761
11
0.0989727
21
2.53882
0
LINE
8
BLACK
6
CONTINUOUS
10
0.0989727
20
2.53882
11
0.0926099
21
2.55083
0
LINE
8
BLACK
6
CONTINUOUS
10
0.0926099
20
2.55083
11
0.0876705
21
2.5635
0
LINE
8
BLACK
6
CONTINUOUS
10
0.0876705
20
2.5635
11
0.0842199
21
2.57665
0
LINE
8
BLACK
6
CONTINUOUS
10
0.0842199
20
2.57665
11
0.082304
21
2.59012
0
LINE
8
BLACK
6
CONTINUOUS
10
0.082304
20
2.59012
11
0.081948
21
2.60371
0
LINE
8
BLACK
6
CONTINUOUS
10
0.081948
20
2.60371
11
0.0831568
21
2.61725
0
LINE
8
BLACK
6
CONTINUOUS
10
0.0831568
20
2.61725
11
0.0859143
21
2.63057
0
LINE
8
BLACK
6
CONTINUOUS
10
0.0859143
20
2.63057
11
0.0901839
21
2.64348
0
LINE
8
BLACK
6
CONTINUOUS
10
0.0901839
20
2.64348
11
0.0959091
21
2.65581
0
LINE
8
BLACK
6
CONTINUOUS
10
0.0959091
20
2.65581
11
0.103014
21
2.66741
0
LINE
8
BLACK
6
CONTINUOUS
10
0.103014
20
2.66741
11
0.111404
21
2.67811
0
LINE
8
BLACK
6
CONTINUOUS
10
0.111404
20
2.67811
11
0.120969
21
2.68777
0
LINE
8
BLACK
6
CONTINUOUS
10
0.120969
20
2.68777
11
0.131581
21
2.69627
0
LINE
8
BLACK
6
CONTINUOUS
10
0.131581
20
2.69627
11
0.1431
21
2.7035
0
LINE
8
BLACK
6
CONTINUOUS
10
0.1431
20
2.7035
11
0.155373
21
2.70935
0
LINE
8
BLACK
6
CONTINUOUS
10
0.155373
20
2.70935
11
0.168238
21
2.71376
0
LINE
8
BLACK
6
CONTINUOUS
10
0.168238
20
2.71376
11
0.181524
21
2.71666
0
LINE
8
BLACK
6
CONTINUOUS
10
0.181524
20
2.71666
11
0.195054
21
2.71801
0
LINE
8
BLACK
6
CONTINUOUS
10
0.195054
20
2.71801
11
0.20865
21
2.71779
0
LINE
8
BLACK
6
CONTINUOUS
10
2.69193
20
2.15846
11
2.41634
21
2.15846
0
LINE
8
BLACK
6
CONTINUOUS
10
2.41634
20
2.15846
11
2.41634
21
2.59154
0
LINE
8
BLACK
6
CONTINUOUS
10
2.41634
20
2.59154
11
2.69193
21
2.59154
0
LINE
8
BLACK
6
CONTINUOUS
10
2.69193
20
2.59154
11
2.69193
21
2.15846
0
LINE
8
BLACK
6
CONTINUOUS
10
2.77717
20
2.18378
11
2.71717
21
2.18378
0
LINE
8
BLACK
6
CONTINUOUS
10
2.71717
20
2.18378
11
2.71717
21
2.24378
0
LINE
8
BLACK
6
CONTINUOUS
10
2.71717
20
2.24378
11
2.77717
21
2.24378
0
LINE
8
BLACK
6
CONTINUOUS
10
2.77717
20
2.24378
11
2.77717
21
2.18378
0
LINE
8
BLACK
6
CONTINUOUS
10
0.529134
20
2.18378
11
0.469134
21
2.18378
0
LINE
8
BLACK
6
CONTINUOUS
10
0.469134
20
2.18378
11
0.469134
21
2.24378
0
LINE
8
BLACK
6
CONTINUOUS
10
0.469134
20
2.24378
11
0.529134
21
2.24378
0
LINE
8
BLACK
6
CONTINUOUS
10
0.529134
20
2.24378
11
0.529134
21
2.18378
0
LINE
8
BLACK
6
CONTINUOUS
10
0.529134
20
2.28378
11
0.469134
21
2.28378
0
LINE
8
BLACK
6
CONTINUOUS
10
0.469134
20
2.28378
11
0.469134
21
2.34378
0
LINE
8
BLACK
6
CONTINUOUS
10
0.469134
20
2.34378
11
0.529134
21
2.34378
0
LINE
8
BLACK
6
CONTINUOUS
10
0.529134
20
2.34378
11
0.529134
21
2.28378
0
LINE
8
BLACK
6
CONTINUOUS
10
2.77717
20
2.28378
11
2.71717
21
2.28378
0
LINE
8
BLACK
6
CONTINUOUS
10
2.71717
20
2.28378
11
2.71717
21
2.34378
0
LINE
8
BLACK
6
CONTINUOUS
10
2.71717
20
2.34378
11
2.77717
21
2.34378
0
LINE
8
BLACK
6
CONTINUOUS
10
2.77717
20
2.34378
11
2.77717
21
2.28378
0
LINE
8
BLACK
6
CONTINUOUS
10
1.99
20
2.335
11
1.93
21
2.335
0
LINE
8
BLACK
6
CONTINUOUS
10
1.93
20
2.335
11
1.93
21
2.395
0
LINE
8
BLACK
6
CONTINUOUS
10
1.93
20
2.395
11
1.99
21
2.395
0
LINE
8
BLACK
6
CONTINUOUS
10
1.99
20
2.395
11
1.99
21
2.335
0
LINE
8
BLACK
6
CONTINUOUS
10
2.09
20
2.335
11
2.03
21
2.335
0
LINE
8
BLACK
6
CONTINUOUS
10
2.03
20
2.335
11
2.03
21
2.395
0
LINE
8
BLACK
6
CONTINUOUS
10
2.03
20
2.395
11
2.09
21
2.395
0
LINE
8
BLACK
6
CONTINUOUS
10
2.09
20
2.395
11
2.09
21
2.335
0
LINE
8
BLACK
6
CONTINUOUS
10
2.19
20
2.335
11
2.13
21
2.335
0
LINE
8
BLACK
6
CONTINUOUS
10
2.13
20
2.335
11
2.13
21
2.395
0
LINE
8
BLACK
6
CONTINUOUS
10
2.13
20
2.395
11
2.19
21
2.395
0
LINE
8
BLACK
6
CONTINUOUS
10
2.19
20
2.395
11
2.19
21
2.335
0
LINE
8
BLACK
6
CONTINUOUS
10
0.529134
20
2.38378
11
0.469134
21
2.38378
0
LINE
8
BLACK
6
CONTINUOUS
10
0.469134
20
2.38378
11
0.469134
21
2.44378
0
LINE
8
BLACK
6
CONTINUOUS
10
0.469134
20
2.44378
11
0.529134
21
2.44378
0
LINE
8
BLACK
6
CONTINUOUS
10
0.529134
20
2.44378
11
0.529134
21
2.38378
0
LINE
8
BLACK
6
CONTINUOUS
10
2.77717
20
2.38378
11
2.71717
21
2.38378
0
LINE
8
BLACK
6
CONTINUOUS
10
2.71717
20
2.38378
11
2.71717
21
2.44378
0
LINE
8
BLACK
6
CONTINUOUS
10
2.71717
20
2.44378
11
2.77717
21
2.44378
0
LINE
8
BLACK
6
CONTINUOUS
10
2.77717
20
2.44378
11
2.77717
21
2.38378
0
LINE
8
BLACK
6
CONTINUOUS
10
0.789417
20
2.40798
11
0.723417
21
2.40798
0
LINE
8
BLACK
6
CONTINUOUS
10
0.723417
20
2.40798
11
0.723417
21
2.47398
0
LINE
8
BLACK
6
CONTINUOUS
10
0.723417
20
2.47398
11
0.789417
21
2.47398
0
LINE
8
BLACK
6
CONTINUOUS
10
0.789417
20
2.47398
11
0.789417
21
2.40798
0
LINE
8
BLACK
6
CONTINUOUS
10
0.966583
20
2.40798
11
0.900583
21
2.40798
0
LINE
8
BLACK
6
CONTINUOUS
10
0.900583
20
2.40798
11
0.900583
21
2.47398
0
LINE
8
BLACK
6
CONTINUOUS
10
0.900583
20
2.47398
11
0.966583
21
2.47398
0
LINE
8
BLACK
6
CONTINUOUS
10
0.966583
20
2.47398
11
0.966583
21
2.40798
0
LINE
8
BLACK
6
CONTINUOUS
10
1.99
20
2.435
11
1.93
21
2.435
0
LINE
8
BLACK
6
CONTINUOUS
10
1.93
20
2.435
11
1.93
21
2.495
0
LINE
8
BLACK
6
CONTINUOUS
10
1.93
20
2.495
11
1.99
21
2.495
0
LINE
8
BLACK
6
CONTINUOUS
10
1.99
20
2.495
11
1.99
21
2.435
0
LINE
8
BLACK
6
CONTINUOUS
10
2.09
20
2.435
11
2.03
21
2.435
0
LINE
8
BLACK
6
CONTINUOUS
10
2.03
20
2.435
11
2.03
21
2.495
0
LINE
8
BLACK
6
CONTINUOUS
10
2.03
20
2.495
11
2.09
21
2.495
0
LINE
8
BLACK
6
CONTINUOUS
10
2.09
20
2.495
11
2.09
21
2.435
0
LINE
8
BLACK
6
CONTINUOUS
10
2.19
20
2.435
11
2.13
21
2.435
0
LINE
8
BLACK
6
CONTINUOUS
10
2.13
20
2.435
11
2.13
21
2.495
0
LINE
8
BLACK
6
CONTINUOUS
10
2.13
20
2.495
11
2.19
21
2.495
0
LINE
8
BLACK
6
CONTINUOUS
10
2.19
20
2.495
11
2.19
21
2.435
0
LINE
8
BLACK
6
CONTINUOUS
10
3.00865
20
2.71779
11
3.02213
21
2.71602
0
LINE
8
BLACK
6
CONTINUOUS
10
3.02213
20
2.71602
11
3.03532
21
2.71271
0
LINE
8
BLACK
6
CONTINUOUS
10
3.03532
20
2.71271
11
3.04804
21
2.7079
0
LINE
8
BLACK
6
CONTINUOUS
10
3.04804
20
2.7079
11
3.06012
21
2.70166
0
LINE
8
BLACK
6
CONTINUOUS
10
3.06012
20
2.70166
11
3.07141
21
2.69408
0
LINE
8
BLACK
6
CONTINUOUS
10
3.07141
20
2.69408
11
3.08175
21
2.68525
0
LINE
8
BLACK
6
CONTINUOUS
10
3.08175
20
2.68525
11
3.09101
21
2.67529
0
LINE
8
BLACK
6
CONTINUOUS
10
3.09101
20
2.67529
11
3.09906
21
2.66433
0
LINE
8
BLACK
6
CONTINUOUS
10
3.09906
20
2.66433
11
3.10579
21
2.65252
0
LINE
8
BLACK
6
CONTINUOUS
10
3.10579
20
2.65252
11
3.11113
21
2.64001
0
LINE
8
BLACK
6
CONTINUOUS
10
3.11113
20
2.64001
11
3.11499
21
2.62697
0
LINE
8
BLACK
6
CONTINUOUS
10
3.11499
20
2.62697
11
3.11733
21
2.61358
0
LINE
8
BLACK
6
CONTINUOUS
10
3.11733
20
2.61358
11
3.11811
21
2.6
0
LINE
8
BLACK
6
CONTINUOUS
10
3.11811
20
2.6
11
3.11788
21
2.59258
0
LINE
8
BLACK
6
CONTINUOUS
10
3.11788
20
2.59258
11
3.11624
21
2.57908
0
LINE
8
BLACK
6
CONTINUOUS
10
3.11624
20
2.57908
11
3.11307
21
2.56586
0
LINE
8
BLACK
6
CONTINUOUS
10
3.11307
20
2.56586
11
3.1084
21
2.55309
0
LINE
8
BLACK
6
CONTINUOUS
10
3.1084
20
2.55309
11
3.10229
21
2.54094
0
LINE
8
BLACK
6
CONTINUOUS
10
3.10229
20
2.54094
11
3.09482
21
2.52958
0
LINE
8
BLACK
6
CONTINUOUS
10
3.09482
20
2.52958
11
3.0861
21
2.51915
0
LINE
8
BLACK
6
CONTINUOUS
10
3.0861
20
2.51915
11
3.07624
21
2.50979
0
LINE
8
BLACK
6
CONTINUOUS
10
3.07624
20
2.50979
11
3.06536
21
2.50162
0
LINE
8
BLACK
6
CONTINUOUS
10
3.06536
20
2.50162
11
3.05362
21
2.49476
0
LINE
8
BLACK
6
CONTINUOUS
10
3.05362
20
2.49476
11
3.04117
21
2.4893
0
LINE
8
BLACK
6
CONTINUOUS
10
3.04117
20
2.4893
11
3.02817
21
2.4853
0
LINE
8
BLACK
6
CONTINUOUS
10
3.02817
20
2.4853
11
3.0148
21
2.48282
0
LINE
8
BLACK
6
CONTINUOUS
10
3.0148
20
2.48282
11
3.00124
21
2.4819
0
LINE
8
BLACK
6
CONTINUOUS
10
3.00124
20
2.4819
11
2.98765
21
2.48254
0
LINE
8
BLACK
6
CONTINUOUS
10
2.98765
20
2.48254
11
2.97424
21
2.48473
0
LINE
8
BLACK
6
CONTINUOUS
10
2.97424
20
2.48473
11
2.96116
21
2.48846
0
LINE
8
BLACK
6
CONTINUOUS
10
2.96116
20
2.48846
11
2.94859
21
2.49366
0
LINE
8
BLACK
6
CONTINUOUS
10
2.94859
20
2.49366
11
2.93671
21
2.50028
0
LINE
8
BLACK
6
CONTINUOUS
10
2.93671
20
2.50028
11
2.92567
21
2.50821
0
LINE
8
BLACK
6
CONTINUOUS
10
2.92567
20
2.50821
11
2.91561
21
2.51736
0
LINE
8
BLACK
6
CONTINUOUS
10
2.91561
20
2.51736
11
2.90667
21
2.52761
0
LINE
8
BLACK
6
CONTINUOUS
10
2.90667
20
2.52761
11
2.89897
21
2.53882
0
LINE
8
BLACK
6
CONTINUOUS
10
2.89897
20
2.53882
11
2.89261
21
2.55083
0
LINE
8
BLACK
6
CONTINUOUS
10
2.89261
20
2.55083
11
2.88767
21
2.5635
0
LINE
8
BLACK
6
CONTINUOUS
10
2.88767
20
2.5635
11
2.88422
21
2.57665
0
LINE
8
BLACK
6
CONTINUOUS
10
2.88422
20
2.57665
11
2.8823
21
2.59012
0
LINE
8
BLACK
6
CONTINUOUS
10
2.8823
20
2.59012
11
2.88195
21
2.60371
0
LINE
8
BLACK
6
CONTINUOUS
10
2.88195
20
2.60371
11
2.88316
21
2.61725
0
LINE
8
BLACK
6
CONTINUOUS
10
2.88316
20
2.61725
11
2.88591
21
2.63057
0
LINE
8
BLACK
6
CONTINUOUS
10
2.88591
20
2.63057
11
2.89018
21
2.64348
0
LINE
8
BLACK
6
CONTINUOUS
10
2.89018
20
2.64348
11
2.89591
21
2.65581
0
LINE
8
BLACK
6
CONTINUOUS
10
2.89591
20
2.65581
11
2.90301
21
2.66741
0
LINE
8
BLACK
6
CONTINUOUS
10
2.90301
20
2.66741
11
2.9114
21
2.67811
0
LINE
8
BLACK
6
CONTINUOUS
10
2.9114
20
2.67811
11
2.92097
21
2.68777
0
LINE
8
BLACK
6
CONTINUOUS
10
2.92097
20
2.68777
11
2.93158
21
2.69627
0
LINE
8
BLACK
6
CONTINUOUS
10
2.93158
20
2.69627
11
2.9431
21
2.7035
0
LINE
8
BLACK
6
CONTINUOUS
10
2.9431
20
2.7035
11
2.95537
21
2.70935
0
LINE
8
BLACK
6
CONTINUOUS
10
2.95537
20
2.70935
11
2.96824
21
2.71376
0
LINE
8
BLACK
6
CONTINUOUS
10
2.96824
20
2.71376
11
2.98152
21
2.71666
0
LINE
8
BLACK
6
CONTINUOUS
10
2.98152
20
2.71666
11
2.99505
21
2.71801
0
LINE
8
BLACK
6
CONTINUOUS
10
2.99505
20
2.71801
11
3.00865
21
2.71779
0
LINE
8
BLACK
6
CONTINUOUS
10
0.529134
20
2.48378
11
0.469134
21
2.48378
0
LINE
8
BLACK
6
CONTINUOUS
10
0.469134
20
2.48378
11
0.469134
21
2.54378
0
LINE
8
BLACK
6
CONTINUOUS
10
0.469134
20
2.54378
11
0.529134
21
2.54378
0
LINE
8
BLACK
6
CONTINUOUS
10
0.529134
20
2.54378
11
0.529134
21
2.48378
0
LINE
8
BLACK
6
CONTINUOUS
10
2.77717
20
2.48378
11
2.71717
21
2.48378
0
LINE
8
BLACK
6
CONTINUOUS
10
2.71717
20
2.48378
11
2.71717
21
2.54378
0
LINE
8
BLACK
6
CONTINUOUS
10
2.71717
20
2.54378
11
2.77717
21
2.54378
0
LINE
8
BLACK
6
CONTINUOUS
10
2.77717
20
2.54378
11
2.77717
21
2.48378
0
LINE
8
BLACK
6
CONTINUOUS
10
1.51
20
2.535
11
1.45
21
2.535
0
LINE
8
BLACK
6
CONTINUOUS
10
1.45
20
2.535
11
1.45
21
2.595
0
LINE
8
BLACK
6
CONTINUOUS
10
1.45
20
2.595
11
1.51
21
2.595
0
LINE
8
BLACK
6
CONTINUOUS
10
1.51
20
2.595
11
1.51
21
2.535
0
LINE
8
BLACK
6
CONTINUOUS
10
2.19
20
2.535
11
2.13
21
2.535
0
LINE
8
BLACK
6
CONTINUOUS
10
2.13
20
2.535
11
2.13
21
2.595
0
LINE
8
BLACK
6
CONTINUOUS
10
2.13
20
2.595
11
2.19
21
2.595
0
LINE
8
BLACK
6
CONTINUOUS
10
2.19
20
2.595
11
2.19
21
2.535
0
LINE
8
BLACK
6
CONTINUOUS
10
2.09
20
2.535
11
2.03
21
2.535
0
LINE
8
BLACK
6
CONTINUOUS
10
2.03
20
2.535
11
2.03
21
2.595
0
LINE
8
BLACK
6
CONTINUOUS
10
2.03
20
2.595
11
2.09
21
2.595
0
LINE
8
BLACK
6
CONTINUOUS
10
2.09
20
2.595
11
2.09
21
2.535
0
LINE
8
BLACK
6
CONTINUOUS
10
1.21
20
2.535
11
1.15
21
2.535
0
LINE
8
BLACK
6
CONTINUOUS
10
1.15
20
2.535
11
1.15
21
2.595
0
LINE
8
BLACK
6
CONTINUOUS
10
1.15
20
2.595
11
1.21
21
2.595
0
LINE
8
BLACK
6
CONTINUOUS
10
1.21
20
2.595
11
1.21
21
2.535
0
LINE
8
BLACK
6
CONTINUOUS
10
1.41
20
2.535
11
1.35
21
2.535
0
LINE
8
BLACK
6
CONTINUOUS
10
1.35
20
2.535
11
1.35
21
2.595
0
LINE
8
BLACK
6
CONTINUOUS
10
1.35
20
2.595
11
1.41
21
2.595
0
LINE
8
BLACK
6
CONTINUOUS
10
1.41
20
2.595
11
1.41
21
2.535
0
LINE
8
BLACK
6
CONTINUOUS
10
1.99
20
2.535
11
1.93
21
2.535
0
LINE
8
BLACK
6
CONTINUOUS
10
1.93
20
2.535
11
1.93
21
2.595
0
LINE
8
BLACK
6
CONTINUOUS
10
1.93
20
2.595
11
1.99
21
2.595
0
LINE
8
BLACK
6
CONTINUOUS
10
1.99
20
2.595
11
1.99
21
2.535
0
LINE
8
BLACK
6
CONTINUOUS
10
1.61
20
2.535
11
1.55
21
2.535
0
LINE
8
BLACK
6
CONTINUOUS
10
1.55
20
2.535
11
1.55
21
2.595
0
LINE
8
BLACK
6
CONTINUOUS
10
1.55
20
2.595
11
1.61
21
2.595
0
LINE
8
BLACK
6
CONTINUOUS
10
1.61
20
2.595
11
1.61
21
2.535
0
LINE
8
BLACK
6
CONTINUOUS
10
1.71
20
2.535
11
1.65
21
2.535
0
LINE
8
BLACK
6
CONTINUOUS
10
1.65
20
2.535
11
1.65
21
2.595
0
LINE
8
BLACK
6
CONTINUOUS
10
1.65
20
2.595
11
1.71
21
2.595
0
LINE
8
BLACK
6
CONTINUOUS
10
1.71
20
2.595
11
1.71
21
2.535
0
LINE
8
BLACK
6
CONTINUOUS
10
1.81
20
2.535
11
1.75
21
2.535
0
LINE
8
BLACK
6
CONTINUOUS
10
1.75
20
2.535
11
1.75
21
2.595
0
LINE
8
BLACK
6
CONTINUOUS
10
1.75
20
2.595
11
1.81
21
2.595
0
LINE
8
BLACK
6
CONTINUOUS
10
1.81
20
2.595
11
1.81
21
2.535
0
LINE
8
BLACK
6
CONTINUOUS
10
1.51
20
2.635
11
1.45
21
2.635
0
LINE
8
BLACK
6
CONTINUOUS
10
1.45
20
2.635
11
1.45
21
2.695
0
LINE
8
BLACK
6
CONTINUOUS
10
1.45
20
2.695
11
1.51
21
2.695
0
LINE
8
BLACK
6
CONTINUOUS
10
1.51
20
2.695
11
1.51
21
2.635
0
LINE
8
BLACK
6
CONTINUOUS
10
1.61
20
2.635
11
1.55
21
2.635
0
LINE
8
BLACK
6
CONTINUOUS
10
1.55
20
2.635
11
1.55
21
2.695
0
LINE
8
BLACK
6
CONTINUOUS
10
1.55
20
2.695
11
1.61
21
2.695
0
LINE
8
BLACK
6
CONTINUOUS
10
1.61
20
2.695
11
1.61
21
2.635
0
LINE
8
BLACK
6
CONTINUOUS
10
1.41
20
2.635
11
1.35
21
2.635
0
LINE
8
BLACK
6
CONTINUOUS
10
1.35
20
2.635
11
1.35
21
2.695
0
LINE
8
BLACK
6
CONTINUOUS
10
1.35
20
2.695
11
1.41
21
2.695
0
LINE
8
BLACK
6
CONTINUOUS
10
1.41
20
2.695
11
1.41
21
2.635
0
LINE
8
BLACK
6
CONTINUOUS
10
1.21
20
2.635
11
1.15
21
2.635
0
LINE
8
BLACK
6
CONTINUOUS
10
1.15
20
2.635
11
1.15
21
2.695
0
LINE
8
BLACK
6
CONTINUOUS
10
1.15
20
2.695
11
1.21
21
2.695
0
LINE
8
BLACK
6
CONTINUOUS
10
1.21
20
2.695
11
1.21
21
2.635
0
LINE
8
BLACK
6
CONTINUOUS
10
1.71
20
2.635
11
1.65
21
2.635
0
LINE
8
BLACK
6
CONTINUOUS
10
1.65
20
2.635
11
1.65
21
2.695
0
LINE
8
BLACK
6
CONTINUOUS
10
1.65
20
2.695
11
1.71
21
2.695
0
LINE
8
BLACK
6
CONTINUOUS
10
1.71
20
2.695
11
1.71
21
2.635
0
LINE
8
BLACK
6
CONTINUOUS
10
1.99
20
2.635
11
1.93
21
2.635
0
LINE
8
BLACK
6
CONTINUOUS
10
1.93
20
2.635
11
1.93
21
2.695
0
LINE
8
BLACK
6
CONTINUOUS
10
1.93
20
2.695
11
1.99
21
2.695
0
LINE
8
BLACK
6
CONTINUOUS
10
1.99
20
2.695
11
1.99
21
2.635
0
LINE
8
BLACK
6
CONTINUOUS
10
1.81
20
2.635
11
1.75
21
2.635
0
LINE
8
BLACK
6
CONTINUOUS
10
1.75
20
2.635
11
1.75
21
2.695
0
LINE
8
BLACK
6
CONTINUOUS
10
1.75
20
2.695
11
1.81
21
2.695
0
LINE
8
BLACK
6
CONTINUOUS
10
1.81
20
2.695
11
1.81
21
2.635
0
LINE
8
BLACK
6
CONTINUOUS
10
2.09
20
2.635
11
2.03
21
2.635
0
LINE
8
BLACK
6
CONTINUOUS
10
2.03
20
2.635
11
2.03
21
2.695
0
LINE
8
BLACK
6
CONTINUOUS
10
2.03
20
2.695
11
2.09
21
2.695
0
LINE
8
BLACK
6
CONTINUOUS
10
2.09
20
2.695
11
2.09
21
2.635
0
LINE
8
BLACK
6
CONTINUOUS
10
2.19
20
2.635
11
2.13
21
2.635
0
LINE
8
BLACK
6
CONTINUOUS
10
2.13
20
2.635
11
2.13
21
2.695
0
LINE
8
BLACK
6
CONTINUOUS
10
2.13
20
2.695
11
2.19
21
2.695
0
LINE
8
BLACK
6
CONTINUOUS
10
2.19
20
2.695
11
2.19
21
2.635
0
LINE
8
BLACK
6
CONTINUOUS
10
0.789417
20
2.65602
11
0.723417
21
2.65602
0
LINE
8
BLACK
6
CONTINUOUS
10
0.723417
20
2.65602
11
0.723417
21
2.72202
0
LINE
8
BLACK
6
CONTINUOUS
10
0.723417
20
2.72202
11
0.789417
21
2.72202
0
LINE
8
BLACK
6
CONTINUOUS
10
0.789417
20
2.72202
11
0.789417
21
2.65602
0
LINE
8
BLACK
6
CONTINUOUS
10
0.966583
20
2.65602
11
0.900583
21
2.65602
0
LINE
8
BLACK
6
CONTINUOUS
10
0.900583
20
2.65602
11
0.900583
21
2.72202
0
LINE
8
BLACK
6
CONTINUOUS
10
0.900583
20
2.72202
11
0.966583
21
2.72202
0
LINE
8
BLACK
6
CONTINUOUS
10
0.966583
20
2.72202
11
0.966583
21
2.65602
  0
ENDSEC
  0
EOF
