  0
SECTION
  2
HEADER
  9
$ANGBASE
  50
0.0
  9
$ANGDIR
  70
1
  9
$MEASUREMENT
  70
0
  0
ENDSEC
  0
SECTION
  2
TABLES
  0
TABLE
  2
LTYPE
  70
4
  0
LTYPE
  5
40F
  2
CONTINUOUS
  70
0
  3
Solid line
  72
65
  73
0
  40
0.0
  0
LTYPE
  5
410
  2
DASHDOT
 70
0
  3
Dash Dot ____ _ ____ _
 72
65
 73
4
 40
2.0
 49
1.25
 49
-0.25
 49
0.25
 49
-0.25
  0
LTYPE
  5
411
  2
DASHED
 70
0
  3
Dashed __ __ __ __ __
 72
65
 73
2
 40
0.75
 49
0.5
 49
-0.25
  0
LTYPE
  5
43B
  2
DOTTED
 70
0
  3
Dotted .  .  .  .
 72
65
 73
2
 40
0.2
 49
0.0
 49
-0.2
  0
ENDTAB
  0
TABLE
  2
STYLE
  70
4
  0
STYLE
  2
KICAD
  70
0
  40
0
  41
1
  42
1
  50
0
  71
0
  3
isocp.shx
  0
STYLE
  2
KICADB
  70
0
  40
0
  41
1
  42
1
  50
0
  71
0
  3
isocp.shx
  0
STYLE
  2
KICADI
  70
0
  40
0
  41
1
  42
1
  50
15
  71
0
  3
isocp.shx
  0
STYLE
  2
KICADBI
  70
0
  40
0
  41
1
  42
1
  50
15
  71
0
  3
isocp.shx
  0
ENDTAB
  0
TABLE
  2
LAYER
  70
1
  0
LAYER
  2
BLACK
  70
0
  62
7
  6
CONTINUOUS
  0
ENDTAB
  0
ENDSEC
  0
SECTION
  2
ENTITIES
0
LINE
8
BLACK
6
CONTINUOUS
10
0.45
20
0.208465
11
0.308268
21
0.208465
0
LINE
8
BLACK
6
CONTINUOUS
10
0.308268
20
0.208465
11
0.308268
21
0.641535
0
LINE
8
BLACK
6
CONTINUOUS
10
0.308268
20
0.641535
11
0.45
21
0.641535
0
LINE
8
BLACK
6
CONTINUOUS
10
0.45
20
0.641535
11
0.45
21
0.208465
0
LINE
8
BLACK
6
CONTINUOUS
10
2.69193
20
0.208465
11
2.41634
21
0.208465
0
LINE
8
BLACK
6
CONTINUOUS
10
2.41634
20
0.208465
11
2.41634
21
0.641535
0
LINE
8
BLACK
6
CONTINUOUS
10
2.41634
20
0.641535
11
2.69193
21
0.641535
0
LINE
8
BLACK
6
CONTINUOUS
10
2.69193
20
0.641535
11
2.69193
21
0.208465
0
LINE
8
BLACK
6
CONTINUOUS
10
1.75818
20
1.42681
11
1.76137
21
1.42468
0
LINE
8
BLACK
6
CONTINUOUS
10
1.76137
20
1.42468
11
1.7635
21
1.42148
0
LINE
8
BLACK
6
CONTINUOUS
10
1.7635
20
1.42148
11
1.76425
21
1.41772
0
LINE
8
BLACK
6
CONTINUOUS
10
1.76425
20
1.41772
11
1.76425
21
1.38228
0
LINE
8
BLACK
6
CONTINUOUS
10
1.76425
20
1.38228
11
1.7635
21
1.37852
0
LINE
8
BLACK
6
CONTINUOUS
10
1.7635
20
1.37852
11
1.76137
21
1.37532
0
LINE
8
BLACK
6
CONTINUOUS
10
1.76137
20
1.37532
11
1.75818
21
1.37319
0
LINE
8
BLACK
6
CONTINUOUS
10
1.75818
20
1.37319
11
1.75441
21
1.37244
0
LINE
8
BLACK
6
CONTINUOUS
10
1.75441
20
1.37244
11
1.72685
21
1.37244
0
LINE
8
BLACK
6
CONTINUOUS
10
1.72685
20
1.37244
11
1.72308
21
1.37319
0
LINE
8
BLACK
6
CONTINUOUS
10
1.72308
20
1.37319
11
1.71989
21
1.37532
0
LINE
8
BLACK
6
CONTINUOUS
10
1.71989
20
1.37532
11
1.71776
21
1.37852
0
LINE
8
BLACK
6
CONTINUOUS
10
1.71776
20
1.37852
11
1.71701
21
1.38228
0
LINE
8
BLACK
6
CONTINUOUS
10
1.71701
20
1.38228
11
1.71701
21
1.41772
0
LINE
8
BLACK
6
CONTINUOUS
10
1.71701
20
1.41772
11
1.71776
21
1.42148
0
LINE
8
BLACK
6
CONTINUOUS
10
1.71776
20
1.42148
11
1.71989
21
1.42468
0
LINE
8
BLACK
6
CONTINUOUS
10
1.71989
20
1.42468
11
1.72308
21
1.42681
0
LINE
8
BLACK
6
CONTINUOUS
10
1.72308
20
1.42681
11
1.72685
21
1.42756
0
LINE
8
BLACK
6
CONTINUOUS
10
1.72685
20
1.42756
11
1.75441
21
1.42756
0
LINE
8
BLACK
6
CONTINUOUS
10
1.75441
20
1.42756
11
1.75818
21
1.42681
0
LINE
8
BLACK
6
CONTINUOUS
10
1.83692
20
1.42681
11
1.84011
21
1.42468
0
LINE
8
BLACK
6
CONTINUOUS
10
1.84011
20
1.42468
11
1.84224
21
1.42148
0
LINE
8
BLACK
6
CONTINUOUS
10
1.84224
20
1.42148
11
1.84299
21
1.41772
0
LINE
8
BLACK
6
CONTINUOUS
10
1.84299
20
1.41772
11
1.84299
21
1.38228
0
LINE
8
BLACK
6
CONTINUOUS
10
1.84299
20
1.38228
11
1.84224
21
1.37852
0
LINE
8
BLACK
6
CONTINUOUS
10
1.84224
20
1.37852
11
1.84011
21
1.37532
0
LINE
8
BLACK
6
CONTINUOUS
10
1.84011
20
1.37532
11
1.83692
21
1.37319
0
LINE
8
BLACK
6
CONTINUOUS
10
1.83692
20
1.37319
11
1.83315
21
1.37244
0
LINE
8
BLACK
6
CONTINUOUS
10
1.83315
20
1.37244
11
1.80559
21
1.37244
0
LINE
8
BLACK
6
CONTINUOUS
10
1.80559
20
1.37244
11
1.80182
21
1.37319
0
LINE
8
BLACK
6
CONTINUOUS
10
1.80182
20
1.37319
11
1.79863
21
1.37532
0
LINE
8
BLACK
6
CONTINUOUS
10
1.79863
20
1.37532
11
1.7965
21
1.37852
0
LINE
8
BLACK
6
CONTINUOUS
10
1.7965
20
1.37852
11
1.79575
21
1.38228
0
LINE
8
BLACK
6
CONTINUOUS
10
1.79575
20
1.38228
11
1.79575
21
1.41772
0
LINE
8
BLACK
6
CONTINUOUS
10
1.79575
20
1.41772
11
1.7965
21
1.42148
0
LINE
8
BLACK
6
CONTINUOUS
10
1.7965
20
1.42148
11
1.79863
21
1.42468
0
LINE
8
BLACK
6
CONTINUOUS
10
1.79863
20
1.42468
11
1.80182
21
1.42681
0
LINE
8
BLACK
6
CONTINUOUS
10
1.80182
20
1.42681
11
1.80559
21
1.42756
0
LINE
8
BLACK
6
CONTINUOUS
10
1.80559
20
1.42756
11
1.83315
21
1.42756
0
LINE
8
BLACK
6
CONTINUOUS
10
1.83315
20
1.42756
11
1.83692
21
1.42681
0
LINE
8
BLACK
6
CONTINUOUS
10
2.69193
20
2.15846
11
2.41634
21
2.15846
0
LINE
8
BLACK
6
CONTINUOUS
10
2.41634
20
2.15846
11
2.41634
21
2.59154
0
LINE
8
BLACK
6
CONTINUOUS
10
2.41634
20
2.59154
11
2.69193
21
2.59154
0
LINE
8
BLACK
6
CONTINUOUS
10
2.69193
20
2.59154
11
2.69193
21
2.15846
0
LINE
8
BLACK
6
CONTINUOUS
10
0.45
20
2.15846
11
0.308268
21
2.15846
0
LINE
8
BLACK
6
CONTINUOUS
10
0.308268
20
2.15846
11
0.308268
21
2.59154
0
LINE
8
BLACK
6
CONTINUOUS
10
0.308268
20
2.59154
11
0.45
21
2.59154
0
LINE
8
BLACK
6
CONTINUOUS
10
0.45
20
2.59154
11
0.45
21
2.15846
  0
ENDSEC
  0
EOF
