  0
SECTION
  2
HEADER
  9
$ANGBASE
  50
0.0
  9
$ANGDIR
  70
1
  9
$MEASUREMENT
  70
0
  0
ENDSEC
  0
SECTION
  2
TABLES
  0
TABLE
  2
LTYPE
  70
4
  0
LTYPE
  5
40F
  2
CONTINUOUS
  70
0
  3
Solid line
  72
65
  73
0
  40
0.0
  0
LTYPE
  5
410
  2
DASHDOT
 70
0
  3
Dash Dot ____ _ ____ _
 72
65
 73
4
 40
2.0
 49
1.25
 49
-0.25
 49
0.25
 49
-0.25
  0
LTYPE
  5
411
  2
DASHED
 70
0
  3
Dashed __ __ __ __ __
 72
65
 73
2
 40
0.75
 49
0.5
 49
-0.25
  0
LTYPE
  5
43B
  2
DOTTED
 70
0
  3
Dotted .  .  .  .
 72
65
 73
2
 40
0.2
 49
0.0
 49
-0.2
  0
ENDTAB
  0
TABLE
  2
STYLE
  70
4
  0
STYLE
  2
KICAD
  70
0
  40
0
  41
1
  42
1
  50
0
  71
0
  3
isocp.shx
  0
STYLE
  2
KICADB
  70
0
  40
0
  41
1
  42
1
  50
0
  71
0
  3
isocp.shx
  0
STYLE
  2
KICADI
  70
0
  40
0
  41
1
  42
1
  50
15
  71
0
  3
isocp.shx
  0
STYLE
  2
KICADBI
  70
0
  40
0
  41
1
  42
1
  50
15
  71
0
  3
isocp.shx
  0
ENDTAB
  0
TABLE
  2
LAYER
  70
1
  0
LAYER
  2
BLACK
  70
0
  62
7
  6
CONTINUOUS
  0
ENDTAB
  0
ENDSEC
  0
SECTION
  2
ENTITIES
0
LINE
8
BLACK
6
CONTINUOUS
10
1.54277
20
0.0886897
11
1.54264
21
0.0886669
0
LINE
8
BLACK
6
CONTINUOUS
10
1.54264
20
0.0886669
11
1.54252
21
0.0887325
0
LINE
8
BLACK
6
CONTINUOUS
10
1.54252
20
0.0887325
11
1.54214
21
0.0888001
0
LINE
8
BLACK
6
CONTINUOUS
10
1.54214
20
0.0888001
11
1.54155
21
0.0892933
0
LINE
8
BLACK
6
CONTINUOUS
10
1.54155
20
0.0892933
11
1.54089
21
0.0896768
0
LINE
8
BLACK
6
CONTINUOUS
10
1.54089
20
0.0896768
11
1.5408
21
0.0899272
0
LINE
8
BLACK
6
CONTINUOUS
10
1.5408
20
0.0899272
11
1.54059
21
0.0900984
0
LINE
8
BLACK
6
CONTINUOUS
10
1.54059
20
0.0900984
11
1.54046
21
0.090854
0
LINE
8
BLACK
6
CONTINUOUS
10
1.54046
20
0.090854
11
1.5402
21
0.0915748
0
LINE
8
BLACK
6
CONTINUOUS
10
1.5402
20
0.0915748
11
1.5402
21
0.108307
0
LINE
8
BLACK
6
CONTINUOUS
10
1.5402
20
0.108307
11
1.44469
21
0.108307
0
LINE
8
BLACK
6
CONTINUOUS
10
1.44469
20
0.108307
11
1.44432
21
0.108372
0
LINE
8
BLACK
6
CONTINUOUS
10
1.44432
20
0.108372
11
1.44421
21
0.108352
0
LINE
8
BLACK
6
CONTINUOUS
10
1.44421
20
0.108352
11
1.44411
21
0.108409
0
LINE
8
BLACK
6
CONTINUOUS
10
1.44411
20
0.108409
11
1.44368
21
0.108485
0
LINE
8
BLACK
6
CONTINUOUS
10
1.44368
20
0.108485
11
1.44301
21
0.109044
0
LINE
8
BLACK
6
CONTINUOUS
10
1.44301
20
0.109044
11
1.44246
21
0.109362
0
LINE
8
BLACK
6
CONTINUOUS
10
1.44246
20
0.109362
11
1.44238
21
0.109569
0
LINE
8
BLACK
6
CONTINUOUS
10
1.44238
20
0.109569
11
1.44213
21
0.109783
0
LINE
8
BLACK
6
CONTINUOUS
10
1.44213
20
0.109783
11
1.44196
21
0.110728
0
LINE
8
BLACK
6
CONTINUOUS
10
1.44196
20
0.110728
11
1.44177
21
0.11126
0
LINE
8
BLACK
6
CONTINUOUS
10
1.44177
20
0.11126
11
1.44177
21
0.26874
0
LINE
8
BLACK
6
CONTINUOUS
10
1.44177
20
0.26874
11
1.44184
21
0.269124
0
LINE
8
BLACK
6
CONTINUOUS
10
1.44184
20
0.269124
11
1.44181
21
0.269253
0
LINE
8
BLACK
6
CONTINUOUS
10
1.44181
20
0.269253
11
1.44188
21
0.269367
0
LINE
8
BLACK
6
CONTINUOUS
10
1.44188
20
0.269367
11
1.44195
21
0.26975
0
LINE
8
BLACK
6
CONTINUOUS
10
1.44195
20
0.26975
11
1.44244
21
0.270338
0
LINE
8
BLACK
6
CONTINUOUS
10
1.44244
20
0.270338
11
1.44282
21
0.271002
0
LINE
8
BLACK
6
CONTINUOUS
10
1.44282
20
0.271002
11
1.44307
21
0.271093
0
LINE
8
BLACK
6
CONTINUOUS
10
1.44307
20
0.271093
11
1.44324
21
0.271297
0
LINE
8
BLACK
6
CONTINUOUS
10
1.44324
20
0.271297
11
1.444
21
0.271431
0
LINE
8
BLACK
6
CONTINUOUS
10
1.444
20
0.271431
11
1.44472
21
0.271693
0
LINE
8
BLACK
6
CONTINUOUS
10
1.44472
20
0.271693
11
1.5402
21
0.271693
0
LINE
8
BLACK
6
CONTINUOUS
10
1.5402
20
0.271693
11
1.5402
21
0.288425
0
LINE
8
BLACK
6
CONTINUOUS
10
1.5402
20
0.288425
11
1.54026
21
0.288809
0
LINE
8
BLACK
6
CONTINUOUS
10
1.54026
20
0.288809
11
1.54024
21
0.288938
0
LINE
8
BLACK
6
CONTINUOUS
10
1.54024
20
0.288938
11
1.54031
21
0.289052
0
LINE
8
BLACK
6
CONTINUOUS
10
1.54031
20
0.289052
11
1.54037
21
0.289435
0
LINE
8
BLACK
6
CONTINUOUS
10
1.54037
20
0.289435
11
1.54079
21
0.289931
0
LINE
8
BLACK
6
CONTINUOUS
10
1.54079
20
0.289931
11
1.54059
21
0.290098
0
LINE
8
BLACK
6
CONTINUOUS
10
1.54059
20
0.290098
11
1.54046
21
0.290854
0
LINE
8
BLACK
6
CONTINUOUS
10
1.54046
20
0.290854
11
1.5402
21
0.291575
0
LINE
8
BLACK
6
CONTINUOUS
10
1.5402
20
0.291575
11
1.5402
21
0.308307
0
LINE
8
BLACK
6
CONTINUOUS
10
1.5402
20
0.308307
11
1.44469
21
0.308307
0
LINE
8
BLACK
6
CONTINUOUS
10
1.44469
20
0.308307
11
1.44432
21
0.308372
0
LINE
8
BLACK
6
CONTINUOUS
10
1.44432
20
0.308372
11
1.44421
21
0.308352
0
LINE
8
BLACK
6
CONTINUOUS
10
1.44421
20
0.308352
11
1.44411
21
0.308409
0
LINE
8
BLACK
6
CONTINUOUS
10
1.44411
20
0.308409
11
1.44368
21
0.308485
0
LINE
8
BLACK
6
CONTINUOUS
10
1.44368
20
0.308485
11
1.44301
21
0.309044
0
LINE
8
BLACK
6
CONTINUOUS
10
1.44301
20
0.309044
11
1.44246
21
0.309362
0
LINE
8
BLACK
6
CONTINUOUS
10
1.44246
20
0.309362
11
1.44238
21
0.309569
0
LINE
8
BLACK
6
CONTINUOUS
10
1.44238
20
0.309569
11
1.44213
21
0.309783
0
LINE
8
BLACK
6
CONTINUOUS
10
1.44213
20
0.309783
11
1.44196
21
0.310728
0
LINE
8
BLACK
6
CONTINUOUS
10
1.44196
20
0.310728
11
1.44177
21
0.31126
0
LINE
8
BLACK
6
CONTINUOUS
10
1.44177
20
0.31126
11
1.44177
21
0.46874
0
LINE
8
BLACK
6
CONTINUOUS
10
1.44177
20
0.46874
11
1.44184
21
0.469124
0
LINE
8
BLACK
6
CONTINUOUS
10
1.44184
20
0.469124
11
1.44181
21
0.469253
0
LINE
8
BLACK
6
CONTINUOUS
10
1.44181
20
0.469253
11
1.44188
21
0.469367
0
LINE
8
BLACK
6
CONTINUOUS
10
1.44188
20
0.469367
11
1.44195
21
0.46975
0
LINE
8
BLACK
6
CONTINUOUS
10
1.44195
20
0.46975
11
1.44244
21
0.470338
0
LINE
8
BLACK
6
CONTINUOUS
10
1.44244
20
0.470338
11
1.44282
21
0.471002
0
LINE
8
BLACK
6
CONTINUOUS
10
1.44282
20
0.471002
11
1.44307
21
0.471093
0
LINE
8
BLACK
6
CONTINUOUS
10
1.44307
20
0.471093
11
1.44324
21
0.471297
0
LINE
8
BLACK
6
CONTINUOUS
10
1.44324
20
0.471297
11
1.444
21
0.471431
0
LINE
8
BLACK
6
CONTINUOUS
10
1.444
20
0.471431
11
1.44472
21
0.471693
0
LINE
8
BLACK
6
CONTINUOUS
10
1.44472
20
0.471693
11
1.5402
21
0.471693
0
LINE
8
BLACK
6
CONTINUOUS
10
1.5402
20
0.471693
11
1.5402
21
0.488425
0
LINE
8
BLACK
6
CONTINUOUS
10
1.5402
20
0.488425
11
1.54026
21
0.488809
0
LINE
8
BLACK
6
CONTINUOUS
10
1.54026
20
0.488809
11
1.54024
21
0.488938
0
LINE
8
BLACK
6
CONTINUOUS
10
1.54024
20
0.488938
11
1.54031
21
0.489052
0
LINE
8
BLACK
6
CONTINUOUS
10
1.54031
20
0.489052
11
1.54037
21
0.489435
0
LINE
8
BLACK
6
CONTINUOUS
10
1.54037
20
0.489435
11
1.54087
21
0.490023
0
LINE
8
BLACK
6
CONTINUOUS
10
1.54087
20
0.490023
11
1.54125
21
0.490687
0
LINE
8
BLACK
6
CONTINUOUS
10
1.54125
20
0.490687
11
1.5415
21
0.490778
0
LINE
8
BLACK
6
CONTINUOUS
10
1.5415
20
0.490778
11
1.54167
21
0.490982
0
LINE
8
BLACK
6
CONTINUOUS
10
1.54167
20
0.490982
11
1.54243
21
0.491116
0
LINE
8
BLACK
6
CONTINUOUS
10
1.54243
20
0.491116
11
1.54315
21
0.491378
0
LINE
8
BLACK
6
CONTINUOUS
10
1.54315
20
0.491378
11
2.1337
21
0.491378
0
LINE
8
BLACK
6
CONTINUOUS
10
2.1337
20
0.491378
11
2.13407
21
0.491312
0
LINE
8
BLACK
6
CONTINUOUS
10
2.13407
20
0.491312
11
2.13421
21
0.491337
0
LINE
8
BLACK
6
CONTINUOUS
10
2.13421
20
0.491337
11
2.13434
21
0.491266
0
LINE
8
BLACK
6
CONTINUOUS
10
2.13434
20
0.491266
11
2.13471
21
0.4912
0
LINE
8
BLACK
6
CONTINUOUS
10
2.13471
20
0.4912
11
2.13528
21
0.490719
0
LINE
8
BLACK
6
CONTINUOUS
10
2.13528
20
0.490719
11
2.13596
21
0.490327
0
LINE
8
BLACK
6
CONTINUOUS
10
2.13596
20
0.490327
11
2.13606
21
0.490071
0
LINE
8
BLACK
6
CONTINUOUS
10
2.13606
20
0.490071
11
2.13626
21
0.489902
0
LINE
8
BLACK
6
CONTINUOUS
10
2.13626
20
0.489902
11
2.13639
21
0.489154
0
LINE
8
BLACK
6
CONTINUOUS
10
2.13639
20
0.489154
11
2.13665
21
0.488429
0
LINE
8
BLACK
6
CONTINUOUS
10
2.13665
20
0.488429
11
2.13665
21
0.291571
0
LINE
8
BLACK
6
CONTINUOUS
10
2.13665
20
0.291571
11
2.13659
21
0.291189
0
LINE
8
BLACK
6
CONTINUOUS
10
2.13659
20
0.291189
11
2.13661
21
0.291062
0
LINE
8
BLACK
6
CONTINUOUS
10
2.13661
20
0.291062
11
2.13654
21
0.29095
0
LINE
8
BLACK
6
CONTINUOUS
10
2.13654
20
0.29095
11
2.13648
21
0.290561
0
LINE
8
BLACK
6
CONTINUOUS
10
2.13648
20
0.290561
11
2.13606
21
0.290067
0
LINE
8
BLACK
6
CONTINUOUS
10
2.13606
20
0.290067
11
2.13626
21
0.289902
0
LINE
8
BLACK
6
CONTINUOUS
10
2.13626
20
0.289902
11
2.13639
21
0.289154
0
LINE
8
BLACK
6
CONTINUOUS
10
2.13639
20
0.289154
11
2.13665
21
0.288429
0
LINE
8
BLACK
6
CONTINUOUS
10
2.13665
20
0.288429
11
2.13665
21
0.0915709
0
LINE
8
BLACK
6
CONTINUOUS
10
2.13665
20
0.0915709
11
2.13659
21
0.0911893
0
LINE
8
BLACK
6
CONTINUOUS
10
2.13659
20
0.0911893
11
2.13661
21
0.091062
0
LINE
8
BLACK
6
CONTINUOUS
10
2.13661
20
0.091062
11
2.13654
21
0.0909502
0
LINE
8
BLACK
6
CONTINUOUS
10
2.13654
20
0.0909502
11
2.13648
21
0.0905609
0
LINE
8
BLACK
6
CONTINUOUS
10
2.13648
20
0.0905609
11
2.13598
21
0.0899646
0
LINE
8
BLACK
6
CONTINUOUS
10
2.13598
20
0.0899646
11
2.1356
21
0.0893129
0
LINE
8
BLACK
6
CONTINUOUS
10
2.1356
20
0.0893129
11
2.13535
21
0.0892235
0
LINE
8
BLACK
6
CONTINUOUS
10
2.13535
20
0.0892235
11
2.13518
21
0.0890137
0
LINE
8
BLACK
6
CONTINUOUS
10
2.13518
20
0.0890137
11
2.1344
21
0.0888768
0
LINE
8
BLACK
6
CONTINUOUS
10
2.1344
20
0.0888768
11
2.1337
21
0.088622
0
LINE
8
BLACK
6
CONTINUOUS
10
2.1337
20
0.088622
11
1.54315
21
0.088622
0
LINE
8
BLACK
6
CONTINUOUS
10
1.54315
20
0.088622
11
1.54277
21
0.0886897
0
LINE
8
BLACK
6
CONTINUOUS
10
1.78232
20
0.285472
11
1.78232
21
0.232323
0
LINE
8
BLACK
6
CONTINUOUS
10
1.78232
20
0.232323
11
1.79611
21
0.232323
0
LINE
8
BLACK
6
CONTINUOUS
10
1.79611
20
0.232323
11
1.79611
21
0.26874
0
LINE
8
BLACK
6
CONTINUOUS
10
1.79611
20
0.26874
11
1.79617
21
0.269124
0
LINE
8
BLACK
6
CONTINUOUS
10
1.79617
20
0.269124
11
1.79615
21
0.269253
0
LINE
8
BLACK
6
CONTINUOUS
10
1.79615
20
0.269253
11
1.79622
21
0.269367
0
LINE
8
BLACK
6
CONTINUOUS
10
1.79622
20
0.269367
11
1.79628
21
0.26975
0
LINE
8
BLACK
6
CONTINUOUS
10
1.79628
20
0.26975
11
1.79678
21
0.270338
0
LINE
8
BLACK
6
CONTINUOUS
10
1.79678
20
0.270338
11
1.79716
21
0.271002
0
LINE
8
BLACK
6
CONTINUOUS
10
1.79716
20
0.271002
11
1.79741
21
0.271093
0
LINE
8
BLACK
6
CONTINUOUS
10
1.79741
20
0.271093
11
1.79758
21
0.271297
0
LINE
8
BLACK
6
CONTINUOUS
10
1.79758
20
0.271297
11
1.79834
21
0.271431
0
LINE
8
BLACK
6
CONTINUOUS
10
1.79834
20
0.271431
11
1.79906
21
0.271693
0
LINE
8
BLACK
6
CONTINUOUS
10
1.79906
20
0.271693
11
2.11402
21
0.271693
0
LINE
8
BLACK
6
CONTINUOUS
10
2.11402
20
0.271693
11
2.1144
21
0.271625
0
LINE
8
BLACK
6
CONTINUOUS
10
2.1144
20
0.271625
11
2.11453
21
0.271648
0
LINE
8
BLACK
6
CONTINUOUS
10
2.11453
20
0.271648
11
2.11465
21
0.271582
0
LINE
8
BLACK
6
CONTINUOUS
10
2.11465
20
0.271582
11
2.11503
21
0.271515
0
LINE
8
BLACK
6
CONTINUOUS
10
2.11503
20
0.271515
11
2.11562
21
0.271022
0
LINE
8
BLACK
6
CONTINUOUS
10
2.11562
20
0.271022
11
2.11628
21
0.270638
0
LINE
8
BLACK
6
CONTINUOUS
10
2.11628
20
0.270638
11
2.11637
21
0.270388
0
LINE
8
BLACK
6
CONTINUOUS
10
2.11637
20
0.270388
11
2.11658
21
0.270217
0
LINE
8
BLACK
6
CONTINUOUS
10
2.11658
20
0.270217
11
2.11671
21
0.269461
0
LINE
8
BLACK
6
CONTINUOUS
10
2.11671
20
0.269461
11
2.11697
21
0.26874
0
LINE
8
BLACK
6
CONTINUOUS
10
2.11697
20
0.26874
11
2.11697
21
0.11126
0
LINE
8
BLACK
6
CONTINUOUS
10
2.11697
20
0.11126
11
2.1169
21
0.110876
0
LINE
8
BLACK
6
CONTINUOUS
10
2.1169
20
0.110876
11
2.11693
21
0.110747
0
LINE
8
BLACK
6
CONTINUOUS
10
2.11693
20
0.110747
11
2.11686
21
0.110633
0
LINE
8
BLACK
6
CONTINUOUS
10
2.11686
20
0.110633
11
2.11679
21
0.11025
0
LINE
8
BLACK
6
CONTINUOUS
10
2.11679
20
0.11025
11
2.1163
21
0.109662
0
LINE
8
BLACK
6
CONTINUOUS
10
2.1163
20
0.109662
11
2.11592
21
0.108998
0
LINE
8
BLACK
6
CONTINUOUS
10
2.11592
20
0.108998
11
2.11567
21
0.108907
0
LINE
8
BLACK
6
CONTINUOUS
10
2.11567
20
0.108907
11
2.1155
21
0.108703
0
LINE
8
BLACK
6
CONTINUOUS
10
2.1155
20
0.108703
11
2.11474
21
0.108569
0
LINE
8
BLACK
6
CONTINUOUS
10
2.11474
20
0.108569
11
2.11402
21
0.108307
0
LINE
8
BLACK
6
CONTINUOUS
10
2.11402
20
0.108307
11
1.79906
21
0.108307
0
LINE
8
BLACK
6
CONTINUOUS
10
1.79906
20
0.108307
11
1.79868
21
0.108375
0
LINE
8
BLACK
6
CONTINUOUS
10
1.79868
20
0.108375
11
1.79855
21
0.108352
0
LINE
8
BLACK
6
CONTINUOUS
10
1.79855
20
0.108352
11
1.79843
21
0.108418
0
LINE
8
BLACK
6
CONTINUOUS
10
1.79843
20
0.108418
11
1.79805
21
0.108485
0
LINE
8
BLACK
6
CONTINUOUS
10
1.79805
20
0.108485
11
1.79746
21
0.108978
0
LINE
8
BLACK
6
CONTINUOUS
10
1.79746
20
0.108978
11
1.7968
21
0.109362
0
LINE
8
BLACK
6
CONTINUOUS
10
1.7968
20
0.109362
11
1.79671
21
0.109612
0
LINE
8
BLACK
6
CONTINUOUS
10
1.79671
20
0.109612
11
1.7965
21
0.109783
0
LINE
8
BLACK
6
CONTINUOUS
10
1.7965
20
0.109783
11
1.79637
21
0.110539
0
LINE
8
BLACK
6
CONTINUOUS
10
1.79637
20
0.110539
11
1.79611
21
0.11126
0
LINE
8
BLACK
6
CONTINUOUS
10
1.79611
20
0.11126
11
1.79611
21
0.147677
0
LINE
8
BLACK
6
CONTINUOUS
10
1.79611
20
0.147677
11
1.78232
21
0.147677
0
LINE
8
BLACK
6
CONTINUOUS
10
1.78232
20
0.147677
11
1.78232
21
0.0945276
0
LINE
8
BLACK
6
CONTINUOUS
10
1.78232
20
0.0945276
11
2.13075
21
0.0945276
0
LINE
8
BLACK
6
CONTINUOUS
10
2.13075
20
0.0945276
11
2.13075
21
0.285472
0
LINE
8
BLACK
6
CONTINUOUS
10
2.13075
20
0.285472
11
1.78232
21
0.285472
0
LINE
8
BLACK
6
CONTINUOUS
10
1.5461
20
0.285472
11
1.5461
21
0.271693
0
LINE
8
BLACK
6
CONTINUOUS
10
1.5461
20
0.271693
11
1.58252
21
0.271693
0
LINE
8
BLACK
6
CONTINUOUS
10
1.58252
20
0.271693
11
1.5829
21
0.271625
0
LINE
8
BLACK
6
CONTINUOUS
10
1.5829
20
0.271625
11
1.58303
21
0.271648
0
LINE
8
BLACK
6
CONTINUOUS
10
1.58303
20
0.271648
11
1.58315
21
0.271582
0
LINE
8
BLACK
6
CONTINUOUS
10
1.58315
20
0.271582
11
1.58353
21
0.271515
0
LINE
8
BLACK
6
CONTINUOUS
10
1.58353
20
0.271515
11
1.58412
21
0.271022
0
LINE
8
BLACK
6
CONTINUOUS
10
1.58412
20
0.271022
11
1.58478
21
0.270638
0
LINE
8
BLACK
6
CONTINUOUS
10
1.58478
20
0.270638
11
1.58487
21
0.270388
0
LINE
8
BLACK
6
CONTINUOUS
10
1.58487
20
0.270388
11
1.58508
21
0.270217
0
LINE
8
BLACK
6
CONTINUOUS
10
1.58508
20
0.270217
11
1.58521
21
0.269461
0
LINE
8
BLACK
6
CONTINUOUS
10
1.58521
20
0.269461
11
1.58547
21
0.26874
0
LINE
8
BLACK
6
CONTINUOUS
10
1.58547
20
0.26874
11
1.58547
21
0.252008
0
LINE
8
BLACK
6
CONTINUOUS
10
1.58547
20
0.252008
11
1.70063
21
0.252008
0
LINE
8
BLACK
6
CONTINUOUS
10
1.70063
20
0.252008
11
1.701
21
0.251942
0
LINE
8
BLACK
6
CONTINUOUS
10
1.701
20
0.251942
11
1.70114
21
0.251967
0
LINE
8
BLACK
6
CONTINUOUS
10
1.70114
20
0.251967
11
1.70127
21
0.251896
0
LINE
8
BLACK
6
CONTINUOUS
10
1.70127
20
0.251896
11
1.70164
21
0.25183
0
LINE
8
BLACK
6
CONTINUOUS
10
1.70164
20
0.25183
11
1.70221
21
0.251349
0
LINE
8
BLACK
6
CONTINUOUS
10
1.70221
20
0.251349
11
1.70289
21
0.250957
0
LINE
8
BLACK
6
CONTINUOUS
10
1.70289
20
0.250957
11
1.70299
21
0.250701
0
LINE
8
BLACK
6
CONTINUOUS
10
1.70299
20
0.250701
11
1.70319
21
0.250531
0
LINE
8
BLACK
6
CONTINUOUS
10
1.70319
20
0.250531
11
1.70332
21
0.249784
0
LINE
8
BLACK
6
CONTINUOUS
10
1.70332
20
0.249784
11
1.70358
21
0.249059
0
LINE
8
BLACK
6
CONTINUOUS
10
1.70358
20
0.249059
11
1.70358
21
0.130941
0
LINE
8
BLACK
6
CONTINUOUS
10
1.70358
20
0.130941
11
1.70352
21
0.130559
0
LINE
8
BLACK
6
CONTINUOUS
10
1.70352
20
0.130559
11
1.70354
21
0.130432
0
LINE
8
BLACK
6
CONTINUOUS
10
1.70354
20
0.130432
11
1.70347
21
0.13032
0
LINE
8
BLACK
6
CONTINUOUS
10
1.70347
20
0.13032
11
1.7034
21
0.129931
0
LINE
8
BLACK
6
CONTINUOUS
10
1.7034
20
0.129931
11
1.7029
21
0.129335
0
LINE
8
BLACK
6
CONTINUOUS
10
1.7029
20
0.129335
11
1.70253
21
0.128683
0
LINE
8
BLACK
6
CONTINUOUS
10
1.70253
20
0.128683
11
1.70228
21
0.128594
0
LINE
8
BLACK
6
CONTINUOUS
10
1.70228
20
0.128594
11
1.70211
21
0.128384
0
LINE
8
BLACK
6
CONTINUOUS
10
1.70211
20
0.128384
11
1.70133
21
0.128247
0
LINE
8
BLACK
6
CONTINUOUS
10
1.70133
20
0.128247
11
1.70063
21
0.127992
0
LINE
8
BLACK
6
CONTINUOUS
10
1.70063
20
0.127992
11
1.58547
21
0.127992
0
LINE
8
BLACK
6
CONTINUOUS
10
1.58547
20
0.127992
11
1.58547
21
0.11126
0
LINE
8
BLACK
6
CONTINUOUS
10
1.58547
20
0.11126
11
1.5854
21
0.110876
0
LINE
8
BLACK
6
CONTINUOUS
10
1.5854
20
0.110876
11
1.58543
21
0.110747
0
LINE
8
BLACK
6
CONTINUOUS
10
1.58543
20
0.110747
11
1.58536
21
0.110633
0
LINE
8
BLACK
6
CONTINUOUS
10
1.58536
20
0.110633
11
1.58529
21
0.11025
0
LINE
8
BLACK
6
CONTINUOUS
10
1.58529
20
0.11025
11
1.5848
21
0.109662
0
LINE
8
BLACK
6
CONTINUOUS
10
1.5848
20
0.109662
11
1.58442
21
0.108998
0
LINE
8
BLACK
6
CONTINUOUS
10
1.58442
20
0.108998
11
1.58417
21
0.108907
0
LINE
8
BLACK
6
CONTINUOUS
10
1.58417
20
0.108907
11
1.584
21
0.108703
0
LINE
8
BLACK
6
CONTINUOUS
10
1.584
20
0.108703
11
1.58324
21
0.108569
0
LINE
8
BLACK
6
CONTINUOUS
10
1.58324
20
0.108569
11
1.58252
21
0.108307
0
LINE
8
BLACK
6
CONTINUOUS
10
1.58252
20
0.108307
11
1.5461
21
0.108307
0
LINE
8
BLACK
6
CONTINUOUS
10
1.5461
20
0.108307
11
1.5461
21
0.0945276
0
LINE
8
BLACK
6
CONTINUOUS
10
1.5461
20
0.0945276
11
1.77642
21
0.0945276
0
LINE
8
BLACK
6
CONTINUOUS
10
1.77642
20
0.0945276
11
1.77642
21
0.285472
0
LINE
8
BLACK
6
CONTINUOUS
10
1.77642
20
0.285472
11
1.5461
21
0.285472
0
LINE
8
BLACK
6
CONTINUOUS
10
1.80201
20
0.265787
11
1.80201
21
0.114213
0
LINE
8
BLACK
6
CONTINUOUS
10
1.80201
20
0.114213
11
2.11107
21
0.114213
0
LINE
8
BLACK
6
CONTINUOUS
10
2.11107
20
0.114213
11
2.11107
21
0.265787
0
LINE
8
BLACK
6
CONTINUOUS
10
2.11107
20
0.265787
11
1.80201
21
0.265787
0
LINE
8
BLACK
6
CONTINUOUS
10
1.44767
20
0.265787
11
1.44767
21
0.114213
0
LINE
8
BLACK
6
CONTINUOUS
10
1.44767
20
0.114213
11
1.57957
21
0.114213
0
LINE
8
BLACK
6
CONTINUOUS
10
1.57957
20
0.114213
11
1.57957
21
0.265787
0
LINE
8
BLACK
6
CONTINUOUS
10
1.57957
20
0.265787
11
1.44767
21
0.265787
0
LINE
8
BLACK
6
CONTINUOUS
10
1.58547
20
0.246102
11
1.58547
21
0.133898
0
LINE
8
BLACK
6
CONTINUOUS
10
1.58547
20
0.133898
11
1.69768
21
0.133898
0
LINE
8
BLACK
6
CONTINUOUS
10
1.69768
20
0.133898
11
1.69768
21
0.246102
0
LINE
8
BLACK
6
CONTINUOUS
10
1.69768
20
0.246102
11
1.58547
21
0.246102
0
LINE
8
BLACK
6
CONTINUOUS
10
1.78232
20
0.226417
11
1.78232
21
0.153583
0
LINE
8
BLACK
6
CONTINUOUS
10
1.78232
20
0.153583
11
1.79611
21
0.153583
0
LINE
8
BLACK
6
CONTINUOUS
10
1.79611
20
0.153583
11
1.79611
21
0.226417
0
LINE
8
BLACK
6
CONTINUOUS
10
1.79611
20
0.226417
11
1.78232
21
0.226417
0
LINE
8
BLACK
6
CONTINUOUS
10
1.78232
20
0.485472
11
1.78232
21
0.432323
0
LINE
8
BLACK
6
CONTINUOUS
10
1.78232
20
0.432323
11
1.79611
21
0.432323
0
LINE
8
BLACK
6
CONTINUOUS
10
1.79611
20
0.432323
11
1.79611
21
0.46874
0
LINE
8
BLACK
6
CONTINUOUS
10
1.79611
20
0.46874
11
1.79617
21
0.469124
0
LINE
8
BLACK
6
CONTINUOUS
10
1.79617
20
0.469124
11
1.79615
21
0.469253
0
LINE
8
BLACK
6
CONTINUOUS
10
1.79615
20
0.469253
11
1.79622
21
0.469367
0
LINE
8
BLACK
6
CONTINUOUS
10
1.79622
20
0.469367
11
1.79628
21
0.46975
0
LINE
8
BLACK
6
CONTINUOUS
10
1.79628
20
0.46975
11
1.79678
21
0.470338
0
LINE
8
BLACK
6
CONTINUOUS
10
1.79678
20
0.470338
11
1.79716
21
0.471002
0
LINE
8
BLACK
6
CONTINUOUS
10
1.79716
20
0.471002
11
1.79741
21
0.471093
0
LINE
8
BLACK
6
CONTINUOUS
10
1.79741
20
0.471093
11
1.79758
21
0.471297
0
LINE
8
BLACK
6
CONTINUOUS
10
1.79758
20
0.471297
11
1.79834
21
0.471431
0
LINE
8
BLACK
6
CONTINUOUS
10
1.79834
20
0.471431
11
1.79906
21
0.471693
0
LINE
8
BLACK
6
CONTINUOUS
10
1.79906
20
0.471693
11
2.11402
21
0.471693
0
LINE
8
BLACK
6
CONTINUOUS
10
2.11402
20
0.471693
11
2.1144
21
0.471625
0
LINE
8
BLACK
6
CONTINUOUS
10
2.1144
20
0.471625
11
2.11453
21
0.471648
0
LINE
8
BLACK
6
CONTINUOUS
10
2.11453
20
0.471648
11
2.11465
21
0.471582
0
LINE
8
BLACK
6
CONTINUOUS
10
2.11465
20
0.471582
11
2.11503
21
0.471515
0
LINE
8
BLACK
6
CONTINUOUS
10
2.11503
20
0.471515
11
2.11562
21
0.471022
0
LINE
8
BLACK
6
CONTINUOUS
10
2.11562
20
0.471022
11
2.11628
21
0.470638
0
LINE
8
BLACK
6
CONTINUOUS
10
2.11628
20
0.470638
11
2.11637
21
0.470388
0
LINE
8
BLACK
6
CONTINUOUS
10
2.11637
20
0.470388
11
2.11658
21
0.470217
0
LINE
8
BLACK
6
CONTINUOUS
10
2.11658
20
0.470217
11
2.11671
21
0.469461
0
LINE
8
BLACK
6
CONTINUOUS
10
2.11671
20
0.469461
11
2.11697
21
0.46874
0
LINE
8
BLACK
6
CONTINUOUS
10
2.11697
20
0.46874
11
2.11697
21
0.31126
0
LINE
8
BLACK
6
CONTINUOUS
10
2.11697
20
0.31126
11
2.1169
21
0.310876
0
LINE
8
BLACK
6
CONTINUOUS
10
2.1169
20
0.310876
11
2.11693
21
0.310747
0
LINE
8
BLACK
6
CONTINUOUS
10
2.11693
20
0.310747
11
2.11686
21
0.310633
0
LINE
8
BLACK
6
CONTINUOUS
10
2.11686
20
0.310633
11
2.11679
21
0.31025
0
LINE
8
BLACK
6
CONTINUOUS
10
2.11679
20
0.31025
11
2.1163
21
0.309662
0
LINE
8
BLACK
6
CONTINUOUS
10
2.1163
20
0.309662
11
2.11592
21
0.308998
0
LINE
8
BLACK
6
CONTINUOUS
10
2.11592
20
0.308998
11
2.11567
21
0.308907
0
LINE
8
BLACK
6
CONTINUOUS
10
2.11567
20
0.308907
11
2.1155
21
0.308703
0
LINE
8
BLACK
6
CONTINUOUS
10
2.1155
20
0.308703
11
2.11474
21
0.308569
0
LINE
8
BLACK
6
CONTINUOUS
10
2.11474
20
0.308569
11
2.11402
21
0.308307
0
LINE
8
BLACK
6
CONTINUOUS
10
2.11402
20
0.308307
11
1.79906
21
0.308307
0
LINE
8
BLACK
6
CONTINUOUS
10
1.79906
20
0.308307
11
1.79868
21
0.308375
0
LINE
8
BLACK
6
CONTINUOUS
10
1.79868
20
0.308375
11
1.79855
21
0.308352
0
LINE
8
BLACK
6
CONTINUOUS
10
1.79855
20
0.308352
11
1.79843
21
0.308418
0
LINE
8
BLACK
6
CONTINUOUS
10
1.79843
20
0.308418
11
1.79805
21
0.308485
0
LINE
8
BLACK
6
CONTINUOUS
10
1.79805
20
0.308485
11
1.79746
21
0.308978
0
LINE
8
BLACK
6
CONTINUOUS
10
1.79746
20
0.308978
11
1.7968
21
0.309362
0
LINE
8
BLACK
6
CONTINUOUS
10
1.7968
20
0.309362
11
1.79671
21
0.309612
0
LINE
8
BLACK
6
CONTINUOUS
10
1.79671
20
0.309612
11
1.7965
21
0.309783
0
LINE
8
BLACK
6
CONTINUOUS
10
1.7965
20
0.309783
11
1.79637
21
0.310539
0
LINE
8
BLACK
6
CONTINUOUS
10
1.79637
20
0.310539
11
1.79611
21
0.31126
0
LINE
8
BLACK
6
CONTINUOUS
10
1.79611
20
0.31126
11
1.79611
21
0.347677
0
LINE
8
BLACK
6
CONTINUOUS
10
1.79611
20
0.347677
11
1.78232
21
0.347677
0
LINE
8
BLACK
6
CONTINUOUS
10
1.78232
20
0.347677
11
1.78232
21
0.294528
0
LINE
8
BLACK
6
CONTINUOUS
10
1.78232
20
0.294528
11
2.13075
21
0.294528
0
LINE
8
BLACK
6
CONTINUOUS
10
2.13075
20
0.294528
11
2.13075
21
0.485472
0
LINE
8
BLACK
6
CONTINUOUS
10
2.13075
20
0.485472
11
1.78232
21
0.485472
0
LINE
8
BLACK
6
CONTINUOUS
10
1.5461
20
0.485472
11
1.5461
21
0.471693
0
LINE
8
BLACK
6
CONTINUOUS
10
1.5461
20
0.471693
11
1.58252
21
0.471693
0
LINE
8
BLACK
6
CONTINUOUS
10
1.58252
20
0.471693
11
1.5829
21
0.471625
0
LINE
8
BLACK
6
CONTINUOUS
10
1.5829
20
0.471625
11
1.58303
21
0.471648
0
LINE
8
BLACK
6
CONTINUOUS
10
1.58303
20
0.471648
11
1.58315
21
0.471582
0
LINE
8
BLACK
6
CONTINUOUS
10
1.58315
20
0.471582
11
1.58353
21
0.471515
0
LINE
8
BLACK
6
CONTINUOUS
10
1.58353
20
0.471515
11
1.58412
21
0.471022
0
LINE
8
BLACK
6
CONTINUOUS
10
1.58412
20
0.471022
11
1.58478
21
0.470638
0
LINE
8
BLACK
6
CONTINUOUS
10
1.58478
20
0.470638
11
1.58487
21
0.470388
0
LINE
8
BLACK
6
CONTINUOUS
10
1.58487
20
0.470388
11
1.58508
21
0.470217
0
LINE
8
BLACK
6
CONTINUOUS
10
1.58508
20
0.470217
11
1.58521
21
0.469461
0
LINE
8
BLACK
6
CONTINUOUS
10
1.58521
20
0.469461
11
1.58547
21
0.46874
0
LINE
8
BLACK
6
CONTINUOUS
10
1.58547
20
0.46874
11
1.58547
21
0.452008
0
LINE
8
BLACK
6
CONTINUOUS
10
1.58547
20
0.452008
11
1.70063
21
0.452008
0
LINE
8
BLACK
6
CONTINUOUS
10
1.70063
20
0.452008
11
1.701
21
0.451942
0
LINE
8
BLACK
6
CONTINUOUS
10
1.701
20
0.451942
11
1.70114
21
0.451967
0
LINE
8
BLACK
6
CONTINUOUS
10
1.70114
20
0.451967
11
1.70127
21
0.451896
0
LINE
8
BLACK
6
CONTINUOUS
10
1.70127
20
0.451896
11
1.70164
21
0.45183
0
LINE
8
BLACK
6
CONTINUOUS
10
1.70164
20
0.45183
11
1.70221
21
0.451349
0
LINE
8
BLACK
6
CONTINUOUS
10
1.70221
20
0.451349
11
1.70289
21
0.450957
0
LINE
8
BLACK
6
CONTINUOUS
10
1.70289
20
0.450957
11
1.70299
21
0.450701
0
LINE
8
BLACK
6
CONTINUOUS
10
1.70299
20
0.450701
11
1.70319
21
0.450531
0
LINE
8
BLACK
6
CONTINUOUS
10
1.70319
20
0.450531
11
1.70332
21
0.449784
0
LINE
8
BLACK
6
CONTINUOUS
10
1.70332
20
0.449784
11
1.70358
21
0.449059
0
LINE
8
BLACK
6
CONTINUOUS
10
1.70358
20
0.449059
11
1.70358
21
0.330941
0
LINE
8
BLACK
6
CONTINUOUS
10
1.70358
20
0.330941
11
1.70352
21
0.330559
0
LINE
8
BLACK
6
CONTINUOUS
10
1.70352
20
0.330559
11
1.70354
21
0.330432
0
LINE
8
BLACK
6
CONTINUOUS
10
1.70354
20
0.330432
11
1.70347
21
0.33032
0
LINE
8
BLACK
6
CONTINUOUS
10
1.70347
20
0.33032
11
1.7034
21
0.329931
0
LINE
8
BLACK
6
CONTINUOUS
10
1.7034
20
0.329931
11
1.7029
21
0.329335
0
LINE
8
BLACK
6
CONTINUOUS
10
1.7029
20
0.329335
11
1.70253
21
0.328683
0
LINE
8
BLACK
6
CONTINUOUS
10
1.70253
20
0.328683
11
1.70228
21
0.328594
0
LINE
8
BLACK
6
CONTINUOUS
10
1.70228
20
0.328594
11
1.70211
21
0.328384
0
LINE
8
BLACK
6
CONTINUOUS
10
1.70211
20
0.328384
11
1.70133
21
0.328247
0
LINE
8
BLACK
6
CONTINUOUS
10
1.70133
20
0.328247
11
1.70063
21
0.327992
0
LINE
8
BLACK
6
CONTINUOUS
10
1.70063
20
0.327992
11
1.58547
21
0.327992
0
LINE
8
BLACK
6
CONTINUOUS
10
1.58547
20
0.327992
11
1.58547
21
0.31126
0
LINE
8
BLACK
6
CONTINUOUS
10
1.58547
20
0.31126
11
1.5854
21
0.310876
0
LINE
8
BLACK
6
CONTINUOUS
10
1.5854
20
0.310876
11
1.58543
21
0.310747
0
LINE
8
BLACK
6
CONTINUOUS
10
1.58543
20
0.310747
11
1.58536
21
0.310633
0
LINE
8
BLACK
6
CONTINUOUS
10
1.58536
20
0.310633
11
1.58529
21
0.31025
0
LINE
8
BLACK
6
CONTINUOUS
10
1.58529
20
0.31025
11
1.5848
21
0.309662
0
LINE
8
BLACK
6
CONTINUOUS
10
1.5848
20
0.309662
11
1.58442
21
0.308998
0
LINE
8
BLACK
6
CONTINUOUS
10
1.58442
20
0.308998
11
1.58417
21
0.308907
0
LINE
8
BLACK
6
CONTINUOUS
10
1.58417
20
0.308907
11
1.584
21
0.308703
0
LINE
8
BLACK
6
CONTINUOUS
10
1.584
20
0.308703
11
1.58324
21
0.308569
0
LINE
8
BLACK
6
CONTINUOUS
10
1.58324
20
0.308569
11
1.58252
21
0.308307
0
LINE
8
BLACK
6
CONTINUOUS
10
1.58252
20
0.308307
11
1.5461
21
0.308307
0
LINE
8
BLACK
6
CONTINUOUS
10
1.5461
20
0.308307
11
1.5461
21
0.294528
0
LINE
8
BLACK
6
CONTINUOUS
10
1.5461
20
0.294528
11
1.77642
21
0.294528
0
LINE
8
BLACK
6
CONTINUOUS
10
1.77642
20
0.294528
11
1.77642
21
0.485472
0
LINE
8
BLACK
6
CONTINUOUS
10
1.77642
20
0.485472
11
1.5461
21
0.485472
0
LINE
8
BLACK
6
CONTINUOUS
10
1.80201
20
0.465787
11
1.80201
21
0.314213
0
LINE
8
BLACK
6
CONTINUOUS
10
1.80201
20
0.314213
11
2.11107
21
0.314213
0
LINE
8
BLACK
6
CONTINUOUS
10
2.11107
20
0.314213
11
2.11107
21
0.465787
0
LINE
8
BLACK
6
CONTINUOUS
10
2.11107
20
0.465787
11
1.80201
21
0.465787
0
LINE
8
BLACK
6
CONTINUOUS
10
1.44767
20
0.465787
11
1.44767
21
0.314213
0
LINE
8
BLACK
6
CONTINUOUS
10
1.44767
20
0.314213
11
1.57957
21
0.314213
0
LINE
8
BLACK
6
CONTINUOUS
10
1.57957
20
0.314213
11
1.57957
21
0.465787
0
LINE
8
BLACK
6
CONTINUOUS
10
1.57957
20
0.465787
11
1.44767
21
0.465787
0
LINE
8
BLACK
6
CONTINUOUS
10
1.58547
20
0.446102
11
1.58547
21
0.333898
0
LINE
8
BLACK
6
CONTINUOUS
10
1.58547
20
0.333898
11
1.69768
21
0.333898
0
LINE
8
BLACK
6
CONTINUOUS
10
1.69768
20
0.333898
11
1.69768
21
0.446102
0
LINE
8
BLACK
6
CONTINUOUS
10
1.69768
20
0.446102
11
1.58547
21
0.446102
0
LINE
8
BLACK
6
CONTINUOUS
10
1.78232
20
0.426417
11
1.78232
21
0.353583
0
LINE
8
BLACK
6
CONTINUOUS
10
1.78232
20
0.353583
11
1.79611
21
0.353583
0
LINE
8
BLACK
6
CONTINUOUS
10
1.79611
20
0.353583
11
1.79611
21
0.426417
0
LINE
8
BLACK
6
CONTINUOUS
10
1.79611
20
0.426417
11
1.78232
21
0.426417
0
LINE
8
BLACK
6
CONTINUOUS
10
2.08093
20
0.17575
11
2.0819
21
0.175692
0
LINE
8
BLACK
6
CONTINUOUS
10
2.0819
20
0.175692
11
2.09047
21
0.172835
0
LINE
8
BLACK
6
CONTINUOUS
10
2.09047
20
0.172835
11
2.09162
21
0.172075
0
LINE
8
BLACK
6
CONTINUOUS
10
2.09162
20
0.172075
11
2.09281
21
0.171386
0
LINE
8
BLACK
6
CONTINUOUS
10
2.09281
20
0.171386
11
2.09853
21
0.165671
0
LINE
8
BLACK
6
CONTINUOUS
10
2.09853
20
0.165671
11
2.09922
21
0.164477
0
LINE
8
BLACK
6
CONTINUOUS
10
2.09922
20
0.164477
11
2.09998
21
0.163326
0
LINE
8
BLACK
6
CONTINUOUS
10
2.09998
20
0.163326
11
2.10283
21
0.154755
0
LINE
8
BLACK
6
CONTINUOUS
10
2.10283
20
0.154755
11
2.10289
21
0.15379
0
LINE
8
BLACK
6
CONTINUOUS
10
2.10289
20
0.15379
11
2.10314
21
0.152857
0
LINE
8
BLACK
6
CONTINUOUS
10
2.10314
20
0.152857
11
2.10314
21
0.147143
0
LINE
8
BLACK
6
CONTINUOUS
10
2.10314
20
0.147143
11
2.10234
21
0.144143
0
LINE
8
BLACK
6
CONTINUOUS
10
2.10234
20
0.144143
11
2.10014
21
0.141947
0
LINE
8
BLACK
6
CONTINUOUS
10
2.10014
20
0.141947
11
2.09714
21
0.141143
0
LINE
8
BLACK
6
CONTINUOUS
10
2.09714
20
0.141143
11
2.09414
21
0.141947
0
LINE
8
BLACK
6
CONTINUOUS
10
2.09414
20
0.141947
11
2.09195
21
0.144143
0
LINE
8
BLACK
6
CONTINUOUS
10
2.09195
20
0.144143
11
2.09114
21
0.147143
0
LINE
8
BLACK
6
CONTINUOUS
10
2.09114
20
0.147143
11
2.09114
21
0.151884
0
LINE
8
BLACK
6
CONTINUOUS
10
2.09114
20
0.151884
11
2.08904
21
0.158187
0
LINE
8
BLACK
6
CONTINUOUS
10
2.08904
20
0.158187
11
2.08533
21
0.161899
0
LINE
8
BLACK
6
CONTINUOUS
10
2.08533
20
0.161899
11
2.07903
21
0.164
0
LINE
8
BLACK
6
CONTINUOUS
10
2.07903
20
0.164
11
2.03714
21
0.164
0
LINE
8
BLACK
6
CONTINUOUS
10
2.03714
20
0.164
11
2.03414
21
0.164804
0
LINE
8
BLACK
6
CONTINUOUS
10
2.03414
20
0.164804
11
2.03195
21
0.167
0
LINE
8
BLACK
6
CONTINUOUS
10
2.03195
20
0.167
11
2.03114
21
0.17
0
LINE
8
BLACK
6
CONTINUOUS
10
2.03114
20
0.17
11
2.03195
21
0.173
0
LINE
8
BLACK
6
CONTINUOUS
10
2.03195
20
0.173
11
2.03414
21
0.175196
0
LINE
8
BLACK
6
CONTINUOUS
10
2.03414
20
0.175196
11
2.03714
21
0.176
0
LINE
8
BLACK
6
CONTINUOUS
10
2.03714
20
0.176
11
2.08
21
0.176
0
LINE
8
BLACK
6
CONTINUOUS
10
2.08
20
0.176
11
2.08093
21
0.17575
0
LINE
8
BLACK
6
CONTINUOUS
10
2.08705
20
0.235643
11
2.0884
21
0.235367
0
LINE
8
BLACK
6
CONTINUOUS
10
2.0884
20
0.235367
11
2.09411
21
0.232509
0
LINE
8
BLACK
6
CONTINUOUS
10
2.09411
20
0.232509
11
2.09483
21
0.231869
0
LINE
8
BLACK
6
CONTINUOUS
10
2.09483
20
0.231869
11
2.09567
21
0.231386
0
LINE
8
BLACK
6
CONTINUOUS
10
2.09567
20
0.231386
11
2.09853
21
0.228528
0
LINE
8
BLACK
6
CONTINUOUS
10
2.09853
20
0.228528
11
2.09901
21
0.227692
0
LINE
8
BLACK
6
CONTINUOUS
10
2.09901
20
0.227692
11
2.09965
21
0.226969
0
LINE
8
BLACK
6
CONTINUOUS
10
2.09965
20
0.226969
11
2.10251
21
0.221255
0
LINE
8
BLACK
6
CONTINUOUS
10
2.10251
20
0.221255
11
2.10279
21
0.219904
0
LINE
8
BLACK
6
CONTINUOUS
10
2.10279
20
0.219904
11
2.10314
21
0.218571
0
LINE
8
BLACK
6
CONTINUOUS
10
2.10314
20
0.218571
11
2.10314
21
0.201429
0
LINE
8
BLACK
6
CONTINUOUS
10
2.10314
20
0.201429
11
2.10279
21
0.200096
0
LINE
8
BLACK
6
CONTINUOUS
10
2.10279
20
0.200096
11
2.10251
21
0.198745
0
LINE
8
BLACK
6
CONTINUOUS
10
2.10251
20
0.198745
11
2.09965
21
0.193031
0
LINE
8
BLACK
6
CONTINUOUS
10
2.09965
20
0.193031
11
2.09901
21
0.192308
0
LINE
8
BLACK
6
CONTINUOUS
10
2.09901
20
0.192308
11
2.09853
21
0.191472
0
LINE
8
BLACK
6
CONTINUOUS
10
2.09853
20
0.191472
11
2.09567
21
0.188614
0
LINE
8
BLACK
6
CONTINUOUS
10
2.09567
20
0.188614
11
2.09298
21
0.187062
0
LINE
8
BLACK
6
CONTINUOUS
10
2.09298
20
0.187062
11
2.08988
21
0.187062
0
LINE
8
BLACK
6
CONTINUOUS
10
2.08988
20
0.187062
11
2.08719
21
0.188615
0
LINE
8
BLACK
6
CONTINUOUS
10
2.08719
20
0.188615
11
2.08563
21
0.191304
0
LINE
8
BLACK
6
CONTINUOUS
10
2.08563
20
0.191304
11
2.08563
21
0.19441
0
LINE
8
BLACK
6
CONTINUOUS
10
2.08563
20
0.19441
11
2.08719
21
0.1971
0
LINE
8
BLACK
6
CONTINUOUS
10
2.08719
20
0.1971
11
2.08935
21
0.199268
0
LINE
8
BLACK
6
CONTINUOUS
10
2.08935
20
0.199268
11
2.09114
21
0.202845
0
LINE
8
BLACK
6
CONTINUOUS
10
2.09114
20
0.202845
11
2.09114
21
0.217155
0
LINE
8
BLACK
6
CONTINUOUS
10
2.09114
20
0.217155
11
2.08935
21
0.220732
0
LINE
8
BLACK
6
CONTINUOUS
10
2.08935
20
0.220732
11
2.08787
21
0.222212
0
LINE
8
BLACK
6
CONTINUOUS
10
2.08787
20
0.222212
11
2.0843
21
0.224
0
LINE
8
BLACK
6
CONTINUOUS
10
2.0843
20
0.224
11
2.07284
21
0.224
0
LINE
8
BLACK
6
CONTINUOUS
10
2.07284
20
0.224
11
2.06927
21
0.222212
0
LINE
8
BLACK
6
CONTINUOUS
10
2.06927
20
0.222212
11
2.06779
21
0.220732
0
LINE
8
BLACK
6
CONTINUOUS
10
2.06779
20
0.220732
11
2.066
21
0.217155
0
LINE
8
BLACK
6
CONTINUOUS
10
2.066
20
0.217155
11
2.066
21
0.21
0
LINE
8
BLACK
6
CONTINUOUS
10
2.066
20
0.21
11
2.06585
21
0.209427
0
LINE
8
BLACK
6
CONTINUOUS
10
2.06585
20
0.209427
11
2.06589
21
0.208836
0
LINE
8
BLACK
6
CONTINUOUS
10
2.06589
20
0.208836
11
2.06545
21
0.207952
0
LINE
8
BLACK
6
CONTINUOUS
10
2.06545
20
0.207952
11
2.0652
21
0.207
0
LINE
8
BLACK
6
CONTINUOUS
10
2.0652
20
0.207
11
2.06478
21
0.206581
0
LINE
8
BLACK
6
CONTINUOUS
10
2.06478
20
0.206581
11
2.06452
21
0.206049
0
LINE
8
BLACK
6
CONTINUOUS
10
2.06452
20
0.206049
11
2.0637
21
0.205501
0
LINE
8
BLACK
6
CONTINUOUS
10
2.0637
20
0.205501
11
2.063
21
0.204804
0
LINE
8
BLACK
6
CONTINUOUS
10
2.063
20
0.204804
11
2.06243
21
0.20465
0
LINE
8
BLACK
6
CONTINUOUS
10
2.06243
20
0.20465
11
2.06193
21
0.204321
0
LINE
8
BLACK
6
CONTINUOUS
10
2.06193
20
0.204321
11
2.06095
21
0.204255
0
LINE
8
BLACK
6
CONTINUOUS
10
2.06095
20
0.204255
11
2.06
21
0.204
0
LINE
8
BLACK
6
CONTINUOUS
10
2.06
20
0.204
11
2.05943
21
0.204153
0
LINE
8
BLACK
6
CONTINUOUS
10
2.05943
20
0.204153
11
2.05884
21
0.204114
0
LINE
8
BLACK
6
CONTINUOUS
10
2.05884
20
0.204114
11
2.05795
21
0.204549
0
LINE
8
BLACK
6
CONTINUOUS
10
2.05795
20
0.204549
11
2.057
21
0.204804
0
LINE
8
BLACK
6
CONTINUOUS
10
2.057
20
0.204804
11
2.05658
21
0.205223
0
LINE
8
BLACK
6
CONTINUOUS
10
2.05658
20
0.205223
11
2.05605
21
0.205485
0
LINE
8
BLACK
6
CONTINUOUS
10
2.05605
20
0.205485
11
2.04314
21
0.216777
0
LINE
8
BLACK
6
CONTINUOUS
10
2.04314
20
0.216777
11
2.04314
21
0.192857
0
LINE
8
BLACK
6
CONTINUOUS
10
2.04314
20
0.192857
11
2.04234
21
0.189857
0
LINE
8
BLACK
6
CONTINUOUS
10
2.04234
20
0.189857
11
2.04014
21
0.187661
0
LINE
8
BLACK
6
CONTINUOUS
10
2.04014
20
0.187661
11
2.03714
21
0.186857
0
LINE
8
BLACK
6
CONTINUOUS
10
2.03714
20
0.186857
11
2.03414
21
0.187661
0
LINE
8
BLACK
6
CONTINUOUS
10
2.03414
20
0.187661
11
2.03195
21
0.189857
0
LINE
8
BLACK
6
CONTINUOUS
10
2.03195
20
0.189857
11
2.03114
21
0.192857
0
LINE
8
BLACK
6
CONTINUOUS
10
2.03114
20
0.192857
11
2.03114
21
0.23
0
LINE
8
BLACK
6
CONTINUOUS
10
2.03114
20
0.23
11
2.0313
21
0.230573
0
LINE
8
BLACK
6
CONTINUOUS
10
2.0313
20
0.230573
11
2.03126
21
0.231164
0
LINE
8
BLACK
6
CONTINUOUS
10
2.03126
20
0.231164
11
2.03169
21
0.232048
0
LINE
8
BLACK
6
CONTINUOUS
10
2.03169
20
0.232048
11
2.03195
21
0.233
0
LINE
8
BLACK
6
CONTINUOUS
10
2.03195
20
0.233
11
2.03237
21
0.233419
0
LINE
8
BLACK
6
CONTINUOUS
10
2.03237
20
0.233419
11
2.03263
21
0.233951
0
LINE
8
BLACK
6
CONTINUOUS
10
2.03263
20
0.233951
11
2.03345
21
0.234499
0
LINE
8
BLACK
6
CONTINUOUS
10
2.03345
20
0.234499
11
2.03414
21
0.235196
0
LINE
8
BLACK
6
CONTINUOUS
10
2.03414
20
0.235196
11
2.03472
21
0.23535
0
LINE
8
BLACK
6
CONTINUOUS
10
2.03472
20
0.23535
11
2.03521
21
0.235679
0
LINE
8
BLACK
6
CONTINUOUS
10
2.03521
20
0.235679
11
2.03619
21
0.235745
0
LINE
8
BLACK
6
CONTINUOUS
10
2.03619
20
0.235745
11
2.03714
21
0.236
0
LINE
8
BLACK
6
CONTINUOUS
10
2.03714
20
0.236
11
2.03772
21
0.235847
0
LINE
8
BLACK
6
CONTINUOUS
10
2.03772
20
0.235847
11
2.03831
21
0.235886
0
LINE
8
BLACK
6
CONTINUOUS
10
2.03831
20
0.235886
11
2.03919
21
0.235451
0
LINE
8
BLACK
6
CONTINUOUS
10
2.03919
20
0.235451
11
2.04014
21
0.235196
0
LINE
8
BLACK
6
CONTINUOUS
10
2.04014
20
0.235196
11
2.04056
21
0.234777
0
LINE
8
BLACK
6
CONTINUOUS
10
2.04056
20
0.234777
11
2.04109
21
0.234515
0
LINE
8
BLACK
6
CONTINUOUS
10
2.04109
20
0.234515
11
2.05513
21
0.222238
0
LINE
8
BLACK
6
CONTINUOUS
10
2.05513
20
0.222238
11
2.05749
21
0.226969
0
LINE
8
BLACK
6
CONTINUOUS
10
2.05749
20
0.226969
11
2.05813
21
0.227692
0
LINE
8
BLACK
6
CONTINUOUS
10
2.05813
20
0.227692
11
2.05861
21
0.228528
0
LINE
8
BLACK
6
CONTINUOUS
10
2.05861
20
0.228528
11
2.06147
21
0.231386
0
LINE
8
BLACK
6
CONTINUOUS
10
2.06147
20
0.231386
11
2.06231
21
0.231869
0
LINE
8
BLACK
6
CONTINUOUS
10
2.06231
20
0.231869
11
2.06303
21
0.232509
0
LINE
8
BLACK
6
CONTINUOUS
10
2.06303
20
0.232509
11
2.06875
21
0.235367
0
LINE
8
BLACK
6
CONTINUOUS
10
2.06875
20
0.235367
11
2.0701
21
0.235643
0
LINE
8
BLACK
6
CONTINUOUS
10
2.0701
20
0.235643
11
2.07143
21
0.236
0
LINE
8
BLACK
6
CONTINUOUS
10
2.07143
20
0.236
11
2.08571
21
0.236
0
LINE
8
BLACK
6
CONTINUOUS
10
2.08571
20
0.236
11
2.08705
21
0.235643
0
LINE
8
BLACK
6
CONTINUOUS
10
1.5631
20
0.25196
11
1.56334
21
0.252002
0
LINE
8
BLACK
6
CONTINUOUS
10
1.56334
20
0.252002
11
1.56356
21
0.25188
0
LINE
8
BLACK
6
CONTINUOUS
10
1.56356
20
0.25188
11
1.56384
21
0.25183
0
LINE
8
BLACK
6
CONTINUOUS
10
1.56384
20
0.25183
11
1.56428
21
0.251463
0
LINE
8
BLACK
6
CONTINUOUS
10
1.56428
20
0.251463
11
1.56509
21
0.250992
0
LINE
8
BLACK
6
CONTINUOUS
10
1.56509
20
0.250992
11
1.5652
21
0.250685
0
LINE
8
BLACK
6
CONTINUOUS
10
1.5652
20
0.250685
11
1.56539
21
0.250531
0
LINE
8
BLACK
6
CONTINUOUS
10
1.56539
20
0.250531
11
1.56551
21
0.249852
0
LINE
8
BLACK
6
CONTINUOUS
10
1.56551
20
0.249852
11
1.56578
21
0.249094
0
LINE
8
BLACK
6
CONTINUOUS
10
1.56578
20
0.249094
11
1.56578
21
0.130906
0
LINE
8
BLACK
6
CONTINUOUS
10
1.56578
20
0.130906
11
1.56572
21
0.130542
0
LINE
8
BLACK
6
CONTINUOUS
10
1.56572
20
0.130542
11
1.56574
21
0.130432
0
LINE
8
BLACK
6
CONTINUOUS
10
1.56574
20
0.130432
11
1.56568
21
0.130336
0
LINE
8
BLACK
6
CONTINUOUS
10
1.56568
20
0.130336
11
1.56561
21
0.129896
0
LINE
8
BLACK
6
CONTINUOUS
10
1.56561
20
0.129896
11
1.56504
21
0.129221
0
LINE
8
BLACK
6
CONTINUOUS
10
1.56504
20
0.129221
11
1.56473
21
0.128683
0
LINE
8
BLACK
6
CONTINUOUS
10
1.56473
20
0.128683
11
1.56453
21
0.128609
0
LINE
8
BLACK
6
CONTINUOUS
10
1.56453
20
0.128609
11
1.56431
21
0.128348
0
LINE
8
BLACK
6
CONTINUOUS
10
1.56431
20
0.128348
11
1.56334
21
0.128178
0
LINE
8
BLACK
6
CONTINUOUS
10
1.56334
20
0.128178
11
1.56283
21
0.127992
0
LINE
8
BLACK
6
CONTINUOUS
10
1.56283
20
0.127992
11
1.46441
21
0.127992
0
LINE
8
BLACK
6
CONTINUOUS
10
1.46441
20
0.127992
11
1.46414
21
0.12804
0
LINE
8
BLACK
6
CONTINUOUS
10
1.46414
20
0.12804
11
1.4639
21
0.127998
0
LINE
8
BLACK
6
CONTINUOUS
10
1.4639
20
0.127998
11
1.46368
21
0.12812
0
LINE
8
BLACK
6
CONTINUOUS
10
1.46368
20
0.12812
11
1.4634
21
0.12817
0
LINE
8
BLACK
6
CONTINUOUS
10
1.4634
20
0.12817
11
1.46296
21
0.128537
0
LINE
8
BLACK
6
CONTINUOUS
10
1.46296
20
0.128537
11
1.46215
21
0.129008
0
LINE
8
BLACK
6
CONTINUOUS
10
1.46215
20
0.129008
11
1.46204
21
0.129315
0
LINE
8
BLACK
6
CONTINUOUS
10
1.46204
20
0.129315
11
1.46185
21
0.129469
0
LINE
8
BLACK
6
CONTINUOUS
10
1.46185
20
0.129469
11
1.46173
21
0.130148
0
LINE
8
BLACK
6
CONTINUOUS
10
1.46173
20
0.130148
11
1.46146
21
0.130906
0
LINE
8
BLACK
6
CONTINUOUS
10
1.46146
20
0.130906
11
1.46146
21
0.249094
0
LINE
8
BLACK
6
CONTINUOUS
10
1.46146
20
0.249094
11
1.46152
21
0.249458
0
LINE
8
BLACK
6
CONTINUOUS
10
1.46152
20
0.249458
11
1.4615
21
0.249568
0
LINE
8
BLACK
6
CONTINUOUS
10
1.4615
20
0.249568
11
1.46156
21
0.249664
0
LINE
8
BLACK
6
CONTINUOUS
10
1.46156
20
0.249664
11
1.46163
21
0.250104
0
LINE
8
BLACK
6
CONTINUOUS
10
1.46163
20
0.250104
11
1.4622
21
0.250779
0
LINE
8
BLACK
6
CONTINUOUS
10
1.4622
20
0.250779
11
1.46251
21
0.251317
0
LINE
8
BLACK
6
CONTINUOUS
10
1.46251
20
0.251317
11
1.46271
21
0.251391
0
LINE
8
BLACK
6
CONTINUOUS
10
1.46271
20
0.251391
11
1.46293
21
0.251652
0
LINE
8
BLACK
6
CONTINUOUS
10
1.46293
20
0.251652
11
1.4639
21
0.251822
0
LINE
8
BLACK
6
CONTINUOUS
10
1.4639
20
0.251822
11
1.46441
21
0.252008
0
LINE
8
BLACK
6
CONTINUOUS
10
1.46441
20
0.252008
11
1.56283
21
0.252008
0
LINE
8
BLACK
6
CONTINUOUS
10
1.56283
20
0.252008
11
1.5631
21
0.25196
0
LINE
8
BLACK
6
CONTINUOUS
10
1.46736
20
0.246102
11
1.46736
21
0.133898
0
LINE
8
BLACK
6
CONTINUOUS
10
1.46736
20
0.133898
11
1.55988
21
0.133898
0
LINE
8
BLACK
6
CONTINUOUS
10
1.55988
20
0.133898
11
1.55988
21
0.246102
0
LINE
8
BLACK
6
CONTINUOUS
10
1.55988
20
0.246102
11
1.46736
21
0.246102
0
LINE
8
BLACK
6
CONTINUOUS
10
2.08093
20
0.37575
11
2.0819
21
0.375692
0
LINE
8
BLACK
6
CONTINUOUS
10
2.0819
20
0.375692
11
2.09047
21
0.372835
0
LINE
8
BLACK
6
CONTINUOUS
10
2.09047
20
0.372835
11
2.09162
21
0.372075
0
LINE
8
BLACK
6
CONTINUOUS
10
2.09162
20
0.372075
11
2.09281
21
0.371386
0
LINE
8
BLACK
6
CONTINUOUS
10
2.09281
20
0.371386
11
2.09853
21
0.365671
0
LINE
8
BLACK
6
CONTINUOUS
10
2.09853
20
0.365671
11
2.09922
21
0.364477
0
LINE
8
BLACK
6
CONTINUOUS
10
2.09922
20
0.364477
11
2.09998
21
0.363326
0
LINE
8
BLACK
6
CONTINUOUS
10
2.09998
20
0.363326
11
2.10283
21
0.354755
0
LINE
8
BLACK
6
CONTINUOUS
10
2.10283
20
0.354755
11
2.10289
21
0.35379
0
LINE
8
BLACK
6
CONTINUOUS
10
2.10289
20
0.35379
11
2.10314
21
0.352857
0
LINE
8
BLACK
6
CONTINUOUS
10
2.10314
20
0.352857
11
2.10314
21
0.347143
0
LINE
8
BLACK
6
CONTINUOUS
10
2.10314
20
0.347143
11
2.10234
21
0.344143
0
LINE
8
BLACK
6
CONTINUOUS
10
2.10234
20
0.344143
11
2.10014
21
0.341947
0
LINE
8
BLACK
6
CONTINUOUS
10
2.10014
20
0.341947
11
2.09714
21
0.341143
0
LINE
8
BLACK
6
CONTINUOUS
10
2.09714
20
0.341143
11
2.09414
21
0.341947
0
LINE
8
BLACK
6
CONTINUOUS
10
2.09414
20
0.341947
11
2.09195
21
0.344143
0
LINE
8
BLACK
6
CONTINUOUS
10
2.09195
20
0.344143
11
2.09114
21
0.347143
0
LINE
8
BLACK
6
CONTINUOUS
10
2.09114
20
0.347143
11
2.09114
21
0.351884
0
LINE
8
BLACK
6
CONTINUOUS
10
2.09114
20
0.351884
11
2.08904
21
0.358187
0
LINE
8
BLACK
6
CONTINUOUS
10
2.08904
20
0.358187
11
2.08533
21
0.361899
0
LINE
8
BLACK
6
CONTINUOUS
10
2.08533
20
0.361899
11
2.07903
21
0.364
0
LINE
8
BLACK
6
CONTINUOUS
10
2.07903
20
0.364
11
2.03714
21
0.364
0
LINE
8
BLACK
6
CONTINUOUS
10
2.03714
20
0.364
11
2.03414
21
0.364804
0
LINE
8
BLACK
6
CONTINUOUS
10
2.03414
20
0.364804
11
2.03195
21
0.367
0
LINE
8
BLACK
6
CONTINUOUS
10
2.03195
20
0.367
11
2.03114
21
0.37
0
LINE
8
BLACK
6
CONTINUOUS
10
2.03114
20
0.37
11
2.03195
21
0.373
0
LINE
8
BLACK
6
CONTINUOUS
10
2.03195
20
0.373
11
2.03414
21
0.375196
0
LINE
8
BLACK
6
CONTINUOUS
10
2.03414
20
0.375196
11
2.03714
21
0.376
0
LINE
8
BLACK
6
CONTINUOUS
10
2.03714
20
0.376
11
2.08
21
0.376
0
LINE
8
BLACK
6
CONTINUOUS
10
2.08
20
0.376
11
2.08093
21
0.37575
0
LINE
8
BLACK
6
CONTINUOUS
10
2.05522
20
0.43575
11
2.05618
21
0.435692
0
LINE
8
BLACK
6
CONTINUOUS
10
2.05618
20
0.435692
11
2.06475
21
0.432835
0
LINE
8
BLACK
6
CONTINUOUS
10
2.06475
20
0.432835
11
2.06591
21
0.432075
0
LINE
8
BLACK
6
CONTINUOUS
10
2.06591
20
0.432075
11
2.0671
21
0.431386
0
LINE
8
BLACK
6
CONTINUOUS
10
2.0671
20
0.431386
11
2.09114
21
0.407342
0
LINE
8
BLACK
6
CONTINUOUS
10
2.09114
20
0.407342
11
2.09114
21
0.43
0
LINE
8
BLACK
6
CONTINUOUS
10
2.09114
20
0.43
11
2.09195
21
0.433
0
LINE
8
BLACK
6
CONTINUOUS
10
2.09195
20
0.433
11
2.09414
21
0.435196
0
LINE
8
BLACK
6
CONTINUOUS
10
2.09414
20
0.435196
11
2.09714
21
0.436
0
LINE
8
BLACK
6
CONTINUOUS
10
2.09714
20
0.436
11
2.10014
21
0.435196
0
LINE
8
BLACK
6
CONTINUOUS
10
2.10014
20
0.435196
11
2.10234
21
0.433
0
LINE
8
BLACK
6
CONTINUOUS
10
2.10234
20
0.433
11
2.10314
21
0.43
0
LINE
8
BLACK
6
CONTINUOUS
10
2.10314
20
0.43
11
2.10314
21
0.392857
0
LINE
8
BLACK
6
CONTINUOUS
10
2.10314
20
0.392857
11
2.10294
21
0.392094
0
LINE
8
BLACK
6
CONTINUOUS
10
2.10294
20
0.392094
11
2.10294
21
0.391304
0
LINE
8
BLACK
6
CONTINUOUS
10
2.10294
20
0.391304
11
2.10254
21
0.39062
0
LINE
8
BLACK
6
CONTINUOUS
10
2.10254
20
0.39062
11
2.10234
21
0.389857
0
LINE
8
BLACK
6
CONTINUOUS
10
2.10234
20
0.389857
11
2.10178
21
0.389299
0
LINE
8
BLACK
6
CONTINUOUS
10
2.10178
20
0.389299
11
2.10139
21
0.388615
0
LINE
8
BLACK
6
CONTINUOUS
10
2.10139
20
0.388615
11
2.1007
21
0.38822
0
LINE
8
BLACK
6
CONTINUOUS
10
2.1007
20
0.38822
11
2.10014
21
0.387661
0
LINE
8
BLACK
6
CONTINUOUS
10
2.10014
20
0.387661
11
2.09938
21
0.387457
0
LINE
8
BLACK
6
CONTINUOUS
10
2.09938
20
0.387457
11
2.0987
21
0.387062
0
LINE
8
BLACK
6
CONTINUOUS
10
2.0987
20
0.387062
11
2.09791
21
0.387062
0
LINE
8
BLACK
6
CONTINUOUS
10
2.09791
20
0.387062
11
2.09714
21
0.386857
0
LINE
8
BLACK
6
CONTINUOUS
10
2.09714
20
0.386857
11
2.09638
21
0.387062
0
LINE
8
BLACK
6
CONTINUOUS
10
2.09638
20
0.387062
11
2.09559
21
0.387062
0
LINE
8
BLACK
6
CONTINUOUS
10
2.09559
20
0.387062
11
2.09491
21
0.387457
0
LINE
8
BLACK
6
CONTINUOUS
10
2.09491
20
0.387457
11
2.09414
21
0.387661
0
LINE
8
BLACK
6
CONTINUOUS
10
2.09414
20
0.387661
11
2.09358
21
0.38822
0
LINE
8
BLACK
6
CONTINUOUS
10
2.09358
20
0.38822
11
2.0929
21
0.388615
0
LINE
8
BLACK
6
CONTINUOUS
10
2.0929
20
0.388615
11
2.05962
21
0.421899
0
LINE
8
BLACK
6
CONTINUOUS
10
2.05962
20
0.421899
11
2.05331
21
0.424
0
LINE
8
BLACK
6
CONTINUOUS
10
2.05331
20
0.424
11
2.04999
21
0.424
0
LINE
8
BLACK
6
CONTINUOUS
10
2.04999
20
0.424
11
2.04641
21
0.422212
0
LINE
8
BLACK
6
CONTINUOUS
10
2.04641
20
0.422212
11
2.04493
21
0.420732
0
LINE
8
BLACK
6
CONTINUOUS
10
2.04493
20
0.420732
11
2.04314
21
0.417155
0
LINE
8
BLACK
6
CONTINUOUS
10
2.04314
20
0.417155
11
2.04314
21
0.405702
0
LINE
8
BLACK
6
CONTINUOUS
10
2.04314
20
0.405702
11
2.04493
21
0.402126
0
LINE
8
BLACK
6
CONTINUOUS
10
2.04493
20
0.402126
11
2.0471
21
0.399957
0
LINE
8
BLACK
6
CONTINUOUS
10
2.0471
20
0.399957
11
2.04865
21
0.397267
0
LINE
8
BLACK
6
CONTINUOUS
10
2.04865
20
0.397267
11
2.04865
21
0.394161
0
LINE
8
BLACK
6
CONTINUOUS
10
2.04865
20
0.394161
11
2.0471
21
0.391472
0
LINE
8
BLACK
6
CONTINUOUS
10
2.0471
20
0.391472
11
2.04441
21
0.389919
0
LINE
8
BLACK
6
CONTINUOUS
10
2.04441
20
0.389919
11
2.0413
21
0.389919
0
LINE
8
BLACK
6
CONTINUOUS
10
2.0413
20
0.389919
11
2.03861
21
0.391472
0
LINE
8
BLACK
6
CONTINUOUS
10
2.03861
20
0.391472
11
2.03576
21
0.394329
0
LINE
8
BLACK
6
CONTINUOUS
10
2.03576
20
0.394329
11
2.03527
21
0.395165
0
LINE
8
BLACK
6
CONTINUOUS
10
2.03527
20
0.395165
11
2.03463
21
0.395888
0
LINE
8
BLACK
6
CONTINUOUS
10
2.03463
20
0.395888
11
2.03178
21
0.401602
0
LINE
8
BLACK
6
CONTINUOUS
10
2.03178
20
0.401602
11
2.0315
21
0.402954
0
LINE
8
BLACK
6
CONTINUOUS
10
2.0315
20
0.402954
11
2.03114
21
0.404286
0
LINE
8
BLACK
6
CONTINUOUS
10
2.03114
20
0.404286
11
2.03114
21
0.418571
0
LINE
8
BLACK
6
CONTINUOUS
10
2.03114
20
0.418571
11
2.0315
21
0.419903
0
LINE
8
BLACK
6
CONTINUOUS
10
2.0315
20
0.419903
11
2.03178
21
0.421255
0
LINE
8
BLACK
6
CONTINUOUS
10
2.03178
20
0.421255
11
2.03463
21
0.426969
0
LINE
8
BLACK
6
CONTINUOUS
10
2.03463
20
0.426969
11
2.03527
21
0.427692
0
LINE
8
BLACK
6
CONTINUOUS
10
2.03527
20
0.427692
11
2.03576
21
0.428528
0
LINE
8
BLACK
6
CONTINUOUS
10
2.03576
20
0.428528
11
2.03861
21
0.431386
0
LINE
8
BLACK
6
CONTINUOUS
10
2.03861
20
0.431386
11
2.03945
21
0.431869
0
LINE
8
BLACK
6
CONTINUOUS
10
2.03945
20
0.431869
11
2.04017
21
0.432509
0
LINE
8
BLACK
6
CONTINUOUS
10
2.04017
20
0.432509
11
2.04589
21
0.435367
0
LINE
8
BLACK
6
CONTINUOUS
10
2.04589
20
0.435367
11
2.04724
21
0.435643
0
LINE
8
BLACK
6
CONTINUOUS
10
2.04724
20
0.435643
11
2.04857
21
0.436
0
LINE
8
BLACK
6
CONTINUOUS
10
2.04857
20
0.436
11
2.05429
21
0.436
0
LINE
8
BLACK
6
CONTINUOUS
10
2.05429
20
0.436
11
2.05522
21
0.43575
0
LINE
8
BLACK
6
CONTINUOUS
10
1.5631
20
0.45196
11
1.56334
21
0.452002
0
LINE
8
BLACK
6
CONTINUOUS
10
1.56334
20
0.452002
11
1.56356
21
0.45188
0
LINE
8
BLACK
6
CONTINUOUS
10
1.56356
20
0.45188
11
1.56384
21
0.45183
0
LINE
8
BLACK
6
CONTINUOUS
10
1.56384
20
0.45183
11
1.56428
21
0.451463
0
LINE
8
BLACK
6
CONTINUOUS
10
1.56428
20
0.451463
11
1.56509
21
0.450992
0
LINE
8
BLACK
6
CONTINUOUS
10
1.56509
20
0.450992
11
1.5652
21
0.450685
0
LINE
8
BLACK
6
CONTINUOUS
10
1.5652
20
0.450685
11
1.56539
21
0.450531
0
LINE
8
BLACK
6
CONTINUOUS
10
1.56539
20
0.450531
11
1.56551
21
0.449852
0
LINE
8
BLACK
6
CONTINUOUS
10
1.56551
20
0.449852
11
1.56578
21
0.449094
0
LINE
8
BLACK
6
CONTINUOUS
10
1.56578
20
0.449094
11
1.56578
21
0.330906
0
LINE
8
BLACK
6
CONTINUOUS
10
1.56578
20
0.330906
11
1.56572
21
0.330542
0
LINE
8
BLACK
6
CONTINUOUS
10
1.56572
20
0.330542
11
1.56574
21
0.330432
0
LINE
8
BLACK
6
CONTINUOUS
10
1.56574
20
0.330432
11
1.56568
21
0.330336
0
LINE
8
BLACK
6
CONTINUOUS
10
1.56568
20
0.330336
11
1.56561
21
0.329896
0
LINE
8
BLACK
6
CONTINUOUS
10
1.56561
20
0.329896
11
1.56504
21
0.329221
0
LINE
8
BLACK
6
CONTINUOUS
10
1.56504
20
0.329221
11
1.56473
21
0.328683
0
LINE
8
BLACK
6
CONTINUOUS
10
1.56473
20
0.328683
11
1.56453
21
0.328609
0
LINE
8
BLACK
6
CONTINUOUS
10
1.56453
20
0.328609
11
1.56431
21
0.328348
0
LINE
8
BLACK
6
CONTINUOUS
10
1.56431
20
0.328348
11
1.56334
21
0.328178
0
LINE
8
BLACK
6
CONTINUOUS
10
1.56334
20
0.328178
11
1.56283
21
0.327992
0
LINE
8
BLACK
6
CONTINUOUS
10
1.56283
20
0.327992
11
1.46441
21
0.327992
0
LINE
8
BLACK
6
CONTINUOUS
10
1.46441
20
0.327992
11
1.46414
21
0.32804
0
LINE
8
BLACK
6
CONTINUOUS
10
1.46414
20
0.32804
11
1.4639
21
0.327998
0
LINE
8
BLACK
6
CONTINUOUS
10
1.4639
20
0.327998
11
1.46368
21
0.32812
0
LINE
8
BLACK
6
CONTINUOUS
10
1.46368
20
0.32812
11
1.4634
21
0.32817
0
LINE
8
BLACK
6
CONTINUOUS
10
1.4634
20
0.32817
11
1.46296
21
0.328537
0
LINE
8
BLACK
6
CONTINUOUS
10
1.46296
20
0.328537
11
1.46215
21
0.329008
0
LINE
8
BLACK
6
CONTINUOUS
10
1.46215
20
0.329008
11
1.46204
21
0.329315
0
LINE
8
BLACK
6
CONTINUOUS
10
1.46204
20
0.329315
11
1.46185
21
0.329469
0
LINE
8
BLACK
6
CONTINUOUS
10
1.46185
20
0.329469
11
1.46173
21
0.330148
0
LINE
8
BLACK
6
CONTINUOUS
10
1.46173
20
0.330148
11
1.46146
21
0.330906
0
LINE
8
BLACK
6
CONTINUOUS
10
1.46146
20
0.330906
11
1.46146
21
0.449094
0
LINE
8
BLACK
6
CONTINUOUS
10
1.46146
20
0.449094
11
1.46152
21
0.449458
0
LINE
8
BLACK
6
CONTINUOUS
10
1.46152
20
0.449458
11
1.4615
21
0.449568
0
LINE
8
BLACK
6
CONTINUOUS
10
1.4615
20
0.449568
11
1.46156
21
0.449664
0
LINE
8
BLACK
6
CONTINUOUS
10
1.46156
20
0.449664
11
1.46163
21
0.450104
0
LINE
8
BLACK
6
CONTINUOUS
10
1.46163
20
0.450104
11
1.4622
21
0.450779
0
LINE
8
BLACK
6
CONTINUOUS
10
1.4622
20
0.450779
11
1.46251
21
0.451317
0
LINE
8
BLACK
6
CONTINUOUS
10
1.46251
20
0.451317
11
1.46271
21
0.451391
0
LINE
8
BLACK
6
CONTINUOUS
10
1.46271
20
0.451391
11
1.46293
21
0.451652
0
LINE
8
BLACK
6
CONTINUOUS
10
1.46293
20
0.451652
11
1.4639
21
0.451822
0
LINE
8
BLACK
6
CONTINUOUS
10
1.4639
20
0.451822
11
1.46441
21
0.452008
0
LINE
8
BLACK
6
CONTINUOUS
10
1.46441
20
0.452008
11
1.56283
21
0.452008
0
LINE
8
BLACK
6
CONTINUOUS
10
1.56283
20
0.452008
11
1.5631
21
0.45196
0
LINE
8
BLACK
6
CONTINUOUS
10
1.46736
20
0.446102
11
1.46736
21
0.333898
0
LINE
8
BLACK
6
CONTINUOUS
10
1.46736
20
0.333898
11
1.55988
21
0.333898
0
LINE
8
BLACK
6
CONTINUOUS
10
1.55988
20
0.333898
11
1.55988
21
0.446102
0
LINE
8
BLACK
6
CONTINUOUS
10
1.55988
20
0.446102
11
1.46736
21
0.446102
0
LINE
8
BLACK
6
CONTINUOUS
10
1.09038
20
0.302885
11
1.09051
21
0.302908
0
LINE
8
BLACK
6
CONTINUOUS
10
1.09051
20
0.302908
11
1.09063
21
0.302842
0
LINE
8
BLACK
6
CONTINUOUS
10
1.09063
20
0.302842
11
1.09101
21
0.302775
0
LINE
8
BLACK
6
CONTINUOUS
10
1.09101
20
0.302775
11
1.0916
21
0.302282
0
LINE
8
BLACK
6
CONTINUOUS
10
1.0916
20
0.302282
11
1.09226
21
0.301898
0
LINE
8
BLACK
6
CONTINUOUS
10
1.09226
20
0.301898
11
1.09235
21
0.301648
0
LINE
8
BLACK
6
CONTINUOUS
10
1.09235
20
0.301648
11
1.09256
21
0.301476
0
LINE
8
BLACK
6
CONTINUOUS
10
1.09256
20
0.301476
11
1.09269
21
0.300721
0
LINE
8
BLACK
6
CONTINUOUS
10
1.09269
20
0.300721
11
1.09295
21
0.3
0
LINE
8
BLACK
6
CONTINUOUS
10
1.09295
20
0.3
11
1.09295
21
0.1
0
LINE
8
BLACK
6
CONTINUOUS
10
1.09295
20
0.1
11
1.09289
21
0.0996165
0
LINE
8
BLACK
6
CONTINUOUS
10
1.09289
20
0.0996165
11
1.09291
21
0.0994872
0
LINE
8
BLACK
6
CONTINUOUS
10
1.09291
20
0.0994872
11
1.09284
21
0.0993736
0
LINE
8
BLACK
6
CONTINUOUS
10
1.09284
20
0.0993736
11
1.09277
21
0.0989901
0
LINE
8
BLACK
6
CONTINUOUS
10
1.09277
20
0.0989901
11
1.09228
21
0.0984024
0
LINE
8
BLACK
6
CONTINUOUS
10
1.09228
20
0.0984024
11
1.0919
21
0.0977381
0
LINE
8
BLACK
6
CONTINUOUS
10
1.0919
20
0.0977381
11
1.09165
21
0.097647
0
LINE
8
BLACK
6
CONTINUOUS
10
1.09165
20
0.097647
11
1.09148
21
0.0974428
0
LINE
8
BLACK
6
CONTINUOUS
10
1.09148
20
0.0974428
11
1.09072
21
0.0973096
0
LINE
8
BLACK
6
CONTINUOUS
10
1.09072
20
0.0973096
11
1.09
21
0.0970472
0
LINE
8
BLACK
6
CONTINUOUS
10
1.09
20
0.0970472
11
0.79
21
0.0970472
0
LINE
8
BLACK
6
CONTINUOUS
10
0.79
20
0.0970472
11
0.789616
21
0.0971149
0
LINE
8
BLACK
6
CONTINUOUS
10
0.789616
20
0.0971149
11
0.789487
21
0.0970921
0
LINE
8
BLACK
6
CONTINUOUS
10
0.789487
20
0.0970921
11
0.789374
21
0.0971577
0
LINE
8
BLACK
6
CONTINUOUS
10
0.789374
20
0.0971577
11
0.78899
21
0.0972253
0
LINE
8
BLACK
6
CONTINUOUS
10
0.78899
20
0.0972253
11
0.788402
21
0.0977185
0
LINE
8
BLACK
6
CONTINUOUS
10
0.788402
20
0.0977185
11
0.787738
21
0.098102
0
LINE
8
BLACK
6
CONTINUOUS
10
0.787738
20
0.098102
11
0.787647
21
0.0983524
0
LINE
8
BLACK
6
CONTINUOUS
10
0.787647
20
0.0983524
11
0.787443
21
0.0985236
0
LINE
8
BLACK
6
CONTINUOUS
10
0.787443
20
0.0985236
11
0.78731
21
0.0992792
0
LINE
8
BLACK
6
CONTINUOUS
10
0.78731
20
0.0992792
11
0.787047
21
0.1
0
LINE
8
BLACK
6
CONTINUOUS
10
0.787047
20
0.1
11
0.787047
21
0.3
0
LINE
8
BLACK
6
CONTINUOUS
10
0.787047
20
0.3
11
0.787115
21
0.300384
0
LINE
8
BLACK
6
CONTINUOUS
10
0.787115
20
0.300384
11
0.787092
21
0.300513
0
LINE
8
BLACK
6
CONTINUOUS
10
0.787092
20
0.300513
11
0.787158
21
0.300626
0
LINE
8
BLACK
6
CONTINUOUS
10
0.787158
20
0.300626
11
0.787225
21
0.30101
0
LINE
8
BLACK
6
CONTINUOUS
10
0.787225
20
0.30101
11
0.787718
21
0.301598
0
LINE
8
BLACK
6
CONTINUOUS
10
0.787718
20
0.301598
11
0.788102
21
0.302262
0
LINE
8
BLACK
6
CONTINUOUS
10
0.788102
20
0.302262
11
0.788352
21
0.302353
0
LINE
8
BLACK
6
CONTINUOUS
10
0.788352
20
0.302353
11
0.788524
21
0.302557
0
LINE
8
BLACK
6
CONTINUOUS
10
0.788524
20
0.302557
11
0.789279
21
0.30269
0
LINE
8
BLACK
6
CONTINUOUS
10
0.789279
20
0.30269
11
0.79
21
0.302953
0
LINE
8
BLACK
6
CONTINUOUS
10
0.79
20
0.302953
11
1.09
21
0.302953
0
LINE
8
BLACK
6
CONTINUOUS
10
1.09
20
0.302953
11
1.09038
21
0.302885
0
LINE
8
BLACK
6
CONTINUOUS
10
0.792953
20
0.297047
11
0.792953
21
0.102953
0
LINE
8
BLACK
6
CONTINUOUS
10
0.792953
20
0.102953
11
1.08705
21
0.102953
0
LINE
8
BLACK
6
CONTINUOUS
10
1.08705
20
0.102953
11
1.08705
21
0.297047
0
LINE
8
BLACK
6
CONTINUOUS
10
1.08705
20
0.297047
11
0.792953
21
0.297047
0
LINE
8
BLACK
6
CONTINUOUS
10
0.0619507
20
0.870277
11
0.0626415
21
0.868379
0
LINE
8
BLACK
6
CONTINUOUS
10
0.0626415
20
0.868379
11
0.0626415
21
0.85301
0
LINE
8
BLACK
6
CONTINUOUS
10
0.0626415
20
0.85301
11
0.080098
21
0.870467
0
LINE
8
BLACK
6
CONTINUOUS
10
0.080098
20
0.870467
11
0.0809381
21
0.871055
0
LINE
8
BLACK
6
CONTINUOUS
10
0.0809381
20
0.871055
11
0.0829502
21
0.871231
0
LINE
8
BLACK
6
CONTINUOUS
10
0.0829502
20
0.871231
11
0.0846047
21
0.870072
0
LINE
8
BLACK
6
CONTINUOUS
10
0.0846047
20
0.870072
11
0.0851274
21
0.868121
0
LINE
8
BLACK
6
CONTINUOUS
10
0.0851274
20
0.868121
11
0.0842739
21
0.866291
0
LINE
8
BLACK
6
CONTINUOUS
10
0.0842739
20
0.866291
11
0.0692118
21
0.851229
0
LINE
8
BLACK
6
CONTINUOUS
10
0.0692118
20
0.851229
11
0.0845481
21
0.83078
0
LINE
8
BLACK
6
CONTINUOUS
10
0.0845481
20
0.83078
11
0.0850117
21
0.829866
0
LINE
8
BLACK
6
CONTINUOUS
10
0.0850117
20
0.829866
11
0.0849013
21
0.827849
0
LINE
8
BLACK
6
CONTINUOUS
10
0.0849013
20
0.827849
11
0.0835205
21
0.826375
0
LINE
8
BLACK
6
CONTINUOUS
10
0.0835205
20
0.826375
11
0.0815152
21
0.826133
0
LINE
8
BLACK
6
CONTINUOUS
10
0.0815152
20
0.826133
11
0.0798237
21
0.827237
0
LINE
8
BLACK
6
CONTINUOUS
10
0.0798237
20
0.827237
11
0.0649936
21
0.847011
0
LINE
8
BLACK
6
CONTINUOUS
10
0.0649936
20
0.847011
11
0.0626415
21
0.844658
0
LINE
8
BLACK
6
CONTINUOUS
10
0.0626415
20
0.844658
11
0.0626415
21
0.829009
0
LINE
8
BLACK
6
CONTINUOUS
10
0.0626415
20
0.829009
11
0.0624635
21
0.827999
0
LINE
8
BLACK
6
CONTINUOUS
10
0.0624635
20
0.827999
11
0.0611652
21
0.826451
0
LINE
8
BLACK
6
CONTINUOUS
10
0.0611652
20
0.826451
11
0.059176
21
0.826101
0
LINE
8
BLACK
6
CONTINUOUS
10
0.059176
20
0.826101
11
0.0574269
21
0.827111
0
LINE
8
BLACK
6
CONTINUOUS
10
0.0574269
20
0.827111
11
0.056736
21
0.829009
0
LINE
8
BLACK
6
CONTINUOUS
10
0.056736
20
0.829009
11
0.056736
21
0.868379
0
LINE
8
BLACK
6
CONTINUOUS
10
0.056736
20
0.868379
11
0.0569141
21
0.869389
0
LINE
8
BLACK
6
CONTINUOUS
10
0.0569141
20
0.869389
11
0.0582124
21
0.870936
0
LINE
8
BLACK
6
CONTINUOUS
10
0.0582124
20
0.870936
11
0.0602015
21
0.871287
0
LINE
8
BLACK
6
CONTINUOUS
10
0.0602015
20
0.871287
11
0.0619507
21
0.870277
0
LINE
8
BLACK
6
CONTINUOUS
10
0.0619507
20
1.02776
11
0.0626415
21
1.02586
0
LINE
8
BLACK
6
CONTINUOUS
10
0.0626415
20
1.02586
11
0.0626415
21
1.01049
0
LINE
8
BLACK
6
CONTINUOUS
10
0.0626415
20
1.01049
11
0.080098
21
1.02795
0
LINE
8
BLACK
6
CONTINUOUS
10
0.080098
20
1.02795
11
0.0809381
21
1.02854
0
LINE
8
BLACK
6
CONTINUOUS
10
0.0809381
20
1.02854
11
0.0829502
21
1.02871
0
LINE
8
BLACK
6
CONTINUOUS
10
0.0829502
20
1.02871
11
0.0846047
21
1.02755
0
LINE
8
BLACK
6
CONTINUOUS
10
0.0846047
20
1.02755
11
0.0851274
21
1.0256
0
LINE
8
BLACK
6
CONTINUOUS
10
0.0851274
20
1.0256
11
0.0842739
21
1.02377
0
LINE
8
BLACK
6
CONTINUOUS
10
0.0842739
20
1.02377
11
0.0692118
21
1.00871
0
LINE
8
BLACK
6
CONTINUOUS
10
0.0692118
20
1.00871
11
0.0845481
21
0.988261
0
LINE
8
BLACK
6
CONTINUOUS
10
0.0845481
20
0.988261
11
0.0850117
21
0.987346
0
LINE
8
BLACK
6
CONTINUOUS
10
0.0850117
20
0.987346
11
0.0849013
21
0.985329
0
LINE
8
BLACK
6
CONTINUOUS
10
0.0849013
20
0.985329
11
0.0835205
21
0.983855
0
LINE
8
BLACK
6
CONTINUOUS
10
0.0835205
20
0.983855
11
0.0815152
21
0.983613
0
LINE
8
BLACK
6
CONTINUOUS
10
0.0815152
20
0.983613
11
0.0798237
21
0.984717
0
LINE
8
BLACK
6
CONTINUOUS
10
0.0798237
20
0.984717
11
0.0649936
21
1.00449
0
LINE
8
BLACK
6
CONTINUOUS
10
0.0649936
20
1.00449
11
0.0626415
21
1.00214
0
LINE
8
BLACK
6
CONTINUOUS
10
0.0626415
20
1.00214
11
0.0626415
21
0.986489
0
LINE
8
BLACK
6
CONTINUOUS
10
0.0626415
20
0.986489
11
0.0624635
21
0.985479
0
LINE
8
BLACK
6
CONTINUOUS
10
0.0624635
20
0.985479
11
0.0611652
21
0.983932
0
LINE
8
BLACK
6
CONTINUOUS
10
0.0611652
20
0.983932
11
0.059176
21
0.983581
0
LINE
8
BLACK
6
CONTINUOUS
10
0.059176
20
0.983581
11
0.0574269
21
0.984591
0
LINE
8
BLACK
6
CONTINUOUS
10
0.0574269
20
0.984591
11
0.056736
21
0.986489
0
LINE
8
BLACK
6
CONTINUOUS
10
0.056736
20
0.986489
11
0.056736
21
1.02586
0
LINE
8
BLACK
6
CONTINUOUS
10
0.056736
20
1.02586
11
0.0569141
21
1.02687
0
LINE
8
BLACK
6
CONTINUOUS
10
0.0569141
20
1.02687
11
0.0582124
21
1.02842
0
LINE
8
BLACK
6
CONTINUOUS
10
0.0582124
20
1.02842
11
0.0602015
21
1.02877
0
LINE
8
BLACK
6
CONTINUOUS
10
0.0602015
20
1.02877
11
0.0619507
21
1.02776
0
LINE
8
BLACK
6
CONTINUOUS
10
0.0619507
20
1.18524
11
0.0626415
21
1.18334
0
LINE
8
BLACK
6
CONTINUOUS
10
0.0626415
20
1.18334
11
0.0626415
21
1.16797
0
LINE
8
BLACK
6
CONTINUOUS
10
0.0626415
20
1.16797
11
0.080098
21
1.18543
0
LINE
8
BLACK
6
CONTINUOUS
10
0.080098
20
1.18543
11
0.0809381
21
1.18602
0
LINE
8
BLACK
6
CONTINUOUS
10
0.0809381
20
1.18602
11
0.0829502
21
1.18619
0
LINE
8
BLACK
6
CONTINUOUS
10
0.0829502
20
1.18619
11
0.0846047
21
1.18503
0
LINE
8
BLACK
6
CONTINUOUS
10
0.0846047
20
1.18503
11
0.0851274
21
1.18308
0
LINE
8
BLACK
6
CONTINUOUS
10
0.0851274
20
1.18308
11
0.0842739
21
1.18125
0
LINE
8
BLACK
6
CONTINUOUS
10
0.0842739
20
1.18125
11
0.0692118
21
1.16619
0
LINE
8
BLACK
6
CONTINUOUS
10
0.0692118
20
1.16619
11
0.0845481
21
1.14574
0
LINE
8
BLACK
6
CONTINUOUS
10
0.0845481
20
1.14574
11
0.0850117
21
1.14483
0
LINE
8
BLACK
6
CONTINUOUS
10
0.0850117
20
1.14483
11
0.0849013
21
1.14281
0
LINE
8
BLACK
6
CONTINUOUS
10
0.0849013
20
1.14281
11
0.0835205
21
1.14134
0
LINE
8
BLACK
6
CONTINUOUS
10
0.0835205
20
1.14134
11
0.0815152
21
1.14109
0
LINE
8
BLACK
6
CONTINUOUS
10
0.0815152
20
1.14109
11
0.0798237
21
1.1422
0
LINE
8
BLACK
6
CONTINUOUS
10
0.0798237
20
1.1422
11
0.0649936
21
1.16197
0
LINE
8
BLACK
6
CONTINUOUS
10
0.0649936
20
1.16197
11
0.0626415
21
1.15962
0
LINE
8
BLACK
6
CONTINUOUS
10
0.0626415
20
1.15962
11
0.0626415
21
1.14397
0
LINE
8
BLACK
6
CONTINUOUS
10
0.0626415
20
1.14397
11
0.0624635
21
1.14296
0
LINE
8
BLACK
6
CONTINUOUS
10
0.0624635
20
1.14296
11
0.0611652
21
1.14141
0
LINE
8
BLACK
6
CONTINUOUS
10
0.0611652
20
1.14141
11
0.059176
21
1.14106
0
LINE
8
BLACK
6
CONTINUOUS
10
0.059176
20
1.14106
11
0.0574269
21
1.14207
0
LINE
8
BLACK
6
CONTINUOUS
10
0.0574269
20
1.14207
11
0.056736
21
1.14397
0
LINE
8
BLACK
6
CONTINUOUS
10
0.056736
20
1.14397
11
0.056736
21
1.18334
0
LINE
8
BLACK
6
CONTINUOUS
10
0.056736
20
1.18334
11
0.0569141
21
1.18435
0
LINE
8
BLACK
6
CONTINUOUS
10
0.0569141
20
1.18435
11
0.0582124
21
1.1859
0
LINE
8
BLACK
6
CONTINUOUS
10
0.0582124
20
1.1859
11
0.0602015
21
1.18625
0
LINE
8
BLACK
6
CONTINUOUS
10
0.0602015
20
1.18625
11
0.0619507
21
1.18524
0
LINE
8
BLACK
6
CONTINUOUS
10
1.66608
20
1.20879
11
1.66677
21
1.20689
0
LINE
8
BLACK
6
CONTINUOUS
10
1.66677
20
1.20689
11
1.66677
21
1.20422
0
LINE
8
BLACK
6
CONTINUOUS
10
1.66677
20
1.20422
11
1.67694
21
1.20422
0
LINE
8
BLACK
6
CONTINUOUS
10
1.67694
20
1.20422
11
1.67795
21
1.20404
0
LINE
8
BLACK
6
CONTINUOUS
10
1.67795
20
1.20404
11
1.6795
21
1.20275
0
LINE
8
BLACK
6
CONTINUOUS
10
1.6795
20
1.20275
11
1.67985
21
1.20076
0
LINE
8
BLACK
6
CONTINUOUS
10
1.67985
20
1.20076
11
1.67884
21
1.19901
0
LINE
8
BLACK
6
CONTINUOUS
10
1.67884
20
1.19901
11
1.67694
21
1.19832
0
LINE
8
BLACK
6
CONTINUOUS
10
1.67694
20
1.19832
11
1.66677
21
1.19832
0
LINE
8
BLACK
6
CONTINUOUS
10
1.66677
20
1.19832
11
1.66677
21
1.18252
0
LINE
8
BLACK
6
CONTINUOUS
10
1.66677
20
1.18252
11
1.6666
21
1.18151
0
LINE
8
BLACK
6
CONTINUOUS
10
1.6666
20
1.18151
11
1.66645
21
1.18134
0
LINE
8
BLACK
6
CONTINUOUS
10
1.66645
20
1.18134
11
1.66642
21
1.18112
0
LINE
8
BLACK
6
CONTINUOUS
10
1.66642
20
1.18112
11
1.66581
21
1.18058
0
LINE
8
BLACK
6
CONTINUOUS
10
1.66581
20
1.18058
11
1.6653
21
1.17996
0
LINE
8
BLACK
6
CONTINUOUS
10
1.6653
20
1.17996
11
1.66507
21
1.17993
0
LINE
8
BLACK
6
CONTINUOUS
10
1.66507
20
1.17993
11
1.66491
21
1.17978
0
LINE
8
BLACK
6
CONTINUOUS
10
1.66491
20
1.17978
11
1.6641
21
1.17975
0
LINE
8
BLACK
6
CONTINUOUS
10
1.6641
20
1.17975
11
1.66331
21
1.17961
0
LINE
8
BLACK
6
CONTINUOUS
10
1.66331
20
1.17961
11
1.66311
21
1.17973
0
LINE
8
BLACK
6
CONTINUOUS
10
1.66311
20
1.17973
11
1.66289
21
1.17972
0
LINE
8
BLACK
6
CONTINUOUS
10
1.66289
20
1.17972
11
1.63477
21
1.18909
0
LINE
8
BLACK
6
CONTINUOUS
10
1.63477
20
1.18909
11
1.63386
21
1.18958
0
LINE
8
BLACK
6
CONTINUOUS
10
1.63386
20
1.18958
11
1.63281
21
1.1913
0
LINE
8
BLACK
6
CONTINUOUS
10
1.63281
20
1.1913
11
1.6331
21
1.1933
0
LINE
8
BLACK
6
CONTINUOUS
10
1.6331
20
1.1933
11
1.63461
21
1.19464
0
LINE
8
BLACK
6
CONTINUOUS
10
1.63461
20
1.19464
11
1.63663
21
1.1947
0
LINE
8
BLACK
6
CONTINUOUS
10
1.63663
20
1.1947
11
1.66087
21
1.18662
0
LINE
8
BLACK
6
CONTINUOUS
10
1.66087
20
1.18662
11
1.66087
21
1.19832
0
LINE
8
BLACK
6
CONTINUOUS
10
1.66087
20
1.19832
11
1.6507
21
1.19832
0
LINE
8
BLACK
6
CONTINUOUS
10
1.6507
20
1.19832
11
1.64969
21
1.19849
0
LINE
8
BLACK
6
CONTINUOUS
10
1.64969
20
1.19849
11
1.64814
21
1.19979
0
LINE
8
BLACK
6
CONTINUOUS
10
1.64814
20
1.19979
11
1.64779
21
1.20178
0
LINE
8
BLACK
6
CONTINUOUS
10
1.64779
20
1.20178
11
1.6488
21
1.20353
0
LINE
8
BLACK
6
CONTINUOUS
10
1.6488
20
1.20353
11
1.6507
21
1.20422
0
LINE
8
BLACK
6
CONTINUOUS
10
1.6507
20
1.20422
11
1.66087
21
1.20422
0
LINE
8
BLACK
6
CONTINUOUS
10
1.66087
20
1.20422
11
1.66087
21
1.20689
0
LINE
8
BLACK
6
CONTINUOUS
10
1.66087
20
1.20689
11
1.66105
21
1.2079
0
LINE
8
BLACK
6
CONTINUOUS
10
1.66105
20
1.2079
11
1.66234
21
1.20945
0
LINE
8
BLACK
6
CONTINUOUS
10
1.66234
20
1.20945
11
1.66433
21
1.2098
0
LINE
8
BLACK
6
CONTINUOUS
10
1.66433
20
1.2098
11
1.66608
21
1.20879
0
LINE
8
BLACK
6
CONTINUOUS
10
1.65252
20
1.24109
11
1.66382
21
1.23221
0
LINE
8
BLACK
6
CONTINUOUS
10
1.66382
20
1.23221
11
1.67512
21
1.24109
0
LINE
8
BLACK
6
CONTINUOUS
10
1.67512
20
1.24109
11
1.67602
21
1.24157
0
LINE
8
BLACK
6
CONTINUOUS
10
1.67602
20
1.24157
11
1.67804
21
1.24151
0
LINE
8
BLACK
6
CONTINUOUS
10
1.67804
20
1.24151
11
1.67955
21
1.24016
0
LINE
8
BLACK
6
CONTINUOUS
10
1.67955
20
1.24016
11
1.67983
21
1.23816
0
LINE
8
BLACK
6
CONTINUOUS
10
1.67983
20
1.23816
11
1.67877
21
1.23644
0
LINE
8
BLACK
6
CONTINUOUS
10
1.67877
20
1.23644
11
1.6686
21
1.22845
0
LINE
8
BLACK
6
CONTINUOUS
10
1.6686
20
1.22845
11
1.67877
21
1.22046
0
LINE
8
BLACK
6
CONTINUOUS
10
1.67877
20
1.22046
11
1.67945
21
1.2197
0
LINE
8
BLACK
6
CONTINUOUS
10
1.67945
20
1.2197
11
1.67987
21
1.21772
0
LINE
8
BLACK
6
CONTINUOUS
10
1.67987
20
1.21772
11
1.67891
21
1.21594
0
LINE
8
BLACK
6
CONTINUOUS
10
1.67891
20
1.21594
11
1.67704
21
1.21519
0
LINE
8
BLACK
6
CONTINUOUS
10
1.67704
20
1.21519
11
1.67512
21
1.21582
0
LINE
8
BLACK
6
CONTINUOUS
10
1.67512
20
1.21582
11
1.66382
21
1.2247
0
LINE
8
BLACK
6
CONTINUOUS
10
1.66382
20
1.2247
11
1.65252
21
1.21582
0
LINE
8
BLACK
6
CONTINUOUS
10
1.65252
20
1.21582
11
1.65162
21
1.21534
0
LINE
8
BLACK
6
CONTINUOUS
10
1.65162
20
1.21534
11
1.6496
21
1.2154
0
LINE
8
BLACK
6
CONTINUOUS
10
1.6496
20
1.2154
11
1.64809
21
1.21675
0
LINE
8
BLACK
6
CONTINUOUS
10
1.64809
20
1.21675
11
1.64781
21
1.21875
0
LINE
8
BLACK
6
CONTINUOUS
10
1.64781
20
1.21875
11
1.64887
21
1.22046
0
LINE
8
BLACK
6
CONTINUOUS
10
1.64887
20
1.22046
11
1.65904
21
1.22845
0
LINE
8
BLACK
6
CONTINUOUS
10
1.65904
20
1.22845
11
1.64887
21
1.23644
0
LINE
8
BLACK
6
CONTINUOUS
10
1.64887
20
1.23644
11
1.64819
21
1.23721
0
LINE
8
BLACK
6
CONTINUOUS
10
1.64819
20
1.23721
11
1.64777
21
1.23918
0
LINE
8
BLACK
6
CONTINUOUS
10
1.64777
20
1.23918
11
1.64873
21
1.24096
0
LINE
8
BLACK
6
CONTINUOUS
10
1.64873
20
1.24096
11
1.6506
21
1.24172
0
LINE
8
BLACK
6
CONTINUOUS
10
1.6506
20
1.24172
11
1.65252
21
1.24109
0
LINE
8
BLACK
6
CONTINUOUS
10
1.67921
20
1.27441
11
1.6799
21
1.27251
0
LINE
8
BLACK
6
CONTINUOUS
10
1.6799
20
1.27251
11
1.6799
21
1.25376
0
LINE
8
BLACK
6
CONTINUOUS
10
1.6799
20
1.25376
11
1.67983
21
1.25338
0
LINE
8
BLACK
6
CONTINUOUS
10
1.67983
20
1.25338
11
1.67985
21
1.25325
0
LINE
8
BLACK
6
CONTINUOUS
10
1.67985
20
1.25325
11
1.67979
21
1.25314
0
LINE
8
BLACK
6
CONTINUOUS
10
1.67979
20
1.25314
11
1.67972
21
1.25275
0
LINE
8
BLACK
6
CONTINUOUS
10
1.67972
20
1.25275
11
1.67923
21
1.25217
0
LINE
8
BLACK
6
CONTINUOUS
10
1.67923
20
1.25217
11
1.67884
21
1.2515
0
LINE
8
BLACK
6
CONTINUOUS
10
1.67884
20
1.2515
11
1.67859
21
1.25141
0
LINE
8
BLACK
6
CONTINUOUS
10
1.67859
20
1.25141
11
1.67842
21
1.25121
0
LINE
8
BLACK
6
CONTINUOUS
10
1.67842
20
1.25121
11
1.67766
21
1.25107
0
LINE
8
BLACK
6
CONTINUOUS
10
1.67766
20
1.25107
11
1.67694
21
1.25081
0
LINE
8
BLACK
6
CONTINUOUS
10
1.67694
20
1.25081
11
1.63757
21
1.25081
0
LINE
8
BLACK
6
CONTINUOUS
10
1.63757
20
1.25081
11
1.63656
21
1.25099
0
LINE
8
BLACK
6
CONTINUOUS
10
1.63656
20
1.25099
11
1.63502
21
1.25229
0
LINE
8
BLACK
6
CONTINUOUS
10
1.63502
20
1.25229
11
1.63467
21
1.25428
0
LINE
8
BLACK
6
CONTINUOUS
10
1.63467
20
1.25428
11
1.63568
21
1.25602
0
LINE
8
BLACK
6
CONTINUOUS
10
1.63568
20
1.25602
11
1.63757
21
1.25672
0
LINE
8
BLACK
6
CONTINUOUS
10
1.63757
20
1.25672
11
1.67399
21
1.25672
0
LINE
8
BLACK
6
CONTINUOUS
10
1.67399
20
1.25672
11
1.67399
21
1.27251
0
LINE
8
BLACK
6
CONTINUOUS
10
1.67399
20
1.27251
11
1.67417
21
1.27352
0
LINE
8
BLACK
6
CONTINUOUS
10
1.67417
20
1.27352
11
1.67547
21
1.27507
0
LINE
8
BLACK
6
CONTINUOUS
10
1.67547
20
1.27507
11
1.67746
21
1.27542
0
LINE
8
BLACK
6
CONTINUOUS
10
1.67746
20
1.27542
11
1.67921
21
1.27441
0
LINE
8
BLACK
6
CONTINUOUS
10
1.63984
20
1.3044
11
1.64053
21
1.30251
0
LINE
8
BLACK
6
CONTINUOUS
10
1.64053
20
1.30251
11
1.64053
21
1.29421
0
LINE
8
BLACK
6
CONTINUOUS
10
1.64053
20
1.29421
11
1.67694
21
1.29421
0
LINE
8
BLACK
6
CONTINUOUS
10
1.67694
20
1.29421
11
1.67795
21
1.29403
0
LINE
8
BLACK
6
CONTINUOUS
10
1.67795
20
1.29403
11
1.6795
21
1.29273
0
LINE
8
BLACK
6
CONTINUOUS
10
1.6795
20
1.29273
11
1.67985
21
1.29075
0
LINE
8
BLACK
6
CONTINUOUS
10
1.67985
20
1.29075
11
1.67884
21
1.289
0
LINE
8
BLACK
6
CONTINUOUS
10
1.67884
20
1.289
11
1.67694
21
1.28831
0
LINE
8
BLACK
6
CONTINUOUS
10
1.67694
20
1.28831
11
1.64053
21
1.28831
0
LINE
8
BLACK
6
CONTINUOUS
10
1.64053
20
1.28831
11
1.64053
21
1.28001
0
LINE
8
BLACK
6
CONTINUOUS
10
1.64053
20
1.28001
11
1.64035
21
1.279
0
LINE
8
BLACK
6
CONTINUOUS
10
1.64035
20
1.279
11
1.63905
21
1.27745
0
LINE
8
BLACK
6
CONTINUOUS
10
1.63905
20
1.27745
11
1.63706
21
1.2771
0
LINE
8
BLACK
6
CONTINUOUS
10
1.63706
20
1.2771
11
1.63531
21
1.27811
0
LINE
8
BLACK
6
CONTINUOUS
10
1.63531
20
1.27811
11
1.63462
21
1.28001
0
LINE
8
BLACK
6
CONTINUOUS
10
1.63462
20
1.28001
11
1.63462
21
1.30251
0
LINE
8
BLACK
6
CONTINUOUS
10
1.63462
20
1.30251
11
1.6348
21
1.30352
0
LINE
8
BLACK
6
CONTINUOUS
10
1.6348
20
1.30352
11
1.6361
21
1.30506
0
LINE
8
BLACK
6
CONTINUOUS
10
1.6361
20
1.30506
11
1.63809
21
1.30541
0
LINE
8
BLACK
6
CONTINUOUS
10
1.63809
20
1.30541
11
1.63984
21
1.3044
0
LINE
8
BLACK
6
CONTINUOUS
10
0.0619507
20
1.34272
11
0.0626415
21
1.34082
0
LINE
8
BLACK
6
CONTINUOUS
10
0.0626415
20
1.34082
11
0.0626415
21
1.32545
0
LINE
8
BLACK
6
CONTINUOUS
10
0.0626415
20
1.32545
11
0.080098
21
1.34291
0
LINE
8
BLACK
6
CONTINUOUS
10
0.080098
20
1.34291
11
0.0809381
21
1.3435
0
LINE
8
BLACK
6
CONTINUOUS
10
0.0809381
20
1.3435
11
0.0829502
21
1.34367
0
LINE
8
BLACK
6
CONTINUOUS
10
0.0829502
20
1.34367
11
0.0846047
21
1.34251
0
LINE
8
BLACK
6
CONTINUOUS
10
0.0846047
20
1.34251
11
0.0851274
21
1.34056
0
LINE
8
BLACK
6
CONTINUOUS
10
0.0851274
20
1.34056
11
0.0842739
21
1.33873
0
LINE
8
BLACK
6
CONTINUOUS
10
0.0842739
20
1.33873
11
0.0692118
21
1.32367
0
LINE
8
BLACK
6
CONTINUOUS
10
0.0692118
20
1.32367
11
0.0845481
21
1.30322
0
LINE
8
BLACK
6
CONTINUOUS
10
0.0845481
20
1.30322
11
0.0850117
21
1.30231
0
LINE
8
BLACK
6
CONTINUOUS
10
0.0850117
20
1.30231
11
0.0849013
21
1.30029
0
LINE
8
BLACK
6
CONTINUOUS
10
0.0849013
20
1.30029
11
0.0835205
21
1.29882
0
LINE
8
BLACK
6
CONTINUOUS
10
0.0835205
20
1.29882
11
0.0815152
21
1.29857
0
LINE
8
BLACK
6
CONTINUOUS
10
0.0815152
20
1.29857
11
0.0798237
21
1.29968
0
LINE
8
BLACK
6
CONTINUOUS
10
0.0798237
20
1.29968
11
0.0649936
21
1.31945
0
LINE
8
BLACK
6
CONTINUOUS
10
0.0649936
20
1.31945
11
0.0626415
21
1.3171
0
LINE
8
BLACK
6
CONTINUOUS
10
0.0626415
20
1.3171
11
0.0626415
21
1.30145
0
LINE
8
BLACK
6
CONTINUOUS
10
0.0626415
20
1.30145
11
0.0624635
21
1.30044
0
LINE
8
BLACK
6
CONTINUOUS
10
0.0624635
20
1.30044
11
0.0611652
21
1.29889
0
LINE
8
BLACK
6
CONTINUOUS
10
0.0611652
20
1.29889
11
0.059176
21
1.29854
0
LINE
8
BLACK
6
CONTINUOUS
10
0.059176
20
1.29854
11
0.0574269
21
1.29955
0
LINE
8
BLACK
6
CONTINUOUS
10
0.0574269
20
1.29955
11
0.056736
21
1.30145
0
LINE
8
BLACK
6
CONTINUOUS
10
0.056736
20
1.30145
11
0.056736
21
1.34082
0
LINE
8
BLACK
6
CONTINUOUS
10
0.056736
20
1.34082
11
0.0569141
21
1.34183
0
LINE
8
BLACK
6
CONTINUOUS
10
0.0569141
20
1.34183
11
0.0582124
21
1.34338
0
LINE
8
BLACK
6
CONTINUOUS
10
0.0582124
20
1.34338
11
0.0602015
21
1.34373
0
LINE
8
BLACK
6
CONTINUOUS
10
0.0602015
20
1.34373
11
0.0619507
21
1.34272
0
LINE
8
BLACK
6
CONTINUOUS
10
1.67921
20
1.3794
11
1.6799
21
1.3775
0
LINE
8
BLACK
6
CONTINUOUS
10
1.6799
20
1.3775
11
1.6799
21
1.355
0
LINE
8
BLACK
6
CONTINUOUS
10
1.6799
20
1.355
11
1.67972
21
1.35399
0
LINE
8
BLACK
6
CONTINUOUS
10
1.67972
20
1.35399
11
1.67842
21
1.35244
0
LINE
8
BLACK
6
CONTINUOUS
10
1.67842
20
1.35244
11
1.67643
21
1.35209
0
LINE
8
BLACK
6
CONTINUOUS
10
1.67643
20
1.35209
11
1.67468
21
1.3531
0
LINE
8
BLACK
6
CONTINUOUS
10
1.67468
20
1.3531
11
1.67422
21
1.35438
0
LINE
8
BLACK
6
CONTINUOUS
10
1.67422
20
1.35438
11
1.67422
21
1.33941
0
LINE
8
BLACK
6
CONTINUOUS
10
1.67422
20
1.33941
11
1.67716
21
1.33647
0
LINE
8
BLACK
6
CONTINUOUS
10
1.67716
20
1.33647
11
1.67766
21
1.33574
0
LINE
8
BLACK
6
CONTINUOUS
10
1.67766
20
1.33574
11
1.67771
21
1.3357
0
LINE
8
BLACK
6
CONTINUOUS
10
1.67771
20
1.3357
11
1.67959
21
1.33195
0
LINE
8
BLACK
6
CONTINUOUS
10
1.67959
20
1.33195
11
1.67988
21
1.33097
0
LINE
8
BLACK
6
CONTINUOUS
10
1.67988
20
1.33097
11
1.67984
21
1.33079
0
LINE
8
BLACK
6
CONTINUOUS
10
1.67984
20
1.33079
11
1.6799
21
1.33063
0
LINE
8
BLACK
6
CONTINUOUS
10
1.6799
20
1.33063
11
1.6799
21
1.32313
0
LINE
8
BLACK
6
CONTINUOUS
10
1.6799
20
1.32313
11
1.67972
21
1.32212
0
LINE
8
BLACK
6
CONTINUOUS
10
1.67972
20
1.32212
11
1.67961
21
1.32198
0
LINE
8
BLACK
6
CONTINUOUS
10
1.67961
20
1.32198
11
1.67959
21
1.32181
0
LINE
8
BLACK
6
CONTINUOUS
10
1.67959
20
1.32181
11
1.67877
21
1.32018
0
LINE
8
BLACK
6
CONTINUOUS
10
1.67877
20
1.32018
11
1.68251
21
1.32018
0
LINE
8
BLACK
6
CONTINUOUS
10
1.68251
20
1.32018
11
1.68352
21
1.32
0
LINE
8
BLACK
6
CONTINUOUS
10
1.68352
20
1.32
11
1.68507
21
1.31871
0
LINE
8
BLACK
6
CONTINUOUS
10
1.68507
20
1.31871
11
1.68542
21
1.31672
0
LINE
8
BLACK
6
CONTINUOUS
10
1.68542
20
1.31672
11
1.68441
21
1.31497
0
LINE
8
BLACK
6
CONTINUOUS
10
1.68441
20
1.31497
11
1.68251
21
1.31428
0
LINE
8
BLACK
6
CONTINUOUS
10
1.68251
20
1.31428
11
1.67414
21
1.31428
0
LINE
8
BLACK
6
CONTINUOUS
10
1.67414
20
1.31428
11
1.67341
21
1.31354
0
LINE
8
BLACK
6
CONTINUOUS
10
1.67341
20
1.31354
11
1.67257
21
1.31295
0
LINE
8
BLACK
6
CONTINUOUS
10
1.67257
20
1.31295
11
1.67228
21
1.31293
0
LINE
8
BLACK
6
CONTINUOUS
10
1.67228
20
1.31293
11
1.67204
21
1.31277
0
LINE
8
BLACK
6
CONTINUOUS
10
1.67204
20
1.31277
11
1.66454
21
1.31089
0
LINE
8
BLACK
6
CONTINUOUS
10
1.66454
20
1.31089
11
1.66395
21
1.31085
0
LINE
8
BLACK
6
CONTINUOUS
10
1.66395
20
1.31085
11
1.66382
21
1.3108
0
LINE
8
BLACK
6
CONTINUOUS
10
1.66382
20
1.3108
11
1.6507
21
1.3108
0
LINE
8
BLACK
6
CONTINUOUS
10
1.6507
20
1.3108
11
1.65012
21
1.3109
0
LINE
8
BLACK
6
CONTINUOUS
10
1.65012
20
1.3109
11
1.64998
21
1.31089
0
LINE
8
BLACK
6
CONTINUOUS
10
1.64998
20
1.31089
11
1.64248
21
1.31277
0
LINE
8
BLACK
6
CONTINUOUS
10
1.64248
20
1.31277
11
1.64155
21
1.31318
0
LINE
8
BLACK
6
CONTINUOUS
10
1.64155
20
1.31318
11
1.64137
21
1.31342
0
LINE
8
BLACK
6
CONTINUOUS
10
1.64137
20
1.31342
11
1.64111
21
1.31354
0
LINE
8
BLACK
6
CONTINUOUS
10
1.64111
20
1.31354
11
1.63736
21
1.31729
0
LINE
8
BLACK
6
CONTINUOUS
10
1.63736
20
1.31729
11
1.63685
21
1.31801
0
LINE
8
BLACK
6
CONTINUOUS
10
1.63685
20
1.31801
11
1.63681
21
1.31806
0
LINE
8
BLACK
6
CONTINUOUS
10
1.63681
20
1.31806
11
1.63493
21
1.32181
0
LINE
8
BLACK
6
CONTINUOUS
10
1.63493
20
1.32181
11
1.63464
21
1.32279
0
LINE
8
BLACK
6
CONTINUOUS
10
1.63464
20
1.32279
11
1.63468
21
1.32296
0
LINE
8
BLACK
6
CONTINUOUS
10
1.63468
20
1.32296
11
1.63462
21
1.32313
0
LINE
8
BLACK
6
CONTINUOUS
10
1.63462
20
1.32313
11
1.63462
21
1.33063
0
LINE
8
BLACK
6
CONTINUOUS
10
1.63462
20
1.33063
11
1.6348
21
1.33164
0
LINE
8
BLACK
6
CONTINUOUS
10
1.6348
20
1.33164
11
1.63491
21
1.33177
0
LINE
8
BLACK
6
CONTINUOUS
10
1.63491
20
1.33177
11
1.63493
21
1.33195
0
LINE
8
BLACK
6
CONTINUOUS
10
1.63493
20
1.33195
11
1.63681
21
1.3357
0
LINE
8
BLACK
6
CONTINUOUS
10
1.63681
20
1.3357
11
1.63733
21
1.33641
0
LINE
8
BLACK
6
CONTINUOUS
10
1.63733
20
1.33641
11
1.63736
21
1.33647
0
LINE
8
BLACK
6
CONTINUOUS
10
1.63736
20
1.33647
11
1.64111
21
1.34022
0
LINE
8
BLACK
6
CONTINUOUS
10
1.64111
20
1.34022
11
1.64195
21
1.3408
0
LINE
8
BLACK
6
CONTINUOUS
10
1.64195
20
1.3408
11
1.64224
21
1.34083
0
LINE
8
BLACK
6
CONTINUOUS
10
1.64224
20
1.34083
11
1.64248
21
1.34099
0
LINE
8
BLACK
6
CONTINUOUS
10
1.64248
20
1.34099
11
1.64998
21
1.34287
0
LINE
8
BLACK
6
CONTINUOUS
10
1.64998
20
1.34287
11
1.65057
21
1.34291
0
LINE
8
BLACK
6
CONTINUOUS
10
1.65057
20
1.34291
11
1.6507
21
1.34295
0
LINE
8
BLACK
6
CONTINUOUS
10
1.6507
20
1.34295
11
1.65834
21
1.34295
0
LINE
8
BLACK
6
CONTINUOUS
10
1.65834
20
1.34295
11
1.65718
21
1.34451
0
LINE
8
BLACK
6
CONTINUOUS
10
1.65718
20
1.34451
11
1.65731
21
1.34652
0
LINE
8
BLACK
6
CONTINUOUS
10
1.65731
20
1.34652
11
1.65869
21
1.34799
0
LINE
8
BLACK
6
CONTINUOUS
10
1.65869
20
1.34799
11
1.66202
21
1.34965
0
LINE
8
BLACK
6
CONTINUOUS
10
1.66202
20
1.34965
11
1.66522
21
1.35286
0
LINE
8
BLACK
6
CONTINUOUS
10
1.66522
20
1.35286
11
1.66881
21
1.35824
0
LINE
8
BLACK
6
CONTINUOUS
10
1.66881
20
1.35824
11
1.66952
21
1.35898
0
LINE
8
BLACK
6
CONTINUOUS
10
1.66952
20
1.35898
11
1.66968
21
1.35903
0
LINE
8
BLACK
6
CONTINUOUS
10
1.66968
20
1.35903
11
1.66979
21
1.35916
0
LINE
8
BLACK
6
CONTINUOUS
10
1.66979
20
1.35916
11
1.67063
21
1.35931
0
LINE
8
BLACK
6
CONTINUOUS
10
1.67063
20
1.35931
11
1.67145
21
1.35955
0
LINE
8
BLACK
6
CONTINUOUS
10
1.67145
20
1.35955
11
1.67161
21
1.35948
0
LINE
8
BLACK
6
CONTINUOUS
10
1.67161
20
1.35948
11
1.67178
21
1.35951
0
LINE
8
BLACK
6
CONTINUOUS
10
1.67178
20
1.35951
11
1.67252
21
1.35908
0
LINE
8
BLACK
6
CONTINUOUS
10
1.67252
20
1.35908
11
1.6733
21
1.35873
0
LINE
8
BLACK
6
CONTINUOUS
10
1.6733
20
1.35873
11
1.67338
21
1.35858
0
LINE
8
BLACK
6
CONTINUOUS
10
1.67338
20
1.35858
11
1.67353
21
1.3585
0
LINE
8
BLACK
6
CONTINUOUS
10
1.67353
20
1.3585
11
1.67382
21
1.35769
0
LINE
8
BLACK
6
CONTINUOUS
10
1.67382
20
1.35769
11
1.67399
21
1.35734
0
LINE
8
BLACK
6
CONTINUOUS
10
1.67399
20
1.35734
11
1.67399
21
1.3633
0
LINE
8
BLACK
6
CONTINUOUS
10
1.67399
20
1.3633
11
1.64658
21
1.3633
0
LINE
8
BLACK
6
CONTINUOUS
10
1.64658
20
1.3633
11
1.64904
21
1.36084
0
LINE
8
BLACK
6
CONTINUOUS
10
1.64904
20
1.36084
11
1.64954
21
1.36011
0
LINE
8
BLACK
6
CONTINUOUS
10
1.64954
20
1.36011
11
1.64959
21
1.36007
0
LINE
8
BLACK
6
CONTINUOUS
10
1.64959
20
1.36007
11
1.65146
21
1.35632
0
LINE
8
BLACK
6
CONTINUOUS
10
1.65146
20
1.35632
11
1.65176
21
1.35534
0
LINE
8
BLACK
6
CONTINUOUS
10
1.65176
20
1.35534
11
1.65129
21
1.35337
0
LINE
8
BLACK
6
CONTINUOUS
10
1.65129
20
1.35337
11
1.64966
21
1.35217
0
LINE
8
BLACK
6
CONTINUOUS
10
1.64966
20
1.35217
11
1.64765
21
1.35229
0
LINE
8
BLACK
6
CONTINUOUS
10
1.64765
20
1.35229
11
1.64618
21
1.35368
0
LINE
8
BLACK
6
CONTINUOUS
10
1.64618
20
1.35368
11
1.64452
21
1.357
0
LINE
8
BLACK
6
CONTINUOUS
10
1.64452
20
1.357
11
1.64132
21
1.3602
0
LINE
8
BLACK
6
CONTINUOUS
10
1.64132
20
1.3602
11
1.63594
21
1.36379
0
LINE
8
BLACK
6
CONTINUOUS
10
1.63594
20
1.36379
11
1.63519
21
1.3645
0
LINE
8
BLACK
6
CONTINUOUS
10
1.63519
20
1.3645
11
1.63515
21
1.36466
0
LINE
8
BLACK
6
CONTINUOUS
10
1.63515
20
1.36466
11
1.63502
21
1.36477
0
LINE
8
BLACK
6
CONTINUOUS
10
1.63502
20
1.36477
11
1.63487
21
1.36562
0
LINE
8
BLACK
6
CONTINUOUS
10
1.63487
20
1.36562
11
1.63463
21
1.36644
0
LINE
8
BLACK
6
CONTINUOUS
10
1.63463
20
1.36644
11
1.6347
21
1.36659
0
LINE
8
BLACK
6
CONTINUOUS
10
1.6347
20
1.36659
11
1.63467
21
1.36676
0
LINE
8
BLACK
6
CONTINUOUS
10
1.63467
20
1.36676
11
1.63509
21
1.3675
0
LINE
8
BLACK
6
CONTINUOUS
10
1.63509
20
1.3675
11
1.63544
21
1.36829
0
LINE
8
BLACK
6
CONTINUOUS
10
1.63544
20
1.36829
11
1.63559
21
1.36836
0
LINE
8
BLACK
6
CONTINUOUS
10
1.63559
20
1.36836
11
1.63568
21
1.36851
0
LINE
8
BLACK
6
CONTINUOUS
10
1.63568
20
1.36851
11
1.63648
21
1.3688
0
LINE
8
BLACK
6
CONTINUOUS
10
1.63648
20
1.3688
11
1.63725
21
1.36918
0
LINE
8
BLACK
6
CONTINUOUS
10
1.63725
20
1.36918
11
1.63741
21
1.36914
0
LINE
8
BLACK
6
CONTINUOUS
10
1.63741
20
1.36914
11
1.63757
21
1.3692
0
LINE
8
BLACK
6
CONTINUOUS
10
1.63757
20
1.3692
11
1.67399
21
1.3692
0
LINE
8
BLACK
6
CONTINUOUS
10
1.67399
20
1.3692
11
1.67399
21
1.3775
0
LINE
8
BLACK
6
CONTINUOUS
10
1.67399
20
1.3775
11
1.67417
21
1.37851
0
LINE
8
BLACK
6
CONTINUOUS
10
1.67417
20
1.37851
11
1.67547
21
1.38005
0
LINE
8
BLACK
6
CONTINUOUS
10
1.67547
20
1.38005
11
1.67746
21
1.38041
0
LINE
8
BLACK
6
CONTINUOUS
10
1.67746
20
1.38041
11
1.67921
21
1.3794
0
LINE
8
BLACK
6
CONTINUOUS
10
1.65106
20
1.33705
11
1.64471
21
1.33546
0
LINE
8
BLACK
6
CONTINUOUS
10
1.64471
20
1.33546
11
1.64188
21
1.33263
0
LINE
8
BLACK
6
CONTINUOUS
10
1.64188
20
1.33263
11
1.64053
21
1.32993
0
LINE
8
BLACK
6
CONTINUOUS
10
1.64053
20
1.32993
11
1.64053
21
1.32383
0
LINE
8
BLACK
6
CONTINUOUS
10
1.64053
20
1.32383
11
1.64188
21
1.32113
0
LINE
8
BLACK
6
CONTINUOUS
10
1.64188
20
1.32113
11
1.64471
21
1.3183
0
LINE
8
BLACK
6
CONTINUOUS
10
1.64471
20
1.3183
11
1.65106
21
1.31671
0
LINE
8
BLACK
6
CONTINUOUS
10
1.65106
20
1.31671
11
1.65729
21
1.31671
0
LINE
8
BLACK
6
CONTINUOUS
10
1.65729
20
1.31671
11
1.65711
21
1.31774
0
LINE
8
BLACK
6
CONTINUOUS
10
1.65711
20
1.31774
11
1.65812
21
1.31949
0
LINE
8
BLACK
6
CONTINUOUS
10
1.65812
20
1.31949
11
1.66001
21
1.32018
0
LINE
8
BLACK
6
CONTINUOUS
10
1.66001
20
1.32018
11
1.66831
21
1.32018
0
LINE
8
BLACK
6
CONTINUOUS
10
1.66831
20
1.32018
11
1.66831
21
1.33584
0
LINE
8
BLACK
6
CONTINUOUS
10
1.66831
20
1.33584
11
1.66346
21
1.33705
0
LINE
8
BLACK
6
CONTINUOUS
10
1.66346
20
1.33705
11
1.65106
21
1.33705
0
LINE
8
BLACK
6
CONTINUOUS
10
1.66585
20
1.34514
11
1.66513
21
1.34463
0
LINE
8
BLACK
6
CONTINUOUS
10
1.66513
20
1.34463
11
1.66509
21
1.34458
0
LINE
8
BLACK
6
CONTINUOUS
10
1.66509
20
1.34458
11
1.66183
21
1.34295
0
LINE
8
BLACK
6
CONTINUOUS
10
1.66183
20
1.34295
11
1.66382
21
1.34295
0
LINE
8
BLACK
6
CONTINUOUS
10
1.66382
20
1.34295
11
1.6644
21
1.34285
0
LINE
8
BLACK
6
CONTINUOUS
10
1.6644
20
1.34285
11
1.66454
21
1.34287
0
LINE
8
BLACK
6
CONTINUOUS
10
1.66454
20
1.34287
11
1.66831
21
1.34192
0
LINE
8
BLACK
6
CONTINUOUS
10
1.66831
20
1.34192
11
1.66831
21
1.3476
0
LINE
8
BLACK
6
CONTINUOUS
10
1.66831
20
1.3476
11
1.66585
21
1.34514
0
LINE
8
BLACK
6
CONTINUOUS
10
1.71164
20
1.35937
11
1.71178
21
1.35926
0
LINE
8
BLACK
6
CONTINUOUS
10
1.71178
20
1.35926
11
1.71195
21
1.35924
0
LINE
8
BLACK
6
CONTINUOUS
10
1.71195
20
1.35924
11
1.7157
21
1.35737
0
LINE
8
BLACK
6
CONTINUOUS
10
1.7157
20
1.35737
11
1.71641
21
1.35684
0
LINE
8
BLACK
6
CONTINUOUS
10
1.71641
20
1.35684
11
1.71647
21
1.35681
0
LINE
8
BLACK
6
CONTINUOUS
10
1.71647
20
1.35681
11
1.71835
21
1.35494
0
LINE
8
BLACK
6
CONTINUOUS
10
1.71835
20
1.35494
11
1.71885
21
1.35421
0
LINE
8
BLACK
6
CONTINUOUS
10
1.71885
20
1.35421
11
1.7189
21
1.35417
0
LINE
8
BLACK
6
CONTINUOUS
10
1.7189
20
1.35417
11
1.72077
21
1.35042
0
LINE
8
BLACK
6
CONTINUOUS
10
1.72077
20
1.35042
11
1.72092
21
1.34993
0
LINE
8
BLACK
6
CONTINUOUS
10
1.72092
20
1.34993
11
1.721
21
1.34982
0
LINE
8
BLACK
6
CONTINUOUS
10
1.721
20
1.34982
11
1.72287
21
1.34232
0
LINE
8
BLACK
6
CONTINUOUS
10
1.72287
20
1.34232
11
1.72291
21
1.34173
0
LINE
8
BLACK
6
CONTINUOUS
10
1.72291
20
1.34173
11
1.72296
21
1.3416
0
LINE
8
BLACK
6
CONTINUOUS
10
1.72296
20
1.3416
11
1.72296
21
1.33223
0
LINE
8
BLACK
6
CONTINUOUS
10
1.72296
20
1.33223
11
1.72286
21
1.33165
0
LINE
8
BLACK
6
CONTINUOUS
10
1.72286
20
1.33165
11
1.72287
21
1.33151
0
LINE
8
BLACK
6
CONTINUOUS
10
1.72287
20
1.33151
11
1.721
21
1.32401
0
LINE
8
BLACK
6
CONTINUOUS
10
1.721
20
1.32401
11
1.72079
21
1.32355
0
LINE
8
BLACK
6
CONTINUOUS
10
1.72079
20
1.32355
11
1.72077
21
1.32341
0
LINE
8
BLACK
6
CONTINUOUS
10
1.72077
20
1.32341
11
1.7189
21
1.31966
0
LINE
8
BLACK
6
CONTINUOUS
10
1.7189
20
1.31966
11
1.71837
21
1.31895
0
LINE
8
BLACK
6
CONTINUOUS
10
1.71837
20
1.31895
11
1.71835
21
1.31889
0
LINE
8
BLACK
6
CONTINUOUS
10
1.71835
20
1.31889
11
1.71647
21
1.31702
0
LINE
8
BLACK
6
CONTINUOUS
10
1.71647
20
1.31702
11
1.71575
21
1.31651
0
LINE
8
BLACK
6
CONTINUOUS
10
1.71575
20
1.31651
11
1.7157
21
1.31646
0
LINE
8
BLACK
6
CONTINUOUS
10
1.7157
20
1.31646
11
1.71195
21
1.31459
0
LINE
8
BLACK
6
CONTINUOUS
10
1.71195
20
1.31459
11
1.71097
21
1.3143
0
LINE
8
BLACK
6
CONTINUOUS
10
1.71097
20
1.3143
11
1.7108
21
1.31434
0
LINE
8
BLACK
6
CONTINUOUS
10
1.7108
20
1.31434
11
1.71063
21
1.31428
0
LINE
8
BLACK
6
CONTINUOUS
10
1.71063
20
1.31428
11
1.70688
21
1.31428
0
LINE
8
BLACK
6
CONTINUOUS
10
1.70688
20
1.31428
11
1.70587
21
1.31445
0
LINE
8
BLACK
6
CONTINUOUS
10
1.70587
20
1.31445
11
1.70574
21
1.31457
0
LINE
8
BLACK
6
CONTINUOUS
10
1.70574
20
1.31457
11
1.70556
21
1.31459
0
LINE
8
BLACK
6
CONTINUOUS
10
1.70556
20
1.31459
11
1.70181
21
1.31646
0
LINE
8
BLACK
6
CONTINUOUS
10
1.70181
20
1.31646
11
1.70111
21
1.31699
0
LINE
8
BLACK
6
CONTINUOUS
10
1.70111
20
1.31699
11
1.70105
21
1.31702
0
LINE
8
BLACK
6
CONTINUOUS
10
1.70105
20
1.31702
11
1.69917
21
1.31889
0
LINE
8
BLACK
6
CONTINUOUS
10
1.69917
20
1.31889
11
1.69867
21
1.31961
0
LINE
8
BLACK
6
CONTINUOUS
10
1.69867
20
1.31961
11
1.69862
21
1.31966
0
LINE
8
BLACK
6
CONTINUOUS
10
1.69862
20
1.31966
11
1.69674
21
1.32341
0
LINE
8
BLACK
6
CONTINUOUS
10
1.69674
20
1.32341
11
1.6966
21
1.3239
0
LINE
8
BLACK
6
CONTINUOUS
10
1.6966
20
1.3239
11
1.69652
21
1.32401
0
LINE
8
BLACK
6
CONTINUOUS
10
1.69652
20
1.32401
11
1.69465
21
1.33151
0
LINE
8
BLACK
6
CONTINUOUS
10
1.69465
20
1.33151
11
1.6946
21
1.3321
0
LINE
8
BLACK
6
CONTINUOUS
10
1.6946
20
1.3321
11
1.69456
21
1.33223
0
LINE
8
BLACK
6
CONTINUOUS
10
1.69456
20
1.33223
11
1.69456
21
1.3416
0
LINE
8
BLACK
6
CONTINUOUS
10
1.69456
20
1.3416
11
1.69466
21
1.34218
0
LINE
8
BLACK
6
CONTINUOUS
10
1.69466
20
1.34218
11
1.69465
21
1.34232
0
LINE
8
BLACK
6
CONTINUOUS
10
1.69465
20
1.34232
11
1.69652
21
1.34982
0
LINE
8
BLACK
6
CONTINUOUS
10
1.69652
20
1.34982
11
1.69673
21
1.35028
0
LINE
8
BLACK
6
CONTINUOUS
10
1.69673
20
1.35028
11
1.69674
21
1.35042
0
LINE
8
BLACK
6
CONTINUOUS
10
1.69674
20
1.35042
11
1.69862
21
1.35417
0
LINE
8
BLACK
6
CONTINUOUS
10
1.69862
20
1.35417
11
1.69914
21
1.35488
0
LINE
8
BLACK
6
CONTINUOUS
10
1.69914
20
1.35488
11
1.69917
21
1.35494
0
LINE
8
BLACK
6
CONTINUOUS
10
1.69917
20
1.35494
11
1.70105
21
1.35681
0
LINE
8
BLACK
6
CONTINUOUS
10
1.70105
20
1.35681
11
1.70177
21
1.35732
0
LINE
8
BLACK
6
CONTINUOUS
10
1.70177
20
1.35732
11
1.70181
21
1.35737
0
LINE
8
BLACK
6
CONTINUOUS
10
1.70181
20
1.35737
11
1.70556
21
1.35924
0
LINE
8
BLACK
6
CONTINUOUS
10
1.70556
20
1.35924
11
1.70655
21
1.35953
0
LINE
8
BLACK
6
CONTINUOUS
10
1.70655
20
1.35953
11
1.70672
21
1.35949
0
LINE
8
BLACK
6
CONTINUOUS
10
1.70672
20
1.35949
11
1.70688
21
1.35955
0
LINE
8
BLACK
6
CONTINUOUS
10
1.70688
20
1.35955
11
1.71063
21
1.35955
0
LINE
8
BLACK
6
CONTINUOUS
10
1.71063
20
1.35955
11
1.71164
21
1.35937
0
LINE
8
BLACK
6
CONTINUOUS
10
1.70758
20
1.35365
11
1.70488
21
1.3523
0
LINE
8
BLACK
6
CONTINUOUS
10
1.70488
20
1.3523
11
1.70369
21
1.3511
0
LINE
8
BLACK
6
CONTINUOUS
10
1.70369
20
1.3511
11
1.70217
21
1.34807
0
LINE
8
BLACK
6
CONTINUOUS
10
1.70217
20
1.34807
11
1.70046
21
1.34124
0
LINE
8
BLACK
6
CONTINUOUS
10
1.70046
20
1.34124
11
1.70046
21
1.33259
0
LINE
8
BLACK
6
CONTINUOUS
10
1.70046
20
1.33259
11
1.70217
21
1.32576
0
LINE
8
BLACK
6
CONTINUOUS
10
1.70217
20
1.32576
11
1.70369
21
1.32273
0
LINE
8
BLACK
6
CONTINUOUS
10
1.70369
20
1.32273
11
1.70488
21
1.32153
0
LINE
8
BLACK
6
CONTINUOUS
10
1.70488
20
1.32153
11
1.70758
21
1.32018
0
LINE
8
BLACK
6
CONTINUOUS
10
1.70758
20
1.32018
11
1.70994
21
1.32018
0
LINE
8
BLACK
6
CONTINUOUS
10
1.70994
20
1.32018
11
1.71263
21
1.32153
0
LINE
8
BLACK
6
CONTINUOUS
10
1.71263
20
1.32153
11
1.71383
21
1.32273
0
LINE
8
BLACK
6
CONTINUOUS
10
1.71383
20
1.32273
11
1.71535
21
1.32576
0
LINE
8
BLACK
6
CONTINUOUS
10
1.71535
20
1.32576
11
1.71705
21
1.33259
0
LINE
8
BLACK
6
CONTINUOUS
10
1.71705
20
1.33259
11
1.71705
21
1.34124
0
LINE
8
BLACK
6
CONTINUOUS
10
1.71705
20
1.34124
11
1.71535
21
1.34807
0
LINE
8
BLACK
6
CONTINUOUS
10
1.71535
20
1.34807
11
1.71383
21
1.3511
0
LINE
8
BLACK
6
CONTINUOUS
10
1.71383
20
1.3511
11
1.71263
21
1.3523
0
LINE
8
BLACK
6
CONTINUOUS
10
1.71263
20
1.3523
11
1.70994
21
1.35365
0
LINE
8
BLACK
6
CONTINUOUS
10
1.70994
20
1.35365
11
1.70758
21
1.35365
0
LINE
8
BLACK
6
CONTINUOUS
10
1.89336
20
1.3594
11
1.89342
21
1.3594
0
LINE
8
BLACK
6
CONTINUOUS
10
1.89342
20
1.3594
11
1.89904
21
1.35753
0
LINE
8
BLACK
6
CONTINUOUS
10
1.89904
20
1.35753
11
1.89995
21
1.35704
0
LINE
8
BLACK
6
CONTINUOUS
10
1.89995
20
1.35704
11
1.90004
21
1.35689
0
LINE
8
BLACK
6
CONTINUOUS
10
1.90004
20
1.35689
11
1.9002
21
1.35681
0
LINE
8
BLACK
6
CONTINUOUS
10
1.9002
20
1.35681
11
1.90207
21
1.35494
0
LINE
8
BLACK
6
CONTINUOUS
10
1.90207
20
1.35494
11
1.90266
21
1.3541
0
LINE
8
BLACK
6
CONTINUOUS
10
1.90266
20
1.3541
11
1.90284
21
1.35209
0
LINE
8
BLACK
6
CONTINUOUS
10
1.90284
20
1.35209
11
1.90168
21
1.35043
0
LINE
8
BLACK
6
CONTINUOUS
10
1.90168
20
1.35043
11
1.89973
21
1.34991
0
LINE
8
BLACK
6
CONTINUOUS
10
1.89973
20
1.34991
11
1.8979
21
1.35076
0
LINE
8
BLACK
6
CONTINUOUS
10
1.8979
20
1.35076
11
1.89652
21
1.35214
0
LINE
8
BLACK
6
CONTINUOUS
10
1.89652
20
1.35214
11
1.89201
21
1.35365
0
LINE
8
BLACK
6
CONTINUOUS
10
1.89201
20
1.35365
11
1.88922
21
1.35365
0
LINE
8
BLACK
6
CONTINUOUS
10
1.88922
20
1.35365
11
1.88471
21
1.35214
0
LINE
8
BLACK
6
CONTINUOUS
10
1.88471
20
1.35214
11
1.88179
21
1.34923
0
LINE
8
BLACK
6
CONTINUOUS
10
1.88179
20
1.34923
11
1.88027
21
1.34619
0
LINE
8
BLACK
6
CONTINUOUS
10
1.88027
20
1.34619
11
1.87857
21
1.33936
0
LINE
8
BLACK
6
CONTINUOUS
10
1.87857
20
1.33936
11
1.87857
21
1.33447
0
LINE
8
BLACK
6
CONTINUOUS
10
1.87857
20
1.33447
11
1.88027
21
1.32763
0
LINE
8
BLACK
6
CONTINUOUS
10
1.88027
20
1.32763
11
1.88179
21
1.3246
0
LINE
8
BLACK
6
CONTINUOUS
10
1.88179
20
1.3246
11
1.88471
21
1.32168
0
LINE
8
BLACK
6
CONTINUOUS
10
1.88471
20
1.32168
11
1.88922
21
1.32018
0
LINE
8
BLACK
6
CONTINUOUS
10
1.88922
20
1.32018
11
1.89201
21
1.32018
0
LINE
8
BLACK
6
CONTINUOUS
10
1.89201
20
1.32018
11
1.89652
21
1.32168
0
LINE
8
BLACK
6
CONTINUOUS
10
1.89652
20
1.32168
11
1.8979
21
1.32307
0
LINE
8
BLACK
6
CONTINUOUS
10
1.8979
20
1.32307
11
1.89874
21
1.32365
0
LINE
8
BLACK
6
CONTINUOUS
10
1.89874
20
1.32365
11
1.90075
21
1.32383
0
LINE
8
BLACK
6
CONTINUOUS
10
1.90075
20
1.32383
11
1.9024
21
1.32267
0
LINE
8
BLACK
6
CONTINUOUS
10
1.9024
20
1.32267
11
1.90293
21
1.32072
0
LINE
8
BLACK
6
CONTINUOUS
10
1.90293
20
1.32072
11
1.90207
21
1.31889
0
LINE
8
BLACK
6
CONTINUOUS
10
1.90207
20
1.31889
11
1.9002
21
1.31702
0
LINE
8
BLACK
6
CONTINUOUS
10
1.9002
20
1.31702
11
1.89936
21
1.31643
0
LINE
8
BLACK
6
CONTINUOUS
10
1.89936
20
1.31643
11
1.89918
21
1.31641
0
LINE
8
BLACK
6
CONTINUOUS
10
1.89918
20
1.31641
11
1.89904
21
1.3163
0
LINE
8
BLACK
6
CONTINUOUS
10
1.89904
20
1.3163
11
1.89342
21
1.31443
0
LINE
8
BLACK
6
CONTINUOUS
10
1.89342
20
1.31443
11
1.89255
21
1.3143
0
LINE
8
BLACK
6
CONTINUOUS
10
1.89255
20
1.3143
11
1.89249
21
1.31428
0
LINE
8
BLACK
6
CONTINUOUS
10
1.89249
20
1.31428
11
1.88874
21
1.31428
0
LINE
8
BLACK
6
CONTINUOUS
10
1.88874
20
1.31428
11
1.88787
21
1.31443
0
LINE
8
BLACK
6
CONTINUOUS
10
1.88787
20
1.31443
11
1.8878
21
1.31443
0
LINE
8
BLACK
6
CONTINUOUS
10
1.8878
20
1.31443
11
1.88218
21
1.3163
0
LINE
8
BLACK
6
CONTINUOUS
10
1.88218
20
1.3163
11
1.88128
21
1.31679
0
LINE
8
BLACK
6
CONTINUOUS
10
1.88128
20
1.31679
11
1.88118
21
1.31694
0
LINE
8
BLACK
6
CONTINUOUS
10
1.88118
20
1.31694
11
1.88102
21
1.31702
0
LINE
8
BLACK
6
CONTINUOUS
10
1.88102
20
1.31702
11
1.87727
21
1.32077
0
LINE
8
BLACK
6
CONTINUOUS
10
1.87727
20
1.32077
11
1.87677
21
1.32149
0
LINE
8
BLACK
6
CONTINUOUS
10
1.87677
20
1.32149
11
1.87672
21
1.32153
0
LINE
8
BLACK
6
CONTINUOUS
10
1.87672
20
1.32153
11
1.87485
21
1.32528
0
LINE
8
BLACK
6
CONTINUOUS
10
1.87485
20
1.32528
11
1.8747
21
1.32577
0
LINE
8
BLACK
6
CONTINUOUS
10
1.8747
20
1.32577
11
1.87462
21
1.32589
0
LINE
8
BLACK
6
CONTINUOUS
10
1.87462
20
1.32589
11
1.87275
21
1.33339
0
LINE
8
BLACK
6
CONTINUOUS
10
1.87275
20
1.33339
11
1.87271
21
1.33397
0
LINE
8
BLACK
6
CONTINUOUS
10
1.87271
20
1.33397
11
1.87266
21
1.3341
0
LINE
8
BLACK
6
CONTINUOUS
10
1.87266
20
1.3341
11
1.87266
21
1.33973
0
LINE
8
BLACK
6
CONTINUOUS
10
1.87266
20
1.33973
11
1.87276
21
1.34031
0
LINE
8
BLACK
6
CONTINUOUS
10
1.87276
20
1.34031
11
1.87275
21
1.34044
0
LINE
8
BLACK
6
CONTINUOUS
10
1.87275
20
1.34044
11
1.87462
21
1.34794
0
LINE
8
BLACK
6
CONTINUOUS
10
1.87462
20
1.34794
11
1.87483
21
1.34841
0
LINE
8
BLACK
6
CONTINUOUS
10
1.87483
20
1.34841
11
1.87485
21
1.34855
0
LINE
8
BLACK
6
CONTINUOUS
10
1.87485
20
1.34855
11
1.87672
21
1.3523
0
LINE
8
BLACK
6
CONTINUOUS
10
1.87672
20
1.3523
11
1.87725
21
1.353
0
LINE
8
BLACK
6
CONTINUOUS
10
1.87725
20
1.353
11
1.87727
21
1.35306
0
LINE
8
BLACK
6
CONTINUOUS
10
1.87727
20
1.35306
11
1.88102
21
1.35681
0
LINE
8
BLACK
6
CONTINUOUS
10
1.88102
20
1.35681
11
1.88186
21
1.3574
0
LINE
8
BLACK
6
CONTINUOUS
10
1.88186
20
1.3574
11
1.88204
21
1.35742
0
LINE
8
BLACK
6
CONTINUOUS
10
1.88204
20
1.35742
11
1.88218
21
1.35753
0
LINE
8
BLACK
6
CONTINUOUS
10
1.88218
20
1.35753
11
1.8878
21
1.3594
0
LINE
8
BLACK
6
CONTINUOUS
10
1.8878
20
1.3594
11
1.88868
21
1.35953
0
LINE
8
BLACK
6
CONTINUOUS
10
1.88868
20
1.35953
11
1.88874
21
1.35955
0
LINE
8
BLACK
6
CONTINUOUS
10
1.88874
20
1.35955
11
1.89249
21
1.35955
0
LINE
8
BLACK
6
CONTINUOUS
10
1.89249
20
1.35955
11
1.89336
21
1.3594
0
LINE
8
BLACK
6
CONTINUOUS
10
1.83101
20
1.3585
11
1.8317
21
1.3566
0
LINE
8
BLACK
6
CONTINUOUS
10
1.8317
20
1.3566
11
1.8317
21
1.31723
0
LINE
8
BLACK
6
CONTINUOUS
10
1.8317
20
1.31723
11
1.83152
21
1.31622
0
LINE
8
BLACK
6
CONTINUOUS
10
1.83152
20
1.31622
11
1.83134
21
1.31601
0
LINE
8
BLACK
6
CONTINUOUS
10
1.83134
20
1.31601
11
1.83129
21
1.31574
0
LINE
8
BLACK
6
CONTINUOUS
10
1.83129
20
1.31574
11
1.83071
21
1.31525
0
LINE
8
BLACK
6
CONTINUOUS
10
1.83071
20
1.31525
11
1.83022
21
1.31467
0
LINE
8
BLACK
6
CONTINUOUS
10
1.83022
20
1.31467
11
1.82995
21
1.31462
0
LINE
8
BLACK
6
CONTINUOUS
10
1.82995
20
1.31462
11
1.82974
21
1.31445
0
LINE
8
BLACK
6
CONTINUOUS
10
1.82974
20
1.31445
11
1.82898
21
1.31445
0
LINE
8
BLACK
6
CONTINUOUS
10
1.82898
20
1.31445
11
1.82823
21
1.31432
0
LINE
8
BLACK
6
CONTINUOUS
10
1.82823
20
1.31432
11
1.82799
21
1.31446
0
LINE
8
BLACK
6
CONTINUOUS
10
1.82799
20
1.31446
11
1.82772
21
1.31446
0
LINE
8
BLACK
6
CONTINUOUS
10
1.82772
20
1.31446
11
1.82714
21
1.31495
0
LINE
8
BLACK
6
CONTINUOUS
10
1.82714
20
1.31495
11
1.82648
21
1.31533
0
LINE
8
BLACK
6
CONTINUOUS
10
1.82648
20
1.31533
11
1.82639
21
1.31559
0
LINE
8
BLACK
6
CONTINUOUS
10
1.82639
20
1.31559
11
1.82618
21
1.31576
0
LINE
8
BLACK
6
CONTINUOUS
10
1.82618
20
1.31576
11
1.8092
21
1.34548
0
LINE
8
BLACK
6
CONTINUOUS
10
1.8092
20
1.34548
11
1.8092
21
1.31723
0
LINE
8
BLACK
6
CONTINUOUS
10
1.8092
20
1.31723
11
1.80902
21
1.31622
0
LINE
8
BLACK
6
CONTINUOUS
10
1.80902
20
1.31622
11
1.80772
21
1.31467
0
LINE
8
BLACK
6
CONTINUOUS
10
1.80772
20
1.31467
11
1.80573
21
1.31432
0
LINE
8
BLACK
6
CONTINUOUS
10
1.80573
20
1.31432
11
1.80398
21
1.31533
0
LINE
8
BLACK
6
CONTINUOUS
10
1.80398
20
1.31533
11
1.80329
21
1.31723
0
LINE
8
BLACK
6
CONTINUOUS
10
1.80329
20
1.31723
11
1.80329
21
1.3566
0
LINE
8
BLACK
6
CONTINUOUS
10
1.80329
20
1.3566
11
1.80347
21
1.35761
0
LINE
8
BLACK
6
CONTINUOUS
10
1.80347
20
1.35761
11
1.80365
21
1.35782
0
LINE
8
BLACK
6
CONTINUOUS
10
1.80365
20
1.35782
11
1.8037
21
1.35809
0
LINE
8
BLACK
6
CONTINUOUS
10
1.8037
20
1.35809
11
1.80428
21
1.35857
0
LINE
8
BLACK
6
CONTINUOUS
10
1.80428
20
1.35857
11
1.80477
21
1.35916
0
LINE
8
BLACK
6
CONTINUOUS
10
1.80477
20
1.35916
11
1.80504
21
1.3592
0
LINE
8
BLACK
6
CONTINUOUS
10
1.80504
20
1.3592
11
1.80525
21
1.35938
0
LINE
8
BLACK
6
CONTINUOUS
10
1.80525
20
1.35938
11
1.80601
21
1.35938
0
LINE
8
BLACK
6
CONTINUOUS
10
1.80601
20
1.35938
11
1.80676
21
1.35951
0
LINE
8
BLACK
6
CONTINUOUS
10
1.80676
20
1.35951
11
1.807
21
1.35937
0
LINE
8
BLACK
6
CONTINUOUS
10
1.807
20
1.35937
11
1.80727
21
1.35937
0
LINE
8
BLACK
6
CONTINUOUS
10
1.80727
20
1.35937
11
1.80785
21
1.35888
0
LINE
8
BLACK
6
CONTINUOUS
10
1.80785
20
1.35888
11
1.80851
21
1.3585
0
LINE
8
BLACK
6
CONTINUOUS
10
1.80851
20
1.3585
11
1.8086
21
1.35824
0
LINE
8
BLACK
6
CONTINUOUS
10
1.8086
20
1.35824
11
1.80881
21
1.35806
0
LINE
8
BLACK
6
CONTINUOUS
10
1.80881
20
1.35806
11
1.82579
21
1.32835
0
LINE
8
BLACK
6
CONTINUOUS
10
1.82579
20
1.32835
11
1.82579
21
1.3566
0
LINE
8
BLACK
6
CONTINUOUS
10
1.82579
20
1.3566
11
1.82597
21
1.35761
0
LINE
8
BLACK
6
CONTINUOUS
10
1.82597
20
1.35761
11
1.82727
21
1.35916
0
LINE
8
BLACK
6
CONTINUOUS
10
1.82727
20
1.35916
11
1.82926
21
1.35951
0
LINE
8
BLACK
6
CONTINUOUS
10
1.82926
20
1.35951
11
1.83101
21
1.3585
0
LINE
8
BLACK
6
CONTINUOUS
10
1.86537
20
1.35937
11
1.86692
21
1.35808
0
LINE
8
BLACK
6
CONTINUOUS
10
1.86692
20
1.35808
11
1.86727
21
1.35609
0
LINE
8
BLACK
6
CONTINUOUS
10
1.86727
20
1.35609
11
1.86626
21
1.35434
0
LINE
8
BLACK
6
CONTINUOUS
10
1.86626
20
1.35434
11
1.86436
21
1.35365
0
LINE
8
BLACK
6
CONTINUOUS
10
1.86436
20
1.35365
11
1.85607
21
1.35365
0
LINE
8
BLACK
6
CONTINUOUS
10
1.85607
20
1.35365
11
1.85607
21
1.31723
0
LINE
8
BLACK
6
CONTINUOUS
10
1.85607
20
1.31723
11
1.85589
21
1.31622
0
LINE
8
BLACK
6
CONTINUOUS
10
1.85589
20
1.31622
11
1.85459
21
1.31467
0
LINE
8
BLACK
6
CONTINUOUS
10
1.85459
20
1.31467
11
1.8526
21
1.31432
0
LINE
8
BLACK
6
CONTINUOUS
10
1.8526
20
1.31432
11
1.85085
21
1.31533
0
LINE
8
BLACK
6
CONTINUOUS
10
1.85085
20
1.31533
11
1.85016
21
1.31723
0
LINE
8
BLACK
6
CONTINUOUS
10
1.85016
20
1.31723
11
1.85016
21
1.35365
0
LINE
8
BLACK
6
CONTINUOUS
10
1.85016
20
1.35365
11
1.84187
21
1.35365
0
LINE
8
BLACK
6
CONTINUOUS
10
1.84187
20
1.35365
11
1.84086
21
1.35382
0
LINE
8
BLACK
6
CONTINUOUS
10
1.84086
20
1.35382
11
1.83931
21
1.35512
0
LINE
8
BLACK
6
CONTINUOUS
10
1.83931
20
1.35512
11
1.83896
21
1.35711
0
LINE
8
BLACK
6
CONTINUOUS
10
1.83896
20
1.35711
11
1.83997
21
1.35886
0
LINE
8
BLACK
6
CONTINUOUS
10
1.83997
20
1.35886
11
1.84187
21
1.35955
0
LINE
8
BLACK
6
CONTINUOUS
10
1.84187
20
1.35955
11
1.86436
21
1.35955
0
LINE
8
BLACK
6
CONTINUOUS
10
1.86436
20
1.35955
11
1.86537
21
1.35937
0
LINE
8
BLACK
6
CONTINUOUS
10
1.73914
20
1.3585
11
1.73983
21
1.3566
0
LINE
8
BLACK
6
CONTINUOUS
10
1.73983
20
1.3566
11
1.73983
21
1.34123
0
LINE
8
BLACK
6
CONTINUOUS
10
1.73983
20
1.34123
11
1.75729
21
1.35869
0
LINE
8
BLACK
6
CONTINUOUS
10
1.75729
20
1.35869
11
1.75813
21
1.35928
0
LINE
8
BLACK
6
CONTINUOUS
10
1.75813
20
1.35928
11
1.76014
21
1.35945
0
LINE
8
BLACK
6
CONTINUOUS
10
1.76014
20
1.35945
11
1.7618
21
1.35829
0
LINE
8
BLACK
6
CONTINUOUS
10
1.7618
20
1.35829
11
1.76232
21
1.35634
0
LINE
8
BLACK
6
CONTINUOUS
10
1.76232
20
1.35634
11
1.76147
21
1.35451
0
LINE
8
BLACK
6
CONTINUOUS
10
1.76147
20
1.35451
11
1.7464
21
1.33945
0
LINE
8
BLACK
6
CONTINUOUS
10
1.7464
20
1.33945
11
1.76174
21
1.319
0
LINE
8
BLACK
6
CONTINUOUS
10
1.76174
20
1.319
11
1.7622
21
1.31809
0
LINE
8
BLACK
6
CONTINUOUS
10
1.7622
20
1.31809
11
1.76209
21
1.31607
0
LINE
8
BLACK
6
CONTINUOUS
10
1.76209
20
1.31607
11
1.76071
21
1.3146
0
LINE
8
BLACK
6
CONTINUOUS
10
1.76071
20
1.3146
11
1.75871
21
1.31435
0
LINE
8
BLACK
6
CONTINUOUS
10
1.75871
20
1.31435
11
1.75702
21
1.31546
0
LINE
8
BLACK
6
CONTINUOUS
10
1.75702
20
1.31546
11
1.74219
21
1.33523
0
LINE
8
BLACK
6
CONTINUOUS
10
1.74219
20
1.33523
11
1.73983
21
1.33288
0
LINE
8
BLACK
6
CONTINUOUS
10
1.73983
20
1.33288
11
1.73983
21
1.31723
0
LINE
8
BLACK
6
CONTINUOUS
10
1.73983
20
1.31723
11
1.73966
21
1.31622
0
LINE
8
BLACK
6
CONTINUOUS
10
1.73966
20
1.31622
11
1.73836
21
1.31467
0
LINE
8
BLACK
6
CONTINUOUS
10
1.73836
20
1.31467
11
1.73637
21
1.31432
0
LINE
8
BLACK
6
CONTINUOUS
10
1.73637
20
1.31432
11
1.73462
21
1.31533
0
LINE
8
BLACK
6
CONTINUOUS
10
1.73462
20
1.31533
11
1.73393
21
1.31723
0
LINE
8
BLACK
6
CONTINUOUS
10
1.73393
20
1.31723
11
1.73393
21
1.3566
0
LINE
8
BLACK
6
CONTINUOUS
10
1.73393
20
1.3566
11
1.73411
21
1.35761
0
LINE
8
BLACK
6
CONTINUOUS
10
1.73411
20
1.35761
11
1.7354
21
1.35916
0
LINE
8
BLACK
6
CONTINUOUS
10
1.7354
20
1.35916
11
1.73739
21
1.35951
0
LINE
8
BLACK
6
CONTINUOUS
10
1.73739
20
1.35951
11
1.73914
21
1.3585
0
LINE
8
BLACK
6
CONTINUOUS
10
1.73924
20
1.374
11
1.73866
21
1.37539
0
LINE
8
BLACK
6
CONTINUOUS
10
1.73866
20
1.37539
11
1.73866
21
1.42461
0
LINE
8
BLACK
6
CONTINUOUS
10
1.73866
20
1.42461
11
1.73924
21
1.426
0
LINE
8
BLACK
6
CONTINUOUS
10
1.73924
20
1.426
11
1.74063
21
1.42657
0
LINE
8
BLACK
6
CONTINUOUS
10
1.74063
20
1.42657
11
1.81937
21
1.42657
0
LINE
8
BLACK
6
CONTINUOUS
10
1.81937
20
1.42657
11
1.82076
21
1.426
0
LINE
8
BLACK
6
CONTINUOUS
10
1.82076
20
1.426
11
1.82134
21
1.42461
0
LINE
8
BLACK
6
CONTINUOUS
10
1.82134
20
1.42461
11
1.82134
21
1.37539
0
LINE
8
BLACK
6
CONTINUOUS
10
1.82134
20
1.37539
11
1.82076
21
1.374
0
LINE
8
BLACK
6
CONTINUOUS
10
1.82076
20
1.374
11
1.81937
21
1.37343
0
LINE
8
BLACK
6
CONTINUOUS
10
1.81937
20
1.37343
11
1.74063
21
1.37343
0
LINE
8
BLACK
6
CONTINUOUS
10
1.74063
20
1.37343
11
1.73924
21
1.374
0
LINE
8
BLACK
6
CONTINUOUS
10
1.7426
20
1.42264
11
1.7426
21
1.37736
0
LINE
8
BLACK
6
CONTINUOUS
10
1.7426
20
1.37736
11
1.8174
21
1.37736
0
LINE
8
BLACK
6
CONTINUOUS
10
1.8174
20
1.37736
11
1.8174
21
1.42264
0
LINE
8
BLACK
6
CONTINUOUS
10
1.8174
20
1.42264
11
1.7426
21
1.42264
0
LINE
8
BLACK
6
CONTINUOUS
10
1.79031
20
1.41242
11
1.7904
21
1.41122
0
LINE
8
BLACK
6
CONTINUOUS
10
1.7904
20
1.41122
11
1.7864
21
1.39923
0
LINE
8
BLACK
6
CONTINUOUS
10
1.7864
20
1.39923
11
1.79202
21
1.39923
0
LINE
8
BLACK
6
CONTINUOUS
10
1.79202
20
1.39923
11
1.79202
21
1.40422
0
LINE
8
BLACK
6
CONTINUOUS
10
1.79202
20
1.40422
11
1.79248
21
1.40533
0
LINE
8
BLACK
6
CONTINUOUS
10
1.79248
20
1.40533
11
1.79359
21
1.40579
0
LINE
8
BLACK
6
CONTINUOUS
10
1.79359
20
1.40579
11
1.79471
21
1.40533
0
LINE
8
BLACK
6
CONTINUOUS
10
1.79471
20
1.40533
11
1.79517
21
1.40422
0
LINE
8
BLACK
6
CONTINUOUS
10
1.79517
20
1.40422
11
1.79517
21
1.39923
0
LINE
8
BLACK
6
CONTINUOUS
10
1.79517
20
1.39923
11
1.7964
21
1.39923
0
LINE
8
BLACK
6
CONTINUOUS
10
1.7964
20
1.39923
11
1.79752
21
1.39877
0
LINE
8
BLACK
6
CONTINUOUS
10
1.79752
20
1.39877
11
1.79798
21
1.39766
0
LINE
8
BLACK
6
CONTINUOUS
10
1.79798
20
1.39766
11
1.79752
21
1.39654
0
LINE
8
BLACK
6
CONTINUOUS
10
1.79752
20
1.39654
11
1.7964
21
1.39608
0
LINE
8
BLACK
6
CONTINUOUS
10
1.7964
20
1.39608
11
1.79517
21
1.39608
0
LINE
8
BLACK
6
CONTINUOUS
10
1.79517
20
1.39608
11
1.79517
21
1.39109
0
LINE
8
BLACK
6
CONTINUOUS
10
1.79517
20
1.39109
11
1.79471
21
1.38998
0
LINE
8
BLACK
6
CONTINUOUS
10
1.79471
20
1.38998
11
1.79359
21
1.38952
0
LINE
8
BLACK
6
CONTINUOUS
10
1.79359
20
1.38952
11
1.79248
21
1.38998
0
LINE
8
BLACK
6
CONTINUOUS
10
1.79248
20
1.38998
11
1.79202
21
1.39109
0
LINE
8
BLACK
6
CONTINUOUS
10
1.79202
20
1.39109
11
1.79202
21
1.39608
0
LINE
8
BLACK
6
CONTINUOUS
10
1.79202
20
1.39608
11
1.78422
21
1.39608
0
LINE
8
BLACK
6
CONTINUOUS
10
1.78422
20
1.39608
11
1.78398
21
1.39618
0
LINE
8
BLACK
6
CONTINUOUS
10
1.78398
20
1.39618
11
1.78372
21
1.39616
0
LINE
8
BLACK
6
CONTINUOUS
10
1.78372
20
1.39616
11
1.78344
21
1.3964
0
LINE
8
BLACK
6
CONTINUOUS
10
1.78344
20
1.3964
11
1.7831
21
1.39654
0
LINE
8
BLACK
6
CONTINUOUS
10
1.7831
20
1.39654
11
1.78301
21
1.39678
0
LINE
8
BLACK
6
CONTINUOUS
10
1.78301
20
1.39678
11
1.78281
21
1.39695
0
LINE
8
BLACK
6
CONTINUOUS
10
1.78281
20
1.39695
11
1.78278
21
1.39732
0
LINE
8
BLACK
6
CONTINUOUS
10
1.78278
20
1.39732
11
1.78264
21
1.39766
0
LINE
8
BLACK
6
CONTINUOUS
10
1.78264
20
1.39766
11
1.78274
21
1.3979
0
LINE
8
BLACK
6
CONTINUOUS
10
1.78274
20
1.3979
11
1.78272
21
1.39815
0
LINE
8
BLACK
6
CONTINUOUS
10
1.78272
20
1.39815
11
1.78741
21
1.41222
0
LINE
8
BLACK
6
CONTINUOUS
10
1.78741
20
1.41222
11
1.7882
21
1.41313
0
LINE
8
BLACK
6
CONTINUOUS
10
1.7882
20
1.41313
11
1.7894
21
1.41321
0
LINE
8
BLACK
6
CONTINUOUS
10
1.7894
20
1.41321
11
1.79031
21
1.41242
0
LINE
8
BLACK
6
CONTINUOUS
10
1.77331
20
1.41221
11
1.77367
21
1.41219
0
LINE
8
BLACK
6
CONTINUOUS
10
1.77367
20
1.41219
11
1.77555
21
1.41125
0
LINE
8
BLACK
6
CONTINUOUS
10
1.77555
20
1.41125
11
1.77572
21
1.41106
0
LINE
8
BLACK
6
CONTINUOUS
10
1.77572
20
1.41106
11
1.77596
21
1.41096
0
LINE
8
BLACK
6
CONTINUOUS
10
1.77596
20
1.41096
11
1.7769
21
1.41002
0
LINE
8
BLACK
6
CONTINUOUS
10
1.7769
20
1.41002
11
1.77699
21
1.40978
0
LINE
8
BLACK
6
CONTINUOUS
10
1.77699
20
1.40978
11
1.77719
21
1.40961
0
LINE
8
BLACK
6
CONTINUOUS
10
1.77719
20
1.40961
11
1.77813
21
1.40773
0
LINE
8
BLACK
6
CONTINUOUS
10
1.77813
20
1.40773
11
1.77815
21
1.40737
0
LINE
8
BLACK
6
CONTINUOUS
10
1.77815
20
1.40737
11
1.77829
21
1.40703
0
LINE
8
BLACK
6
CONTINUOUS
10
1.77829
20
1.40703
11
1.77829
21
1.40422
0
LINE
8
BLACK
6
CONTINUOUS
10
1.77829
20
1.40422
11
1.77815
21
1.40388
0
LINE
8
BLACK
6
CONTINUOUS
10
1.77815
20
1.40388
11
1.77813
21
1.40351
0
LINE
8
BLACK
6
CONTINUOUS
10
1.77813
20
1.40351
11
1.77719
21
1.40164
0
LINE
8
BLACK
6
CONTINUOUS
10
1.77719
20
1.40164
11
1.77699
21
1.40147
0
LINE
8
BLACK
6
CONTINUOUS
10
1.77699
20
1.40147
11
1.7769
21
1.40123
0
LINE
8
BLACK
6
CONTINUOUS
10
1.7769
20
1.40123
11
1.77596
21
1.40029
0
LINE
8
BLACK
6
CONTINUOUS
10
1.77596
20
1.40029
11
1.77572
21
1.40019
0
LINE
8
BLACK
6
CONTINUOUS
10
1.77572
20
1.40019
11
1.77555
21
1.4
0
LINE
8
BLACK
6
CONTINUOUS
10
1.77555
20
1.4
11
1.77367
21
1.39906
0
LINE
8
BLACK
6
CONTINUOUS
10
1.77367
20
1.39906
11
1.77331
21
1.39903
0
LINE
8
BLACK
6
CONTINUOUS
10
1.77331
20
1.39903
11
1.77313
21
1.39896
0
LINE
8
BLACK
6
CONTINUOUS
10
1.77313
20
1.39896
11
1.77801
21
1.392
0
LINE
8
BLACK
6
CONTINUOUS
10
1.77801
20
1.392
11
1.77827
21
1.39082
0
LINE
8
BLACK
6
CONTINUOUS
10
1.77827
20
1.39082
11
1.77762
21
1.3898
0
LINE
8
BLACK
6
CONTINUOUS
10
1.77762
20
1.3898
11
1.77645
21
1.38954
0
LINE
8
BLACK
6
CONTINUOUS
10
1.77645
20
1.38954
11
1.77543
21
1.39019
0
LINE
8
BLACK
6
CONTINUOUS
10
1.77543
20
1.39019
11
1.76934
21
1.39889
0
LINE
8
BLACK
6
CONTINUOUS
10
1.76934
20
1.39889
11
1.76705
21
1.39889
0
LINE
8
BLACK
6
CONTINUOUS
10
1.76705
20
1.39889
11
1.76705
21
1.39109
0
LINE
8
BLACK
6
CONTINUOUS
10
1.76705
20
1.39109
11
1.76658
21
1.38998
0
LINE
8
BLACK
6
CONTINUOUS
10
1.76658
20
1.38998
11
1.76547
21
1.38952
0
LINE
8
BLACK
6
CONTINUOUS
10
1.76547
20
1.38952
11
1.76436
21
1.38998
0
LINE
8
BLACK
6
CONTINUOUS
10
1.76436
20
1.38998
11
1.7639
21
1.39109
0
LINE
8
BLACK
6
CONTINUOUS
10
1.7639
20
1.39109
11
1.7639
21
1.41078
0
LINE
8
BLACK
6
CONTINUOUS
10
1.7639
20
1.41078
11
1.76436
21
1.41189
0
LINE
8
BLACK
6
CONTINUOUS
10
1.76436
20
1.41189
11
1.76547
21
1.41235
0
LINE
8
BLACK
6
CONTINUOUS
10
1.76547
20
1.41235
11
1.77297
21
1.41235
0
LINE
8
BLACK
6
CONTINUOUS
10
1.77297
20
1.41235
11
1.77331
21
1.41221
0
LINE
8
BLACK
6
CONTINUOUS
10
1.76705
20
1.40921
11
1.76705
21
1.40204
0
LINE
8
BLACK
6
CONTINUOUS
10
1.76705
20
1.40204
11
1.7726
21
1.40204
0
LINE
8
BLACK
6
CONTINUOUS
10
1.7726
20
1.40204
11
1.77391
21
1.4027
0
LINE
8
BLACK
6
CONTINUOUS
10
1.77391
20
1.4027
11
1.77449
21
1.40328
0
LINE
8
BLACK
6
CONTINUOUS
10
1.77449
20
1.40328
11
1.77514
21
1.40459
0
LINE
8
BLACK
6
CONTINUOUS
10
1.77514
20
1.40459
11
1.77514
21
1.40666
0
LINE
8
BLACK
6
CONTINUOUS
10
1.77514
20
1.40666
11
1.77449
21
1.40797
0
LINE
8
BLACK
6
CONTINUOUS
10
1.77449
20
1.40797
11
1.77391
21
1.40855
0
LINE
8
BLACK
6
CONTINUOUS
10
1.77391
20
1.40855
11
1.7726
21
1.40921
0
LINE
8
BLACK
6
CONTINUOUS
10
1.7726
20
1.40921
11
1.76705
21
1.40921
0
LINE
8
BLACK
6
CONTINUOUS
10
1.64796
20
1.41777
11
1.64809
21
1.41765
0
LINE
8
BLACK
6
CONTINUOUS
10
1.64809
20
1.41765
11
1.64827
21
1.41763
0
LINE
8
BLACK
6
CONTINUOUS
10
1.64827
20
1.41763
11
1.65202
21
1.41576
0
LINE
8
BLACK
6
CONTINUOUS
10
1.65202
20
1.41576
11
1.65273
21
1.41523
0
LINE
8
BLACK
6
CONTINUOUS
10
1.65273
20
1.41523
11
1.65279
21
1.41521
0
LINE
8
BLACK
6
CONTINUOUS
10
1.65279
20
1.41521
11
1.65445
21
1.41354
0
LINE
8
BLACK
6
CONTINUOUS
10
1.65445
20
1.41354
11
1.65611
21
1.41521
0
LINE
8
BLACK
6
CONTINUOUS
10
1.65611
20
1.41521
11
1.65683
21
1.41571
0
LINE
8
BLACK
6
CONTINUOUS
10
1.65683
20
1.41571
11
1.65688
21
1.41576
0
LINE
8
BLACK
6
CONTINUOUS
10
1.65688
20
1.41576
11
1.66063
21
1.41763
0
LINE
8
BLACK
6
CONTINUOUS
10
1.66063
20
1.41763
11
1.66161
21
1.41793
0
LINE
8
BLACK
6
CONTINUOUS
10
1.66161
20
1.41793
11
1.66178
21
1.41788
0
LINE
8
BLACK
6
CONTINUOUS
10
1.66178
20
1.41788
11
1.66195
21
1.41795
0
LINE
8
BLACK
6
CONTINUOUS
10
1.66195
20
1.41795
11
1.66945
21
1.41795
0
LINE
8
BLACK
6
CONTINUOUS
10
1.66945
20
1.41795
11
1.67045
21
1.41777
0
LINE
8
BLACK
6
CONTINUOUS
10
1.67045
20
1.41777
11
1.67059
21
1.41765
0
LINE
8
BLACK
6
CONTINUOUS
10
1.67059
20
1.41765
11
1.67077
21
1.41763
0
LINE
8
BLACK
6
CONTINUOUS
10
1.67077
20
1.41763
11
1.67452
21
1.41576
0
LINE
8
BLACK
6
CONTINUOUS
10
1.67452
20
1.41576
11
1.67522
21
1.41523
0
LINE
8
BLACK
6
CONTINUOUS
10
1.67522
20
1.41523
11
1.67528
21
1.41521
0
LINE
8
BLACK
6
CONTINUOUS
10
1.67528
20
1.41521
11
1.67716
21
1.41333
0
LINE
8
BLACK
6
CONTINUOUS
10
1.67716
20
1.41333
11
1.67766
21
1.41261
0
LINE
8
BLACK
6
CONTINUOUS
10
1.67766
20
1.41261
11
1.67771
21
1.41256
0
LINE
8
BLACK
6
CONTINUOUS
10
1.67771
20
1.41256
11
1.67959
21
1.40881
0
LINE
8
BLACK
6
CONTINUOUS
10
1.67959
20
1.40881
11
1.67988
21
1.40783
0
LINE
8
BLACK
6
CONTINUOUS
10
1.67988
20
1.40783
11
1.67984
21
1.40766
0
LINE
8
BLACK
6
CONTINUOUS
10
1.67984
20
1.40766
11
1.6799
21
1.40749
0
LINE
8
BLACK
6
CONTINUOUS
10
1.6799
20
1.40749
11
1.6799
21
1.39999
0
LINE
8
BLACK
6
CONTINUOUS
10
1.6799
20
1.39999
11
1.67972
21
1.39898
0
LINE
8
BLACK
6
CONTINUOUS
10
1.67972
20
1.39898
11
1.67961
21
1.39885
0
LINE
8
BLACK
6
CONTINUOUS
10
1.67961
20
1.39885
11
1.67959
21
1.39867
0
LINE
8
BLACK
6
CONTINUOUS
10
1.67959
20
1.39867
11
1.67771
21
1.39492
0
LINE
8
BLACK
6
CONTINUOUS
10
1.67771
20
1.39492
11
1.67718
21
1.39422
0
LINE
8
BLACK
6
CONTINUOUS
10
1.67718
20
1.39422
11
1.67716
21
1.39416
0
LINE
8
BLACK
6
CONTINUOUS
10
1.67716
20
1.39416
11
1.67528
21
1.39228
0
LINE
8
BLACK
6
CONTINUOUS
10
1.67528
20
1.39228
11
1.67456
21
1.39178
0
LINE
8
BLACK
6
CONTINUOUS
10
1.67456
20
1.39178
11
1.67452
21
1.39173
0
LINE
8
BLACK
6
CONTINUOUS
10
1.67452
20
1.39173
11
1.67077
21
1.38985
0
LINE
8
BLACK
6
CONTINUOUS
10
1.67077
20
1.38985
11
1.66978
21
1.38956
0
LINE
8
BLACK
6
CONTINUOUS
10
1.66978
20
1.38956
11
1.66961
21
1.3896
0
LINE
8
BLACK
6
CONTINUOUS
10
1.66961
20
1.3896
11
1.66945
21
1.38954
0
LINE
8
BLACK
6
CONTINUOUS
10
1.66945
20
1.38954
11
1.66195
21
1.38954
0
LINE
8
BLACK
6
CONTINUOUS
10
1.66195
20
1.38954
11
1.66094
21
1.38972
0
LINE
8
BLACK
6
CONTINUOUS
10
1.66094
20
1.38972
11
1.6608
21
1.38983
0
LINE
8
BLACK
6
CONTINUOUS
10
1.6608
20
1.38983
11
1.66063
21
1.38985
0
LINE
8
BLACK
6
CONTINUOUS
10
1.66063
20
1.38985
11
1.65688
21
1.39173
0
LINE
8
BLACK
6
CONTINUOUS
10
1.65688
20
1.39173
11
1.65617
21
1.39226
0
LINE
8
BLACK
6
CONTINUOUS
10
1.65617
20
1.39226
11
1.65611
21
1.39228
0
LINE
8
BLACK
6
CONTINUOUS
10
1.65611
20
1.39228
11
1.65445
21
1.39394
0
LINE
8
BLACK
6
CONTINUOUS
10
1.65445
20
1.39394
11
1.65279
21
1.39228
0
LINE
8
BLACK
6
CONTINUOUS
10
1.65279
20
1.39228
11
1.65206
21
1.39178
0
LINE
8
BLACK
6
CONTINUOUS
10
1.65206
20
1.39178
11
1.65202
21
1.39173
0
LINE
8
BLACK
6
CONTINUOUS
10
1.65202
20
1.39173
11
1.64827
21
1.38985
0
LINE
8
BLACK
6
CONTINUOUS
10
1.64827
20
1.38985
11
1.64729
21
1.38956
0
LINE
8
BLACK
6
CONTINUOUS
10
1.64729
20
1.38956
11
1.64711
21
1.3896
0
LINE
8
BLACK
6
CONTINUOUS
10
1.64711
20
1.3896
11
1.64695
21
1.38954
0
LINE
8
BLACK
6
CONTINUOUS
10
1.64695
20
1.38954
11
1.64507
21
1.38954
0
LINE
8
BLACK
6
CONTINUOUS
10
1.64507
20
1.38954
11
1.64406
21
1.38972
0
LINE
8
BLACK
6
CONTINUOUS
10
1.64406
20
1.38972
11
1.64393
21
1.38983
0
LINE
8
BLACK
6
CONTINUOUS
10
1.64393
20
1.38983
11
1.64375
21
1.38985
0
LINE
8
BLACK
6
CONTINUOUS
10
1.64375
20
1.38985
11
1.64
21
1.39173
0
LINE
8
BLACK
6
CONTINUOUS
10
1.64
20
1.39173
11
1.63929
21
1.39226
0
LINE
8
BLACK
6
CONTINUOUS
10
1.63929
20
1.39226
11
1.63924
21
1.39228
0
LINE
8
BLACK
6
CONTINUOUS
10
1.63924
20
1.39228
11
1.63736
21
1.39416
0
LINE
8
BLACK
6
CONTINUOUS
10
1.63736
20
1.39416
11
1.63685
21
1.39488
0
LINE
8
BLACK
6
CONTINUOUS
10
1.63685
20
1.39488
11
1.63681
21
1.39492
0
LINE
8
BLACK
6
CONTINUOUS
10
1.63681
20
1.39492
11
1.63493
21
1.39867
0
LINE
8
BLACK
6
CONTINUOUS
10
1.63493
20
1.39867
11
1.63464
21
1.39966
0
LINE
8
BLACK
6
CONTINUOUS
10
1.63464
20
1.39966
11
1.63468
21
1.39983
0
LINE
8
BLACK
6
CONTINUOUS
10
1.63468
20
1.39983
11
1.63462
21
1.39999
0
LINE
8
BLACK
6
CONTINUOUS
10
1.63462
20
1.39999
11
1.63462
21
1.40749
0
LINE
8
BLACK
6
CONTINUOUS
10
1.63462
20
1.40749
11
1.6348
21
1.4085
0
LINE
8
BLACK
6
CONTINUOUS
10
1.6348
20
1.4085
11
1.63491
21
1.40864
0
LINE
8
BLACK
6
CONTINUOUS
10
1.63491
20
1.40864
11
1.63493
21
1.40881
0
LINE
8
BLACK
6
CONTINUOUS
10
1.63493
20
1.40881
11
1.63681
21
1.41256
0
LINE
8
BLACK
6
CONTINUOUS
10
1.63681
20
1.41256
11
1.63733
21
1.41327
0
LINE
8
BLACK
6
CONTINUOUS
10
1.63733
20
1.41327
11
1.63736
21
1.41333
0
LINE
8
BLACK
6
CONTINUOUS
10
1.63736
20
1.41333
11
1.63924
21
1.41521
0
LINE
8
BLACK
6
CONTINUOUS
10
1.63924
20
1.41521
11
1.63996
21
1.41571
0
LINE
8
BLACK
6
CONTINUOUS
10
1.63996
20
1.41571
11
1.64
21
1.41576
0
LINE
8
BLACK
6
CONTINUOUS
10
1.64
20
1.41576
11
1.64375
21
1.41763
0
LINE
8
BLACK
6
CONTINUOUS
10
1.64375
20
1.41763
11
1.64474
21
1.41793
0
LINE
8
BLACK
6
CONTINUOUS
10
1.64474
20
1.41793
11
1.64491
21
1.41788
0
LINE
8
BLACK
6
CONTINUOUS
10
1.64491
20
1.41788
11
1.64507
21
1.41795
0
LINE
8
BLACK
6
CONTINUOUS
10
1.64507
20
1.41795
11
1.64695
21
1.41795
0
LINE
8
BLACK
6
CONTINUOUS
10
1.64695
20
1.41795
11
1.64796
21
1.41777
0
LINE
8
BLACK
6
CONTINUOUS
10
1.66264
20
1.41204
11
1.65995
21
1.41069
0
LINE
8
BLACK
6
CONTINUOUS
10
1.65995
20
1.41069
11
1.65875
21
1.40949
0
LINE
8
BLACK
6
CONTINUOUS
10
1.65875
20
1.40949
11
1.6574
21
1.4068
0
LINE
8
BLACK
6
CONTINUOUS
10
1.6574
20
1.4068
11
1.6574
21
1.40069
0
LINE
8
BLACK
6
CONTINUOUS
10
1.6574
20
1.40069
11
1.65875
21
1.39799
0
LINE
8
BLACK
6
CONTINUOUS
10
1.65875
20
1.39799
11
1.65995
21
1.3968
0
LINE
8
BLACK
6
CONTINUOUS
10
1.65995
20
1.3968
11
1.66264
21
1.39545
0
LINE
8
BLACK
6
CONTINUOUS
10
1.66264
20
1.39545
11
1.66875
21
1.39545
0
LINE
8
BLACK
6
CONTINUOUS
10
1.66875
20
1.39545
11
1.67145
21
1.3968
0
LINE
8
BLACK
6
CONTINUOUS
10
1.67145
20
1.3968
11
1.67264
21
1.39799
0
LINE
8
BLACK
6
CONTINUOUS
10
1.67264
20
1.39799
11
1.67399
21
1.40069
0
LINE
8
BLACK
6
CONTINUOUS
10
1.67399
20
1.40069
11
1.67399
21
1.4068
0
LINE
8
BLACK
6
CONTINUOUS
10
1.67399
20
1.4068
11
1.67264
21
1.40949
0
LINE
8
BLACK
6
CONTINUOUS
10
1.67264
20
1.40949
11
1.67145
21
1.41069
0
LINE
8
BLACK
6
CONTINUOUS
10
1.67145
20
1.41069
11
1.66875
21
1.41204
0
LINE
8
BLACK
6
CONTINUOUS
10
1.66875
20
1.41204
11
1.66264
21
1.41204
0
LINE
8
BLACK
6
CONTINUOUS
10
1.64577
20
1.41204
11
1.64307
21
1.41069
0
LINE
8
BLACK
6
CONTINUOUS
10
1.64307
20
1.41069
11
1.64188
21
1.40949
0
LINE
8
BLACK
6
CONTINUOUS
10
1.64188
20
1.40949
11
1.64053
21
1.4068
0
LINE
8
BLACK
6
CONTINUOUS
10
1.64053
20
1.4068
11
1.64053
21
1.40069
0
LINE
8
BLACK
6
CONTINUOUS
10
1.64053
20
1.40069
11
1.64188
21
1.39799
0
LINE
8
BLACK
6
CONTINUOUS
10
1.64188
20
1.39799
11
1.64307
21
1.3968
0
LINE
8
BLACK
6
CONTINUOUS
10
1.64307
20
1.3968
11
1.64577
21
1.39545
0
LINE
8
BLACK
6
CONTINUOUS
10
1.64577
20
1.39545
11
1.64625
21
1.39545
0
LINE
8
BLACK
6
CONTINUOUS
10
1.64625
20
1.39545
11
1.64895
21
1.3968
0
LINE
8
BLACK
6
CONTINUOUS
10
1.64895
20
1.3968
11
1.65015
21
1.39799
0
LINE
8
BLACK
6
CONTINUOUS
10
1.65015
20
1.39799
11
1.65149
21
1.40069
0
LINE
8
BLACK
6
CONTINUOUS
10
1.65149
20
1.40069
11
1.65149
21
1.4068
0
LINE
8
BLACK
6
CONTINUOUS
10
1.65149
20
1.4068
11
1.65015
21
1.40949
0
LINE
8
BLACK
6
CONTINUOUS
10
1.65015
20
1.40949
11
1.64895
21
1.41069
0
LINE
8
BLACK
6
CONTINUOUS
10
1.64895
20
1.41069
11
1.64625
21
1.41204
0
LINE
8
BLACK
6
CONTINUOUS
10
1.64625
20
1.41204
11
1.64577
21
1.41204
0
LINE
8
BLACK
6
CONTINUOUS
10
1.67045
20
1.45526
11
1.67059
21
1.45515
0
LINE
8
BLACK
6
CONTINUOUS
10
1.67059
20
1.45515
11
1.67077
21
1.45513
0
LINE
8
BLACK
6
CONTINUOUS
10
1.67077
20
1.45513
11
1.67452
21
1.45325
0
LINE
8
BLACK
6
CONTINUOUS
10
1.67452
20
1.45325
11
1.67522
21
1.45273
0
LINE
8
BLACK
6
CONTINUOUS
10
1.67522
20
1.45273
11
1.67528
21
1.4527
0
LINE
8
BLACK
6
CONTINUOUS
10
1.67528
20
1.4527
11
1.67716
21
1.45083
0
LINE
8
BLACK
6
CONTINUOUS
10
1.67716
20
1.45083
11
1.67766
21
1.4501
0
LINE
8
BLACK
6
CONTINUOUS
10
1.67766
20
1.4501
11
1.67771
21
1.45006
0
LINE
8
BLACK
6
CONTINUOUS
10
1.67771
20
1.45006
11
1.67959
21
1.44631
0
LINE
8
BLACK
6
CONTINUOUS
10
1.67959
20
1.44631
11
1.67988
21
1.44533
0
LINE
8
BLACK
6
CONTINUOUS
10
1.67988
20
1.44533
11
1.67984
21
1.44515
0
LINE
8
BLACK
6
CONTINUOUS
10
1.67984
20
1.44515
11
1.6799
21
1.44499
0
LINE
8
BLACK
6
CONTINUOUS
10
1.6799
20
1.44499
11
1.6799
21
1.43749
0
LINE
8
BLACK
6
CONTINUOUS
10
1.6799
20
1.43749
11
1.67972
21
1.43648
0
LINE
8
BLACK
6
CONTINUOUS
10
1.67972
20
1.43648
11
1.67961
21
1.43634
0
LINE
8
BLACK
6
CONTINUOUS
10
1.67961
20
1.43634
11
1.67959
21
1.43617
0
LINE
8
BLACK
6
CONTINUOUS
10
1.67959
20
1.43617
11
1.67771
21
1.43242
0
LINE
8
BLACK
6
CONTINUOUS
10
1.67771
20
1.43242
11
1.67718
21
1.43171
0
LINE
8
BLACK
6
CONTINUOUS
10
1.67718
20
1.43171
11
1.67716
21
1.43165
0
LINE
8
BLACK
6
CONTINUOUS
10
1.67716
20
1.43165
11
1.67528
21
1.42978
0
LINE
8
BLACK
6
CONTINUOUS
10
1.67528
20
1.42978
11
1.67456
21
1.42927
0
LINE
8
BLACK
6
CONTINUOUS
10
1.67456
20
1.42927
11
1.67452
21
1.42922
0
LINE
8
BLACK
6
CONTINUOUS
10
1.67452
20
1.42922
11
1.67077
21
1.42735
0
LINE
8
BLACK
6
CONTINUOUS
10
1.67077
20
1.42735
11
1.66978
21
1.42706
0
LINE
8
BLACK
6
CONTINUOUS
10
1.66978
20
1.42706
11
1.66961
21
1.4271
0
LINE
8
BLACK
6
CONTINUOUS
10
1.66961
20
1.4271
11
1.66945
21
1.42704
0
LINE
8
BLACK
6
CONTINUOUS
10
1.66945
20
1.42704
11
1.65445
21
1.42704
0
LINE
8
BLACK
6
CONTINUOUS
10
1.65445
20
1.42704
11
1.65387
21
1.42714
0
LINE
8
BLACK
6
CONTINUOUS
10
1.65387
20
1.42714
11
1.65373
21
1.42713
0
LINE
8
BLACK
6
CONTINUOUS
10
1.65373
20
1.42713
11
1.64623
21
1.429
0
LINE
8
BLACK
6
CONTINUOUS
10
1.64623
20
1.429
11
1.64533
21
1.4294
0
LINE
8
BLACK
6
CONTINUOUS
10
1.64533
20
1.4294
11
1.64531
21
1.42941
0
LINE
8
BLACK
6
CONTINUOUS
10
1.64531
20
1.42941
11
1.63969
21
1.43316
0
LINE
8
BLACK
6
CONTINUOUS
10
1.63969
20
1.43316
11
1.63936
21
1.43347
0
LINE
8
BLACK
6
CONTINUOUS
10
1.63936
20
1.43347
11
1.63924
21
1.43353
0
LINE
8
BLACK
6
CONTINUOUS
10
1.63924
20
1.43353
11
1.63736
21
1.4354
0
LINE
8
BLACK
6
CONTINUOUS
10
1.63736
20
1.4354
11
1.63685
21
1.43612
0
LINE
8
BLACK
6
CONTINUOUS
10
1.63685
20
1.43612
11
1.63681
21
1.43617
0
LINE
8
BLACK
6
CONTINUOUS
10
1.63681
20
1.43617
11
1.63493
21
1.43992
0
LINE
8
BLACK
6
CONTINUOUS
10
1.63493
20
1.43992
11
1.63464
21
1.4409
0
LINE
8
BLACK
6
CONTINUOUS
10
1.63464
20
1.4409
11
1.63468
21
1.44107
0
LINE
8
BLACK
6
CONTINUOUS
10
1.63468
20
1.44107
11
1.63462
21
1.44124
0
LINE
8
BLACK
6
CONTINUOUS
10
1.63462
20
1.44124
11
1.63462
21
1.44874
0
LINE
8
BLACK
6
CONTINUOUS
10
1.63462
20
1.44874
11
1.6348
21
1.44975
0
LINE
8
BLACK
6
CONTINUOUS
10
1.6348
20
1.44975
11
1.6361
21
1.4513
0
LINE
8
BLACK
6
CONTINUOUS
10
1.6361
20
1.4513
11
1.63809
21
1.45165
0
LINE
8
BLACK
6
CONTINUOUS
10
1.63809
20
1.45165
11
1.63984
21
1.45064
0
LINE
8
BLACK
6
CONTINUOUS
10
1.63984
20
1.45064
11
1.64053
21
1.44874
0
LINE
8
BLACK
6
CONTINUOUS
10
1.64053
20
1.44874
11
1.64053
21
1.44194
0
LINE
8
BLACK
6
CONTINUOUS
10
1.64053
20
1.44194
11
1.64188
21
1.43924
0
LINE
8
BLACK
6
CONTINUOUS
10
1.64188
20
1.43924
11
1.6432
21
1.43791
0
LINE
8
BLACK
6
CONTINUOUS
10
1.6432
20
1.43791
11
1.64816
21
1.43461
0
LINE
8
BLACK
6
CONTINUOUS
10
1.64816
20
1.43461
11
1.65108
21
1.43388
0
LINE
8
BLACK
6
CONTINUOUS
10
1.65108
20
1.43388
11
1.64993
21
1.43617
0
LINE
8
BLACK
6
CONTINUOUS
10
1.64993
20
1.43617
11
1.64964
21
1.43715
0
LINE
8
BLACK
6
CONTINUOUS
10
1.64964
20
1.43715
11
1.64968
21
1.43732
0
LINE
8
BLACK
6
CONTINUOUS
10
1.64968
20
1.43732
11
1.64962
21
1.43749
0
LINE
8
BLACK
6
CONTINUOUS
10
1.64962
20
1.43749
11
1.64962
21
1.44499
0
LINE
8
BLACK
6
CONTINUOUS
10
1.64962
20
1.44499
11
1.6498
21
1.446
0
LINE
8
BLACK
6
CONTINUOUS
10
1.6498
20
1.446
11
1.64991
21
1.44613
0
LINE
8
BLACK
6
CONTINUOUS
10
1.64991
20
1.44613
11
1.64993
21
1.44631
0
LINE
8
BLACK
6
CONTINUOUS
10
1.64993
20
1.44631
11
1.65181
21
1.45006
0
LINE
8
BLACK
6
CONTINUOUS
10
1.65181
20
1.45006
11
1.65233
21
1.45077
0
LINE
8
BLACK
6
CONTINUOUS
10
1.65233
20
1.45077
11
1.65236
21
1.45083
0
LINE
8
BLACK
6
CONTINUOUS
10
1.65236
20
1.45083
11
1.65423
21
1.4527
0
LINE
8
BLACK
6
CONTINUOUS
10
1.65423
20
1.4527
11
1.65496
21
1.45321
0
LINE
8
BLACK
6
CONTINUOUS
10
1.65496
20
1.45321
11
1.655
21
1.45325
0
LINE
8
BLACK
6
CONTINUOUS
10
1.655
20
1.45325
11
1.65875
21
1.45513
0
LINE
8
BLACK
6
CONTINUOUS
10
1.65875
20
1.45513
11
1.65973
21
1.45542
0
LINE
8
BLACK
6
CONTINUOUS
10
1.65973
20
1.45542
11
1.65991
21
1.45538
0
LINE
8
BLACK
6
CONTINUOUS
10
1.65991
20
1.45538
11
1.66007
21
1.45544
0
LINE
8
BLACK
6
CONTINUOUS
10
1.66007
20
1.45544
11
1.66945
21
1.45544
0
LINE
8
BLACK
6
CONTINUOUS
10
1.66945
20
1.45544
11
1.67045
21
1.45526
0
LINE
8
BLACK
6
CONTINUOUS
10
1.66077
20
1.44954
11
1.65807
21
1.44819
0
LINE
8
BLACK
6
CONTINUOUS
10
1.65807
20
1.44819
11
1.65687
21
1.44699
0
LINE
8
BLACK
6
CONTINUOUS
10
1.65687
20
1.44699
11
1.65552
21
1.44429
0
LINE
8
BLACK
6
CONTINUOUS
10
1.65552
20
1.44429
11
1.65552
21
1.43819
0
LINE
8
BLACK
6
CONTINUOUS
10
1.65552
20
1.43819
11
1.65687
21
1.43549
0
LINE
8
BLACK
6
CONTINUOUS
10
1.65687
20
1.43549
11
1.65807
21
1.43429
0
LINE
8
BLACK
6
CONTINUOUS
10
1.65807
20
1.43429
11
1.66077
21
1.43294
0
LINE
8
BLACK
6
CONTINUOUS
10
1.66077
20
1.43294
11
1.66875
21
1.43294
0
LINE
8
BLACK
6
CONTINUOUS
10
1.66875
20
1.43294
11
1.67145
21
1.43429
0
LINE
8
BLACK
6
CONTINUOUS
10
1.67145
20
1.43429
11
1.67264
21
1.43549
0
LINE
8
BLACK
6
CONTINUOUS
10
1.67264
20
1.43549
11
1.67399
21
1.43819
0
LINE
8
BLACK
6
CONTINUOUS
10
1.67399
20
1.43819
11
1.67399
21
1.44429
0
LINE
8
BLACK
6
CONTINUOUS
10
1.67399
20
1.44429
11
1.67264
21
1.44699
0
LINE
8
BLACK
6
CONTINUOUS
10
1.67264
20
1.44699
11
1.67145
21
1.44819
0
LINE
8
BLACK
6
CONTINUOUS
10
1.67145
20
1.44819
11
1.66875
21
1.44954
0
LINE
8
BLACK
6
CONTINUOUS
10
1.66875
20
1.44954
11
1.66077
21
1.44954
0
LINE
8
BLACK
6
CONTINUOUS
10
0.0619507
20
1.5002
11
0.0626415
21
1.4983
0
LINE
8
BLACK
6
CONTINUOUS
10
0.0626415
20
1.4983
11
0.0626415
21
1.48293
0
LINE
8
BLACK
6
CONTINUOUS
10
0.0626415
20
1.48293
11
0.080098
21
1.50039
0
LINE
8
BLACK
6
CONTINUOUS
10
0.080098
20
1.50039
11
0.0809381
21
1.50098
0
LINE
8
BLACK
6
CONTINUOUS
10
0.0809381
20
1.50098
11
0.0829502
21
1.50115
0
LINE
8
BLACK
6
CONTINUOUS
10
0.0829502
20
1.50115
11
0.0846047
21
1.49999
0
LINE
8
BLACK
6
CONTINUOUS
10
0.0846047
20
1.49999
11
0.0851274
21
1.49804
0
LINE
8
BLACK
6
CONTINUOUS
10
0.0851274
20
1.49804
11
0.0842739
21
1.49621
0
LINE
8
BLACK
6
CONTINUOUS
10
0.0842739
20
1.49621
11
0.0692118
21
1.48115
0
LINE
8
BLACK
6
CONTINUOUS
10
0.0692118
20
1.48115
11
0.0845481
21
1.4607
0
LINE
8
BLACK
6
CONTINUOUS
10
0.0845481
20
1.4607
11
0.0850117
21
1.45979
0
LINE
8
BLACK
6
CONTINUOUS
10
0.0850117
20
1.45979
11
0.0849013
21
1.45777
0
LINE
8
BLACK
6
CONTINUOUS
10
0.0849013
20
1.45777
11
0.0835205
21
1.4563
0
LINE
8
BLACK
6
CONTINUOUS
10
0.0835205
20
1.4563
11
0.0815152
21
1.45605
0
LINE
8
BLACK
6
CONTINUOUS
10
0.0815152
20
1.45605
11
0.0798237
21
1.45716
0
LINE
8
BLACK
6
CONTINUOUS
10
0.0798237
20
1.45716
11
0.0649936
21
1.47693
0
LINE
8
BLACK
6
CONTINUOUS
10
0.0649936
20
1.47693
11
0.0626415
21
1.47458
0
LINE
8
BLACK
6
CONTINUOUS
10
0.0626415
20
1.47458
11
0.0626415
21
1.45893
0
LINE
8
BLACK
6
CONTINUOUS
10
0.0626415
20
1.45893
11
0.0624635
21
1.45792
0
LINE
8
BLACK
6
CONTINUOUS
10
0.0624635
20
1.45792
11
0.0611652
21
1.45637
0
LINE
8
BLACK
6
CONTINUOUS
10
0.0611652
20
1.45637
11
0.059176
21
1.45602
0
LINE
8
BLACK
6
CONTINUOUS
10
0.059176
20
1.45602
11
0.0574269
21
1.45703
0
LINE
8
BLACK
6
CONTINUOUS
10
0.0574269
20
1.45703
11
0.056736
21
1.45893
0
LINE
8
BLACK
6
CONTINUOUS
10
0.056736
20
1.45893
11
0.056736
21
1.4983
0
LINE
8
BLACK
6
CONTINUOUS
10
0.056736
20
1.4983
11
0.0569141
21
1.49931
0
LINE
8
BLACK
6
CONTINUOUS
10
0.0569141
20
1.49931
11
0.0582124
21
1.50086
0
LINE
8
BLACK
6
CONTINUOUS
10
0.0582124
20
1.50086
11
0.0602015
21
1.50121
0
LINE
8
BLACK
6
CONTINUOUS
10
0.0602015
20
1.50121
11
0.0619507
21
1.5002
0
LINE
8
BLACK
6
CONTINUOUS
10
1.67045
20
1.49276
11
1.67059
21
1.49264
0
LINE
8
BLACK
6
CONTINUOUS
10
1.67059
20
1.49264
11
1.67077
21
1.49262
0
LINE
8
BLACK
6
CONTINUOUS
10
1.67077
20
1.49262
11
1.67452
21
1.49075
0
LINE
8
BLACK
6
CONTINUOUS
10
1.67452
20
1.49075
11
1.67522
21
1.49022
0
LINE
8
BLACK
6
CONTINUOUS
10
1.67522
20
1.49022
11
1.67528
21
1.4902
0
LINE
8
BLACK
6
CONTINUOUS
10
1.67528
20
1.4902
11
1.67716
21
1.48832
0
LINE
8
BLACK
6
CONTINUOUS
10
1.67716
20
1.48832
11
1.67766
21
1.4876
0
LINE
8
BLACK
6
CONTINUOUS
10
1.67766
20
1.4876
11
1.67771
21
1.48755
0
LINE
8
BLACK
6
CONTINUOUS
10
1.67771
20
1.48755
11
1.67959
21
1.4838
0
LINE
8
BLACK
6
CONTINUOUS
10
1.67959
20
1.4838
11
1.67988
21
1.48282
0
LINE
8
BLACK
6
CONTINUOUS
10
1.67988
20
1.48282
11
1.67984
21
1.48265
0
LINE
8
BLACK
6
CONTINUOUS
10
1.67984
20
1.48265
11
1.6799
21
1.48248
0
LINE
8
BLACK
6
CONTINUOUS
10
1.6799
20
1.48248
11
1.6799
21
1.47311
0
LINE
8
BLACK
6
CONTINUOUS
10
1.6799
20
1.47311
11
1.67972
21
1.4721
0
LINE
8
BLACK
6
CONTINUOUS
10
1.67972
20
1.4721
11
1.67961
21
1.47197
0
LINE
8
BLACK
6
CONTINUOUS
10
1.67961
20
1.47197
11
1.67959
21
1.47179
0
LINE
8
BLACK
6
CONTINUOUS
10
1.67959
20
1.47179
11
1.67771
21
1.46804
0
LINE
8
BLACK
6
CONTINUOUS
10
1.67771
20
1.46804
11
1.67718
21
1.46733
0
LINE
8
BLACK
6
CONTINUOUS
10
1.67718
20
1.46733
11
1.67716
21
1.46727
0
LINE
8
BLACK
6
CONTINUOUS
10
1.67716
20
1.46727
11
1.67528
21
1.4654
0
LINE
8
BLACK
6
CONTINUOUS
10
1.67528
20
1.4654
11
1.67444
21
1.46481
0
LINE
8
BLACK
6
CONTINUOUS
10
1.67444
20
1.46481
11
1.67243
21
1.46463
0
LINE
8
BLACK
6
CONTINUOUS
10
1.67243
20
1.46463
11
1.67078
21
1.46579
0
LINE
8
BLACK
6
CONTINUOUS
10
1.67078
20
1.46579
11
1.67025
21
1.46774
0
LINE
8
BLACK
6
CONTINUOUS
10
1.67025
20
1.46774
11
1.67111
21
1.46957
0
LINE
8
BLACK
6
CONTINUOUS
10
1.67111
20
1.46957
11
1.67264
21
1.47111
0
LINE
8
BLACK
6
CONTINUOUS
10
1.67264
20
1.47111
11
1.67399
21
1.47381
0
LINE
8
BLACK
6
CONTINUOUS
10
1.67399
20
1.47381
11
1.67399
21
1.48179
0
LINE
8
BLACK
6
CONTINUOUS
10
1.67399
20
1.48179
11
1.67264
21
1.48448
0
LINE
8
BLACK
6
CONTINUOUS
10
1.67264
20
1.48448
11
1.67145
21
1.48568
0
LINE
8
BLACK
6
CONTINUOUS
10
1.67145
20
1.48568
11
1.66875
21
1.48703
0
LINE
8
BLACK
6
CONTINUOUS
10
1.66875
20
1.48703
11
1.66077
21
1.48703
0
LINE
8
BLACK
6
CONTINUOUS
10
1.66077
20
1.48703
11
1.65807
21
1.48568
0
LINE
8
BLACK
6
CONTINUOUS
10
1.65807
20
1.48568
11
1.65687
21
1.48448
0
LINE
8
BLACK
6
CONTINUOUS
10
1.65687
20
1.48448
11
1.65552
21
1.48179
0
LINE
8
BLACK
6
CONTINUOUS
10
1.65552
20
1.48179
11
1.65552
21
1.47381
0
LINE
8
BLACK
6
CONTINUOUS
10
1.65552
20
1.47381
11
1.65687
21
1.47111
0
LINE
8
BLACK
6
CONTINUOUS
10
1.65687
20
1.47111
11
1.65841
21
1.46957
0
LINE
8
BLACK
6
CONTINUOUS
10
1.65841
20
1.46957
11
1.659
21
1.46873
0
LINE
8
BLACK
6
CONTINUOUS
10
1.659
20
1.46873
11
1.659
21
1.46871
0
LINE
8
BLACK
6
CONTINUOUS
10
1.659
20
1.46871
11
1.65901
21
1.4687
0
LINE
8
BLACK
6
CONTINUOUS
10
1.65901
20
1.4687
11
1.65909
21
1.46771
0
LINE
8
BLACK
6
CONTINUOUS
10
1.65909
20
1.46771
11
1.65917
21
1.46672
0
LINE
8
BLACK
6
CONTINUOUS
10
1.65917
20
1.46672
11
1.65916
21
1.46671
0
LINE
8
BLACK
6
CONTINUOUS
10
1.65916
20
1.46671
11
1.65916
21
1.46669
0
LINE
8
BLACK
6
CONTINUOUS
10
1.65916
20
1.46669
11
1.65858
21
1.46588
0
LINE
8
BLACK
6
CONTINUOUS
10
1.65858
20
1.46588
11
1.65802
21
1.46507
0
LINE
8
BLACK
6
CONTINUOUS
10
1.65802
20
1.46507
11
1.658
21
1.46506
0
LINE
8
BLACK
6
CONTINUOUS
10
1.658
20
1.46506
11
1.65799
21
1.46505
0
LINE
8
BLACK
6
CONTINUOUS
10
1.65799
20
1.46505
11
1.65702
21
1.4648
0
LINE
8
BLACK
6
CONTINUOUS
10
1.65702
20
1.4648
11
1.65606
21
1.46454
0
LINE
8
BLACK
6
CONTINUOUS
10
1.65606
20
1.46454
11
1.65605
21
1.46455
0
LINE
8
BLACK
6
CONTINUOUS
10
1.65605
20
1.46455
11
1.65603
21
1.46455
0
LINE
8
BLACK
6
CONTINUOUS
10
1.65603
20
1.46455
11
1.63728
21
1.46642
0
LINE
8
BLACK
6
CONTINUOUS
10
1.63728
20
1.46642
11
1.63713
21
1.46646
0
LINE
8
BLACK
6
CONTINUOUS
10
1.63713
20
1.46646
11
1.63706
21
1.46645
0
LINE
8
BLACK
6
CONTINUOUS
10
1.63706
20
1.46645
11
1.63696
21
1.46651
0
LINE
8
BLACK
6
CONTINUOUS
10
1.63696
20
1.46651
11
1.63629
21
1.4667
0
LINE
8
BLACK
6
CONTINUOUS
10
1.63629
20
1.4667
11
1.63586
21
1.46715
0
LINE
8
BLACK
6
CONTINUOUS
10
1.63586
20
1.46715
11
1.63531
21
1.46746
0
LINE
8
BLACK
6
CONTINUOUS
10
1.63531
20
1.46746
11
1.63517
21
1.46785
0
LINE
8
BLACK
6
CONTINUOUS
10
1.63517
20
1.46785
11
1.63488
21
1.46815
0
LINE
8
BLACK
6
CONTINUOUS
10
1.63488
20
1.46815
11
1.63484
21
1.46877
0
LINE
8
BLACK
6
CONTINUOUS
10
1.63484
20
1.46877
11
1.63462
21
1.46936
0
LINE
8
BLACK
6
CONTINUOUS
10
1.63462
20
1.46936
11
1.63462
21
1.48811
0
LINE
8
BLACK
6
CONTINUOUS
10
1.63462
20
1.48811
11
1.6348
21
1.48912
0
LINE
8
BLACK
6
CONTINUOUS
10
1.6348
20
1.48912
11
1.6361
21
1.49067
0
LINE
8
BLACK
6
CONTINUOUS
10
1.6361
20
1.49067
11
1.63809
21
1.49102
0
LINE
8
BLACK
6
CONTINUOUS
10
1.63809
20
1.49102
11
1.63984
21
1.49001
0
LINE
8
BLACK
6
CONTINUOUS
10
1.63984
20
1.49001
11
1.64053
21
1.48811
0
LINE
8
BLACK
6
CONTINUOUS
10
1.64053
20
1.48811
11
1.64053
21
1.47203
0
LINE
8
BLACK
6
CONTINUOUS
10
1.64053
20
1.47203
11
1.6503
21
1.47106
0
LINE
8
BLACK
6
CONTINUOUS
10
1.6503
20
1.47106
11
1.64993
21
1.47179
0
LINE
8
BLACK
6
CONTINUOUS
10
1.64993
20
1.47179
11
1.64964
21
1.47277
0
LINE
8
BLACK
6
CONTINUOUS
10
1.64964
20
1.47277
11
1.64968
21
1.47294
0
LINE
8
BLACK
6
CONTINUOUS
10
1.64968
20
1.47294
11
1.64962
21
1.47311
0
LINE
8
BLACK
6
CONTINUOUS
10
1.64962
20
1.47311
11
1.64962
21
1.48248
0
LINE
8
BLACK
6
CONTINUOUS
10
1.64962
20
1.48248
11
1.6498
21
1.48349
0
LINE
8
BLACK
6
CONTINUOUS
10
1.6498
20
1.48349
11
1.64991
21
1.48363
0
LINE
8
BLACK
6
CONTINUOUS
10
1.64991
20
1.48363
11
1.64993
21
1.4838
0
LINE
8
BLACK
6
CONTINUOUS
10
1.64993
20
1.4838
11
1.65181
21
1.48755
0
LINE
8
BLACK
6
CONTINUOUS
10
1.65181
20
1.48755
11
1.65233
21
1.48826
0
LINE
8
BLACK
6
CONTINUOUS
10
1.65233
20
1.48826
11
1.65236
21
1.48832
0
LINE
8
BLACK
6
CONTINUOUS
10
1.65236
20
1.48832
11
1.65423
21
1.4902
0
LINE
8
BLACK
6
CONTINUOUS
10
1.65423
20
1.4902
11
1.65496
21
1.4907
0
LINE
8
BLACK
6
CONTINUOUS
10
1.65496
20
1.4907
11
1.655
21
1.49075
0
LINE
8
BLACK
6
CONTINUOUS
10
1.655
20
1.49075
11
1.65875
21
1.49262
0
LINE
8
BLACK
6
CONTINUOUS
10
1.65875
20
1.49262
11
1.65973
21
1.49292
0
LINE
8
BLACK
6
CONTINUOUS
10
1.65973
20
1.49292
11
1.65991
21
1.49288
0
LINE
8
BLACK
6
CONTINUOUS
10
1.65991
20
1.49288
11
1.66007
21
1.49294
0
LINE
8
BLACK
6
CONTINUOUS
10
1.66007
20
1.49294
11
1.66945
21
1.49294
0
LINE
8
BLACK
6
CONTINUOUS
10
1.66945
20
1.49294
11
1.67045
21
1.49276
0
LINE
8
BLACK
6
CONTINUOUS
10
1.66253
20
1.53033
11
1.66266
21
1.53034
0
LINE
8
BLACK
6
CONTINUOUS
10
1.66266
20
1.53034
11
1.67016
21
1.52847
0
LINE
8
BLACK
6
CONTINUOUS
10
1.67016
20
1.52847
11
1.67063
21
1.52826
0
LINE
8
BLACK
6
CONTINUOUS
10
1.67063
20
1.52826
11
1.67077
21
1.52824
0
LINE
8
BLACK
6
CONTINUOUS
10
1.67077
20
1.52824
11
1.67452
21
1.52637
0
LINE
8
BLACK
6
CONTINUOUS
10
1.67452
20
1.52637
11
1.67522
21
1.52584
0
LINE
8
BLACK
6
CONTINUOUS
10
1.67522
20
1.52584
11
1.67528
21
1.52582
0
LINE
8
BLACK
6
CONTINUOUS
10
1.67528
20
1.52582
11
1.67716
21
1.52394
0
LINE
8
BLACK
6
CONTINUOUS
10
1.67716
20
1.52394
11
1.67766
21
1.52322
0
LINE
8
BLACK
6
CONTINUOUS
10
1.67766
20
1.52322
11
1.67771
21
1.52317
0
LINE
8
BLACK
6
CONTINUOUS
10
1.67771
20
1.52317
11
1.67959
21
1.51943
0
LINE
8
BLACK
6
CONTINUOUS
10
1.67959
20
1.51943
11
1.67988
21
1.51844
0
LINE
8
BLACK
6
CONTINUOUS
10
1.67988
20
1.51844
11
1.67984
21
1.51827
0
LINE
8
BLACK
6
CONTINUOUS
10
1.67984
20
1.51827
11
1.6799
21
1.5181
0
LINE
8
BLACK
6
CONTINUOUS
10
1.6799
20
1.5181
11
1.6799
21
1.51436
0
LINE
8
BLACK
6
CONTINUOUS
10
1.6799
20
1.51436
11
1.67972
21
1.51335
0
LINE
8
BLACK
6
CONTINUOUS
10
1.67972
20
1.51335
11
1.67961
21
1.51321
0
LINE
8
BLACK
6
CONTINUOUS
10
1.67961
20
1.51321
11
1.67959
21
1.51303
0
LINE
8
BLACK
6
CONTINUOUS
10
1.67959
20
1.51303
11
1.67771
21
1.50929
0
LINE
8
BLACK
6
CONTINUOUS
10
1.67771
20
1.50929
11
1.67718
21
1.50858
0
LINE
8
BLACK
6
CONTINUOUS
10
1.67718
20
1.50858
11
1.67716
21
1.50852
0
LINE
8
BLACK
6
CONTINUOUS
10
1.67716
20
1.50852
11
1.67528
21
1.50664
0
LINE
8
BLACK
6
CONTINUOUS
10
1.67528
20
1.50664
11
1.67456
21
1.50614
0
LINE
8
BLACK
6
CONTINUOUS
10
1.67456
20
1.50614
11
1.67452
21
1.50609
0
LINE
8
BLACK
6
CONTINUOUS
10
1.67452
20
1.50609
11
1.67077
21
1.50421
0
LINE
8
BLACK
6
CONTINUOUS
10
1.67077
20
1.50421
11
1.67028
21
1.50407
0
LINE
8
BLACK
6
CONTINUOUS
10
1.67028
20
1.50407
11
1.67016
21
1.50399
0
LINE
8
BLACK
6
CONTINUOUS
10
1.67016
20
1.50399
11
1.66266
21
1.50212
0
LINE
8
BLACK
6
CONTINUOUS
10
1.66266
20
1.50212
11
1.66207
21
1.50208
0
LINE
8
BLACK
6
CONTINUOUS
10
1.66207
20
1.50208
11
1.66195
21
1.50203
0
LINE
8
BLACK
6
CONTINUOUS
10
1.66195
20
1.50203
11
1.65257
21
1.50203
0
LINE
8
BLACK
6
CONTINUOUS
10
1.65257
20
1.50203
11
1.65199
21
1.50213
0
LINE
8
BLACK
6
CONTINUOUS
10
1.65199
20
1.50213
11
1.65186
21
1.50212
0
LINE
8
BLACK
6
CONTINUOUS
10
1.65186
20
1.50212
11
1.64436
21
1.50399
0
LINE
8
BLACK
6
CONTINUOUS
10
1.64436
20
1.50399
11
1.64389
21
1.5042
0
LINE
8
BLACK
6
CONTINUOUS
10
1.64389
20
1.5042
11
1.64375
21
1.50421
0
LINE
8
BLACK
6
CONTINUOUS
10
1.64375
20
1.50421
11
1.64
21
1.50609
0
LINE
8
BLACK
6
CONTINUOUS
10
1.64
20
1.50609
11
1.63929
21
1.50662
0
LINE
8
BLACK
6
CONTINUOUS
10
1.63929
20
1.50662
11
1.63924
21
1.50664
0
LINE
8
BLACK
6
CONTINUOUS
10
1.63924
20
1.50664
11
1.63736
21
1.50852
0
LINE
8
BLACK
6
CONTINUOUS
10
1.63736
20
1.50852
11
1.63685
21
1.50924
0
LINE
8
BLACK
6
CONTINUOUS
10
1.63685
20
1.50924
11
1.63681
21
1.50928
0
LINE
8
BLACK
6
CONTINUOUS
10
1.63681
20
1.50928
11
1.63493
21
1.51303
0
LINE
8
BLACK
6
CONTINUOUS
10
1.63493
20
1.51303
11
1.63464
21
1.51402
0
LINE
8
BLACK
6
CONTINUOUS
10
1.63464
20
1.51402
11
1.63468
21
1.51419
0
LINE
8
BLACK
6
CONTINUOUS
10
1.63468
20
1.51419
11
1.63462
21
1.51436
0
LINE
8
BLACK
6
CONTINUOUS
10
1.63462
20
1.51436
11
1.63462
21
1.5181
0
LINE
8
BLACK
6
CONTINUOUS
10
1.63462
20
1.5181
11
1.6348
21
1.51911
0
LINE
8
BLACK
6
CONTINUOUS
10
1.6348
20
1.51911
11
1.63491
21
1.51925
0
LINE
8
BLACK
6
CONTINUOUS
10
1.63491
20
1.51925
11
1.63493
21
1.51943
0
LINE
8
BLACK
6
CONTINUOUS
10
1.63493
20
1.51943
11
1.63681
21
1.52317
0
LINE
8
BLACK
6
CONTINUOUS
10
1.63681
20
1.52317
11
1.63733
21
1.52388
0
LINE
8
BLACK
6
CONTINUOUS
10
1.63733
20
1.52388
11
1.63736
21
1.52394
0
LINE
8
BLACK
6
CONTINUOUS
10
1.63736
20
1.52394
11
1.63924
21
1.52582
0
LINE
8
BLACK
6
CONTINUOUS
10
1.63924
20
1.52582
11
1.63996
21
1.52632
0
LINE
8
BLACK
6
CONTINUOUS
10
1.63996
20
1.52632
11
1.64
21
1.52637
0
LINE
8
BLACK
6
CONTINUOUS
10
1.64
20
1.52637
11
1.64375
21
1.52824
0
LINE
8
BLACK
6
CONTINUOUS
10
1.64375
20
1.52824
11
1.64424
21
1.52839
0
LINE
8
BLACK
6
CONTINUOUS
10
1.64424
20
1.52839
11
1.64436
21
1.52847
0
LINE
8
BLACK
6
CONTINUOUS
10
1.64436
20
1.52847
11
1.65186
21
1.53034
0
LINE
8
BLACK
6
CONTINUOUS
10
1.65186
20
1.53034
11
1.65244
21
1.53038
0
LINE
8
BLACK
6
CONTINUOUS
10
1.65244
20
1.53038
11
1.65257
21
1.53043
0
LINE
8
BLACK
6
CONTINUOUS
10
1.65257
20
1.53043
11
1.66195
21
1.53043
0
LINE
8
BLACK
6
CONTINUOUS
10
1.66195
20
1.53043
11
1.66253
21
1.53033
0
LINE
8
BLACK
6
CONTINUOUS
10
1.65294
20
1.52453
11
1.6461
21
1.52282
0
LINE
8
BLACK
6
CONTINUOUS
10
1.6461
20
1.52282
11
1.64307
21
1.5213
0
LINE
8
BLACK
6
CONTINUOUS
10
1.64307
20
1.5213
11
1.64188
21
1.52011
0
LINE
8
BLACK
6
CONTINUOUS
10
1.64188
20
1.52011
11
1.64053
21
1.51741
0
LINE
8
BLACK
6
CONTINUOUS
10
1.64053
20
1.51741
11
1.64053
21
1.51505
0
LINE
8
BLACK
6
CONTINUOUS
10
1.64053
20
1.51505
11
1.64188
21
1.51235
0
LINE
8
BLACK
6
CONTINUOUS
10
1.64188
20
1.51235
11
1.64307
21
1.51116
0
LINE
8
BLACK
6
CONTINUOUS
10
1.64307
20
1.51116
11
1.6461
21
1.50964
0
LINE
8
BLACK
6
CONTINUOUS
10
1.6461
20
1.50964
11
1.65294
21
1.50793
0
LINE
8
BLACK
6
CONTINUOUS
10
1.65294
20
1.50793
11
1.66158
21
1.50793
0
LINE
8
BLACK
6
CONTINUOUS
10
1.66158
20
1.50793
11
1.66841
21
1.50964
0
LINE
8
BLACK
6
CONTINUOUS
10
1.66841
20
1.50964
11
1.67145
21
1.51116
0
LINE
8
BLACK
6
CONTINUOUS
10
1.67145
20
1.51116
11
1.67264
21
1.51235
0
LINE
8
BLACK
6
CONTINUOUS
10
1.67264
20
1.51235
11
1.67399
21
1.51505
0
LINE
8
BLACK
6
CONTINUOUS
10
1.67399
20
1.51505
11
1.67399
21
1.51741
0
LINE
8
BLACK
6
CONTINUOUS
10
1.67399
20
1.51741
11
1.67264
21
1.52011
0
LINE
8
BLACK
6
CONTINUOUS
10
1.67264
20
1.52011
11
1.67145
21
1.5213
0
LINE
8
BLACK
6
CONTINUOUS
10
1.67145
20
1.5213
11
1.66841
21
1.52282
0
LINE
8
BLACK
6
CONTINUOUS
10
1.66841
20
1.52282
11
1.66158
21
1.52453
0
LINE
8
BLACK
6
CONTINUOUS
10
1.66158
20
1.52453
11
1.65294
21
1.52453
0
LINE
8
BLACK
6
CONTINUOUS
10
0.0619507
20
1.65768
11
0.0626415
21
1.65578
0
LINE
8
BLACK
6
CONTINUOUS
10
0.0626415
20
1.65578
11
0.0626415
21
1.64041
0
LINE
8
BLACK
6
CONTINUOUS
10
0.0626415
20
1.64041
11
0.080098
21
1.65787
0
LINE
8
BLACK
6
CONTINUOUS
10
0.080098
20
1.65787
11
0.0809381
21
1.65846
0
LINE
8
BLACK
6
CONTINUOUS
10
0.0809381
20
1.65846
11
0.0829502
21
1.65863
0
LINE
8
BLACK
6
CONTINUOUS
10
0.0829502
20
1.65863
11
0.0846047
21
1.65747
0
LINE
8
BLACK
6
CONTINUOUS
10
0.0846047
20
1.65747
11
0.0851274
21
1.65552
0
LINE
8
BLACK
6
CONTINUOUS
10
0.0851274
20
1.65552
11
0.0842739
21
1.65369
0
LINE
8
BLACK
6
CONTINUOUS
10
0.0842739
20
1.65369
11
0.0692118
21
1.63863
0
LINE
8
BLACK
6
CONTINUOUS
10
0.0692118
20
1.63863
11
0.0845481
21
1.61818
0
LINE
8
BLACK
6
CONTINUOUS
10
0.0845481
20
1.61818
11
0.0850117
21
1.61727
0
LINE
8
BLACK
6
CONTINUOUS
10
0.0850117
20
1.61727
11
0.0849013
21
1.61525
0
LINE
8
BLACK
6
CONTINUOUS
10
0.0849013
20
1.61525
11
0.0835205
21
1.61378
0
LINE
8
BLACK
6
CONTINUOUS
10
0.0835205
20
1.61378
11
0.0815152
21
1.61353
0
LINE
8
BLACK
6
CONTINUOUS
10
0.0815152
20
1.61353
11
0.0798237
21
1.61464
0
LINE
8
BLACK
6
CONTINUOUS
10
0.0798237
20
1.61464
11
0.0649936
21
1.63441
0
LINE
8
BLACK
6
CONTINUOUS
10
0.0649936
20
1.63441
11
0.0626415
21
1.63206
0
LINE
8
BLACK
6
CONTINUOUS
10
0.0626415
20
1.63206
11
0.0626415
21
1.61641
0
LINE
8
BLACK
6
CONTINUOUS
10
0.0626415
20
1.61641
11
0.0624635
21
1.6154
0
LINE
8
BLACK
6
CONTINUOUS
10
0.0624635
20
1.6154
11
0.0611652
21
1.61385
0
LINE
8
BLACK
6
CONTINUOUS
10
0.0611652
20
1.61385
11
0.059176
21
1.6135
0
LINE
8
BLACK
6
CONTINUOUS
10
0.059176
20
1.6135
11
0.0574269
21
1.61451
0
LINE
8
BLACK
6
CONTINUOUS
10
0.0574269
20
1.61451
11
0.056736
21
1.61641
0
LINE
8
BLACK
6
CONTINUOUS
10
0.056736
20
1.61641
11
0.056736
21
1.65578
0
LINE
8
BLACK
6
CONTINUOUS
10
0.056736
20
1.65578
11
0.0569141
21
1.65679
0
LINE
8
BLACK
6
CONTINUOUS
10
0.0569141
20
1.65679
11
0.0582124
21
1.65834
0
LINE
8
BLACK
6
CONTINUOUS
10
0.0582124
20
1.65834
11
0.0602015
21
1.65869
0
LINE
8
BLACK
6
CONTINUOUS
10
0.0602015
20
1.65869
11
0.0619507
21
1.65768
0
LINE
8
BLACK
6
CONTINUOUS
10
0.0619507
20
1.81516
11
0.0626415
21
1.81326
0
LINE
8
BLACK
6
CONTINUOUS
10
0.0626415
20
1.81326
11
0.0626415
21
1.79789
0
LINE
8
BLACK
6
CONTINUOUS
10
0.0626415
20
1.79789
11
0.080098
21
1.81535
0
LINE
8
BLACK
6
CONTINUOUS
10
0.080098
20
1.81535
11
0.0809381
21
1.81594
0
LINE
8
BLACK
6
CONTINUOUS
10
0.0809381
20
1.81594
11
0.0829502
21
1.81611
0
LINE
8
BLACK
6
CONTINUOUS
10
0.0829502
20
1.81611
11
0.0846047
21
1.81495
0
LINE
8
BLACK
6
CONTINUOUS
10
0.0846047
20
1.81495
11
0.0851274
21
1.813
0
LINE
8
BLACK
6
CONTINUOUS
10
0.0851274
20
1.813
11
0.0842739
21
1.81117
0
LINE
8
BLACK
6
CONTINUOUS
10
0.0842739
20
1.81117
11
0.0692118
21
1.79611
0
LINE
8
BLACK
6
CONTINUOUS
10
0.0692118
20
1.79611
11
0.0845481
21
1.77566
0
LINE
8
BLACK
6
CONTINUOUS
10
0.0845481
20
1.77566
11
0.0850117
21
1.77475
0
LINE
8
BLACK
6
CONTINUOUS
10
0.0850117
20
1.77475
11
0.0849013
21
1.77273
0
LINE
8
BLACK
6
CONTINUOUS
10
0.0849013
20
1.77273
11
0.0835205
21
1.77126
0
LINE
8
BLACK
6
CONTINUOUS
10
0.0835205
20
1.77126
11
0.0815152
21
1.77102
0
LINE
8
BLACK
6
CONTINUOUS
10
0.0815152
20
1.77102
11
0.0798237
21
1.77212
0
LINE
8
BLACK
6
CONTINUOUS
10
0.0798237
20
1.77212
11
0.0649936
21
1.79189
0
LINE
8
BLACK
6
CONTINUOUS
10
0.0649936
20
1.79189
11
0.0626415
21
1.78954
0
LINE
8
BLACK
6
CONTINUOUS
10
0.0626415
20
1.78954
11
0.0626415
21
1.77389
0
LINE
8
BLACK
6
CONTINUOUS
10
0.0626415
20
1.77389
11
0.0624635
21
1.77288
0
LINE
8
BLACK
6
CONTINUOUS
10
0.0624635
20
1.77288
11
0.0611652
21
1.77133
0
LINE
8
BLACK
6
CONTINUOUS
10
0.0611652
20
1.77133
11
0.059176
21
1.77098
0
LINE
8
BLACK
6
CONTINUOUS
10
0.059176
20
1.77098
11
0.0574269
21
1.77199
0
LINE
8
BLACK
6
CONTINUOUS
10
0.0574269
20
1.77199
11
0.056736
21
1.77389
0
LINE
8
BLACK
6
CONTINUOUS
10
0.056736
20
1.77389
11
0.056736
21
1.81326
0
LINE
8
BLACK
6
CONTINUOUS
10
0.056736
20
1.81326
11
0.0569141
21
1.81427
0
LINE
8
BLACK
6
CONTINUOUS
10
0.0569141
20
1.81427
11
0.0582124
21
1.81582
0
LINE
8
BLACK
6
CONTINUOUS
10
0.0582124
20
1.81582
11
0.0602015
21
1.81617
0
LINE
8
BLACK
6
CONTINUOUS
10
0.0602015
20
1.81617
11
0.0619507
21
1.81516
0
LINE
8
BLACK
6
CONTINUOUS
10
0.0619507
20
1.97264
11
0.0626415
21
1.97074
0
LINE
8
BLACK
6
CONTINUOUS
10
0.0626415
20
1.97074
11
0.0626415
21
1.95537
0
LINE
8
BLACK
6
CONTINUOUS
10
0.0626415
20
1.95537
11
0.080098
21
1.97283
0
LINE
8
BLACK
6
CONTINUOUS
10
0.080098
20
1.97283
11
0.0809381
21
1.97342
0
LINE
8
BLACK
6
CONTINUOUS
10
0.0809381
20
1.97342
11
0.0829502
21
1.97359
0
LINE
8
BLACK
6
CONTINUOUS
10
0.0829502
20
1.97359
11
0.0846047
21
1.97243
0
LINE
8
BLACK
6
CONTINUOUS
10
0.0846047
20
1.97243
11
0.0851274
21
1.97048
0
LINE
8
BLACK
6
CONTINUOUS
10
0.0851274
20
1.97048
11
0.0842739
21
1.96865
0
LINE
8
BLACK
6
CONTINUOUS
10
0.0842739
20
1.96865
11
0.0692118
21
1.95359
0
LINE
8
BLACK
6
CONTINUOUS
10
0.0692118
20
1.95359
11
0.0845481
21
1.93314
0
LINE
8
BLACK
6
CONTINUOUS
10
0.0845481
20
1.93314
11
0.0850117
21
1.93223
0
LINE
8
BLACK
6
CONTINUOUS
10
0.0850117
20
1.93223
11
0.0849013
21
1.93021
0
LINE
8
BLACK
6
CONTINUOUS
10
0.0849013
20
1.93021
11
0.0835205
21
1.92874
0
LINE
8
BLACK
6
CONTINUOUS
10
0.0835205
20
1.92874
11
0.0815152
21
1.9285
0
LINE
8
BLACK
6
CONTINUOUS
10
0.0815152
20
1.9285
11
0.0798237
21
1.9296
0
LINE
8
BLACK
6
CONTINUOUS
10
0.0798237
20
1.9296
11
0.0649936
21
1.94937
0
LINE
8
BLACK
6
CONTINUOUS
10
0.0649936
20
1.94937
11
0.0626415
21
1.94702
0
LINE
8
BLACK
6
CONTINUOUS
10
0.0626415
20
1.94702
11
0.0626415
21
1.93137
0
LINE
8
BLACK
6
CONTINUOUS
10
0.0626415
20
1.93137
11
0.0624635
21
1.93036
0
LINE
8
BLACK
6
CONTINUOUS
10
0.0624635
20
1.93036
11
0.0611652
21
1.92881
0
LINE
8
BLACK
6
CONTINUOUS
10
0.0611652
20
1.92881
11
0.059176
21
1.92846
0
LINE
8
BLACK
6
CONTINUOUS
10
0.059176
20
1.92846
11
0.0574269
21
1.92947
0
LINE
8
BLACK
6
CONTINUOUS
10
0.0574269
20
1.92947
11
0.056736
21
1.93137
0
LINE
8
BLACK
6
CONTINUOUS
10
0.056736
20
1.93137
11
0.056736
21
1.97074
0
LINE
8
BLACK
6
CONTINUOUS
10
0.056736
20
1.97074
11
0.0569141
21
1.97175
0
LINE
8
BLACK
6
CONTINUOUS
10
0.0569141
20
1.97175
11
0.0582124
21
1.9733
0
LINE
8
BLACK
6
CONTINUOUS
10
0.0582124
20
1.9733
11
0.0602015
21
1.97365
0
LINE
8
BLACK
6
CONTINUOUS
10
0.0602015
20
1.97365
11
0.0619507
21
1.97264
0
LINE
8
BLACK
6
CONTINUOUS
10
2.21289
20
2.31462
11
2.21291
21
2.31449
0
LINE
8
BLACK
6
CONTINUOUS
10
2.21291
20
2.31449
11
2.21284
21
2.31437
0
LINE
8
BLACK
6
CONTINUOUS
10
2.21284
20
2.31437
11
2.21277
21
2.31399
0
LINE
8
BLACK
6
CONTINUOUS
10
2.21277
20
2.31399
11
2.21228
21
2.3134
0
LINE
8
BLACK
6
CONTINUOUS
10
2.21228
20
2.3134
11
2.2119
21
2.31274
0
LINE
8
BLACK
6
CONTINUOUS
10
2.2119
20
2.31274
11
2.21165
21
2.31265
0
LINE
8
BLACK
6
CONTINUOUS
10
2.21165
20
2.31265
11
2.21148
21
2.31244
0
LINE
8
BLACK
6
CONTINUOUS
10
2.21148
20
2.31244
11
2.21072
21
2.31231
0
LINE
8
BLACK
6
CONTINUOUS
10
2.21072
20
2.31231
11
2.21
21
2.31205
0
LINE
8
BLACK
6
CONTINUOUS
10
2.21
20
2.31205
11
1.91
21
2.31205
0
LINE
8
BLACK
6
CONTINUOUS
10
1.91
20
2.31205
11
1.90962
21
2.31211
0
LINE
8
BLACK
6
CONTINUOUS
10
1.90962
20
2.31211
11
1.90949
21
2.31209
0
LINE
8
BLACK
6
CONTINUOUS
10
1.90949
20
2.31209
11
1.90937
21
2.31216
0
LINE
8
BLACK
6
CONTINUOUS
10
1.90937
20
2.31216
11
1.90899
21
2.31223
0
LINE
8
BLACK
6
CONTINUOUS
10
1.90899
20
2.31223
11
1.9084
21
2.31272
0
LINE
8
BLACK
6
CONTINUOUS
10
1.9084
20
2.31272
11
1.90774
21
2.3131
0
LINE
8
BLACK
6
CONTINUOUS
10
1.90774
20
2.3131
11
1.90765
21
2.31335
0
LINE
8
BLACK
6
CONTINUOUS
10
1.90765
20
2.31335
11
1.90744
21
2.31352
0
LINE
8
BLACK
6
CONTINUOUS
10
1.90744
20
2.31352
11
1.90731
21
2.31428
0
LINE
8
BLACK
6
CONTINUOUS
10
1.90731
20
2.31428
11
1.90705
21
2.315
0
LINE
8
BLACK
6
CONTINUOUS
10
1.90705
20
2.315
11
1.90705
21
2.715
0
LINE
8
BLACK
6
CONTINUOUS
10
1.90705
20
2.715
11
1.90711
21
2.71538
0
LINE
8
BLACK
6
CONTINUOUS
10
1.90711
20
2.71538
11
1.90709
21
2.71551
0
LINE
8
BLACK
6
CONTINUOUS
10
1.90709
20
2.71551
11
1.90716
21
2.71563
0
LINE
8
BLACK
6
CONTINUOUS
10
1.90716
20
2.71563
11
1.90723
21
2.71601
0
LINE
8
BLACK
6
CONTINUOUS
10
1.90723
20
2.71601
11
1.90772
21
2.7166
0
LINE
8
BLACK
6
CONTINUOUS
10
1.90772
20
2.7166
11
1.9081
21
2.71726
0
LINE
8
BLACK
6
CONTINUOUS
10
1.9081
20
2.71726
11
1.90835
21
2.71735
0
LINE
8
BLACK
6
CONTINUOUS
10
1.90835
20
2.71735
11
1.90852
21
2.71756
0
LINE
8
BLACK
6
CONTINUOUS
10
1.90852
20
2.71756
11
1.90928
21
2.71769
0
LINE
8
BLACK
6
CONTINUOUS
10
1.90928
20
2.71769
11
1.91
21
2.71795
0
LINE
8
BLACK
6
CONTINUOUS
10
1.91
20
2.71795
11
2.21
21
2.71795
0
LINE
8
BLACK
6
CONTINUOUS
10
2.21
20
2.71795
11
2.21038
21
2.71789
0
LINE
8
BLACK
6
CONTINUOUS
10
2.21038
20
2.71789
11
2.21051
21
2.71791
0
LINE
8
BLACK
6
CONTINUOUS
10
2.21051
20
2.71791
11
2.21063
21
2.71784
0
LINE
8
BLACK
6
CONTINUOUS
10
2.21063
20
2.71784
11
2.21101
21
2.71777
0
LINE
8
BLACK
6
CONTINUOUS
10
2.21101
20
2.71777
11
2.2116
21
2.71728
0
LINE
8
BLACK
6
CONTINUOUS
10
2.2116
20
2.71728
11
2.21226
21
2.7169
0
LINE
8
BLACK
6
CONTINUOUS
10
2.21226
20
2.7169
11
2.21235
21
2.71665
0
LINE
8
BLACK
6
CONTINUOUS
10
2.21235
20
2.71665
11
2.21256
21
2.71648
0
LINE
8
BLACK
6
CONTINUOUS
10
2.21256
20
2.71648
11
2.21269
21
2.71572
0
LINE
8
BLACK
6
CONTINUOUS
10
2.21269
20
2.71572
11
2.21295
21
2.715
0
LINE
8
BLACK
6
CONTINUOUS
10
2.21295
20
2.715
11
2.21295
21
2.315
0
LINE
8
BLACK
6
CONTINUOUS
10
2.21295
20
2.315
11
2.21289
21
2.31462
0
LINE
8
BLACK
6
CONTINUOUS
10
1.91295
20
2.51205
11
1.91295
21
2.31795
0
LINE
8
BLACK
6
CONTINUOUS
10
1.91295
20
2.31795
11
2.20705
21
2.31795
0
LINE
8
BLACK
6
CONTINUOUS
10
2.20705
20
2.31795
11
2.20705
21
2.51205
0
LINE
8
BLACK
6
CONTINUOUS
10
2.20705
20
2.51205
11
1.91295
21
2.51205
0
LINE
8
BLACK
6
CONTINUOUS
10
1.91295
20
2.71205
11
1.91295
21
2.51795
0
LINE
8
BLACK
6
CONTINUOUS
10
1.91295
20
2.51795
11
2.20705
21
2.51795
0
LINE
8
BLACK
6
CONTINUOUS
10
2.20705
20
2.51795
11
2.20705
21
2.71205
0
LINE
8
BLACK
6
CONTINUOUS
10
2.20705
20
2.71205
11
1.91295
21
2.71205
0
LINE
8
BLACK
6
CONTINUOUS
10
0.716749
20
2.71628
11
0.717441
21
2.71461
0
LINE
8
BLACK
6
CONTINUOUS
10
0.717441
20
2.71461
11
0.716749
21
2.71294
0
LINE
8
BLACK
6
CONTINUOUS
10
0.716749
20
2.71294
11
0.715079
21
2.71224
0
LINE
8
BLACK
6
CONTINUOUS
10
0.715079
20
2.71224
11
0.697756
21
2.71224
0
LINE
8
BLACK
6
CONTINUOUS
10
0.697756
20
2.71224
11
0.697756
21
2.41776
0
LINE
8
BLACK
6
CONTINUOUS
10
0.697756
20
2.41776
11
0.719016
21
2.41776
0
LINE
8
BLACK
6
CONTINUOUS
10
0.719016
20
2.41776
11
0.720686
21
2.41706
0
LINE
8
BLACK
6
CONTINUOUS
10
0.720686
20
2.41706
11
0.721378
21
2.41539
0
LINE
8
BLACK
6
CONTINUOUS
10
0.721378
20
2.41539
11
0.720686
21
2.41372
0
LINE
8
BLACK
6
CONTINUOUS
10
0.720686
20
2.41372
11
0.719016
21
2.41303
0
LINE
8
BLACK
6
CONTINUOUS
10
0.719016
20
2.41303
11
0.695394
21
2.41303
0
LINE
8
BLACK
6
CONTINUOUS
10
0.695394
20
2.41303
11
0.693723
21
2.41372
0
LINE
8
BLACK
6
CONTINUOUS
10
0.693723
20
2.41372
11
0.693031
21
2.41539
0
LINE
8
BLACK
6
CONTINUOUS
10
0.693031
20
2.41539
11
0.693031
21
2.71461
0
LINE
8
BLACK
6
CONTINUOUS
10
0.693031
20
2.71461
11
0.693723
21
2.71628
0
LINE
8
BLACK
6
CONTINUOUS
10
0.693723
20
2.71628
11
0.695394
21
2.71697
0
LINE
8
BLACK
6
CONTINUOUS
10
0.695394
20
2.71697
11
0.715079
21
2.71697
0
LINE
8
BLACK
6
CONTINUOUS
10
0.715079
20
2.71697
11
0.716749
21
2.71628
0
LINE
8
BLACK
6
CONTINUOUS
10
0.897851
20
2.41706
11
0.898543
21
2.41539
0
LINE
8
BLACK
6
CONTINUOUS
10
0.898543
20
2.41539
11
0.897851
21
2.41372
0
LINE
8
BLACK
6
CONTINUOUS
10
0.897851
20
2.41372
11
0.896181
21
2.41303
0
LINE
8
BLACK
6
CONTINUOUS
10
0.896181
20
2.41303
11
0.793819
21
2.41303
0
LINE
8
BLACK
6
CONTINUOUS
10
0.793819
20
2.41303
11
0.792149
21
2.41372
0
LINE
8
BLACK
6
CONTINUOUS
10
0.792149
20
2.41372
11
0.791457
21
2.41539
0
LINE
8
BLACK
6
CONTINUOUS
10
0.791457
20
2.41539
11
0.792149
21
2.41706
0
LINE
8
BLACK
6
CONTINUOUS
10
0.792149
20
2.41706
11
0.793819
21
2.41776
0
LINE
8
BLACK
6
CONTINUOUS
10
0.793819
20
2.41776
11
0.896181
21
2.41776
0
LINE
8
BLACK
6
CONTINUOUS
10
0.896181
20
2.41776
11
0.897851
21
2.41706
0
LINE
8
BLACK
6
CONTINUOUS
10
0.969314
20
2.41372
11
0.968622
21
2.41539
0
LINE
8
BLACK
6
CONTINUOUS
10
0.968622
20
2.41539
11
0.969314
21
2.41706
0
LINE
8
BLACK
6
CONTINUOUS
10
0.969314
20
2.41706
11
0.970984
21
2.41776
0
LINE
8
BLACK
6
CONTINUOUS
10
0.970984
20
2.41776
11
0.992638
21
2.41776
0
LINE
8
BLACK
6
CONTINUOUS
10
0.992638
20
2.41776
11
0.992638
21
2.71264
0
LINE
8
BLACK
6
CONTINUOUS
10
0.992638
20
2.71264
11
0.971112
21
2.71267
0
LINE
8
BLACK
6
CONTINUOUS
10
0.971112
20
2.71267
11
0.969443
21
2.71336
0
LINE
8
BLACK
6
CONTINUOUS
10
0.969443
20
2.71336
11
0.968753
21
2.71503
0
LINE
8
BLACK
6
CONTINUOUS
10
0.968753
20
2.71503
11
0.969447
21
2.7167
0
LINE
8
BLACK
6
CONTINUOUS
10
0.969447
20
2.7167
11
0.971118
21
2.71739
0
LINE
8
BLACK
6
CONTINUOUS
10
0.971118
20
2.71739
11
0.995003
21
2.71736
0
LINE
8
BLACK
6
CONTINUOUS
10
0.995003
20
2.71736
11
0.995829
21
2.71702
0
LINE
8
BLACK
6
CONTINUOUS
10
0.995829
20
2.71702
11
0.99667
21
2.71667
0
LINE
8
BLACK
6
CONTINUOUS
10
0.99667
20
2.71667
11
0.996671
21
2.71667
0
LINE
8
BLACK
6
CONTINUOUS
10
0.996671
20
2.71667
11
0.996672
21
2.71667
0
LINE
8
BLACK
6
CONTINUOUS
10
0.996672
20
2.71667
11
0.997013
21
2.71584
0
LINE
8
BLACK
6
CONTINUOUS
10
0.997013
20
2.71584
11
0.997362
21
2.715
0
LINE
8
BLACK
6
CONTINUOUS
10
0.997362
20
2.715
11
0.997362
21
2.41539
0
LINE
8
BLACK
6
CONTINUOUS
10
0.997362
20
2.41539
11
0.99667
21
2.41372
0
LINE
8
BLACK
6
CONTINUOUS
10
0.99667
20
2.41372
11
0.995
21
2.41303
0
LINE
8
BLACK
6
CONTINUOUS
10
0.995
20
2.41303
11
0.970984
21
2.41303
0
LINE
8
BLACK
6
CONTINUOUS
10
0.970984
20
2.41303
11
0.969314
21
2.41372
0
LINE
8
BLACK
6
CONTINUOUS
10
1.23038
20
2.71789
11
1.23051
21
2.71791
0
LINE
8
BLACK
6
CONTINUOUS
10
1.23051
20
2.71791
11
1.23063
21
2.71784
0
LINE
8
BLACK
6
CONTINUOUS
10
1.23063
20
2.71784
11
1.23101
21
2.71777
0
LINE
8
BLACK
6
CONTINUOUS
10
1.23101
20
2.71777
11
1.2316
21
2.71728
0
LINE
8
BLACK
6
CONTINUOUS
10
1.2316
20
2.71728
11
1.23226
21
2.7169
0
LINE
8
BLACK
6
CONTINUOUS
10
1.23226
20
2.7169
11
1.23235
21
2.71665
0
LINE
8
BLACK
6
CONTINUOUS
10
1.23235
20
2.71665
11
1.23256
21
2.71648
0
LINE
8
BLACK
6
CONTINUOUS
10
1.23256
20
2.71648
11
1.23269
21
2.71572
0
LINE
8
BLACK
6
CONTINUOUS
10
1.23269
20
2.71572
11
1.23295
21
2.715
0
LINE
8
BLACK
6
CONTINUOUS
10
1.23295
20
2.715
11
1.23295
21
2.515
0
LINE
8
BLACK
6
CONTINUOUS
10
1.23295
20
2.515
11
1.23289
21
2.51462
0
LINE
8
BLACK
6
CONTINUOUS
10
1.23289
20
2.51462
11
1.23291
21
2.51449
0
LINE
8
BLACK
6
CONTINUOUS
10
1.23291
20
2.51449
11
1.23284
21
2.51437
0
LINE
8
BLACK
6
CONTINUOUS
10
1.23284
20
2.51437
11
1.23277
21
2.51399
0
LINE
8
BLACK
6
CONTINUOUS
10
1.23277
20
2.51399
11
1.23228
21
2.5134
0
LINE
8
BLACK
6
CONTINUOUS
10
1.23228
20
2.5134
11
1.2319
21
2.51274
0
LINE
8
BLACK
6
CONTINUOUS
10
1.2319
20
2.51274
11
1.23165
21
2.51265
0
LINE
8
BLACK
6
CONTINUOUS
10
1.23165
20
2.51265
11
1.23148
21
2.51244
0
LINE
8
BLACK
6
CONTINUOUS
10
1.23148
20
2.51244
11
1.23072
21
2.51231
0
LINE
8
BLACK
6
CONTINUOUS
10
1.23072
20
2.51231
11
1.23
21
2.51205
0
LINE
8
BLACK
6
CONTINUOUS
10
1.23
20
2.51205
11
1.13
21
2.51205
0
LINE
8
BLACK
6
CONTINUOUS
10
1.13
20
2.51205
11
1.12962
21
2.51211
0
LINE
8
BLACK
6
CONTINUOUS
10
1.12962
20
2.51211
11
1.12949
21
2.51209
0
LINE
8
BLACK
6
CONTINUOUS
10
1.12949
20
2.51209
11
1.12937
21
2.51216
0
LINE
8
BLACK
6
CONTINUOUS
10
1.12937
20
2.51216
11
1.12899
21
2.51223
0
LINE
8
BLACK
6
CONTINUOUS
10
1.12899
20
2.51223
11
1.1284
21
2.51272
0
LINE
8
BLACK
6
CONTINUOUS
10
1.1284
20
2.51272
11
1.12774
21
2.5131
0
LINE
8
BLACK
6
CONTINUOUS
10
1.12774
20
2.5131
11
1.12765
21
2.51335
0
LINE
8
BLACK
6
CONTINUOUS
10
1.12765
20
2.51335
11
1.12744
21
2.51352
0
LINE
8
BLACK
6
CONTINUOUS
10
1.12744
20
2.51352
11
1.12731
21
2.51428
0
LINE
8
BLACK
6
CONTINUOUS
10
1.12731
20
2.51428
11
1.12705
21
2.515
0
LINE
8
BLACK
6
CONTINUOUS
10
1.12705
20
2.515
11
1.12705
21
2.715
0
LINE
8
BLACK
6
CONTINUOUS
10
1.12705
20
2.715
11
1.12711
21
2.71538
0
LINE
8
BLACK
6
CONTINUOUS
10
1.12711
20
2.71538
11
1.12709
21
2.71551
0
LINE
8
BLACK
6
CONTINUOUS
10
1.12709
20
2.71551
11
1.12716
21
2.71563
0
LINE
8
BLACK
6
CONTINUOUS
10
1.12716
20
2.71563
11
1.12723
21
2.71601
0
LINE
8
BLACK
6
CONTINUOUS
10
1.12723
20
2.71601
11
1.12772
21
2.7166
0
LINE
8
BLACK
6
CONTINUOUS
10
1.12772
20
2.7166
11
1.1281
21
2.71726
0
LINE
8
BLACK
6
CONTINUOUS
10
1.1281
20
2.71726
11
1.12835
21
2.71735
0
LINE
8
BLACK
6
CONTINUOUS
10
1.12835
20
2.71735
11
1.12852
21
2.71756
0
LINE
8
BLACK
6
CONTINUOUS
10
1.12852
20
2.71756
11
1.12928
21
2.71769
0
LINE
8
BLACK
6
CONTINUOUS
10
1.12928
20
2.71769
11
1.13
21
2.71795
0
LINE
8
BLACK
6
CONTINUOUS
10
1.13
20
2.71795
11
1.23
21
2.71795
0
LINE
8
BLACK
6
CONTINUOUS
10
1.23
20
2.71795
11
1.23038
21
2.71789
0
LINE
8
BLACK
6
CONTINUOUS
10
1.13295
20
2.71205
11
1.13295
21
2.51795
0
LINE
8
BLACK
6
CONTINUOUS
10
1.13295
20
2.51795
11
1.22705
21
2.51795
0
LINE
8
BLACK
6
CONTINUOUS
10
1.22705
20
2.51795
11
1.22705
21
2.71205
0
LINE
8
BLACK
6
CONTINUOUS
10
1.22705
20
2.71205
11
1.13295
21
2.71205
0
LINE
8
BLACK
6
CONTINUOUS
10
0.897851
20
2.71628
11
0.898543
21
2.71461
0
LINE
8
BLACK
6
CONTINUOUS
10
0.898543
20
2.71461
11
0.897851
21
2.71294
0
LINE
8
BLACK
6
CONTINUOUS
10
0.897851
20
2.71294
11
0.896181
21
2.71224
0
LINE
8
BLACK
6
CONTINUOUS
10
0.896181
20
2.71224
11
0.793819
21
2.71224
0
LINE
8
BLACK
6
CONTINUOUS
10
0.793819
20
2.71224
11
0.792149
21
2.71294
0
LINE
8
BLACK
6
CONTINUOUS
10
0.792149
20
2.71294
11
0.791457
21
2.71461
0
LINE
8
BLACK
6
CONTINUOUS
10
0.791457
20
2.71461
11
0.792149
21
2.71628
0
LINE
8
BLACK
6
CONTINUOUS
10
0.792149
20
2.71628
11
0.793819
21
2.71697
0
LINE
8
BLACK
6
CONTINUOUS
10
0.793819
20
2.71697
11
0.896181
21
2.71697
0
LINE
8
BLACK
6
CONTINUOUS
10
0.896181
20
2.71697
11
0.897851
21
2.71628
0
LINE
8
BLACK
6
CONTINUOUS
10
0.0779217
20
0.229534
11
0.0819746
21
0.242958
0
LINE
8
BLACK
6
CONTINUOUS
10
0.0819746
20
0.242958
11
0.0874986
21
0.255846
0
LINE
8
BLACK
6
CONTINUOUS
10
0.0874986
20
0.255846
11
0.0944248
21
0.268039
0
LINE
8
BLACK
6
CONTINUOUS
10
0.0944248
20
0.268039
11
0.102667
21
0.279383
0
LINE
8
BLACK
6
CONTINUOUS
10
0.102667
20
0.279383
11
0.112122
21
0.289738
0
LINE
8
BLACK
6
CONTINUOUS
10
0.112122
20
0.289738
11
0.122673
21
0.298974
0
LINE
8
BLACK
6
CONTINUOUS
10
0.122673
20
0.298974
11
0.134187
21
0.306977
0
LINE
8
BLACK
6
CONTINUOUS
10
0.134187
20
0.306977
11
0.146522
21
0.313646
0
LINE
8
BLACK
6
CONTINUOUS
10
0.146522
20
0.313646
11
0.159523
21
0.318899
0
LINE
8
BLACK
6
CONTINUOUS
10
0.159523
20
0.318899
11
0.173029
21
0.32267
0
LINE
8
BLACK
6
CONTINUOUS
10
0.173029
20
0.32267
11
0.186871
21
0.324912
0
LINE
8
BLACK
6
CONTINUOUS
10
0.186871
20
0.324912
11
0.200877
21
0.325597
0
LINE
8
BLACK
6
CONTINUOUS
10
0.200877
20
0.325597
11
0.214872
21
0.324716
0
LINE
8
BLACK
6
CONTINUOUS
10
0.214872
20
0.324716
11
0.228681
21
0.322281
0
LINE
8
BLACK
6
CONTINUOUS
10
0.228681
20
0.322281
11
0.242133
21
0.318322
0
LINE
8
BLACK
6
CONTINUOUS
10
0.242133
20
0.318322
11
0.255059
21
0.312889
0
LINE
8
BLACK
6
CONTINUOUS
10
0.255059
20
0.312889
11
0.2673
21
0.306048
0
LINE
8
BLACK
6
CONTINUOUS
10
0.2673
20
0.306048
11
0.278701
21
0.297885
0
LINE
8
BLACK
6
CONTINUOUS
10
0.278701
20
0.297885
11
0.289122
21
0.288502
0
LINE
8
BLACK
6
CONTINUOUS
10
0.289122
20
0.288502
11
0.298432
21
0.278016
0
LINE
8
BLACK
6
CONTINUOUS
10
0.298432
20
0.278016
11
0.306515
21
0.266558
0
LINE
8
BLACK
6
CONTINUOUS
10
0.306515
20
0.266558
11
0.31327
21
0.25427
0
LINE
8
BLACK
6
CONTINUOUS
10
0.31327
20
0.25427
11
0.318614
21
0.241306
0
LINE
8
BLACK
6
CONTINUOUS
10
0.318614
20
0.241306
11
0.322479
21
0.227826
0
LINE
8
BLACK
6
CONTINUOUS
10
0.322479
20
0.227826
11
0.324817
21
0.214001
0
LINE
8
BLACK
6
CONTINUOUS
10
0.324817
20
0.214001
11
0.3256
21
0.2
0
LINE
8
BLACK
6
CONTINUOUS
10
0.3256
20
0.2
11
0.325551
21
0.196493
0
LINE
8
BLACK
6
CONTINUOUS
10
0.325551
20
0.196493
11
0.324378
21
0.18252
0
LINE
8
BLACK
6
CONTINUOUS
10
0.324378
20
0.18252
11
0.321654
21
0.168765
0
LINE
8
BLACK
6
CONTINUOUS
10
0.321654
20
0.168765
11
0.317414
21
0.155399
0
LINE
8
BLACK
6
CONTINUOUS
10
0.317414
20
0.155399
11
0.311711
21
0.142589
0
LINE
8
BLACK
6
CONTINUOUS
10
0.311711
20
0.142589
11
0.304615
21
0.130494
0
LINE
8
BLACK
6
CONTINUOUS
10
0.304615
20
0.130494
11
0.296215
21
0.119266
0
LINE
8
BLACK
6
CONTINUOUS
10
0.296215
20
0.119266
11
0.286616
21
0.109044
0
LINE
8
BLACK
6
CONTINUOUS
10
0.286616
20
0.109044
11
0.275938
21
0.0999558
0
LINE
8
BLACK
6
CONTINUOUS
10
0.275938
20
0.0999558
11
0.264313
21
0.0921146
0
LINE
8
BLACK
6
CONTINUOUS
10
0.264313
20
0.0921146
11
0.251886
21
0.0856181
0
LINE
8
BLACK
6
CONTINUOUS
10
0.251886
20
0.0856181
11
0.238813
21
0.0805473
0
LINE
8
BLACK
6
CONTINUOUS
10
0.238813
20
0.0805473
11
0.225255
21
0.0769654
0
LINE
8
BLACK
6
CONTINUOUS
10
0.225255
20
0.0769654
11
0.211383
21
0.0749169
0
LINE
8
BLACK
6
CONTINUOUS
10
0.211383
20
0.0749169
11
0.19737
21
0.0744276
0
LINE
8
BLACK
6
CONTINUOUS
10
0.19737
20
0.0744276
11
0.183389
21
0.0755033
0
LINE
8
BLACK
6
CONTINUOUS
10
0.183389
20
0.0755033
11
0.169615
21
0.0781309
0
LINE
8
BLACK
6
CONTINUOUS
10
0.169615
20
0.0781309
11
0.156219
21
0.0822774
0
LINE
8
BLACK
6
CONTINUOUS
10
0.156219
20
0.0822774
11
0.14337
21
0.0878912
0
LINE
8
BLACK
6
CONTINUOUS
10
0.14337
20
0.0878912
11
0.131226
21
0.0949024
0
LINE
8
BLACK
6
CONTINUOUS
10
0.131226
20
0.0949024
11
0.11994
21
0.103224
0
LINE
8
BLACK
6
CONTINUOUS
10
0.11994
20
0.103224
11
0.109651
21
0.112751
0
LINE
8
BLACK
6
CONTINUOUS
10
0.109651
20
0.112751
11
0.100488
21
0.123366
0
LINE
8
BLACK
6
CONTINUOUS
10
0.100488
20
0.123366
11
0.0925663
21
0.134936
0
LINE
8
BLACK
6
CONTINUOUS
10
0.0925663
20
0.134936
11
0.0859831
21
0.147317
0
LINE
8
BLACK
6
CONTINUOUS
10
0.0859831
20
0.147317
11
0.0808212
21
0.160354
0
LINE
8
BLACK
6
CONTINUOUS
10
0.0808212
20
0.160354
11
0.0771446
21
0.173886
0
LINE
8
BLACK
6
CONTINUOUS
10
0.0771446
20
0.173886
11
0.0749994
21
0.187744
0
LINE
8
BLACK
6
CONTINUOUS
10
0.0749994
20
0.187744
11
0.0744122
21
0.201754
0
LINE
8
BLACK
6
CONTINUOUS
10
0.0744122
20
0.201754
11
0.074533
21
0.20348
0
LINE
8
BLACK
6
CONTINUOUS
10
0.074533
20
0.20348
11
0.0753904
21
0.215742
0
LINE
8
BLACK
6
CONTINUOUS
10
0.0753904
20
0.215742
11
0.0779217
21
0.229534
0
LINE
8
BLACK
6
CONTINUOUS
10
0.0913983
20
0.178102
11
0.0946349
21
0.165765
0
LINE
8
BLACK
6
CONTINUOUS
10
0.0946349
20
0.165765
11
0.0992681
21
0.153881
0
LINE
8
BLACK
6
CONTINUOUS
10
0.0992681
20
0.153881
11
0.105236
21
0.142609
0
LINE
8
BLACK
6
CONTINUOUS
10
0.105236
20
0.142609
11
0.112461
21
0.132098
0
LINE
8
BLACK
6
CONTINUOUS
10
0.112461
20
0.132098
11
0.120845
21
0.122486
0
LINE
8
BLACK
6
CONTINUOUS
10
0.120845
20
0.122486
11
0.130279
21
0.113902
0
LINE
8
BLACK
6
CONTINUOUS
10
0.130279
20
0.113902
11
0.140637
21
0.106459
0
LINE
8
BLACK
6
CONTINUOUS
10
0.140637
20
0.106459
11
0.151782
21
0.100256
0
LINE
8
BLACK
6
CONTINUOUS
10
0.151782
20
0.100256
11
0.163566
21
0.095375
0
LINE
8
BLACK
6
CONTINUOUS
10
0.163566
20
0.095375
11
0.175832
21
0.0918807
0
LINE
8
BLACK
6
CONTINUOUS
10
0.175832
20
0.0918807
11
0.18842
21
0.0898194
0
LINE
8
BLACK
6
CONTINUOUS
10
0.18842
20
0.0898194
11
0.20116
21
0.0892186
0
LINE
8
BLACK
6
CONTINUOUS
10
0.20116
20
0.0892186
11
0.213885
21
0.0900861
0
LINE
8
BLACK
6
CONTINUOUS
10
0.213885
20
0.0900861
11
0.226426
21
0.0924105
0
LINE
8
BLACK
6
CONTINUOUS
10
0.226426
20
0.0924105
11
0.238617
21
0.0961609
0
LINE
8
BLACK
6
CONTINUOUS
10
0.238617
20
0.0961609
11
0.250296
21
0.101288
0
LINE
8
BLACK
6
CONTINUOUS
10
0.250296
20
0.101288
11
0.261309
21
0.107723
0
LINE
8
BLACK
6
CONTINUOUS
10
0.261309
20
0.107723
11
0.271509
21
0.115381
0
LINE
8
BLACK
6
CONTINUOUS
10
0.271509
20
0.115381
11
0.280761
21
0.124161
0
LINE
8
BLACK
6
CONTINUOUS
10
0.280761
20
0.124161
11
0.288942
21
0.133946
0
LINE
8
BLACK
6
CONTINUOUS
10
0.288942
20
0.133946
11
0.295945
21
0.144606
0
LINE
8
BLACK
6
CONTINUOUS
10
0.295945
20
0.144606
11
0.301676
21
0.156001
0
LINE
8
BLACK
6
CONTINUOUS
10
0.301676
20
0.156001
11
0.306059
21
0.167979
0
LINE
8
BLACK
6
CONTINUOUS
10
0.306059
20
0.167979
11
0.309036
21
0.180381
0
LINE
8
BLACK
6
CONTINUOUS
10
0.309036
20
0.180381
11
0.310569
21
0.193044
0
LINE
8
BLACK
6
CONTINUOUS
10
0.310569
20
0.193044
11
0.310787
21
0.2
0
LINE
8
BLACK
6
CONTINUOUS
10
0.310787
20
0.2
11
0.310053
21
0.212734
0
LINE
8
BLACK
6
CONTINUOUS
10
0.310053
20
0.212734
11
0.30786
21
0.225298
0
LINE
8
BLACK
6
CONTINUOUS
10
0.30786
20
0.225298
11
0.304238
21
0.237528
0
LINE
8
BLACK
6
CONTINUOUS
10
0.304238
20
0.237528
11
0.299234
21
0.24926
0
LINE
8
BLACK
6
CONTINUOUS
10
0.299234
20
0.24926
11
0.292914
21
0.260339
0
LINE
8
BLACK
6
CONTINUOUS
10
0.292914
20
0.260339
11
0.285363
21
0.270619
0
LINE
8
BLACK
6
CONTINUOUS
10
0.285363
20
0.270619
11
0.276681
21
0.279962
0
LINE
8
BLACK
6
CONTINUOUS
10
0.276681
20
0.279962
11
0.266982
21
0.288246
0
LINE
8
BLACK
6
CONTINUOUS
10
0.266982
20
0.288246
11
0.256395
21
0.295359
0
LINE
8
BLACK
6
CONTINUOUS
10
0.256395
20
0.295359
11
0.245061
21
0.301209
0
LINE
8
BLACK
6
CONTINUOUS
10
0.245061
20
0.301209
11
0.23313
21
0.305718
0
LINE
8
BLACK
6
CONTINUOUS
10
0.23313
20
0.305718
11
0.220759
21
0.308825
0
LINE
8
BLACK
6
CONTINUOUS
10
0.220759
20
0.308825
11
0.208114
21
0.31049
0
LINE
8
BLACK
6
CONTINUOUS
10
0.208114
20
0.31049
11
0.195361
21
0.31069
0
LINE
8
BLACK
6
CONTINUOUS
10
0.195361
20
0.31069
11
0.182669
21
0.309423
0
LINE
8
BLACK
6
CONTINUOUS
10
0.182669
20
0.309423
11
0.170207
21
0.306706
0
LINE
8
BLACK
6
CONTINUOUS
10
0.170207
20
0.306706
11
0.15814
21
0.302575
0
LINE
8
BLACK
6
CONTINUOUS
10
0.15814
20
0.302575
11
0.146628
21
0.297084
0
LINE
8
BLACK
6
CONTINUOUS
10
0.146628
20
0.297084
11
0.135823
21
0.290306
0
LINE
8
BLACK
6
CONTINUOUS
10
0.135823
20
0.290306
11
0.125869
21
0.282331
0
LINE
8
BLACK
6
CONTINUOUS
10
0.125869
20
0.282331
11
0.116897
21
0.273265
0
LINE
8
BLACK
6
CONTINUOUS
10
0.116897
20
0.273265
11
0.109027
21
0.263228
0
LINE
8
BLACK
6
CONTINUOUS
10
0.109027
20
0.263228
11
0.102363
21
0.252353
0
LINE
8
BLACK
6
CONTINUOUS
10
0.102363
20
0.252353
11
0.0969924
21
0.240784
0
LINE
8
BLACK
6
CONTINUOUS
10
0.0969924
20
0.240784
11
0.0929876
21
0.228674
0
LINE
8
BLACK
6
CONTINUOUS
10
0.0929876
20
0.228674
11
0.0904011
21
0.216184
0
LINE
8
BLACK
6
CONTINUOUS
10
0.0904011
20
0.216184
11
0.0892672
21
0.20348
0
LINE
8
BLACK
6
CONTINUOUS
10
0.0892672
20
0.20348
11
0.0896011
21
0.19073
0
LINE
8
BLACK
6
CONTINUOUS
10
0.0896011
20
0.19073
11
0.0913983
21
0.178102
0
LINE
8
BLACK
6
CONTINUOUS
10
2.87792
20
0.229534
11
2.88197
21
0.242958
0
LINE
8
BLACK
6
CONTINUOUS
10
2.88197
20
0.242958
11
2.8875
21
0.255846
0
LINE
8
BLACK
6
CONTINUOUS
10
2.8875
20
0.255846
11
2.89442
21
0.268039
0
LINE
8
BLACK
6
CONTINUOUS
10
2.89442
20
0.268039
11
2.90267
21
0.279383
0
LINE
8
BLACK
6
CONTINUOUS
10
2.90267
20
0.279383
11
2.91212
21
0.289738
0
LINE
8
BLACK
6
CONTINUOUS
10
2.91212
20
0.289738
11
2.92267
21
0.298974
0
LINE
8
BLACK
6
CONTINUOUS
10
2.92267
20
0.298974
11
2.93419
21
0.306977
0
LINE
8
BLACK
6
CONTINUOUS
10
2.93419
20
0.306977
11
2.94652
21
0.313646
0
LINE
8
BLACK
6
CONTINUOUS
10
2.94652
20
0.313646
11
2.95952
21
0.318899
0
LINE
8
BLACK
6
CONTINUOUS
10
2.95952
20
0.318899
11
2.97303
21
0.32267
0
LINE
8
BLACK
6
CONTINUOUS
10
2.97303
20
0.32267
11
2.98687
21
0.324912
0
LINE
8
BLACK
6
CONTINUOUS
10
2.98687
20
0.324912
11
3.00088
21
0.325597
0
LINE
8
BLACK
6
CONTINUOUS
10
3.00088
20
0.325597
11
3.01487
21
0.324716
0
LINE
8
BLACK
6
CONTINUOUS
10
3.01487
20
0.324716
11
3.02868
21
0.322281
0
LINE
8
BLACK
6
CONTINUOUS
10
3.02868
20
0.322281
11
3.04213
21
0.318322
0
LINE
8
BLACK
6
CONTINUOUS
10
3.04213
20
0.318322
11
3.05506
21
0.312889
0
LINE
8
BLACK
6
CONTINUOUS
10
3.05506
20
0.312889
11
3.0673
21
0.306048
0
LINE
8
BLACK
6
CONTINUOUS
10
3.0673
20
0.306048
11
3.0787
21
0.297885
0
LINE
8
BLACK
6
CONTINUOUS
10
3.0787
20
0.297885
11
3.08912
21
0.288502
0
LINE
8
BLACK
6
CONTINUOUS
10
3.08912
20
0.288502
11
3.09843
21
0.278016
0
LINE
8
BLACK
6
CONTINUOUS
10
3.09843
20
0.278016
11
3.10651
21
0.266558
0
LINE
8
BLACK
6
CONTINUOUS
10
3.10651
20
0.266558
11
3.11327
21
0.25427
0
LINE
8
BLACK
6
CONTINUOUS
10
3.11327
20
0.25427
11
3.11861
21
0.241306
0
LINE
8
BLACK
6
CONTINUOUS
10
3.11861
20
0.241306
11
3.12248
21
0.227826
0
LINE
8
BLACK
6
CONTINUOUS
10
3.12248
20
0.227826
11
3.12482
21
0.214001
0
LINE
8
BLACK
6
CONTINUOUS
10
3.12482
20
0.214001
11
3.1256
21
0.2
0
LINE
8
BLACK
6
CONTINUOUS
10
3.1256
20
0.2
11
3.12555
21
0.196493
0
LINE
8
BLACK
6
CONTINUOUS
10
3.12555
20
0.196493
11
3.12438
21
0.18252
0
LINE
8
BLACK
6
CONTINUOUS
10
3.12438
20
0.18252
11
3.12165
21
0.168765
0
LINE
8
BLACK
6
CONTINUOUS
10
3.12165
20
0.168765
11
3.11741
21
0.155399
0
LINE
8
BLACK
6
CONTINUOUS
10
3.11741
20
0.155399
11
3.11171
21
0.142589
0
LINE
8
BLACK
6
CONTINUOUS
10
3.11171
20
0.142589
11
3.10461
21
0.130494
0
LINE
8
BLACK
6
CONTINUOUS
10
3.10461
20
0.130494
11
3.09622
21
0.119266
0
LINE
8
BLACK
6
CONTINUOUS
10
3.09622
20
0.119266
11
3.08662
21
0.109044
0
LINE
8
BLACK
6
CONTINUOUS
10
3.08662
20
0.109044
11
3.07594
21
0.0999558
0
LINE
8
BLACK
6
CONTINUOUS
10
3.07594
20
0.0999558
11
3.06431
21
0.0921146
0
LINE
8
BLACK
6
CONTINUOUS
10
3.06431
20
0.0921146
11
3.05189
21
0.0856181
0
LINE
8
BLACK
6
CONTINUOUS
10
3.05189
20
0.0856181
11
3.03881
21
0.0805473
0
LINE
8
BLACK
6
CONTINUOUS
10
3.03881
20
0.0805473
11
3.02526
21
0.0769654
0
LINE
8
BLACK
6
CONTINUOUS
10
3.02526
20
0.0769654
11
3.01138
21
0.0749169
0
LINE
8
BLACK
6
CONTINUOUS
10
3.01138
20
0.0749169
11
2.99737
21
0.0744276
0
LINE
8
BLACK
6
CONTINUOUS
10
2.99737
20
0.0744276
11
2.98339
21
0.0755033
0
LINE
8
BLACK
6
CONTINUOUS
10
2.98339
20
0.0755033
11
2.96961
21
0.0781309
0
LINE
8
BLACK
6
CONTINUOUS
10
2.96961
20
0.0781309
11
2.95622
21
0.0822774
0
LINE
8
BLACK
6
CONTINUOUS
10
2.95622
20
0.0822774
11
2.94337
21
0.0878912
0
LINE
8
BLACK
6
CONTINUOUS
10
2.94337
20
0.0878912
11
2.93123
21
0.0949024
0
LINE
8
BLACK
6
CONTINUOUS
10
2.93123
20
0.0949024
11
2.91994
21
0.103224
0
LINE
8
BLACK
6
CONTINUOUS
10
2.91994
20
0.103224
11
2.90965
21
0.112751
0
LINE
8
BLACK
6
CONTINUOUS
10
2.90965
20
0.112751
11
2.90049
21
0.123366
0
LINE
8
BLACK
6
CONTINUOUS
10
2.90049
20
0.123366
11
2.89257
21
0.134936
0
LINE
8
BLACK
6
CONTINUOUS
10
2.89257
20
0.134936
11
2.88598
21
0.147317
0
LINE
8
BLACK
6
CONTINUOUS
10
2.88598
20
0.147317
11
2.88082
21
0.160354
0
LINE
8
BLACK
6
CONTINUOUS
10
2.88082
20
0.160354
11
2.87714
21
0.173886
0
LINE
8
BLACK
6
CONTINUOUS
10
2.87714
20
0.173886
11
2.875
21
0.187744
0
LINE
8
BLACK
6
CONTINUOUS
10
2.875
20
0.187744
11
2.87441
21
0.201754
0
LINE
8
BLACK
6
CONTINUOUS
10
2.87441
20
0.201754
11
2.87453
21
0.20348
0
LINE
8
BLACK
6
CONTINUOUS
10
2.87453
20
0.20348
11
2.87539
21
0.215742
0
LINE
8
BLACK
6
CONTINUOUS
10
2.87539
20
0.215742
11
2.87792
21
0.229534
0
LINE
8
BLACK
6
CONTINUOUS
10
2.8914
20
0.178102
11
2.89463
21
0.165765
0
LINE
8
BLACK
6
CONTINUOUS
10
2.89463
20
0.165765
11
2.89927
21
0.153881
0
LINE
8
BLACK
6
CONTINUOUS
10
2.89927
20
0.153881
11
2.90524
21
0.142609
0
LINE
8
BLACK
6
CONTINUOUS
10
2.90524
20
0.142609
11
2.91246
21
0.132098
0
LINE
8
BLACK
6
CONTINUOUS
10
2.91246
20
0.132098
11
2.92085
21
0.122486
0
LINE
8
BLACK
6
CONTINUOUS
10
2.92085
20
0.122486
11
2.93028
21
0.113902
0
LINE
8
BLACK
6
CONTINUOUS
10
2.93028
20
0.113902
11
2.94064
21
0.106459
0
LINE
8
BLACK
6
CONTINUOUS
10
2.94064
20
0.106459
11
2.95178
21
0.100256
0
LINE
8
BLACK
6
CONTINUOUS
10
2.95178
20
0.100256
11
2.96357
21
0.095375
0
LINE
8
BLACK
6
CONTINUOUS
10
2.96357
20
0.095375
11
2.97583
21
0.0918807
0
LINE
8
BLACK
6
CONTINUOUS
10
2.97583
20
0.0918807
11
2.98842
21
0.0898194
0
LINE
8
BLACK
6
CONTINUOUS
10
2.98842
20
0.0898194
11
3.00116
21
0.0892186
0
LINE
8
BLACK
6
CONTINUOUS
10
3.00116
20
0.0892186
11
3.01389
21
0.0900861
0
LINE
8
BLACK
6
CONTINUOUS
10
3.01389
20
0.0900861
11
3.02643
21
0.0924105
0
LINE
8
BLACK
6
CONTINUOUS
10
3.02643
20
0.0924105
11
3.03862
21
0.0961609
0
LINE
8
BLACK
6
CONTINUOUS
10
3.03862
20
0.0961609
11
3.0503
21
0.101288
0
LINE
8
BLACK
6
CONTINUOUS
10
3.0503
20
0.101288
11
3.06131
21
0.107723
0
LINE
8
BLACK
6
CONTINUOUS
10
3.06131
20
0.107723
11
3.07151
21
0.115381
0
LINE
8
BLACK
6
CONTINUOUS
10
3.07151
20
0.115381
11
3.08076
21
0.124161
0
LINE
8
BLACK
6
CONTINUOUS
10
3.08076
20
0.124161
11
3.08894
21
0.133946
0
LINE
8
BLACK
6
CONTINUOUS
10
3.08894
20
0.133946
11
3.09594
21
0.144606
0
LINE
8
BLACK
6
CONTINUOUS
10
3.09594
20
0.144606
11
3.10168
21
0.156001
0
LINE
8
BLACK
6
CONTINUOUS
10
3.10168
20
0.156001
11
3.10606
21
0.167979
0
LINE
8
BLACK
6
CONTINUOUS
10
3.10606
20
0.167979
11
3.10904
21
0.180381
0
LINE
8
BLACK
6
CONTINUOUS
10
3.10904
20
0.180381
11
3.11057
21
0.193044
0
LINE
8
BLACK
6
CONTINUOUS
10
3.11057
20
0.193044
11
3.11079
21
0.2
0
LINE
8
BLACK
6
CONTINUOUS
10
3.11079
20
0.2
11
3.11005
21
0.212734
0
LINE
8
BLACK
6
CONTINUOUS
10
3.11005
20
0.212734
11
3.10786
21
0.225298
0
LINE
8
BLACK
6
CONTINUOUS
10
3.10786
20
0.225298
11
3.10424
21
0.237528
0
LINE
8
BLACK
6
CONTINUOUS
10
3.10424
20
0.237528
11
3.09923
21
0.24926
0
LINE
8
BLACK
6
CONTINUOUS
10
3.09923
20
0.24926
11
3.09291
21
0.260339
0
LINE
8
BLACK
6
CONTINUOUS
10
3.09291
20
0.260339
11
3.08536
21
0.270619
0
LINE
8
BLACK
6
CONTINUOUS
10
3.08536
20
0.270619
11
3.07668
21
0.279962
0
LINE
8
BLACK
6
CONTINUOUS
10
3.07668
20
0.279962
11
3.06698
21
0.288246
0
LINE
8
BLACK
6
CONTINUOUS
10
3.06698
20
0.288246
11
3.0564
21
0.295359
0
LINE
8
BLACK
6
CONTINUOUS
10
3.0564
20
0.295359
11
3.04506
21
0.301209
0
LINE
8
BLACK
6
CONTINUOUS
10
3.04506
20
0.301209
11
3.03313
21
0.305718
0
LINE
8
BLACK
6
CONTINUOUS
10
3.03313
20
0.305718
11
3.02076
21
0.308825
0
LINE
8
BLACK
6
CONTINUOUS
10
3.02076
20
0.308825
11
3.00811
21
0.31049
0
LINE
8
BLACK
6
CONTINUOUS
10
3.00811
20
0.31049
11
2.99536
21
0.31069
0
LINE
8
BLACK
6
CONTINUOUS
10
2.99536
20
0.31069
11
2.98267
21
0.309423
0
LINE
8
BLACK
6
CONTINUOUS
10
2.98267
20
0.309423
11
2.97021
21
0.306706
0
LINE
8
BLACK
6
CONTINUOUS
10
2.97021
20
0.306706
11
2.95814
21
0.302575
0
LINE
8
BLACK
6
CONTINUOUS
10
2.95814
20
0.302575
11
2.94663
21
0.297084
0
LINE
8
BLACK
6
CONTINUOUS
10
2.94663
20
0.297084
11
2.93582
21
0.290306
0
LINE
8
BLACK
6
CONTINUOUS
10
2.93582
20
0.290306
11
2.92587
21
0.282331
0
LINE
8
BLACK
6
CONTINUOUS
10
2.92587
20
0.282331
11
2.9169
21
0.273265
0
LINE
8
BLACK
6
CONTINUOUS
10
2.9169
20
0.273265
11
2.90903
21
0.263228
0
LINE
8
BLACK
6
CONTINUOUS
10
2.90903
20
0.263228
11
2.90236
21
0.252353
0
LINE
8
BLACK
6
CONTINUOUS
10
2.90236
20
0.252353
11
2.89699
21
0.240784
0
LINE
8
BLACK
6
CONTINUOUS
10
2.89699
20
0.240784
11
2.89299
21
0.228674
0
LINE
8
BLACK
6
CONTINUOUS
10
2.89299
20
0.228674
11
2.8904
21
0.216184
0
LINE
8
BLACK
6
CONTINUOUS
10
2.8904
20
0.216184
11
2.88927
21
0.20348
0
LINE
8
BLACK
6
CONTINUOUS
10
2.88927
20
0.20348
11
2.8896
21
0.19073
0
LINE
8
BLACK
6
CONTINUOUS
10
2.8896
20
0.19073
11
2.8914
21
0.178102
0
LINE
8
BLACK
6
CONTINUOUS
10
0.743377
20
2.57838
11
0.74572
21
2.59049
0
LINE
8
BLACK
6
CONTINUOUS
10
0.74572
20
2.59049
11
0.749502
21
2.60223
0
LINE
8
BLACK
6
CONTINUOUS
10
0.749502
20
2.60223
11
0.754666
21
2.61344
0
LINE
8
BLACK
6
CONTINUOUS
10
0.754666
20
2.61344
11
0.76114
21
2.62394
0
LINE
8
BLACK
6
CONTINUOUS
10
0.76114
20
2.62394
11
0.768828
21
2.63359
0
LINE
8
BLACK
6
CONTINUOUS
10
0.768828
20
2.63359
11
0.777619
21
2.64224
0
LINE
8
BLACK
6
CONTINUOUS
10
0.777619
20
2.64224
11
0.787386
21
2.64978
0
LINE
8
BLACK
6
CONTINUOUS
10
0.787386
20
2.64978
11
0.797988
21
2.65608
0
LINE
8
BLACK
6
CONTINUOUS
10
0.797988
20
2.65608
11
0.809271
21
2.66107
0
LINE
8
BLACK
6
CONTINUOUS
10
0.809271
20
2.66107
11
0.821072
21
2.66467
0
LINE
8
BLACK
6
CONTINUOUS
10
0.821072
20
2.66467
11
0.833219
21
2.66682
0
LINE
8
BLACK
6
CONTINUOUS
10
0.833219
20
2.66682
11
0.845537
21
2.6675
0
LINE
8
BLACK
6
CONTINUOUS
10
0.845537
20
2.6675
11
0.857847
21
2.66669
0
LINE
8
BLACK
6
CONTINUOUS
10
0.857847
20
2.66669
11
0.869971
21
2.66441
0
LINE
8
BLACK
6
CONTINUOUS
10
0.869971
20
2.66441
11
0.881733
21
2.66069
0
LINE
8
BLACK
6
CONTINUOUS
10
0.881733
20
2.66069
11
0.892963
21
2.65559
0
LINE
8
BLACK
6
CONTINUOUS
10
0.892963
20
2.65559
11
0.903498
21
2.64917
0
LINE
8
BLACK
6
CONTINUOUS
10
0.903498
20
2.64917
11
0.913186
21
2.64153
0
LINE
8
BLACK
6
CONTINUOUS
10
0.913186
20
2.64153
11
0.921886
21
2.63278
0
LINE
8
BLACK
6
CONTINUOUS
10
0.921886
20
2.63278
11
0.929473
21
2.62306
0
LINE
8
BLACK
6
CONTINUOUS
10
0.929473
20
2.62306
11
0.935836
21
2.61249
0
LINE
8
BLACK
6
CONTINUOUS
10
0.935836
20
2.61249
11
0.940883
21
2.60123
0
LINE
8
BLACK
6
CONTINUOUS
10
0.940883
20
2.60123
11
0.944541
21
2.58945
0
LINE
8
BLACK
6
CONTINUOUS
10
0.944541
20
2.58945
11
0.946758
21
2.57731
0
LINE
8
BLACK
6
CONTINUOUS
10
0.946758
20
2.57731
11
0.9475
21
2.565
0
LINE
8
BLACK
6
CONTINUOUS
10
0.9475
20
2.565
11
0.947478
21
2.56285
0
LINE
8
BLACK
6
CONTINUOUS
10
0.947478
20
2.56285
11
0.946477
21
2.55056
0
LINE
8
BLACK
6
CONTINUOUS
10
0.946477
20
2.55056
11
0.944007
21
2.53847
0
LINE
8
BLACK
6
CONTINUOUS
10
0.944007
20
2.53847
11
0.940103
21
2.52677
0
LINE
8
BLACK
6
CONTINUOUS
10
0.940103
20
2.52677
11
0.934821
21
2.51562
0
LINE
8
BLACK
6
CONTINUOUS
10
0.934821
20
2.51562
11
0.928239
21
2.50519
0
LINE
8
BLACK
6
CONTINUOUS
10
0.928239
20
2.50519
11
0.92045
21
2.49562
0
LINE
8
BLACK
6
CONTINUOUS
10
0.92045
20
2.49562
11
0.911568
21
2.48706
0
LINE
8
BLACK
6
CONTINUOUS
10
0.911568
20
2.48706
11
0.901723
21
2.47963
0
LINE
8
BLACK
6
CONTINUOUS
10
0.901723
20
2.47963
11
0.891055
21
2.47343
0
LINE
8
BLACK
6
CONTINUOUS
10
0.891055
20
2.47343
11
0.879721
21
2.46856
0
LINE
8
BLACK
6
CONTINUOUS
10
0.879721
20
2.46856
11
0.867883
21
2.46509
0
LINE
8
BLACK
6
CONTINUOUS
10
0.867883
20
2.46509
11
0.855714
21
2.46306
0
LINE
8
BLACK
6
CONTINUOUS
10
0.855714
20
2.46306
11
0.84339
21
2.46251
0
LINE
8
BLACK
6
CONTINUOUS
10
0.84339
20
2.46251
11
0.831089
21
2.46345
0
LINE
8
BLACK
6
CONTINUOUS
10
0.831089
20
2.46345
11
0.81899
21
2.46586
0
LINE
8
BLACK
6
CONTINUOUS
10
0.81899
20
2.46586
11
0.807267
21
2.4697
0
LINE
8
BLACK
6
CONTINUOUS
10
0.807267
20
2.4697
11
0.796091
21
2.47492
0
LINE
8
BLACK
6
CONTINUOUS
10
0.796091
20
2.47492
11
0.785624
21
2.48145
0
LINE
8
BLACK
6
CONTINUOUS
10
0.785624
20
2.48145
11
0.776016
21
2.48919
0
LINE
8
BLACK
6
CONTINUOUS
10
0.776016
20
2.48919
11
0.767408
21
2.49802
0
LINE
8
BLACK
6
CONTINUOUS
10
0.767408
20
2.49802
11
0.759924
21
2.50783
0
LINE
8
BLACK
6
CONTINUOUS
10
0.759924
20
2.50783
11
0.753672
21
2.51847
0
LINE
8
BLACK
6
CONTINUOUS
10
0.753672
20
2.51847
11
0.748743
21
2.52977
0
LINE
8
BLACK
6
CONTINUOUS
10
0.748743
20
2.52977
11
0.745208
21
2.54159
0
LINE
8
BLACK
6
CONTINUOUS
10
0.745208
20
2.54159
11
0.743119
21
2.55375
0
LINE
8
BLACK
6
CONTINUOUS
10
0.743119
20
2.55375
11
0.742559
21
2.565
0
LINE
8
BLACK
6
CONTINUOUS
10
0.742559
20
2.565
11
0.742506
21
2.56607
0
LINE
8
BLACK
6
CONTINUOUS
10
0.742506
20
2.56607
11
0.743377
21
2.57838
0
LINE
8
BLACK
6
CONTINUOUS
10
0.750376
20
2.5407
11
0.754168
21
2.52904
0
LINE
8
BLACK
6
CONTINUOUS
10
0.754168
20
2.52904
11
0.759391
21
2.51794
0
LINE
8
BLACK
6
CONTINUOUS
10
0.759391
20
2.51794
11
0.765965
21
2.50758
0
LINE
8
BLACK
6
CONTINUOUS
10
0.765965
20
2.50758
11
0.773785
21
2.49812
0
LINE
8
BLACK
6
CONTINUOUS
10
0.773785
20
2.49812
11
0.782728
21
2.48973
0
LINE
8
BLACK
6
CONTINUOUS
10
0.782728
20
2.48973
11
0.792654
21
2.48252
0
LINE
8
BLACK
6
CONTINUOUS
10
0.792654
20
2.48252
11
0.803404
21
2.4766
0
LINE
8
BLACK
6
CONTINUOUS
10
0.803404
20
2.4766
11
0.814811
21
2.47209
0
LINE
8
BLACK
6
CONTINUOUS
10
0.814811
20
2.47209
11
0.826694
21
2.46904
0
LINE
8
BLACK
6
CONTINUOUS
10
0.826694
20
2.46904
11
0.838866
21
2.4675
0
LINE
8
BLACK
6
CONTINUOUS
10
0.838866
20
2.4675
11
0.851134
21
2.4675
0
LINE
8
BLACK
6
CONTINUOUS
10
0.851134
20
2.4675
11
0.863306
21
2.46904
0
LINE
8
BLACK
6
CONTINUOUS
10
0.863306
20
2.46904
11
0.875189
21
2.47209
0
LINE
8
BLACK
6
CONTINUOUS
10
0.875189
20
2.47209
11
0.886596
21
2.4766
0
LINE
8
BLACK
6
CONTINUOUS
10
0.886596
20
2.4766
11
0.897346
21
2.48252
0
LINE
8
BLACK
6
CONTINUOUS
10
0.897346
20
2.48252
11
0.907272
21
2.48973
0
LINE
8
BLACK
6
CONTINUOUS
10
0.907272
20
2.48973
11
0.916215
21
2.49812
0
LINE
8
BLACK
6
CONTINUOUS
10
0.916215
20
2.49812
11
0.924035
21
2.50758
0
LINE
8
BLACK
6
CONTINUOUS
10
0.924035
20
2.50758
11
0.930609
21
2.51794
0
LINE
8
BLACK
6
CONTINUOUS
10
0.930609
20
2.51794
11
0.935832
21
2.52904
0
LINE
8
BLACK
6
CONTINUOUS
10
0.935832
20
2.52904
11
0.939624
21
2.5407
0
LINE
8
BLACK
6
CONTINUOUS
10
0.939624
20
2.5407
11
0.941922
21
2.55276
0
LINE
8
BLACK
6
CONTINUOUS
10
0.941922
20
2.55276
11
0.942693
21
2.565
0
LINE
8
BLACK
6
CONTINUOUS
10
0.942693
20
2.565
11
0.941922
21
2.57724
0
LINE
8
BLACK
6
CONTINUOUS
10
0.941922
20
2.57724
11
0.939624
21
2.5893
0
LINE
8
BLACK
6
CONTINUOUS
10
0.939624
20
2.5893
11
0.935832
21
2.60096
0
LINE
8
BLACK
6
CONTINUOUS
10
0.935832
20
2.60096
11
0.930609
21
2.61206
0
LINE
8
BLACK
6
CONTINUOUS
10
0.930609
20
2.61206
11
0.924035
21
2.62242
0
LINE
8
BLACK
6
CONTINUOUS
10
0.924035
20
2.62242
11
0.916215
21
2.63188
0
LINE
8
BLACK
6
CONTINUOUS
10
0.916215
20
2.63188
11
0.907272
21
2.64027
0
LINE
8
BLACK
6
CONTINUOUS
10
0.907272
20
2.64027
11
0.897346
21
2.64748
0
LINE
8
BLACK
6
CONTINUOUS
10
0.897346
20
2.64748
11
0.886596
21
2.6534
0
LINE
8
BLACK
6
CONTINUOUS
10
0.886596
20
2.6534
11
0.875189
21
2.65791
0
LINE
8
BLACK
6
CONTINUOUS
10
0.875189
20
2.65791
11
0.863306
21
2.66096
0
LINE
8
BLACK
6
CONTINUOUS
10
0.863306
20
2.66096
11
0.851134
21
2.6625
0
LINE
8
BLACK
6
CONTINUOUS
10
0.851134
20
2.6625
11
0.838866
21
2.6625
0
LINE
8
BLACK
6
CONTINUOUS
10
0.838866
20
2.6625
11
0.826694
21
2.66096
0
LINE
8
BLACK
6
CONTINUOUS
10
0.826694
20
2.66096
11
0.814811
21
2.65791
0
LINE
8
BLACK
6
CONTINUOUS
10
0.814811
20
2.65791
11
0.803404
21
2.6534
0
LINE
8
BLACK
6
CONTINUOUS
10
0.803404
20
2.6534
11
0.792654
21
2.64748
0
LINE
8
BLACK
6
CONTINUOUS
10
0.792654
20
2.64748
11
0.782728
21
2.64027
0
LINE
8
BLACK
6
CONTINUOUS
10
0.782728
20
2.64027
11
0.773785
21
2.63188
0
LINE
8
BLACK
6
CONTINUOUS
10
0.773785
20
2.63188
11
0.765965
21
2.62242
0
LINE
8
BLACK
6
CONTINUOUS
10
0.765965
20
2.62242
11
0.759391
21
2.61206
0
LINE
8
BLACK
6
CONTINUOUS
10
0.759391
20
2.61206
11
0.754168
21
2.60096
0
LINE
8
BLACK
6
CONTINUOUS
10
0.754168
20
2.60096
11
0.750376
21
2.5893
0
LINE
8
BLACK
6
CONTINUOUS
10
0.750376
20
2.5893
11
0.748078
21
2.57724
0
LINE
8
BLACK
6
CONTINUOUS
10
0.748078
20
2.57724
11
0.747307
21
2.565
0
LINE
8
BLACK
6
CONTINUOUS
10
0.747307
20
2.565
11
0.748078
21
2.55276
0
LINE
8
BLACK
6
CONTINUOUS
10
0.748078
20
2.55276
11
0.750376
21
2.5407
0
LINE
8
BLACK
6
CONTINUOUS
10
2.87792
20
2.62953
11
2.88197
21
2.64296
0
LINE
8
BLACK
6
CONTINUOUS
10
2.88197
20
2.64296
11
2.8875
21
2.65585
0
LINE
8
BLACK
6
CONTINUOUS
10
2.8875
20
2.65585
11
2.89442
21
2.66804
0
LINE
8
BLACK
6
CONTINUOUS
10
2.89442
20
2.66804
11
2.90267
21
2.67938
0
LINE
8
BLACK
6
CONTINUOUS
10
2.90267
20
2.67938
11
2.91212
21
2.68974
0
LINE
8
BLACK
6
CONTINUOUS
10
2.91212
20
2.68974
11
2.92267
21
2.69897
0
LINE
8
BLACK
6
CONTINUOUS
10
2.92267
20
2.69897
11
2.93419
21
2.70698
0
LINE
8
BLACK
6
CONTINUOUS
10
2.93419
20
2.70698
11
2.94652
21
2.71365
0
LINE
8
BLACK
6
CONTINUOUS
10
2.94652
20
2.71365
11
2.95952
21
2.7189
0
LINE
8
BLACK
6
CONTINUOUS
10
2.95952
20
2.7189
11
2.97303
21
2.72267
0
LINE
8
BLACK
6
CONTINUOUS
10
2.97303
20
2.72267
11
2.98687
21
2.72491
0
LINE
8
BLACK
6
CONTINUOUS
10
2.98687
20
2.72491
11
3.00088
21
2.7256
0
LINE
8
BLACK
6
CONTINUOUS
10
3.00088
20
2.7256
11
3.01487
21
2.72472
0
LINE
8
BLACK
6
CONTINUOUS
10
3.01487
20
2.72472
11
3.02868
21
2.72228
0
LINE
8
BLACK
6
CONTINUOUS
10
3.02868
20
2.72228
11
3.04213
21
2.71832
0
LINE
8
BLACK
6
CONTINUOUS
10
3.04213
20
2.71832
11
3.05506
21
2.71289
0
LINE
8
BLACK
6
CONTINUOUS
10
3.05506
20
2.71289
11
3.0673
21
2.70605
0
LINE
8
BLACK
6
CONTINUOUS
10
3.0673
20
2.70605
11
3.0787
21
2.69788
0
LINE
8
BLACK
6
CONTINUOUS
10
3.0787
20
2.69788
11
3.08912
21
2.6885
0
LINE
8
BLACK
6
CONTINUOUS
10
3.08912
20
2.6885
11
3.09843
21
2.67802
0
LINE
8
BLACK
6
CONTINUOUS
10
3.09843
20
2.67802
11
3.10651
21
2.66656
0
LINE
8
BLACK
6
CONTINUOUS
10
3.10651
20
2.66656
11
3.11327
21
2.65427
0
LINE
8
BLACK
6
CONTINUOUS
10
3.11327
20
2.65427
11
3.11861
21
2.64131
0
LINE
8
BLACK
6
CONTINUOUS
10
3.11861
20
2.64131
11
3.12248
21
2.62783
0
LINE
8
BLACK
6
CONTINUOUS
10
3.12248
20
2.62783
11
3.12482
21
2.614
0
LINE
8
BLACK
6
CONTINUOUS
10
3.12482
20
2.614
11
3.1256
21
2.6
0
LINE
8
BLACK
6
CONTINUOUS
10
3.1256
20
2.6
11
3.12555
21
2.59649
0
LINE
8
BLACK
6
CONTINUOUS
10
3.12555
20
2.59649
11
3.12438
21
2.58252
0
LINE
8
BLACK
6
CONTINUOUS
10
3.12438
20
2.58252
11
3.12165
21
2.56876
0
LINE
8
BLACK
6
CONTINUOUS
10
3.12165
20
2.56876
11
3.11741
21
2.5554
0
LINE
8
BLACK
6
CONTINUOUS
10
3.11741
20
2.5554
11
3.11171
21
2.54259
0
LINE
8
BLACK
6
CONTINUOUS
10
3.11171
20
2.54259
11
3.10461
21
2.53049
0
LINE
8
BLACK
6
CONTINUOUS
10
3.10461
20
2.53049
11
3.09622
21
2.51927
0
LINE
8
BLACK
6
CONTINUOUS
10
3.09622
20
2.51927
11
3.08662
21
2.50904
0
LINE
8
BLACK
6
CONTINUOUS
10
3.08662
20
2.50904
11
3.07594
21
2.49996
0
LINE
8
BLACK
6
CONTINUOUS
10
3.07594
20
2.49996
11
3.06431
21
2.49211
0
LINE
8
BLACK
6
CONTINUOUS
10
3.06431
20
2.49211
11
3.05189
21
2.48562
0
LINE
8
BLACK
6
CONTINUOUS
10
3.05189
20
2.48562
11
3.03881
21
2.48055
0
LINE
8
BLACK
6
CONTINUOUS
10
3.03881
20
2.48055
11
3.02526
21
2.47697
0
LINE
8
BLACK
6
CONTINUOUS
10
3.02526
20
2.47697
11
3.01138
21
2.47492
0
LINE
8
BLACK
6
CONTINUOUS
10
3.01138
20
2.47492
11
2.99737
21
2.47443
0
LINE
8
BLACK
6
CONTINUOUS
10
2.99737
20
2.47443
11
2.98339
21
2.4755
0
LINE
8
BLACK
6
CONTINUOUS
10
2.98339
20
2.4755
11
2.96961
21
2.47813
0
LINE
8
BLACK
6
CONTINUOUS
10
2.96961
20
2.47813
11
2.95622
21
2.48228
0
LINE
8
BLACK
6
CONTINUOUS
10
2.95622
20
2.48228
11
2.94337
21
2.48789
0
LINE
8
BLACK
6
CONTINUOUS
10
2.94337
20
2.48789
11
2.93123
21
2.4949
0
LINE
8
BLACK
6
CONTINUOUS
10
2.93123
20
2.4949
11
2.91994
21
2.50322
0
LINE
8
BLACK
6
CONTINUOUS
10
2.91994
20
2.50322
11
2.90965
21
2.51275
0
LINE
8
BLACK
6
CONTINUOUS
10
2.90965
20
2.51275
11
2.90049
21
2.52337
0
LINE
8
BLACK
6
CONTINUOUS
10
2.90049
20
2.52337
11
2.89257
21
2.53494
0
LINE
8
BLACK
6
CONTINUOUS
10
2.89257
20
2.53494
11
2.88598
21
2.54732
0
LINE
8
BLACK
6
CONTINUOUS
10
2.88598
20
2.54732
11
2.88082
21
2.56035
0
LINE
8
BLACK
6
CONTINUOUS
10
2.88082
20
2.56035
11
2.87714
21
2.57389
0
LINE
8
BLACK
6
CONTINUOUS
10
2.87714
20
2.57389
11
2.875
21
2.58774
0
LINE
8
BLACK
6
CONTINUOUS
10
2.875
20
2.58774
11
2.87441
21
2.60175
0
LINE
8
BLACK
6
CONTINUOUS
10
2.87441
20
2.60175
11
2.87453
21
2.60348
0
LINE
8
BLACK
6
CONTINUOUS
10
2.87453
20
2.60348
11
2.87539
21
2.61574
0
LINE
8
BLACK
6
CONTINUOUS
10
2.87539
20
2.61574
11
2.87792
21
2.62953
0
LINE
8
BLACK
6
CONTINUOUS
10
2.8914
20
2.5781
11
2.89463
21
2.56576
0
LINE
8
BLACK
6
CONTINUOUS
10
2.89463
20
2.56576
11
2.89927
21
2.55388
0
LINE
8
BLACK
6
CONTINUOUS
10
2.89927
20
2.55388
11
2.90524
21
2.54261
0
LINE
8
BLACK
6
CONTINUOUS
10
2.90524
20
2.54261
11
2.91246
21
2.5321
0
LINE
8
BLACK
6
CONTINUOUS
10
2.91246
20
2.5321
11
2.92085
21
2.52249
0
LINE
8
BLACK
6
CONTINUOUS
10
2.92085
20
2.52249
11
2.93028
21
2.5139
0
LINE
8
BLACK
6
CONTINUOUS
10
2.93028
20
2.5139
11
2.94064
21
2.50646
0
LINE
8
BLACK
6
CONTINUOUS
10
2.94064
20
2.50646
11
2.95178
21
2.50026
0
LINE
8
BLACK
6
CONTINUOUS
10
2.95178
20
2.50026
11
2.96357
21
2.49537
0
LINE
8
BLACK
6
CONTINUOUS
10
2.96357
20
2.49537
11
2.97583
21
2.49188
0
LINE
8
BLACK
6
CONTINUOUS
10
2.97583
20
2.49188
11
2.98842
21
2.48982
0
LINE
8
BLACK
6
CONTINUOUS
10
2.98842
20
2.48982
11
3.00116
21
2.48922
0
LINE
8
BLACK
6
CONTINUOUS
10
3.00116
20
2.48922
11
3.01389
21
2.49009
0
LINE
8
BLACK
6
CONTINUOUS
10
3.01389
20
2.49009
11
3.02643
21
2.49241
0
LINE
8
BLACK
6
CONTINUOUS
10
3.02643
20
2.49241
11
3.03862
21
2.49616
0
LINE
8
BLACK
6
CONTINUOUS
10
3.03862
20
2.49616
11
3.0503
21
2.50129
0
LINE
8
BLACK
6
CONTINUOUS
10
3.0503
20
2.50129
11
3.06131
21
2.50772
0
LINE
8
BLACK
6
CONTINUOUS
10
3.06131
20
2.50772
11
3.07151
21
2.51538
0
LINE
8
BLACK
6
CONTINUOUS
10
3.07151
20
2.51538
11
3.08076
21
2.52416
0
LINE
8
BLACK
6
CONTINUOUS
10
3.08076
20
2.52416
11
3.08894
21
2.53395
0
LINE
8
BLACK
6
CONTINUOUS
10
3.08894
20
2.53395
11
3.09594
21
2.54461
0
LINE
8
BLACK
6
CONTINUOUS
10
3.09594
20
2.54461
11
3.10168
21
2.556
0
LINE
8
BLACK
6
CONTINUOUS
10
3.10168
20
2.556
11
3.10606
21
2.56798
0
LINE
8
BLACK
6
CONTINUOUS
10
3.10606
20
2.56798
11
3.10904
21
2.58038
0
LINE
8
BLACK
6
CONTINUOUS
10
3.10904
20
2.58038
11
3.11057
21
2.59304
0
LINE
8
BLACK
6
CONTINUOUS
10
3.11057
20
2.59304
11
3.11079
21
2.6
0
LINE
8
BLACK
6
CONTINUOUS
10
3.11079
20
2.6
11
3.11005
21
2.61273
0
LINE
8
BLACK
6
CONTINUOUS
10
3.11005
20
2.61273
11
3.10786
21
2.6253
0
LINE
8
BLACK
6
CONTINUOUS
10
3.10786
20
2.6253
11
3.10424
21
2.63753
0
LINE
8
BLACK
6
CONTINUOUS
10
3.10424
20
2.63753
11
3.09923
21
2.64926
0
LINE
8
BLACK
6
CONTINUOUS
10
3.09923
20
2.64926
11
3.09291
21
2.66034
0
LINE
8
BLACK
6
CONTINUOUS
10
3.09291
20
2.66034
11
3.08536
21
2.67062
0
LINE
8
BLACK
6
CONTINUOUS
10
3.08536
20
2.67062
11
3.07668
21
2.67996
0
LINE
8
BLACK
6
CONTINUOUS
10
3.07668
20
2.67996
11
3.06698
21
2.68825
0
LINE
8
BLACK
6
CONTINUOUS
10
3.06698
20
2.68825
11
3.0564
21
2.69536
0
LINE
8
BLACK
6
CONTINUOUS
10
3.0564
20
2.69536
11
3.04506
21
2.70121
0
LINE
8
BLACK
6
CONTINUOUS
10
3.04506
20
2.70121
11
3.03313
21
2.70572
0
LINE
8
BLACK
6
CONTINUOUS
10
3.03313
20
2.70572
11
3.02076
21
2.70883
0
LINE
8
BLACK
6
CONTINUOUS
10
3.02076
20
2.70883
11
3.00811
21
2.71049
0
LINE
8
BLACK
6
CONTINUOUS
10
3.00811
20
2.71049
11
2.99536
21
2.71069
0
LINE
8
BLACK
6
CONTINUOUS
10
2.99536
20
2.71069
11
2.98267
21
2.70942
0
LINE
8
BLACK
6
CONTINUOUS
10
2.98267
20
2.70942
11
2.97021
21
2.70671
0
LINE
8
BLACK
6
CONTINUOUS
10
2.97021
20
2.70671
11
2.95814
21
2.70257
0
LINE
8
BLACK
6
CONTINUOUS
10
2.95814
20
2.70257
11
2.94663
21
2.69708
0
LINE
8
BLACK
6
CONTINUOUS
10
2.94663
20
2.69708
11
2.93582
21
2.69031
0
LINE
8
BLACK
6
CONTINUOUS
10
2.93582
20
2.69031
11
2.92587
21
2.68233
0
LINE
8
BLACK
6
CONTINUOUS
10
2.92587
20
2.68233
11
2.9169
21
2.67327
0
LINE
8
BLACK
6
CONTINUOUS
10
2.9169
20
2.67327
11
2.90903
21
2.66323
0
LINE
8
BLACK
6
CONTINUOUS
10
2.90903
20
2.66323
11
2.90236
21
2.65235
0
LINE
8
BLACK
6
CONTINUOUS
10
2.90236
20
2.65235
11
2.89699
21
2.64078
0
LINE
8
BLACK
6
CONTINUOUS
10
2.89699
20
2.64078
11
2.89299
21
2.62867
0
LINE
8
BLACK
6
CONTINUOUS
10
2.89299
20
2.62867
11
2.8904
21
2.61618
0
LINE
8
BLACK
6
CONTINUOUS
10
2.8904
20
2.61618
11
2.88927
21
2.60348
0
LINE
8
BLACK
6
CONTINUOUS
10
2.88927
20
2.60348
11
2.8896
21
2.59073
0
LINE
8
BLACK
6
CONTINUOUS
10
2.8896
20
2.59073
11
2.8914
21
2.5781
0
LINE
8
BLACK
6
CONTINUOUS
10
0.0779217
20
2.62953
11
0.0819746
21
2.64296
0
LINE
8
BLACK
6
CONTINUOUS
10
0.0819746
20
2.64296
11
0.0874986
21
2.65585
0
LINE
8
BLACK
6
CONTINUOUS
10
0.0874986
20
2.65585
11
0.0944248
21
2.66804
0
LINE
8
BLACK
6
CONTINUOUS
10
0.0944248
20
2.66804
11
0.102667
21
2.67938
0
LINE
8
BLACK
6
CONTINUOUS
10
0.102667
20
2.67938
11
0.112122
21
2.68974
0
LINE
8
BLACK
6
CONTINUOUS
10
0.112122
20
2.68974
11
0.122673
21
2.69897
0
LINE
8
BLACK
6
CONTINUOUS
10
0.122673
20
2.69897
11
0.134187
21
2.70698
0
LINE
8
BLACK
6
CONTINUOUS
10
0.134187
20
2.70698
11
0.146522
21
2.71365
0
LINE
8
BLACK
6
CONTINUOUS
10
0.146522
20
2.71365
11
0.159523
21
2.7189
0
LINE
8
BLACK
6
CONTINUOUS
10
0.159523
20
2.7189
11
0.173029
21
2.72267
0
LINE
8
BLACK
6
CONTINUOUS
10
0.173029
20
2.72267
11
0.186871
21
2.72491
0
LINE
8
BLACK
6
CONTINUOUS
10
0.186871
20
2.72491
11
0.200877
21
2.7256
0
LINE
8
BLACK
6
CONTINUOUS
10
0.200877
20
2.7256
11
0.214872
21
2.72472
0
LINE
8
BLACK
6
CONTINUOUS
10
0.214872
20
2.72472
11
0.228681
21
2.72228
0
LINE
8
BLACK
6
CONTINUOUS
10
0.228681
20
2.72228
11
0.242133
21
2.71832
0
LINE
8
BLACK
6
CONTINUOUS
10
0.242133
20
2.71832
11
0.255059
21
2.71289
0
LINE
8
BLACK
6
CONTINUOUS
10
0.255059
20
2.71289
11
0.2673
21
2.70605
0
LINE
8
BLACK
6
CONTINUOUS
10
0.2673
20
2.70605
11
0.278701
21
2.69788
0
LINE
8
BLACK
6
CONTINUOUS
10
0.278701
20
2.69788
11
0.289122
21
2.6885
0
LINE
8
BLACK
6
CONTINUOUS
10
0.289122
20
2.6885
11
0.298432
21
2.67802
0
LINE
8
BLACK
6
CONTINUOUS
10
0.298432
20
2.67802
11
0.306515
21
2.66656
0
LINE
8
BLACK
6
CONTINUOUS
10
0.306515
20
2.66656
11
0.31327
21
2.65427
0
LINE
8
BLACK
6
CONTINUOUS
10
0.31327
20
2.65427
11
0.318614
21
2.64131
0
LINE
8
BLACK
6
CONTINUOUS
10
0.318614
20
2.64131
11
0.322479
21
2.62783
0
LINE
8
BLACK
6
CONTINUOUS
10
0.322479
20
2.62783
11
0.324817
21
2.614
0
LINE
8
BLACK
6
CONTINUOUS
10
0.324817
20
2.614
11
0.3256
21
2.6
0
LINE
8
BLACK
6
CONTINUOUS
10
0.3256
20
2.6
11
0.325551
21
2.59649
0
LINE
8
BLACK
6
CONTINUOUS
10
0.325551
20
2.59649
11
0.324378
21
2.58252
0
LINE
8
BLACK
6
CONTINUOUS
10
0.324378
20
2.58252
11
0.321654
21
2.56876
0
LINE
8
BLACK
6
CONTINUOUS
10
0.321654
20
2.56876
11
0.317414
21
2.5554
0
LINE
8
BLACK
6
CONTINUOUS
10
0.317414
20
2.5554
11
0.311711
21
2.54259
0
LINE
8
BLACK
6
CONTINUOUS
10
0.311711
20
2.54259
11
0.304615
21
2.53049
0
LINE
8
BLACK
6
CONTINUOUS
10
0.304615
20
2.53049
11
0.296215
21
2.51927
0
LINE
8
BLACK
6
CONTINUOUS
10
0.296215
20
2.51927
11
0.286616
21
2.50904
0
LINE
8
BLACK
6
CONTINUOUS
10
0.286616
20
2.50904
11
0.275938
21
2.49996
0
LINE
8
BLACK
6
CONTINUOUS
10
0.275938
20
2.49996
11
0.264313
21
2.49211
0
LINE
8
BLACK
6
CONTINUOUS
10
0.264313
20
2.49211
11
0.251886
21
2.48562
0
LINE
8
BLACK
6
CONTINUOUS
10
0.251886
20
2.48562
11
0.238813
21
2.48055
0
LINE
8
BLACK
6
CONTINUOUS
10
0.238813
20
2.48055
11
0.225255
21
2.47697
0
LINE
8
BLACK
6
CONTINUOUS
10
0.225255
20
2.47697
11
0.211383
21
2.47492
0
LINE
8
BLACK
6
CONTINUOUS
10
0.211383
20
2.47492
11
0.19737
21
2.47443
0
LINE
8
BLACK
6
CONTINUOUS
10
0.19737
20
2.47443
11
0.183389
21
2.4755
0
LINE
8
BLACK
6
CONTINUOUS
10
0.183389
20
2.4755
11
0.169615
21
2.47813
0
LINE
8
BLACK
6
CONTINUOUS
10
0.169615
20
2.47813
11
0.156219
21
2.48228
0
LINE
8
BLACK
6
CONTINUOUS
10
0.156219
20
2.48228
11
0.14337
21
2.48789
0
LINE
8
BLACK
6
CONTINUOUS
10
0.14337
20
2.48789
11
0.131226
21
2.4949
0
LINE
8
BLACK
6
CONTINUOUS
10
0.131226
20
2.4949
11
0.11994
21
2.50322
0
LINE
8
BLACK
6
CONTINUOUS
10
0.11994
20
2.50322
11
0.109651
21
2.51275
0
LINE
8
BLACK
6
CONTINUOUS
10
0.109651
20
2.51275
11
0.100488
21
2.52337
0
LINE
8
BLACK
6
CONTINUOUS
10
0.100488
20
2.52337
11
0.0925663
21
2.53494
0
LINE
8
BLACK
6
CONTINUOUS
10
0.0925663
20
2.53494
11
0.0859831
21
2.54732
0
LINE
8
BLACK
6
CONTINUOUS
10
0.0859831
20
2.54732
11
0.0808212
21
2.56035
0
LINE
8
BLACK
6
CONTINUOUS
10
0.0808212
20
2.56035
11
0.0771446
21
2.57389
0
LINE
8
BLACK
6
CONTINUOUS
10
0.0771446
20
2.57389
11
0.0749994
21
2.58774
0
LINE
8
BLACK
6
CONTINUOUS
10
0.0749994
20
2.58774
11
0.0744122
21
2.60175
0
LINE
8
BLACK
6
CONTINUOUS
10
0.0744122
20
2.60175
11
0.074533
21
2.60348
0
LINE
8
BLACK
6
CONTINUOUS
10
0.074533
20
2.60348
11
0.0753904
21
2.61574
0
LINE
8
BLACK
6
CONTINUOUS
10
0.0753904
20
2.61574
11
0.0779217
21
2.62953
0
LINE
8
BLACK
6
CONTINUOUS
10
0.0913983
20
2.5781
11
0.0946349
21
2.56576
0
LINE
8
BLACK
6
CONTINUOUS
10
0.0946349
20
2.56576
11
0.0992681
21
2.55388
0
LINE
8
BLACK
6
CONTINUOUS
10
0.0992681
20
2.55388
11
0.105236
21
2.54261
0
LINE
8
BLACK
6
CONTINUOUS
10
0.105236
20
2.54261
11
0.112461
21
2.5321
0
LINE
8
BLACK
6
CONTINUOUS
10
0.112461
20
2.5321
11
0.120845
21
2.52249
0
LINE
8
BLACK
6
CONTINUOUS
10
0.120845
20
2.52249
11
0.130279
21
2.5139
0
LINE
8
BLACK
6
CONTINUOUS
10
0.130279
20
2.5139
11
0.140637
21
2.50646
0
LINE
8
BLACK
6
CONTINUOUS
10
0.140637
20
2.50646
11
0.151782
21
2.50026
0
LINE
8
BLACK
6
CONTINUOUS
10
0.151782
20
2.50026
11
0.163566
21
2.49537
0
LINE
8
BLACK
6
CONTINUOUS
10
0.163566
20
2.49537
11
0.175832
21
2.49188
0
LINE
8
BLACK
6
CONTINUOUS
10
0.175832
20
2.49188
11
0.18842
21
2.48982
0
LINE
8
BLACK
6
CONTINUOUS
10
0.18842
20
2.48982
11
0.20116
21
2.48922
0
LINE
8
BLACK
6
CONTINUOUS
10
0.20116
20
2.48922
11
0.213885
21
2.49009
0
LINE
8
BLACK
6
CONTINUOUS
10
0.213885
20
2.49009
11
0.226426
21
2.49241
0
LINE
8
BLACK
6
CONTINUOUS
10
0.226426
20
2.49241
11
0.238617
21
2.49616
0
LINE
8
BLACK
6
CONTINUOUS
10
0.238617
20
2.49616
11
0.250296
21
2.50129
0
LINE
8
BLACK
6
CONTINUOUS
10
0.250296
20
2.50129
11
0.261309
21
2.50772
0
LINE
8
BLACK
6
CONTINUOUS
10
0.261309
20
2.50772
11
0.271509
21
2.51538
0
LINE
8
BLACK
6
CONTINUOUS
10
0.271509
20
2.51538
11
0.280761
21
2.52416
0
LINE
8
BLACK
6
CONTINUOUS
10
0.280761
20
2.52416
11
0.288942
21
2.53395
0
LINE
8
BLACK
6
CONTINUOUS
10
0.288942
20
2.53395
11
0.295945
21
2.54461
0
LINE
8
BLACK
6
CONTINUOUS
10
0.295945
20
2.54461
11
0.301676
21
2.556
0
LINE
8
BLACK
6
CONTINUOUS
10
0.301676
20
2.556
11
0.306059
21
2.56798
0
LINE
8
BLACK
6
CONTINUOUS
10
0.306059
20
2.56798
11
0.309036
21
2.58038
0
LINE
8
BLACK
6
CONTINUOUS
10
0.309036
20
2.58038
11
0.310569
21
2.59304
0
LINE
8
BLACK
6
CONTINUOUS
10
0.310569
20
2.59304
11
0.310787
21
2.6
0
LINE
8
BLACK
6
CONTINUOUS
10
0.310787
20
2.6
11
0.310053
21
2.61273
0
LINE
8
BLACK
6
CONTINUOUS
10
0.310053
20
2.61273
11
0.30786
21
2.6253
0
LINE
8
BLACK
6
CONTINUOUS
10
0.30786
20
2.6253
11
0.304238
21
2.63753
0
LINE
8
BLACK
6
CONTINUOUS
10
0.304238
20
2.63753
11
0.299234
21
2.64926
0
LINE
8
BLACK
6
CONTINUOUS
10
0.299234
20
2.64926
11
0.292914
21
2.66034
0
LINE
8
BLACK
6
CONTINUOUS
10
0.292914
20
2.66034
11
0.285363
21
2.67062
0
LINE
8
BLACK
6
CONTINUOUS
10
0.285363
20
2.67062
11
0.276681
21
2.67996
0
LINE
8
BLACK
6
CONTINUOUS
10
0.276681
20
2.67996
11
0.266982
21
2.68825
0
LINE
8
BLACK
6
CONTINUOUS
10
0.266982
20
2.68825
11
0.256395
21
2.69536
0
LINE
8
BLACK
6
CONTINUOUS
10
0.256395
20
2.69536
11
0.245061
21
2.70121
0
LINE
8
BLACK
6
CONTINUOUS
10
0.245061
20
2.70121
11
0.23313
21
2.70572
0
LINE
8
BLACK
6
CONTINUOUS
10
0.23313
20
2.70572
11
0.220759
21
2.70883
0
LINE
8
BLACK
6
CONTINUOUS
10
0.220759
20
2.70883
11
0.208114
21
2.71049
0
LINE
8
BLACK
6
CONTINUOUS
10
0.208114
20
2.71049
11
0.195361
21
2.71069
0
LINE
8
BLACK
6
CONTINUOUS
10
0.195361
20
2.71069
11
0.182669
21
2.70942
0
LINE
8
BLACK
6
CONTINUOUS
10
0.182669
20
2.70942
11
0.170207
21
2.70671
0
LINE
8
BLACK
6
CONTINUOUS
10
0.170207
20
2.70671
11
0.15814
21
2.70257
0
LINE
8
BLACK
6
CONTINUOUS
10
0.15814
20
2.70257
11
0.146628
21
2.69708
0
LINE
8
BLACK
6
CONTINUOUS
10
0.146628
20
2.69708
11
0.135823
21
2.69031
0
LINE
8
BLACK
6
CONTINUOUS
10
0.135823
20
2.69031
11
0.125869
21
2.68233
0
LINE
8
BLACK
6
CONTINUOUS
10
0.125869
20
2.68233
11
0.116897
21
2.67327
0
LINE
8
BLACK
6
CONTINUOUS
10
0.116897
20
2.67327
11
0.109027
21
2.66323
0
LINE
8
BLACK
6
CONTINUOUS
10
0.109027
20
2.66323
11
0.102363
21
2.65235
0
LINE
8
BLACK
6
CONTINUOUS
10
0.102363
20
2.65235
11
0.0969924
21
2.64078
0
LINE
8
BLACK
6
CONTINUOUS
10
0.0969924
20
2.64078
11
0.0929876
21
2.62867
0
LINE
8
BLACK
6
CONTINUOUS
10
0.0929876
20
2.62867
11
0.0904011
21
2.61618
0
LINE
8
BLACK
6
CONTINUOUS
10
0.0904011
20
2.61618
11
0.0892672
21
2.60348
0
LINE
8
BLACK
6
CONTINUOUS
10
0.0892672
20
2.60348
11
0.0896011
21
2.59073
0
LINE
8
BLACK
6
CONTINUOUS
10
0.0896011
20
2.59073
11
0.0913983
21
2.5781
  0
ENDSEC
  0
EOF
