  0
SECTION
  2
HEADER
  9
$ANGBASE
  50
0.0
  9
$ANGDIR
  70
1
  9
$MEASUREMENT
  70
0
  0
ENDSEC
  0
SECTION
  2
TABLES
  0
TABLE
  2
LTYPE
  70
4
  0
LTYPE
  5
40F
  2
CONTINUOUS
  70
0
  3
Solid line
  72
65
  73
0
  40
0.0
  0
LTYPE
  5
410
  2
DASHDOT
 70
0
  3
Dash Dot ____ _ ____ _
 72
65
 73
4
 40
2.0
 49
1.25
 49
-0.25
 49
0.25
 49
-0.25
  0
LTYPE
  5
411
  2
DASHED
 70
0
  3
Dashed __ __ __ __ __
 72
65
 73
2
 40
0.75
 49
0.5
 49
-0.25
  0
LTYPE
  5
43B
  2
DOTTED
 70
0
  3
Dotted .  .  .  .
 72
65
 73
2
 40
0.2
 49
0.0
 49
-0.2
  0
ENDTAB
  0
TABLE
  2
STYLE
  70
4
  0
STYLE
  2
KICAD
  70
0
  40
0
  41
1
  42
1
  50
0
  71
0
  3
isocp.shx
  0
STYLE
  2
KICADB
  70
0
  40
0
  41
1
  42
1
  50
0
  71
0
  3
isocp.shx
  0
STYLE
  2
KICADI
  70
0
  40
0
  41
1
  42
1
  50
15
  71
0
  3
isocp.shx
  0
STYLE
  2
KICADBI
  70
0
  40
0
  41
1
  42
1
  50
15
  71
0
  3
isocp.shx
  0
ENDTAB
  0
TABLE
  2
LAYER
  70
1
  0
LAYER
  2
BLACK
  70
0
  62
7
  6
CONTINUOUS
  0
ENDTAB
  0
ENDSEC
  0
SECTION
  2
ENTITIES
0
LINE
8
BLACK
6
CONTINUOUS
10
0.862532
20
0.346469
11
0.862244
21
0.347165
0
LINE
8
BLACK
6
CONTINUOUS
10
0.862244
20
0.347165
11
0.862244
21
0.592835
0
LINE
8
BLACK
6
CONTINUOUS
10
0.862244
20
0.592835
11
0.862532
21
0.593531
0
LINE
8
BLACK
6
CONTINUOUS
10
0.862532
20
0.593531
11
0.863228
21
0.593819
0
LINE
8
BLACK
6
CONTINUOUS
10
0.863228
20
0.593819
11
1.01677
21
0.593819
0
LINE
8
BLACK
6
CONTINUOUS
10
1.01677
20
0.593819
11
1.01747
21
0.593531
0
LINE
8
BLACK
6
CONTINUOUS
10
1.01747
20
0.593531
11
1.01776
21
0.592835
0
LINE
8
BLACK
6
CONTINUOUS
10
1.01776
20
0.592835
11
1.01776
21
0.347165
0
LINE
8
BLACK
6
CONTINUOUS
10
1.01776
20
0.347165
11
1.01747
21
0.346469
0
LINE
8
BLACK
6
CONTINUOUS
10
1.01747
20
0.346469
11
1.01677
21
0.346181
0
LINE
8
BLACK
6
CONTINUOUS
10
1.01677
20
0.346181
11
0.863228
21
0.346181
0
LINE
8
BLACK
6
CONTINUOUS
10
0.863228
20
0.346181
11
0.862532
21
0.346469
0
LINE
8
BLACK
6
CONTINUOUS
10
0.864213
20
0.59185
11
0.864213
21
0.34815
0
LINE
8
BLACK
6
CONTINUOUS
10
0.864213
20
0.34815
11
1.01579
21
0.34815
0
LINE
8
BLACK
6
CONTINUOUS
10
1.01579
20
0.34815
11
1.01579
21
0.59185
0
LINE
8
BLACK
6
CONTINUOUS
10
1.01579
20
0.59185
11
0.864213
21
0.59185
0
LINE
8
BLACK
6
CONTINUOUS
10
1.96237
20
0.500721
11
1.96209
21
0.501417
0
LINE
8
BLACK
6
CONTINUOUS
10
1.96209
20
0.501417
11
1.96209
21
0.578583
0
LINE
8
BLACK
6
CONTINUOUS
10
1.96209
20
0.578583
11
1.96237
21
0.579279
0
LINE
8
BLACK
6
CONTINUOUS
10
1.96237
20
0.579279
11
1.96307
21
0.579567
0
LINE
8
BLACK
6
CONTINUOUS
10
1.96307
20
0.579567
11
2.09693
21
0.579567
0
LINE
8
BLACK
6
CONTINUOUS
10
2.09693
20
0.579567
11
2.09763
21
0.579279
0
LINE
8
BLACK
6
CONTINUOUS
10
2.09763
20
0.579279
11
2.09791
21
0.578583
0
LINE
8
BLACK
6
CONTINUOUS
10
2.09791
20
0.578583
11
2.09791
21
0.501417
0
LINE
8
BLACK
6
CONTINUOUS
10
2.09791
20
0.501417
11
2.09763
21
0.500721
0
LINE
8
BLACK
6
CONTINUOUS
10
2.09763
20
0.500721
11
2.09693
21
0.500433
0
LINE
8
BLACK
6
CONTINUOUS
10
2.09693
20
0.500433
11
1.96307
21
0.500433
0
LINE
8
BLACK
6
CONTINUOUS
10
1.96307
20
0.500433
11
1.96237
21
0.500721
0
LINE
8
BLACK
6
CONTINUOUS
10
1.96406
20
0.577598
11
1.96406
21
0.502402
0
LINE
8
BLACK
6
CONTINUOUS
10
1.96406
20
0.502402
11
2.09594
21
0.502402
0
LINE
8
BLACK
6
CONTINUOUS
10
2.09594
20
0.502402
11
2.09594
21
0.577598
0
LINE
8
BLACK
6
CONTINUOUS
10
2.09594
20
0.577598
11
1.96406
21
0.577598
0
LINE
8
BLACK
6
CONTINUOUS
10
2.51737
20
0.690721
11
2.51709
21
0.691417
0
LINE
8
BLACK
6
CONTINUOUS
10
2.51709
20
0.691417
11
2.51709
21
0.768583
0
LINE
8
BLACK
6
CONTINUOUS
10
2.51709
20
0.768583
11
2.51737
21
0.769279
0
LINE
8
BLACK
6
CONTINUOUS
10
2.51737
20
0.769279
11
2.51807
21
0.769567
0
LINE
8
BLACK
6
CONTINUOUS
10
2.51807
20
0.769567
11
2.65193
21
0.769567
0
LINE
8
BLACK
6
CONTINUOUS
10
2.65193
20
0.769567
11
2.65263
21
0.769279
0
LINE
8
BLACK
6
CONTINUOUS
10
2.65263
20
0.769279
11
2.65291
21
0.768583
0
LINE
8
BLACK
6
CONTINUOUS
10
2.65291
20
0.768583
11
2.65291
21
0.691417
0
LINE
8
BLACK
6
CONTINUOUS
10
2.65291
20
0.691417
11
2.65263
21
0.690721
0
LINE
8
BLACK
6
CONTINUOUS
10
2.65263
20
0.690721
11
2.65193
21
0.690433
0
LINE
8
BLACK
6
CONTINUOUS
10
2.65193
20
0.690433
11
2.51807
21
0.690433
0
LINE
8
BLACK
6
CONTINUOUS
10
2.51807
20
0.690433
11
2.51737
21
0.690721
0
LINE
8
BLACK
6
CONTINUOUS
10
2.51906
20
0.767598
11
2.51906
21
0.692402
0
LINE
8
BLACK
6
CONTINUOUS
10
2.51906
20
0.692402
11
2.65094
21
0.692402
0
LINE
8
BLACK
6
CONTINUOUS
10
2.65094
20
0.692402
11
2.65094
21
0.767598
0
LINE
8
BLACK
6
CONTINUOUS
10
2.65094
20
0.767598
11
2.51906
21
0.767598
0
LINE
8
BLACK
6
CONTINUOUS
10
2.36724
20
0.691902
11
2.36695
21
0.692598
0
LINE
8
BLACK
6
CONTINUOUS
10
2.36695
20
0.692598
11
2.36695
21
0.767402
0
LINE
8
BLACK
6
CONTINUOUS
10
2.36695
20
0.767402
11
2.36724
21
0.768098
0
LINE
8
BLACK
6
CONTINUOUS
10
2.36724
20
0.768098
11
2.36793
21
0.768386
0
LINE
8
BLACK
6
CONTINUOUS
10
2.36793
20
0.768386
11
2.50022
21
0.768386
0
LINE
8
BLACK
6
CONTINUOUS
10
2.50022
20
0.768386
11
2.50091
21
0.768098
0
LINE
8
BLACK
6
CONTINUOUS
10
2.50091
20
0.768098
11
2.5012
21
0.767402
0
LINE
8
BLACK
6
CONTINUOUS
10
2.5012
20
0.767402
11
2.5012
21
0.692598
0
LINE
8
BLACK
6
CONTINUOUS
10
2.5012
20
0.692598
11
2.50091
21
0.691902
0
LINE
8
BLACK
6
CONTINUOUS
10
2.50091
20
0.691902
11
2.50022
21
0.691614
0
LINE
8
BLACK
6
CONTINUOUS
10
2.50022
20
0.691614
11
2.36793
21
0.691614
0
LINE
8
BLACK
6
CONTINUOUS
10
2.36793
20
0.691614
11
2.36724
21
0.691902
0
LINE
8
BLACK
6
CONTINUOUS
10
2.36892
20
0.766417
11
2.36892
21
0.693583
0
LINE
8
BLACK
6
CONTINUOUS
10
2.36892
20
0.693583
11
2.49923
21
0.693583
0
LINE
8
BLACK
6
CONTINUOUS
10
2.49923
20
0.693583
11
2.49923
21
0.766417
0
LINE
8
BLACK
6
CONTINUOUS
10
2.49923
20
0.766417
11
2.36892
21
0.766417
0
LINE
8
BLACK
6
CONTINUOUS
10
2.71316
20
0.691902
11
2.71287
21
0.692598
0
LINE
8
BLACK
6
CONTINUOUS
10
2.71287
20
0.692598
11
2.71287
21
0.767402
0
LINE
8
BLACK
6
CONTINUOUS
10
2.71287
20
0.767402
11
2.71316
21
0.768098
0
LINE
8
BLACK
6
CONTINUOUS
10
2.71316
20
0.768098
11
2.71386
21
0.768386
0
LINE
8
BLACK
6
CONTINUOUS
10
2.71386
20
0.768386
11
2.84614
21
0.768386
0
LINE
8
BLACK
6
CONTINUOUS
10
2.84614
20
0.768386
11
2.84684
21
0.768098
0
LINE
8
BLACK
6
CONTINUOUS
10
2.84684
20
0.768098
11
2.84713
21
0.767402
0
LINE
8
BLACK
6
CONTINUOUS
10
2.84713
20
0.767402
11
2.84713
21
0.692598
0
LINE
8
BLACK
6
CONTINUOUS
10
2.84713
20
0.692598
11
2.84684
21
0.691902
0
LINE
8
BLACK
6
CONTINUOUS
10
2.84684
20
0.691902
11
2.84614
21
0.691614
0
LINE
8
BLACK
6
CONTINUOUS
10
2.84614
20
0.691614
11
2.71386
21
0.691614
0
LINE
8
BLACK
6
CONTINUOUS
10
2.71386
20
0.691614
11
2.71316
21
0.691902
0
LINE
8
BLACK
6
CONTINUOUS
10
2.71484
20
0.766417
11
2.71484
21
0.693583
0
LINE
8
BLACK
6
CONTINUOUS
10
2.71484
20
0.693583
11
2.84516
21
0.693583
0
LINE
8
BLACK
6
CONTINUOUS
10
2.84516
20
0.693583
11
2.84516
21
0.766417
0
LINE
8
BLACK
6
CONTINUOUS
10
2.84516
20
0.766417
11
2.71484
21
0.766417
0
LINE
8
BLACK
6
CONTINUOUS
10
2.98316
20
0.806902
11
2.98287
21
0.807598
0
LINE
8
BLACK
6
CONTINUOUS
10
2.98287
20
0.807598
11
2.98287
21
0.882402
0
LINE
8
BLACK
6
CONTINUOUS
10
2.98287
20
0.882402
11
2.98316
21
0.883098
0
LINE
8
BLACK
6
CONTINUOUS
10
2.98316
20
0.883098
11
2.98386
21
0.883386
0
LINE
8
BLACK
6
CONTINUOUS
10
2.98386
20
0.883386
11
3.11614
21
0.883386
0
LINE
8
BLACK
6
CONTINUOUS
10
3.11614
20
0.883386
11
3.11684
21
0.883098
0
LINE
8
BLACK
6
CONTINUOUS
10
3.11684
20
0.883098
11
3.11713
21
0.882402
0
LINE
8
BLACK
6
CONTINUOUS
10
3.11713
20
0.882402
11
3.11713
21
0.807598
0
LINE
8
BLACK
6
CONTINUOUS
10
3.11713
20
0.807598
11
3.11684
21
0.806902
0
LINE
8
BLACK
6
CONTINUOUS
10
3.11684
20
0.806902
11
3.11614
21
0.806614
0
LINE
8
BLACK
6
CONTINUOUS
10
3.11614
20
0.806614
11
2.98386
21
0.806614
0
LINE
8
BLACK
6
CONTINUOUS
10
2.98386
20
0.806614
11
2.98316
21
0.806902
0
LINE
8
BLACK
6
CONTINUOUS
10
2.98484
20
0.881417
11
2.98484
21
0.808583
0
LINE
8
BLACK
6
CONTINUOUS
10
2.98484
20
0.808583
11
3.11516
21
0.808583
0
LINE
8
BLACK
6
CONTINUOUS
10
3.11516
20
0.808583
11
3.11516
21
0.881417
0
LINE
8
BLACK
6
CONTINUOUS
10
3.11516
20
0.881417
11
2.98484
21
0.881417
0
LINE
8
BLACK
6
CONTINUOUS
10
0.259087
20
0.810721
11
0.258799
21
0.811417
0
LINE
8
BLACK
6
CONTINUOUS
10
0.258799
20
0.811417
11
0.258799
21
0.88622
0
LINE
8
BLACK
6
CONTINUOUS
10
0.258799
20
0.88622
11
0.259087
21
0.886916
0
LINE
8
BLACK
6
CONTINUOUS
10
0.259087
20
0.886916
11
0.259783
21
0.887205
0
LINE
8
BLACK
6
CONTINUOUS
10
0.259783
20
0.887205
11
0.392067
21
0.887205
0
LINE
8
BLACK
6
CONTINUOUS
10
0.392067
20
0.887205
11
0.392763
21
0.886916
0
LINE
8
BLACK
6
CONTINUOUS
10
0.392763
20
0.886916
11
0.393051
21
0.88622
0
LINE
8
BLACK
6
CONTINUOUS
10
0.393051
20
0.88622
11
0.393051
21
0.811417
0
LINE
8
BLACK
6
CONTINUOUS
10
0.393051
20
0.811417
11
0.392763
21
0.810721
0
LINE
8
BLACK
6
CONTINUOUS
10
0.392763
20
0.810721
11
0.392067
21
0.810433
0
LINE
8
BLACK
6
CONTINUOUS
10
0.392067
20
0.810433
11
0.259783
21
0.810433
0
LINE
8
BLACK
6
CONTINUOUS
10
0.259783
20
0.810433
11
0.259087
21
0.810721
0
LINE
8
BLACK
6
CONTINUOUS
10
0.260768
20
0.885236
11
0.260768
21
0.812402
0
LINE
8
BLACK
6
CONTINUOUS
10
0.260768
20
0.812402
11
0.391083
21
0.812402
0
LINE
8
BLACK
6
CONTINUOUS
10
0.391083
20
0.812402
11
0.391083
21
0.885236
0
LINE
8
BLACK
6
CONTINUOUS
10
0.391083
20
0.885236
11
0.260768
21
0.885236
0
LINE
8
BLACK
6
CONTINUOUS
10
2.54773
20
0.820406
11
2.54744
21
0.821102
0
LINE
8
BLACK
6
CONTINUOUS
10
2.54744
20
0.821102
11
2.54744
21
0.958898
0
LINE
8
BLACK
6
CONTINUOUS
10
2.54744
20
0.958898
11
2.54773
21
0.959594
0
LINE
8
BLACK
6
CONTINUOUS
10
2.54773
20
0.959594
11
2.54843
21
0.959882
0
LINE
8
BLACK
6
CONTINUOUS
10
2.54843
20
0.959882
11
2.85157
21
0.959882
0
LINE
8
BLACK
6
CONTINUOUS
10
2.85157
20
0.959882
11
2.85227
21
0.959594
0
LINE
8
BLACK
6
CONTINUOUS
10
2.85227
20
0.959594
11
2.85256
21
0.958898
0
LINE
8
BLACK
6
CONTINUOUS
10
2.85256
20
0.958898
11
2.85256
21
0.821102
0
LINE
8
BLACK
6
CONTINUOUS
10
2.85256
20
0.821102
11
2.85227
21
0.820406
0
LINE
8
BLACK
6
CONTINUOUS
10
2.85227
20
0.820406
11
2.85157
21
0.820118
0
LINE
8
BLACK
6
CONTINUOUS
10
2.85157
20
0.820118
11
2.54843
21
0.820118
0
LINE
8
BLACK
6
CONTINUOUS
10
2.54843
20
0.820118
11
2.54773
21
0.820406
0
LINE
8
BLACK
6
CONTINUOUS
10
2.54941
20
0.957913
11
2.54941
21
0.822087
0
LINE
8
BLACK
6
CONTINUOUS
10
2.54941
20
0.822087
11
2.85059
21
0.822087
0
LINE
8
BLACK
6
CONTINUOUS
10
2.85059
20
0.822087
11
2.85059
21
0.957913
0
LINE
8
BLACK
6
CONTINUOUS
10
2.85059
20
0.957913
11
2.54941
21
0.957913
0
LINE
8
BLACK
6
CONTINUOUS
10
2.88572
20
0.822375
11
2.88543
21
0.823071
0
LINE
8
BLACK
6
CONTINUOUS
10
2.88543
20
0.823071
11
2.88543
21
0.956929
0
LINE
8
BLACK
6
CONTINUOUS
10
2.88543
20
0.956929
11
2.88572
21
0.957625
0
LINE
8
BLACK
6
CONTINUOUS
10
2.88572
20
0.957625
11
2.88642
21
0.957913
0
LINE
8
BLACK
6
CONTINUOUS
10
2.88642
20
0.957913
11
2.96358
21
0.957913
0
LINE
8
BLACK
6
CONTINUOUS
10
2.96358
20
0.957913
11
2.96428
21
0.957625
0
LINE
8
BLACK
6
CONTINUOUS
10
2.96428
20
0.957625
11
2.96457
21
0.956929
0
LINE
8
BLACK
6
CONTINUOUS
10
2.96457
20
0.956929
11
2.96457
21
0.823071
0
LINE
8
BLACK
6
CONTINUOUS
10
2.96457
20
0.823071
11
2.96428
21
0.822375
0
LINE
8
BLACK
6
CONTINUOUS
10
2.96428
20
0.822375
11
2.96358
21
0.822087
0
LINE
8
BLACK
6
CONTINUOUS
10
2.96358
20
0.822087
11
2.88642
21
0.822087
0
LINE
8
BLACK
6
CONTINUOUS
10
2.88642
20
0.822087
11
2.88572
21
0.822375
0
LINE
8
BLACK
6
CONTINUOUS
10
2.8874
20
0.955945
11
2.8874
21
0.824055
0
LINE
8
BLACK
6
CONTINUOUS
10
2.8874
20
0.824055
11
2.9626
21
0.824055
0
LINE
8
BLACK
6
CONTINUOUS
10
2.9626
20
0.824055
11
2.9626
21
0.955945
0
LINE
8
BLACK
6
CONTINUOUS
10
2.9626
20
0.955945
11
2.8874
21
0.955945
0
LINE
8
BLACK
6
CONTINUOUS
10
2.37041
20
0.831509
11
2.37012
21
0.832205
0
LINE
8
BLACK
6
CONTINUOUS
10
2.37012
20
0.832205
11
2.37012
21
1.1078
0
LINE
8
BLACK
6
CONTINUOUS
10
2.37012
20
1.1078
11
2.37041
21
1.10849
0
LINE
8
BLACK
6
CONTINUOUS
10
2.37041
20
1.10849
11
2.3711
21
1.10878
0
LINE
8
BLACK
6
CONTINUOUS
10
2.3711
20
1.10878
11
2.5089
21
1.10878
0
LINE
8
BLACK
6
CONTINUOUS
10
2.5089
20
1.10878
11
2.50959
21
1.10849
0
LINE
8
BLACK
6
CONTINUOUS
10
2.50959
20
1.10849
11
2.50988
21
1.1078
0
LINE
8
BLACK
6
CONTINUOUS
10
2.50988
20
1.1078
11
2.50988
21
0.832205
0
LINE
8
BLACK
6
CONTINUOUS
10
2.50988
20
0.832205
11
2.50959
21
0.831509
0
LINE
8
BLACK
6
CONTINUOUS
10
2.50959
20
0.831509
11
2.5089
21
0.83122
0
LINE
8
BLACK
6
CONTINUOUS
10
2.5089
20
0.83122
11
2.3711
21
0.83122
0
LINE
8
BLACK
6
CONTINUOUS
10
2.3711
20
0.83122
11
2.37041
21
0.831509
0
LINE
8
BLACK
6
CONTINUOUS
10
2.37209
20
1.10681
11
2.37209
21
0.833189
0
LINE
8
BLACK
6
CONTINUOUS
10
2.37209
20
0.833189
11
2.50791
21
0.833189
0
LINE
8
BLACK
6
CONTINUOUS
10
2.50791
20
0.833189
11
2.50791
21
1.10681
0
LINE
8
BLACK
6
CONTINUOUS
10
2.50791
20
1.10681
11
2.37209
21
1.10681
0
LINE
8
BLACK
6
CONTINUOUS
10
2.98316
20
0.896902
11
2.98287
21
0.897598
0
LINE
8
BLACK
6
CONTINUOUS
10
2.98287
20
0.897598
11
2.98287
21
0.972402
0
LINE
8
BLACK
6
CONTINUOUS
10
2.98287
20
0.972402
11
2.98316
21
0.973098
0
LINE
8
BLACK
6
CONTINUOUS
10
2.98316
20
0.973098
11
2.98386
21
0.973386
0
LINE
8
BLACK
6
CONTINUOUS
10
2.98386
20
0.973386
11
3.11614
21
0.973386
0
LINE
8
BLACK
6
CONTINUOUS
10
3.11614
20
0.973386
11
3.11684
21
0.973098
0
LINE
8
BLACK
6
CONTINUOUS
10
3.11684
20
0.973098
11
3.11713
21
0.972402
0
LINE
8
BLACK
6
CONTINUOUS
10
3.11713
20
0.972402
11
3.11713
21
0.897598
0
LINE
8
BLACK
6
CONTINUOUS
10
3.11713
20
0.897598
11
3.11684
21
0.896902
0
LINE
8
BLACK
6
CONTINUOUS
10
3.11684
20
0.896902
11
3.11614
21
0.896614
0
LINE
8
BLACK
6
CONTINUOUS
10
3.11614
20
0.896614
11
2.98386
21
0.896614
0
LINE
8
BLACK
6
CONTINUOUS
10
2.98386
20
0.896614
11
2.98316
21
0.896902
0
LINE
8
BLACK
6
CONTINUOUS
10
2.98484
20
0.971417
11
2.98484
21
0.898583
0
LINE
8
BLACK
6
CONTINUOUS
10
2.98484
20
0.898583
11
3.11516
21
0.898583
0
LINE
8
BLACK
6
CONTINUOUS
10
3.11516
20
0.898583
11
3.11516
21
0.971417
0
LINE
8
BLACK
6
CONTINUOUS
10
3.11516
20
0.971417
11
2.98484
21
0.971417
0
LINE
8
BLACK
6
CONTINUOUS
10
0.259087
20
0.968202
11
0.258799
21
0.968898
0
LINE
8
BLACK
6
CONTINUOUS
10
0.258799
20
0.968898
11
0.258799
21
1.0437
0
LINE
8
BLACK
6
CONTINUOUS
10
0.258799
20
1.0437
11
0.259087
21
1.0444
0
LINE
8
BLACK
6
CONTINUOUS
10
0.259087
20
1.0444
11
0.259783
21
1.04469
0
LINE
8
BLACK
6
CONTINUOUS
10
0.259783
20
1.04469
11
0.392067
21
1.04469
0
LINE
8
BLACK
6
CONTINUOUS
10
0.392067
20
1.04469
11
0.392763
21
1.0444
0
LINE
8
BLACK
6
CONTINUOUS
10
0.392763
20
1.0444
11
0.393051
21
1.0437
0
LINE
8
BLACK
6
CONTINUOUS
10
0.393051
20
1.0437
11
0.393051
21
0.968898
0
LINE
8
BLACK
6
CONTINUOUS
10
0.393051
20
0.968898
11
0.392763
21
0.968202
0
LINE
8
BLACK
6
CONTINUOUS
10
0.392763
20
0.968202
11
0.392067
21
0.967913
0
LINE
8
BLACK
6
CONTINUOUS
10
0.392067
20
0.967913
11
0.259783
21
0.967913
0
LINE
8
BLACK
6
CONTINUOUS
10
0.259783
20
0.967913
11
0.259087
21
0.968202
0
LINE
8
BLACK
6
CONTINUOUS
10
0.260768
20
1.04272
11
0.260768
21
0.969882
0
LINE
8
BLACK
6
CONTINUOUS
10
0.260768
20
0.969882
11
0.391083
21
0.969882
0
LINE
8
BLACK
6
CONTINUOUS
10
0.391083
20
0.969882
11
0.391083
21
1.04272
0
LINE
8
BLACK
6
CONTINUOUS
10
0.391083
20
1.04272
11
0.260768
21
1.04272
0
LINE
8
BLACK
6
CONTINUOUS
10
2.81237
20
0.980721
11
2.81209
21
0.981417
0
LINE
8
BLACK
6
CONTINUOUS
10
2.81209
20
0.981417
11
2.81209
21
1.05858
0
LINE
8
BLACK
6
CONTINUOUS
10
2.81209
20
1.05858
11
2.81237
21
1.05928
0
LINE
8
BLACK
6
CONTINUOUS
10
2.81237
20
1.05928
11
2.81307
21
1.05957
0
LINE
8
BLACK
6
CONTINUOUS
10
2.81307
20
1.05957
11
2.94693
21
1.05957
0
LINE
8
BLACK
6
CONTINUOUS
10
2.94693
20
1.05957
11
2.94763
21
1.05928
0
LINE
8
BLACK
6
CONTINUOUS
10
2.94763
20
1.05928
11
2.94791
21
1.05858
0
LINE
8
BLACK
6
CONTINUOUS
10
2.94791
20
1.05858
11
2.94791
21
0.981417
0
LINE
8
BLACK
6
CONTINUOUS
10
2.94791
20
0.981417
11
2.94763
21
0.980721
0
LINE
8
BLACK
6
CONTINUOUS
10
2.94763
20
0.980721
11
2.94693
21
0.980433
0
LINE
8
BLACK
6
CONTINUOUS
10
2.94693
20
0.980433
11
2.81307
21
0.980433
0
LINE
8
BLACK
6
CONTINUOUS
10
2.81307
20
0.980433
11
2.81237
21
0.980721
0
LINE
8
BLACK
6
CONTINUOUS
10
2.81406
20
1.0576
11
2.81406
21
0.982402
0
LINE
8
BLACK
6
CONTINUOUS
10
2.81406
20
0.982402
11
2.94594
21
0.982402
0
LINE
8
BLACK
6
CONTINUOUS
10
2.94594
20
0.982402
11
2.94594
21
1.0576
0
LINE
8
BLACK
6
CONTINUOUS
10
2.94594
20
1.0576
11
2.81406
21
1.0576
0
LINE
8
BLACK
6
CONTINUOUS
10
2.7119
20
1.02909
11
2.71161
21
1.02978
0
LINE
8
BLACK
6
CONTINUOUS
10
2.71161
20
1.02978
11
2.71161
21
1.16207
0
LINE
8
BLACK
6
CONTINUOUS
10
2.71161
20
1.16207
11
2.7119
21
1.16276
0
LINE
8
BLACK
6
CONTINUOUS
10
2.7119
20
1.16276
11
2.7126
21
1.16305
0
LINE
8
BLACK
6
CONTINUOUS
10
2.7126
20
1.16305
11
2.7874
21
1.16305
0
LINE
8
BLACK
6
CONTINUOUS
10
2.7874
20
1.16305
11
2.7881
21
1.16276
0
LINE
8
BLACK
6
CONTINUOUS
10
2.7881
20
1.16276
11
2.78839
21
1.16207
0
LINE
8
BLACK
6
CONTINUOUS
10
2.78839
20
1.16207
11
2.78839
21
1.02978
0
LINE
8
BLACK
6
CONTINUOUS
10
2.78839
20
1.02978
11
2.7881
21
1.02909
0
LINE
8
BLACK
6
CONTINUOUS
10
2.7881
20
1.02909
11
2.7874
21
1.0288
0
LINE
8
BLACK
6
CONTINUOUS
10
2.7874
20
1.0288
11
2.7126
21
1.0288
0
LINE
8
BLACK
6
CONTINUOUS
10
2.7126
20
1.0288
11
2.7119
21
1.02909
0
LINE
8
BLACK
6
CONTINUOUS
10
2.71358
20
1.16108
11
2.71358
21
1.03077
0
LINE
8
BLACK
6
CONTINUOUS
10
2.71358
20
1.03077
11
2.78642
21
1.03077
0
LINE
8
BLACK
6
CONTINUOUS
10
2.78642
20
1.03077
11
2.78642
21
1.16108
0
LINE
8
BLACK
6
CONTINUOUS
10
2.78642
20
1.16108
11
2.71358
21
1.16108
0
LINE
8
BLACK
6
CONTINUOUS
10
2.56237
20
1.03572
11
2.56209
21
1.03642
0
LINE
8
BLACK
6
CONTINUOUS
10
2.56209
20
1.03642
11
2.56209
21
1.11358
0
LINE
8
BLACK
6
CONTINUOUS
10
2.56209
20
1.11358
11
2.56237
21
1.11428
0
LINE
8
BLACK
6
CONTINUOUS
10
2.56237
20
1.11428
11
2.56307
21
1.11457
0
LINE
8
BLACK
6
CONTINUOUS
10
2.56307
20
1.11457
11
2.69693
21
1.11457
0
LINE
8
BLACK
6
CONTINUOUS
10
2.69693
20
1.11457
11
2.69763
21
1.11428
0
LINE
8
BLACK
6
CONTINUOUS
10
2.69763
20
1.11428
11
2.69791
21
1.11358
0
LINE
8
BLACK
6
CONTINUOUS
10
2.69791
20
1.11358
11
2.69791
21
1.03642
0
LINE
8
BLACK
6
CONTINUOUS
10
2.69791
20
1.03642
11
2.69763
21
1.03572
0
LINE
8
BLACK
6
CONTINUOUS
10
2.69763
20
1.03572
11
2.69693
21
1.03543
0
LINE
8
BLACK
6
CONTINUOUS
10
2.69693
20
1.03543
11
2.56307
21
1.03543
0
LINE
8
BLACK
6
CONTINUOUS
10
2.56307
20
1.03543
11
2.56237
21
1.03572
0
LINE
8
BLACK
6
CONTINUOUS
10
2.56406
20
1.1126
11
2.56406
21
1.0374
0
LINE
8
BLACK
6
CONTINUOUS
10
2.56406
20
1.0374
11
2.69594
21
1.0374
0
LINE
8
BLACK
6
CONTINUOUS
10
2.69594
20
1.0374
11
2.69594
21
1.1126
0
LINE
8
BLACK
6
CONTINUOUS
10
2.69594
20
1.1126
11
2.56406
21
1.1126
0
LINE
8
BLACK
6
CONTINUOUS
10
2.81316
20
1.0769
11
2.81287
21
1.0776
0
LINE
8
BLACK
6
CONTINUOUS
10
2.81287
20
1.0776
11
2.81287
21
1.1524
0
LINE
8
BLACK
6
CONTINUOUS
10
2.81287
20
1.1524
11
2.81316
21
1.1531
0
LINE
8
BLACK
6
CONTINUOUS
10
2.81316
20
1.1531
11
2.81386
21
1.15339
0
LINE
8
BLACK
6
CONTINUOUS
10
2.81386
20
1.15339
11
2.94614
21
1.15339
0
LINE
8
BLACK
6
CONTINUOUS
10
2.94614
20
1.15339
11
2.94684
21
1.1531
0
LINE
8
BLACK
6
CONTINUOUS
10
2.94684
20
1.1531
11
2.94713
21
1.1524
0
LINE
8
BLACK
6
CONTINUOUS
10
2.94713
20
1.1524
11
2.94713
21
1.0776
0
LINE
8
BLACK
6
CONTINUOUS
10
2.94713
20
1.0776
11
2.94684
21
1.0769
0
LINE
8
BLACK
6
CONTINUOUS
10
2.94684
20
1.0769
11
2.94614
21
1.07661
0
LINE
8
BLACK
6
CONTINUOUS
10
2.94614
20
1.07661
11
2.81386
21
1.07661
0
LINE
8
BLACK
6
CONTINUOUS
10
2.81386
20
1.07661
11
2.81316
21
1.0769
0
LINE
8
BLACK
6
CONTINUOUS
10
2.81484
20
1.15142
11
2.81484
21
1.07858
0
LINE
8
BLACK
6
CONTINUOUS
10
2.81484
20
1.07858
11
2.94516
21
1.07858
0
LINE
8
BLACK
6
CONTINUOUS
10
2.94516
20
1.07858
11
2.94516
21
1.15142
0
LINE
8
BLACK
6
CONTINUOUS
10
2.94516
20
1.15142
11
2.81484
21
1.15142
0
LINE
8
BLACK
6
CONTINUOUS
10
0.259087
20
1.12568
11
0.258799
21
1.12638
0
LINE
8
BLACK
6
CONTINUOUS
10
0.258799
20
1.12638
11
0.258799
21
1.20118
0
LINE
8
BLACK
6
CONTINUOUS
10
0.258799
20
1.20118
11
0.259087
21
1.20188
0
LINE
8
BLACK
6
CONTINUOUS
10
0.259087
20
1.20188
11
0.259783
21
1.20217
0
LINE
8
BLACK
6
CONTINUOUS
10
0.259783
20
1.20217
11
0.392067
21
1.20217
0
LINE
8
BLACK
6
CONTINUOUS
10
0.392067
20
1.20217
11
0.392763
21
1.20188
0
LINE
8
BLACK
6
CONTINUOUS
10
0.392763
20
1.20188
11
0.393051
21
1.20118
0
LINE
8
BLACK
6
CONTINUOUS
10
0.393051
20
1.20118
11
0.393051
21
1.12638
0
LINE
8
BLACK
6
CONTINUOUS
10
0.393051
20
1.12638
11
0.392763
21
1.12568
0
LINE
8
BLACK
6
CONTINUOUS
10
0.392763
20
1.12568
11
0.392067
21
1.12539
0
LINE
8
BLACK
6
CONTINUOUS
10
0.392067
20
1.12539
11
0.259783
21
1.12539
0
LINE
8
BLACK
6
CONTINUOUS
10
0.259783
20
1.12539
11
0.259087
21
1.12568
0
LINE
8
BLACK
6
CONTINUOUS
10
0.260768
20
1.2002
11
0.260768
21
1.12736
0
LINE
8
BLACK
6
CONTINUOUS
10
0.260768
20
1.12736
11
0.391083
21
1.12736
0
LINE
8
BLACK
6
CONTINUOUS
10
0.391083
20
1.12736
11
0.391083
21
1.2002
0
LINE
8
BLACK
6
CONTINUOUS
10
0.391083
20
1.2002
11
0.260768
21
1.2002
0
LINE
8
BLACK
6
CONTINUOUS
10
2.35737
20
1.14572
11
2.35709
21
1.14642
0
LINE
8
BLACK
6
CONTINUOUS
10
2.35709
20
1.14642
11
2.35709
21
1.22358
0
LINE
8
BLACK
6
CONTINUOUS
10
2.35709
20
1.22358
11
2.35737
21
1.22428
0
LINE
8
BLACK
6
CONTINUOUS
10
2.35737
20
1.22428
11
2.35807
21
1.22457
0
LINE
8
BLACK
6
CONTINUOUS
10
2.35807
20
1.22457
11
2.49193
21
1.22457
0
LINE
8
BLACK
6
CONTINUOUS
10
2.49193
20
1.22457
11
2.49263
21
1.22428
0
LINE
8
BLACK
6
CONTINUOUS
10
2.49263
20
1.22428
11
2.49291
21
1.22358
0
LINE
8
BLACK
6
CONTINUOUS
10
2.49291
20
1.22358
11
2.49291
21
1.14642
0
LINE
8
BLACK
6
CONTINUOUS
10
2.49291
20
1.14642
11
2.49263
21
1.14572
0
LINE
8
BLACK
6
CONTINUOUS
10
2.49263
20
1.14572
11
2.49193
21
1.14543
0
LINE
8
BLACK
6
CONTINUOUS
10
2.49193
20
1.14543
11
2.35807
21
1.14543
0
LINE
8
BLACK
6
CONTINUOUS
10
2.35807
20
1.14543
11
2.35737
21
1.14572
0
LINE
8
BLACK
6
CONTINUOUS
10
2.35906
20
1.2226
11
2.35906
21
1.1474
0
LINE
8
BLACK
6
CONTINUOUS
10
2.35906
20
1.1474
11
2.49094
21
1.1474
0
LINE
8
BLACK
6
CONTINUOUS
10
2.49094
20
1.1474
11
2.49094
21
1.2226
0
LINE
8
BLACK
6
CONTINUOUS
10
2.49094
20
1.2226
11
2.35906
21
1.2226
0
LINE
8
BLACK
6
CONTINUOUS
10
2.56237
20
1.14572
11
2.56209
21
1.14642
0
LINE
8
BLACK
6
CONTINUOUS
10
2.56209
20
1.14642
11
2.56209
21
1.22358
0
LINE
8
BLACK
6
CONTINUOUS
10
2.56209
20
1.22358
11
2.56237
21
1.22428
0
LINE
8
BLACK
6
CONTINUOUS
10
2.56237
20
1.22428
11
2.56307
21
1.22457
0
LINE
8
BLACK
6
CONTINUOUS
10
2.56307
20
1.22457
11
2.69693
21
1.22457
0
LINE
8
BLACK
6
CONTINUOUS
10
2.69693
20
1.22457
11
2.69763
21
1.22428
0
LINE
8
BLACK
6
CONTINUOUS
10
2.69763
20
1.22428
11
2.69791
21
1.22358
0
LINE
8
BLACK
6
CONTINUOUS
10
2.69791
20
1.22358
11
2.69791
21
1.14642
0
LINE
8
BLACK
6
CONTINUOUS
10
2.69791
20
1.14642
11
2.69763
21
1.14572
0
LINE
8
BLACK
6
CONTINUOUS
10
2.69763
20
1.14572
11
2.69693
21
1.14543
0
LINE
8
BLACK
6
CONTINUOUS
10
2.69693
20
1.14543
11
2.56307
21
1.14543
0
LINE
8
BLACK
6
CONTINUOUS
10
2.56307
20
1.14543
11
2.56237
21
1.14572
0
LINE
8
BLACK
6
CONTINUOUS
10
2.56406
20
1.2226
11
2.56406
21
1.1474
0
LINE
8
BLACK
6
CONTINUOUS
10
2.56406
20
1.1474
11
2.69594
21
1.1474
0
LINE
8
BLACK
6
CONTINUOUS
10
2.69594
20
1.1474
11
2.69594
21
1.2226
0
LINE
8
BLACK
6
CONTINUOUS
10
2.69594
20
1.2226
11
2.56406
21
1.2226
0
LINE
8
BLACK
6
CONTINUOUS
10
2.57041
20
1.25151
11
2.57012
21
1.2522
0
LINE
8
BLACK
6
CONTINUOUS
10
2.57012
20
1.2522
11
2.57012
21
1.5278
0
LINE
8
BLACK
6
CONTINUOUS
10
2.57012
20
1.5278
11
2.57041
21
1.52849
0
LINE
8
BLACK
6
CONTINUOUS
10
2.57041
20
1.52849
11
2.5711
21
1.52878
0
LINE
8
BLACK
6
CONTINUOUS
10
2.5711
20
1.52878
11
2.7089
21
1.52878
0
LINE
8
BLACK
6
CONTINUOUS
10
2.7089
20
1.52878
11
2.70959
21
1.52849
0
LINE
8
BLACK
6
CONTINUOUS
10
2.70959
20
1.52849
11
2.70988
21
1.5278
0
LINE
8
BLACK
6
CONTINUOUS
10
2.70988
20
1.5278
11
2.70988
21
1.2522
0
LINE
8
BLACK
6
CONTINUOUS
10
2.70988
20
1.2522
11
2.70959
21
1.25151
0
LINE
8
BLACK
6
CONTINUOUS
10
2.70959
20
1.25151
11
2.7089
21
1.25122
0
LINE
8
BLACK
6
CONTINUOUS
10
2.7089
20
1.25122
11
2.5711
21
1.25122
0
LINE
8
BLACK
6
CONTINUOUS
10
2.5711
20
1.25122
11
2.57041
21
1.25151
0
LINE
8
BLACK
6
CONTINUOUS
10
2.57209
20
1.52681
11
2.57209
21
1.25319
0
LINE
8
BLACK
6
CONTINUOUS
10
2.57209
20
1.25319
11
2.70791
21
1.25319
0
LINE
8
BLACK
6
CONTINUOUS
10
2.70791
20
1.25319
11
2.70791
21
1.52681
0
LINE
8
BLACK
6
CONTINUOUS
10
2.70791
20
1.52681
11
2.57209
21
1.52681
0
LINE
8
BLACK
6
CONTINUOUS
10
2.30072
20
1.25478
11
2.30043
21
1.25547
0
LINE
8
BLACK
6
CONTINUOUS
10
2.30043
20
1.25547
11
2.30043
21
1.38933
0
LINE
8
BLACK
6
CONTINUOUS
10
2.30043
20
1.38933
11
2.30072
21
1.39003
0
LINE
8
BLACK
6
CONTINUOUS
10
2.30072
20
1.39003
11
2.30142
21
1.39031
0
LINE
8
BLACK
6
CONTINUOUS
10
2.30142
20
1.39031
11
2.37858
21
1.39031
0
LINE
8
BLACK
6
CONTINUOUS
10
2.37858
20
1.39031
11
2.37928
21
1.39003
0
LINE
8
BLACK
6
CONTINUOUS
10
2.37928
20
1.39003
11
2.37957
21
1.38933
0
LINE
8
BLACK
6
CONTINUOUS
10
2.37957
20
1.38933
11
2.37957
21
1.25547
0
LINE
8
BLACK
6
CONTINUOUS
10
2.37957
20
1.25547
11
2.37928
21
1.25478
0
LINE
8
BLACK
6
CONTINUOUS
10
2.37928
20
1.25478
11
2.37858
21
1.25449
0
LINE
8
BLACK
6
CONTINUOUS
10
2.37858
20
1.25449
11
2.30142
21
1.25449
0
LINE
8
BLACK
6
CONTINUOUS
10
2.30142
20
1.25449
11
2.30072
21
1.25478
0
LINE
8
BLACK
6
CONTINUOUS
10
2.3024
20
1.38835
11
2.3024
21
1.25646
0
LINE
8
BLACK
6
CONTINUOUS
10
2.3024
20
1.25646
11
2.3776
21
1.25646
0
LINE
8
BLACK
6
CONTINUOUS
10
2.3776
20
1.25646
11
2.3776
21
1.38835
0
LINE
8
BLACK
6
CONTINUOUS
10
2.3776
20
1.38835
11
2.3024
21
1.38835
0
LINE
8
BLACK
6
CONTINUOUS
10
0.259087
20
1.28316
11
0.258799
21
1.28386
0
LINE
8
BLACK
6
CONTINUOUS
10
0.258799
20
1.28386
11
0.258799
21
1.35866
0
LINE
8
BLACK
6
CONTINUOUS
10
0.258799
20
1.35866
11
0.259087
21
1.35936
0
LINE
8
BLACK
6
CONTINUOUS
10
0.259087
20
1.35936
11
0.259783
21
1.35965
0
LINE
8
BLACK
6
CONTINUOUS
10
0.259783
20
1.35965
11
0.392067
21
1.35965
0
LINE
8
BLACK
6
CONTINUOUS
10
0.392067
20
1.35965
11
0.392763
21
1.35936
0
LINE
8
BLACK
6
CONTINUOUS
10
0.392763
20
1.35936
11
0.393051
21
1.35866
0
LINE
8
BLACK
6
CONTINUOUS
10
0.393051
20
1.35866
11
0.393051
21
1.28386
0
LINE
8
BLACK
6
CONTINUOUS
10
0.393051
20
1.28386
11
0.392763
21
1.28316
0
LINE
8
BLACK
6
CONTINUOUS
10
0.392763
20
1.28316
11
0.392067
21
1.28287
0
LINE
8
BLACK
6
CONTINUOUS
10
0.392067
20
1.28287
11
0.259783
21
1.28287
0
LINE
8
BLACK
6
CONTINUOUS
10
0.259783
20
1.28287
11
0.259087
21
1.28316
0
LINE
8
BLACK
6
CONTINUOUS
10
0.260768
20
1.35768
11
0.260768
21
1.28484
0
LINE
8
BLACK
6
CONTINUOUS
10
0.260768
20
1.28484
11
0.391083
21
1.28484
0
LINE
8
BLACK
6
CONTINUOUS
10
0.391083
20
1.28484
11
0.391083
21
1.35768
0
LINE
8
BLACK
6
CONTINUOUS
10
0.391083
20
1.35768
11
0.260768
21
1.35768
0
LINE
8
BLACK
6
CONTINUOUS
10
1.3619
20
1.28316
11
1.36161
21
1.28386
0
LINE
8
BLACK
6
CONTINUOUS
10
1.36161
20
1.28386
11
1.36161
21
1.41614
0
LINE
8
BLACK
6
CONTINUOUS
10
1.36161
20
1.41614
11
1.3619
21
1.41684
0
LINE
8
BLACK
6
CONTINUOUS
10
1.3619
20
1.41684
11
1.3626
21
1.41713
0
LINE
8
BLACK
6
CONTINUOUS
10
1.3626
20
1.41713
11
1.4374
21
1.41713
0
LINE
8
BLACK
6
CONTINUOUS
10
1.4374
20
1.41713
11
1.4381
21
1.41684
0
LINE
8
BLACK
6
CONTINUOUS
10
1.4381
20
1.41684
11
1.43839
21
1.41614
0
LINE
8
BLACK
6
CONTINUOUS
10
1.43839
20
1.41614
11
1.43839
21
1.28386
0
LINE
8
BLACK
6
CONTINUOUS
10
1.43839
20
1.28386
11
1.4381
21
1.28316
0
LINE
8
BLACK
6
CONTINUOUS
10
1.4381
20
1.28316
11
1.4374
21
1.28287
0
LINE
8
BLACK
6
CONTINUOUS
10
1.4374
20
1.28287
11
1.3626
21
1.28287
0
LINE
8
BLACK
6
CONTINUOUS
10
1.3626
20
1.28287
11
1.3619
21
1.28316
0
LINE
8
BLACK
6
CONTINUOUS
10
1.36358
20
1.41516
11
1.36358
21
1.28484
0
LINE
8
BLACK
6
CONTINUOUS
10
1.36358
20
1.28484
11
1.43642
21
1.28484
0
LINE
8
BLACK
6
CONTINUOUS
10
1.43642
20
1.28484
11
1.43642
21
1.41516
0
LINE
8
BLACK
6
CONTINUOUS
10
1.43642
20
1.41516
11
1.36358
21
1.41516
0
LINE
8
BLACK
6
CONTINUOUS
10
2.42521
20
1.28454
11
2.42492
21
1.28524
0
LINE
8
BLACK
6
CONTINUOUS
10
2.42492
20
1.28524
11
2.42492
21
1.46476
0
LINE
8
BLACK
6
CONTINUOUS
10
2.42492
20
1.46476
11
2.42521
21
1.46546
0
LINE
8
BLACK
6
CONTINUOUS
10
2.42521
20
1.46546
11
2.42591
21
1.46575
0
LINE
8
BLACK
6
CONTINUOUS
10
2.42591
20
1.46575
11
2.51409
21
1.46575
0
LINE
8
BLACK
6
CONTINUOUS
10
2.51409
20
1.46575
11
2.51479
21
1.46546
0
LINE
8
BLACK
6
CONTINUOUS
10
2.51479
20
1.46546
11
2.51508
21
1.46476
0
LINE
8
BLACK
6
CONTINUOUS
10
2.51508
20
1.46476
11
2.51508
21
1.28524
0
LINE
8
BLACK
6
CONTINUOUS
10
2.51508
20
1.28524
11
2.51479
21
1.28454
0
LINE
8
BLACK
6
CONTINUOUS
10
2.51479
20
1.28454
11
2.51409
21
1.28425
0
LINE
8
BLACK
6
CONTINUOUS
10
2.51409
20
1.28425
11
2.42591
21
1.28425
0
LINE
8
BLACK
6
CONTINUOUS
10
2.42591
20
1.28425
11
2.42521
21
1.28454
0
LINE
8
BLACK
6
CONTINUOUS
10
2.42689
20
1.46378
11
2.42689
21
1.28622
0
LINE
8
BLACK
6
CONTINUOUS
10
2.42689
20
1.28622
11
2.51311
21
1.28622
0
LINE
8
BLACK
6
CONTINUOUS
10
2.51311
20
1.28622
11
2.51311
21
1.46378
0
LINE
8
BLACK
6
CONTINUOUS
10
2.51311
20
1.46378
11
2.42689
21
1.46378
0
LINE
8
BLACK
6
CONTINUOUS
10
0.960721
20
1.30497
11
0.960433
21
1.30567
0
LINE
8
BLACK
6
CONTINUOUS
10
0.960433
20
1.30567
11
0.960433
21
1.43953
0
LINE
8
BLACK
6
CONTINUOUS
10
0.960433
20
1.43953
11
0.960721
21
1.44022
0
LINE
8
BLACK
6
CONTINUOUS
10
0.960721
20
1.44022
11
0.961417
21
1.44051
0
LINE
8
BLACK
6
CONTINUOUS
10
0.961417
20
1.44051
11
1.03858
21
1.44051
0
LINE
8
BLACK
6
CONTINUOUS
10
1.03858
20
1.44051
11
1.03928
21
1.44022
0
LINE
8
BLACK
6
CONTINUOUS
10
1.03928
20
1.44022
11
1.03957
21
1.43953
0
LINE
8
BLACK
6
CONTINUOUS
10
1.03957
20
1.43953
11
1.03957
21
1.30567
0
LINE
8
BLACK
6
CONTINUOUS
10
1.03957
20
1.30567
11
1.03928
21
1.30497
0
LINE
8
BLACK
6
CONTINUOUS
10
1.03928
20
1.30497
11
1.03858
21
1.30469
0
LINE
8
BLACK
6
CONTINUOUS
10
1.03858
20
1.30469
11
0.961417
21
1.30469
0
LINE
8
BLACK
6
CONTINUOUS
10
0.961417
20
1.30469
11
0.960721
21
1.30497
0
LINE
8
BLACK
6
CONTINUOUS
10
0.962402
20
1.43854
11
0.962402
21
1.30665
0
LINE
8
BLACK
6
CONTINUOUS
10
0.962402
20
1.30665
11
1.0376
21
1.30665
0
LINE
8
BLACK
6
CONTINUOUS
10
1.0376
20
1.30665
11
1.0376
21
1.43854
0
LINE
8
BLACK
6
CONTINUOUS
10
1.0376
20
1.43854
11
0.962402
21
1.43854
0
LINE
8
BLACK
6
CONTINUOUS
10
1.21497
20
1.33828
11
1.21469
21
1.33898
0
LINE
8
BLACK
6
CONTINUOUS
10
1.21469
20
1.33898
11
1.21469
21
1.41614
0
LINE
8
BLACK
6
CONTINUOUS
10
1.21469
20
1.41614
11
1.21497
21
1.41684
0
LINE
8
BLACK
6
CONTINUOUS
10
1.21497
20
1.41684
11
1.21567
21
1.41713
0
LINE
8
BLACK
6
CONTINUOUS
10
1.21567
20
1.41713
11
1.34953
21
1.41713
0
LINE
8
BLACK
6
CONTINUOUS
10
1.34953
20
1.41713
11
1.35022
21
1.41684
0
LINE
8
BLACK
6
CONTINUOUS
10
1.35022
20
1.41684
11
1.35051
21
1.41614
0
LINE
8
BLACK
6
CONTINUOUS
10
1.35051
20
1.41614
11
1.35051
21
1.33898
0
LINE
8
BLACK
6
CONTINUOUS
10
1.35051
20
1.33898
11
1.35022
21
1.33828
0
LINE
8
BLACK
6
CONTINUOUS
10
1.35022
20
1.33828
11
1.34953
21
1.33799
0
LINE
8
BLACK
6
CONTINUOUS
10
1.34953
20
1.33799
11
1.21567
21
1.33799
0
LINE
8
BLACK
6
CONTINUOUS
10
1.21567
20
1.33799
11
1.21497
21
1.33828
0
LINE
8
BLACK
6
CONTINUOUS
10
1.21665
20
1.41516
11
1.21665
21
1.33996
0
LINE
8
BLACK
6
CONTINUOUS
10
1.21665
20
1.33996
11
1.34854
21
1.33996
0
LINE
8
BLACK
6
CONTINUOUS
10
1.34854
20
1.33996
11
1.34854
21
1.41516
0
LINE
8
BLACK
6
CONTINUOUS
10
1.34854
20
1.41516
11
1.21665
21
1.41516
0
LINE
8
BLACK
6
CONTINUOUS
10
0.643713
20
1.37182
11
0.643425
21
1.37252
0
LINE
8
BLACK
6
CONTINUOUS
10
0.643425
20
1.37252
11
0.643425
21
1.68748
0
LINE
8
BLACK
6
CONTINUOUS
10
0.643425
20
1.68748
11
0.643713
21
1.68818
0
LINE
8
BLACK
6
CONTINUOUS
10
0.643713
20
1.68818
11
0.644409
21
1.68846
0
LINE
8
BLACK
6
CONTINUOUS
10
0.644409
20
1.68846
11
0.795591
21
1.68846
0
LINE
8
BLACK
6
CONTINUOUS
10
0.795591
20
1.68846
11
0.796287
21
1.68818
0
LINE
8
BLACK
6
CONTINUOUS
10
0.796287
20
1.68818
11
0.796575
21
1.68748
0
LINE
8
BLACK
6
CONTINUOUS
10
0.796575
20
1.68748
11
0.796575
21
1.37252
0
LINE
8
BLACK
6
CONTINUOUS
10
0.796575
20
1.37252
11
0.796287
21
1.37182
0
LINE
8
BLACK
6
CONTINUOUS
10
0.796287
20
1.37182
11
0.795591
21
1.37154
0
LINE
8
BLACK
6
CONTINUOUS
10
0.795591
20
1.37154
11
0.644409
21
1.37154
0
LINE
8
BLACK
6
CONTINUOUS
10
0.644409
20
1.37154
11
0.643713
21
1.37182
0
LINE
8
BLACK
6
CONTINUOUS
10
0.645394
20
1.6865
11
0.645394
21
1.3735
0
LINE
8
BLACK
6
CONTINUOUS
10
0.645394
20
1.3735
11
0.794606
21
1.3735
0
LINE
8
BLACK
6
CONTINUOUS
10
0.794606
20
1.3735
11
0.794606
21
1.6865
0
LINE
8
BLACK
6
CONTINUOUS
10
0.794606
20
1.6865
11
0.645394
21
1.6865
0
LINE
8
BLACK
6
CONTINUOUS
10
0.813162
20
1.3719
11
0.812874
21
1.3726
0
LINE
8
BLACK
6
CONTINUOUS
10
0.812874
20
1.3726
11
0.812874
21
1.4474
0
LINE
8
BLACK
6
CONTINUOUS
10
0.812874
20
1.4474
11
0.813162
21
1.4481
0
LINE
8
BLACK
6
CONTINUOUS
10
0.813162
20
1.4481
11
0.813858
21
1.44839
0
LINE
8
BLACK
6
CONTINUOUS
10
0.813858
20
1.44839
11
0.946142
21
1.44839
0
LINE
8
BLACK
6
CONTINUOUS
10
0.946142
20
1.44839
11
0.946838
21
1.4481
0
LINE
8
BLACK
6
CONTINUOUS
10
0.946838
20
1.4481
11
0.947126
21
1.4474
0
LINE
8
BLACK
6
CONTINUOUS
10
0.947126
20
1.4474
11
0.947126
21
1.3726
0
LINE
8
BLACK
6
CONTINUOUS
10
0.947126
20
1.3726
11
0.946838
21
1.3719
0
LINE
8
BLACK
6
CONTINUOUS
10
0.946838
20
1.3719
11
0.946142
21
1.37161
0
LINE
8
BLACK
6
CONTINUOUS
10
0.946142
20
1.37161
11
0.813858
21
1.37161
0
LINE
8
BLACK
6
CONTINUOUS
10
0.813858
20
1.37161
11
0.813162
21
1.3719
0
LINE
8
BLACK
6
CONTINUOUS
10
0.814843
20
1.44642
11
0.814843
21
1.37358
0
LINE
8
BLACK
6
CONTINUOUS
10
0.814843
20
1.37358
11
0.945157
21
1.37358
0
LINE
8
BLACK
6
CONTINUOUS
10
0.945157
20
1.37358
11
0.945157
21
1.44642
0
LINE
8
BLACK
6
CONTINUOUS
10
0.945157
20
1.44642
11
0.814843
21
1.44642
0
LINE
8
BLACK
6
CONTINUOUS
10
1.52072
20
1.38356
11
1.52043
21
1.38425
0
LINE
8
BLACK
6
CONTINUOUS
10
1.52043
20
1.38425
11
1.52043
21
1.51811
0
LINE
8
BLACK
6
CONTINUOUS
10
1.52043
20
1.51811
11
1.52072
21
1.51881
0
LINE
8
BLACK
6
CONTINUOUS
10
1.52072
20
1.51881
11
1.52142
21
1.51909
0
LINE
8
BLACK
6
CONTINUOUS
10
1.52142
20
1.51909
11
1.59858
21
1.51909
0
LINE
8
BLACK
6
CONTINUOUS
10
1.59858
20
1.51909
11
1.59928
21
1.51881
0
LINE
8
BLACK
6
CONTINUOUS
10
1.59928
20
1.51881
11
1.59957
21
1.51811
0
LINE
8
BLACK
6
CONTINUOUS
10
1.59957
20
1.51811
11
1.59957
21
1.38425
0
LINE
8
BLACK
6
CONTINUOUS
10
1.59957
20
1.38425
11
1.59928
21
1.38356
0
LINE
8
BLACK
6
CONTINUOUS
10
1.59928
20
1.38356
11
1.59858
21
1.38327
0
LINE
8
BLACK
6
CONTINUOUS
10
1.59858
20
1.38327
11
1.52142
21
1.38327
0
LINE
8
BLACK
6
CONTINUOUS
10
1.52142
20
1.38327
11
1.52072
21
1.38356
0
LINE
8
BLACK
6
CONTINUOUS
10
1.5224
20
1.51713
11
1.5224
21
1.38524
0
LINE
8
BLACK
6
CONTINUOUS
10
1.5224
20
1.38524
11
1.5976
21
1.38524
0
LINE
8
BLACK
6
CONTINUOUS
10
1.5976
20
1.38524
11
1.5976
21
1.51713
0
LINE
8
BLACK
6
CONTINUOUS
10
1.5976
20
1.51713
11
1.5224
21
1.51713
0
LINE
8
BLACK
6
CONTINUOUS
10
0.259087
20
1.44064
11
0.258799
21
1.44134
0
LINE
8
BLACK
6
CONTINUOUS
10
0.258799
20
1.44134
11
0.258799
21
1.51614
0
LINE
8
BLACK
6
CONTINUOUS
10
0.258799
20
1.51614
11
0.259087
21
1.51684
0
LINE
8
BLACK
6
CONTINUOUS
10
0.259087
20
1.51684
11
0.259783
21
1.51713
0
LINE
8
BLACK
6
CONTINUOUS
10
0.259783
20
1.51713
11
0.392067
21
1.51713
0
LINE
8
BLACK
6
CONTINUOUS
10
0.392067
20
1.51713
11
0.392763
21
1.51684
0
LINE
8
BLACK
6
CONTINUOUS
10
0.392763
20
1.51684
11
0.393051
21
1.51614
0
LINE
8
BLACK
6
CONTINUOUS
10
0.393051
20
1.51614
11
0.393051
21
1.44134
0
LINE
8
BLACK
6
CONTINUOUS
10
0.393051
20
1.44134
11
0.392763
21
1.44064
0
LINE
8
BLACK
6
CONTINUOUS
10
0.392763
20
1.44064
11
0.392067
21
1.44035
0
LINE
8
BLACK
6
CONTINUOUS
10
0.392067
20
1.44035
11
0.259783
21
1.44035
0
LINE
8
BLACK
6
CONTINUOUS
10
0.259783
20
1.44035
11
0.259087
21
1.44064
0
LINE
8
BLACK
6
CONTINUOUS
10
0.260768
20
1.51516
11
0.260768
21
1.44232
0
LINE
8
BLACK
6
CONTINUOUS
10
0.260768
20
1.44232
11
0.391083
21
1.44232
0
LINE
8
BLACK
6
CONTINUOUS
10
0.391083
20
1.44232
11
0.391083
21
1.51516
0
LINE
8
BLACK
6
CONTINUOUS
10
0.391083
20
1.51516
11
0.260768
21
1.51516
0
LINE
8
BLACK
6
CONTINUOUS
10
1.12379
20
1.45907
11
1.1235
21
1.45976
0
LINE
8
BLACK
6
CONTINUOUS
10
1.1235
20
1.45976
11
1.1235
21
1.68024
0
LINE
8
BLACK
6
CONTINUOUS
10
1.1235
20
1.68024
11
1.12379
21
1.68093
0
LINE
8
BLACK
6
CONTINUOUS
10
1.12379
20
1.68093
11
1.12449
21
1.68122
0
LINE
8
BLACK
6
CONTINUOUS
10
1.12449
20
1.68122
11
1.43551
21
1.68122
0
LINE
8
BLACK
6
CONTINUOUS
10
1.43551
20
1.68122
11
1.43621
21
1.68093
0
LINE
8
BLACK
6
CONTINUOUS
10
1.43621
20
1.68093
11
1.4365
21
1.68024
0
LINE
8
BLACK
6
CONTINUOUS
10
1.4365
20
1.68024
11
1.4365
21
1.45976
0
LINE
8
BLACK
6
CONTINUOUS
10
1.4365
20
1.45976
11
1.43621
21
1.45907
0
LINE
8
BLACK
6
CONTINUOUS
10
1.43621
20
1.45907
11
1.43551
21
1.45878
0
LINE
8
BLACK
6
CONTINUOUS
10
1.43551
20
1.45878
11
1.12449
21
1.45878
0
LINE
8
BLACK
6
CONTINUOUS
10
1.12449
20
1.45878
11
1.12379
21
1.45907
0
LINE
8
BLACK
6
CONTINUOUS
10
1.12547
20
1.67925
11
1.12547
21
1.46075
0
LINE
8
BLACK
6
CONTINUOUS
10
1.12547
20
1.46075
11
1.43453
21
1.46075
0
LINE
8
BLACK
6
CONTINUOUS
10
1.43453
20
1.46075
11
1.43453
21
1.67925
0
LINE
8
BLACK
6
CONTINUOUS
10
1.43453
20
1.67925
11
1.12547
21
1.67925
0
LINE
8
BLACK
6
CONTINUOUS
10
0.960721
20
1.46367
11
0.960433
21
1.46437
0
LINE
8
BLACK
6
CONTINUOUS
10
0.960433
20
1.46437
11
0.960433
21
1.59823
0
LINE
8
BLACK
6
CONTINUOUS
10
0.960433
20
1.59823
11
0.960721
21
1.59892
0
LINE
8
BLACK
6
CONTINUOUS
10
0.960721
20
1.59892
11
0.961417
21
1.59921
0
LINE
8
BLACK
6
CONTINUOUS
10
0.961417
20
1.59921
11
1.03858
21
1.59921
0
LINE
8
BLACK
6
CONTINUOUS
10
1.03858
20
1.59921
11
1.03928
21
1.59892
0
LINE
8
BLACK
6
CONTINUOUS
10
1.03928
20
1.59892
11
1.03957
21
1.59823
0
LINE
8
BLACK
6
CONTINUOUS
10
1.03957
20
1.59823
11
1.03957
21
1.46437
0
LINE
8
BLACK
6
CONTINUOUS
10
1.03957
20
1.46437
11
1.03928
21
1.46367
0
LINE
8
BLACK
6
CONTINUOUS
10
1.03928
20
1.46367
11
1.03858
21
1.46339
0
LINE
8
BLACK
6
CONTINUOUS
10
1.03858
20
1.46339
11
0.961417
21
1.46339
0
LINE
8
BLACK
6
CONTINUOUS
10
0.961417
20
1.46339
11
0.960721
21
1.46367
0
LINE
8
BLACK
6
CONTINUOUS
10
0.962402
20
1.59724
11
0.962402
21
1.46535
0
LINE
8
BLACK
6
CONTINUOUS
10
0.962402
20
1.46535
11
1.0376
21
1.46535
0
LINE
8
BLACK
6
CONTINUOUS
10
1.0376
20
1.46535
11
1.0376
21
1.59724
0
LINE
8
BLACK
6
CONTINUOUS
10
1.0376
20
1.59724
11
0.962402
21
1.59724
0
LINE
8
BLACK
6
CONTINUOUS
10
2.25237
20
1.51072
11
2.25209
21
1.51142
0
LINE
8
BLACK
6
CONTINUOUS
10
2.25209
20
1.51142
11
2.25209
21
1.58858
0
LINE
8
BLACK
6
CONTINUOUS
10
2.25209
20
1.58858
11
2.25237
21
1.58928
0
LINE
8
BLACK
6
CONTINUOUS
10
2.25237
20
1.58928
11
2.25307
21
1.58957
0
LINE
8
BLACK
6
CONTINUOUS
10
2.25307
20
1.58957
11
2.38693
21
1.58957
0
LINE
8
BLACK
6
CONTINUOUS
10
2.38693
20
1.58957
11
2.38763
21
1.58928
0
LINE
8
BLACK
6
CONTINUOUS
10
2.38763
20
1.58928
11
2.38791
21
1.58858
0
LINE
8
BLACK
6
CONTINUOUS
10
2.38791
20
1.58858
11
2.38791
21
1.51142
0
LINE
8
BLACK
6
CONTINUOUS
10
2.38791
20
1.51142
11
2.38763
21
1.51072
0
LINE
8
BLACK
6
CONTINUOUS
10
2.38763
20
1.51072
11
2.38693
21
1.51043
0
LINE
8
BLACK
6
CONTINUOUS
10
2.38693
20
1.51043
11
2.25307
21
1.51043
0
LINE
8
BLACK
6
CONTINUOUS
10
2.25307
20
1.51043
11
2.25237
21
1.51072
0
LINE
8
BLACK
6
CONTINUOUS
10
2.25406
20
1.5876
11
2.25406
21
1.5124
0
LINE
8
BLACK
6
CONTINUOUS
10
2.25406
20
1.5124
11
2.38594
21
1.5124
0
LINE
8
BLACK
6
CONTINUOUS
10
2.38594
20
1.5124
11
2.38594
21
1.5876
0
LINE
8
BLACK
6
CONTINUOUS
10
2.38594
20
1.5876
11
2.25406
21
1.5876
0
LINE
8
BLACK
6
CONTINUOUS
10
1.52072
20
1.53072
11
1.52043
21
1.53142
0
LINE
8
BLACK
6
CONTINUOUS
10
1.52043
20
1.53142
11
1.52043
21
1.60858
0
LINE
8
BLACK
6
CONTINUOUS
10
1.52043
20
1.60858
11
1.52072
21
1.60928
0
LINE
8
BLACK
6
CONTINUOUS
10
1.52072
20
1.60928
11
1.52142
21
1.60957
0
LINE
8
BLACK
6
CONTINUOUS
10
1.52142
20
1.60957
11
1.65528
21
1.60957
0
LINE
8
BLACK
6
CONTINUOUS
10
1.65528
20
1.60957
11
1.65597
21
1.60928
0
LINE
8
BLACK
6
CONTINUOUS
10
1.65597
20
1.60928
11
1.65626
21
1.60858
0
LINE
8
BLACK
6
CONTINUOUS
10
1.65626
20
1.60858
11
1.65626
21
1.53142
0
LINE
8
BLACK
6
CONTINUOUS
10
1.65626
20
1.53142
11
1.65597
21
1.53072
0
LINE
8
BLACK
6
CONTINUOUS
10
1.65597
20
1.53072
11
1.65528
21
1.53043
0
LINE
8
BLACK
6
CONTINUOUS
10
1.65528
20
1.53043
11
1.52142
21
1.53043
0
LINE
8
BLACK
6
CONTINUOUS
10
1.52142
20
1.53043
11
1.52072
21
1.53072
0
LINE
8
BLACK
6
CONTINUOUS
10
1.5224
20
1.6076
11
1.5224
21
1.5324
0
LINE
8
BLACK
6
CONTINUOUS
10
1.5224
20
1.5324
11
1.65429
21
1.5324
0
LINE
8
BLACK
6
CONTINUOUS
10
1.65429
20
1.5324
11
1.65429
21
1.6076
0
LINE
8
BLACK
6
CONTINUOUS
10
1.65429
20
1.6076
11
1.5224
21
1.6076
0
LINE
8
BLACK
6
CONTINUOUS
10
2.1419
20
1.56316
11
2.14161
21
1.56386
0
LINE
8
BLACK
6
CONTINUOUS
10
2.14161
20
1.56386
11
2.14161
21
1.69614
0
LINE
8
BLACK
6
CONTINUOUS
10
2.14161
20
1.69614
11
2.1419
21
1.69684
0
LINE
8
BLACK
6
CONTINUOUS
10
2.1419
20
1.69684
11
2.1426
21
1.69713
0
LINE
8
BLACK
6
CONTINUOUS
10
2.1426
20
1.69713
11
2.2174
21
1.69713
0
LINE
8
BLACK
6
CONTINUOUS
10
2.2174
20
1.69713
11
2.2181
21
1.69684
0
LINE
8
BLACK
6
CONTINUOUS
10
2.2181
20
1.69684
11
2.21839
21
1.69614
0
LINE
8
BLACK
6
CONTINUOUS
10
2.21839
20
1.69614
11
2.21839
21
1.56386
0
LINE
8
BLACK
6
CONTINUOUS
10
2.21839
20
1.56386
11
2.2181
21
1.56316
0
LINE
8
BLACK
6
CONTINUOUS
10
2.2181
20
1.56316
11
2.2174
21
1.56287
0
LINE
8
BLACK
6
CONTINUOUS
10
2.2174
20
1.56287
11
2.1426
21
1.56287
0
LINE
8
BLACK
6
CONTINUOUS
10
2.1426
20
1.56287
11
2.1419
21
1.56316
0
LINE
8
BLACK
6
CONTINUOUS
10
2.14358
20
1.69516
11
2.14358
21
1.56484
0
LINE
8
BLACK
6
CONTINUOUS
10
2.14358
20
1.56484
11
2.21642
21
1.56484
0
LINE
8
BLACK
6
CONTINUOUS
10
2.21642
20
1.56484
11
2.21642
21
1.69516
0
LINE
8
BLACK
6
CONTINUOUS
10
2.21642
20
1.69516
11
2.14358
21
1.69516
0
LINE
8
BLACK
6
CONTINUOUS
10
0.259087
20
1.59812
11
0.258799
21
1.59882
0
LINE
8
BLACK
6
CONTINUOUS
10
0.258799
20
1.59882
11
0.258799
21
1.67362
0
LINE
8
BLACK
6
CONTINUOUS
10
0.258799
20
1.67362
11
0.259087
21
1.67432
0
LINE
8
BLACK
6
CONTINUOUS
10
0.259087
20
1.67432
11
0.259783
21
1.67461
0
LINE
8
BLACK
6
CONTINUOUS
10
0.259783
20
1.67461
11
0.392067
21
1.67461
0
LINE
8
BLACK
6
CONTINUOUS
10
0.392067
20
1.67461
11
0.392763
21
1.67432
0
LINE
8
BLACK
6
CONTINUOUS
10
0.392763
20
1.67432
11
0.393051
21
1.67362
0
LINE
8
BLACK
6
CONTINUOUS
10
0.393051
20
1.67362
11
0.393051
21
1.59882
0
LINE
8
BLACK
6
CONTINUOUS
10
0.393051
20
1.59882
11
0.392763
21
1.59812
0
LINE
8
BLACK
6
CONTINUOUS
10
0.392763
20
1.59812
11
0.392067
21
1.59783
0
LINE
8
BLACK
6
CONTINUOUS
10
0.392067
20
1.59783
11
0.259783
21
1.59783
0
LINE
8
BLACK
6
CONTINUOUS
10
0.259783
20
1.59783
11
0.259087
21
1.59812
0
LINE
8
BLACK
6
CONTINUOUS
10
0.260768
20
1.67264
11
0.260768
21
1.5998
0
LINE
8
BLACK
6
CONTINUOUS
10
0.260768
20
1.5998
11
0.391083
21
1.5998
0
LINE
8
BLACK
6
CONTINUOUS
10
0.391083
20
1.5998
11
0.391083
21
1.67264
0
LINE
8
BLACK
6
CONTINUOUS
10
0.391083
20
1.67264
11
0.260768
21
1.67264
0
LINE
8
BLACK
6
CONTINUOUS
10
2.25237
20
1.61072
11
2.25209
21
1.61142
0
LINE
8
BLACK
6
CONTINUOUS
10
2.25209
20
1.61142
11
2.25209
21
1.68858
0
LINE
8
BLACK
6
CONTINUOUS
10
2.25209
20
1.68858
11
2.25237
21
1.68928
0
LINE
8
BLACK
6
CONTINUOUS
10
2.25237
20
1.68928
11
2.25307
21
1.68957
0
LINE
8
BLACK
6
CONTINUOUS
10
2.25307
20
1.68957
11
2.38693
21
1.68957
0
LINE
8
BLACK
6
CONTINUOUS
10
2.38693
20
1.68957
11
2.38763
21
1.68928
0
LINE
8
BLACK
6
CONTINUOUS
10
2.38763
20
1.68928
11
2.38791
21
1.68858
0
LINE
8
BLACK
6
CONTINUOUS
10
2.38791
20
1.68858
11
2.38791
21
1.61142
0
LINE
8
BLACK
6
CONTINUOUS
10
2.38791
20
1.61142
11
2.38763
21
1.61072
0
LINE
8
BLACK
6
CONTINUOUS
10
2.38763
20
1.61072
11
2.38693
21
1.61043
0
LINE
8
BLACK
6
CONTINUOUS
10
2.38693
20
1.61043
11
2.25307
21
1.61043
0
LINE
8
BLACK
6
CONTINUOUS
10
2.25307
20
1.61043
11
2.25237
21
1.61072
0
LINE
8
BLACK
6
CONTINUOUS
10
2.25406
20
1.6876
11
2.25406
21
1.6124
0
LINE
8
BLACK
6
CONTINUOUS
10
2.25406
20
1.6124
11
2.38594
21
1.6124
0
LINE
8
BLACK
6
CONTINUOUS
10
2.38594
20
1.6124
11
2.38594
21
1.6876
0
LINE
8
BLACK
6
CONTINUOUS
10
2.38594
20
1.6876
11
2.25406
21
1.6876
0
LINE
8
BLACK
6
CONTINUOUS
10
0.813162
20
1.6119
11
0.812874
21
1.6126
0
LINE
8
BLACK
6
CONTINUOUS
10
0.812874
20
1.6126
11
0.812874
21
1.6874
0
LINE
8
BLACK
6
CONTINUOUS
10
0.812874
20
1.6874
11
0.813162
21
1.6881
0
LINE
8
BLACK
6
CONTINUOUS
10
0.813162
20
1.6881
11
0.813858
21
1.68839
0
LINE
8
BLACK
6
CONTINUOUS
10
0.813858
20
1.68839
11
0.946142
21
1.68839
0
LINE
8
BLACK
6
CONTINUOUS
10
0.946142
20
1.68839
11
0.946838
21
1.6881
0
LINE
8
BLACK
6
CONTINUOUS
10
0.946838
20
1.6881
11
0.947126
21
1.6874
0
LINE
8
BLACK
6
CONTINUOUS
10
0.947126
20
1.6874
11
0.947126
21
1.6126
0
LINE
8
BLACK
6
CONTINUOUS
10
0.947126
20
1.6126
11
0.946838
21
1.6119
0
LINE
8
BLACK
6
CONTINUOUS
10
0.946838
20
1.6119
11
0.946142
21
1.61161
0
LINE
8
BLACK
6
CONTINUOUS
10
0.946142
20
1.61161
11
0.813858
21
1.61161
0
LINE
8
BLACK
6
CONTINUOUS
10
0.813858
20
1.61161
11
0.813162
21
1.6119
0
LINE
8
BLACK
6
CONTINUOUS
10
0.814843
20
1.68642
11
0.814843
21
1.61358
0
LINE
8
BLACK
6
CONTINUOUS
10
0.814843
20
1.61358
11
0.945157
21
1.61358
0
LINE
8
BLACK
6
CONTINUOUS
10
0.945157
20
1.61358
11
0.945157
21
1.68642
0
LINE
8
BLACK
6
CONTINUOUS
10
0.945157
20
1.68642
11
0.814843
21
1.68642
0
LINE
8
BLACK
6
CONTINUOUS
10
1.97434
20
1.62009
11
1.97406
21
1.62079
0
LINE
8
BLACK
6
CONTINUOUS
10
1.97406
20
1.62079
11
1.97406
21
1.71921
0
LINE
8
BLACK
6
CONTINUOUS
10
1.97406
20
1.71921
11
1.97434
21
1.71991
0
LINE
8
BLACK
6
CONTINUOUS
10
1.97434
20
1.71991
11
1.97504
21
1.7202
0
LINE
8
BLACK
6
CONTINUOUS
10
1.97504
20
1.7202
11
2.10496
21
1.7202
0
LINE
8
BLACK
6
CONTINUOUS
10
2.10496
20
1.7202
11
2.10566
21
1.71991
0
LINE
8
BLACK
6
CONTINUOUS
10
2.10566
20
1.71991
11
2.10594
21
1.71921
0
LINE
8
BLACK
6
CONTINUOUS
10
2.10594
20
1.71921
11
2.10594
21
1.62079
0
LINE
8
BLACK
6
CONTINUOUS
10
2.10594
20
1.62079
11
2.10566
21
1.62009
0
LINE
8
BLACK
6
CONTINUOUS
10
2.10566
20
1.62009
11
2.10496
21
1.6198
0
LINE
8
BLACK
6
CONTINUOUS
10
2.10496
20
1.6198
11
1.97504
21
1.6198
0
LINE
8
BLACK
6
CONTINUOUS
10
1.97504
20
1.6198
11
1.97434
21
1.62009
0
LINE
8
BLACK
6
CONTINUOUS
10
1.97602
20
1.71823
11
1.97602
21
1.62177
0
LINE
8
BLACK
6
CONTINUOUS
10
1.97602
20
1.62177
11
2.10398
21
1.62177
0
LINE
8
BLACK
6
CONTINUOUS
10
2.10398
20
1.62177
11
2.10398
21
1.71823
0
LINE
8
BLACK
6
CONTINUOUS
10
2.10398
20
1.71823
11
1.97602
21
1.71823
0
LINE
8
BLACK
6
CONTINUOUS
10
0.960721
20
1.62237
11
0.960433
21
1.62307
0
LINE
8
BLACK
6
CONTINUOUS
10
0.960433
20
1.62307
11
0.960433
21
1.75693
0
LINE
8
BLACK
6
CONTINUOUS
10
0.960433
20
1.75693
11
0.960721
21
1.75763
0
LINE
8
BLACK
6
CONTINUOUS
10
0.960721
20
1.75763
11
0.961417
21
1.75791
0
LINE
8
BLACK
6
CONTINUOUS
10
0.961417
20
1.75791
11
1.03858
21
1.75791
0
LINE
8
BLACK
6
CONTINUOUS
10
1.03858
20
1.75791
11
1.03928
21
1.75763
0
LINE
8
BLACK
6
CONTINUOUS
10
1.03928
20
1.75763
11
1.03957
21
1.75693
0
LINE
8
BLACK
6
CONTINUOUS
10
1.03957
20
1.75693
11
1.03957
21
1.62307
0
LINE
8
BLACK
6
CONTINUOUS
10
1.03957
20
1.62307
11
1.03928
21
1.62237
0
LINE
8
BLACK
6
CONTINUOUS
10
1.03928
20
1.62237
11
1.03858
21
1.62209
0
LINE
8
BLACK
6
CONTINUOUS
10
1.03858
20
1.62209
11
0.961417
21
1.62209
0
LINE
8
BLACK
6
CONTINUOUS
10
0.961417
20
1.62209
11
0.960721
21
1.62237
0
LINE
8
BLACK
6
CONTINUOUS
10
0.962402
20
1.75594
11
0.962402
21
1.62406
0
LINE
8
BLACK
6
CONTINUOUS
10
0.962402
20
1.62406
11
1.0376
21
1.62406
0
LINE
8
BLACK
6
CONTINUOUS
10
1.0376
20
1.62406
11
1.0376
21
1.75594
0
LINE
8
BLACK
6
CONTINUOUS
10
1.0376
20
1.75594
11
0.962402
21
1.75594
0
LINE
8
BLACK
6
CONTINUOUS
10
2.19938
20
1.74466
11
2.19909
21
1.74535
0
LINE
8
BLACK
6
CONTINUOUS
10
2.19909
20
1.74535
11
2.19909
21
1.91465
0
LINE
8
BLACK
6
CONTINUOUS
10
2.19909
20
1.91465
11
2.19938
21
1.91534
0
LINE
8
BLACK
6
CONTINUOUS
10
2.19938
20
1.91534
11
2.20008
21
1.91563
0
LINE
8
BLACK
6
CONTINUOUS
10
2.20008
20
1.91563
11
2.35992
21
1.91563
0
LINE
8
BLACK
6
CONTINUOUS
10
2.35992
20
1.91563
11
2.36062
21
1.91534
0
LINE
8
BLACK
6
CONTINUOUS
10
2.36062
20
1.91534
11
2.36091
21
1.91465
0
LINE
8
BLACK
6
CONTINUOUS
10
2.36091
20
1.91465
11
2.36091
21
1.74535
0
LINE
8
BLACK
6
CONTINUOUS
10
2.36091
20
1.74535
11
2.36062
21
1.74466
0
LINE
8
BLACK
6
CONTINUOUS
10
2.36062
20
1.74466
11
2.35992
21
1.74437
0
LINE
8
BLACK
6
CONTINUOUS
10
2.35992
20
1.74437
11
2.20008
21
1.74437
0
LINE
8
BLACK
6
CONTINUOUS
10
2.20008
20
1.74437
11
2.19938
21
1.74466
0
LINE
8
BLACK
6
CONTINUOUS
10
2.20106
20
1.91366
11
2.20106
21
1.74634
0
LINE
8
BLACK
6
CONTINUOUS
10
2.20106
20
1.74634
11
2.35894
21
1.74634
0
LINE
8
BLACK
6
CONTINUOUS
10
2.35894
20
1.74634
11
2.35894
21
1.91366
0
LINE
8
BLACK
6
CONTINUOUS
10
2.35894
20
1.91366
11
2.20106
21
1.91366
0
LINE
8
BLACK
6
CONTINUOUS
10
0.259087
20
1.7556
11
0.258799
21
1.7563
0
LINE
8
BLACK
6
CONTINUOUS
10
0.258799
20
1.7563
11
0.258799
21
1.8311
0
LINE
8
BLACK
6
CONTINUOUS
10
0.258799
20
1.8311
11
0.259087
21
1.8318
0
LINE
8
BLACK
6
CONTINUOUS
10
0.259087
20
1.8318
11
0.259783
21
1.83209
0
LINE
8
BLACK
6
CONTINUOUS
10
0.259783
20
1.83209
11
0.392067
21
1.83209
0
LINE
8
BLACK
6
CONTINUOUS
10
0.392067
20
1.83209
11
0.392763
21
1.8318
0
LINE
8
BLACK
6
CONTINUOUS
10
0.392763
20
1.8318
11
0.393051
21
1.8311
0
LINE
8
BLACK
6
CONTINUOUS
10
0.393051
20
1.8311
11
0.393051
21
1.7563
0
LINE
8
BLACK
6
CONTINUOUS
10
0.393051
20
1.7563
11
0.392763
21
1.7556
0
LINE
8
BLACK
6
CONTINUOUS
10
0.392763
20
1.7556
11
0.392067
21
1.75531
0
LINE
8
BLACK
6
CONTINUOUS
10
0.392067
20
1.75531
11
0.259783
21
1.75531
0
LINE
8
BLACK
6
CONTINUOUS
10
0.259783
20
1.75531
11
0.259087
21
1.7556
0
LINE
8
BLACK
6
CONTINUOUS
10
0.260768
20
1.83012
11
0.260768
21
1.75728
0
LINE
8
BLACK
6
CONTINUOUS
10
0.260768
20
1.75728
11
0.391083
21
1.75728
0
LINE
8
BLACK
6
CONTINUOUS
10
0.391083
20
1.75728
11
0.391083
21
1.83012
0
LINE
8
BLACK
6
CONTINUOUS
10
0.391083
20
1.83012
11
0.260768
21
1.83012
0
LINE
8
BLACK
6
CONTINUOUS
10
0.643635
20
1.85899
11
0.643346
21
1.85969
0
LINE
8
BLACK
6
CONTINUOUS
10
0.643346
20
1.85969
11
0.643346
21
2.22031
0
LINE
8
BLACK
6
CONTINUOUS
10
0.643346
20
2.22031
11
0.643635
21
2.22101
0
LINE
8
BLACK
6
CONTINUOUS
10
0.643635
20
2.22101
11
0.644331
21
2.2213
0
LINE
8
BLACK
6
CONTINUOUS
10
0.644331
20
2.2213
11
0.935669
21
2.2213
0
LINE
8
BLACK
6
CONTINUOUS
10
0.935669
20
2.2213
11
0.936365
21
2.22101
0
LINE
8
BLACK
6
CONTINUOUS
10
0.936365
20
2.22101
11
0.936654
21
2.22031
0
LINE
8
BLACK
6
CONTINUOUS
10
0.936654
20
2.22031
11
0.936654
21
1.85969
0
LINE
8
BLACK
6
CONTINUOUS
10
0.936654
20
1.85969
11
0.936365
21
1.85899
0
LINE
8
BLACK
6
CONTINUOUS
10
0.936365
20
1.85899
11
0.935669
21
1.8587
0
LINE
8
BLACK
6
CONTINUOUS
10
0.935669
20
1.8587
11
0.644331
21
1.8587
0
LINE
8
BLACK
6
CONTINUOUS
10
0.644331
20
1.8587
11
0.643635
21
1.85899
0
LINE
8
BLACK
6
CONTINUOUS
10
0.645315
20
2.21933
11
0.645315
21
1.86067
0
LINE
8
BLACK
6
CONTINUOUS
10
0.645315
20
1.86067
11
0.934685
21
1.86067
0
LINE
8
BLACK
6
CONTINUOUS
10
0.934685
20
1.86067
11
0.934685
21
2.21933
0
LINE
8
BLACK
6
CONTINUOUS
10
0.934685
20
2.21933
11
0.645315
21
2.21933
0
LINE
8
BLACK
6
CONTINUOUS
10
1.98072
20
1.86237
11
1.98043
21
1.86307
0
LINE
8
BLACK
6
CONTINUOUS
10
1.98043
20
1.86307
11
1.98043
21
1.99693
0
LINE
8
BLACK
6
CONTINUOUS
10
1.98043
20
1.99693
11
1.98072
21
1.99763
0
LINE
8
BLACK
6
CONTINUOUS
10
1.98072
20
1.99763
11
1.98142
21
1.99791
0
LINE
8
BLACK
6
CONTINUOUS
10
1.98142
20
1.99791
11
2.05858
21
1.99791
0
LINE
8
BLACK
6
CONTINUOUS
10
2.05858
20
1.99791
11
2.05928
21
1.99763
0
LINE
8
BLACK
6
CONTINUOUS
10
2.05928
20
1.99763
11
2.05957
21
1.99693
0
LINE
8
BLACK
6
CONTINUOUS
10
2.05957
20
1.99693
11
2.05957
21
1.86307
0
LINE
8
BLACK
6
CONTINUOUS
10
2.05957
20
1.86307
11
2.05928
21
1.86237
0
LINE
8
BLACK
6
CONTINUOUS
10
2.05928
20
1.86237
11
2.05858
21
1.86209
0
LINE
8
BLACK
6
CONTINUOUS
10
2.05858
20
1.86209
11
1.98142
21
1.86209
0
LINE
8
BLACK
6
CONTINUOUS
10
1.98142
20
1.86209
11
1.98072
21
1.86237
0
LINE
8
BLACK
6
CONTINUOUS
10
1.9824
20
1.99594
11
1.9824
21
1.86406
0
LINE
8
BLACK
6
CONTINUOUS
10
1.9824
20
1.86406
11
2.0576
21
1.86406
0
LINE
8
BLACK
6
CONTINUOUS
10
2.0576
20
1.86406
11
2.0576
21
1.99594
0
LINE
8
BLACK
6
CONTINUOUS
10
2.0576
20
1.99594
11
1.9824
21
1.99594
0
LINE
8
BLACK
6
CONTINUOUS
10
0.259087
20
1.91308
11
0.258799
21
1.91378
0
LINE
8
BLACK
6
CONTINUOUS
10
0.258799
20
1.91378
11
0.258799
21
1.98858
0
LINE
8
BLACK
6
CONTINUOUS
10
0.258799
20
1.98858
11
0.259087
21
1.98928
0
LINE
8
BLACK
6
CONTINUOUS
10
0.259087
20
1.98928
11
0.259783
21
1.98957
0
LINE
8
BLACK
6
CONTINUOUS
10
0.259783
20
1.98957
11
0.392067
21
1.98957
0
LINE
8
BLACK
6
CONTINUOUS
10
0.392067
20
1.98957
11
0.392763
21
1.98928
0
LINE
8
BLACK
6
CONTINUOUS
10
0.392763
20
1.98928
11
0.393051
21
1.98858
0
LINE
8
BLACK
6
CONTINUOUS
10
0.393051
20
1.98858
11
0.393051
21
1.91378
0
LINE
8
BLACK
6
CONTINUOUS
10
0.393051
20
1.91378
11
0.392763
21
1.91308
0
LINE
8
BLACK
6
CONTINUOUS
10
0.392763
20
1.91308
11
0.392067
21
1.9128
0
LINE
8
BLACK
6
CONTINUOUS
10
0.392067
20
1.9128
11
0.259783
21
1.9128
0
LINE
8
BLACK
6
CONTINUOUS
10
0.259783
20
1.9128
11
0.259087
21
1.91308
0
LINE
8
BLACK
6
CONTINUOUS
10
0.260768
20
1.9876
11
0.260768
21
1.91476
0
LINE
8
BLACK
6
CONTINUOUS
10
0.260768
20
1.91476
11
0.391083
21
1.91476
0
LINE
8
BLACK
6
CONTINUOUS
10
0.391083
20
1.91476
11
0.391083
21
1.9876
0
LINE
8
BLACK
6
CONTINUOUS
10
0.391083
20
1.9876
11
0.260768
21
1.9876
0
LINE
8
BLACK
6
CONTINUOUS
10
2.23237
20
1.99072
11
2.23209
21
1.99142
0
LINE
8
BLACK
6
CONTINUOUS
10
2.23209
20
1.99142
11
2.23209
21
2.06858
0
LINE
8
BLACK
6
CONTINUOUS
10
2.23209
20
2.06858
11
2.23237
21
2.06928
0
LINE
8
BLACK
6
CONTINUOUS
10
2.23237
20
2.06928
11
2.23307
21
2.06957
0
LINE
8
BLACK
6
CONTINUOUS
10
2.23307
20
2.06957
11
2.36693
21
2.06957
0
LINE
8
BLACK
6
CONTINUOUS
10
2.36693
20
2.06957
11
2.36763
21
2.06928
0
LINE
8
BLACK
6
CONTINUOUS
10
2.36763
20
2.06928
11
2.36791
21
2.06858
0
LINE
8
BLACK
6
CONTINUOUS
10
2.36791
20
2.06858
11
2.36791
21
1.99142
0
LINE
8
BLACK
6
CONTINUOUS
10
2.36791
20
1.99142
11
2.36763
21
1.99072
0
LINE
8
BLACK
6
CONTINUOUS
10
2.36763
20
1.99072
11
2.36693
21
1.99043
0
LINE
8
BLACK
6
CONTINUOUS
10
2.36693
20
1.99043
11
2.23307
21
1.99043
0
LINE
8
BLACK
6
CONTINUOUS
10
2.23307
20
1.99043
11
2.23237
21
1.99072
0
LINE
8
BLACK
6
CONTINUOUS
10
2.23406
20
2.0676
11
2.23406
21
1.9924
0
LINE
8
BLACK
6
CONTINUOUS
10
2.23406
20
1.9924
11
2.36594
21
1.9924
0
LINE
8
BLACK
6
CONTINUOUS
10
2.36594
20
1.9924
11
2.36594
21
2.0676
0
LINE
8
BLACK
6
CONTINUOUS
10
2.36594
20
2.0676
11
2.23406
21
2.0676
0
LINE
8
BLACK
6
CONTINUOUS
10
2.06909
20
1.9919
11
2.0688
21
1.9926
0
LINE
8
BLACK
6
CONTINUOUS
10
2.0688
20
1.9926
11
2.0688
21
2.0674
0
LINE
8
BLACK
6
CONTINUOUS
10
2.0688
20
2.0674
11
2.06909
21
2.0681
0
LINE
8
BLACK
6
CONTINUOUS
10
2.06909
20
2.0681
11
2.06978
21
2.06839
0
LINE
8
BLACK
6
CONTINUOUS
10
2.06978
20
2.06839
11
2.20207
21
2.06839
0
LINE
8
BLACK
6
CONTINUOUS
10
2.20207
20
2.06839
11
2.20276
21
2.0681
0
LINE
8
BLACK
6
CONTINUOUS
10
2.20276
20
2.0681
11
2.20305
21
2.0674
0
LINE
8
BLACK
6
CONTINUOUS
10
2.20305
20
2.0674
11
2.20305
21
1.9926
0
LINE
8
BLACK
6
CONTINUOUS
10
2.20305
20
1.9926
11
2.20276
21
1.9919
0
LINE
8
BLACK
6
CONTINUOUS
10
2.20276
20
1.9919
11
2.20207
21
1.99161
0
LINE
8
BLACK
6
CONTINUOUS
10
2.20207
20
1.99161
11
2.06978
21
1.99161
0
LINE
8
BLACK
6
CONTINUOUS
10
2.06978
20
1.99161
11
2.06909
21
1.9919
0
LINE
8
BLACK
6
CONTINUOUS
10
2.07077
20
2.06642
11
2.07077
21
1.99358
0
LINE
8
BLACK
6
CONTINUOUS
10
2.07077
20
1.99358
11
2.20108
21
1.99358
0
LINE
8
BLACK
6
CONTINUOUS
10
2.20108
20
1.99358
11
2.20108
21
2.06642
0
LINE
8
BLACK
6
CONTINUOUS
10
2.20108
20
2.06642
11
2.07077
21
2.06642
0
LINE
8
BLACK
6
CONTINUOUS
10
1.97237
20
2.07072
11
1.97209
21
2.07142
0
LINE
8
BLACK
6
CONTINUOUS
10
1.97209
20
2.07142
11
1.97209
21
2.14858
0
LINE
8
BLACK
6
CONTINUOUS
10
1.97209
20
2.14858
11
1.97237
21
2.14928
0
LINE
8
BLACK
6
CONTINUOUS
10
1.97237
20
2.14928
11
1.97307
21
2.14957
0
LINE
8
BLACK
6
CONTINUOUS
10
1.97307
20
2.14957
11
2.10693
21
2.14957
0
LINE
8
BLACK
6
CONTINUOUS
10
2.10693
20
2.14957
11
2.10763
21
2.14928
0
LINE
8
BLACK
6
CONTINUOUS
10
2.10763
20
2.14928
11
2.10791
21
2.14858
0
LINE
8
BLACK
6
CONTINUOUS
10
2.10791
20
2.14858
11
2.10791
21
2.07142
0
LINE
8
BLACK
6
CONTINUOUS
10
2.10791
20
2.07142
11
2.10763
21
2.07072
0
LINE
8
BLACK
6
CONTINUOUS
10
2.10763
20
2.07072
11
2.10693
21
2.07043
0
LINE
8
BLACK
6
CONTINUOUS
10
2.10693
20
2.07043
11
1.97307
21
2.07043
0
LINE
8
BLACK
6
CONTINUOUS
10
1.97307
20
2.07043
11
1.97237
21
2.07072
0
LINE
8
BLACK
6
CONTINUOUS
10
1.97406
20
2.1476
11
1.97406
21
2.0724
0
LINE
8
BLACK
6
CONTINUOUS
10
1.97406
20
2.0724
11
2.10594
21
2.0724
0
LINE
8
BLACK
6
CONTINUOUS
10
2.10594
20
2.0724
11
2.10594
21
2.1476
0
LINE
8
BLACK
6
CONTINUOUS
10
2.10594
20
2.1476
11
1.97406
21
2.1476
0
LINE
8
BLACK
6
CONTINUOUS
10
2.1219
20
2.08316
11
2.12161
21
2.08386
0
LINE
8
BLACK
6
CONTINUOUS
10
2.12161
20
2.08386
11
2.12161
21
2.21614
0
LINE
8
BLACK
6
CONTINUOUS
10
2.12161
20
2.21614
11
2.1219
21
2.21684
0
LINE
8
BLACK
6
CONTINUOUS
10
2.1219
20
2.21684
11
2.1226
21
2.21713
0
LINE
8
BLACK
6
CONTINUOUS
10
2.1226
20
2.21713
11
2.1974
21
2.21713
0
LINE
8
BLACK
6
CONTINUOUS
10
2.1974
20
2.21713
11
2.1981
21
2.21684
0
LINE
8
BLACK
6
CONTINUOUS
10
2.1981
20
2.21684
11
2.19839
21
2.21614
0
LINE
8
BLACK
6
CONTINUOUS
10
2.19839
20
2.21614
11
2.19839
21
2.08386
0
LINE
8
BLACK
6
CONTINUOUS
10
2.19839
20
2.08386
11
2.1981
21
2.08316
0
LINE
8
BLACK
6
CONTINUOUS
10
2.1981
20
2.08316
11
2.1974
21
2.08287
0
LINE
8
BLACK
6
CONTINUOUS
10
2.1974
20
2.08287
11
2.1226
21
2.08287
0
LINE
8
BLACK
6
CONTINUOUS
10
2.1226
20
2.08287
11
2.1219
21
2.08316
0
LINE
8
BLACK
6
CONTINUOUS
10
2.12358
20
2.21516
11
2.12358
21
2.08484
0
LINE
8
BLACK
6
CONTINUOUS
10
2.12358
20
2.08484
11
2.19642
21
2.08484
0
LINE
8
BLACK
6
CONTINUOUS
10
2.19642
20
2.08484
11
2.19642
21
2.21516
0
LINE
8
BLACK
6
CONTINUOUS
10
2.19642
20
2.21516
11
2.12358
21
2.21516
0
LINE
8
BLACK
6
CONTINUOUS
10
2.23237
20
2.10072
11
2.23209
21
2.10142
0
LINE
8
BLACK
6
CONTINUOUS
10
2.23209
20
2.10142
11
2.23209
21
2.17858
0
LINE
8
BLACK
6
CONTINUOUS
10
2.23209
20
2.17858
11
2.23237
21
2.17928
0
LINE
8
BLACK
6
CONTINUOUS
10
2.23237
20
2.17928
11
2.23307
21
2.17957
0
LINE
8
BLACK
6
CONTINUOUS
10
2.23307
20
2.17957
11
2.36693
21
2.17957
0
LINE
8
BLACK
6
CONTINUOUS
10
2.36693
20
2.17957
11
2.36763
21
2.17928
0
LINE
8
BLACK
6
CONTINUOUS
10
2.36763
20
2.17928
11
2.36791
21
2.17858
0
LINE
8
BLACK
6
CONTINUOUS
10
2.36791
20
2.17858
11
2.36791
21
2.10142
0
LINE
8
BLACK
6
CONTINUOUS
10
2.36791
20
2.10142
11
2.36763
21
2.10072
0
LINE
8
BLACK
6
CONTINUOUS
10
2.36763
20
2.10072
11
2.36693
21
2.10043
0
LINE
8
BLACK
6
CONTINUOUS
10
2.36693
20
2.10043
11
2.23307
21
2.10043
0
LINE
8
BLACK
6
CONTINUOUS
10
2.23307
20
2.10043
11
2.23237
21
2.10072
0
LINE
8
BLACK
6
CONTINUOUS
10
2.23406
20
2.1776
11
2.23406
21
2.1024
0
LINE
8
BLACK
6
CONTINUOUS
10
2.23406
20
2.1024
11
2.36594
21
2.1024
0
LINE
8
BLACK
6
CONTINUOUS
10
2.36594
20
2.1024
11
2.36594
21
2.1776
0
LINE
8
BLACK
6
CONTINUOUS
10
2.36594
20
2.1776
11
2.23406
21
2.1776
0
LINE
8
BLACK
6
CONTINUOUS
10
2.23237
20
2.21072
11
2.23209
21
2.21142
0
LINE
8
BLACK
6
CONTINUOUS
10
2.23209
20
2.21142
11
2.23209
21
2.28858
0
LINE
8
BLACK
6
CONTINUOUS
10
2.23209
20
2.28858
11
2.23237
21
2.28928
0
LINE
8
BLACK
6
CONTINUOUS
10
2.23237
20
2.28928
11
2.23307
21
2.28957
0
LINE
8
BLACK
6
CONTINUOUS
10
2.23307
20
2.28957
11
2.36693
21
2.28957
0
LINE
8
BLACK
6
CONTINUOUS
10
2.36693
20
2.28957
11
2.36763
21
2.28928
0
LINE
8
BLACK
6
CONTINUOUS
10
2.36763
20
2.28928
11
2.36791
21
2.28858
0
LINE
8
BLACK
6
CONTINUOUS
10
2.36791
20
2.28858
11
2.36791
21
2.21142
0
LINE
8
BLACK
6
CONTINUOUS
10
2.36791
20
2.21142
11
2.36763
21
2.21072
0
LINE
8
BLACK
6
CONTINUOUS
10
2.36763
20
2.21072
11
2.36693
21
2.21043
0
LINE
8
BLACK
6
CONTINUOUS
10
2.36693
20
2.21043
11
2.23307
21
2.21043
0
LINE
8
BLACK
6
CONTINUOUS
10
2.23307
20
2.21043
11
2.23237
21
2.21072
0
LINE
8
BLACK
6
CONTINUOUS
10
2.23406
20
2.2876
11
2.23406
21
2.2124
0
LINE
8
BLACK
6
CONTINUOUS
10
2.23406
20
2.2124
11
2.36594
21
2.2124
0
LINE
8
BLACK
6
CONTINUOUS
10
2.36594
20
2.2124
11
2.36594
21
2.2876
0
LINE
8
BLACK
6
CONTINUOUS
10
2.36594
20
2.2876
11
2.23406
21
2.2876
0
LINE
8
BLACK
6
CONTINUOUS
10
0.662375
20
2.24072
11
0.662087
21
2.24142
0
LINE
8
BLACK
6
CONTINUOUS
10
0.662087
20
2.24142
11
0.662087
21
2.31858
0
LINE
8
BLACK
6
CONTINUOUS
10
0.662087
20
2.31858
11
0.662375
21
2.31928
0
LINE
8
BLACK
6
CONTINUOUS
10
0.662375
20
2.31928
11
0.663071
21
2.31957
0
LINE
8
BLACK
6
CONTINUOUS
10
0.663071
20
2.31957
11
0.796929
21
2.31957
0
LINE
8
BLACK
6
CONTINUOUS
10
0.796929
20
2.31957
11
0.797625
21
2.31928
0
LINE
8
BLACK
6
CONTINUOUS
10
0.797625
20
2.31928
11
0.797913
21
2.31858
0
LINE
8
BLACK
6
CONTINUOUS
10
0.797913
20
2.31858
11
0.797913
21
2.24142
0
LINE
8
BLACK
6
CONTINUOUS
10
0.797913
20
2.24142
11
0.797625
21
2.24072
0
LINE
8
BLACK
6
CONTINUOUS
10
0.797625
20
2.24072
11
0.796929
21
2.24043
0
LINE
8
BLACK
6
CONTINUOUS
10
0.796929
20
2.24043
11
0.663071
21
2.24043
0
LINE
8
BLACK
6
CONTINUOUS
10
0.663071
20
2.24043
11
0.662375
21
2.24072
0
LINE
8
BLACK
6
CONTINUOUS
10
0.664055
20
2.3176
11
0.664055
21
2.2424
0
LINE
8
BLACK
6
CONTINUOUS
10
0.664055
20
2.2424
11
0.795945
21
2.2424
0
LINE
8
BLACK
6
CONTINUOUS
10
0.795945
20
2.2424
11
0.795945
21
2.3176
0
LINE
8
BLACK
6
CONTINUOUS
10
0.795945
20
2.3176
11
0.664055
21
2.3176
0
LINE
8
BLACK
6
CONTINUOUS
10
1.15316
20
2.3819
11
1.15287
21
2.3826
0
LINE
8
BLACK
6
CONTINUOUS
10
1.15287
20
2.3826
11
1.15287
21
2.4574
0
LINE
8
BLACK
6
CONTINUOUS
10
1.15287
20
2.4574
11
1.15316
21
2.4581
0
LINE
8
BLACK
6
CONTINUOUS
10
1.15316
20
2.4581
11
1.15386
21
2.45839
0
LINE
8
BLACK
6
CONTINUOUS
10
1.15386
20
2.45839
11
1.28614
21
2.45839
0
LINE
8
BLACK
6
CONTINUOUS
10
1.28614
20
2.45839
11
1.28684
21
2.4581
0
LINE
8
BLACK
6
CONTINUOUS
10
1.28684
20
2.4581
11
1.28713
21
2.4574
0
LINE
8
BLACK
6
CONTINUOUS
10
1.28713
20
2.4574
11
1.28713
21
2.3826
0
LINE
8
BLACK
6
CONTINUOUS
10
1.28713
20
2.3826
11
1.28684
21
2.3819
0
LINE
8
BLACK
6
CONTINUOUS
10
1.28684
20
2.3819
11
1.28614
21
2.38161
0
LINE
8
BLACK
6
CONTINUOUS
10
1.28614
20
2.38161
11
1.15386
21
2.38161
0
LINE
8
BLACK
6
CONTINUOUS
10
1.15386
20
2.38161
11
1.15316
21
2.3819
0
LINE
8
BLACK
6
CONTINUOUS
10
1.15484
20
2.45642
11
1.15484
21
2.38358
0
LINE
8
BLACK
6
CONTINUOUS
10
1.15484
20
2.38358
11
1.28516
21
2.38358
0
LINE
8
BLACK
6
CONTINUOUS
10
1.28516
20
2.38358
11
1.28516
21
2.45642
0
LINE
8
BLACK
6
CONTINUOUS
10
1.28516
20
2.45642
11
1.15484
21
2.45642
0
LINE
8
BLACK
6
CONTINUOUS
10
1.43724
20
2.4019
11
1.43695
21
2.4026
0
LINE
8
BLACK
6
CONTINUOUS
10
1.43695
20
2.4026
11
1.43695
21
2.4774
0
LINE
8
BLACK
6
CONTINUOUS
10
1.43695
20
2.4774
11
1.43724
21
2.4781
0
LINE
8
BLACK
6
CONTINUOUS
10
1.43724
20
2.4781
11
1.43793
21
2.47839
0
LINE
8
BLACK
6
CONTINUOUS
10
1.43793
20
2.47839
11
1.57022
21
2.47839
0
LINE
8
BLACK
6
CONTINUOUS
10
1.57022
20
2.47839
11
1.57091
21
2.4781
0
LINE
8
BLACK
6
CONTINUOUS
10
1.57091
20
2.4781
11
1.5712
21
2.4774
0
LINE
8
BLACK
6
CONTINUOUS
10
1.5712
20
2.4774
11
1.5712
21
2.4026
0
LINE
8
BLACK
6
CONTINUOUS
10
1.5712
20
2.4026
11
1.57091
21
2.4019
0
LINE
8
BLACK
6
CONTINUOUS
10
1.57091
20
2.4019
11
1.57022
21
2.40161
0
LINE
8
BLACK
6
CONTINUOUS
10
1.57022
20
2.40161
11
1.43793
21
2.40161
0
LINE
8
BLACK
6
CONTINUOUS
10
1.43793
20
2.40161
11
1.43724
21
2.4019
0
LINE
8
BLACK
6
CONTINUOUS
10
1.43892
20
2.47642
11
1.43892
21
2.40358
0
LINE
8
BLACK
6
CONTINUOUS
10
1.43892
20
2.40358
11
1.56923
21
2.40358
0
LINE
8
BLACK
6
CONTINUOUS
10
1.56923
20
2.40358
11
1.56923
21
2.47642
0
LINE
8
BLACK
6
CONTINUOUS
10
1.56923
20
2.47642
11
1.43892
21
2.47642
0
LINE
8
BLACK
6
CONTINUOUS
10
1.59316
20
2.4019
11
1.59287
21
2.4026
0
LINE
8
BLACK
6
CONTINUOUS
10
1.59287
20
2.4026
11
1.59287
21
2.4774
0
LINE
8
BLACK
6
CONTINUOUS
10
1.59287
20
2.4774
11
1.59316
21
2.4781
0
LINE
8
BLACK
6
CONTINUOUS
10
1.59316
20
2.4781
11
1.59386
21
2.47839
0
LINE
8
BLACK
6
CONTINUOUS
10
1.59386
20
2.47839
11
1.72614
21
2.47839
0
LINE
8
BLACK
6
CONTINUOUS
10
1.72614
20
2.47839
11
1.72684
21
2.4781
0
LINE
8
BLACK
6
CONTINUOUS
10
1.72684
20
2.4781
11
1.72713
21
2.4774
0
LINE
8
BLACK
6
CONTINUOUS
10
1.72713
20
2.4774
11
1.72713
21
2.4026
0
LINE
8
BLACK
6
CONTINUOUS
10
1.72713
20
2.4026
11
1.72684
21
2.4019
0
LINE
8
BLACK
6
CONTINUOUS
10
1.72684
20
2.4019
11
1.72614
21
2.40161
0
LINE
8
BLACK
6
CONTINUOUS
10
1.72614
20
2.40161
11
1.59386
21
2.40161
0
LINE
8
BLACK
6
CONTINUOUS
10
1.59386
20
2.40161
11
1.59316
21
2.4019
0
LINE
8
BLACK
6
CONTINUOUS
10
1.59484
20
2.47642
11
1.59484
21
2.40358
0
LINE
8
BLACK
6
CONTINUOUS
10
1.59484
20
2.40358
11
1.72516
21
2.40358
0
LINE
8
BLACK
6
CONTINUOUS
10
1.72516
20
2.40358
11
1.72516
21
2.47642
0
LINE
8
BLACK
6
CONTINUOUS
10
1.72516
20
2.47642
11
1.59484
21
2.47642
  0
ENDSEC
  0
EOF
